G04 #@! TF.GenerationSoftware,KiCad,Pcbnew,(5.1.8-0-10_14)*
G04 #@! TF.CreationDate,2021-01-24T23:08:39-06:00*
G04 #@! TF.ProjectId,ClimateSprinklerController,436c696d-6174-4655-9370-72696e6b6c65,rev?*
G04 #@! TF.SameCoordinates,Original*
G04 #@! TF.FileFunction,Soldermask,Bot*
G04 #@! TF.FilePolarity,Negative*
%FSLAX46Y46*%
G04 Gerber Fmt 4.6, Leading zero omitted, Abs format (unit mm)*
G04 Created by KiCad (PCBNEW (5.1.8-0-10_14)) date 2021-01-24 23:08:39*
%MOMM*%
%LPD*%
G01*
G04 APERTURE LIST*
%ADD10O,1.802000X1.802000*%
%ADD11C,2.102000*%
%ADD12C,5.702000*%
%ADD13O,1.902000X2.502000*%
%ADD14C,0.100000*%
%ADD15C,1.702000*%
%ADD16C,1.552000*%
%ADD17O,1.302000X2.002000*%
%ADD18C,1.603140*%
%ADD19C,2.202000*%
%ADD20C,1.852000*%
%ADD21C,0.902000*%
%ADD22C,6.502000*%
%ADD23C,1.902000*%
G04 APERTURE END LIST*
G36*
G01*
X88979752Y-56151000D02*
X88020248Y-56151000D01*
G75*
G02*
X87749000Y-55879752I0J271248D01*
G01*
X87749000Y-55120248D01*
G75*
G02*
X88020248Y-54849000I271248J0D01*
G01*
X88979752Y-54849000D01*
G75*
G02*
X89251000Y-55120248I0J-271248D01*
G01*
X89251000Y-55879752D01*
G75*
G02*
X88979752Y-56151000I-271248J0D01*
G01*
G37*
G36*
G01*
X88979752Y-58151000D02*
X88020248Y-58151000D01*
G75*
G02*
X87749000Y-57879752I0J271248D01*
G01*
X87749000Y-57120248D01*
G75*
G02*
X88020248Y-56849000I271248J0D01*
G01*
X88979752Y-56849000D01*
G75*
G02*
X89251000Y-57120248I0J-271248D01*
G01*
X89251000Y-57879752D01*
G75*
G02*
X88979752Y-58151000I-271248J0D01*
G01*
G37*
D10*
X227710000Y-60750000D03*
G36*
G01*
X229400000Y-59849000D02*
X231100000Y-59849000D01*
G75*
G02*
X231151000Y-59900000I0J-51000D01*
G01*
X231151000Y-61600000D01*
G75*
G02*
X231100000Y-61651000I-51000J0D01*
G01*
X229400000Y-61651000D01*
G75*
G02*
X229349000Y-61600000I0J51000D01*
G01*
X229349000Y-59900000D01*
G75*
G02*
X229400000Y-59849000I51000J0D01*
G01*
G37*
G36*
G01*
X163151000Y-56270248D02*
X163151000Y-57229752D01*
G75*
G02*
X162879752Y-57501000I-271248J0D01*
G01*
X162120248Y-57501000D01*
G75*
G02*
X161849000Y-57229752I0J271248D01*
G01*
X161849000Y-56270248D01*
G75*
G02*
X162120248Y-55999000I271248J0D01*
G01*
X162879752Y-55999000D01*
G75*
G02*
X163151000Y-56270248I0J-271248D01*
G01*
G37*
G36*
G01*
X165151000Y-56270248D02*
X165151000Y-57229752D01*
G75*
G02*
X164879752Y-57501000I-271248J0D01*
G01*
X164120248Y-57501000D01*
G75*
G02*
X163849000Y-57229752I0J271248D01*
G01*
X163849000Y-56270248D01*
G75*
G02*
X164120248Y-55999000I271248J0D01*
G01*
X164879752Y-55999000D01*
G75*
G02*
X165151000Y-56270248I0J-271248D01*
G01*
G37*
G36*
G01*
X187200000Y-120049000D02*
X188300000Y-120049000D01*
G75*
G02*
X188351000Y-120100000I0J-51000D01*
G01*
X188351000Y-121200000D01*
G75*
G02*
X188300000Y-121251000I-51000J0D01*
G01*
X187200000Y-121251000D01*
G75*
G02*
X187149000Y-121200000I0J51000D01*
G01*
X187149000Y-120100000D01*
G75*
G02*
X187200000Y-120049000I51000J0D01*
G01*
G37*
G36*
G01*
X187200000Y-117249000D02*
X188300000Y-117249000D01*
G75*
G02*
X188351000Y-117300000I0J-51000D01*
G01*
X188351000Y-118400000D01*
G75*
G02*
X188300000Y-118451000I-51000J0D01*
G01*
X187200000Y-118451000D01*
G75*
G02*
X187149000Y-118400000I0J51000D01*
G01*
X187149000Y-117300000D01*
G75*
G02*
X187200000Y-117249000I51000J0D01*
G01*
G37*
G36*
G01*
X85151000Y-58770248D02*
X85151000Y-59729752D01*
G75*
G02*
X84879752Y-60001000I-271248J0D01*
G01*
X84120248Y-60001000D01*
G75*
G02*
X83849000Y-59729752I0J271248D01*
G01*
X83849000Y-58770248D01*
G75*
G02*
X84120248Y-58499000I271248J0D01*
G01*
X84879752Y-58499000D01*
G75*
G02*
X85151000Y-58770248I0J-271248D01*
G01*
G37*
G36*
G01*
X83151000Y-58770248D02*
X83151000Y-59729752D01*
G75*
G02*
X82879752Y-60001000I-271248J0D01*
G01*
X82120248Y-60001000D01*
G75*
G02*
X81849000Y-59729752I0J271248D01*
G01*
X81849000Y-58770248D01*
G75*
G02*
X82120248Y-58499000I271248J0D01*
G01*
X82879752Y-58499000D01*
G75*
G02*
X83151000Y-58770248I0J-271248D01*
G01*
G37*
G36*
G01*
X229389000Y-66410000D02*
X229389000Y-64710000D01*
G75*
G02*
X229440000Y-64659000I51000J0D01*
G01*
X231140000Y-64659000D01*
G75*
G02*
X231191000Y-64710000I0J-51000D01*
G01*
X231191000Y-66410000D01*
G75*
G02*
X231140000Y-66461000I-51000J0D01*
G01*
X229440000Y-66461000D01*
G75*
G02*
X229389000Y-66410000I0J51000D01*
G01*
G37*
X227750000Y-65560000D03*
X230290000Y-68100000D03*
X227750000Y-68100000D03*
X230290000Y-70640000D03*
X227750000Y-70640000D03*
X230290000Y-73180000D03*
X227750000Y-73180000D03*
X230290000Y-75720000D03*
X227750000Y-75720000D03*
X230290000Y-78260000D03*
X227750000Y-78260000D03*
X230290000Y-80800000D03*
X227750000Y-80800000D03*
X230290000Y-83340000D03*
X227750000Y-83340000D03*
X230290000Y-85880000D03*
X227750000Y-85880000D03*
G36*
G01*
X113151000Y-124900000D02*
X113151000Y-126600000D01*
G75*
G02*
X113100000Y-126651000I-51000J0D01*
G01*
X111400000Y-126651000D01*
G75*
G02*
X111349000Y-126600000I0J51000D01*
G01*
X111349000Y-124900000D01*
G75*
G02*
X111400000Y-124849000I51000J0D01*
G01*
X113100000Y-124849000D01*
G75*
G02*
X113151000Y-124900000I0J-51000D01*
G01*
G37*
X109710000Y-125750000D03*
X112250000Y-123210000D03*
X109710000Y-123210000D03*
X112250000Y-120670000D03*
X109710000Y-120670000D03*
D11*
X90000000Y-115500000D03*
G36*
G01*
X83949000Y-116500000D02*
X83949000Y-114500000D01*
G75*
G02*
X84000000Y-114449000I51000J0D01*
G01*
X86000000Y-114449000D01*
G75*
G02*
X86051000Y-114500000I0J-51000D01*
G01*
X86051000Y-116500000D01*
G75*
G02*
X86000000Y-116551000I-51000J0D01*
G01*
X84000000Y-116551000D01*
G75*
G02*
X83949000Y-116500000I0J51000D01*
G01*
G37*
D12*
X213550000Y-128800000D03*
X86450000Y-128800000D03*
G36*
G01*
X191401000Y-98020248D02*
X191401000Y-98979752D01*
G75*
G02*
X191129752Y-99251000I-271248J0D01*
G01*
X190370248Y-99251000D01*
G75*
G02*
X190099000Y-98979752I0J271248D01*
G01*
X190099000Y-98020248D01*
G75*
G02*
X190370248Y-97749000I271248J0D01*
G01*
X191129752Y-97749000D01*
G75*
G02*
X191401000Y-98020248I0J-271248D01*
G01*
G37*
G36*
G01*
X193401000Y-98020248D02*
X193401000Y-98979752D01*
G75*
G02*
X193129752Y-99251000I-271248J0D01*
G01*
X192370248Y-99251000D01*
G75*
G02*
X192099000Y-98979752I0J271248D01*
G01*
X192099000Y-98020248D01*
G75*
G02*
X192370248Y-97749000I271248J0D01*
G01*
X193129752Y-97749000D01*
G75*
G02*
X193401000Y-98020248I0J-271248D01*
G01*
G37*
D13*
X197000000Y-98500000D03*
G36*
G01*
X198024000Y-99215600D02*
X198024000Y-97784400D01*
G75*
G02*
X198234400Y-97574000I210400J0D01*
G01*
X198865600Y-97574000D01*
G75*
G02*
X199076000Y-97784400I0J-210400D01*
G01*
X199076000Y-99215600D01*
G75*
G02*
X198865600Y-99426000I-210400J0D01*
G01*
X198234400Y-99426000D01*
G75*
G02*
X198024000Y-99215600I0J210400D01*
G01*
G37*
G36*
G01*
X194924000Y-99215600D02*
X194924000Y-97784400D01*
G75*
G02*
X195134400Y-97574000I210400J0D01*
G01*
X195765600Y-97574000D01*
G75*
G02*
X195976000Y-97784400I0J-210400D01*
G01*
X195976000Y-99215600D01*
G75*
G02*
X195765600Y-99426000I-210400J0D01*
G01*
X195134400Y-99426000D01*
G75*
G02*
X194924000Y-99215600I0J210400D01*
G01*
G37*
G36*
G01*
X205900000Y-51599000D02*
X207600000Y-51599000D01*
G75*
G02*
X207651000Y-51650000I0J-51000D01*
G01*
X207651000Y-53350000D01*
G75*
G02*
X207600000Y-53401000I-51000J0D01*
G01*
X205900000Y-53401000D01*
G75*
G02*
X205849000Y-53350000I0J51000D01*
G01*
X205849000Y-51650000D01*
G75*
G02*
X205900000Y-51599000I51000J0D01*
G01*
G37*
D10*
X204210000Y-52500000D03*
X201670000Y-52500000D03*
X199130000Y-52500000D03*
X196590000Y-52500000D03*
D14*
G36*
X98649950Y-55199980D02*
G01*
X98659517Y-55202882D01*
X98668334Y-55207595D01*
X98676062Y-55213938D01*
X98682405Y-55221666D01*
X98687118Y-55230483D01*
X98690020Y-55240050D01*
X98691000Y-55250000D01*
X98691000Y-56750000D01*
X98690020Y-56759950D01*
X98687118Y-56769517D01*
X98682405Y-56778334D01*
X98676062Y-56786062D01*
X98668334Y-56792405D01*
X98659517Y-56797118D01*
X98649950Y-56800020D01*
X98640000Y-56801000D01*
X98140000Y-56801000D01*
X98133888Y-56800398D01*
X98115466Y-56800398D01*
X98110467Y-56800152D01*
X98061636Y-56795342D01*
X98056686Y-56794608D01*
X98008561Y-56785036D01*
X98003705Y-56783820D01*
X97956750Y-56769576D01*
X97952039Y-56767890D01*
X97906706Y-56749113D01*
X97902180Y-56746973D01*
X97858907Y-56723842D01*
X97854616Y-56721269D01*
X97813817Y-56694009D01*
X97809796Y-56691027D01*
X97771867Y-56659899D01*
X97768159Y-56656538D01*
X97733462Y-56621841D01*
X97730101Y-56618133D01*
X97698973Y-56580204D01*
X97695991Y-56576183D01*
X97668731Y-56535384D01*
X97666158Y-56531093D01*
X97643027Y-56487820D01*
X97640887Y-56483294D01*
X97622110Y-56437961D01*
X97620424Y-56433250D01*
X97606180Y-56386295D01*
X97604964Y-56381439D01*
X97595392Y-56333314D01*
X97594658Y-56328364D01*
X97589848Y-56279533D01*
X97589602Y-56274534D01*
X97589602Y-56256112D01*
X97589000Y-56250000D01*
X97589000Y-55750000D01*
X97589602Y-55743888D01*
X97589602Y-55725466D01*
X97589848Y-55720467D01*
X97594658Y-55671636D01*
X97595392Y-55666686D01*
X97604964Y-55618561D01*
X97606180Y-55613705D01*
X97620424Y-55566750D01*
X97622110Y-55562039D01*
X97640887Y-55516706D01*
X97643027Y-55512180D01*
X97666158Y-55468907D01*
X97668731Y-55464616D01*
X97695991Y-55423817D01*
X97698973Y-55419796D01*
X97730101Y-55381867D01*
X97733462Y-55378159D01*
X97768159Y-55343462D01*
X97771867Y-55340101D01*
X97809796Y-55308973D01*
X97813817Y-55305991D01*
X97854616Y-55278731D01*
X97858907Y-55276158D01*
X97902180Y-55253027D01*
X97906706Y-55250887D01*
X97952039Y-55232110D01*
X97956750Y-55230424D01*
X98003705Y-55216180D01*
X98008561Y-55214964D01*
X98056686Y-55205392D01*
X98061636Y-55204658D01*
X98110467Y-55199848D01*
X98115466Y-55199602D01*
X98133888Y-55199602D01*
X98140000Y-55199000D01*
X98640000Y-55199000D01*
X98649950Y-55199980D01*
G37*
G36*
X99446112Y-55199602D02*
G01*
X99464534Y-55199602D01*
X99469533Y-55199848D01*
X99518364Y-55204658D01*
X99523314Y-55205392D01*
X99571439Y-55214964D01*
X99576295Y-55216180D01*
X99623250Y-55230424D01*
X99627961Y-55232110D01*
X99673294Y-55250887D01*
X99677820Y-55253027D01*
X99721093Y-55276158D01*
X99725384Y-55278731D01*
X99766183Y-55305991D01*
X99770204Y-55308973D01*
X99808133Y-55340101D01*
X99811841Y-55343462D01*
X99846538Y-55378159D01*
X99849899Y-55381867D01*
X99881027Y-55419796D01*
X99884009Y-55423817D01*
X99911269Y-55464616D01*
X99913842Y-55468907D01*
X99936973Y-55512180D01*
X99939113Y-55516706D01*
X99957890Y-55562039D01*
X99959576Y-55566750D01*
X99973820Y-55613705D01*
X99975036Y-55618561D01*
X99984608Y-55666686D01*
X99985342Y-55671636D01*
X99990152Y-55720467D01*
X99990398Y-55725466D01*
X99990398Y-55743888D01*
X99991000Y-55750000D01*
X99991000Y-56250000D01*
X99990398Y-56256112D01*
X99990398Y-56274534D01*
X99990152Y-56279533D01*
X99985342Y-56328364D01*
X99984608Y-56333314D01*
X99975036Y-56381439D01*
X99973820Y-56386295D01*
X99959576Y-56433250D01*
X99957890Y-56437961D01*
X99939113Y-56483294D01*
X99936973Y-56487820D01*
X99913842Y-56531093D01*
X99911269Y-56535384D01*
X99884009Y-56576183D01*
X99881027Y-56580204D01*
X99849899Y-56618133D01*
X99846538Y-56621841D01*
X99811841Y-56656538D01*
X99808133Y-56659899D01*
X99770204Y-56691027D01*
X99766183Y-56694009D01*
X99725384Y-56721269D01*
X99721093Y-56723842D01*
X99677820Y-56746973D01*
X99673294Y-56749113D01*
X99627961Y-56767890D01*
X99623250Y-56769576D01*
X99576295Y-56783820D01*
X99571439Y-56785036D01*
X99523314Y-56794608D01*
X99518364Y-56795342D01*
X99469533Y-56800152D01*
X99464534Y-56800398D01*
X99446112Y-56800398D01*
X99440000Y-56801000D01*
X98940000Y-56801000D01*
X98930050Y-56800020D01*
X98920483Y-56797118D01*
X98911666Y-56792405D01*
X98903938Y-56786062D01*
X98897595Y-56778334D01*
X98892882Y-56769517D01*
X98889980Y-56759950D01*
X98889000Y-56750000D01*
X98889000Y-55250000D01*
X98889980Y-55240050D01*
X98892882Y-55230483D01*
X98897595Y-55221666D01*
X98903938Y-55213938D01*
X98911666Y-55207595D01*
X98920483Y-55202882D01*
X98930050Y-55199980D01*
X98940000Y-55199000D01*
X99440000Y-55199000D01*
X99446112Y-55199602D01*
G37*
G36*
G01*
X93095001Y-58796000D02*
X92444999Y-58796000D01*
G75*
G02*
X92394000Y-58745001I0J50999D01*
G01*
X92394000Y-57684999D01*
G75*
G02*
X92444999Y-57634000I50999J0D01*
G01*
X93095001Y-57634000D01*
G75*
G02*
X93146000Y-57684999I0J-50999D01*
G01*
X93146000Y-58745001D01*
G75*
G02*
X93095001Y-58796000I-50999J0D01*
G01*
G37*
G36*
G01*
X94045001Y-58796000D02*
X93394999Y-58796000D01*
G75*
G02*
X93344000Y-58745001I0J50999D01*
G01*
X93344000Y-57684999D01*
G75*
G02*
X93394999Y-57634000I50999J0D01*
G01*
X94045001Y-57634000D01*
G75*
G02*
X94096000Y-57684999I0J-50999D01*
G01*
X94096000Y-58745001D01*
G75*
G02*
X94045001Y-58796000I-50999J0D01*
G01*
G37*
G36*
G01*
X92145001Y-58796000D02*
X91494999Y-58796000D01*
G75*
G02*
X91444000Y-58745001I0J50999D01*
G01*
X91444000Y-57684999D01*
G75*
G02*
X91494999Y-57634000I50999J0D01*
G01*
X92145001Y-57634000D01*
G75*
G02*
X92196000Y-57684999I0J-50999D01*
G01*
X92196000Y-58745001D01*
G75*
G02*
X92145001Y-58796000I-50999J0D01*
G01*
G37*
G36*
G01*
X92145001Y-60996000D02*
X91494999Y-60996000D01*
G75*
G02*
X91444000Y-60945001I0J50999D01*
G01*
X91444000Y-59884999D01*
G75*
G02*
X91494999Y-59834000I50999J0D01*
G01*
X92145001Y-59834000D01*
G75*
G02*
X92196000Y-59884999I0J-50999D01*
G01*
X92196000Y-60945001D01*
G75*
G02*
X92145001Y-60996000I-50999J0D01*
G01*
G37*
G36*
G01*
X93095001Y-60996000D02*
X92444999Y-60996000D01*
G75*
G02*
X92394000Y-60945001I0J50999D01*
G01*
X92394000Y-59884999D01*
G75*
G02*
X92444999Y-59834000I50999J0D01*
G01*
X93095001Y-59834000D01*
G75*
G02*
X93146000Y-59884999I0J-50999D01*
G01*
X93146000Y-60945001D01*
G75*
G02*
X93095001Y-60996000I-50999J0D01*
G01*
G37*
G36*
G01*
X94045001Y-60996000D02*
X93394999Y-60996000D01*
G75*
G02*
X93344000Y-60945001I0J50999D01*
G01*
X93344000Y-59884999D01*
G75*
G02*
X93394999Y-59834000I50999J0D01*
G01*
X94045001Y-59834000D01*
G75*
G02*
X94096000Y-59884999I0J-50999D01*
G01*
X94096000Y-60945001D01*
G75*
G02*
X94045001Y-60996000I-50999J0D01*
G01*
G37*
G36*
G01*
X93069000Y-56154752D02*
X93069000Y-55195248D01*
G75*
G02*
X93340248Y-54924000I271248J0D01*
G01*
X94099752Y-54924000D01*
G75*
G02*
X94371000Y-55195248I0J-271248D01*
G01*
X94371000Y-56154752D01*
G75*
G02*
X94099752Y-56426000I-271248J0D01*
G01*
X93340248Y-56426000D01*
G75*
G02*
X93069000Y-56154752I0J271248D01*
G01*
G37*
G36*
G01*
X91069000Y-56154752D02*
X91069000Y-55195248D01*
G75*
G02*
X91340248Y-54924000I271248J0D01*
G01*
X92099752Y-54924000D01*
G75*
G02*
X92371000Y-55195248I0J-271248D01*
G01*
X92371000Y-56154752D01*
G75*
G02*
X92099752Y-56426000I-271248J0D01*
G01*
X91340248Y-56426000D01*
G75*
G02*
X91069000Y-56154752I0J271248D01*
G01*
G37*
G36*
G01*
X96424500Y-57814000D02*
X97425500Y-57814000D01*
G75*
G02*
X97701000Y-58089500I0J-275500D01*
G01*
X97701000Y-58640500D01*
G75*
G02*
X97425500Y-58916000I-275500J0D01*
G01*
X96424500Y-58916000D01*
G75*
G02*
X96149000Y-58640500I0J275500D01*
G01*
X96149000Y-58089500D01*
G75*
G02*
X96424500Y-57814000I275500J0D01*
G01*
G37*
G36*
G01*
X96424500Y-59714000D02*
X97425500Y-59714000D01*
G75*
G02*
X97701000Y-59989500I0J-275500D01*
G01*
X97701000Y-60540500D01*
G75*
G02*
X97425500Y-60816000I-275500J0D01*
G01*
X96424500Y-60816000D01*
G75*
G02*
X96149000Y-60540500I0J275500D01*
G01*
X96149000Y-59989500D01*
G75*
G02*
X96424500Y-59714000I275500J0D01*
G01*
G37*
G36*
G01*
X92371000Y-62794500D02*
X92371000Y-63795500D01*
G75*
G02*
X92095500Y-64071000I-275500J0D01*
G01*
X91544500Y-64071000D01*
G75*
G02*
X91269000Y-63795500I0J275500D01*
G01*
X91269000Y-62794500D01*
G75*
G02*
X91544500Y-62519000I275500J0D01*
G01*
X92095500Y-62519000D01*
G75*
G02*
X92371000Y-62794500I0J-275500D01*
G01*
G37*
G36*
G01*
X94271000Y-62794500D02*
X94271000Y-63795500D01*
G75*
G02*
X93995500Y-64071000I-275500J0D01*
G01*
X93444500Y-64071000D01*
G75*
G02*
X93169000Y-63795500I0J275500D01*
G01*
X93169000Y-62794500D01*
G75*
G02*
X93444500Y-62519000I275500J0D01*
G01*
X93995500Y-62519000D01*
G75*
G02*
X94271000Y-62794500I0J-275500D01*
G01*
G37*
D15*
X96420000Y-128080000D03*
X101500000Y-128080000D03*
G36*
G01*
X101925500Y-123851000D02*
X101074500Y-123851000D01*
G75*
G02*
X100649000Y-123425500I0J425500D01*
G01*
X100649000Y-122574500D01*
G75*
G02*
X101074500Y-122149000I425500J0D01*
G01*
X101925500Y-122149000D01*
G75*
G02*
X102351000Y-122574500I0J-425500D01*
G01*
X102351000Y-123425500D01*
G75*
G02*
X101925500Y-123851000I-425500J0D01*
G01*
G37*
X98960000Y-123000000D03*
X96420000Y-123000000D03*
G36*
G01*
X192149000Y-118250500D02*
X192149000Y-117249500D01*
G75*
G02*
X192424500Y-116974000I275500J0D01*
G01*
X192975500Y-116974000D01*
G75*
G02*
X193251000Y-117249500I0J-275500D01*
G01*
X193251000Y-118250500D01*
G75*
G02*
X192975500Y-118526000I-275500J0D01*
G01*
X192424500Y-118526000D01*
G75*
G02*
X192149000Y-118250500I0J275500D01*
G01*
G37*
G36*
G01*
X190249000Y-118250500D02*
X190249000Y-117249500D01*
G75*
G02*
X190524500Y-116974000I275500J0D01*
G01*
X191075500Y-116974000D01*
G75*
G02*
X191351000Y-117249500I0J-275500D01*
G01*
X191351000Y-118250500D01*
G75*
G02*
X191075500Y-118526000I-275500J0D01*
G01*
X190524500Y-118526000D01*
G75*
G02*
X190249000Y-118250500I0J275500D01*
G01*
G37*
G36*
G01*
X198651000Y-120269816D02*
X198651000Y-121230184D01*
G75*
G02*
X198380184Y-121501000I-270816J0D01*
G01*
X197619816Y-121501000D01*
G75*
G02*
X197349000Y-121230184I0J270816D01*
G01*
X197349000Y-120269816D01*
G75*
G02*
X197619816Y-119999000I270816J0D01*
G01*
X198380184Y-119999000D01*
G75*
G02*
X198651000Y-120269816I0J-270816D01*
G01*
G37*
G36*
G01*
X196651000Y-120269816D02*
X196651000Y-121230184D01*
G75*
G02*
X196380184Y-121501000I-270816J0D01*
G01*
X195619816Y-121501000D01*
G75*
G02*
X195349000Y-121230184I0J270816D01*
G01*
X195349000Y-120269816D01*
G75*
G02*
X195619816Y-119999000I270816J0D01*
G01*
X196380184Y-119999000D01*
G75*
G02*
X196651000Y-120269816I0J-270816D01*
G01*
G37*
G36*
G01*
X193401000Y-120270248D02*
X193401000Y-121229752D01*
G75*
G02*
X193129752Y-121501000I-271248J0D01*
G01*
X192370248Y-121501000D01*
G75*
G02*
X192099000Y-121229752I0J271248D01*
G01*
X192099000Y-120270248D01*
G75*
G02*
X192370248Y-119999000I271248J0D01*
G01*
X193129752Y-119999000D01*
G75*
G02*
X193401000Y-120270248I0J-271248D01*
G01*
G37*
G36*
G01*
X191401000Y-120270248D02*
X191401000Y-121229752D01*
G75*
G02*
X191129752Y-121501000I-271248J0D01*
G01*
X190370248Y-121501000D01*
G75*
G02*
X190099000Y-121229752I0J271248D01*
G01*
X190099000Y-120270248D01*
G75*
G02*
X190370248Y-119999000I271248J0D01*
G01*
X191129752Y-119999000D01*
G75*
G02*
X191401000Y-120270248I0J-271248D01*
G01*
G37*
G36*
G01*
X191401000Y-103020248D02*
X191401000Y-103979752D01*
G75*
G02*
X191129752Y-104251000I-271248J0D01*
G01*
X190370248Y-104251000D01*
G75*
G02*
X190099000Y-103979752I0J271248D01*
G01*
X190099000Y-103020248D01*
G75*
G02*
X190370248Y-102749000I271248J0D01*
G01*
X191129752Y-102749000D01*
G75*
G02*
X191401000Y-103020248I0J-271248D01*
G01*
G37*
G36*
G01*
X193401000Y-103020248D02*
X193401000Y-103979752D01*
G75*
G02*
X193129752Y-104251000I-271248J0D01*
G01*
X192370248Y-104251000D01*
G75*
G02*
X192099000Y-103979752I0J271248D01*
G01*
X192099000Y-103020248D01*
G75*
G02*
X192370248Y-102749000I271248J0D01*
G01*
X193129752Y-102749000D01*
G75*
G02*
X193401000Y-103020248I0J-271248D01*
G01*
G37*
G36*
G01*
X191401000Y-108020248D02*
X191401000Y-108979752D01*
G75*
G02*
X191129752Y-109251000I-271248J0D01*
G01*
X190370248Y-109251000D01*
G75*
G02*
X190099000Y-108979752I0J271248D01*
G01*
X190099000Y-108020248D01*
G75*
G02*
X190370248Y-107749000I271248J0D01*
G01*
X191129752Y-107749000D01*
G75*
G02*
X191401000Y-108020248I0J-271248D01*
G01*
G37*
G36*
G01*
X193401000Y-108020248D02*
X193401000Y-108979752D01*
G75*
G02*
X193129752Y-109251000I-271248J0D01*
G01*
X192370248Y-109251000D01*
G75*
G02*
X192099000Y-108979752I0J271248D01*
G01*
X192099000Y-108020248D01*
G75*
G02*
X192370248Y-107749000I271248J0D01*
G01*
X193129752Y-107749000D01*
G75*
G02*
X193401000Y-108020248I0J-271248D01*
G01*
G37*
D16*
X181500000Y-127787500D03*
X186500000Y-127787500D03*
D17*
X180500000Y-130487500D03*
X187500000Y-130487500D03*
D13*
X197000000Y-103500000D03*
G36*
G01*
X198024000Y-104215600D02*
X198024000Y-102784400D01*
G75*
G02*
X198234400Y-102574000I210400J0D01*
G01*
X198865600Y-102574000D01*
G75*
G02*
X199076000Y-102784400I0J-210400D01*
G01*
X199076000Y-104215600D01*
G75*
G02*
X198865600Y-104426000I-210400J0D01*
G01*
X198234400Y-104426000D01*
G75*
G02*
X198024000Y-104215600I0J210400D01*
G01*
G37*
G36*
G01*
X194924000Y-104215600D02*
X194924000Y-102784400D01*
G75*
G02*
X195134400Y-102574000I210400J0D01*
G01*
X195765600Y-102574000D01*
G75*
G02*
X195976000Y-102784400I0J-210400D01*
G01*
X195976000Y-104215600D01*
G75*
G02*
X195765600Y-104426000I-210400J0D01*
G01*
X195134400Y-104426000D01*
G75*
G02*
X194924000Y-104215600I0J210400D01*
G01*
G37*
X197000000Y-108500000D03*
G36*
G01*
X198024000Y-109215600D02*
X198024000Y-107784400D01*
G75*
G02*
X198234400Y-107574000I210400J0D01*
G01*
X198865600Y-107574000D01*
G75*
G02*
X199076000Y-107784400I0J-210400D01*
G01*
X199076000Y-109215600D01*
G75*
G02*
X198865600Y-109426000I-210400J0D01*
G01*
X198234400Y-109426000D01*
G75*
G02*
X198024000Y-109215600I0J210400D01*
G01*
G37*
G36*
G01*
X194924000Y-109215600D02*
X194924000Y-107784400D01*
G75*
G02*
X195134400Y-107574000I210400J0D01*
G01*
X195765600Y-107574000D01*
G75*
G02*
X195976000Y-107784400I0J-210400D01*
G01*
X195976000Y-109215600D01*
G75*
G02*
X195765600Y-109426000I-210400J0D01*
G01*
X195134400Y-109426000D01*
G75*
G02*
X194924000Y-109215600I0J210400D01*
G01*
G37*
G36*
G01*
X192149000Y-115250500D02*
X192149000Y-114249500D01*
G75*
G02*
X192424500Y-113974000I275500J0D01*
G01*
X192975500Y-113974000D01*
G75*
G02*
X193251000Y-114249500I0J-275500D01*
G01*
X193251000Y-115250500D01*
G75*
G02*
X192975500Y-115526000I-275500J0D01*
G01*
X192424500Y-115526000D01*
G75*
G02*
X192149000Y-115250500I0J275500D01*
G01*
G37*
G36*
G01*
X190249000Y-115250500D02*
X190249000Y-114249500D01*
G75*
G02*
X190524500Y-113974000I275500J0D01*
G01*
X191075500Y-113974000D01*
G75*
G02*
X191351000Y-114249500I0J-275500D01*
G01*
X191351000Y-115250500D01*
G75*
G02*
X191075500Y-115526000I-275500J0D01*
G01*
X190524500Y-115526000D01*
G75*
G02*
X190249000Y-115250500I0J275500D01*
G01*
G37*
G36*
G01*
X134729752Y-63901000D02*
X133770248Y-63901000D01*
G75*
G02*
X133499000Y-63629752I0J271248D01*
G01*
X133499000Y-62870248D01*
G75*
G02*
X133770248Y-62599000I271248J0D01*
G01*
X134729752Y-62599000D01*
G75*
G02*
X135001000Y-62870248I0J-271248D01*
G01*
X135001000Y-63629752D01*
G75*
G02*
X134729752Y-63901000I-271248J0D01*
G01*
G37*
G36*
G01*
X134729752Y-61901000D02*
X133770248Y-61901000D01*
G75*
G02*
X133499000Y-61629752I0J271248D01*
G01*
X133499000Y-60870248D01*
G75*
G02*
X133770248Y-60599000I271248J0D01*
G01*
X134729752Y-60599000D01*
G75*
G02*
X135001000Y-60870248I0J-271248D01*
G01*
X135001000Y-61629752D01*
G75*
G02*
X134729752Y-61901000I-271248J0D01*
G01*
G37*
G36*
G01*
X130520248Y-60599000D02*
X131479752Y-60599000D01*
G75*
G02*
X131751000Y-60870248I0J-271248D01*
G01*
X131751000Y-61629752D01*
G75*
G02*
X131479752Y-61901000I-271248J0D01*
G01*
X130520248Y-61901000D01*
G75*
G02*
X130249000Y-61629752I0J271248D01*
G01*
X130249000Y-60870248D01*
G75*
G02*
X130520248Y-60599000I271248J0D01*
G01*
G37*
G36*
G01*
X130520248Y-62599000D02*
X131479752Y-62599000D01*
G75*
G02*
X131751000Y-62870248I0J-271248D01*
G01*
X131751000Y-63629752D01*
G75*
G02*
X131479752Y-63901000I-271248J0D01*
G01*
X130520248Y-63901000D01*
G75*
G02*
X130249000Y-63629752I0J271248D01*
G01*
X130249000Y-62870248D01*
G75*
G02*
X130520248Y-62599000I271248J0D01*
G01*
G37*
G36*
G01*
X125249000Y-63600000D02*
X125249000Y-62800000D01*
G75*
G02*
X125300000Y-62749000I51000J0D01*
G01*
X126200000Y-62749000D01*
G75*
G02*
X126251000Y-62800000I0J-51000D01*
G01*
X126251000Y-63600000D01*
G75*
G02*
X126200000Y-63651000I-51000J0D01*
G01*
X125300000Y-63651000D01*
G75*
G02*
X125249000Y-63600000I0J51000D01*
G01*
G37*
G36*
G01*
X125249000Y-61700000D02*
X125249000Y-60900000D01*
G75*
G02*
X125300000Y-60849000I51000J0D01*
G01*
X126200000Y-60849000D01*
G75*
G02*
X126251000Y-60900000I0J-51000D01*
G01*
X126251000Y-61700000D01*
G75*
G02*
X126200000Y-61751000I-51000J0D01*
G01*
X125300000Y-61751000D01*
G75*
G02*
X125249000Y-61700000I0J51000D01*
G01*
G37*
G36*
G01*
X127249000Y-62650000D02*
X127249000Y-61850000D01*
G75*
G02*
X127300000Y-61799000I51000J0D01*
G01*
X128200000Y-61799000D01*
G75*
G02*
X128251000Y-61850000I0J-51000D01*
G01*
X128251000Y-62650000D01*
G75*
G02*
X128200000Y-62701000I-51000J0D01*
G01*
X127300000Y-62701000D01*
G75*
G02*
X127249000Y-62650000I0J51000D01*
G01*
G37*
G36*
G01*
X136999000Y-63600000D02*
X136999000Y-62800000D01*
G75*
G02*
X137050000Y-62749000I51000J0D01*
G01*
X137950000Y-62749000D01*
G75*
G02*
X138001000Y-62800000I0J-51000D01*
G01*
X138001000Y-63600000D01*
G75*
G02*
X137950000Y-63651000I-51000J0D01*
G01*
X137050000Y-63651000D01*
G75*
G02*
X136999000Y-63600000I0J51000D01*
G01*
G37*
G36*
G01*
X136999000Y-61700000D02*
X136999000Y-60900000D01*
G75*
G02*
X137050000Y-60849000I51000J0D01*
G01*
X137950000Y-60849000D01*
G75*
G02*
X138001000Y-60900000I0J-51000D01*
G01*
X138001000Y-61700000D01*
G75*
G02*
X137950000Y-61751000I-51000J0D01*
G01*
X137050000Y-61751000D01*
G75*
G02*
X136999000Y-61700000I0J51000D01*
G01*
G37*
G36*
G01*
X138999000Y-62650000D02*
X138999000Y-61850000D01*
G75*
G02*
X139050000Y-61799000I51000J0D01*
G01*
X139950000Y-61799000D01*
G75*
G02*
X140001000Y-61850000I0J-51000D01*
G01*
X140001000Y-62650000D01*
G75*
G02*
X139950000Y-62701000I-51000J0D01*
G01*
X139050000Y-62701000D01*
G75*
G02*
X138999000Y-62650000I0J51000D01*
G01*
G37*
D14*
G36*
X146299950Y-64449980D02*
G01*
X146309517Y-64452882D01*
X146318334Y-64457595D01*
X146326062Y-64463938D01*
X146332405Y-64471666D01*
X146337118Y-64480483D01*
X146340020Y-64490050D01*
X146341000Y-64500000D01*
X146341000Y-66000000D01*
X146340020Y-66009950D01*
X146337118Y-66019517D01*
X146332405Y-66028334D01*
X146326062Y-66036062D01*
X146318334Y-66042405D01*
X146309517Y-66047118D01*
X146299950Y-66050020D01*
X146290000Y-66051000D01*
X145790000Y-66051000D01*
X145783888Y-66050398D01*
X145765466Y-66050398D01*
X145760467Y-66050152D01*
X145711636Y-66045342D01*
X145706686Y-66044608D01*
X145658561Y-66035036D01*
X145653705Y-66033820D01*
X145606750Y-66019576D01*
X145602039Y-66017890D01*
X145556706Y-65999113D01*
X145552180Y-65996973D01*
X145508907Y-65973842D01*
X145504616Y-65971269D01*
X145463817Y-65944009D01*
X145459796Y-65941027D01*
X145421867Y-65909899D01*
X145418159Y-65906538D01*
X145383462Y-65871841D01*
X145380101Y-65868133D01*
X145348973Y-65830204D01*
X145345991Y-65826183D01*
X145318731Y-65785384D01*
X145316158Y-65781093D01*
X145293027Y-65737820D01*
X145290887Y-65733294D01*
X145272110Y-65687961D01*
X145270424Y-65683250D01*
X145256180Y-65636295D01*
X145254964Y-65631439D01*
X145245392Y-65583314D01*
X145244658Y-65578364D01*
X145239848Y-65529533D01*
X145239602Y-65524534D01*
X145239602Y-65506112D01*
X145239000Y-65500000D01*
X145239000Y-65000000D01*
X145239602Y-64993888D01*
X145239602Y-64975466D01*
X145239848Y-64970467D01*
X145244658Y-64921636D01*
X145245392Y-64916686D01*
X145254964Y-64868561D01*
X145256180Y-64863705D01*
X145270424Y-64816750D01*
X145272110Y-64812039D01*
X145290887Y-64766706D01*
X145293027Y-64762180D01*
X145316158Y-64718907D01*
X145318731Y-64714616D01*
X145345991Y-64673817D01*
X145348973Y-64669796D01*
X145380101Y-64631867D01*
X145383462Y-64628159D01*
X145418159Y-64593462D01*
X145421867Y-64590101D01*
X145459796Y-64558973D01*
X145463817Y-64555991D01*
X145504616Y-64528731D01*
X145508907Y-64526158D01*
X145552180Y-64503027D01*
X145556706Y-64500887D01*
X145602039Y-64482110D01*
X145606750Y-64480424D01*
X145653705Y-64466180D01*
X145658561Y-64464964D01*
X145706686Y-64455392D01*
X145711636Y-64454658D01*
X145760467Y-64449848D01*
X145765466Y-64449602D01*
X145783888Y-64449602D01*
X145790000Y-64449000D01*
X146290000Y-64449000D01*
X146299950Y-64449980D01*
G37*
G36*
X147096112Y-64449602D02*
G01*
X147114534Y-64449602D01*
X147119533Y-64449848D01*
X147168364Y-64454658D01*
X147173314Y-64455392D01*
X147221439Y-64464964D01*
X147226295Y-64466180D01*
X147273250Y-64480424D01*
X147277961Y-64482110D01*
X147323294Y-64500887D01*
X147327820Y-64503027D01*
X147371093Y-64526158D01*
X147375384Y-64528731D01*
X147416183Y-64555991D01*
X147420204Y-64558973D01*
X147458133Y-64590101D01*
X147461841Y-64593462D01*
X147496538Y-64628159D01*
X147499899Y-64631867D01*
X147531027Y-64669796D01*
X147534009Y-64673817D01*
X147561269Y-64714616D01*
X147563842Y-64718907D01*
X147586973Y-64762180D01*
X147589113Y-64766706D01*
X147607890Y-64812039D01*
X147609576Y-64816750D01*
X147623820Y-64863705D01*
X147625036Y-64868561D01*
X147634608Y-64916686D01*
X147635342Y-64921636D01*
X147640152Y-64970467D01*
X147640398Y-64975466D01*
X147640398Y-64993888D01*
X147641000Y-65000000D01*
X147641000Y-65500000D01*
X147640398Y-65506112D01*
X147640398Y-65524534D01*
X147640152Y-65529533D01*
X147635342Y-65578364D01*
X147634608Y-65583314D01*
X147625036Y-65631439D01*
X147623820Y-65636295D01*
X147609576Y-65683250D01*
X147607890Y-65687961D01*
X147589113Y-65733294D01*
X147586973Y-65737820D01*
X147563842Y-65781093D01*
X147561269Y-65785384D01*
X147534009Y-65826183D01*
X147531027Y-65830204D01*
X147499899Y-65868133D01*
X147496538Y-65871841D01*
X147461841Y-65906538D01*
X147458133Y-65909899D01*
X147420204Y-65941027D01*
X147416183Y-65944009D01*
X147375384Y-65971269D01*
X147371093Y-65973842D01*
X147327820Y-65996973D01*
X147323294Y-65999113D01*
X147277961Y-66017890D01*
X147273250Y-66019576D01*
X147226295Y-66033820D01*
X147221439Y-66035036D01*
X147173314Y-66044608D01*
X147168364Y-66045342D01*
X147119533Y-66050152D01*
X147114534Y-66050398D01*
X147096112Y-66050398D01*
X147090000Y-66051000D01*
X146590000Y-66051000D01*
X146580050Y-66050020D01*
X146570483Y-66047118D01*
X146561666Y-66042405D01*
X146553938Y-66036062D01*
X146547595Y-66028334D01*
X146542882Y-66019517D01*
X146539980Y-66009950D01*
X146539000Y-66000000D01*
X146539000Y-64500000D01*
X146539980Y-64490050D01*
X146542882Y-64480483D01*
X146547595Y-64471666D01*
X146553938Y-64463938D01*
X146561666Y-64457595D01*
X146570483Y-64452882D01*
X146580050Y-64449980D01*
X146590000Y-64449000D01*
X147090000Y-64449000D01*
X147096112Y-64449602D01*
G37*
G36*
X133619950Y-57449980D02*
G01*
X133629517Y-57452882D01*
X133638334Y-57457595D01*
X133646062Y-57463938D01*
X133652405Y-57471666D01*
X133657118Y-57480483D01*
X133660020Y-57490050D01*
X133661000Y-57500000D01*
X133661000Y-59000000D01*
X133660020Y-59009950D01*
X133657118Y-59019517D01*
X133652405Y-59028334D01*
X133646062Y-59036062D01*
X133638334Y-59042405D01*
X133629517Y-59047118D01*
X133619950Y-59050020D01*
X133610000Y-59051000D01*
X133060000Y-59051000D01*
X133053888Y-59050398D01*
X133035466Y-59050398D01*
X133030467Y-59050152D01*
X132981636Y-59045342D01*
X132976686Y-59044608D01*
X132928561Y-59035036D01*
X132923705Y-59033820D01*
X132876750Y-59019576D01*
X132872039Y-59017890D01*
X132826706Y-58999113D01*
X132822180Y-58996973D01*
X132778907Y-58973842D01*
X132774616Y-58971269D01*
X132733817Y-58944009D01*
X132729796Y-58941027D01*
X132691867Y-58909899D01*
X132688159Y-58906538D01*
X132653462Y-58871841D01*
X132650101Y-58868133D01*
X132618973Y-58830204D01*
X132615991Y-58826183D01*
X132588731Y-58785384D01*
X132586158Y-58781093D01*
X132563027Y-58737820D01*
X132560887Y-58733294D01*
X132542110Y-58687961D01*
X132540424Y-58683250D01*
X132526180Y-58636295D01*
X132524964Y-58631439D01*
X132515392Y-58583314D01*
X132514658Y-58578364D01*
X132509848Y-58529533D01*
X132509602Y-58524534D01*
X132509602Y-58506112D01*
X132509000Y-58500000D01*
X132509000Y-58000000D01*
X132509602Y-57993888D01*
X132509602Y-57975466D01*
X132509848Y-57970467D01*
X132514658Y-57921636D01*
X132515392Y-57916686D01*
X132524964Y-57868561D01*
X132526180Y-57863705D01*
X132540424Y-57816750D01*
X132542110Y-57812039D01*
X132560887Y-57766706D01*
X132563027Y-57762180D01*
X132586158Y-57718907D01*
X132588731Y-57714616D01*
X132615991Y-57673817D01*
X132618973Y-57669796D01*
X132650101Y-57631867D01*
X132653462Y-57628159D01*
X132688159Y-57593462D01*
X132691867Y-57590101D01*
X132729796Y-57558973D01*
X132733817Y-57555991D01*
X132774616Y-57528731D01*
X132778907Y-57526158D01*
X132822180Y-57503027D01*
X132826706Y-57500887D01*
X132872039Y-57482110D01*
X132876750Y-57480424D01*
X132923705Y-57466180D01*
X132928561Y-57464964D01*
X132976686Y-57455392D01*
X132981636Y-57454658D01*
X133030467Y-57449848D01*
X133035466Y-57449602D01*
X133053888Y-57449602D01*
X133060000Y-57449000D01*
X133610000Y-57449000D01*
X133619950Y-57449980D01*
G37*
G36*
X135666112Y-57449602D02*
G01*
X135684534Y-57449602D01*
X135689533Y-57449848D01*
X135738364Y-57454658D01*
X135743314Y-57455392D01*
X135791439Y-57464964D01*
X135796295Y-57466180D01*
X135843250Y-57480424D01*
X135847961Y-57482110D01*
X135893294Y-57500887D01*
X135897820Y-57503027D01*
X135941093Y-57526158D01*
X135945384Y-57528731D01*
X135986183Y-57555991D01*
X135990204Y-57558973D01*
X136028133Y-57590101D01*
X136031841Y-57593462D01*
X136066538Y-57628159D01*
X136069899Y-57631867D01*
X136101027Y-57669796D01*
X136104009Y-57673817D01*
X136131269Y-57714616D01*
X136133842Y-57718907D01*
X136156973Y-57762180D01*
X136159113Y-57766706D01*
X136177890Y-57812039D01*
X136179576Y-57816750D01*
X136193820Y-57863705D01*
X136195036Y-57868561D01*
X136204608Y-57916686D01*
X136205342Y-57921636D01*
X136210152Y-57970467D01*
X136210398Y-57975466D01*
X136210398Y-57993888D01*
X136211000Y-58000000D01*
X136211000Y-58500000D01*
X136210398Y-58506112D01*
X136210398Y-58524534D01*
X136210152Y-58529533D01*
X136205342Y-58578364D01*
X136204608Y-58583314D01*
X136195036Y-58631439D01*
X136193820Y-58636295D01*
X136179576Y-58683250D01*
X136177890Y-58687961D01*
X136159113Y-58733294D01*
X136156973Y-58737820D01*
X136133842Y-58781093D01*
X136131269Y-58785384D01*
X136104009Y-58826183D01*
X136101027Y-58830204D01*
X136069899Y-58868133D01*
X136066538Y-58871841D01*
X136031841Y-58906538D01*
X136028133Y-58909899D01*
X135990204Y-58941027D01*
X135986183Y-58944009D01*
X135945384Y-58971269D01*
X135941093Y-58973842D01*
X135897820Y-58996973D01*
X135893294Y-58999113D01*
X135847961Y-59017890D01*
X135843250Y-59019576D01*
X135796295Y-59033820D01*
X135791439Y-59035036D01*
X135743314Y-59044608D01*
X135738364Y-59045342D01*
X135689533Y-59050152D01*
X135684534Y-59050398D01*
X135666112Y-59050398D01*
X135660000Y-59051000D01*
X135110000Y-59051000D01*
X135100050Y-59050020D01*
X135090483Y-59047118D01*
X135081666Y-59042405D01*
X135073938Y-59036062D01*
X135067595Y-59028334D01*
X135062882Y-59019517D01*
X135059980Y-59009950D01*
X135059000Y-59000000D01*
X135059000Y-57500000D01*
X135059980Y-57490050D01*
X135062882Y-57480483D01*
X135067595Y-57471666D01*
X135073938Y-57463938D01*
X135081666Y-57457595D01*
X135090483Y-57452882D01*
X135100050Y-57449980D01*
X135110000Y-57449000D01*
X135660000Y-57449000D01*
X135666112Y-57449602D01*
G37*
G36*
G01*
X133809000Y-59000000D02*
X133809000Y-57500000D01*
G75*
G02*
X133860000Y-57449000I51000J0D01*
G01*
X134860000Y-57449000D01*
G75*
G02*
X134911000Y-57500000I0J-51000D01*
G01*
X134911000Y-59000000D01*
G75*
G02*
X134860000Y-59051000I-51000J0D01*
G01*
X133860000Y-59051000D01*
G75*
G02*
X133809000Y-59000000I0J51000D01*
G01*
G37*
D12*
X213550000Y-51200000D03*
X86450000Y-51200000D03*
D18*
X137700000Y-114630000D03*
X137700000Y-122250000D03*
X130080000Y-114630000D03*
X125000000Y-114630000D03*
G36*
G01*
X124198430Y-123000570D02*
X124198430Y-121499430D01*
G75*
G02*
X124249430Y-121448430I51000J0D01*
G01*
X125750570Y-121448430D01*
G75*
G02*
X125801570Y-121499430I0J-51000D01*
G01*
X125801570Y-123000570D01*
G75*
G02*
X125750570Y-123051570I-51000J0D01*
G01*
X124249430Y-123051570D01*
G75*
G02*
X124198430Y-123000570I0J51000D01*
G01*
G37*
D10*
X93720000Y-52500000D03*
X96260000Y-52500000D03*
X98800000Y-52500000D03*
G36*
G01*
X100490000Y-51599000D02*
X102190000Y-51599000D01*
G75*
G02*
X102241000Y-51650000I0J-51000D01*
G01*
X102241000Y-53350000D01*
G75*
G02*
X102190000Y-53401000I-51000J0D01*
G01*
X100490000Y-53401000D01*
G75*
G02*
X100439000Y-53350000I0J51000D01*
G01*
X100439000Y-51650000D01*
G75*
G02*
X100490000Y-51599000I51000J0D01*
G01*
G37*
G36*
G01*
X216651000Y-83770248D02*
X216651000Y-84729752D01*
G75*
G02*
X216379752Y-85001000I-271248J0D01*
G01*
X215620248Y-85001000D01*
G75*
G02*
X215349000Y-84729752I0J271248D01*
G01*
X215349000Y-83770248D01*
G75*
G02*
X215620248Y-83499000I271248J0D01*
G01*
X216379752Y-83499000D01*
G75*
G02*
X216651000Y-83770248I0J-271248D01*
G01*
G37*
G36*
G01*
X218651000Y-83770248D02*
X218651000Y-84729752D01*
G75*
G02*
X218379752Y-85001000I-271248J0D01*
G01*
X217620248Y-85001000D01*
G75*
G02*
X217349000Y-84729752I0J271248D01*
G01*
X217349000Y-83770248D01*
G75*
G02*
X217620248Y-83499000I271248J0D01*
G01*
X218379752Y-83499000D01*
G75*
G02*
X218651000Y-83770248I0J-271248D01*
G01*
G37*
G36*
G01*
X216651000Y-78770248D02*
X216651000Y-79729752D01*
G75*
G02*
X216379752Y-80001000I-271248J0D01*
G01*
X215620248Y-80001000D01*
G75*
G02*
X215349000Y-79729752I0J271248D01*
G01*
X215349000Y-78770248D01*
G75*
G02*
X215620248Y-78499000I271248J0D01*
G01*
X216379752Y-78499000D01*
G75*
G02*
X216651000Y-78770248I0J-271248D01*
G01*
G37*
G36*
G01*
X218651000Y-78770248D02*
X218651000Y-79729752D01*
G75*
G02*
X218379752Y-80001000I-271248J0D01*
G01*
X217620248Y-80001000D01*
G75*
G02*
X217349000Y-79729752I0J271248D01*
G01*
X217349000Y-78770248D01*
G75*
G02*
X217620248Y-78499000I271248J0D01*
G01*
X218379752Y-78499000D01*
G75*
G02*
X218651000Y-78770248I0J-271248D01*
G01*
G37*
G36*
G01*
X216651000Y-73770248D02*
X216651000Y-74729752D01*
G75*
G02*
X216379752Y-75001000I-271248J0D01*
G01*
X215620248Y-75001000D01*
G75*
G02*
X215349000Y-74729752I0J271248D01*
G01*
X215349000Y-73770248D01*
G75*
G02*
X215620248Y-73499000I271248J0D01*
G01*
X216379752Y-73499000D01*
G75*
G02*
X216651000Y-73770248I0J-271248D01*
G01*
G37*
G36*
G01*
X218651000Y-73770248D02*
X218651000Y-74729752D01*
G75*
G02*
X218379752Y-75001000I-271248J0D01*
G01*
X217620248Y-75001000D01*
G75*
G02*
X217349000Y-74729752I0J271248D01*
G01*
X217349000Y-73770248D01*
G75*
G02*
X217620248Y-73499000I271248J0D01*
G01*
X218379752Y-73499000D01*
G75*
G02*
X218651000Y-73770248I0J-271248D01*
G01*
G37*
G36*
G01*
X216651000Y-68770248D02*
X216651000Y-69729752D01*
G75*
G02*
X216379752Y-70001000I-271248J0D01*
G01*
X215620248Y-70001000D01*
G75*
G02*
X215349000Y-69729752I0J271248D01*
G01*
X215349000Y-68770248D01*
G75*
G02*
X215620248Y-68499000I271248J0D01*
G01*
X216379752Y-68499000D01*
G75*
G02*
X216651000Y-68770248I0J-271248D01*
G01*
G37*
G36*
G01*
X218651000Y-68770248D02*
X218651000Y-69729752D01*
G75*
G02*
X218379752Y-70001000I-271248J0D01*
G01*
X217620248Y-70001000D01*
G75*
G02*
X217349000Y-69729752I0J271248D01*
G01*
X217349000Y-68770248D01*
G75*
G02*
X217620248Y-68499000I271248J0D01*
G01*
X218379752Y-68499000D01*
G75*
G02*
X218651000Y-68770248I0J-271248D01*
G01*
G37*
G36*
G01*
X216651000Y-63770248D02*
X216651000Y-64729752D01*
G75*
G02*
X216379752Y-65001000I-271248J0D01*
G01*
X215620248Y-65001000D01*
G75*
G02*
X215349000Y-64729752I0J271248D01*
G01*
X215349000Y-63770248D01*
G75*
G02*
X215620248Y-63499000I271248J0D01*
G01*
X216379752Y-63499000D01*
G75*
G02*
X216651000Y-63770248I0J-271248D01*
G01*
G37*
G36*
G01*
X218651000Y-63770248D02*
X218651000Y-64729752D01*
G75*
G02*
X218379752Y-65001000I-271248J0D01*
G01*
X217620248Y-65001000D01*
G75*
G02*
X217349000Y-64729752I0J271248D01*
G01*
X217349000Y-63770248D01*
G75*
G02*
X217620248Y-63499000I271248J0D01*
G01*
X218379752Y-63499000D01*
G75*
G02*
X218651000Y-63770248I0J-271248D01*
G01*
G37*
G36*
G01*
X217349000Y-89729752D02*
X217349000Y-88770248D01*
G75*
G02*
X217620248Y-88499000I271248J0D01*
G01*
X218379752Y-88499000D01*
G75*
G02*
X218651000Y-88770248I0J-271248D01*
G01*
X218651000Y-89729752D01*
G75*
G02*
X218379752Y-90001000I-271248J0D01*
G01*
X217620248Y-90001000D01*
G75*
G02*
X217349000Y-89729752I0J271248D01*
G01*
G37*
G36*
G01*
X215349000Y-89729752D02*
X215349000Y-88770248D01*
G75*
G02*
X215620248Y-88499000I271248J0D01*
G01*
X216379752Y-88499000D01*
G75*
G02*
X216651000Y-88770248I0J-271248D01*
G01*
X216651000Y-89729752D01*
G75*
G02*
X216379752Y-90001000I-271248J0D01*
G01*
X215620248Y-90001000D01*
G75*
G02*
X215349000Y-89729752I0J271248D01*
G01*
G37*
G36*
G01*
X165151000Y-53270248D02*
X165151000Y-54229752D01*
G75*
G02*
X164879752Y-54501000I-271248J0D01*
G01*
X164120248Y-54501000D01*
G75*
G02*
X163849000Y-54229752I0J271248D01*
G01*
X163849000Y-53270248D01*
G75*
G02*
X164120248Y-52999000I271248J0D01*
G01*
X164879752Y-52999000D01*
G75*
G02*
X165151000Y-53270248I0J-271248D01*
G01*
G37*
G36*
G01*
X163151000Y-53270248D02*
X163151000Y-54229752D01*
G75*
G02*
X162879752Y-54501000I-271248J0D01*
G01*
X162120248Y-54501000D01*
G75*
G02*
X161849000Y-54229752I0J271248D01*
G01*
X161849000Y-53270248D01*
G75*
G02*
X162120248Y-52999000I271248J0D01*
G01*
X162879752Y-52999000D01*
G75*
G02*
X163151000Y-53270248I0J-271248D01*
G01*
G37*
G36*
G01*
X81849000Y-64729752D02*
X81849000Y-63770248D01*
G75*
G02*
X82120248Y-63499000I271248J0D01*
G01*
X82879752Y-63499000D01*
G75*
G02*
X83151000Y-63770248I0J-271248D01*
G01*
X83151000Y-64729752D01*
G75*
G02*
X82879752Y-65001000I-271248J0D01*
G01*
X82120248Y-65001000D01*
G75*
G02*
X81849000Y-64729752I0J271248D01*
G01*
G37*
G36*
G01*
X83849000Y-64729752D02*
X83849000Y-63770248D01*
G75*
G02*
X84120248Y-63499000I271248J0D01*
G01*
X84879752Y-63499000D01*
G75*
G02*
X85151000Y-63770248I0J-271248D01*
G01*
X85151000Y-64729752D01*
G75*
G02*
X84879752Y-65001000I-271248J0D01*
G01*
X84120248Y-65001000D01*
G75*
G02*
X83849000Y-64729752I0J271248D01*
G01*
G37*
G36*
G01*
X215349000Y-59729752D02*
X215349000Y-58770248D01*
G75*
G02*
X215620248Y-58499000I271248J0D01*
G01*
X216379752Y-58499000D01*
G75*
G02*
X216651000Y-58770248I0J-271248D01*
G01*
X216651000Y-59729752D01*
G75*
G02*
X216379752Y-60001000I-271248J0D01*
G01*
X215620248Y-60001000D01*
G75*
G02*
X215349000Y-59729752I0J271248D01*
G01*
G37*
G36*
G01*
X217349000Y-59729752D02*
X217349000Y-58770248D01*
G75*
G02*
X217620248Y-58499000I271248J0D01*
G01*
X218379752Y-58499000D01*
G75*
G02*
X218651000Y-58770248I0J-271248D01*
G01*
X218651000Y-59729752D01*
G75*
G02*
X218379752Y-60001000I-271248J0D01*
G01*
X217620248Y-60001000D01*
G75*
G02*
X217349000Y-59729752I0J271248D01*
G01*
G37*
G36*
G01*
X158849000Y-57229752D02*
X158849000Y-56270248D01*
G75*
G02*
X159120248Y-55999000I271248J0D01*
G01*
X159879752Y-55999000D01*
G75*
G02*
X160151000Y-56270248I0J-271248D01*
G01*
X160151000Y-57229752D01*
G75*
G02*
X159879752Y-57501000I-271248J0D01*
G01*
X159120248Y-57501000D01*
G75*
G02*
X158849000Y-57229752I0J271248D01*
G01*
G37*
G36*
G01*
X156849000Y-57229752D02*
X156849000Y-56270248D01*
G75*
G02*
X157120248Y-55999000I271248J0D01*
G01*
X157879752Y-55999000D01*
G75*
G02*
X158151000Y-56270248I0J-271248D01*
G01*
X158151000Y-57229752D01*
G75*
G02*
X157879752Y-57501000I-271248J0D01*
G01*
X157120248Y-57501000D01*
G75*
G02*
X156849000Y-57229752I0J271248D01*
G01*
G37*
G36*
G01*
X156849000Y-60229752D02*
X156849000Y-59270248D01*
G75*
G02*
X157120248Y-58999000I271248J0D01*
G01*
X157879752Y-58999000D01*
G75*
G02*
X158151000Y-59270248I0J-271248D01*
G01*
X158151000Y-60229752D01*
G75*
G02*
X157879752Y-60501000I-271248J0D01*
G01*
X157120248Y-60501000D01*
G75*
G02*
X156849000Y-60229752I0J271248D01*
G01*
G37*
G36*
G01*
X158849000Y-60229752D02*
X158849000Y-59270248D01*
G75*
G02*
X159120248Y-58999000I271248J0D01*
G01*
X159879752Y-58999000D01*
G75*
G02*
X160151000Y-59270248I0J-271248D01*
G01*
X160151000Y-60229752D01*
G75*
G02*
X159879752Y-60501000I-271248J0D01*
G01*
X159120248Y-60501000D01*
G75*
G02*
X158849000Y-60229752I0J271248D01*
G01*
G37*
D15*
X91450000Y-128000000D03*
X93250000Y-123000000D03*
G36*
G01*
X192199000Y-71750000D02*
X192199000Y-70250000D01*
G75*
G02*
X192250000Y-70199000I51000J0D01*
G01*
X193250000Y-70199000D01*
G75*
G02*
X193301000Y-70250000I0J-51000D01*
G01*
X193301000Y-71750000D01*
G75*
G02*
X193250000Y-71801000I-51000J0D01*
G01*
X192250000Y-71801000D01*
G75*
G02*
X192199000Y-71750000I0J51000D01*
G01*
G37*
D14*
G36*
X194056112Y-70199602D02*
G01*
X194074534Y-70199602D01*
X194079533Y-70199848D01*
X194128364Y-70204658D01*
X194133314Y-70205392D01*
X194181439Y-70214964D01*
X194186295Y-70216180D01*
X194233250Y-70230424D01*
X194237961Y-70232110D01*
X194283294Y-70250887D01*
X194287820Y-70253027D01*
X194331093Y-70276158D01*
X194335384Y-70278731D01*
X194376183Y-70305991D01*
X194380204Y-70308973D01*
X194418133Y-70340101D01*
X194421841Y-70343462D01*
X194456538Y-70378159D01*
X194459899Y-70381867D01*
X194491027Y-70419796D01*
X194494009Y-70423817D01*
X194521269Y-70464616D01*
X194523842Y-70468907D01*
X194546973Y-70512180D01*
X194549113Y-70516706D01*
X194567890Y-70562039D01*
X194569576Y-70566750D01*
X194583820Y-70613705D01*
X194585036Y-70618561D01*
X194594608Y-70666686D01*
X194595342Y-70671636D01*
X194600152Y-70720467D01*
X194600398Y-70725466D01*
X194600398Y-70743888D01*
X194601000Y-70750000D01*
X194601000Y-71250000D01*
X194600398Y-71256112D01*
X194600398Y-71274534D01*
X194600152Y-71279533D01*
X194595342Y-71328364D01*
X194594608Y-71333314D01*
X194585036Y-71381439D01*
X194583820Y-71386295D01*
X194569576Y-71433250D01*
X194567890Y-71437961D01*
X194549113Y-71483294D01*
X194546973Y-71487820D01*
X194523842Y-71531093D01*
X194521269Y-71535384D01*
X194494009Y-71576183D01*
X194491027Y-71580204D01*
X194459899Y-71618133D01*
X194456538Y-71621841D01*
X194421841Y-71656538D01*
X194418133Y-71659899D01*
X194380204Y-71691027D01*
X194376183Y-71694009D01*
X194335384Y-71721269D01*
X194331093Y-71723842D01*
X194287820Y-71746973D01*
X194283294Y-71749113D01*
X194237961Y-71767890D01*
X194233250Y-71769576D01*
X194186295Y-71783820D01*
X194181439Y-71785036D01*
X194133314Y-71794608D01*
X194128364Y-71795342D01*
X194079533Y-71800152D01*
X194074534Y-71800398D01*
X194056112Y-71800398D01*
X194050000Y-71801000D01*
X193500000Y-71801000D01*
X193490050Y-71800020D01*
X193480483Y-71797118D01*
X193471666Y-71792405D01*
X193463938Y-71786062D01*
X193457595Y-71778334D01*
X193452882Y-71769517D01*
X193449980Y-71759950D01*
X193449000Y-71750000D01*
X193449000Y-70250000D01*
X193449980Y-70240050D01*
X193452882Y-70230483D01*
X193457595Y-70221666D01*
X193463938Y-70213938D01*
X193471666Y-70207595D01*
X193480483Y-70202882D01*
X193490050Y-70199980D01*
X193500000Y-70199000D01*
X194050000Y-70199000D01*
X194056112Y-70199602D01*
G37*
G36*
X192009950Y-70199980D02*
G01*
X192019517Y-70202882D01*
X192028334Y-70207595D01*
X192036062Y-70213938D01*
X192042405Y-70221666D01*
X192047118Y-70230483D01*
X192050020Y-70240050D01*
X192051000Y-70250000D01*
X192051000Y-71750000D01*
X192050020Y-71759950D01*
X192047118Y-71769517D01*
X192042405Y-71778334D01*
X192036062Y-71786062D01*
X192028334Y-71792405D01*
X192019517Y-71797118D01*
X192009950Y-71800020D01*
X192000000Y-71801000D01*
X191450000Y-71801000D01*
X191443888Y-71800398D01*
X191425466Y-71800398D01*
X191420467Y-71800152D01*
X191371636Y-71795342D01*
X191366686Y-71794608D01*
X191318561Y-71785036D01*
X191313705Y-71783820D01*
X191266750Y-71769576D01*
X191262039Y-71767890D01*
X191216706Y-71749113D01*
X191212180Y-71746973D01*
X191168907Y-71723842D01*
X191164616Y-71721269D01*
X191123817Y-71694009D01*
X191119796Y-71691027D01*
X191081867Y-71659899D01*
X191078159Y-71656538D01*
X191043462Y-71621841D01*
X191040101Y-71618133D01*
X191008973Y-71580204D01*
X191005991Y-71576183D01*
X190978731Y-71535384D01*
X190976158Y-71531093D01*
X190953027Y-71487820D01*
X190950887Y-71483294D01*
X190932110Y-71437961D01*
X190930424Y-71433250D01*
X190916180Y-71386295D01*
X190914964Y-71381439D01*
X190905392Y-71333314D01*
X190904658Y-71328364D01*
X190899848Y-71279533D01*
X190899602Y-71274534D01*
X190899602Y-71256112D01*
X190899000Y-71250000D01*
X190899000Y-70750000D01*
X190899602Y-70743888D01*
X190899602Y-70725466D01*
X190899848Y-70720467D01*
X190904658Y-70671636D01*
X190905392Y-70666686D01*
X190914964Y-70618561D01*
X190916180Y-70613705D01*
X190930424Y-70566750D01*
X190932110Y-70562039D01*
X190950887Y-70516706D01*
X190953027Y-70512180D01*
X190976158Y-70468907D01*
X190978731Y-70464616D01*
X191005991Y-70423817D01*
X191008973Y-70419796D01*
X191040101Y-70381867D01*
X191043462Y-70378159D01*
X191078159Y-70343462D01*
X191081867Y-70340101D01*
X191119796Y-70308973D01*
X191123817Y-70305991D01*
X191164616Y-70278731D01*
X191168907Y-70276158D01*
X191212180Y-70253027D01*
X191216706Y-70250887D01*
X191262039Y-70232110D01*
X191266750Y-70230424D01*
X191313705Y-70216180D01*
X191318561Y-70214964D01*
X191366686Y-70205392D01*
X191371636Y-70204658D01*
X191420467Y-70199848D01*
X191425466Y-70199602D01*
X191443888Y-70199602D01*
X191450000Y-70199000D01*
X192000000Y-70199000D01*
X192009950Y-70199980D01*
G37*
D11*
X111500000Y-105150000D03*
X111500000Y-107500000D03*
X111500000Y-109850000D03*
X111500000Y-94150000D03*
X111500000Y-96500000D03*
X111500000Y-98850000D03*
X111500000Y-83150000D03*
X111500000Y-85500000D03*
X111500000Y-87850000D03*
X111500000Y-72150000D03*
X111500000Y-74500000D03*
X111500000Y-76850000D03*
X111500000Y-61150000D03*
X111500000Y-63500000D03*
X111500000Y-65850000D03*
D14*
G36*
X147096112Y-60949602D02*
G01*
X147114534Y-60949602D01*
X147119533Y-60949848D01*
X147168364Y-60954658D01*
X147173314Y-60955392D01*
X147221439Y-60964964D01*
X147226295Y-60966180D01*
X147273250Y-60980424D01*
X147277961Y-60982110D01*
X147323294Y-61000887D01*
X147327820Y-61003027D01*
X147371093Y-61026158D01*
X147375384Y-61028731D01*
X147416183Y-61055991D01*
X147420204Y-61058973D01*
X147458133Y-61090101D01*
X147461841Y-61093462D01*
X147496538Y-61128159D01*
X147499899Y-61131867D01*
X147531027Y-61169796D01*
X147534009Y-61173817D01*
X147561269Y-61214616D01*
X147563842Y-61218907D01*
X147586973Y-61262180D01*
X147589113Y-61266706D01*
X147607890Y-61312039D01*
X147609576Y-61316750D01*
X147623820Y-61363705D01*
X147625036Y-61368561D01*
X147634608Y-61416686D01*
X147635342Y-61421636D01*
X147640152Y-61470467D01*
X147640398Y-61475466D01*
X147640398Y-61493888D01*
X147641000Y-61500000D01*
X147641000Y-62000000D01*
X147640398Y-62006112D01*
X147640398Y-62024534D01*
X147640152Y-62029533D01*
X147635342Y-62078364D01*
X147634608Y-62083314D01*
X147625036Y-62131439D01*
X147623820Y-62136295D01*
X147609576Y-62183250D01*
X147607890Y-62187961D01*
X147589113Y-62233294D01*
X147586973Y-62237820D01*
X147563842Y-62281093D01*
X147561269Y-62285384D01*
X147534009Y-62326183D01*
X147531027Y-62330204D01*
X147499899Y-62368133D01*
X147496538Y-62371841D01*
X147461841Y-62406538D01*
X147458133Y-62409899D01*
X147420204Y-62441027D01*
X147416183Y-62444009D01*
X147375384Y-62471269D01*
X147371093Y-62473842D01*
X147327820Y-62496973D01*
X147323294Y-62499113D01*
X147277961Y-62517890D01*
X147273250Y-62519576D01*
X147226295Y-62533820D01*
X147221439Y-62535036D01*
X147173314Y-62544608D01*
X147168364Y-62545342D01*
X147119533Y-62550152D01*
X147114534Y-62550398D01*
X147096112Y-62550398D01*
X147090000Y-62551000D01*
X146590000Y-62551000D01*
X146580050Y-62550020D01*
X146570483Y-62547118D01*
X146561666Y-62542405D01*
X146553938Y-62536062D01*
X146547595Y-62528334D01*
X146542882Y-62519517D01*
X146539980Y-62509950D01*
X146539000Y-62500000D01*
X146539000Y-61000000D01*
X146539980Y-60990050D01*
X146542882Y-60980483D01*
X146547595Y-60971666D01*
X146553938Y-60963938D01*
X146561666Y-60957595D01*
X146570483Y-60952882D01*
X146580050Y-60949980D01*
X146590000Y-60949000D01*
X147090000Y-60949000D01*
X147096112Y-60949602D01*
G37*
G36*
X146299950Y-60949980D02*
G01*
X146309517Y-60952882D01*
X146318334Y-60957595D01*
X146326062Y-60963938D01*
X146332405Y-60971666D01*
X146337118Y-60980483D01*
X146340020Y-60990050D01*
X146341000Y-61000000D01*
X146341000Y-62500000D01*
X146340020Y-62509950D01*
X146337118Y-62519517D01*
X146332405Y-62528334D01*
X146326062Y-62536062D01*
X146318334Y-62542405D01*
X146309517Y-62547118D01*
X146299950Y-62550020D01*
X146290000Y-62551000D01*
X145790000Y-62551000D01*
X145783888Y-62550398D01*
X145765466Y-62550398D01*
X145760467Y-62550152D01*
X145711636Y-62545342D01*
X145706686Y-62544608D01*
X145658561Y-62535036D01*
X145653705Y-62533820D01*
X145606750Y-62519576D01*
X145602039Y-62517890D01*
X145556706Y-62499113D01*
X145552180Y-62496973D01*
X145508907Y-62473842D01*
X145504616Y-62471269D01*
X145463817Y-62444009D01*
X145459796Y-62441027D01*
X145421867Y-62409899D01*
X145418159Y-62406538D01*
X145383462Y-62371841D01*
X145380101Y-62368133D01*
X145348973Y-62330204D01*
X145345991Y-62326183D01*
X145318731Y-62285384D01*
X145316158Y-62281093D01*
X145293027Y-62237820D01*
X145290887Y-62233294D01*
X145272110Y-62187961D01*
X145270424Y-62183250D01*
X145256180Y-62136295D01*
X145254964Y-62131439D01*
X145245392Y-62083314D01*
X145244658Y-62078364D01*
X145239848Y-62029533D01*
X145239602Y-62024534D01*
X145239602Y-62006112D01*
X145239000Y-62000000D01*
X145239000Y-61500000D01*
X145239602Y-61493888D01*
X145239602Y-61475466D01*
X145239848Y-61470467D01*
X145244658Y-61421636D01*
X145245392Y-61416686D01*
X145254964Y-61368561D01*
X145256180Y-61363705D01*
X145270424Y-61316750D01*
X145272110Y-61312039D01*
X145290887Y-61266706D01*
X145293027Y-61262180D01*
X145316158Y-61218907D01*
X145318731Y-61214616D01*
X145345991Y-61173817D01*
X145348973Y-61169796D01*
X145380101Y-61131867D01*
X145383462Y-61128159D01*
X145418159Y-61093462D01*
X145421867Y-61090101D01*
X145459796Y-61058973D01*
X145463817Y-61055991D01*
X145504616Y-61028731D01*
X145508907Y-61026158D01*
X145552180Y-61003027D01*
X145556706Y-61000887D01*
X145602039Y-60982110D01*
X145606750Y-60980424D01*
X145653705Y-60966180D01*
X145658561Y-60964964D01*
X145706686Y-60955392D01*
X145711636Y-60954658D01*
X145760467Y-60949848D01*
X145765466Y-60949602D01*
X145783888Y-60949602D01*
X145790000Y-60949000D01*
X146290000Y-60949000D01*
X146299950Y-60949980D01*
G37*
G36*
G01*
X209250500Y-95001000D02*
X208249500Y-95001000D01*
G75*
G02*
X207974000Y-94725500I0J275500D01*
G01*
X207974000Y-94174500D01*
G75*
G02*
X208249500Y-93899000I275500J0D01*
G01*
X209250500Y-93899000D01*
G75*
G02*
X209526000Y-94174500I0J-275500D01*
G01*
X209526000Y-94725500D01*
G75*
G02*
X209250500Y-95001000I-275500J0D01*
G01*
G37*
G36*
G01*
X209250500Y-93101000D02*
X208249500Y-93101000D01*
G75*
G02*
X207974000Y-92825500I0J275500D01*
G01*
X207974000Y-92274500D01*
G75*
G02*
X208249500Y-91999000I275500J0D01*
G01*
X209250500Y-91999000D01*
G75*
G02*
X209526000Y-92274500I0J-275500D01*
G01*
X209526000Y-92825500D01*
G75*
G02*
X209250500Y-93101000I-275500J0D01*
G01*
G37*
G36*
G01*
X205149000Y-126000500D02*
X205149000Y-124999500D01*
G75*
G02*
X205424500Y-124724000I275500J0D01*
G01*
X205975500Y-124724000D01*
G75*
G02*
X206251000Y-124999500I0J-275500D01*
G01*
X206251000Y-126000500D01*
G75*
G02*
X205975500Y-126276000I-275500J0D01*
G01*
X205424500Y-126276000D01*
G75*
G02*
X205149000Y-126000500I0J275500D01*
G01*
G37*
G36*
G01*
X203249000Y-126000500D02*
X203249000Y-124999500D01*
G75*
G02*
X203524500Y-124724000I275500J0D01*
G01*
X204075500Y-124724000D01*
G75*
G02*
X204351000Y-124999500I0J-275500D01*
G01*
X204351000Y-126000500D01*
G75*
G02*
X204075500Y-126276000I-275500J0D01*
G01*
X203524500Y-126276000D01*
G75*
G02*
X203249000Y-126000500I0J275500D01*
G01*
G37*
D11*
X131250000Y-70750000D03*
X126250000Y-70750000D03*
X131250000Y-74250000D03*
X126250000Y-74250000D03*
X131250000Y-77750000D03*
X126250000Y-77750000D03*
X131250000Y-81250000D03*
X126250000Y-81250000D03*
X131250000Y-84750000D03*
X126250000Y-84750000D03*
X131250000Y-88250000D03*
X126250000Y-88250000D03*
X131250000Y-91750000D03*
X126250000Y-91750000D03*
X131250000Y-95250000D03*
X126250000Y-95250000D03*
X131250000Y-98750000D03*
X126250000Y-98750000D03*
X131250000Y-102250000D03*
X126250000Y-102250000D03*
X131250000Y-105750000D03*
X126250000Y-105750000D03*
G36*
G01*
X131775500Y-110301000D02*
X130724500Y-110301000D01*
G75*
G02*
X130199000Y-109775500I0J525500D01*
G01*
X130199000Y-108724500D01*
G75*
G02*
X130724500Y-108199000I525500J0D01*
G01*
X131775500Y-108199000D01*
G75*
G02*
X132301000Y-108724500I0J-525500D01*
G01*
X132301000Y-109775500D01*
G75*
G02*
X131775500Y-110301000I-525500J0D01*
G01*
G37*
G36*
G01*
X126775500Y-110301000D02*
X125724500Y-110301000D01*
G75*
G02*
X125199000Y-109775500I0J525500D01*
G01*
X125199000Y-108724500D01*
G75*
G02*
X125724500Y-108199000I525500J0D01*
G01*
X126775500Y-108199000D01*
G75*
G02*
X127301000Y-108724500I0J-525500D01*
G01*
X127301000Y-109775500D01*
G75*
G02*
X126775500Y-110301000I-525500J0D01*
G01*
G37*
D14*
G36*
X147096112Y-57449602D02*
G01*
X147114534Y-57449602D01*
X147119533Y-57449848D01*
X147168364Y-57454658D01*
X147173314Y-57455392D01*
X147221439Y-57464964D01*
X147226295Y-57466180D01*
X147273250Y-57480424D01*
X147277961Y-57482110D01*
X147323294Y-57500887D01*
X147327820Y-57503027D01*
X147371093Y-57526158D01*
X147375384Y-57528731D01*
X147416183Y-57555991D01*
X147420204Y-57558973D01*
X147458133Y-57590101D01*
X147461841Y-57593462D01*
X147496538Y-57628159D01*
X147499899Y-57631867D01*
X147531027Y-57669796D01*
X147534009Y-57673817D01*
X147561269Y-57714616D01*
X147563842Y-57718907D01*
X147586973Y-57762180D01*
X147589113Y-57766706D01*
X147607890Y-57812039D01*
X147609576Y-57816750D01*
X147623820Y-57863705D01*
X147625036Y-57868561D01*
X147634608Y-57916686D01*
X147635342Y-57921636D01*
X147640152Y-57970467D01*
X147640398Y-57975466D01*
X147640398Y-57993888D01*
X147641000Y-58000000D01*
X147641000Y-58500000D01*
X147640398Y-58506112D01*
X147640398Y-58524534D01*
X147640152Y-58529533D01*
X147635342Y-58578364D01*
X147634608Y-58583314D01*
X147625036Y-58631439D01*
X147623820Y-58636295D01*
X147609576Y-58683250D01*
X147607890Y-58687961D01*
X147589113Y-58733294D01*
X147586973Y-58737820D01*
X147563842Y-58781093D01*
X147561269Y-58785384D01*
X147534009Y-58826183D01*
X147531027Y-58830204D01*
X147499899Y-58868133D01*
X147496538Y-58871841D01*
X147461841Y-58906538D01*
X147458133Y-58909899D01*
X147420204Y-58941027D01*
X147416183Y-58944009D01*
X147375384Y-58971269D01*
X147371093Y-58973842D01*
X147327820Y-58996973D01*
X147323294Y-58999113D01*
X147277961Y-59017890D01*
X147273250Y-59019576D01*
X147226295Y-59033820D01*
X147221439Y-59035036D01*
X147173314Y-59044608D01*
X147168364Y-59045342D01*
X147119533Y-59050152D01*
X147114534Y-59050398D01*
X147096112Y-59050398D01*
X147090000Y-59051000D01*
X146590000Y-59051000D01*
X146580050Y-59050020D01*
X146570483Y-59047118D01*
X146561666Y-59042405D01*
X146553938Y-59036062D01*
X146547595Y-59028334D01*
X146542882Y-59019517D01*
X146539980Y-59009950D01*
X146539000Y-59000000D01*
X146539000Y-57500000D01*
X146539980Y-57490050D01*
X146542882Y-57480483D01*
X146547595Y-57471666D01*
X146553938Y-57463938D01*
X146561666Y-57457595D01*
X146570483Y-57452882D01*
X146580050Y-57449980D01*
X146590000Y-57449000D01*
X147090000Y-57449000D01*
X147096112Y-57449602D01*
G37*
G36*
X146299950Y-57449980D02*
G01*
X146309517Y-57452882D01*
X146318334Y-57457595D01*
X146326062Y-57463938D01*
X146332405Y-57471666D01*
X146337118Y-57480483D01*
X146340020Y-57490050D01*
X146341000Y-57500000D01*
X146341000Y-59000000D01*
X146340020Y-59009950D01*
X146337118Y-59019517D01*
X146332405Y-59028334D01*
X146326062Y-59036062D01*
X146318334Y-59042405D01*
X146309517Y-59047118D01*
X146299950Y-59050020D01*
X146290000Y-59051000D01*
X145790000Y-59051000D01*
X145783888Y-59050398D01*
X145765466Y-59050398D01*
X145760467Y-59050152D01*
X145711636Y-59045342D01*
X145706686Y-59044608D01*
X145658561Y-59035036D01*
X145653705Y-59033820D01*
X145606750Y-59019576D01*
X145602039Y-59017890D01*
X145556706Y-58999113D01*
X145552180Y-58996973D01*
X145508907Y-58973842D01*
X145504616Y-58971269D01*
X145463817Y-58944009D01*
X145459796Y-58941027D01*
X145421867Y-58909899D01*
X145418159Y-58906538D01*
X145383462Y-58871841D01*
X145380101Y-58868133D01*
X145348973Y-58830204D01*
X145345991Y-58826183D01*
X145318731Y-58785384D01*
X145316158Y-58781093D01*
X145293027Y-58737820D01*
X145290887Y-58733294D01*
X145272110Y-58687961D01*
X145270424Y-58683250D01*
X145256180Y-58636295D01*
X145254964Y-58631439D01*
X145245392Y-58583314D01*
X145244658Y-58578364D01*
X145239848Y-58529533D01*
X145239602Y-58524534D01*
X145239602Y-58506112D01*
X145239000Y-58500000D01*
X145239000Y-58000000D01*
X145239602Y-57993888D01*
X145239602Y-57975466D01*
X145239848Y-57970467D01*
X145244658Y-57921636D01*
X145245392Y-57916686D01*
X145254964Y-57868561D01*
X145256180Y-57863705D01*
X145270424Y-57816750D01*
X145272110Y-57812039D01*
X145290887Y-57766706D01*
X145293027Y-57762180D01*
X145316158Y-57718907D01*
X145318731Y-57714616D01*
X145345991Y-57673817D01*
X145348973Y-57669796D01*
X145380101Y-57631867D01*
X145383462Y-57628159D01*
X145418159Y-57593462D01*
X145421867Y-57590101D01*
X145459796Y-57558973D01*
X145463817Y-57555991D01*
X145504616Y-57528731D01*
X145508907Y-57526158D01*
X145552180Y-57503027D01*
X145556706Y-57500887D01*
X145602039Y-57482110D01*
X145606750Y-57480424D01*
X145653705Y-57466180D01*
X145658561Y-57464964D01*
X145706686Y-57455392D01*
X145711636Y-57454658D01*
X145760467Y-57449848D01*
X145765466Y-57449602D01*
X145783888Y-57449602D01*
X145790000Y-57449000D01*
X146290000Y-57449000D01*
X146299950Y-57449980D01*
G37*
D19*
X190740000Y-126510000D03*
D20*
X192000000Y-129000000D03*
X196500000Y-129000000D03*
D19*
X197750000Y-126510000D03*
X201240000Y-126510000D03*
D20*
X202500000Y-129000000D03*
X207000000Y-129000000D03*
D19*
X208250000Y-126510000D03*
D21*
X230047056Y-123902944D03*
X228350000Y-123200000D03*
X226652944Y-123902944D03*
X225950000Y-125600000D03*
X226652944Y-127297056D03*
X228350000Y-128000000D03*
X230047056Y-127297056D03*
X230750000Y-125600000D03*
D22*
X228350000Y-125600000D03*
D21*
X73347056Y-123902944D03*
X71650000Y-123200000D03*
X69952944Y-123902944D03*
X69250000Y-125600000D03*
X69952944Y-127297056D03*
X71650000Y-128000000D03*
X73347056Y-127297056D03*
X74050000Y-125600000D03*
D22*
X71650000Y-125600000D03*
D21*
X230047056Y-52702944D03*
X228350000Y-52000000D03*
X226652944Y-52702944D03*
X225950000Y-54400000D03*
X226652944Y-56097056D03*
X228350000Y-56800000D03*
X230047056Y-56097056D03*
X230750000Y-54400000D03*
D22*
X228350000Y-54400000D03*
D21*
X73347056Y-52702944D03*
X71650000Y-52000000D03*
X69952944Y-52702944D03*
X69250000Y-54400000D03*
X69952944Y-56097056D03*
X71650000Y-56800000D03*
X73347056Y-56097056D03*
X74050000Y-54400000D03*
D22*
X71650000Y-54400000D03*
G36*
G01*
X219400000Y-92599000D02*
X221100000Y-92599000D01*
G75*
G02*
X221151000Y-92650000I0J-51000D01*
G01*
X221151000Y-94350000D01*
G75*
G02*
X221100000Y-94401000I-51000J0D01*
G01*
X219400000Y-94401000D01*
G75*
G02*
X219349000Y-94350000I0J51000D01*
G01*
X219349000Y-92650000D01*
G75*
G02*
X219400000Y-92599000I51000J0D01*
G01*
G37*
D10*
X217710000Y-93500000D03*
X215170000Y-93500000D03*
X212630000Y-93500000D03*
X227750000Y-93500000D03*
G36*
G01*
X229440000Y-92599000D02*
X231140000Y-92599000D01*
G75*
G02*
X231191000Y-92650000I0J-51000D01*
G01*
X231191000Y-94350000D01*
G75*
G02*
X231140000Y-94401000I-51000J0D01*
G01*
X229440000Y-94401000D01*
G75*
G02*
X229389000Y-94350000I0J51000D01*
G01*
X229389000Y-92650000D01*
G75*
G02*
X229440000Y-92599000I51000J0D01*
G01*
G37*
G36*
G01*
X145251000Y-121850000D02*
X145251000Y-122650000D01*
G75*
G02*
X145200000Y-122701000I-51000J0D01*
G01*
X144300000Y-122701000D01*
G75*
G02*
X144249000Y-122650000I0J51000D01*
G01*
X144249000Y-121850000D01*
G75*
G02*
X144300000Y-121799000I51000J0D01*
G01*
X145200000Y-121799000D01*
G75*
G02*
X145251000Y-121850000I0J-51000D01*
G01*
G37*
G36*
G01*
X147251000Y-122800000D02*
X147251000Y-123600000D01*
G75*
G02*
X147200000Y-123651000I-51000J0D01*
G01*
X146300000Y-123651000D01*
G75*
G02*
X146249000Y-123600000I0J51000D01*
G01*
X146249000Y-122800000D01*
G75*
G02*
X146300000Y-122749000I51000J0D01*
G01*
X147200000Y-122749000D01*
G75*
G02*
X147251000Y-122800000I0J-51000D01*
G01*
G37*
G36*
G01*
X147251000Y-120900000D02*
X147251000Y-121700000D01*
G75*
G02*
X147200000Y-121751000I-51000J0D01*
G01*
X146300000Y-121751000D01*
G75*
G02*
X146249000Y-121700000I0J51000D01*
G01*
X146249000Y-120900000D01*
G75*
G02*
X146300000Y-120849000I51000J0D01*
G01*
X147200000Y-120849000D01*
G75*
G02*
X147251000Y-120900000I0J-51000D01*
G01*
G37*
D23*
X221500000Y-53210000D03*
G36*
G01*
X222400000Y-56701000D02*
X220600000Y-56701000D01*
G75*
G02*
X220549000Y-56650000I0J51000D01*
G01*
X220549000Y-54850000D01*
G75*
G02*
X220600000Y-54799000I51000J0D01*
G01*
X222400000Y-54799000D01*
G75*
G02*
X222451000Y-54850000I0J-51000D01*
G01*
X222451000Y-56650000D01*
G75*
G02*
X222400000Y-56701000I-51000J0D01*
G01*
G37*
D14*
G36*
X192009950Y-79199980D02*
G01*
X192019517Y-79202882D01*
X192028334Y-79207595D01*
X192036062Y-79213938D01*
X192042405Y-79221666D01*
X192047118Y-79230483D01*
X192050020Y-79240050D01*
X192051000Y-79250000D01*
X192051000Y-80750000D01*
X192050020Y-80759950D01*
X192047118Y-80769517D01*
X192042405Y-80778334D01*
X192036062Y-80786062D01*
X192028334Y-80792405D01*
X192019517Y-80797118D01*
X192009950Y-80800020D01*
X192000000Y-80801000D01*
X191450000Y-80801000D01*
X191443888Y-80800398D01*
X191425466Y-80800398D01*
X191420467Y-80800152D01*
X191371636Y-80795342D01*
X191366686Y-80794608D01*
X191318561Y-80785036D01*
X191313705Y-80783820D01*
X191266750Y-80769576D01*
X191262039Y-80767890D01*
X191216706Y-80749113D01*
X191212180Y-80746973D01*
X191168907Y-80723842D01*
X191164616Y-80721269D01*
X191123817Y-80694009D01*
X191119796Y-80691027D01*
X191081867Y-80659899D01*
X191078159Y-80656538D01*
X191043462Y-80621841D01*
X191040101Y-80618133D01*
X191008973Y-80580204D01*
X191005991Y-80576183D01*
X190978731Y-80535384D01*
X190976158Y-80531093D01*
X190953027Y-80487820D01*
X190950887Y-80483294D01*
X190932110Y-80437961D01*
X190930424Y-80433250D01*
X190916180Y-80386295D01*
X190914964Y-80381439D01*
X190905392Y-80333314D01*
X190904658Y-80328364D01*
X190899848Y-80279533D01*
X190899602Y-80274534D01*
X190899602Y-80256112D01*
X190899000Y-80250000D01*
X190899000Y-79750000D01*
X190899602Y-79743888D01*
X190899602Y-79725466D01*
X190899848Y-79720467D01*
X190904658Y-79671636D01*
X190905392Y-79666686D01*
X190914964Y-79618561D01*
X190916180Y-79613705D01*
X190930424Y-79566750D01*
X190932110Y-79562039D01*
X190950887Y-79516706D01*
X190953027Y-79512180D01*
X190976158Y-79468907D01*
X190978731Y-79464616D01*
X191005991Y-79423817D01*
X191008973Y-79419796D01*
X191040101Y-79381867D01*
X191043462Y-79378159D01*
X191078159Y-79343462D01*
X191081867Y-79340101D01*
X191119796Y-79308973D01*
X191123817Y-79305991D01*
X191164616Y-79278731D01*
X191168907Y-79276158D01*
X191212180Y-79253027D01*
X191216706Y-79250887D01*
X191262039Y-79232110D01*
X191266750Y-79230424D01*
X191313705Y-79216180D01*
X191318561Y-79214964D01*
X191366686Y-79205392D01*
X191371636Y-79204658D01*
X191420467Y-79199848D01*
X191425466Y-79199602D01*
X191443888Y-79199602D01*
X191450000Y-79199000D01*
X192000000Y-79199000D01*
X192009950Y-79199980D01*
G37*
G36*
G01*
X192199000Y-80750000D02*
X192199000Y-79250000D01*
G75*
G02*
X192250000Y-79199000I51000J0D01*
G01*
X193250000Y-79199000D01*
G75*
G02*
X193301000Y-79250000I0J-51000D01*
G01*
X193301000Y-80750000D01*
G75*
G02*
X193250000Y-80801000I-51000J0D01*
G01*
X192250000Y-80801000D01*
G75*
G02*
X192199000Y-80750000I0J51000D01*
G01*
G37*
G36*
X194056112Y-79199602D02*
G01*
X194074534Y-79199602D01*
X194079533Y-79199848D01*
X194128364Y-79204658D01*
X194133314Y-79205392D01*
X194181439Y-79214964D01*
X194186295Y-79216180D01*
X194233250Y-79230424D01*
X194237961Y-79232110D01*
X194283294Y-79250887D01*
X194287820Y-79253027D01*
X194331093Y-79276158D01*
X194335384Y-79278731D01*
X194376183Y-79305991D01*
X194380204Y-79308973D01*
X194418133Y-79340101D01*
X194421841Y-79343462D01*
X194456538Y-79378159D01*
X194459899Y-79381867D01*
X194491027Y-79419796D01*
X194494009Y-79423817D01*
X194521269Y-79464616D01*
X194523842Y-79468907D01*
X194546973Y-79512180D01*
X194549113Y-79516706D01*
X194567890Y-79562039D01*
X194569576Y-79566750D01*
X194583820Y-79613705D01*
X194585036Y-79618561D01*
X194594608Y-79666686D01*
X194595342Y-79671636D01*
X194600152Y-79720467D01*
X194600398Y-79725466D01*
X194600398Y-79743888D01*
X194601000Y-79750000D01*
X194601000Y-80250000D01*
X194600398Y-80256112D01*
X194600398Y-80274534D01*
X194600152Y-80279533D01*
X194595342Y-80328364D01*
X194594608Y-80333314D01*
X194585036Y-80381439D01*
X194583820Y-80386295D01*
X194569576Y-80433250D01*
X194567890Y-80437961D01*
X194549113Y-80483294D01*
X194546973Y-80487820D01*
X194523842Y-80531093D01*
X194521269Y-80535384D01*
X194494009Y-80576183D01*
X194491027Y-80580204D01*
X194459899Y-80618133D01*
X194456538Y-80621841D01*
X194421841Y-80656538D01*
X194418133Y-80659899D01*
X194380204Y-80691027D01*
X194376183Y-80694009D01*
X194335384Y-80721269D01*
X194331093Y-80723842D01*
X194287820Y-80746973D01*
X194283294Y-80749113D01*
X194237961Y-80767890D01*
X194233250Y-80769576D01*
X194186295Y-80783820D01*
X194181439Y-80785036D01*
X194133314Y-80794608D01*
X194128364Y-80795342D01*
X194079533Y-80800152D01*
X194074534Y-80800398D01*
X194056112Y-80800398D01*
X194050000Y-80801000D01*
X193500000Y-80801000D01*
X193490050Y-80800020D01*
X193480483Y-80797118D01*
X193471666Y-80792405D01*
X193463938Y-80786062D01*
X193457595Y-80778334D01*
X193452882Y-80769517D01*
X193449980Y-80759950D01*
X193449000Y-80750000D01*
X193449000Y-79250000D01*
X193449980Y-79240050D01*
X193452882Y-79230483D01*
X193457595Y-79221666D01*
X193463938Y-79213938D01*
X193471666Y-79207595D01*
X193480483Y-79202882D01*
X193490050Y-79199980D01*
X193500000Y-79199000D01*
X194050000Y-79199000D01*
X194056112Y-79199602D01*
G37*
G36*
X192009950Y-76199980D02*
G01*
X192019517Y-76202882D01*
X192028334Y-76207595D01*
X192036062Y-76213938D01*
X192042405Y-76221666D01*
X192047118Y-76230483D01*
X192050020Y-76240050D01*
X192051000Y-76250000D01*
X192051000Y-77750000D01*
X192050020Y-77759950D01*
X192047118Y-77769517D01*
X192042405Y-77778334D01*
X192036062Y-77786062D01*
X192028334Y-77792405D01*
X192019517Y-77797118D01*
X192009950Y-77800020D01*
X192000000Y-77801000D01*
X191450000Y-77801000D01*
X191443888Y-77800398D01*
X191425466Y-77800398D01*
X191420467Y-77800152D01*
X191371636Y-77795342D01*
X191366686Y-77794608D01*
X191318561Y-77785036D01*
X191313705Y-77783820D01*
X191266750Y-77769576D01*
X191262039Y-77767890D01*
X191216706Y-77749113D01*
X191212180Y-77746973D01*
X191168907Y-77723842D01*
X191164616Y-77721269D01*
X191123817Y-77694009D01*
X191119796Y-77691027D01*
X191081867Y-77659899D01*
X191078159Y-77656538D01*
X191043462Y-77621841D01*
X191040101Y-77618133D01*
X191008973Y-77580204D01*
X191005991Y-77576183D01*
X190978731Y-77535384D01*
X190976158Y-77531093D01*
X190953027Y-77487820D01*
X190950887Y-77483294D01*
X190932110Y-77437961D01*
X190930424Y-77433250D01*
X190916180Y-77386295D01*
X190914964Y-77381439D01*
X190905392Y-77333314D01*
X190904658Y-77328364D01*
X190899848Y-77279533D01*
X190899602Y-77274534D01*
X190899602Y-77256112D01*
X190899000Y-77250000D01*
X190899000Y-76750000D01*
X190899602Y-76743888D01*
X190899602Y-76725466D01*
X190899848Y-76720467D01*
X190904658Y-76671636D01*
X190905392Y-76666686D01*
X190914964Y-76618561D01*
X190916180Y-76613705D01*
X190930424Y-76566750D01*
X190932110Y-76562039D01*
X190950887Y-76516706D01*
X190953027Y-76512180D01*
X190976158Y-76468907D01*
X190978731Y-76464616D01*
X191005991Y-76423817D01*
X191008973Y-76419796D01*
X191040101Y-76381867D01*
X191043462Y-76378159D01*
X191078159Y-76343462D01*
X191081867Y-76340101D01*
X191119796Y-76308973D01*
X191123817Y-76305991D01*
X191164616Y-76278731D01*
X191168907Y-76276158D01*
X191212180Y-76253027D01*
X191216706Y-76250887D01*
X191262039Y-76232110D01*
X191266750Y-76230424D01*
X191313705Y-76216180D01*
X191318561Y-76214964D01*
X191366686Y-76205392D01*
X191371636Y-76204658D01*
X191420467Y-76199848D01*
X191425466Y-76199602D01*
X191443888Y-76199602D01*
X191450000Y-76199000D01*
X192000000Y-76199000D01*
X192009950Y-76199980D01*
G37*
G36*
G01*
X192199000Y-77750000D02*
X192199000Y-76250000D01*
G75*
G02*
X192250000Y-76199000I51000J0D01*
G01*
X193250000Y-76199000D01*
G75*
G02*
X193301000Y-76250000I0J-51000D01*
G01*
X193301000Y-77750000D01*
G75*
G02*
X193250000Y-77801000I-51000J0D01*
G01*
X192250000Y-77801000D01*
G75*
G02*
X192199000Y-77750000I0J51000D01*
G01*
G37*
G36*
X194056112Y-76199602D02*
G01*
X194074534Y-76199602D01*
X194079533Y-76199848D01*
X194128364Y-76204658D01*
X194133314Y-76205392D01*
X194181439Y-76214964D01*
X194186295Y-76216180D01*
X194233250Y-76230424D01*
X194237961Y-76232110D01*
X194283294Y-76250887D01*
X194287820Y-76253027D01*
X194331093Y-76276158D01*
X194335384Y-76278731D01*
X194376183Y-76305991D01*
X194380204Y-76308973D01*
X194418133Y-76340101D01*
X194421841Y-76343462D01*
X194456538Y-76378159D01*
X194459899Y-76381867D01*
X194491027Y-76419796D01*
X194494009Y-76423817D01*
X194521269Y-76464616D01*
X194523842Y-76468907D01*
X194546973Y-76512180D01*
X194549113Y-76516706D01*
X194567890Y-76562039D01*
X194569576Y-76566750D01*
X194583820Y-76613705D01*
X194585036Y-76618561D01*
X194594608Y-76666686D01*
X194595342Y-76671636D01*
X194600152Y-76720467D01*
X194600398Y-76725466D01*
X194600398Y-76743888D01*
X194601000Y-76750000D01*
X194601000Y-77250000D01*
X194600398Y-77256112D01*
X194600398Y-77274534D01*
X194600152Y-77279533D01*
X194595342Y-77328364D01*
X194594608Y-77333314D01*
X194585036Y-77381439D01*
X194583820Y-77386295D01*
X194569576Y-77433250D01*
X194567890Y-77437961D01*
X194549113Y-77483294D01*
X194546973Y-77487820D01*
X194523842Y-77531093D01*
X194521269Y-77535384D01*
X194494009Y-77576183D01*
X194491027Y-77580204D01*
X194459899Y-77618133D01*
X194456538Y-77621841D01*
X194421841Y-77656538D01*
X194418133Y-77659899D01*
X194380204Y-77691027D01*
X194376183Y-77694009D01*
X194335384Y-77721269D01*
X194331093Y-77723842D01*
X194287820Y-77746973D01*
X194283294Y-77749113D01*
X194237961Y-77767890D01*
X194233250Y-77769576D01*
X194186295Y-77783820D01*
X194181439Y-77785036D01*
X194133314Y-77794608D01*
X194128364Y-77795342D01*
X194079533Y-77800152D01*
X194074534Y-77800398D01*
X194056112Y-77800398D01*
X194050000Y-77801000D01*
X193500000Y-77801000D01*
X193490050Y-77800020D01*
X193480483Y-77797118D01*
X193471666Y-77792405D01*
X193463938Y-77786062D01*
X193457595Y-77778334D01*
X193452882Y-77769517D01*
X193449980Y-77759950D01*
X193449000Y-77750000D01*
X193449000Y-76250000D01*
X193449980Y-76240050D01*
X193452882Y-76230483D01*
X193457595Y-76221666D01*
X193463938Y-76213938D01*
X193471666Y-76207595D01*
X193480483Y-76202882D01*
X193490050Y-76199980D01*
X193500000Y-76199000D01*
X194050000Y-76199000D01*
X194056112Y-76199602D01*
G37*
G36*
X194056112Y-73199602D02*
G01*
X194074534Y-73199602D01*
X194079533Y-73199848D01*
X194128364Y-73204658D01*
X194133314Y-73205392D01*
X194181439Y-73214964D01*
X194186295Y-73216180D01*
X194233250Y-73230424D01*
X194237961Y-73232110D01*
X194283294Y-73250887D01*
X194287820Y-73253027D01*
X194331093Y-73276158D01*
X194335384Y-73278731D01*
X194376183Y-73305991D01*
X194380204Y-73308973D01*
X194418133Y-73340101D01*
X194421841Y-73343462D01*
X194456538Y-73378159D01*
X194459899Y-73381867D01*
X194491027Y-73419796D01*
X194494009Y-73423817D01*
X194521269Y-73464616D01*
X194523842Y-73468907D01*
X194546973Y-73512180D01*
X194549113Y-73516706D01*
X194567890Y-73562039D01*
X194569576Y-73566750D01*
X194583820Y-73613705D01*
X194585036Y-73618561D01*
X194594608Y-73666686D01*
X194595342Y-73671636D01*
X194600152Y-73720467D01*
X194600398Y-73725466D01*
X194600398Y-73743888D01*
X194601000Y-73750000D01*
X194601000Y-74250000D01*
X194600398Y-74256112D01*
X194600398Y-74274534D01*
X194600152Y-74279533D01*
X194595342Y-74328364D01*
X194594608Y-74333314D01*
X194585036Y-74381439D01*
X194583820Y-74386295D01*
X194569576Y-74433250D01*
X194567890Y-74437961D01*
X194549113Y-74483294D01*
X194546973Y-74487820D01*
X194523842Y-74531093D01*
X194521269Y-74535384D01*
X194494009Y-74576183D01*
X194491027Y-74580204D01*
X194459899Y-74618133D01*
X194456538Y-74621841D01*
X194421841Y-74656538D01*
X194418133Y-74659899D01*
X194380204Y-74691027D01*
X194376183Y-74694009D01*
X194335384Y-74721269D01*
X194331093Y-74723842D01*
X194287820Y-74746973D01*
X194283294Y-74749113D01*
X194237961Y-74767890D01*
X194233250Y-74769576D01*
X194186295Y-74783820D01*
X194181439Y-74785036D01*
X194133314Y-74794608D01*
X194128364Y-74795342D01*
X194079533Y-74800152D01*
X194074534Y-74800398D01*
X194056112Y-74800398D01*
X194050000Y-74801000D01*
X193500000Y-74801000D01*
X193490050Y-74800020D01*
X193480483Y-74797118D01*
X193471666Y-74792405D01*
X193463938Y-74786062D01*
X193457595Y-74778334D01*
X193452882Y-74769517D01*
X193449980Y-74759950D01*
X193449000Y-74750000D01*
X193449000Y-73250000D01*
X193449980Y-73240050D01*
X193452882Y-73230483D01*
X193457595Y-73221666D01*
X193463938Y-73213938D01*
X193471666Y-73207595D01*
X193480483Y-73202882D01*
X193490050Y-73199980D01*
X193500000Y-73199000D01*
X194050000Y-73199000D01*
X194056112Y-73199602D01*
G37*
G36*
G01*
X192199000Y-74750000D02*
X192199000Y-73250000D01*
G75*
G02*
X192250000Y-73199000I51000J0D01*
G01*
X193250000Y-73199000D01*
G75*
G02*
X193301000Y-73250000I0J-51000D01*
G01*
X193301000Y-74750000D01*
G75*
G02*
X193250000Y-74801000I-51000J0D01*
G01*
X192250000Y-74801000D01*
G75*
G02*
X192199000Y-74750000I0J51000D01*
G01*
G37*
G36*
X192009950Y-73199980D02*
G01*
X192019517Y-73202882D01*
X192028334Y-73207595D01*
X192036062Y-73213938D01*
X192042405Y-73221666D01*
X192047118Y-73230483D01*
X192050020Y-73240050D01*
X192051000Y-73250000D01*
X192051000Y-74750000D01*
X192050020Y-74759950D01*
X192047118Y-74769517D01*
X192042405Y-74778334D01*
X192036062Y-74786062D01*
X192028334Y-74792405D01*
X192019517Y-74797118D01*
X192009950Y-74800020D01*
X192000000Y-74801000D01*
X191450000Y-74801000D01*
X191443888Y-74800398D01*
X191425466Y-74800398D01*
X191420467Y-74800152D01*
X191371636Y-74795342D01*
X191366686Y-74794608D01*
X191318561Y-74785036D01*
X191313705Y-74783820D01*
X191266750Y-74769576D01*
X191262039Y-74767890D01*
X191216706Y-74749113D01*
X191212180Y-74746973D01*
X191168907Y-74723842D01*
X191164616Y-74721269D01*
X191123817Y-74694009D01*
X191119796Y-74691027D01*
X191081867Y-74659899D01*
X191078159Y-74656538D01*
X191043462Y-74621841D01*
X191040101Y-74618133D01*
X191008973Y-74580204D01*
X191005991Y-74576183D01*
X190978731Y-74535384D01*
X190976158Y-74531093D01*
X190953027Y-74487820D01*
X190950887Y-74483294D01*
X190932110Y-74437961D01*
X190930424Y-74433250D01*
X190916180Y-74386295D01*
X190914964Y-74381439D01*
X190905392Y-74333314D01*
X190904658Y-74328364D01*
X190899848Y-74279533D01*
X190899602Y-74274534D01*
X190899602Y-74256112D01*
X190899000Y-74250000D01*
X190899000Y-73750000D01*
X190899602Y-73743888D01*
X190899602Y-73725466D01*
X190899848Y-73720467D01*
X190904658Y-73671636D01*
X190905392Y-73666686D01*
X190914964Y-73618561D01*
X190916180Y-73613705D01*
X190930424Y-73566750D01*
X190932110Y-73562039D01*
X190950887Y-73516706D01*
X190953027Y-73512180D01*
X190976158Y-73468907D01*
X190978731Y-73464616D01*
X191005991Y-73423817D01*
X191008973Y-73419796D01*
X191040101Y-73381867D01*
X191043462Y-73378159D01*
X191078159Y-73343462D01*
X191081867Y-73340101D01*
X191119796Y-73308973D01*
X191123817Y-73305991D01*
X191164616Y-73278731D01*
X191168907Y-73276158D01*
X191212180Y-73253027D01*
X191216706Y-73250887D01*
X191262039Y-73232110D01*
X191266750Y-73230424D01*
X191313705Y-73216180D01*
X191318561Y-73214964D01*
X191366686Y-73205392D01*
X191371636Y-73204658D01*
X191420467Y-73199848D01*
X191425466Y-73199602D01*
X191443888Y-73199602D01*
X191450000Y-73199000D01*
X192000000Y-73199000D01*
X192009950Y-73199980D01*
G37*
D10*
X108960000Y-52500000D03*
X111500000Y-52500000D03*
X114040000Y-52500000D03*
G36*
G01*
X115730000Y-51599000D02*
X117430000Y-51599000D01*
G75*
G02*
X117481000Y-51650000I0J-51000D01*
G01*
X117481000Y-53350000D01*
G75*
G02*
X117430000Y-53401000I-51000J0D01*
G01*
X115730000Y-53401000D01*
G75*
G02*
X115679000Y-53350000I0J51000D01*
G01*
X115679000Y-51650000D01*
G75*
G02*
X115730000Y-51599000I51000J0D01*
G01*
G37*
X145790000Y-52500000D03*
X148330000Y-52500000D03*
X150870000Y-52500000D03*
X153410000Y-52500000D03*
X155950000Y-52500000D03*
G36*
G01*
X157640000Y-51599000D02*
X159340000Y-51599000D01*
G75*
G02*
X159391000Y-51650000I0J-51000D01*
G01*
X159391000Y-53350000D01*
G75*
G02*
X159340000Y-53401000I-51000J0D01*
G01*
X157640000Y-53401000D01*
G75*
G02*
X157589000Y-53350000I0J51000D01*
G01*
X157589000Y-51650000D01*
G75*
G02*
X157640000Y-51599000I51000J0D01*
G01*
G37*
G36*
G01*
X136050000Y-51599000D02*
X137750000Y-51599000D01*
G75*
G02*
X137801000Y-51650000I0J-51000D01*
G01*
X137801000Y-53350000D01*
G75*
G02*
X137750000Y-53401000I-51000J0D01*
G01*
X136050000Y-53401000D01*
G75*
G02*
X135999000Y-53350000I0J51000D01*
G01*
X135999000Y-51650000D01*
G75*
G02*
X136050000Y-51599000I51000J0D01*
G01*
G37*
X134360000Y-52500000D03*
X131820000Y-52500000D03*
X129280000Y-52500000D03*
X126740000Y-52500000D03*
X124200000Y-52500000D03*
G36*
G01*
X75449000Y-117000000D02*
X75449000Y-113500000D01*
G75*
G02*
X75500000Y-113449000I51000J0D01*
G01*
X79000000Y-113449000D01*
G75*
G02*
X79051000Y-113500000I0J-51000D01*
G01*
X79051000Y-117000000D01*
G75*
G02*
X79000000Y-117051000I-51000J0D01*
G01*
X75500000Y-117051000D01*
G75*
G02*
X75449000Y-117000000I0J51000D01*
G01*
G37*
G36*
G01*
X69699000Y-116275500D02*
X69699000Y-114224500D01*
G75*
G02*
X70474500Y-113449000I775500J0D01*
G01*
X72025500Y-113449000D01*
G75*
G02*
X72801000Y-114224500I0J-775500D01*
G01*
X72801000Y-116275500D01*
G75*
G02*
X72025500Y-117051000I-775500J0D01*
G01*
X70474500Y-117051000D01*
G75*
G02*
X69699000Y-116275500I0J775500D01*
G01*
G37*
G36*
G01*
X72449000Y-120850500D02*
X72449000Y-119049500D01*
G75*
G02*
X73349500Y-118149000I900500J0D01*
G01*
X75150500Y-118149000D01*
G75*
G02*
X76051000Y-119049500I0J-900500D01*
G01*
X76051000Y-120850500D01*
G75*
G02*
X75150500Y-121751000I-900500J0D01*
G01*
X73349500Y-121751000D01*
G75*
G02*
X72449000Y-120850500I0J900500D01*
G01*
G37*
G36*
G01*
X97946500Y-120432755D02*
X97946500Y-115407245D01*
G75*
G02*
X98209745Y-115144000I263245J0D01*
G01*
X99710255Y-115144000D01*
G75*
G02*
X99973500Y-115407245I0J-263245D01*
G01*
X99973500Y-120432755D01*
G75*
G02*
X99710255Y-120696000I-263245J0D01*
G01*
X98209745Y-120696000D01*
G75*
G02*
X97946500Y-120432755I0J263245D01*
G01*
G37*
G36*
G01*
X104721500Y-120432755D02*
X104721500Y-115407245D01*
G75*
G02*
X104984745Y-115144000I263245J0D01*
G01*
X106485255Y-115144000D01*
G75*
G02*
X106748500Y-115407245I0J-263245D01*
G01*
X106748500Y-120432755D01*
G75*
G02*
X106485255Y-120696000I-263245J0D01*
G01*
X104984745Y-120696000D01*
G75*
G02*
X104721500Y-120432755I0J263245D01*
G01*
G37*
G36*
G01*
X219424000Y-64965600D02*
X219424000Y-63534400D01*
G75*
G02*
X219634400Y-63324000I210400J0D01*
G01*
X220265600Y-63324000D01*
G75*
G02*
X220476000Y-63534400I0J-210400D01*
G01*
X220476000Y-64965600D01*
G75*
G02*
X220265600Y-65176000I-210400J0D01*
G01*
X219634400Y-65176000D01*
G75*
G02*
X219424000Y-64965600I0J210400D01*
G01*
G37*
G36*
G01*
X222524000Y-64965600D02*
X222524000Y-63534400D01*
G75*
G02*
X222734400Y-63324000I210400J0D01*
G01*
X223365600Y-63324000D01*
G75*
G02*
X223576000Y-63534400I0J-210400D01*
G01*
X223576000Y-64965600D01*
G75*
G02*
X223365600Y-65176000I-210400J0D01*
G01*
X222734400Y-65176000D01*
G75*
G02*
X222524000Y-64965600I0J210400D01*
G01*
G37*
D13*
X221500000Y-64250000D03*
G36*
G01*
X219424000Y-74965600D02*
X219424000Y-73534400D01*
G75*
G02*
X219634400Y-73324000I210400J0D01*
G01*
X220265600Y-73324000D01*
G75*
G02*
X220476000Y-73534400I0J-210400D01*
G01*
X220476000Y-74965600D01*
G75*
G02*
X220265600Y-75176000I-210400J0D01*
G01*
X219634400Y-75176000D01*
G75*
G02*
X219424000Y-74965600I0J210400D01*
G01*
G37*
G36*
G01*
X222524000Y-74965600D02*
X222524000Y-73534400D01*
G75*
G02*
X222734400Y-73324000I210400J0D01*
G01*
X223365600Y-73324000D01*
G75*
G02*
X223576000Y-73534400I0J-210400D01*
G01*
X223576000Y-74965600D01*
G75*
G02*
X223365600Y-75176000I-210400J0D01*
G01*
X222734400Y-75176000D01*
G75*
G02*
X222524000Y-74965600I0J210400D01*
G01*
G37*
X221500000Y-74250000D03*
G36*
G01*
X219424000Y-69965600D02*
X219424000Y-68534400D01*
G75*
G02*
X219634400Y-68324000I210400J0D01*
G01*
X220265600Y-68324000D01*
G75*
G02*
X220476000Y-68534400I0J-210400D01*
G01*
X220476000Y-69965600D01*
G75*
G02*
X220265600Y-70176000I-210400J0D01*
G01*
X219634400Y-70176000D01*
G75*
G02*
X219424000Y-69965600I0J210400D01*
G01*
G37*
G36*
G01*
X222524000Y-69965600D02*
X222524000Y-68534400D01*
G75*
G02*
X222734400Y-68324000I210400J0D01*
G01*
X223365600Y-68324000D01*
G75*
G02*
X223576000Y-68534400I0J-210400D01*
G01*
X223576000Y-69965600D01*
G75*
G02*
X223365600Y-70176000I-210400J0D01*
G01*
X222734400Y-70176000D01*
G75*
G02*
X222524000Y-69965600I0J210400D01*
G01*
G37*
X221500000Y-69250000D03*
G36*
G01*
X219424000Y-84965600D02*
X219424000Y-83534400D01*
G75*
G02*
X219634400Y-83324000I210400J0D01*
G01*
X220265600Y-83324000D01*
G75*
G02*
X220476000Y-83534400I0J-210400D01*
G01*
X220476000Y-84965600D01*
G75*
G02*
X220265600Y-85176000I-210400J0D01*
G01*
X219634400Y-85176000D01*
G75*
G02*
X219424000Y-84965600I0J210400D01*
G01*
G37*
G36*
G01*
X222524000Y-84965600D02*
X222524000Y-83534400D01*
G75*
G02*
X222734400Y-83324000I210400J0D01*
G01*
X223365600Y-83324000D01*
G75*
G02*
X223576000Y-83534400I0J-210400D01*
G01*
X223576000Y-84965600D01*
G75*
G02*
X223365600Y-85176000I-210400J0D01*
G01*
X222734400Y-85176000D01*
G75*
G02*
X222524000Y-84965600I0J210400D01*
G01*
G37*
X221500000Y-84250000D03*
G36*
G01*
X219424000Y-79965600D02*
X219424000Y-78534400D01*
G75*
G02*
X219634400Y-78324000I210400J0D01*
G01*
X220265600Y-78324000D01*
G75*
G02*
X220476000Y-78534400I0J-210400D01*
G01*
X220476000Y-79965600D01*
G75*
G02*
X220265600Y-80176000I-210400J0D01*
G01*
X219634400Y-80176000D01*
G75*
G02*
X219424000Y-79965600I0J210400D01*
G01*
G37*
G36*
G01*
X222524000Y-79965600D02*
X222524000Y-78534400D01*
G75*
G02*
X222734400Y-78324000I210400J0D01*
G01*
X223365600Y-78324000D01*
G75*
G02*
X223576000Y-78534400I0J-210400D01*
G01*
X223576000Y-79965600D01*
G75*
G02*
X223365600Y-80176000I-210400J0D01*
G01*
X222734400Y-80176000D01*
G75*
G02*
X222524000Y-79965600I0J210400D01*
G01*
G37*
X221500000Y-79250000D03*
G36*
G01*
X219424000Y-89965600D02*
X219424000Y-88534400D01*
G75*
G02*
X219634400Y-88324000I210400J0D01*
G01*
X220265600Y-88324000D01*
G75*
G02*
X220476000Y-88534400I0J-210400D01*
G01*
X220476000Y-89965600D01*
G75*
G02*
X220265600Y-90176000I-210400J0D01*
G01*
X219634400Y-90176000D01*
G75*
G02*
X219424000Y-89965600I0J210400D01*
G01*
G37*
G36*
G01*
X222524000Y-89965600D02*
X222524000Y-88534400D01*
G75*
G02*
X222734400Y-88324000I210400J0D01*
G01*
X223365600Y-88324000D01*
G75*
G02*
X223576000Y-88534400I0J-210400D01*
G01*
X223576000Y-89965600D01*
G75*
G02*
X223365600Y-90176000I-210400J0D01*
G01*
X222734400Y-90176000D01*
G75*
G02*
X222524000Y-89965600I0J210400D01*
G01*
G37*
X221500000Y-89250000D03*
G36*
G01*
X141400000Y-121749000D02*
X142600000Y-121749000D01*
G75*
G02*
X142651000Y-121800000I0J-51000D01*
G01*
X142651000Y-122700000D01*
G75*
G02*
X142600000Y-122751000I-51000J0D01*
G01*
X141400000Y-122751000D01*
G75*
G02*
X141349000Y-122700000I0J51000D01*
G01*
X141349000Y-121800000D01*
G75*
G02*
X141400000Y-121749000I51000J0D01*
G01*
G37*
G36*
G01*
X141400000Y-118449000D02*
X142600000Y-118449000D01*
G75*
G02*
X142651000Y-118500000I0J-51000D01*
G01*
X142651000Y-119400000D01*
G75*
G02*
X142600000Y-119451000I-51000J0D01*
G01*
X141400000Y-119451000D01*
G75*
G02*
X141349000Y-119400000I0J51000D01*
G01*
X141349000Y-118500000D01*
G75*
G02*
X141400000Y-118449000I51000J0D01*
G01*
G37*
X78500000Y-64250000D03*
G36*
G01*
X79524000Y-64965600D02*
X79524000Y-63534400D01*
G75*
G02*
X79734400Y-63324000I210400J0D01*
G01*
X80365600Y-63324000D01*
G75*
G02*
X80576000Y-63534400I0J-210400D01*
G01*
X80576000Y-64965600D01*
G75*
G02*
X80365600Y-65176000I-210400J0D01*
G01*
X79734400Y-65176000D01*
G75*
G02*
X79524000Y-64965600I0J210400D01*
G01*
G37*
G36*
G01*
X76424000Y-64965600D02*
X76424000Y-63534400D01*
G75*
G02*
X76634400Y-63324000I210400J0D01*
G01*
X77265600Y-63324000D01*
G75*
G02*
X77476000Y-63534400I0J-210400D01*
G01*
X77476000Y-64965600D01*
G75*
G02*
X77265600Y-65176000I-210400J0D01*
G01*
X76634400Y-65176000D01*
G75*
G02*
X76424000Y-64965600I0J210400D01*
G01*
G37*
X221500000Y-59250000D03*
G36*
G01*
X222524000Y-59965600D02*
X222524000Y-58534400D01*
G75*
G02*
X222734400Y-58324000I210400J0D01*
G01*
X223365600Y-58324000D01*
G75*
G02*
X223576000Y-58534400I0J-210400D01*
G01*
X223576000Y-59965600D01*
G75*
G02*
X223365600Y-60176000I-210400J0D01*
G01*
X222734400Y-60176000D01*
G75*
G02*
X222524000Y-59965600I0J210400D01*
G01*
G37*
G36*
G01*
X219424000Y-59965600D02*
X219424000Y-58534400D01*
G75*
G02*
X219634400Y-58324000I210400J0D01*
G01*
X220265600Y-58324000D01*
G75*
G02*
X220476000Y-58534400I0J-210400D01*
G01*
X220476000Y-59965600D01*
G75*
G02*
X220265600Y-60176000I-210400J0D01*
G01*
X219634400Y-60176000D01*
G75*
G02*
X219424000Y-59965600I0J210400D01*
G01*
G37*
X78500000Y-59250000D03*
G36*
G01*
X79524000Y-59965600D02*
X79524000Y-58534400D01*
G75*
G02*
X79734400Y-58324000I210400J0D01*
G01*
X80365600Y-58324000D01*
G75*
G02*
X80576000Y-58534400I0J-210400D01*
G01*
X80576000Y-59965600D01*
G75*
G02*
X80365600Y-60176000I-210400J0D01*
G01*
X79734400Y-60176000D01*
G75*
G02*
X79524000Y-59965600I0J210400D01*
G01*
G37*
G36*
G01*
X76424000Y-59965600D02*
X76424000Y-58534400D01*
G75*
G02*
X76634400Y-58324000I210400J0D01*
G01*
X77265600Y-58324000D01*
G75*
G02*
X77476000Y-58534400I0J-210400D01*
G01*
X77476000Y-59965600D01*
G75*
G02*
X77265600Y-60176000I-210400J0D01*
G01*
X76634400Y-60176000D01*
G75*
G02*
X76424000Y-59965600I0J210400D01*
G01*
G37*
D14*
G36*
X100650990Y-123425304D02*
G01*
X100659146Y-123508116D01*
X100683246Y-123587563D01*
X100722381Y-123660779D01*
X100775047Y-123724953D01*
X100839221Y-123777619D01*
X100912437Y-123816754D01*
X100991884Y-123840854D01*
X101074696Y-123849010D01*
X101076322Y-123850175D01*
X101076126Y-123852165D01*
X101074500Y-123853000D01*
X101018140Y-123853000D01*
X101017944Y-123852990D01*
X100941106Y-123845422D01*
X100940721Y-123845346D01*
X100872734Y-123824722D01*
X100872372Y-123824572D01*
X100809722Y-123791085D01*
X100809396Y-123790867D01*
X100754479Y-123745798D01*
X100754202Y-123745521D01*
X100709133Y-123690604D01*
X100708915Y-123690278D01*
X100675428Y-123627628D01*
X100675278Y-123627266D01*
X100654654Y-123559279D01*
X100654578Y-123558894D01*
X100647010Y-123482056D01*
X100647000Y-123481860D01*
X100647000Y-123425500D01*
X100648000Y-123423768D01*
X100650000Y-123423768D01*
X100650990Y-123425304D01*
G37*
G36*
X102352165Y-123423874D02*
G01*
X102353000Y-123425500D01*
X102353000Y-123481860D01*
X102352990Y-123482056D01*
X102345422Y-123558894D01*
X102345346Y-123559279D01*
X102324722Y-123627266D01*
X102324572Y-123627628D01*
X102291085Y-123690278D01*
X102290867Y-123690604D01*
X102245798Y-123745521D01*
X102245521Y-123745798D01*
X102190604Y-123790867D01*
X102190278Y-123791085D01*
X102127628Y-123824572D01*
X102127266Y-123824722D01*
X102059279Y-123845346D01*
X102058894Y-123845422D01*
X101982056Y-123852990D01*
X101981860Y-123853000D01*
X101925500Y-123853000D01*
X101923768Y-123852000D01*
X101923768Y-123850000D01*
X101925304Y-123849010D01*
X102008116Y-123840854D01*
X102087563Y-123816754D01*
X102160779Y-123777619D01*
X102224953Y-123724953D01*
X102277619Y-123660779D01*
X102316754Y-123587563D01*
X102340854Y-123508116D01*
X102349010Y-123425304D01*
X102350175Y-123423678D01*
X102352165Y-123423874D01*
G37*
G36*
X101076232Y-122148000D02*
G01*
X101076232Y-122150000D01*
X101074696Y-122150990D01*
X100991884Y-122159146D01*
X100912437Y-122183246D01*
X100839221Y-122222381D01*
X100775047Y-122275047D01*
X100722381Y-122339221D01*
X100683246Y-122412437D01*
X100659146Y-122491884D01*
X100650990Y-122574696D01*
X100649825Y-122576322D01*
X100647835Y-122576126D01*
X100647000Y-122574500D01*
X100647000Y-122518140D01*
X100647010Y-122517944D01*
X100654578Y-122441106D01*
X100654654Y-122440721D01*
X100675278Y-122372734D01*
X100675428Y-122372372D01*
X100708915Y-122309722D01*
X100709133Y-122309396D01*
X100754202Y-122254479D01*
X100754479Y-122254202D01*
X100809396Y-122209133D01*
X100809722Y-122208915D01*
X100872372Y-122175428D01*
X100872734Y-122175278D01*
X100940721Y-122154654D01*
X100941106Y-122154578D01*
X101017944Y-122147010D01*
X101018140Y-122147000D01*
X101074500Y-122147000D01*
X101076232Y-122148000D01*
G37*
G36*
X101982056Y-122147010D02*
G01*
X102058894Y-122154578D01*
X102059279Y-122154654D01*
X102127266Y-122175278D01*
X102127628Y-122175428D01*
X102190278Y-122208915D01*
X102190604Y-122209133D01*
X102245521Y-122254202D01*
X102245798Y-122254479D01*
X102290867Y-122309396D01*
X102291085Y-122309722D01*
X102324572Y-122372372D01*
X102324722Y-122372734D01*
X102345346Y-122440721D01*
X102345422Y-122441106D01*
X102352990Y-122517944D01*
X102353000Y-122518140D01*
X102353000Y-122574500D01*
X102352000Y-122576232D01*
X102350000Y-122576232D01*
X102349010Y-122574696D01*
X102340854Y-122491884D01*
X102316754Y-122412437D01*
X102277619Y-122339221D01*
X102224953Y-122275047D01*
X102160779Y-122222381D01*
X102087563Y-122183246D01*
X102008116Y-122159146D01*
X101925304Y-122150990D01*
X101923678Y-122149825D01*
X101923874Y-122147835D01*
X101925500Y-122147000D01*
X101981860Y-122147000D01*
X101982056Y-122147010D01*
G37*
G36*
X76052165Y-120848874D02*
G01*
X76053000Y-120850500D01*
X76053000Y-120906860D01*
X76052990Y-120907056D01*
X76036295Y-121076562D01*
X76036219Y-121076947D01*
X75988565Y-121234041D01*
X75988415Y-121234403D01*
X75911033Y-121379174D01*
X75910815Y-121379500D01*
X75806674Y-121506397D01*
X75806397Y-121506674D01*
X75679500Y-121610815D01*
X75679174Y-121611033D01*
X75534403Y-121688415D01*
X75534041Y-121688565D01*
X75376947Y-121736219D01*
X75376562Y-121736295D01*
X75207056Y-121752990D01*
X75206860Y-121753000D01*
X75150500Y-121753000D01*
X75148768Y-121752000D01*
X75148768Y-121750000D01*
X75150304Y-121749010D01*
X75325784Y-121731727D01*
X75494337Y-121680597D01*
X75649675Y-121597567D01*
X75785829Y-121485829D01*
X75897567Y-121349675D01*
X75980597Y-121194337D01*
X76031727Y-121025784D01*
X76049010Y-120850304D01*
X76050175Y-120848678D01*
X76052165Y-120848874D01*
G37*
G36*
X72450990Y-120850304D02*
G01*
X72468273Y-121025784D01*
X72519403Y-121194337D01*
X72602433Y-121349675D01*
X72714171Y-121485829D01*
X72850325Y-121597567D01*
X73005663Y-121680597D01*
X73174216Y-121731727D01*
X73349696Y-121749010D01*
X73351322Y-121750175D01*
X73351126Y-121752165D01*
X73349500Y-121753000D01*
X73293140Y-121753000D01*
X73292944Y-121752990D01*
X73123438Y-121736295D01*
X73123053Y-121736219D01*
X72965959Y-121688565D01*
X72965597Y-121688415D01*
X72820826Y-121611033D01*
X72820500Y-121610815D01*
X72693603Y-121506674D01*
X72693326Y-121506397D01*
X72589185Y-121379500D01*
X72588967Y-121379174D01*
X72511585Y-121234403D01*
X72511435Y-121234041D01*
X72463781Y-121076947D01*
X72463705Y-121076562D01*
X72447010Y-120907056D01*
X72447000Y-120906860D01*
X72447000Y-120850500D01*
X72448000Y-120848768D01*
X72450000Y-120848768D01*
X72450990Y-120850304D01*
G37*
G36*
X106749665Y-120431129D02*
G01*
X106750500Y-120432755D01*
X106750500Y-120519147D01*
X106750490Y-120519343D01*
X106746617Y-120558671D01*
X106746541Y-120559056D01*
X106736861Y-120590964D01*
X106736711Y-120591326D01*
X106720990Y-120620738D01*
X106720772Y-120621064D01*
X106699618Y-120646841D01*
X106699341Y-120647118D01*
X106673564Y-120668272D01*
X106673238Y-120668490D01*
X106643826Y-120684211D01*
X106643464Y-120684361D01*
X106611556Y-120694041D01*
X106611171Y-120694117D01*
X106571843Y-120697990D01*
X106571647Y-120698000D01*
X106485255Y-120698000D01*
X106483523Y-120697000D01*
X106483523Y-120695000D01*
X106485059Y-120694010D01*
X106536217Y-120688972D01*
X106585226Y-120674105D01*
X106630390Y-120649964D01*
X106669976Y-120617476D01*
X106702464Y-120577890D01*
X106726605Y-120532726D01*
X106741472Y-120483717D01*
X106746510Y-120432559D01*
X106747675Y-120430933D01*
X106749665Y-120431129D01*
G37*
G36*
X99974665Y-120431129D02*
G01*
X99975500Y-120432755D01*
X99975500Y-120519147D01*
X99975490Y-120519343D01*
X99971617Y-120558671D01*
X99971541Y-120559056D01*
X99961861Y-120590964D01*
X99961711Y-120591326D01*
X99945990Y-120620738D01*
X99945772Y-120621064D01*
X99924618Y-120646841D01*
X99924341Y-120647118D01*
X99898564Y-120668272D01*
X99898238Y-120668490D01*
X99868826Y-120684211D01*
X99868464Y-120684361D01*
X99836556Y-120694041D01*
X99836171Y-120694117D01*
X99796843Y-120697990D01*
X99796647Y-120698000D01*
X99710255Y-120698000D01*
X99708523Y-120697000D01*
X99708523Y-120695000D01*
X99710059Y-120694010D01*
X99761217Y-120688972D01*
X99810226Y-120674105D01*
X99855390Y-120649964D01*
X99894976Y-120617476D01*
X99927464Y-120577890D01*
X99951605Y-120532726D01*
X99966472Y-120483717D01*
X99971510Y-120432559D01*
X99972675Y-120430933D01*
X99974665Y-120431129D01*
G37*
G36*
X104723490Y-120432559D02*
G01*
X104728528Y-120483717D01*
X104743395Y-120532726D01*
X104767536Y-120577890D01*
X104800024Y-120617476D01*
X104839610Y-120649964D01*
X104884774Y-120674105D01*
X104933783Y-120688972D01*
X104984941Y-120694010D01*
X104986567Y-120695175D01*
X104986371Y-120697165D01*
X104984745Y-120698000D01*
X104898353Y-120698000D01*
X104898157Y-120697990D01*
X104858829Y-120694117D01*
X104858444Y-120694041D01*
X104826536Y-120684361D01*
X104826174Y-120684211D01*
X104796762Y-120668490D01*
X104796436Y-120668272D01*
X104770659Y-120647118D01*
X104770382Y-120646841D01*
X104749228Y-120621064D01*
X104749010Y-120620738D01*
X104733289Y-120591326D01*
X104733139Y-120590964D01*
X104723459Y-120559056D01*
X104723383Y-120558671D01*
X104719510Y-120519343D01*
X104719500Y-120519147D01*
X104719500Y-120432755D01*
X104720500Y-120431023D01*
X104722500Y-120431023D01*
X104723490Y-120432559D01*
G37*
G36*
X97948490Y-120432559D02*
G01*
X97953528Y-120483717D01*
X97968395Y-120532726D01*
X97992536Y-120577890D01*
X98025024Y-120617476D01*
X98064610Y-120649964D01*
X98109774Y-120674105D01*
X98158783Y-120688972D01*
X98209941Y-120694010D01*
X98211567Y-120695175D01*
X98211371Y-120697165D01*
X98209745Y-120698000D01*
X98123353Y-120698000D01*
X98123157Y-120697990D01*
X98083829Y-120694117D01*
X98083444Y-120694041D01*
X98051536Y-120684361D01*
X98051174Y-120684211D01*
X98021762Y-120668490D01*
X98021436Y-120668272D01*
X97995659Y-120647118D01*
X97995382Y-120646841D01*
X97974228Y-120621064D01*
X97974010Y-120620738D01*
X97958289Y-120591326D01*
X97958139Y-120590964D01*
X97948459Y-120559056D01*
X97948383Y-120558671D01*
X97944510Y-120519343D01*
X97944500Y-120519147D01*
X97944500Y-120432755D01*
X97945500Y-120431023D01*
X97947500Y-120431023D01*
X97948490Y-120432559D01*
G37*
G36*
X73351232Y-118148000D02*
G01*
X73351232Y-118150000D01*
X73349696Y-118150990D01*
X73174216Y-118168273D01*
X73005663Y-118219403D01*
X72850325Y-118302433D01*
X72714171Y-118414171D01*
X72602433Y-118550325D01*
X72519403Y-118705663D01*
X72468273Y-118874216D01*
X72450990Y-119049696D01*
X72449825Y-119051322D01*
X72447835Y-119051126D01*
X72447000Y-119049500D01*
X72447000Y-118993140D01*
X72447010Y-118992944D01*
X72463705Y-118823438D01*
X72463781Y-118823053D01*
X72511435Y-118665959D01*
X72511585Y-118665597D01*
X72588967Y-118520826D01*
X72589185Y-118520500D01*
X72693326Y-118393603D01*
X72693603Y-118393326D01*
X72820500Y-118289185D01*
X72820826Y-118288967D01*
X72965597Y-118211585D01*
X72965959Y-118211435D01*
X73123053Y-118163781D01*
X73123438Y-118163705D01*
X73292944Y-118147010D01*
X73293140Y-118147000D01*
X73349500Y-118147000D01*
X73351232Y-118148000D01*
G37*
G36*
X75207056Y-118147010D02*
G01*
X75376562Y-118163705D01*
X75376947Y-118163781D01*
X75534041Y-118211435D01*
X75534403Y-118211585D01*
X75679174Y-118288967D01*
X75679500Y-118289185D01*
X75806397Y-118393326D01*
X75806674Y-118393603D01*
X75910815Y-118520500D01*
X75911033Y-118520826D01*
X75988415Y-118665597D01*
X75988565Y-118665959D01*
X76036219Y-118823053D01*
X76036295Y-118823438D01*
X76052990Y-118992944D01*
X76053000Y-118993140D01*
X76053000Y-119049500D01*
X76052000Y-119051232D01*
X76050000Y-119051232D01*
X76049010Y-119049696D01*
X76031727Y-118874216D01*
X75980597Y-118705663D01*
X75897567Y-118550325D01*
X75785829Y-118414171D01*
X75649675Y-118302433D01*
X75494337Y-118219403D01*
X75325784Y-118168273D01*
X75150304Y-118150990D01*
X75148678Y-118149825D01*
X75148874Y-118147835D01*
X75150500Y-118147000D01*
X75206860Y-118147000D01*
X75207056Y-118147010D01*
G37*
G36*
X69700990Y-116275304D02*
G01*
X69715871Y-116426398D01*
X69759888Y-116571502D01*
X69831366Y-116705229D01*
X69927560Y-116822440D01*
X70044771Y-116918634D01*
X70178498Y-116990112D01*
X70323602Y-117034129D01*
X70474696Y-117049010D01*
X70476322Y-117050175D01*
X70476126Y-117052165D01*
X70474500Y-117053000D01*
X70418140Y-117053000D01*
X70417944Y-117052990D01*
X70272825Y-117038697D01*
X70272440Y-117038621D01*
X70138794Y-116998080D01*
X70138432Y-116997930D01*
X70015273Y-116932100D01*
X70014947Y-116931882D01*
X69906991Y-116843286D01*
X69906714Y-116843009D01*
X69818118Y-116735053D01*
X69817900Y-116734727D01*
X69752070Y-116611568D01*
X69751920Y-116611206D01*
X69711379Y-116477560D01*
X69711303Y-116477175D01*
X69697010Y-116332056D01*
X69697000Y-116331860D01*
X69697000Y-116275500D01*
X69698000Y-116273768D01*
X69700000Y-116273768D01*
X69700990Y-116275304D01*
G37*
G36*
X72802165Y-116273874D02*
G01*
X72803000Y-116275500D01*
X72803000Y-116331860D01*
X72802990Y-116332056D01*
X72788697Y-116477175D01*
X72788621Y-116477560D01*
X72748080Y-116611206D01*
X72747930Y-116611568D01*
X72682100Y-116734727D01*
X72681882Y-116735053D01*
X72593286Y-116843009D01*
X72593009Y-116843286D01*
X72485053Y-116931882D01*
X72484727Y-116932100D01*
X72361568Y-116997930D01*
X72361206Y-116998080D01*
X72227560Y-117038621D01*
X72227175Y-117038697D01*
X72082056Y-117052990D01*
X72081860Y-117053000D01*
X72025500Y-117053000D01*
X72023768Y-117052000D01*
X72023768Y-117050000D01*
X72025304Y-117049010D01*
X72176398Y-117034129D01*
X72321502Y-116990112D01*
X72455229Y-116918634D01*
X72572440Y-116822440D01*
X72668634Y-116705229D01*
X72740112Y-116571502D01*
X72784129Y-116426398D01*
X72799010Y-116275304D01*
X72800175Y-116273678D01*
X72802165Y-116273874D01*
G37*
G36*
X98211477Y-115143000D02*
G01*
X98211477Y-115145000D01*
X98209941Y-115145990D01*
X98158783Y-115151028D01*
X98109774Y-115165895D01*
X98064610Y-115190036D01*
X98025024Y-115222524D01*
X97992536Y-115262110D01*
X97968395Y-115307274D01*
X97953528Y-115356283D01*
X97948490Y-115407441D01*
X97947325Y-115409067D01*
X97945335Y-115408871D01*
X97944500Y-115407245D01*
X97944500Y-115320853D01*
X97944510Y-115320657D01*
X97948383Y-115281329D01*
X97948459Y-115280944D01*
X97958139Y-115249036D01*
X97958289Y-115248674D01*
X97974010Y-115219262D01*
X97974228Y-115218936D01*
X97995382Y-115193159D01*
X97995659Y-115192882D01*
X98021436Y-115171728D01*
X98021762Y-115171510D01*
X98051174Y-115155789D01*
X98051536Y-115155639D01*
X98083444Y-115145959D01*
X98083829Y-115145883D01*
X98123157Y-115142010D01*
X98123353Y-115142000D01*
X98209745Y-115142000D01*
X98211477Y-115143000D01*
G37*
G36*
X104986477Y-115143000D02*
G01*
X104986477Y-115145000D01*
X104984941Y-115145990D01*
X104933783Y-115151028D01*
X104884774Y-115165895D01*
X104839610Y-115190036D01*
X104800024Y-115222524D01*
X104767536Y-115262110D01*
X104743395Y-115307274D01*
X104728528Y-115356283D01*
X104723490Y-115407441D01*
X104722325Y-115409067D01*
X104720335Y-115408871D01*
X104719500Y-115407245D01*
X104719500Y-115320853D01*
X104719510Y-115320657D01*
X104723383Y-115281329D01*
X104723459Y-115280944D01*
X104733139Y-115249036D01*
X104733289Y-115248674D01*
X104749010Y-115219262D01*
X104749228Y-115218936D01*
X104770382Y-115193159D01*
X104770659Y-115192882D01*
X104796436Y-115171728D01*
X104796762Y-115171510D01*
X104826174Y-115155789D01*
X104826536Y-115155639D01*
X104858444Y-115145959D01*
X104858829Y-115145883D01*
X104898157Y-115142010D01*
X104898353Y-115142000D01*
X104984745Y-115142000D01*
X104986477Y-115143000D01*
G37*
G36*
X99796843Y-115142010D02*
G01*
X99836171Y-115145883D01*
X99836556Y-115145959D01*
X99868464Y-115155639D01*
X99868826Y-115155789D01*
X99898238Y-115171510D01*
X99898564Y-115171728D01*
X99924341Y-115192882D01*
X99924618Y-115193159D01*
X99945772Y-115218936D01*
X99945990Y-115219262D01*
X99961711Y-115248674D01*
X99961861Y-115249036D01*
X99971541Y-115280944D01*
X99971617Y-115281329D01*
X99975490Y-115320657D01*
X99975500Y-115320853D01*
X99975500Y-115407245D01*
X99974500Y-115408977D01*
X99972500Y-115408977D01*
X99971510Y-115407441D01*
X99966472Y-115356283D01*
X99951605Y-115307274D01*
X99927464Y-115262110D01*
X99894976Y-115222524D01*
X99855390Y-115190036D01*
X99810226Y-115165895D01*
X99761217Y-115151028D01*
X99710059Y-115145990D01*
X99708433Y-115144825D01*
X99708629Y-115142835D01*
X99710255Y-115142000D01*
X99796647Y-115142000D01*
X99796843Y-115142010D01*
G37*
G36*
X106571843Y-115142010D02*
G01*
X106611171Y-115145883D01*
X106611556Y-115145959D01*
X106643464Y-115155639D01*
X106643826Y-115155789D01*
X106673238Y-115171510D01*
X106673564Y-115171728D01*
X106699341Y-115192882D01*
X106699618Y-115193159D01*
X106720772Y-115218936D01*
X106720990Y-115219262D01*
X106736711Y-115248674D01*
X106736861Y-115249036D01*
X106746541Y-115280944D01*
X106746617Y-115281329D01*
X106750490Y-115320657D01*
X106750500Y-115320853D01*
X106750500Y-115407245D01*
X106749500Y-115408977D01*
X106747500Y-115408977D01*
X106746510Y-115407441D01*
X106741472Y-115356283D01*
X106726605Y-115307274D01*
X106702464Y-115262110D01*
X106669976Y-115222524D01*
X106630390Y-115190036D01*
X106585226Y-115165895D01*
X106536217Y-115151028D01*
X106485059Y-115145990D01*
X106483433Y-115144825D01*
X106483629Y-115142835D01*
X106485255Y-115142000D01*
X106571647Y-115142000D01*
X106571843Y-115142010D01*
G37*
G36*
X70476232Y-113448000D02*
G01*
X70476232Y-113450000D01*
X70474696Y-113450990D01*
X70323602Y-113465871D01*
X70178498Y-113509888D01*
X70044771Y-113581366D01*
X69927560Y-113677560D01*
X69831366Y-113794771D01*
X69759888Y-113928498D01*
X69715871Y-114073602D01*
X69700990Y-114224696D01*
X69699825Y-114226322D01*
X69697835Y-114226126D01*
X69697000Y-114224500D01*
X69697000Y-114168140D01*
X69697010Y-114167944D01*
X69711303Y-114022825D01*
X69711379Y-114022440D01*
X69751920Y-113888794D01*
X69752070Y-113888432D01*
X69817900Y-113765273D01*
X69818118Y-113764947D01*
X69906714Y-113656991D01*
X69906991Y-113656714D01*
X70014947Y-113568118D01*
X70015273Y-113567900D01*
X70138432Y-113502070D01*
X70138794Y-113501920D01*
X70272440Y-113461379D01*
X70272825Y-113461303D01*
X70417944Y-113447010D01*
X70418140Y-113447000D01*
X70474500Y-113447000D01*
X70476232Y-113448000D01*
G37*
G36*
X72082056Y-113447010D02*
G01*
X72227175Y-113461303D01*
X72227560Y-113461379D01*
X72361206Y-113501920D01*
X72361568Y-113502070D01*
X72484727Y-113567900D01*
X72485053Y-113568118D01*
X72593009Y-113656714D01*
X72593286Y-113656991D01*
X72681882Y-113764947D01*
X72682100Y-113765273D01*
X72747930Y-113888432D01*
X72748080Y-113888794D01*
X72788621Y-114022440D01*
X72788697Y-114022825D01*
X72802990Y-114167944D01*
X72803000Y-114168140D01*
X72803000Y-114224500D01*
X72802000Y-114226232D01*
X72800000Y-114226232D01*
X72799010Y-114224696D01*
X72784129Y-114073602D01*
X72740112Y-113928498D01*
X72668634Y-113794771D01*
X72572440Y-113677560D01*
X72455229Y-113581366D01*
X72321502Y-113509888D01*
X72176398Y-113465871D01*
X72025304Y-113450990D01*
X72023678Y-113449825D01*
X72023874Y-113447835D01*
X72025500Y-113447000D01*
X72081860Y-113447000D01*
X72082056Y-113447010D01*
G37*
G36*
X127302165Y-109773874D02*
G01*
X127303000Y-109775500D01*
X127303000Y-109831860D01*
X127302990Y-109832056D01*
X127293501Y-109928406D01*
X127293425Y-109928791D01*
X127267112Y-110015531D01*
X127266962Y-110015893D01*
X127224234Y-110095832D01*
X127224016Y-110096158D01*
X127166508Y-110166231D01*
X127166231Y-110166508D01*
X127096158Y-110224016D01*
X127095832Y-110224234D01*
X127015893Y-110266962D01*
X127015531Y-110267112D01*
X126928791Y-110293425D01*
X126928406Y-110293501D01*
X126832056Y-110302990D01*
X126831860Y-110303000D01*
X126775500Y-110303000D01*
X126773768Y-110302000D01*
X126773768Y-110300000D01*
X126775304Y-110299010D01*
X126877625Y-110288933D01*
X126975831Y-110259142D01*
X127066336Y-110210766D01*
X127145664Y-110145664D01*
X127210766Y-110066336D01*
X127259142Y-109975831D01*
X127288933Y-109877625D01*
X127299010Y-109775304D01*
X127300175Y-109773678D01*
X127302165Y-109773874D01*
G37*
G36*
X130200990Y-109775304D02*
G01*
X130211067Y-109877625D01*
X130240858Y-109975831D01*
X130289234Y-110066336D01*
X130354336Y-110145664D01*
X130433664Y-110210766D01*
X130524169Y-110259142D01*
X130622375Y-110288933D01*
X130724696Y-110299010D01*
X130726322Y-110300175D01*
X130726126Y-110302165D01*
X130724500Y-110303000D01*
X130668140Y-110303000D01*
X130667944Y-110302990D01*
X130571594Y-110293501D01*
X130571209Y-110293425D01*
X130484469Y-110267112D01*
X130484107Y-110266962D01*
X130404168Y-110224234D01*
X130403842Y-110224016D01*
X130333769Y-110166508D01*
X130333492Y-110166231D01*
X130275984Y-110096158D01*
X130275766Y-110095832D01*
X130233038Y-110015893D01*
X130232888Y-110015531D01*
X130206575Y-109928791D01*
X130206499Y-109928406D01*
X130197010Y-109832056D01*
X130197000Y-109831860D01*
X130197000Y-109775500D01*
X130198000Y-109773768D01*
X130200000Y-109773768D01*
X130200990Y-109775304D01*
G37*
G36*
X132302165Y-109773874D02*
G01*
X132303000Y-109775500D01*
X132303000Y-109831860D01*
X132302990Y-109832056D01*
X132293501Y-109928406D01*
X132293425Y-109928791D01*
X132267112Y-110015531D01*
X132266962Y-110015893D01*
X132224234Y-110095832D01*
X132224016Y-110096158D01*
X132166508Y-110166231D01*
X132166231Y-110166508D01*
X132096158Y-110224016D01*
X132095832Y-110224234D01*
X132015893Y-110266962D01*
X132015531Y-110267112D01*
X131928791Y-110293425D01*
X131928406Y-110293501D01*
X131832056Y-110302990D01*
X131831860Y-110303000D01*
X131775500Y-110303000D01*
X131773768Y-110302000D01*
X131773768Y-110300000D01*
X131775304Y-110299010D01*
X131877625Y-110288933D01*
X131975831Y-110259142D01*
X132066336Y-110210766D01*
X132145664Y-110145664D01*
X132210766Y-110066336D01*
X132259142Y-109975831D01*
X132288933Y-109877625D01*
X132299010Y-109775304D01*
X132300175Y-109773678D01*
X132302165Y-109773874D01*
G37*
G36*
X125200990Y-109775304D02*
G01*
X125211067Y-109877625D01*
X125240858Y-109975831D01*
X125289234Y-110066336D01*
X125354336Y-110145664D01*
X125433664Y-110210766D01*
X125524169Y-110259142D01*
X125622375Y-110288933D01*
X125724696Y-110299010D01*
X125726322Y-110300175D01*
X125726126Y-110302165D01*
X125724500Y-110303000D01*
X125668140Y-110303000D01*
X125667944Y-110302990D01*
X125571594Y-110293501D01*
X125571209Y-110293425D01*
X125484469Y-110267112D01*
X125484107Y-110266962D01*
X125404168Y-110224234D01*
X125403842Y-110224016D01*
X125333769Y-110166508D01*
X125333492Y-110166231D01*
X125275984Y-110096158D01*
X125275766Y-110095832D01*
X125233038Y-110015893D01*
X125232888Y-110015531D01*
X125206575Y-109928791D01*
X125206499Y-109928406D01*
X125197010Y-109832056D01*
X125197000Y-109831860D01*
X125197000Y-109775500D01*
X125198000Y-109773768D01*
X125200000Y-109773768D01*
X125200990Y-109775304D01*
G37*
G36*
X195834658Y-107572010D02*
G01*
X195867092Y-107575204D01*
X195867477Y-107575280D01*
X195892764Y-107582951D01*
X195893126Y-107583101D01*
X195916429Y-107595557D01*
X195916755Y-107595775D01*
X195937183Y-107612540D01*
X195937460Y-107612817D01*
X195954225Y-107633245D01*
X195954443Y-107633571D01*
X195966898Y-107656873D01*
X195967048Y-107657235D01*
X195970736Y-107669392D01*
X195980001Y-107691756D01*
X195993396Y-107711803D01*
X196010443Y-107728850D01*
X196030491Y-107742244D01*
X196052765Y-107751470D01*
X196076415Y-107756174D01*
X196100521Y-107756174D01*
X196124172Y-107751469D01*
X196146445Y-107742242D01*
X196166492Y-107728847D01*
X196183539Y-107711800D01*
X196193625Y-107696705D01*
X196195419Y-107695820D01*
X196197082Y-107696931D01*
X196197052Y-107698759D01*
X196123248Y-107836838D01*
X196069243Y-108014865D01*
X196051000Y-108200094D01*
X196051000Y-108799906D01*
X196069243Y-108985136D01*
X196123249Y-109163163D01*
X196197055Y-109301246D01*
X196196989Y-109303245D01*
X196195226Y-109304188D01*
X196193628Y-109303300D01*
X196183538Y-109288198D01*
X196166491Y-109271151D01*
X196146443Y-109257756D01*
X196124169Y-109248529D01*
X196100519Y-109243825D01*
X196076413Y-109243825D01*
X196052763Y-109248529D01*
X196030489Y-109257756D01*
X196010442Y-109271150D01*
X195993395Y-109288197D01*
X195980000Y-109308245D01*
X195970736Y-109330609D01*
X195967049Y-109342763D01*
X195966899Y-109343125D01*
X195954443Y-109366429D01*
X195954225Y-109366755D01*
X195937460Y-109387183D01*
X195937183Y-109387460D01*
X195916755Y-109404225D01*
X195916429Y-109404443D01*
X195893126Y-109416899D01*
X195892764Y-109417049D01*
X195867477Y-109424720D01*
X195867092Y-109424796D01*
X195834658Y-109427990D01*
X195834462Y-109428000D01*
X195765600Y-109428000D01*
X195763868Y-109427000D01*
X195763868Y-109425000D01*
X195765404Y-109424010D01*
X195806252Y-109419987D01*
X195845348Y-109408127D01*
X195881376Y-109388870D01*
X195912954Y-109362954D01*
X195938870Y-109331376D01*
X195958127Y-109295348D01*
X195969987Y-109256252D01*
X195974000Y-109215506D01*
X195974000Y-107784494D01*
X195969987Y-107743748D01*
X195958127Y-107704652D01*
X195938870Y-107668624D01*
X195912954Y-107637046D01*
X195881376Y-107611130D01*
X195845348Y-107591873D01*
X195806252Y-107580013D01*
X195765404Y-107575990D01*
X195763778Y-107574825D01*
X195763974Y-107572835D01*
X195765600Y-107572000D01*
X195834462Y-107572000D01*
X195834658Y-107572010D01*
G37*
G36*
X198236132Y-107573000D02*
G01*
X198236132Y-107575000D01*
X198234596Y-107575990D01*
X198193748Y-107580013D01*
X198154652Y-107591873D01*
X198118624Y-107611130D01*
X198087046Y-107637046D01*
X198061130Y-107668624D01*
X198041873Y-107704652D01*
X198030013Y-107743748D01*
X198026000Y-107784494D01*
X198026000Y-109215506D01*
X198030013Y-109256252D01*
X198041873Y-109295348D01*
X198061130Y-109331376D01*
X198087046Y-109362954D01*
X198118624Y-109388870D01*
X198154652Y-109408127D01*
X198193748Y-109419987D01*
X198234596Y-109424010D01*
X198236222Y-109425175D01*
X198236026Y-109427165D01*
X198234400Y-109428000D01*
X198165538Y-109428000D01*
X198165342Y-109427990D01*
X198132908Y-109424796D01*
X198132523Y-109424720D01*
X198107236Y-109417049D01*
X198106874Y-109416899D01*
X198083571Y-109404443D01*
X198083245Y-109404225D01*
X198062817Y-109387460D01*
X198062540Y-109387183D01*
X198045775Y-109366755D01*
X198045557Y-109366429D01*
X198033102Y-109343127D01*
X198032952Y-109342765D01*
X198029264Y-109330608D01*
X198019999Y-109308244D01*
X198006604Y-109288197D01*
X197989557Y-109271150D01*
X197969509Y-109257756D01*
X197947235Y-109248530D01*
X197923585Y-109243826D01*
X197899479Y-109243826D01*
X197875828Y-109248531D01*
X197853555Y-109257758D01*
X197833508Y-109271153D01*
X197816461Y-109288200D01*
X197806375Y-109303295D01*
X197804581Y-109304180D01*
X197802918Y-109303069D01*
X197802948Y-109301241D01*
X197876752Y-109163163D01*
X197930757Y-108985136D01*
X197949000Y-108799905D01*
X197949000Y-108200094D01*
X197930757Y-108014864D01*
X197876752Y-107836837D01*
X197802944Y-107698751D01*
X197803010Y-107696752D01*
X197804773Y-107695809D01*
X197806371Y-107696697D01*
X197816463Y-107711801D01*
X197833510Y-107728848D01*
X197853557Y-107742242D01*
X197875831Y-107751469D01*
X197899481Y-107756173D01*
X197923587Y-107756173D01*
X197947237Y-107751469D01*
X197969511Y-107742242D01*
X197989559Y-107728847D01*
X198006606Y-107711800D01*
X198020000Y-107691753D01*
X198029263Y-107669392D01*
X198032950Y-107657239D01*
X198033100Y-107656877D01*
X198045557Y-107633571D01*
X198045775Y-107633245D01*
X198062540Y-107612817D01*
X198062817Y-107612540D01*
X198083245Y-107595775D01*
X198083571Y-107595557D01*
X198106874Y-107583101D01*
X198107236Y-107582951D01*
X198132523Y-107575280D01*
X198132908Y-107575204D01*
X198165342Y-107572010D01*
X198165538Y-107572000D01*
X198234400Y-107572000D01*
X198236132Y-107573000D01*
G37*
G36*
X130726232Y-108198000D02*
G01*
X130726232Y-108200000D01*
X130724696Y-108200990D01*
X130622375Y-108211067D01*
X130524169Y-108240858D01*
X130433664Y-108289234D01*
X130354336Y-108354336D01*
X130289234Y-108433664D01*
X130240858Y-108524169D01*
X130211067Y-108622375D01*
X130200990Y-108724696D01*
X130199825Y-108726322D01*
X130197835Y-108726126D01*
X130197000Y-108724500D01*
X130197000Y-108668140D01*
X130197010Y-108667944D01*
X130206499Y-108571594D01*
X130206575Y-108571209D01*
X130232888Y-108484469D01*
X130233038Y-108484107D01*
X130275766Y-108404168D01*
X130275984Y-108403842D01*
X130333492Y-108333769D01*
X130333769Y-108333492D01*
X130403842Y-108275984D01*
X130404168Y-108275766D01*
X130484107Y-108233038D01*
X130484469Y-108232888D01*
X130571209Y-108206575D01*
X130571594Y-108206499D01*
X130667944Y-108197010D01*
X130668140Y-108197000D01*
X130724500Y-108197000D01*
X130726232Y-108198000D01*
G37*
G36*
X125726232Y-108198000D02*
G01*
X125726232Y-108200000D01*
X125724696Y-108200990D01*
X125622375Y-108211067D01*
X125524169Y-108240858D01*
X125433664Y-108289234D01*
X125354336Y-108354336D01*
X125289234Y-108433664D01*
X125240858Y-108524169D01*
X125211067Y-108622375D01*
X125200990Y-108724696D01*
X125199825Y-108726322D01*
X125197835Y-108726126D01*
X125197000Y-108724500D01*
X125197000Y-108668140D01*
X125197010Y-108667944D01*
X125206499Y-108571594D01*
X125206575Y-108571209D01*
X125232888Y-108484469D01*
X125233038Y-108484107D01*
X125275766Y-108404168D01*
X125275984Y-108403842D01*
X125333492Y-108333769D01*
X125333769Y-108333492D01*
X125403842Y-108275984D01*
X125404168Y-108275766D01*
X125484107Y-108233038D01*
X125484469Y-108232888D01*
X125571209Y-108206575D01*
X125571594Y-108206499D01*
X125667944Y-108197010D01*
X125668140Y-108197000D01*
X125724500Y-108197000D01*
X125726232Y-108198000D01*
G37*
G36*
X126832056Y-108197010D02*
G01*
X126928406Y-108206499D01*
X126928791Y-108206575D01*
X127015531Y-108232888D01*
X127015893Y-108233038D01*
X127095832Y-108275766D01*
X127096158Y-108275984D01*
X127166231Y-108333492D01*
X127166508Y-108333769D01*
X127224016Y-108403842D01*
X127224234Y-108404168D01*
X127266962Y-108484107D01*
X127267112Y-108484469D01*
X127293425Y-108571209D01*
X127293501Y-108571594D01*
X127302990Y-108667944D01*
X127303000Y-108668140D01*
X127303000Y-108724500D01*
X127302000Y-108726232D01*
X127300000Y-108726232D01*
X127299010Y-108724696D01*
X127288933Y-108622375D01*
X127259142Y-108524169D01*
X127210766Y-108433664D01*
X127145664Y-108354336D01*
X127066336Y-108289234D01*
X126975831Y-108240858D01*
X126877625Y-108211067D01*
X126775304Y-108200990D01*
X126773678Y-108199825D01*
X126773874Y-108197835D01*
X126775500Y-108197000D01*
X126831860Y-108197000D01*
X126832056Y-108197010D01*
G37*
G36*
X131832056Y-108197010D02*
G01*
X131928406Y-108206499D01*
X131928791Y-108206575D01*
X132015531Y-108232888D01*
X132015893Y-108233038D01*
X132095832Y-108275766D01*
X132096158Y-108275984D01*
X132166231Y-108333492D01*
X132166508Y-108333769D01*
X132224016Y-108403842D01*
X132224234Y-108404168D01*
X132266962Y-108484107D01*
X132267112Y-108484469D01*
X132293425Y-108571209D01*
X132293501Y-108571594D01*
X132302990Y-108667944D01*
X132303000Y-108668140D01*
X132303000Y-108724500D01*
X132302000Y-108726232D01*
X132300000Y-108726232D01*
X132299010Y-108724696D01*
X132288933Y-108622375D01*
X132259142Y-108524169D01*
X132210766Y-108433664D01*
X132145664Y-108354336D01*
X132066336Y-108289234D01*
X131975831Y-108240858D01*
X131877625Y-108211067D01*
X131775304Y-108200990D01*
X131773678Y-108199825D01*
X131773874Y-108197835D01*
X131775500Y-108197000D01*
X131831860Y-108197000D01*
X131832056Y-108197010D01*
G37*
G36*
X195834658Y-102572010D02*
G01*
X195867092Y-102575204D01*
X195867477Y-102575280D01*
X195892764Y-102582951D01*
X195893126Y-102583101D01*
X195916429Y-102595557D01*
X195916755Y-102595775D01*
X195937183Y-102612540D01*
X195937460Y-102612817D01*
X195954225Y-102633245D01*
X195954443Y-102633571D01*
X195966898Y-102656873D01*
X195967048Y-102657235D01*
X195970736Y-102669392D01*
X195980001Y-102691756D01*
X195993396Y-102711803D01*
X196010443Y-102728850D01*
X196030491Y-102742244D01*
X196052765Y-102751470D01*
X196076415Y-102756174D01*
X196100521Y-102756174D01*
X196124172Y-102751469D01*
X196146445Y-102742242D01*
X196166492Y-102728847D01*
X196183539Y-102711800D01*
X196193625Y-102696705D01*
X196195419Y-102695820D01*
X196197082Y-102696931D01*
X196197052Y-102698759D01*
X196123248Y-102836838D01*
X196069243Y-103014865D01*
X196051000Y-103200094D01*
X196051000Y-103799906D01*
X196069243Y-103985136D01*
X196123249Y-104163163D01*
X196197055Y-104301246D01*
X196196989Y-104303245D01*
X196195226Y-104304188D01*
X196193628Y-104303300D01*
X196183538Y-104288198D01*
X196166491Y-104271151D01*
X196146443Y-104257756D01*
X196124169Y-104248529D01*
X196100519Y-104243825D01*
X196076413Y-104243825D01*
X196052763Y-104248529D01*
X196030489Y-104257756D01*
X196010442Y-104271150D01*
X195993395Y-104288197D01*
X195980000Y-104308245D01*
X195970736Y-104330609D01*
X195967049Y-104342763D01*
X195966899Y-104343125D01*
X195954443Y-104366429D01*
X195954225Y-104366755D01*
X195937460Y-104387183D01*
X195937183Y-104387460D01*
X195916755Y-104404225D01*
X195916429Y-104404443D01*
X195893126Y-104416899D01*
X195892764Y-104417049D01*
X195867477Y-104424720D01*
X195867092Y-104424796D01*
X195834658Y-104427990D01*
X195834462Y-104428000D01*
X195765600Y-104428000D01*
X195763868Y-104427000D01*
X195763868Y-104425000D01*
X195765404Y-104424010D01*
X195806252Y-104419987D01*
X195845348Y-104408127D01*
X195881376Y-104388870D01*
X195912954Y-104362954D01*
X195938870Y-104331376D01*
X195958127Y-104295348D01*
X195969987Y-104256252D01*
X195974000Y-104215506D01*
X195974000Y-102784494D01*
X195969987Y-102743748D01*
X195958127Y-102704652D01*
X195938870Y-102668624D01*
X195912954Y-102637046D01*
X195881376Y-102611130D01*
X195845348Y-102591873D01*
X195806252Y-102580013D01*
X195765404Y-102575990D01*
X195763778Y-102574825D01*
X195763974Y-102572835D01*
X195765600Y-102572000D01*
X195834462Y-102572000D01*
X195834658Y-102572010D01*
G37*
G36*
X198236132Y-102573000D02*
G01*
X198236132Y-102575000D01*
X198234596Y-102575990D01*
X198193748Y-102580013D01*
X198154652Y-102591873D01*
X198118624Y-102611130D01*
X198087046Y-102637046D01*
X198061130Y-102668624D01*
X198041873Y-102704652D01*
X198030013Y-102743748D01*
X198026000Y-102784494D01*
X198026000Y-104215506D01*
X198030013Y-104256252D01*
X198041873Y-104295348D01*
X198061130Y-104331376D01*
X198087046Y-104362954D01*
X198118624Y-104388870D01*
X198154652Y-104408127D01*
X198193748Y-104419987D01*
X198234596Y-104424010D01*
X198236222Y-104425175D01*
X198236026Y-104427165D01*
X198234400Y-104428000D01*
X198165538Y-104428000D01*
X198165342Y-104427990D01*
X198132908Y-104424796D01*
X198132523Y-104424720D01*
X198107236Y-104417049D01*
X198106874Y-104416899D01*
X198083571Y-104404443D01*
X198083245Y-104404225D01*
X198062817Y-104387460D01*
X198062540Y-104387183D01*
X198045775Y-104366755D01*
X198045557Y-104366429D01*
X198033102Y-104343127D01*
X198032952Y-104342765D01*
X198029264Y-104330608D01*
X198019999Y-104308244D01*
X198006604Y-104288197D01*
X197989557Y-104271150D01*
X197969509Y-104257756D01*
X197947235Y-104248530D01*
X197923585Y-104243826D01*
X197899479Y-104243826D01*
X197875828Y-104248531D01*
X197853555Y-104257758D01*
X197833508Y-104271153D01*
X197816461Y-104288200D01*
X197806375Y-104303295D01*
X197804581Y-104304180D01*
X197802918Y-104303069D01*
X197802948Y-104301241D01*
X197876752Y-104163163D01*
X197930757Y-103985136D01*
X197949000Y-103799905D01*
X197949000Y-103200094D01*
X197930757Y-103014864D01*
X197876752Y-102836837D01*
X197802944Y-102698751D01*
X197803010Y-102696752D01*
X197804773Y-102695809D01*
X197806371Y-102696697D01*
X197816463Y-102711801D01*
X197833510Y-102728848D01*
X197853557Y-102742242D01*
X197875831Y-102751469D01*
X197899481Y-102756173D01*
X197923587Y-102756173D01*
X197947237Y-102751469D01*
X197969511Y-102742242D01*
X197989559Y-102728847D01*
X198006606Y-102711800D01*
X198020000Y-102691753D01*
X198029263Y-102669392D01*
X198032950Y-102657239D01*
X198033100Y-102656877D01*
X198045557Y-102633571D01*
X198045775Y-102633245D01*
X198062540Y-102612817D01*
X198062817Y-102612540D01*
X198083245Y-102595775D01*
X198083571Y-102595557D01*
X198106874Y-102583101D01*
X198107236Y-102582951D01*
X198132523Y-102575280D01*
X198132908Y-102575204D01*
X198165342Y-102572010D01*
X198165538Y-102572000D01*
X198234400Y-102572000D01*
X198236132Y-102573000D01*
G37*
G36*
X195834658Y-97572010D02*
G01*
X195867092Y-97575204D01*
X195867477Y-97575280D01*
X195892764Y-97582951D01*
X195893126Y-97583101D01*
X195916429Y-97595557D01*
X195916755Y-97595775D01*
X195937183Y-97612540D01*
X195937460Y-97612817D01*
X195954225Y-97633245D01*
X195954443Y-97633571D01*
X195966898Y-97656873D01*
X195967048Y-97657235D01*
X195970736Y-97669392D01*
X195980001Y-97691756D01*
X195993396Y-97711803D01*
X196010443Y-97728850D01*
X196030491Y-97742244D01*
X196052765Y-97751470D01*
X196076415Y-97756174D01*
X196100521Y-97756174D01*
X196124172Y-97751469D01*
X196146445Y-97742242D01*
X196166492Y-97728847D01*
X196183539Y-97711800D01*
X196193625Y-97696705D01*
X196195419Y-97695820D01*
X196197082Y-97696931D01*
X196197052Y-97698759D01*
X196123248Y-97836838D01*
X196069243Y-98014865D01*
X196051000Y-98200094D01*
X196051000Y-98799906D01*
X196069243Y-98985136D01*
X196123249Y-99163163D01*
X196197055Y-99301246D01*
X196196989Y-99303245D01*
X196195226Y-99304188D01*
X196193628Y-99303300D01*
X196183538Y-99288198D01*
X196166491Y-99271151D01*
X196146443Y-99257756D01*
X196124169Y-99248529D01*
X196100519Y-99243825D01*
X196076413Y-99243825D01*
X196052763Y-99248529D01*
X196030489Y-99257756D01*
X196010442Y-99271150D01*
X195993395Y-99288197D01*
X195980000Y-99308245D01*
X195970736Y-99330609D01*
X195967049Y-99342763D01*
X195966899Y-99343125D01*
X195954443Y-99366429D01*
X195954225Y-99366755D01*
X195937460Y-99387183D01*
X195937183Y-99387460D01*
X195916755Y-99404225D01*
X195916429Y-99404443D01*
X195893126Y-99416899D01*
X195892764Y-99417049D01*
X195867477Y-99424720D01*
X195867092Y-99424796D01*
X195834658Y-99427990D01*
X195834462Y-99428000D01*
X195765600Y-99428000D01*
X195763868Y-99427000D01*
X195763868Y-99425000D01*
X195765404Y-99424010D01*
X195806252Y-99419987D01*
X195845348Y-99408127D01*
X195881376Y-99388870D01*
X195912954Y-99362954D01*
X195938870Y-99331376D01*
X195958127Y-99295348D01*
X195969987Y-99256252D01*
X195974000Y-99215506D01*
X195974000Y-97784494D01*
X195969987Y-97743748D01*
X195958127Y-97704652D01*
X195938870Y-97668624D01*
X195912954Y-97637046D01*
X195881376Y-97611130D01*
X195845348Y-97591873D01*
X195806252Y-97580013D01*
X195765404Y-97575990D01*
X195763778Y-97574825D01*
X195763974Y-97572835D01*
X195765600Y-97572000D01*
X195834462Y-97572000D01*
X195834658Y-97572010D01*
G37*
G36*
X198236132Y-97573000D02*
G01*
X198236132Y-97575000D01*
X198234596Y-97575990D01*
X198193748Y-97580013D01*
X198154652Y-97591873D01*
X198118624Y-97611130D01*
X198087046Y-97637046D01*
X198061130Y-97668624D01*
X198041873Y-97704652D01*
X198030013Y-97743748D01*
X198026000Y-97784494D01*
X198026000Y-99215506D01*
X198030013Y-99256252D01*
X198041873Y-99295348D01*
X198061130Y-99331376D01*
X198087046Y-99362954D01*
X198118624Y-99388870D01*
X198154652Y-99408127D01*
X198193748Y-99419987D01*
X198234596Y-99424010D01*
X198236222Y-99425175D01*
X198236026Y-99427165D01*
X198234400Y-99428000D01*
X198165538Y-99428000D01*
X198165342Y-99427990D01*
X198132908Y-99424796D01*
X198132523Y-99424720D01*
X198107236Y-99417049D01*
X198106874Y-99416899D01*
X198083571Y-99404443D01*
X198083245Y-99404225D01*
X198062817Y-99387460D01*
X198062540Y-99387183D01*
X198045775Y-99366755D01*
X198045557Y-99366429D01*
X198033102Y-99343127D01*
X198032952Y-99342765D01*
X198029264Y-99330608D01*
X198019999Y-99308244D01*
X198006604Y-99288197D01*
X197989557Y-99271150D01*
X197969509Y-99257756D01*
X197947235Y-99248530D01*
X197923585Y-99243826D01*
X197899479Y-99243826D01*
X197875828Y-99248531D01*
X197853555Y-99257758D01*
X197833508Y-99271153D01*
X197816461Y-99288200D01*
X197806375Y-99303295D01*
X197804581Y-99304180D01*
X197802918Y-99303069D01*
X197802948Y-99301241D01*
X197876752Y-99163163D01*
X197930757Y-98985136D01*
X197949000Y-98799905D01*
X197949000Y-98200094D01*
X197930757Y-98014864D01*
X197876752Y-97836837D01*
X197802944Y-97698751D01*
X197803010Y-97696752D01*
X197804773Y-97695809D01*
X197806371Y-97696697D01*
X197816463Y-97711801D01*
X197833510Y-97728848D01*
X197853557Y-97742242D01*
X197875831Y-97751469D01*
X197899481Y-97756173D01*
X197923587Y-97756173D01*
X197947237Y-97751469D01*
X197969511Y-97742242D01*
X197989559Y-97728847D01*
X198006606Y-97711800D01*
X198020000Y-97691753D01*
X198029263Y-97669392D01*
X198032950Y-97657239D01*
X198033100Y-97656877D01*
X198045557Y-97633571D01*
X198045775Y-97633245D01*
X198062540Y-97612817D01*
X198062817Y-97612540D01*
X198083245Y-97595775D01*
X198083571Y-97595557D01*
X198106874Y-97583101D01*
X198107236Y-97582951D01*
X198132523Y-97575280D01*
X198132908Y-97575204D01*
X198165342Y-97572010D01*
X198165538Y-97572000D01*
X198234400Y-97572000D01*
X198236132Y-97573000D01*
G37*
G36*
X222736132Y-88323000D02*
G01*
X222736132Y-88325000D01*
X222734596Y-88325990D01*
X222693748Y-88330013D01*
X222654652Y-88341873D01*
X222618624Y-88361130D01*
X222587046Y-88387046D01*
X222561130Y-88418624D01*
X222541873Y-88454652D01*
X222530013Y-88493748D01*
X222526000Y-88534494D01*
X222526000Y-89965506D01*
X222530013Y-90006252D01*
X222541873Y-90045348D01*
X222561130Y-90081376D01*
X222587046Y-90112954D01*
X222618624Y-90138870D01*
X222654652Y-90158127D01*
X222693748Y-90169987D01*
X222734596Y-90174010D01*
X222736222Y-90175175D01*
X222736026Y-90177165D01*
X222734400Y-90178000D01*
X222665538Y-90178000D01*
X222665342Y-90177990D01*
X222632908Y-90174796D01*
X222632523Y-90174720D01*
X222607236Y-90167049D01*
X222606874Y-90166899D01*
X222583571Y-90154443D01*
X222583245Y-90154225D01*
X222562817Y-90137460D01*
X222562540Y-90137183D01*
X222545775Y-90116755D01*
X222545557Y-90116429D01*
X222533102Y-90093127D01*
X222532952Y-90092765D01*
X222529264Y-90080608D01*
X222519999Y-90058244D01*
X222506604Y-90038197D01*
X222489557Y-90021150D01*
X222469509Y-90007756D01*
X222447235Y-89998530D01*
X222423585Y-89993826D01*
X222399479Y-89993826D01*
X222375828Y-89998531D01*
X222353555Y-90007758D01*
X222333508Y-90021153D01*
X222316461Y-90038200D01*
X222306375Y-90053295D01*
X222304581Y-90054180D01*
X222302918Y-90053069D01*
X222302948Y-90051241D01*
X222376752Y-89913163D01*
X222430757Y-89735136D01*
X222449000Y-89549905D01*
X222449000Y-88950094D01*
X222430757Y-88764864D01*
X222376752Y-88586837D01*
X222302944Y-88448751D01*
X222303010Y-88446752D01*
X222304773Y-88445809D01*
X222306371Y-88446697D01*
X222316463Y-88461801D01*
X222333510Y-88478848D01*
X222353557Y-88492242D01*
X222375831Y-88501469D01*
X222399481Y-88506173D01*
X222423587Y-88506173D01*
X222447237Y-88501469D01*
X222469511Y-88492242D01*
X222489559Y-88478847D01*
X222506606Y-88461800D01*
X222520000Y-88441753D01*
X222529263Y-88419392D01*
X222532950Y-88407239D01*
X222533100Y-88406877D01*
X222545557Y-88383571D01*
X222545775Y-88383245D01*
X222562540Y-88362817D01*
X222562817Y-88362540D01*
X222583245Y-88345775D01*
X222583571Y-88345557D01*
X222606874Y-88333101D01*
X222607236Y-88332951D01*
X222632523Y-88325280D01*
X222632908Y-88325204D01*
X222665342Y-88322010D01*
X222665538Y-88322000D01*
X222734400Y-88322000D01*
X222736132Y-88323000D01*
G37*
G36*
X220334658Y-88322010D02*
G01*
X220367092Y-88325204D01*
X220367477Y-88325280D01*
X220392764Y-88332951D01*
X220393126Y-88333101D01*
X220416429Y-88345557D01*
X220416755Y-88345775D01*
X220437183Y-88362540D01*
X220437460Y-88362817D01*
X220454225Y-88383245D01*
X220454443Y-88383571D01*
X220466898Y-88406873D01*
X220467048Y-88407235D01*
X220470736Y-88419392D01*
X220480001Y-88441756D01*
X220493396Y-88461803D01*
X220510443Y-88478850D01*
X220530491Y-88492244D01*
X220552765Y-88501470D01*
X220576415Y-88506174D01*
X220600521Y-88506174D01*
X220624172Y-88501469D01*
X220646445Y-88492242D01*
X220666492Y-88478847D01*
X220683539Y-88461800D01*
X220693625Y-88446705D01*
X220695419Y-88445820D01*
X220697082Y-88446931D01*
X220697052Y-88448759D01*
X220623248Y-88586838D01*
X220569243Y-88764865D01*
X220551000Y-88950094D01*
X220551000Y-89549906D01*
X220569243Y-89735136D01*
X220623249Y-89913163D01*
X220697055Y-90051246D01*
X220696989Y-90053245D01*
X220695226Y-90054188D01*
X220693628Y-90053300D01*
X220683538Y-90038198D01*
X220666491Y-90021151D01*
X220646443Y-90007756D01*
X220624169Y-89998529D01*
X220600519Y-89993825D01*
X220576413Y-89993825D01*
X220552763Y-89998529D01*
X220530489Y-90007756D01*
X220510442Y-90021150D01*
X220493395Y-90038197D01*
X220480000Y-90058245D01*
X220470736Y-90080609D01*
X220467049Y-90092763D01*
X220466899Y-90093125D01*
X220454443Y-90116429D01*
X220454225Y-90116755D01*
X220437460Y-90137183D01*
X220437183Y-90137460D01*
X220416755Y-90154225D01*
X220416429Y-90154443D01*
X220393126Y-90166899D01*
X220392764Y-90167049D01*
X220367477Y-90174720D01*
X220367092Y-90174796D01*
X220334658Y-90177990D01*
X220334462Y-90178000D01*
X220265600Y-90178000D01*
X220263868Y-90177000D01*
X220263868Y-90175000D01*
X220265404Y-90174010D01*
X220306252Y-90169987D01*
X220345348Y-90158127D01*
X220381376Y-90138870D01*
X220412954Y-90112954D01*
X220438870Y-90081376D01*
X220458127Y-90045348D01*
X220469987Y-90006252D01*
X220474000Y-89965506D01*
X220474000Y-88534494D01*
X220469987Y-88493748D01*
X220458127Y-88454652D01*
X220438870Y-88418624D01*
X220412954Y-88387046D01*
X220381376Y-88361130D01*
X220345348Y-88341873D01*
X220306252Y-88330013D01*
X220265404Y-88325990D01*
X220263778Y-88324825D01*
X220263974Y-88322835D01*
X220265600Y-88322000D01*
X220334462Y-88322000D01*
X220334658Y-88322010D01*
G37*
G36*
X220334658Y-83322010D02*
G01*
X220367092Y-83325204D01*
X220367477Y-83325280D01*
X220392764Y-83332951D01*
X220393126Y-83333101D01*
X220416429Y-83345557D01*
X220416755Y-83345775D01*
X220437183Y-83362540D01*
X220437460Y-83362817D01*
X220454225Y-83383245D01*
X220454443Y-83383571D01*
X220466898Y-83406873D01*
X220467048Y-83407235D01*
X220470736Y-83419392D01*
X220480001Y-83441756D01*
X220493396Y-83461803D01*
X220510443Y-83478850D01*
X220530491Y-83492244D01*
X220552765Y-83501470D01*
X220576415Y-83506174D01*
X220600521Y-83506174D01*
X220624172Y-83501469D01*
X220646445Y-83492242D01*
X220666492Y-83478847D01*
X220683539Y-83461800D01*
X220693625Y-83446705D01*
X220695419Y-83445820D01*
X220697082Y-83446931D01*
X220697052Y-83448759D01*
X220623248Y-83586838D01*
X220569243Y-83764865D01*
X220551000Y-83950094D01*
X220551000Y-84549906D01*
X220569243Y-84735136D01*
X220623249Y-84913163D01*
X220697055Y-85051246D01*
X220696989Y-85053245D01*
X220695226Y-85054188D01*
X220693628Y-85053300D01*
X220683538Y-85038198D01*
X220666491Y-85021151D01*
X220646443Y-85007756D01*
X220624169Y-84998529D01*
X220600519Y-84993825D01*
X220576413Y-84993825D01*
X220552763Y-84998529D01*
X220530489Y-85007756D01*
X220510442Y-85021150D01*
X220493395Y-85038197D01*
X220480000Y-85058245D01*
X220470736Y-85080609D01*
X220467049Y-85092763D01*
X220466899Y-85093125D01*
X220454443Y-85116429D01*
X220454225Y-85116755D01*
X220437460Y-85137183D01*
X220437183Y-85137460D01*
X220416755Y-85154225D01*
X220416429Y-85154443D01*
X220393126Y-85166899D01*
X220392764Y-85167049D01*
X220367477Y-85174720D01*
X220367092Y-85174796D01*
X220334658Y-85177990D01*
X220334462Y-85178000D01*
X220265600Y-85178000D01*
X220263868Y-85177000D01*
X220263868Y-85175000D01*
X220265404Y-85174010D01*
X220306252Y-85169987D01*
X220345348Y-85158127D01*
X220381376Y-85138870D01*
X220412954Y-85112954D01*
X220438870Y-85081376D01*
X220458127Y-85045348D01*
X220469987Y-85006252D01*
X220474000Y-84965506D01*
X220474000Y-83534494D01*
X220469987Y-83493748D01*
X220458127Y-83454652D01*
X220438870Y-83418624D01*
X220412954Y-83387046D01*
X220381376Y-83361130D01*
X220345348Y-83341873D01*
X220306252Y-83330013D01*
X220265404Y-83325990D01*
X220263778Y-83324825D01*
X220263974Y-83322835D01*
X220265600Y-83322000D01*
X220334462Y-83322000D01*
X220334658Y-83322010D01*
G37*
G36*
X222736132Y-83323000D02*
G01*
X222736132Y-83325000D01*
X222734596Y-83325990D01*
X222693748Y-83330013D01*
X222654652Y-83341873D01*
X222618624Y-83361130D01*
X222587046Y-83387046D01*
X222561130Y-83418624D01*
X222541873Y-83454652D01*
X222530013Y-83493748D01*
X222526000Y-83534494D01*
X222526000Y-84965506D01*
X222530013Y-85006252D01*
X222541873Y-85045348D01*
X222561130Y-85081376D01*
X222587046Y-85112954D01*
X222618624Y-85138870D01*
X222654652Y-85158127D01*
X222693748Y-85169987D01*
X222734596Y-85174010D01*
X222736222Y-85175175D01*
X222736026Y-85177165D01*
X222734400Y-85178000D01*
X222665538Y-85178000D01*
X222665342Y-85177990D01*
X222632908Y-85174796D01*
X222632523Y-85174720D01*
X222607236Y-85167049D01*
X222606874Y-85166899D01*
X222583571Y-85154443D01*
X222583245Y-85154225D01*
X222562817Y-85137460D01*
X222562540Y-85137183D01*
X222545775Y-85116755D01*
X222545557Y-85116429D01*
X222533102Y-85093127D01*
X222532952Y-85092765D01*
X222529264Y-85080608D01*
X222519999Y-85058244D01*
X222506604Y-85038197D01*
X222489557Y-85021150D01*
X222469509Y-85007756D01*
X222447235Y-84998530D01*
X222423585Y-84993826D01*
X222399479Y-84993826D01*
X222375828Y-84998531D01*
X222353555Y-85007758D01*
X222333508Y-85021153D01*
X222316461Y-85038200D01*
X222306375Y-85053295D01*
X222304581Y-85054180D01*
X222302918Y-85053069D01*
X222302948Y-85051241D01*
X222376752Y-84913163D01*
X222430757Y-84735136D01*
X222449000Y-84549905D01*
X222449000Y-83950094D01*
X222430757Y-83764864D01*
X222376752Y-83586837D01*
X222302944Y-83448751D01*
X222303010Y-83446752D01*
X222304773Y-83445809D01*
X222306371Y-83446697D01*
X222316463Y-83461801D01*
X222333510Y-83478848D01*
X222353557Y-83492242D01*
X222375831Y-83501469D01*
X222399481Y-83506173D01*
X222423587Y-83506173D01*
X222447237Y-83501469D01*
X222469511Y-83492242D01*
X222489559Y-83478847D01*
X222506606Y-83461800D01*
X222520000Y-83441753D01*
X222529263Y-83419392D01*
X222532950Y-83407239D01*
X222533100Y-83406877D01*
X222545557Y-83383571D01*
X222545775Y-83383245D01*
X222562540Y-83362817D01*
X222562817Y-83362540D01*
X222583245Y-83345775D01*
X222583571Y-83345557D01*
X222606874Y-83333101D01*
X222607236Y-83332951D01*
X222632523Y-83325280D01*
X222632908Y-83325204D01*
X222665342Y-83322010D01*
X222665538Y-83322000D01*
X222734400Y-83322000D01*
X222736132Y-83323000D01*
G37*
G36*
X193365195Y-79197236D02*
G01*
X193378933Y-79204579D01*
X193402008Y-79211579D01*
X193425999Y-79213942D01*
X193449990Y-79211579D01*
X193473253Y-79204522D01*
X193475201Y-79204976D01*
X193475782Y-79206890D01*
X193474777Y-79208200D01*
X193472782Y-79209266D01*
X193465359Y-79215359D01*
X193459266Y-79222782D01*
X193454739Y-79231252D01*
X193451950Y-79240445D01*
X193451000Y-79250094D01*
X193451000Y-80749906D01*
X193451950Y-80759555D01*
X193454739Y-80768748D01*
X193459266Y-80777218D01*
X193465359Y-80784641D01*
X193472782Y-80790734D01*
X193478707Y-80793900D01*
X193479763Y-80795598D01*
X193478820Y-80797362D01*
X193477184Y-80797578D01*
X193475567Y-80797088D01*
X193475382Y-80797022D01*
X193461703Y-80791356D01*
X193438053Y-80786651D01*
X193413946Y-80786651D01*
X193390296Y-80791355D01*
X193368022Y-80800581D01*
X193364906Y-80802663D01*
X193363795Y-80803000D01*
X193301000Y-80803000D01*
X193299268Y-80802000D01*
X193299000Y-80801000D01*
X193299000Y-79199000D01*
X193300000Y-79197268D01*
X193301000Y-79197000D01*
X193364252Y-79197000D01*
X193365195Y-79197236D01*
G37*
G36*
X192200732Y-79198000D02*
G01*
X192201000Y-79199000D01*
X192201000Y-80801000D01*
X192200000Y-80802732D01*
X192199000Y-80803000D01*
X192135748Y-80803000D01*
X192134805Y-80802764D01*
X192121067Y-80795421D01*
X192097992Y-80788421D01*
X192074001Y-80786058D01*
X192050010Y-80788421D01*
X192026746Y-80795478D01*
X192024798Y-80795024D01*
X192024217Y-80793110D01*
X192025222Y-80791800D01*
X192027218Y-80790733D01*
X192034641Y-80784641D01*
X192040734Y-80777218D01*
X192045261Y-80768748D01*
X192048050Y-80759555D01*
X192049000Y-80749906D01*
X192049000Y-79250094D01*
X192048050Y-79240445D01*
X192045261Y-79231252D01*
X192040734Y-79222782D01*
X192034641Y-79215359D01*
X192027218Y-79209266D01*
X192021293Y-79206100D01*
X192020237Y-79204402D01*
X192021180Y-79202638D01*
X192022816Y-79202422D01*
X192024433Y-79202912D01*
X192024618Y-79202978D01*
X192038297Y-79208644D01*
X192061947Y-79213349D01*
X192086054Y-79213349D01*
X192109704Y-79208645D01*
X192131978Y-79199419D01*
X192135094Y-79197337D01*
X192136205Y-79197000D01*
X192199000Y-79197000D01*
X192200732Y-79198000D01*
G37*
G36*
X222736132Y-78323000D02*
G01*
X222736132Y-78325000D01*
X222734596Y-78325990D01*
X222693748Y-78330013D01*
X222654652Y-78341873D01*
X222618624Y-78361130D01*
X222587046Y-78387046D01*
X222561130Y-78418624D01*
X222541873Y-78454652D01*
X222530013Y-78493748D01*
X222526000Y-78534494D01*
X222526000Y-79965506D01*
X222530013Y-80006252D01*
X222541873Y-80045348D01*
X222561130Y-80081376D01*
X222587046Y-80112954D01*
X222618624Y-80138870D01*
X222654652Y-80158127D01*
X222693748Y-80169987D01*
X222734596Y-80174010D01*
X222736222Y-80175175D01*
X222736026Y-80177165D01*
X222734400Y-80178000D01*
X222665538Y-80178000D01*
X222665342Y-80177990D01*
X222632908Y-80174796D01*
X222632523Y-80174720D01*
X222607236Y-80167049D01*
X222606874Y-80166899D01*
X222583571Y-80154443D01*
X222583245Y-80154225D01*
X222562817Y-80137460D01*
X222562540Y-80137183D01*
X222545775Y-80116755D01*
X222545557Y-80116429D01*
X222533102Y-80093127D01*
X222532952Y-80092765D01*
X222529264Y-80080608D01*
X222519999Y-80058244D01*
X222506604Y-80038197D01*
X222489557Y-80021150D01*
X222469509Y-80007756D01*
X222447235Y-79998530D01*
X222423585Y-79993826D01*
X222399479Y-79993826D01*
X222375828Y-79998531D01*
X222353555Y-80007758D01*
X222333508Y-80021153D01*
X222316461Y-80038200D01*
X222306375Y-80053295D01*
X222304581Y-80054180D01*
X222302918Y-80053069D01*
X222302948Y-80051241D01*
X222376752Y-79913163D01*
X222430757Y-79735136D01*
X222449000Y-79549905D01*
X222449000Y-78950094D01*
X222430757Y-78764864D01*
X222376752Y-78586837D01*
X222302944Y-78448751D01*
X222303010Y-78446752D01*
X222304773Y-78445809D01*
X222306371Y-78446697D01*
X222316463Y-78461801D01*
X222333510Y-78478848D01*
X222353557Y-78492242D01*
X222375831Y-78501469D01*
X222399481Y-78506173D01*
X222423587Y-78506173D01*
X222447237Y-78501469D01*
X222469511Y-78492242D01*
X222489559Y-78478847D01*
X222506606Y-78461800D01*
X222520000Y-78441753D01*
X222529263Y-78419392D01*
X222532950Y-78407239D01*
X222533100Y-78406877D01*
X222545557Y-78383571D01*
X222545775Y-78383245D01*
X222562540Y-78362817D01*
X222562817Y-78362540D01*
X222583245Y-78345775D01*
X222583571Y-78345557D01*
X222606874Y-78333101D01*
X222607236Y-78332951D01*
X222632523Y-78325280D01*
X222632908Y-78325204D01*
X222665342Y-78322010D01*
X222665538Y-78322000D01*
X222734400Y-78322000D01*
X222736132Y-78323000D01*
G37*
G36*
X220334658Y-78322010D02*
G01*
X220367092Y-78325204D01*
X220367477Y-78325280D01*
X220392764Y-78332951D01*
X220393126Y-78333101D01*
X220416429Y-78345557D01*
X220416755Y-78345775D01*
X220437183Y-78362540D01*
X220437460Y-78362817D01*
X220454225Y-78383245D01*
X220454443Y-78383571D01*
X220466898Y-78406873D01*
X220467048Y-78407235D01*
X220470736Y-78419392D01*
X220480001Y-78441756D01*
X220493396Y-78461803D01*
X220510443Y-78478850D01*
X220530491Y-78492244D01*
X220552765Y-78501470D01*
X220576415Y-78506174D01*
X220600521Y-78506174D01*
X220624172Y-78501469D01*
X220646445Y-78492242D01*
X220666492Y-78478847D01*
X220683539Y-78461800D01*
X220693625Y-78446705D01*
X220695419Y-78445820D01*
X220697082Y-78446931D01*
X220697052Y-78448759D01*
X220623248Y-78586838D01*
X220569243Y-78764865D01*
X220551000Y-78950094D01*
X220551000Y-79549906D01*
X220569243Y-79735136D01*
X220623249Y-79913163D01*
X220697055Y-80051246D01*
X220696989Y-80053245D01*
X220695226Y-80054188D01*
X220693628Y-80053300D01*
X220683538Y-80038198D01*
X220666491Y-80021151D01*
X220646443Y-80007756D01*
X220624169Y-79998529D01*
X220600519Y-79993825D01*
X220576413Y-79993825D01*
X220552763Y-79998529D01*
X220530489Y-80007756D01*
X220510442Y-80021150D01*
X220493395Y-80038197D01*
X220480000Y-80058245D01*
X220470736Y-80080609D01*
X220467049Y-80092763D01*
X220466899Y-80093125D01*
X220454443Y-80116429D01*
X220454225Y-80116755D01*
X220437460Y-80137183D01*
X220437183Y-80137460D01*
X220416755Y-80154225D01*
X220416429Y-80154443D01*
X220393126Y-80166899D01*
X220392764Y-80167049D01*
X220367477Y-80174720D01*
X220367092Y-80174796D01*
X220334658Y-80177990D01*
X220334462Y-80178000D01*
X220265600Y-80178000D01*
X220263868Y-80177000D01*
X220263868Y-80175000D01*
X220265404Y-80174010D01*
X220306252Y-80169987D01*
X220345348Y-80158127D01*
X220381376Y-80138870D01*
X220412954Y-80112954D01*
X220438870Y-80081376D01*
X220458127Y-80045348D01*
X220469987Y-80006252D01*
X220474000Y-79965506D01*
X220474000Y-78534494D01*
X220469987Y-78493748D01*
X220458127Y-78454652D01*
X220438870Y-78418624D01*
X220412954Y-78387046D01*
X220381376Y-78361130D01*
X220345348Y-78341873D01*
X220306252Y-78330013D01*
X220265404Y-78325990D01*
X220263778Y-78324825D01*
X220263974Y-78322835D01*
X220265600Y-78322000D01*
X220334462Y-78322000D01*
X220334658Y-78322010D01*
G37*
G36*
X192200732Y-76198000D02*
G01*
X192201000Y-76199000D01*
X192201000Y-77801000D01*
X192200000Y-77802732D01*
X192199000Y-77803000D01*
X192135748Y-77803000D01*
X192134805Y-77802764D01*
X192121067Y-77795421D01*
X192097992Y-77788421D01*
X192074001Y-77786058D01*
X192050010Y-77788421D01*
X192026746Y-77795478D01*
X192024798Y-77795024D01*
X192024217Y-77793110D01*
X192025222Y-77791800D01*
X192027218Y-77790733D01*
X192034641Y-77784641D01*
X192040734Y-77777218D01*
X192045261Y-77768748D01*
X192048050Y-77759555D01*
X192049000Y-77749906D01*
X192049000Y-76250094D01*
X192048050Y-76240445D01*
X192045261Y-76231252D01*
X192040734Y-76222782D01*
X192034641Y-76215359D01*
X192027218Y-76209266D01*
X192021293Y-76206100D01*
X192020237Y-76204402D01*
X192021180Y-76202638D01*
X192022816Y-76202422D01*
X192024433Y-76202912D01*
X192024618Y-76202978D01*
X192038297Y-76208644D01*
X192061947Y-76213349D01*
X192086054Y-76213349D01*
X192109704Y-76208645D01*
X192131978Y-76199419D01*
X192135094Y-76197337D01*
X192136205Y-76197000D01*
X192199000Y-76197000D01*
X192200732Y-76198000D01*
G37*
G36*
X193365195Y-76197236D02*
G01*
X193378933Y-76204579D01*
X193402008Y-76211579D01*
X193425999Y-76213942D01*
X193449990Y-76211579D01*
X193473253Y-76204522D01*
X193475201Y-76204976D01*
X193475782Y-76206890D01*
X193474777Y-76208200D01*
X193472782Y-76209266D01*
X193465359Y-76215359D01*
X193459266Y-76222782D01*
X193454739Y-76231252D01*
X193451950Y-76240445D01*
X193451000Y-76250094D01*
X193451000Y-77749906D01*
X193451950Y-77759555D01*
X193454739Y-77768748D01*
X193459266Y-77777218D01*
X193465359Y-77784641D01*
X193472782Y-77790734D01*
X193478707Y-77793900D01*
X193479763Y-77795598D01*
X193478820Y-77797362D01*
X193477184Y-77797578D01*
X193475567Y-77797088D01*
X193475382Y-77797022D01*
X193461703Y-77791356D01*
X193438053Y-77786651D01*
X193413946Y-77786651D01*
X193390296Y-77791355D01*
X193368022Y-77800581D01*
X193364906Y-77802663D01*
X193363795Y-77803000D01*
X193301000Y-77803000D01*
X193299268Y-77802000D01*
X193299000Y-77801000D01*
X193299000Y-76199000D01*
X193300000Y-76197268D01*
X193301000Y-76197000D01*
X193364252Y-76197000D01*
X193365195Y-76197236D01*
G37*
G36*
X220334658Y-73322010D02*
G01*
X220367092Y-73325204D01*
X220367477Y-73325280D01*
X220392764Y-73332951D01*
X220393126Y-73333101D01*
X220416429Y-73345557D01*
X220416755Y-73345775D01*
X220437183Y-73362540D01*
X220437460Y-73362817D01*
X220454225Y-73383245D01*
X220454443Y-73383571D01*
X220466898Y-73406873D01*
X220467048Y-73407235D01*
X220470736Y-73419392D01*
X220480001Y-73441756D01*
X220493396Y-73461803D01*
X220510443Y-73478850D01*
X220530491Y-73492244D01*
X220552765Y-73501470D01*
X220576415Y-73506174D01*
X220600521Y-73506174D01*
X220624172Y-73501469D01*
X220646445Y-73492242D01*
X220666492Y-73478847D01*
X220683539Y-73461800D01*
X220693625Y-73446705D01*
X220695419Y-73445820D01*
X220697082Y-73446931D01*
X220697052Y-73448759D01*
X220623248Y-73586838D01*
X220569243Y-73764865D01*
X220551000Y-73950094D01*
X220551000Y-74549906D01*
X220569243Y-74735136D01*
X220623249Y-74913163D01*
X220697055Y-75051246D01*
X220696989Y-75053245D01*
X220695226Y-75054188D01*
X220693628Y-75053300D01*
X220683538Y-75038198D01*
X220666491Y-75021151D01*
X220646443Y-75007756D01*
X220624169Y-74998529D01*
X220600519Y-74993825D01*
X220576413Y-74993825D01*
X220552763Y-74998529D01*
X220530489Y-75007756D01*
X220510442Y-75021150D01*
X220493395Y-75038197D01*
X220480000Y-75058245D01*
X220470736Y-75080609D01*
X220467049Y-75092763D01*
X220466899Y-75093125D01*
X220454443Y-75116429D01*
X220454225Y-75116755D01*
X220437460Y-75137183D01*
X220437183Y-75137460D01*
X220416755Y-75154225D01*
X220416429Y-75154443D01*
X220393126Y-75166899D01*
X220392764Y-75167049D01*
X220367477Y-75174720D01*
X220367092Y-75174796D01*
X220334658Y-75177990D01*
X220334462Y-75178000D01*
X220265600Y-75178000D01*
X220263868Y-75177000D01*
X220263868Y-75175000D01*
X220265404Y-75174010D01*
X220306252Y-75169987D01*
X220345348Y-75158127D01*
X220381376Y-75138870D01*
X220412954Y-75112954D01*
X220438870Y-75081376D01*
X220458127Y-75045348D01*
X220469987Y-75006252D01*
X220474000Y-74965506D01*
X220474000Y-73534494D01*
X220469987Y-73493748D01*
X220458127Y-73454652D01*
X220438870Y-73418624D01*
X220412954Y-73387046D01*
X220381376Y-73361130D01*
X220345348Y-73341873D01*
X220306252Y-73330013D01*
X220265404Y-73325990D01*
X220263778Y-73324825D01*
X220263974Y-73322835D01*
X220265600Y-73322000D01*
X220334462Y-73322000D01*
X220334658Y-73322010D01*
G37*
G36*
X222736132Y-73323000D02*
G01*
X222736132Y-73325000D01*
X222734596Y-73325990D01*
X222693748Y-73330013D01*
X222654652Y-73341873D01*
X222618624Y-73361130D01*
X222587046Y-73387046D01*
X222561130Y-73418624D01*
X222541873Y-73454652D01*
X222530013Y-73493748D01*
X222526000Y-73534494D01*
X222526000Y-74965506D01*
X222530013Y-75006252D01*
X222541873Y-75045348D01*
X222561130Y-75081376D01*
X222587046Y-75112954D01*
X222618624Y-75138870D01*
X222654652Y-75158127D01*
X222693748Y-75169987D01*
X222734596Y-75174010D01*
X222736222Y-75175175D01*
X222736026Y-75177165D01*
X222734400Y-75178000D01*
X222665538Y-75178000D01*
X222665342Y-75177990D01*
X222632908Y-75174796D01*
X222632523Y-75174720D01*
X222607236Y-75167049D01*
X222606874Y-75166899D01*
X222583571Y-75154443D01*
X222583245Y-75154225D01*
X222562817Y-75137460D01*
X222562540Y-75137183D01*
X222545775Y-75116755D01*
X222545557Y-75116429D01*
X222533102Y-75093127D01*
X222532952Y-75092765D01*
X222529264Y-75080608D01*
X222519999Y-75058244D01*
X222506604Y-75038197D01*
X222489557Y-75021150D01*
X222469509Y-75007756D01*
X222447235Y-74998530D01*
X222423585Y-74993826D01*
X222399479Y-74993826D01*
X222375828Y-74998531D01*
X222353555Y-75007758D01*
X222333508Y-75021153D01*
X222316461Y-75038200D01*
X222306375Y-75053295D01*
X222304581Y-75054180D01*
X222302918Y-75053069D01*
X222302948Y-75051241D01*
X222376752Y-74913163D01*
X222430757Y-74735136D01*
X222449000Y-74549905D01*
X222449000Y-73950094D01*
X222430757Y-73764864D01*
X222376752Y-73586837D01*
X222302944Y-73448751D01*
X222303010Y-73446752D01*
X222304773Y-73445809D01*
X222306371Y-73446697D01*
X222316463Y-73461801D01*
X222333510Y-73478848D01*
X222353557Y-73492242D01*
X222375831Y-73501469D01*
X222399481Y-73506173D01*
X222423587Y-73506173D01*
X222447237Y-73501469D01*
X222469511Y-73492242D01*
X222489559Y-73478847D01*
X222506606Y-73461800D01*
X222520000Y-73441753D01*
X222529263Y-73419392D01*
X222532950Y-73407239D01*
X222533100Y-73406877D01*
X222545557Y-73383571D01*
X222545775Y-73383245D01*
X222562540Y-73362817D01*
X222562817Y-73362540D01*
X222583245Y-73345775D01*
X222583571Y-73345557D01*
X222606874Y-73333101D01*
X222607236Y-73332951D01*
X222632523Y-73325280D01*
X222632908Y-73325204D01*
X222665342Y-73322010D01*
X222665538Y-73322000D01*
X222734400Y-73322000D01*
X222736132Y-73323000D01*
G37*
G36*
X192200732Y-73198000D02*
G01*
X192201000Y-73199000D01*
X192201000Y-74801000D01*
X192200000Y-74802732D01*
X192199000Y-74803000D01*
X192135748Y-74803000D01*
X192134805Y-74802764D01*
X192121067Y-74795421D01*
X192097992Y-74788421D01*
X192074001Y-74786058D01*
X192050010Y-74788421D01*
X192026746Y-74795478D01*
X192024798Y-74795024D01*
X192024217Y-74793110D01*
X192025222Y-74791800D01*
X192027218Y-74790733D01*
X192034641Y-74784641D01*
X192040734Y-74777218D01*
X192045261Y-74768748D01*
X192048050Y-74759555D01*
X192049000Y-74749906D01*
X192049000Y-73250094D01*
X192048050Y-73240445D01*
X192045261Y-73231252D01*
X192040734Y-73222782D01*
X192034641Y-73215359D01*
X192027218Y-73209266D01*
X192021293Y-73206100D01*
X192020237Y-73204402D01*
X192021180Y-73202638D01*
X192022816Y-73202422D01*
X192024433Y-73202912D01*
X192024618Y-73202978D01*
X192038297Y-73208644D01*
X192061947Y-73213349D01*
X192086054Y-73213349D01*
X192109704Y-73208645D01*
X192131978Y-73199419D01*
X192135094Y-73197337D01*
X192136205Y-73197000D01*
X192199000Y-73197000D01*
X192200732Y-73198000D01*
G37*
G36*
X193365195Y-73197236D02*
G01*
X193378933Y-73204579D01*
X193402008Y-73211579D01*
X193425999Y-73213942D01*
X193449990Y-73211579D01*
X193473253Y-73204522D01*
X193475201Y-73204976D01*
X193475782Y-73206890D01*
X193474777Y-73208200D01*
X193472782Y-73209266D01*
X193465359Y-73215359D01*
X193459266Y-73222782D01*
X193454739Y-73231252D01*
X193451950Y-73240445D01*
X193451000Y-73250094D01*
X193451000Y-74749906D01*
X193451950Y-74759555D01*
X193454739Y-74768748D01*
X193459266Y-74777218D01*
X193465359Y-74784641D01*
X193472782Y-74790734D01*
X193478707Y-74793900D01*
X193479763Y-74795598D01*
X193478820Y-74797362D01*
X193477184Y-74797578D01*
X193475567Y-74797088D01*
X193475382Y-74797022D01*
X193461703Y-74791356D01*
X193438053Y-74786651D01*
X193413946Y-74786651D01*
X193390296Y-74791355D01*
X193368022Y-74800581D01*
X193364906Y-74802663D01*
X193363795Y-74803000D01*
X193301000Y-74803000D01*
X193299268Y-74802000D01*
X193299000Y-74801000D01*
X193299000Y-73199000D01*
X193300000Y-73197268D01*
X193301000Y-73197000D01*
X193364252Y-73197000D01*
X193365195Y-73197236D01*
G37*
G36*
X192200732Y-70198000D02*
G01*
X192201000Y-70199000D01*
X192201000Y-71801000D01*
X192200000Y-71802732D01*
X192199000Y-71803000D01*
X192135748Y-71803000D01*
X192134805Y-71802764D01*
X192121067Y-71795421D01*
X192097992Y-71788421D01*
X192074001Y-71786058D01*
X192050010Y-71788421D01*
X192026746Y-71795478D01*
X192024798Y-71795024D01*
X192024217Y-71793110D01*
X192025222Y-71791800D01*
X192027218Y-71790733D01*
X192034641Y-71784641D01*
X192040734Y-71777218D01*
X192045261Y-71768748D01*
X192048050Y-71759555D01*
X192049000Y-71749906D01*
X192049000Y-70250094D01*
X192048050Y-70240445D01*
X192045261Y-70231252D01*
X192040734Y-70222782D01*
X192034641Y-70215359D01*
X192027218Y-70209266D01*
X192021293Y-70206100D01*
X192020237Y-70204402D01*
X192021180Y-70202638D01*
X192022816Y-70202422D01*
X192024433Y-70202912D01*
X192024618Y-70202978D01*
X192038297Y-70208644D01*
X192061947Y-70213349D01*
X192086054Y-70213349D01*
X192109704Y-70208645D01*
X192131978Y-70199419D01*
X192135094Y-70197337D01*
X192136205Y-70197000D01*
X192199000Y-70197000D01*
X192200732Y-70198000D01*
G37*
G36*
X193365195Y-70197236D02*
G01*
X193378933Y-70204579D01*
X193402008Y-70211579D01*
X193425999Y-70213942D01*
X193449990Y-70211579D01*
X193473253Y-70204522D01*
X193475201Y-70204976D01*
X193475782Y-70206890D01*
X193474777Y-70208200D01*
X193472782Y-70209266D01*
X193465359Y-70215359D01*
X193459266Y-70222782D01*
X193454739Y-70231252D01*
X193451950Y-70240445D01*
X193451000Y-70250094D01*
X193451000Y-71749906D01*
X193451950Y-71759555D01*
X193454739Y-71768748D01*
X193459266Y-71777218D01*
X193465359Y-71784641D01*
X193472782Y-71790734D01*
X193478707Y-71793900D01*
X193479763Y-71795598D01*
X193478820Y-71797362D01*
X193477184Y-71797578D01*
X193475567Y-71797088D01*
X193475382Y-71797022D01*
X193461703Y-71791356D01*
X193438053Y-71786651D01*
X193413946Y-71786651D01*
X193390296Y-71791355D01*
X193368022Y-71800581D01*
X193364906Y-71802663D01*
X193363795Y-71803000D01*
X193301000Y-71803000D01*
X193299268Y-71802000D01*
X193299000Y-71801000D01*
X193299000Y-70199000D01*
X193300000Y-70197268D01*
X193301000Y-70197000D01*
X193364252Y-70197000D01*
X193365195Y-70197236D01*
G37*
G36*
X220334658Y-68322010D02*
G01*
X220367092Y-68325204D01*
X220367477Y-68325280D01*
X220392764Y-68332951D01*
X220393126Y-68333101D01*
X220416429Y-68345557D01*
X220416755Y-68345775D01*
X220437183Y-68362540D01*
X220437460Y-68362817D01*
X220454225Y-68383245D01*
X220454443Y-68383571D01*
X220466898Y-68406873D01*
X220467048Y-68407235D01*
X220470736Y-68419392D01*
X220480001Y-68441756D01*
X220493396Y-68461803D01*
X220510443Y-68478850D01*
X220530491Y-68492244D01*
X220552765Y-68501470D01*
X220576415Y-68506174D01*
X220600521Y-68506174D01*
X220624172Y-68501469D01*
X220646445Y-68492242D01*
X220666492Y-68478847D01*
X220683539Y-68461800D01*
X220693625Y-68446705D01*
X220695419Y-68445820D01*
X220697082Y-68446931D01*
X220697052Y-68448759D01*
X220623248Y-68586838D01*
X220569243Y-68764865D01*
X220551000Y-68950094D01*
X220551000Y-69549906D01*
X220569243Y-69735136D01*
X220623249Y-69913163D01*
X220697055Y-70051246D01*
X220696989Y-70053245D01*
X220695226Y-70054188D01*
X220693628Y-70053300D01*
X220683538Y-70038198D01*
X220666491Y-70021151D01*
X220646443Y-70007756D01*
X220624169Y-69998529D01*
X220600519Y-69993825D01*
X220576413Y-69993825D01*
X220552763Y-69998529D01*
X220530489Y-70007756D01*
X220510442Y-70021150D01*
X220493395Y-70038197D01*
X220480000Y-70058245D01*
X220470736Y-70080609D01*
X220467049Y-70092763D01*
X220466899Y-70093125D01*
X220454443Y-70116429D01*
X220454225Y-70116755D01*
X220437460Y-70137183D01*
X220437183Y-70137460D01*
X220416755Y-70154225D01*
X220416429Y-70154443D01*
X220393126Y-70166899D01*
X220392764Y-70167049D01*
X220367477Y-70174720D01*
X220367092Y-70174796D01*
X220334658Y-70177990D01*
X220334462Y-70178000D01*
X220265600Y-70178000D01*
X220263868Y-70177000D01*
X220263868Y-70175000D01*
X220265404Y-70174010D01*
X220306252Y-70169987D01*
X220345348Y-70158127D01*
X220381376Y-70138870D01*
X220412954Y-70112954D01*
X220438870Y-70081376D01*
X220458127Y-70045348D01*
X220469987Y-70006252D01*
X220474000Y-69965506D01*
X220474000Y-68534494D01*
X220469987Y-68493748D01*
X220458127Y-68454652D01*
X220438870Y-68418624D01*
X220412954Y-68387046D01*
X220381376Y-68361130D01*
X220345348Y-68341873D01*
X220306252Y-68330013D01*
X220265404Y-68325990D01*
X220263778Y-68324825D01*
X220263974Y-68322835D01*
X220265600Y-68322000D01*
X220334462Y-68322000D01*
X220334658Y-68322010D01*
G37*
G36*
X222736132Y-68323000D02*
G01*
X222736132Y-68325000D01*
X222734596Y-68325990D01*
X222693748Y-68330013D01*
X222654652Y-68341873D01*
X222618624Y-68361130D01*
X222587046Y-68387046D01*
X222561130Y-68418624D01*
X222541873Y-68454652D01*
X222530013Y-68493748D01*
X222526000Y-68534494D01*
X222526000Y-69965506D01*
X222530013Y-70006252D01*
X222541873Y-70045348D01*
X222561130Y-70081376D01*
X222587046Y-70112954D01*
X222618624Y-70138870D01*
X222654652Y-70158127D01*
X222693748Y-70169987D01*
X222734596Y-70174010D01*
X222736222Y-70175175D01*
X222736026Y-70177165D01*
X222734400Y-70178000D01*
X222665538Y-70178000D01*
X222665342Y-70177990D01*
X222632908Y-70174796D01*
X222632523Y-70174720D01*
X222607236Y-70167049D01*
X222606874Y-70166899D01*
X222583571Y-70154443D01*
X222583245Y-70154225D01*
X222562817Y-70137460D01*
X222562540Y-70137183D01*
X222545775Y-70116755D01*
X222545557Y-70116429D01*
X222533102Y-70093127D01*
X222532952Y-70092765D01*
X222529264Y-70080608D01*
X222519999Y-70058244D01*
X222506604Y-70038197D01*
X222489557Y-70021150D01*
X222469509Y-70007756D01*
X222447235Y-69998530D01*
X222423585Y-69993826D01*
X222399479Y-69993826D01*
X222375828Y-69998531D01*
X222353555Y-70007758D01*
X222333508Y-70021153D01*
X222316461Y-70038200D01*
X222306375Y-70053295D01*
X222304581Y-70054180D01*
X222302918Y-70053069D01*
X222302948Y-70051241D01*
X222376752Y-69913163D01*
X222430757Y-69735136D01*
X222449000Y-69549905D01*
X222449000Y-68950094D01*
X222430757Y-68764864D01*
X222376752Y-68586837D01*
X222302944Y-68448751D01*
X222303010Y-68446752D01*
X222304773Y-68445809D01*
X222306371Y-68446697D01*
X222316463Y-68461801D01*
X222333510Y-68478848D01*
X222353557Y-68492242D01*
X222375831Y-68501469D01*
X222399481Y-68506173D01*
X222423587Y-68506173D01*
X222447237Y-68501469D01*
X222469511Y-68492242D01*
X222489559Y-68478847D01*
X222506606Y-68461800D01*
X222520000Y-68441753D01*
X222529263Y-68419392D01*
X222532950Y-68407239D01*
X222533100Y-68406877D01*
X222545557Y-68383571D01*
X222545775Y-68383245D01*
X222562540Y-68362817D01*
X222562817Y-68362540D01*
X222583245Y-68345775D01*
X222583571Y-68345557D01*
X222606874Y-68333101D01*
X222607236Y-68332951D01*
X222632523Y-68325280D01*
X222632908Y-68325204D01*
X222665342Y-68322010D01*
X222665538Y-68322000D01*
X222734400Y-68322000D01*
X222736132Y-68323000D01*
G37*
G36*
X146335405Y-64473117D02*
G01*
X146336334Y-64474249D01*
X146336451Y-64474407D01*
X146344929Y-64487096D01*
X146361976Y-64504143D01*
X146382024Y-64517538D01*
X146404298Y-64526764D01*
X146427948Y-64531468D01*
X146452054Y-64531468D01*
X146475704Y-64526763D01*
X146497978Y-64517537D01*
X146518025Y-64504142D01*
X146535072Y-64487095D01*
X146543550Y-64474407D01*
X146543667Y-64474249D01*
X146544593Y-64473121D01*
X146546465Y-64472417D01*
X146548011Y-64473686D01*
X146547903Y-64475333D01*
X146544739Y-64481252D01*
X146541950Y-64490445D01*
X146541000Y-64500094D01*
X146541000Y-65999906D01*
X146541950Y-66009555D01*
X146544739Y-66018748D01*
X146547905Y-66024671D01*
X146547839Y-66026670D01*
X146546076Y-66027613D01*
X146544595Y-66026883D01*
X146543666Y-66025751D01*
X146543549Y-66025593D01*
X146535071Y-66012904D01*
X146518024Y-65995857D01*
X146497976Y-65982462D01*
X146475702Y-65973236D01*
X146452052Y-65968532D01*
X146427946Y-65968532D01*
X146404296Y-65973237D01*
X146382022Y-65982463D01*
X146361975Y-65995858D01*
X146344928Y-66012905D01*
X146336450Y-66025593D01*
X146336333Y-66025751D01*
X146335407Y-66026879D01*
X146333535Y-66027583D01*
X146331989Y-66026314D01*
X146332097Y-66024667D01*
X146335261Y-66018748D01*
X146338050Y-66009555D01*
X146339000Y-65999906D01*
X146339000Y-64500094D01*
X146338050Y-64490445D01*
X146335261Y-64481252D01*
X146332095Y-64475329D01*
X146332161Y-64473330D01*
X146333924Y-64472387D01*
X146335405Y-64473117D01*
G37*
G36*
X222736132Y-63323000D02*
G01*
X222736132Y-63325000D01*
X222734596Y-63325990D01*
X222693748Y-63330013D01*
X222654652Y-63341873D01*
X222618624Y-63361130D01*
X222587046Y-63387046D01*
X222561130Y-63418624D01*
X222541873Y-63454652D01*
X222530013Y-63493748D01*
X222526000Y-63534494D01*
X222526000Y-64965506D01*
X222530013Y-65006252D01*
X222541873Y-65045348D01*
X222561130Y-65081376D01*
X222587046Y-65112954D01*
X222618624Y-65138870D01*
X222654652Y-65158127D01*
X222693748Y-65169987D01*
X222734596Y-65174010D01*
X222736222Y-65175175D01*
X222736026Y-65177165D01*
X222734400Y-65178000D01*
X222665538Y-65178000D01*
X222665342Y-65177990D01*
X222632908Y-65174796D01*
X222632523Y-65174720D01*
X222607236Y-65167049D01*
X222606874Y-65166899D01*
X222583571Y-65154443D01*
X222583245Y-65154225D01*
X222562817Y-65137460D01*
X222562540Y-65137183D01*
X222545775Y-65116755D01*
X222545557Y-65116429D01*
X222533102Y-65093127D01*
X222532952Y-65092765D01*
X222529264Y-65080608D01*
X222519999Y-65058244D01*
X222506604Y-65038197D01*
X222489557Y-65021150D01*
X222469509Y-65007756D01*
X222447235Y-64998530D01*
X222423585Y-64993826D01*
X222399479Y-64993826D01*
X222375828Y-64998531D01*
X222353555Y-65007758D01*
X222333508Y-65021153D01*
X222316461Y-65038200D01*
X222306375Y-65053295D01*
X222304581Y-65054180D01*
X222302918Y-65053069D01*
X222302948Y-65051241D01*
X222376752Y-64913163D01*
X222430757Y-64735136D01*
X222449000Y-64549905D01*
X222449000Y-63950094D01*
X222430757Y-63764864D01*
X222376752Y-63586837D01*
X222302944Y-63448751D01*
X222303010Y-63446752D01*
X222304773Y-63445809D01*
X222306371Y-63446697D01*
X222316463Y-63461801D01*
X222333510Y-63478848D01*
X222353557Y-63492242D01*
X222375831Y-63501469D01*
X222399481Y-63506173D01*
X222423587Y-63506173D01*
X222447237Y-63501469D01*
X222469511Y-63492242D01*
X222489559Y-63478847D01*
X222506606Y-63461800D01*
X222520000Y-63441753D01*
X222529263Y-63419392D01*
X222532950Y-63407239D01*
X222533100Y-63406877D01*
X222545557Y-63383571D01*
X222545775Y-63383245D01*
X222562540Y-63362817D01*
X222562817Y-63362540D01*
X222583245Y-63345775D01*
X222583571Y-63345557D01*
X222606874Y-63333101D01*
X222607236Y-63332951D01*
X222632523Y-63325280D01*
X222632908Y-63325204D01*
X222665342Y-63322010D01*
X222665538Y-63322000D01*
X222734400Y-63322000D01*
X222736132Y-63323000D01*
G37*
G36*
X220334658Y-63322010D02*
G01*
X220367092Y-63325204D01*
X220367477Y-63325280D01*
X220392764Y-63332951D01*
X220393126Y-63333101D01*
X220416429Y-63345557D01*
X220416755Y-63345775D01*
X220437183Y-63362540D01*
X220437460Y-63362817D01*
X220454225Y-63383245D01*
X220454443Y-63383571D01*
X220466898Y-63406873D01*
X220467048Y-63407235D01*
X220470736Y-63419392D01*
X220480001Y-63441756D01*
X220493396Y-63461803D01*
X220510443Y-63478850D01*
X220530491Y-63492244D01*
X220552765Y-63501470D01*
X220576415Y-63506174D01*
X220600521Y-63506174D01*
X220624172Y-63501469D01*
X220646445Y-63492242D01*
X220666492Y-63478847D01*
X220683539Y-63461800D01*
X220693625Y-63446705D01*
X220695419Y-63445820D01*
X220697082Y-63446931D01*
X220697052Y-63448759D01*
X220623248Y-63586838D01*
X220569243Y-63764865D01*
X220551000Y-63950094D01*
X220551000Y-64549906D01*
X220569243Y-64735136D01*
X220623249Y-64913163D01*
X220697055Y-65051246D01*
X220696989Y-65053245D01*
X220695226Y-65054188D01*
X220693628Y-65053300D01*
X220683538Y-65038198D01*
X220666491Y-65021151D01*
X220646443Y-65007756D01*
X220624169Y-64998529D01*
X220600519Y-64993825D01*
X220576413Y-64993825D01*
X220552763Y-64998529D01*
X220530489Y-65007756D01*
X220510442Y-65021150D01*
X220493395Y-65038197D01*
X220480000Y-65058245D01*
X220470736Y-65080609D01*
X220467049Y-65092763D01*
X220466899Y-65093125D01*
X220454443Y-65116429D01*
X220454225Y-65116755D01*
X220437460Y-65137183D01*
X220437183Y-65137460D01*
X220416755Y-65154225D01*
X220416429Y-65154443D01*
X220393126Y-65166899D01*
X220392764Y-65167049D01*
X220367477Y-65174720D01*
X220367092Y-65174796D01*
X220334658Y-65177990D01*
X220334462Y-65178000D01*
X220265600Y-65178000D01*
X220263868Y-65177000D01*
X220263868Y-65175000D01*
X220265404Y-65174010D01*
X220306252Y-65169987D01*
X220345348Y-65158127D01*
X220381376Y-65138870D01*
X220412954Y-65112954D01*
X220438870Y-65081376D01*
X220458127Y-65045348D01*
X220469987Y-65006252D01*
X220474000Y-64965506D01*
X220474000Y-63534494D01*
X220469987Y-63493748D01*
X220458127Y-63454652D01*
X220438870Y-63418624D01*
X220412954Y-63387046D01*
X220381376Y-63361130D01*
X220345348Y-63341873D01*
X220306252Y-63330013D01*
X220265404Y-63325990D01*
X220263778Y-63324825D01*
X220263974Y-63322835D01*
X220265600Y-63322000D01*
X220334462Y-63322000D01*
X220334658Y-63322010D01*
G37*
G36*
X77334658Y-63322010D02*
G01*
X77367092Y-63325204D01*
X77367477Y-63325280D01*
X77392764Y-63332951D01*
X77393126Y-63333101D01*
X77416429Y-63345557D01*
X77416755Y-63345775D01*
X77437183Y-63362540D01*
X77437460Y-63362817D01*
X77454225Y-63383245D01*
X77454443Y-63383571D01*
X77466898Y-63406873D01*
X77467048Y-63407235D01*
X77470736Y-63419392D01*
X77480001Y-63441756D01*
X77493396Y-63461803D01*
X77510443Y-63478850D01*
X77530491Y-63492244D01*
X77552765Y-63501470D01*
X77576415Y-63506174D01*
X77600521Y-63506174D01*
X77624172Y-63501469D01*
X77646445Y-63492242D01*
X77666492Y-63478847D01*
X77683539Y-63461800D01*
X77693625Y-63446705D01*
X77695419Y-63445820D01*
X77697082Y-63446931D01*
X77697052Y-63448759D01*
X77623248Y-63586838D01*
X77569243Y-63764865D01*
X77551000Y-63950094D01*
X77551000Y-64549906D01*
X77569243Y-64735136D01*
X77623249Y-64913163D01*
X77697055Y-65051246D01*
X77696989Y-65053245D01*
X77695226Y-65054188D01*
X77693628Y-65053300D01*
X77683538Y-65038198D01*
X77666491Y-65021151D01*
X77646443Y-65007756D01*
X77624169Y-64998529D01*
X77600519Y-64993825D01*
X77576413Y-64993825D01*
X77552763Y-64998529D01*
X77530489Y-65007756D01*
X77510442Y-65021150D01*
X77493395Y-65038197D01*
X77480000Y-65058245D01*
X77470736Y-65080609D01*
X77467049Y-65092763D01*
X77466899Y-65093125D01*
X77454443Y-65116429D01*
X77454225Y-65116755D01*
X77437460Y-65137183D01*
X77437183Y-65137460D01*
X77416755Y-65154225D01*
X77416429Y-65154443D01*
X77393126Y-65166899D01*
X77392764Y-65167049D01*
X77367477Y-65174720D01*
X77367092Y-65174796D01*
X77334658Y-65177990D01*
X77334462Y-65178000D01*
X77265600Y-65178000D01*
X77263868Y-65177000D01*
X77263868Y-65175000D01*
X77265404Y-65174010D01*
X77306252Y-65169987D01*
X77345348Y-65158127D01*
X77381376Y-65138870D01*
X77412954Y-65112954D01*
X77438870Y-65081376D01*
X77458127Y-65045348D01*
X77469987Y-65006252D01*
X77474000Y-64965506D01*
X77474000Y-63534494D01*
X77469987Y-63493748D01*
X77458127Y-63454652D01*
X77438870Y-63418624D01*
X77412954Y-63387046D01*
X77381376Y-63361130D01*
X77345348Y-63341873D01*
X77306252Y-63330013D01*
X77265404Y-63325990D01*
X77263778Y-63324825D01*
X77263974Y-63322835D01*
X77265600Y-63322000D01*
X77334462Y-63322000D01*
X77334658Y-63322010D01*
G37*
G36*
X79736132Y-63323000D02*
G01*
X79736132Y-63325000D01*
X79734596Y-63325990D01*
X79693748Y-63330013D01*
X79654652Y-63341873D01*
X79618624Y-63361130D01*
X79587046Y-63387046D01*
X79561130Y-63418624D01*
X79541873Y-63454652D01*
X79530013Y-63493748D01*
X79526000Y-63534494D01*
X79526000Y-64965506D01*
X79530013Y-65006252D01*
X79541873Y-65045348D01*
X79561130Y-65081376D01*
X79587046Y-65112954D01*
X79618624Y-65138870D01*
X79654652Y-65158127D01*
X79693748Y-65169987D01*
X79734596Y-65174010D01*
X79736222Y-65175175D01*
X79736026Y-65177165D01*
X79734400Y-65178000D01*
X79665538Y-65178000D01*
X79665342Y-65177990D01*
X79632908Y-65174796D01*
X79632523Y-65174720D01*
X79607236Y-65167049D01*
X79606874Y-65166899D01*
X79583571Y-65154443D01*
X79583245Y-65154225D01*
X79562817Y-65137460D01*
X79562540Y-65137183D01*
X79545775Y-65116755D01*
X79545557Y-65116429D01*
X79533102Y-65093127D01*
X79532952Y-65092765D01*
X79529264Y-65080608D01*
X79519999Y-65058244D01*
X79506604Y-65038197D01*
X79489557Y-65021150D01*
X79469509Y-65007756D01*
X79447235Y-64998530D01*
X79423585Y-64993826D01*
X79399479Y-64993826D01*
X79375828Y-64998531D01*
X79353555Y-65007758D01*
X79333508Y-65021153D01*
X79316461Y-65038200D01*
X79306375Y-65053295D01*
X79304581Y-65054180D01*
X79302918Y-65053069D01*
X79302948Y-65051241D01*
X79376752Y-64913163D01*
X79430757Y-64735136D01*
X79449000Y-64549905D01*
X79449000Y-63950094D01*
X79430757Y-63764864D01*
X79376752Y-63586837D01*
X79302944Y-63448751D01*
X79303010Y-63446752D01*
X79304773Y-63445809D01*
X79306371Y-63446697D01*
X79316463Y-63461801D01*
X79333510Y-63478848D01*
X79353557Y-63492242D01*
X79375831Y-63501469D01*
X79399481Y-63506173D01*
X79423587Y-63506173D01*
X79447237Y-63501469D01*
X79469511Y-63492242D01*
X79489559Y-63478847D01*
X79506606Y-63461800D01*
X79520000Y-63441753D01*
X79529263Y-63419392D01*
X79532950Y-63407239D01*
X79533100Y-63406877D01*
X79545557Y-63383571D01*
X79545775Y-63383245D01*
X79562540Y-63362817D01*
X79562817Y-63362540D01*
X79583245Y-63345775D01*
X79583571Y-63345557D01*
X79606874Y-63333101D01*
X79607236Y-63332951D01*
X79632523Y-63325280D01*
X79632908Y-63325204D01*
X79665342Y-63322010D01*
X79665538Y-63322000D01*
X79734400Y-63322000D01*
X79736132Y-63323000D01*
G37*
G36*
X146335405Y-60973117D02*
G01*
X146336334Y-60974249D01*
X146336451Y-60974407D01*
X146344929Y-60987096D01*
X146361976Y-61004143D01*
X146382024Y-61017538D01*
X146404298Y-61026764D01*
X146427948Y-61031468D01*
X146452054Y-61031468D01*
X146475704Y-61026763D01*
X146497978Y-61017537D01*
X146518025Y-61004142D01*
X146535072Y-60987095D01*
X146543550Y-60974407D01*
X146543667Y-60974249D01*
X146544593Y-60973121D01*
X146546465Y-60972417D01*
X146548011Y-60973686D01*
X146547903Y-60975333D01*
X146544739Y-60981252D01*
X146541950Y-60990445D01*
X146541000Y-61000094D01*
X146541000Y-62499906D01*
X146541950Y-62509555D01*
X146544739Y-62518748D01*
X146547905Y-62524671D01*
X146547839Y-62526670D01*
X146546076Y-62527613D01*
X146544595Y-62526883D01*
X146543666Y-62525751D01*
X146543549Y-62525593D01*
X146535071Y-62512904D01*
X146518024Y-62495857D01*
X146497976Y-62482462D01*
X146475702Y-62473236D01*
X146452052Y-62468532D01*
X146427946Y-62468532D01*
X146404296Y-62473237D01*
X146382022Y-62482463D01*
X146361975Y-62495858D01*
X146344928Y-62512905D01*
X146336450Y-62525593D01*
X146336333Y-62525751D01*
X146335407Y-62526879D01*
X146333535Y-62527583D01*
X146331989Y-62526314D01*
X146332097Y-62524667D01*
X146335261Y-62518748D01*
X146338050Y-62509555D01*
X146339000Y-62499906D01*
X146339000Y-61000094D01*
X146338050Y-60990445D01*
X146335261Y-60981252D01*
X146332095Y-60975329D01*
X146332161Y-60973330D01*
X146333924Y-60972387D01*
X146335405Y-60973117D01*
G37*
G36*
X93345732Y-59833000D02*
G01*
X93346000Y-59834000D01*
X93346000Y-60996000D01*
X93345000Y-60997732D01*
X93344000Y-60998000D01*
X93146000Y-60998000D01*
X93144268Y-60997000D01*
X93144000Y-60996000D01*
X93144000Y-59836000D01*
X92396000Y-59836000D01*
X92396000Y-60996000D01*
X92395000Y-60997732D01*
X92394000Y-60998000D01*
X92196000Y-60998000D01*
X92194268Y-60997000D01*
X92194000Y-60996000D01*
X92194000Y-59834000D01*
X92195000Y-59832268D01*
X92196000Y-59832000D01*
X93344000Y-59832000D01*
X93345732Y-59833000D01*
G37*
G36*
X79736132Y-58323000D02*
G01*
X79736132Y-58325000D01*
X79734596Y-58325990D01*
X79693748Y-58330013D01*
X79654652Y-58341873D01*
X79618624Y-58361130D01*
X79587046Y-58387046D01*
X79561130Y-58418624D01*
X79541873Y-58454652D01*
X79530013Y-58493748D01*
X79526000Y-58534494D01*
X79526000Y-59965506D01*
X79530013Y-60006252D01*
X79541873Y-60045348D01*
X79561130Y-60081376D01*
X79587046Y-60112954D01*
X79618624Y-60138870D01*
X79654652Y-60158127D01*
X79693748Y-60169987D01*
X79734596Y-60174010D01*
X79736222Y-60175175D01*
X79736026Y-60177165D01*
X79734400Y-60178000D01*
X79665538Y-60178000D01*
X79665342Y-60177990D01*
X79632908Y-60174796D01*
X79632523Y-60174720D01*
X79607236Y-60167049D01*
X79606874Y-60166899D01*
X79583571Y-60154443D01*
X79583245Y-60154225D01*
X79562817Y-60137460D01*
X79562540Y-60137183D01*
X79545775Y-60116755D01*
X79545557Y-60116429D01*
X79533102Y-60093127D01*
X79532952Y-60092765D01*
X79529264Y-60080608D01*
X79519999Y-60058244D01*
X79506604Y-60038197D01*
X79489557Y-60021150D01*
X79469509Y-60007756D01*
X79447235Y-59998530D01*
X79423585Y-59993826D01*
X79399479Y-59993826D01*
X79375828Y-59998531D01*
X79353555Y-60007758D01*
X79333508Y-60021153D01*
X79316461Y-60038200D01*
X79306375Y-60053295D01*
X79304581Y-60054180D01*
X79302918Y-60053069D01*
X79302948Y-60051241D01*
X79376752Y-59913163D01*
X79430757Y-59735136D01*
X79449000Y-59549905D01*
X79449000Y-58950094D01*
X79430757Y-58764864D01*
X79376752Y-58586837D01*
X79302944Y-58448751D01*
X79303010Y-58446752D01*
X79304773Y-58445809D01*
X79306371Y-58446697D01*
X79316463Y-58461801D01*
X79333510Y-58478848D01*
X79353557Y-58492242D01*
X79375831Y-58501469D01*
X79399481Y-58506173D01*
X79423587Y-58506173D01*
X79447237Y-58501469D01*
X79469511Y-58492242D01*
X79489559Y-58478847D01*
X79506606Y-58461800D01*
X79520000Y-58441753D01*
X79529263Y-58419392D01*
X79532950Y-58407239D01*
X79533100Y-58406877D01*
X79545557Y-58383571D01*
X79545775Y-58383245D01*
X79562540Y-58362817D01*
X79562817Y-58362540D01*
X79583245Y-58345775D01*
X79583571Y-58345557D01*
X79606874Y-58333101D01*
X79607236Y-58332951D01*
X79632523Y-58325280D01*
X79632908Y-58325204D01*
X79665342Y-58322010D01*
X79665538Y-58322000D01*
X79734400Y-58322000D01*
X79736132Y-58323000D01*
G37*
G36*
X220334658Y-58322010D02*
G01*
X220367092Y-58325204D01*
X220367477Y-58325280D01*
X220392764Y-58332951D01*
X220393126Y-58333101D01*
X220416429Y-58345557D01*
X220416755Y-58345775D01*
X220437183Y-58362540D01*
X220437460Y-58362817D01*
X220454225Y-58383245D01*
X220454443Y-58383571D01*
X220466898Y-58406873D01*
X220467048Y-58407235D01*
X220470736Y-58419392D01*
X220480001Y-58441756D01*
X220493396Y-58461803D01*
X220510443Y-58478850D01*
X220530491Y-58492244D01*
X220552765Y-58501470D01*
X220576415Y-58506174D01*
X220600521Y-58506174D01*
X220624172Y-58501469D01*
X220646445Y-58492242D01*
X220666492Y-58478847D01*
X220683539Y-58461800D01*
X220693625Y-58446705D01*
X220695419Y-58445820D01*
X220697082Y-58446931D01*
X220697052Y-58448759D01*
X220623248Y-58586838D01*
X220569243Y-58764865D01*
X220551000Y-58950094D01*
X220551000Y-59549906D01*
X220569243Y-59735136D01*
X220623249Y-59913163D01*
X220697055Y-60051246D01*
X220696989Y-60053245D01*
X220695226Y-60054188D01*
X220693628Y-60053300D01*
X220683538Y-60038198D01*
X220666491Y-60021151D01*
X220646443Y-60007756D01*
X220624169Y-59998529D01*
X220600519Y-59993825D01*
X220576413Y-59993825D01*
X220552763Y-59998529D01*
X220530489Y-60007756D01*
X220510442Y-60021150D01*
X220493395Y-60038197D01*
X220480000Y-60058245D01*
X220470736Y-60080609D01*
X220467049Y-60092763D01*
X220466899Y-60093125D01*
X220454443Y-60116429D01*
X220454225Y-60116755D01*
X220437460Y-60137183D01*
X220437183Y-60137460D01*
X220416755Y-60154225D01*
X220416429Y-60154443D01*
X220393126Y-60166899D01*
X220392764Y-60167049D01*
X220367477Y-60174720D01*
X220367092Y-60174796D01*
X220334658Y-60177990D01*
X220334462Y-60178000D01*
X220265600Y-60178000D01*
X220263868Y-60177000D01*
X220263868Y-60175000D01*
X220265404Y-60174010D01*
X220306252Y-60169987D01*
X220345348Y-60158127D01*
X220381376Y-60138870D01*
X220412954Y-60112954D01*
X220438870Y-60081376D01*
X220458127Y-60045348D01*
X220469987Y-60006252D01*
X220474000Y-59965506D01*
X220474000Y-58534494D01*
X220469987Y-58493748D01*
X220458127Y-58454652D01*
X220438870Y-58418624D01*
X220412954Y-58387046D01*
X220381376Y-58361130D01*
X220345348Y-58341873D01*
X220306252Y-58330013D01*
X220265404Y-58325990D01*
X220263778Y-58324825D01*
X220263974Y-58322835D01*
X220265600Y-58322000D01*
X220334462Y-58322000D01*
X220334658Y-58322010D01*
G37*
G36*
X222736132Y-58323000D02*
G01*
X222736132Y-58325000D01*
X222734596Y-58325990D01*
X222693748Y-58330013D01*
X222654652Y-58341873D01*
X222618624Y-58361130D01*
X222587046Y-58387046D01*
X222561130Y-58418624D01*
X222541873Y-58454652D01*
X222530013Y-58493748D01*
X222526000Y-58534494D01*
X222526000Y-59965506D01*
X222530013Y-60006252D01*
X222541873Y-60045348D01*
X222561130Y-60081376D01*
X222587046Y-60112954D01*
X222618624Y-60138870D01*
X222654652Y-60158127D01*
X222693748Y-60169987D01*
X222734596Y-60174010D01*
X222736222Y-60175175D01*
X222736026Y-60177165D01*
X222734400Y-60178000D01*
X222665538Y-60178000D01*
X222665342Y-60177990D01*
X222632908Y-60174796D01*
X222632523Y-60174720D01*
X222607236Y-60167049D01*
X222606874Y-60166899D01*
X222583571Y-60154443D01*
X222583245Y-60154225D01*
X222562817Y-60137460D01*
X222562540Y-60137183D01*
X222545775Y-60116755D01*
X222545557Y-60116429D01*
X222533102Y-60093127D01*
X222532952Y-60092765D01*
X222529264Y-60080608D01*
X222519999Y-60058244D01*
X222506604Y-60038197D01*
X222489557Y-60021150D01*
X222469509Y-60007756D01*
X222447235Y-59998530D01*
X222423585Y-59993826D01*
X222399479Y-59993826D01*
X222375828Y-59998531D01*
X222353555Y-60007758D01*
X222333508Y-60021153D01*
X222316461Y-60038200D01*
X222306375Y-60053295D01*
X222304581Y-60054180D01*
X222302918Y-60053069D01*
X222302948Y-60051241D01*
X222376752Y-59913163D01*
X222430757Y-59735136D01*
X222449000Y-59549905D01*
X222449000Y-58950094D01*
X222430757Y-58764864D01*
X222376752Y-58586837D01*
X222302944Y-58448751D01*
X222303010Y-58446752D01*
X222304773Y-58445809D01*
X222306371Y-58446697D01*
X222316463Y-58461801D01*
X222333510Y-58478848D01*
X222353557Y-58492242D01*
X222375831Y-58501469D01*
X222399481Y-58506173D01*
X222423587Y-58506173D01*
X222447237Y-58501469D01*
X222469511Y-58492242D01*
X222489559Y-58478847D01*
X222506606Y-58461800D01*
X222520000Y-58441753D01*
X222529263Y-58419392D01*
X222532950Y-58407239D01*
X222533100Y-58406877D01*
X222545557Y-58383571D01*
X222545775Y-58383245D01*
X222562540Y-58362817D01*
X222562817Y-58362540D01*
X222583245Y-58345775D01*
X222583571Y-58345557D01*
X222606874Y-58333101D01*
X222607236Y-58332951D01*
X222632523Y-58325280D01*
X222632908Y-58325204D01*
X222665342Y-58322010D01*
X222665538Y-58322000D01*
X222734400Y-58322000D01*
X222736132Y-58323000D01*
G37*
G36*
X77334658Y-58322010D02*
G01*
X77367092Y-58325204D01*
X77367477Y-58325280D01*
X77392764Y-58332951D01*
X77393126Y-58333101D01*
X77416429Y-58345557D01*
X77416755Y-58345775D01*
X77437183Y-58362540D01*
X77437460Y-58362817D01*
X77454225Y-58383245D01*
X77454443Y-58383571D01*
X77466898Y-58406873D01*
X77467048Y-58407235D01*
X77470736Y-58419392D01*
X77480001Y-58441756D01*
X77493396Y-58461803D01*
X77510443Y-58478850D01*
X77530491Y-58492244D01*
X77552765Y-58501470D01*
X77576415Y-58506174D01*
X77600521Y-58506174D01*
X77624172Y-58501469D01*
X77646445Y-58492242D01*
X77666492Y-58478847D01*
X77683539Y-58461800D01*
X77693625Y-58446705D01*
X77695419Y-58445820D01*
X77697082Y-58446931D01*
X77697052Y-58448759D01*
X77623248Y-58586838D01*
X77569243Y-58764865D01*
X77551000Y-58950094D01*
X77551000Y-59549906D01*
X77569243Y-59735136D01*
X77623249Y-59913163D01*
X77697055Y-60051246D01*
X77696989Y-60053245D01*
X77695226Y-60054188D01*
X77693628Y-60053300D01*
X77683538Y-60038198D01*
X77666491Y-60021151D01*
X77646443Y-60007756D01*
X77624169Y-59998529D01*
X77600519Y-59993825D01*
X77576413Y-59993825D01*
X77552763Y-59998529D01*
X77530489Y-60007756D01*
X77510442Y-60021150D01*
X77493395Y-60038197D01*
X77480000Y-60058245D01*
X77470736Y-60080609D01*
X77467049Y-60092763D01*
X77466899Y-60093125D01*
X77454443Y-60116429D01*
X77454225Y-60116755D01*
X77437460Y-60137183D01*
X77437183Y-60137460D01*
X77416755Y-60154225D01*
X77416429Y-60154443D01*
X77393126Y-60166899D01*
X77392764Y-60167049D01*
X77367477Y-60174720D01*
X77367092Y-60174796D01*
X77334658Y-60177990D01*
X77334462Y-60178000D01*
X77265600Y-60178000D01*
X77263868Y-60177000D01*
X77263868Y-60175000D01*
X77265404Y-60174010D01*
X77306252Y-60169987D01*
X77345348Y-60158127D01*
X77381376Y-60138870D01*
X77412954Y-60112954D01*
X77438870Y-60081376D01*
X77458127Y-60045348D01*
X77469987Y-60006252D01*
X77474000Y-59965506D01*
X77474000Y-58534494D01*
X77469987Y-58493748D01*
X77458127Y-58454652D01*
X77438870Y-58418624D01*
X77412954Y-58387046D01*
X77381376Y-58361130D01*
X77345348Y-58341873D01*
X77306252Y-58330013D01*
X77265404Y-58325990D01*
X77263778Y-58324825D01*
X77263974Y-58322835D01*
X77265600Y-58322000D01*
X77334462Y-58322000D01*
X77334658Y-58322010D01*
G37*
G36*
X133810732Y-57448000D02*
G01*
X133811000Y-57449000D01*
X133811000Y-59051000D01*
X133810000Y-59052732D01*
X133809000Y-59053000D01*
X133745748Y-59053000D01*
X133744805Y-59052764D01*
X133731067Y-59045421D01*
X133707992Y-59038421D01*
X133684001Y-59036058D01*
X133660010Y-59038421D01*
X133636746Y-59045478D01*
X133634798Y-59045024D01*
X133634217Y-59043110D01*
X133635222Y-59041800D01*
X133637218Y-59040733D01*
X133644641Y-59034641D01*
X133650734Y-59027218D01*
X133655261Y-59018748D01*
X133658050Y-59009555D01*
X133659000Y-58999906D01*
X133659000Y-57500094D01*
X133658050Y-57490445D01*
X133655261Y-57481252D01*
X133650734Y-57472782D01*
X133644641Y-57465359D01*
X133637218Y-57459266D01*
X133631293Y-57456100D01*
X133630237Y-57454402D01*
X133631180Y-57452638D01*
X133632816Y-57452422D01*
X133634433Y-57452912D01*
X133634618Y-57452978D01*
X133648297Y-57458644D01*
X133671947Y-57463349D01*
X133696054Y-57463349D01*
X133719704Y-57458645D01*
X133741978Y-57449419D01*
X133745094Y-57447337D01*
X133746205Y-57447000D01*
X133809000Y-57447000D01*
X133810732Y-57448000D01*
G37*
G36*
X134975195Y-57447236D02*
G01*
X134988933Y-57454579D01*
X135012008Y-57461579D01*
X135035999Y-57463942D01*
X135059990Y-57461579D01*
X135083253Y-57454522D01*
X135085201Y-57454976D01*
X135085782Y-57456890D01*
X135084777Y-57458200D01*
X135082782Y-57459266D01*
X135075359Y-57465359D01*
X135069266Y-57472782D01*
X135064739Y-57481252D01*
X135061950Y-57490445D01*
X135061000Y-57500094D01*
X135061000Y-58999906D01*
X135061950Y-59009555D01*
X135064739Y-59018748D01*
X135069266Y-59027218D01*
X135075359Y-59034641D01*
X135082782Y-59040734D01*
X135088707Y-59043900D01*
X135089763Y-59045598D01*
X135088820Y-59047362D01*
X135087184Y-59047578D01*
X135085567Y-59047088D01*
X135085382Y-59047022D01*
X135071703Y-59041356D01*
X135048053Y-59036651D01*
X135023946Y-59036651D01*
X135000296Y-59041355D01*
X134978022Y-59050581D01*
X134974906Y-59052663D01*
X134973795Y-59053000D01*
X134911000Y-59053000D01*
X134909268Y-59052000D01*
X134909000Y-59051000D01*
X134909000Y-57449000D01*
X134910000Y-57447268D01*
X134911000Y-57447000D01*
X134974252Y-57447000D01*
X134975195Y-57447236D01*
G37*
G36*
X146335405Y-57473117D02*
G01*
X146336334Y-57474249D01*
X146336451Y-57474407D01*
X146344929Y-57487096D01*
X146361976Y-57504143D01*
X146382024Y-57517538D01*
X146404298Y-57526764D01*
X146427948Y-57531468D01*
X146452054Y-57531468D01*
X146475704Y-57526763D01*
X146497978Y-57517537D01*
X146518025Y-57504142D01*
X146535072Y-57487095D01*
X146543550Y-57474407D01*
X146543667Y-57474249D01*
X146544593Y-57473121D01*
X146546465Y-57472417D01*
X146548011Y-57473686D01*
X146547903Y-57475333D01*
X146544739Y-57481252D01*
X146541950Y-57490445D01*
X146541000Y-57500094D01*
X146541000Y-58999906D01*
X146541950Y-59009555D01*
X146544739Y-59018748D01*
X146547905Y-59024671D01*
X146547839Y-59026670D01*
X146546076Y-59027613D01*
X146544595Y-59026883D01*
X146543666Y-59025751D01*
X146543549Y-59025593D01*
X146535071Y-59012904D01*
X146518024Y-58995857D01*
X146497976Y-58982462D01*
X146475702Y-58973236D01*
X146452052Y-58968532D01*
X146427946Y-58968532D01*
X146404296Y-58973237D01*
X146382022Y-58982463D01*
X146361975Y-58995858D01*
X146344928Y-59012905D01*
X146336450Y-59025593D01*
X146336333Y-59025751D01*
X146335407Y-59026879D01*
X146333535Y-59027583D01*
X146331989Y-59026314D01*
X146332097Y-59024667D01*
X146335261Y-59018748D01*
X146338050Y-59009555D01*
X146339000Y-58999906D01*
X146339000Y-57500094D01*
X146338050Y-57490445D01*
X146335261Y-57481252D01*
X146332095Y-57475329D01*
X146332161Y-57473330D01*
X146333924Y-57472387D01*
X146335405Y-57473117D01*
G37*
G36*
X93345732Y-57633000D02*
G01*
X93346000Y-57634000D01*
X93346000Y-58796000D01*
X93345000Y-58797732D01*
X93344000Y-58798000D01*
X93146000Y-58798000D01*
X93144268Y-58797000D01*
X93144000Y-58796000D01*
X93144000Y-57636000D01*
X92396000Y-57636000D01*
X92396000Y-58796000D01*
X92395000Y-58797732D01*
X92394000Y-58798000D01*
X92196000Y-58798000D01*
X92194268Y-58797000D01*
X92194000Y-58796000D01*
X92194000Y-57634000D01*
X92195000Y-57632268D01*
X92196000Y-57632000D01*
X93344000Y-57632000D01*
X93345732Y-57633000D01*
G37*
G36*
X98685405Y-55223117D02*
G01*
X98686334Y-55224249D01*
X98686451Y-55224407D01*
X98694929Y-55237096D01*
X98711976Y-55254143D01*
X98732024Y-55267538D01*
X98754298Y-55276764D01*
X98777948Y-55281468D01*
X98802054Y-55281468D01*
X98825704Y-55276763D01*
X98847978Y-55267537D01*
X98868025Y-55254142D01*
X98885072Y-55237095D01*
X98893550Y-55224407D01*
X98893667Y-55224249D01*
X98894593Y-55223121D01*
X98896465Y-55222417D01*
X98898011Y-55223686D01*
X98897903Y-55225333D01*
X98894739Y-55231252D01*
X98891950Y-55240445D01*
X98891000Y-55250094D01*
X98891000Y-56749906D01*
X98891950Y-56759555D01*
X98894739Y-56768748D01*
X98897905Y-56774671D01*
X98897839Y-56776670D01*
X98896076Y-56777613D01*
X98894595Y-56776883D01*
X98893666Y-56775751D01*
X98893549Y-56775593D01*
X98885071Y-56762904D01*
X98868024Y-56745857D01*
X98847976Y-56732462D01*
X98825702Y-56723236D01*
X98802052Y-56718532D01*
X98777946Y-56718532D01*
X98754296Y-56723237D01*
X98732022Y-56732463D01*
X98711975Y-56745858D01*
X98694928Y-56762905D01*
X98686450Y-56775593D01*
X98686333Y-56775751D01*
X98685407Y-56776879D01*
X98683535Y-56777583D01*
X98681989Y-56776314D01*
X98682097Y-56774667D01*
X98685261Y-56768748D01*
X98688050Y-56759555D01*
X98689000Y-56749906D01*
X98689000Y-55250094D01*
X98688050Y-55240445D01*
X98685261Y-55231252D01*
X98682095Y-55225329D01*
X98682161Y-55223330D01*
X98683924Y-55222387D01*
X98685405Y-55223117D01*
G37*
M02*
