M48
; DRILL file {KiCad (5.1.8-0-10_14)} date Sunday, January 31, 2021 at 05:06:04 PM
; FORMAT={-:-/ absolute / inch / decimal}
; #@! TF.CreationDate,2021-01-31T17:06:04-06:00
; #@! TF.GenerationSoftware,Kicad,Pcbnew,(5.1.8-0-10_14)
; #@! TF.FileFunction,NonPlated,1,2,NPTH
FMAT,2
INCH
T1C0.0709
%
G90
G05
T1
G00X7.7559Y-4.063
M15
G01X7.7559Y-4.0866
M16
G05
G00X8.7205Y-2.5177
M15
G01X8.7205Y-2.5413
M16
G05
G00X7.7559Y-3.8661
M15
G01X7.7559Y-3.8898
M16
G05
G00X8.7205Y-2.7146
M15
G01X8.7205Y-2.7382
M16
G05
G00X7.7559Y-4.2598
M15
G01X7.7559Y-4.2835
M16
G05
G00X8.7205Y-3.502
M15
G01X8.7205Y-3.5256
M16
G05
G00X8.7205Y-2.9114
M15
G01X8.7205Y-2.935
M16
G05
G00X3.0906Y-2.5177
M15
G01X3.0906Y-2.5413
M16
G05
G00X8.7205Y-3.3051
M15
G01X8.7205Y-3.3287
M16
G05
G00X8.7205Y-3.1083
M15
G01X8.7205Y-3.1319
M16
G05
G00X3.0906Y-2.3209
M15
G01X3.0906Y-2.3445
M16
G05
G00X8.7205Y-2.3209
M15
G01X8.7205Y-2.3445
M16
G05
T0
M30
