M48
; DRILL file {KiCad (5.1.8-0-10_14)} date Sunday, January 31, 2021 at 05:06:04 PM
; FORMAT={-:-/ absolute / inch / decimal}
; #@! TF.CreationDate,2021-01-31T17:06:04-06:00
; #@! TF.GenerationSoftware,Kicad,Pcbnew,(5.1.8-0-10_14)
; #@! TF.FileFunction,Plated,1,2,PTH
FMAT,2
INCH
T1C0.0118
T2C0.0157
T3C0.0197
T4C0.0236
T5C0.0315
T6C0.0315
T7C0.0335
T8C0.0350
T9C0.0354
T10C0.0390
T11C0.0394
T12C0.0472
T13C0.0512
T14C0.1260
%
G90
G05
T1
X3.2106Y-3.5079
X3.2106Y-3.5591
X3.2618Y-3.5079
X3.2618Y-3.5591
X3.313Y-3.5079
X3.313Y-3.5591
X3.3642Y-3.5079
X3.3642Y-3.5591
X6.811Y-2.1455
X6.811Y-2.1848
X6.811Y-2.2242
X6.811Y-2.2636
X6.811Y-2.303
X6.8504Y-2.1455
X6.8504Y-2.1848
X6.8504Y-2.2242
X6.8504Y-2.2636
X6.8504Y-2.303
X6.8898Y-2.1455
X6.8898Y-2.1848
X6.8898Y-2.2242
X6.8898Y-2.2636
X6.8898Y-2.303
X6.9291Y-2.1455
X6.9291Y-2.1848
X6.9291Y-2.2242
X6.9291Y-2.2636
X6.9291Y-2.303
X6.9685Y-2.1455
X6.9685Y-2.1848
X6.9685Y-2.2242
X6.9685Y-2.2636
X6.9685Y-2.303
T2
X2.6083Y-2.3622
X2.6083Y-2.4606
X2.6083Y-2.5591
X2.6083Y-2.6575
X2.6083Y-2.7559
X2.6083Y-2.8543
X2.6083Y-2.8543
X2.6083Y-2.9528
X2.6083Y-3.0512
X2.6083Y-3.1496
X2.6083Y-3.1496
X2.6083Y-3.248
X2.6083Y-3.248
X2.6083Y-3.3465
X2.6083Y-3.3465
X2.6083Y-3.4449
X2.6083Y-3.4449
X2.6083Y-3.5433
X2.6083Y-3.5433
X2.6083Y-3.6417
X2.6083Y-3.6417
X2.6083Y-3.937
X2.6083Y-4.0354
X2.6083Y-4.4291
X2.6772Y-3.9469
X2.7362Y-3.9469
X2.7953Y-3.9469
X2.8543Y-3.9469
X2.9134Y-3.9469
X2.9626Y-3.563
X2.9724Y-3.9469
X3.0315Y-3.1496
X3.0315Y-3.2087
X3.0315Y-3.9469
X3.0906Y-3.2087
X3.0906Y-3.9469
X3.1496Y-2.6575
X3.1496Y-3.2087
X3.1496Y-3.4449
X3.1496Y-3.5039
X3.1496Y-3.563
X3.1496Y-3.622
X3.1496Y-3.6811
X3.1496Y-3.7402
X3.1496Y-3.7992
X3.1496Y-3.8583
X3.1496Y-3.9173
X3.1496Y-3.9764
X3.1496Y-4.0354
X3.2087Y-3.2087
X3.2677Y-3.2087
X3.3624Y-3.7697
X3.4055Y-3.376
X3.4252Y-3.563
X3.4252Y-3.622
X3.4252Y-3.6811
X3.4252Y-3.7402
X3.4252Y-3.7992
X3.4252Y-3.8583
X3.4252Y-3.9173
X3.4252Y-3.9764
X3.4252Y-4.0354
X3.4843Y-3.563
X3.5433Y-2.6575
X3.5433Y-3.0512
X3.5433Y-3.4449
X3.5433Y-3.5039
X3.5433Y-3.563
X3.5433Y-4.0354
X3.5827Y-2.2441
X3.6024Y-2.687
X3.937Y-2.3622
X4.685Y-5.0197
X4.9606Y-1.9291
X5.0394Y-2.2441
X5.2898Y-2.2933
X5.3642Y-2.3819
X5.5118Y-3.0512
X5.5118Y-4.0354
X5.5118Y-5.0197
X5.6496Y-2.0669
X5.7972Y-4.8031
X6.437Y-2.4213
X6.4961Y-3.0512
X6.4961Y-4.0354
X6.4961Y-5.0197
X6.5059Y-2.1161
X6.5059Y-2.2343
X6.5453Y-2.3289
X6.6437Y-2.2789
X6.6634Y-2.4016
X6.6634Y-2.4409
X6.6634Y-2.5689
X6.6929Y-2.6575
X6.6929Y-2.8543
X6.8898Y-2.6575
X6.8898Y-2.8543
X7.0866Y-3.0512
X7.1654Y-2.7756
X7.1949Y-2.4508
X7.1949Y-2.8248
X7.2146Y-2.0789
X7.2146Y-2.1289
X7.2146Y-2.5789
X7.2343Y-4.439
X7.2343Y-4.5472
X7.2343Y-4.626
X7.2441Y-4.498
X7.2638Y-4.4094
X7.2933Y-3.0512
X7.3327Y-2.2047
X7.3425Y-3.0217
X7.3622Y-2.1752
X7.372Y-4.4488
X7.3819Y-2.4606
X7.3819Y-2.6575
X7.3819Y-2.8543
X7.4016Y-1.9291
X7.4311Y-4.5472
X7.5787Y-2.2638
X7.5787Y-2.4606
X7.5787Y-2.6575
X7.5787Y-4.1732
X7.5886Y-2.9134
X7.5886Y-3.0315
X7.5886Y-3.1496
X7.6378Y-3.4055
X7.6506Y-4.5285
X7.6575Y-4.8031
X7.6575Y-4.5673
X7.6969Y-2.3524
X7.6969Y-2.4705
X7.6969Y-2.5886
X7.7067Y-4.7146
X7.7362Y-2.2539
X7.874Y-3.5433
X7.9215Y-3.3761
X7.9515Y-2.6611
X7.9515Y-3.3511
X7.9921Y-2.1063
X8.002Y-2.313
X8.002Y-2.5492
X8.0265Y-2.4311
X8.0265Y-2.9041
X8.0265Y-2.9541
X8.0315Y-3.1041
X8.0709Y-2.2638
X8.0807Y-3.7894
X8.1201Y-3.7303
X8.1201Y-3.7697
X8.1285Y-3.5041
X8.2087Y-2.9528
X8.2874Y-3.0315
X8.2874Y-4.1535
X8.2874Y-4.7244
X8.3661Y-2.9528
X8.3661Y-3.1496
X8.3957Y-4.2224
X8.4843Y-4.7244
X8.4918Y-4.2529
X8.5734Y-4.1689
X8.5751Y-4.2529
X8.6319Y-4.3012
X8.6614Y-4.1634
X8.6811Y-4.7244
X8.7697Y-4.252
X8.7894Y-4.3504
X8.8484Y-4.1634
X8.8878Y-4.2126
X8.8976Y-2.9528
X9.0157Y-4.1634
X9.0748Y-4.1437
X9.0846Y-4.2028
T3
X7.2441Y-4.9016
X7.5098Y-4.5768
X7.6398Y-2.7953
X8.061Y-3.563
X2.7264Y-4.9449
X2.7541Y-4.8781
X2.7541Y-5.0117
X2.8209Y-4.8504
X2.8209Y-5.0394
X2.8877Y-4.8781
X2.8877Y-5.0117
X2.9154Y-4.9449
X8.8957Y-4.9449
X8.9233Y-4.8781
X8.9233Y-5.0117
X8.9902Y-4.8504
X8.9902Y-5.0394
X9.057Y-4.8781
X9.057Y-5.0117
X9.0846Y-4.9449
X8.8957Y-2.1417
X8.9233Y-2.0749
X8.9233Y-2.2085
X8.9902Y-2.0472
X8.9902Y-2.2362
X9.057Y-2.0749
X9.057Y-2.2085
X9.0846Y-2.1417
X2.7264Y-2.1417
X2.7541Y-2.0749
X2.7541Y-2.2085
X2.8209Y-2.0472
X2.8209Y-2.2362
X2.8877Y-2.0749
X2.8877Y-2.2085
X2.9154Y-2.1417
T4
X3.061Y-3.0098
X3.1594Y-3.0098
X3.3268Y-2.372
X5.5648Y-2.6378
X6.9882Y-3.2776
X7.3425Y-3.2776
T5
X3.6004Y-5.0394
X3.6713Y-4.8425
T6
X4.9213Y-4.513
X4.9213Y-4.813
X5.1213Y-4.513
X5.4213Y-4.513
X5.4213Y-4.813
T7
X7.1457Y-5.031
X7.3425Y-5.031
T8
X3.7961Y-4.8425
X3.7961Y-5.0425
X3.8961Y-4.8425
X3.9961Y-4.8425
X3.9961Y-5.0425
T9
X8.7205Y-2.0949
X8.7205Y-2.1949
T10
X7.9724Y-5.0787
X8.1496Y-5.0787
X7.5591Y-5.0787
X7.7362Y-5.0787
T11
X8.965Y-2.3917
X9.065Y-2.3917
X4.3898Y-4.1398
X4.3898Y-4.2323
X4.3898Y-4.3248
X4.3898Y-2.8406
X4.3898Y-2.9331
X4.3898Y-3.0256
X4.3898Y-3.7067
X4.3898Y-3.7992
X4.3898Y-3.8917
X5.7398Y-2.0669
X5.8398Y-2.0669
X5.9398Y-2.0669
X6.0398Y-2.0669
X6.1398Y-2.0669
X6.2398Y-2.0669
X8.9665Y-2.5811
X8.9665Y-2.6811
X8.9665Y-2.7811
X8.9665Y-2.8811
X8.9665Y-2.9811
X8.9665Y-3.0811
X8.9665Y-3.1811
X8.9665Y-3.2811
X8.9665Y-3.3811
X9.0665Y-2.5811
X9.0665Y-2.6811
X9.0665Y-2.7811
X9.0665Y-2.8811
X9.0665Y-2.9811
X9.0665Y-3.0811
X9.0665Y-3.1811
X9.0665Y-3.2811
X9.0665Y-3.3811
X4.3898Y-2.4075
X4.3898Y-2.5
X4.3898Y-2.5925
X3.6898Y-2.0669
X3.7898Y-2.0669
X3.8898Y-2.0669
X3.9898Y-2.0669
X7.7398Y-2.0669
X7.8398Y-2.0669
X7.9398Y-2.0669
X8.0398Y-2.0669
X8.1398Y-2.0669
X8.3713Y-3.6811
X8.4713Y-3.6811
X8.5713Y-3.6811
X8.6713Y-3.6811
X4.3898Y-3.2736
X4.3898Y-3.3661
X4.3898Y-3.4587
X3.3465Y-4.5472
X3.5433Y-4.5472
X4.2898Y-2.0669
X4.3898Y-2.0669
X4.4898Y-2.0669
X4.5898Y-2.0669
X8.9665Y-3.6811
X9.0665Y-3.6811
X4.3193Y-4.7508
X4.3193Y-4.8508
X4.3193Y-4.9508
X4.4193Y-4.7508
X4.4193Y-4.8508
X4.4193Y-4.9508
X4.8898Y-2.0669
X4.9898Y-2.0669
X5.0898Y-2.0669
X5.1898Y-2.0669
X5.2898Y-2.0669
X5.3898Y-2.0669
T12
X4.9705Y-2.7854
X4.9705Y-2.9232
X4.9705Y-3.061
X4.9705Y-3.1988
X4.9705Y-3.3366
X4.9705Y-3.4744
X4.9705Y-3.6122
X4.9705Y-3.75
X4.9705Y-3.8878
X4.9705Y-4.0256
X4.9705Y-4.1634
X4.9705Y-4.3012
X5.1673Y-2.7854
X5.1673Y-2.9232
X5.1673Y-3.061
X5.1673Y-3.1988
X5.1673Y-3.3366
X5.1673Y-3.4744
X5.1673Y-3.6122
X5.1673Y-3.75
X5.1673Y-3.8878
X5.1673Y-4.0256
X5.1673Y-4.1634
X5.1673Y-4.3012
T13
X7.9228Y-4.9807
X8.1988Y-4.9807
X7.5094Y-4.9807
X7.7854Y-4.9807
T14
X8.9902Y-2.1417
X2.8209Y-2.1417
X3.4035Y-2.0157
X2.8209Y-4.9449
X3.4035Y-5.0709
X8.4075Y-5.0709
X8.9902Y-4.9449
X8.4075Y-2.0157
T4
G00X7.1063Y-5.1511
M15
G01X7.1063Y-5.1235
M16
G05
G00X7.3819Y-5.1235
M15
G01X7.3819Y-5.1511
M16
G05
T11
G00X2.8051Y-4.498
M15
G01X2.8051Y-4.5768
M16
G05
G00X2.8839Y-4.7224
M15
G01X2.9626Y-4.7224
M16
G05
G00X3.0413Y-4.498
M15
G01X3.0413Y-4.5768
M16
G05
T0
M30
