G04 #@! TF.GenerationSoftware,KiCad,Pcbnew,(5.1.8-0-10_14)*
G04 #@! TF.CreationDate,2021-01-31T17:06:06-06:00*
G04 #@! TF.ProjectId,ClimateSprinklerController,436c696d-6174-4655-9370-72696e6b6c65,rev?*
G04 #@! TF.SameCoordinates,Original*
G04 #@! TF.FileFunction,Paste,Top*
G04 #@! TF.FilePolarity,Positive*
%FSLAX46Y46*%
G04 Gerber Fmt 4.6, Leading zero omitted, Abs format (unit mm)*
G04 Created by KiCad (PCBNEW (5.1.8-0-10_14)) date 2021-01-31 17:06:06*
%MOMM*%
%LPD*%
G01*
G04 APERTURE LIST*
%ADD10R,1.400000X0.360000*%
%ADD11R,1.200000X1.520000*%
%ADD12R,0.320000X1.080000*%
%ADD13R,1.600000X0.720000*%
%ADD14R,4.000000X4.000000*%
%ADD15R,0.360000X0.504000*%
%ADD16R,0.700000X1.050000*%
%ADD17R,5.400000X2.900000*%
%ADD18R,0.280000X0.400000*%
%ADD19R,0.350000X0.800000*%
%ADD20R,0.500000X0.300000*%
%ADD21R,2.000000X1.780000*%
%ADD22R,0.960000X1.760000*%
%ADD23R,2.750000X3.050000*%
%ADD24R,3.100000X2.600000*%
%ADD25R,0.540000X1.395000*%
%ADD26R,1.500000X1.100000*%
G04 APERTURE END LIST*
G36*
G01*
X163050000Y-56275000D02*
X163050000Y-57225000D01*
G75*
G02*
X162800000Y-57475000I-250000J0D01*
G01*
X162300000Y-57475000D01*
G75*
G02*
X162050000Y-57225000I0J250000D01*
G01*
X162050000Y-56275000D01*
G75*
G02*
X162300000Y-56025000I250000J0D01*
G01*
X162800000Y-56025000D01*
G75*
G02*
X163050000Y-56275000I0J-250000D01*
G01*
G37*
G36*
G01*
X164950000Y-56275000D02*
X164950000Y-57225000D01*
G75*
G02*
X164700000Y-57475000I-250000J0D01*
G01*
X164200000Y-57475000D01*
G75*
G02*
X163950000Y-57225000I0J250000D01*
G01*
X163950000Y-56275000D01*
G75*
G02*
X164200000Y-56025000I250000J0D01*
G01*
X164700000Y-56025000D01*
G75*
G02*
X164950000Y-56275000I0J-250000D01*
G01*
G37*
G36*
G01*
X163050000Y-59275000D02*
X163050000Y-60225000D01*
G75*
G02*
X162800000Y-60475000I-250000J0D01*
G01*
X162300000Y-60475000D01*
G75*
G02*
X162050000Y-60225000I0J250000D01*
G01*
X162050000Y-59275000D01*
G75*
G02*
X162300000Y-59025000I250000J0D01*
G01*
X162800000Y-59025000D01*
G75*
G02*
X163050000Y-59275000I0J-250000D01*
G01*
G37*
G36*
G01*
X164950000Y-59275000D02*
X164950000Y-60225000D01*
G75*
G02*
X164700000Y-60475000I-250000J0D01*
G01*
X164200000Y-60475000D01*
G75*
G02*
X163950000Y-60225000I0J250000D01*
G01*
X163950000Y-59275000D01*
G75*
G02*
X164200000Y-59025000I250000J0D01*
G01*
X164700000Y-59025000D01*
G75*
G02*
X164950000Y-59275000I0J-250000D01*
G01*
G37*
D10*
X192850000Y-112275000D03*
X192850000Y-112925000D03*
X192850000Y-113575000D03*
X192850000Y-114225000D03*
X192850000Y-114875000D03*
X192850000Y-115525000D03*
X192850000Y-116175000D03*
X192850000Y-116825000D03*
X192850000Y-117475000D03*
X192850000Y-118125000D03*
X192850000Y-118775000D03*
X192850000Y-119425000D03*
X192850000Y-120075000D03*
X192850000Y-120725000D03*
X185650000Y-120725000D03*
X185650000Y-120075000D03*
X185650000Y-119425000D03*
X185650000Y-118775000D03*
X185650000Y-118125000D03*
X185650000Y-117475000D03*
X185650000Y-116825000D03*
X185650000Y-116175000D03*
X185650000Y-115525000D03*
X185650000Y-114875000D03*
X185650000Y-114225000D03*
X185650000Y-113575000D03*
X185650000Y-112925000D03*
X185650000Y-112275000D03*
G36*
G01*
X182300001Y-122000000D02*
X181399999Y-122000000D01*
G75*
G02*
X181150000Y-121750001I0J249999D01*
G01*
X181150000Y-121049999D01*
G75*
G02*
X181399999Y-120800000I249999J0D01*
G01*
X182300001Y-120800000D01*
G75*
G02*
X182550000Y-121049999I0J-249999D01*
G01*
X182550000Y-121750001D01*
G75*
G02*
X182300001Y-122000000I-249999J0D01*
G01*
G37*
G36*
G01*
X182300001Y-120000000D02*
X181399999Y-120000000D01*
G75*
G02*
X181150000Y-119750001I0J249999D01*
G01*
X181150000Y-119049999D01*
G75*
G02*
X181399999Y-118800000I249999J0D01*
G01*
X182300001Y-118800000D01*
G75*
G02*
X182550000Y-119049999I0J-249999D01*
G01*
X182550000Y-119750001D01*
G75*
G02*
X182300001Y-120000000I-249999J0D01*
G01*
G37*
D11*
X185000000Y-130487500D03*
D12*
X183350000Y-127787500D03*
X182700000Y-127787500D03*
X185300000Y-127787500D03*
X184650000Y-127787500D03*
X184000000Y-127787500D03*
D11*
X183000000Y-130487500D03*
G36*
G01*
X187850000Y-108475000D02*
X187850000Y-107525000D01*
G75*
G02*
X188100000Y-107275000I250000J0D01*
G01*
X188600000Y-107275000D01*
G75*
G02*
X188850000Y-107525000I0J-250000D01*
G01*
X188850000Y-108475000D01*
G75*
G02*
X188600000Y-108725000I-250000J0D01*
G01*
X188100000Y-108725000D01*
G75*
G02*
X187850000Y-108475000I0J250000D01*
G01*
G37*
G36*
G01*
X189750000Y-108475000D02*
X189750000Y-107525000D01*
G75*
G02*
X190000000Y-107275000I250000J0D01*
G01*
X190500000Y-107275000D01*
G75*
G02*
X190750000Y-107525000I0J-250000D01*
G01*
X190750000Y-108475000D01*
G75*
G02*
X190500000Y-108725000I-250000J0D01*
G01*
X190000000Y-108725000D01*
G75*
G02*
X189750000Y-108475000I0J250000D01*
G01*
G37*
G36*
G01*
X196475000Y-116050000D02*
X195525000Y-116050000D01*
G75*
G02*
X195275000Y-115800000I0J250000D01*
G01*
X195275000Y-115300000D01*
G75*
G02*
X195525000Y-115050000I250000J0D01*
G01*
X196475000Y-115050000D01*
G75*
G02*
X196725000Y-115300000I0J-250000D01*
G01*
X196725000Y-115800000D01*
G75*
G02*
X196475000Y-116050000I-250000J0D01*
G01*
G37*
G36*
G01*
X196475000Y-117950000D02*
X195525000Y-117950000D01*
G75*
G02*
X195275000Y-117700000I0J250000D01*
G01*
X195275000Y-117200000D01*
G75*
G02*
X195525000Y-116950000I250000J0D01*
G01*
X196475000Y-116950000D01*
G75*
G02*
X196725000Y-117200000I0J-250000D01*
G01*
X196725000Y-117700000D01*
G75*
G02*
X196475000Y-117950000I-250000J0D01*
G01*
G37*
G36*
G01*
X233150000Y-108077500D02*
X233150000Y-108297500D01*
G75*
G02*
X233050000Y-108397500I-100000J0D01*
G01*
X232850000Y-108397500D01*
G75*
G02*
X232750000Y-108297500I0J100000D01*
G01*
X232750000Y-108077500D01*
G75*
G02*
X232850000Y-107977500I100000J0D01*
G01*
X233050000Y-107977500D01*
G75*
G02*
X233150000Y-108077500I0J-100000D01*
G01*
G37*
G36*
G01*
X232350000Y-108077500D02*
X232350000Y-108297500D01*
G75*
G02*
X232250000Y-108397500I-100000J0D01*
G01*
X232050000Y-108397500D01*
G75*
G02*
X231950000Y-108297500I0J100000D01*
G01*
X231950000Y-108077500D01*
G75*
G02*
X232050000Y-107977500I100000J0D01*
G01*
X232250000Y-107977500D01*
G75*
G02*
X232350000Y-108077500I0J-100000D01*
G01*
G37*
G36*
G01*
X231550000Y-108077500D02*
X231550000Y-108297500D01*
G75*
G02*
X231450000Y-108397500I-100000J0D01*
G01*
X231250000Y-108397500D01*
G75*
G02*
X231150000Y-108297500I0J100000D01*
G01*
X231150000Y-108077500D01*
G75*
G02*
X231250000Y-107977500I100000J0D01*
G01*
X231450000Y-107977500D01*
G75*
G02*
X231550000Y-108077500I0J-100000D01*
G01*
G37*
G36*
G01*
X230750000Y-108077500D02*
X230750000Y-108297500D01*
G75*
G02*
X230650000Y-108397500I-100000J0D01*
G01*
X230450000Y-108397500D01*
G75*
G02*
X230350000Y-108297500I0J100000D01*
G01*
X230350000Y-108077500D01*
G75*
G02*
X230450000Y-107977500I100000J0D01*
G01*
X230650000Y-107977500D01*
G75*
G02*
X230750000Y-108077500I0J-100000D01*
G01*
G37*
G36*
G01*
X230750000Y-105702500D02*
X230750000Y-105922500D01*
G75*
G02*
X230650000Y-106022500I-100000J0D01*
G01*
X230450000Y-106022500D01*
G75*
G02*
X230350000Y-105922500I0J100000D01*
G01*
X230350000Y-105702500D01*
G75*
G02*
X230450000Y-105602500I100000J0D01*
G01*
X230650000Y-105602500D01*
G75*
G02*
X230750000Y-105702500I0J-100000D01*
G01*
G37*
G36*
G01*
X231550000Y-105702500D02*
X231550000Y-105922500D01*
G75*
G02*
X231450000Y-106022500I-100000J0D01*
G01*
X231250000Y-106022500D01*
G75*
G02*
X231150000Y-105922500I0J100000D01*
G01*
X231150000Y-105702500D01*
G75*
G02*
X231250000Y-105602500I100000J0D01*
G01*
X231450000Y-105602500D01*
G75*
G02*
X231550000Y-105702500I0J-100000D01*
G01*
G37*
G36*
G01*
X232350000Y-105702500D02*
X232350000Y-105922500D01*
G75*
G02*
X232250000Y-106022500I-100000J0D01*
G01*
X232050000Y-106022500D01*
G75*
G02*
X231950000Y-105922500I0J100000D01*
G01*
X231950000Y-105702500D01*
G75*
G02*
X232050000Y-105602500I100000J0D01*
G01*
X232250000Y-105602500D01*
G75*
G02*
X232350000Y-105702500I0J-100000D01*
G01*
G37*
G36*
G01*
X233150000Y-105702500D02*
X233150000Y-105922500D01*
G75*
G02*
X233050000Y-106022500I-100000J0D01*
G01*
X232850000Y-106022500D01*
G75*
G02*
X232750000Y-105922500I0J100000D01*
G01*
X232750000Y-105702500D01*
G75*
G02*
X232850000Y-105602500I100000J0D01*
G01*
X233050000Y-105602500D01*
G75*
G02*
X233150000Y-105702500I0J-100000D01*
G01*
G37*
G36*
G01*
X230300000Y-103975000D02*
X230300000Y-103025000D01*
G75*
G02*
X230550000Y-102775000I250000J0D01*
G01*
X231050000Y-102775000D01*
G75*
G02*
X231300000Y-103025000I0J-250000D01*
G01*
X231300000Y-103975000D01*
G75*
G02*
X231050000Y-104225000I-250000J0D01*
G01*
X230550000Y-104225000D01*
G75*
G02*
X230300000Y-103975000I0J250000D01*
G01*
G37*
G36*
G01*
X232200000Y-103975000D02*
X232200000Y-103025000D01*
G75*
G02*
X232450000Y-102775000I250000J0D01*
G01*
X232950000Y-102775000D01*
G75*
G02*
X233200000Y-103025000I0J-250000D01*
G01*
X233200000Y-103975000D01*
G75*
G02*
X232950000Y-104225000I-250000J0D01*
G01*
X232450000Y-104225000D01*
G75*
G02*
X232200000Y-103975000I0J250000D01*
G01*
G37*
G36*
G01*
X230300000Y-110975000D02*
X230300000Y-110025000D01*
G75*
G02*
X230550000Y-109775000I250000J0D01*
G01*
X231050000Y-109775000D01*
G75*
G02*
X231300000Y-110025000I0J-250000D01*
G01*
X231300000Y-110975000D01*
G75*
G02*
X231050000Y-111225000I-250000J0D01*
G01*
X230550000Y-111225000D01*
G75*
G02*
X230300000Y-110975000I0J250000D01*
G01*
G37*
G36*
G01*
X232200000Y-110975000D02*
X232200000Y-110025000D01*
G75*
G02*
X232450000Y-109775000I250000J0D01*
G01*
X232950000Y-109775000D01*
G75*
G02*
X233200000Y-110025000I0J-250000D01*
G01*
X233200000Y-110975000D01*
G75*
G02*
X232950000Y-111225000I-250000J0D01*
G01*
X232450000Y-111225000D01*
G75*
G02*
X232200000Y-110975000I0J250000D01*
G01*
G37*
D13*
X167500000Y-48995000D03*
X167500000Y-50265000D03*
X167500000Y-51535000D03*
X167500000Y-52805000D03*
X167500000Y-54075000D03*
X167500000Y-55345000D03*
X167500000Y-56615000D03*
X167500000Y-57885000D03*
X167500000Y-59155000D03*
X167500000Y-60425000D03*
X167500000Y-61695000D03*
X167500000Y-62965000D03*
X167500000Y-64235000D03*
X167500000Y-65505000D03*
X167500000Y-66775000D03*
X167500000Y-68045000D03*
X167500000Y-69315000D03*
X167500000Y-70585000D03*
X167500000Y-71855000D03*
X184500000Y-71855000D03*
X184500000Y-70585000D03*
X184500000Y-69315000D03*
X184500000Y-68045000D03*
X184500000Y-66775000D03*
X184500000Y-65505000D03*
X184500000Y-64235000D03*
X184500000Y-62965000D03*
X184500000Y-61695000D03*
X184500000Y-60425000D03*
X184500000Y-59155000D03*
X184500000Y-57885000D03*
X184500000Y-56615000D03*
X184500000Y-55345000D03*
X184500000Y-54075000D03*
X184500000Y-52805000D03*
X184500000Y-51535000D03*
X184500000Y-50265000D03*
X184500000Y-48995000D03*
D14*
X175000000Y-56495000D03*
D15*
X212509000Y-108103000D03*
X211709000Y-108103000D03*
X210909000Y-108103000D03*
X210909000Y-105803000D03*
X211709000Y-105803000D03*
X212509000Y-105803000D03*
D16*
X211309000Y-106953000D03*
X212109000Y-106953000D03*
G36*
G01*
X218350000Y-103049999D02*
X218350000Y-103950001D01*
G75*
G02*
X218100001Y-104200000I-249999J0D01*
G01*
X217399999Y-104200000D01*
G75*
G02*
X217150000Y-103950001I0J249999D01*
G01*
X217150000Y-103049999D01*
G75*
G02*
X217399999Y-102800000I249999J0D01*
G01*
X218100001Y-102800000D01*
G75*
G02*
X218350000Y-103049999I0J-249999D01*
G01*
G37*
G36*
G01*
X216350000Y-103049999D02*
X216350000Y-103950001D01*
G75*
G02*
X216100001Y-104200000I-249999J0D01*
G01*
X215399999Y-104200000D01*
G75*
G02*
X215150000Y-103950001I0J249999D01*
G01*
X215150000Y-103049999D01*
G75*
G02*
X215399999Y-102800000I249999J0D01*
G01*
X216100001Y-102800000D01*
G75*
G02*
X216350000Y-103049999I0J-249999D01*
G01*
G37*
G36*
G01*
X212200000Y-103975000D02*
X212200000Y-103025000D01*
G75*
G02*
X212450000Y-102775000I250000J0D01*
G01*
X212950000Y-102775000D01*
G75*
G02*
X213200000Y-103025000I0J-250000D01*
G01*
X213200000Y-103975000D01*
G75*
G02*
X212950000Y-104225000I-250000J0D01*
G01*
X212450000Y-104225000D01*
G75*
G02*
X212200000Y-103975000I0J250000D01*
G01*
G37*
G36*
G01*
X210300000Y-103975000D02*
X210300000Y-103025000D01*
G75*
G02*
X210550000Y-102775000I250000J0D01*
G01*
X211050000Y-102775000D01*
G75*
G02*
X211300000Y-103025000I0J-250000D01*
G01*
X211300000Y-103975000D01*
G75*
G02*
X211050000Y-104225000I-250000J0D01*
G01*
X210550000Y-104225000D01*
G75*
G02*
X210300000Y-103975000I0J250000D01*
G01*
G37*
G36*
G01*
X210300000Y-110975000D02*
X210300000Y-110025000D01*
G75*
G02*
X210550000Y-109775000I250000J0D01*
G01*
X211050000Y-109775000D01*
G75*
G02*
X211300000Y-110025000I0J-250000D01*
G01*
X211300000Y-110975000D01*
G75*
G02*
X211050000Y-111225000I-250000J0D01*
G01*
X210550000Y-111225000D01*
G75*
G02*
X210300000Y-110975000I0J250000D01*
G01*
G37*
G36*
G01*
X212200000Y-110975000D02*
X212200000Y-110025000D01*
G75*
G02*
X212450000Y-109775000I250000J0D01*
G01*
X212950000Y-109775000D01*
G75*
G02*
X213200000Y-110025000I0J-250000D01*
G01*
X213200000Y-110975000D01*
G75*
G02*
X212950000Y-111225000I-250000J0D01*
G01*
X212450000Y-111225000D01*
G75*
G02*
X212200000Y-110975000I0J250000D01*
G01*
G37*
G36*
G01*
X190549999Y-74900000D02*
X191450001Y-74900000D01*
G75*
G02*
X191700000Y-75149999I0J-249999D01*
G01*
X191700000Y-75850001D01*
G75*
G02*
X191450001Y-76100000I-249999J0D01*
G01*
X190549999Y-76100000D01*
G75*
G02*
X190300000Y-75850001I0J249999D01*
G01*
X190300000Y-75149999D01*
G75*
G02*
X190549999Y-74900000I249999J0D01*
G01*
G37*
G36*
G01*
X190549999Y-76900000D02*
X191450001Y-76900000D01*
G75*
G02*
X191700000Y-77149999I0J-249999D01*
G01*
X191700000Y-77850001D01*
G75*
G02*
X191450001Y-78100000I-249999J0D01*
G01*
X190549999Y-78100000D01*
G75*
G02*
X190300000Y-77850001I0J249999D01*
G01*
X190300000Y-77149999D01*
G75*
G02*
X190549999Y-76900000I249999J0D01*
G01*
G37*
G36*
G01*
X187549999Y-74900000D02*
X188450001Y-74900000D01*
G75*
G02*
X188700000Y-75149999I0J-249999D01*
G01*
X188700000Y-75850001D01*
G75*
G02*
X188450001Y-76100000I-249999J0D01*
G01*
X187549999Y-76100000D01*
G75*
G02*
X187300000Y-75850001I0J249999D01*
G01*
X187300000Y-75149999D01*
G75*
G02*
X187549999Y-74900000I249999J0D01*
G01*
G37*
G36*
G01*
X187549999Y-76900000D02*
X188450001Y-76900000D01*
G75*
G02*
X188700000Y-77149999I0J-249999D01*
G01*
X188700000Y-77850001D01*
G75*
G02*
X188450001Y-78100000I-249999J0D01*
G01*
X187549999Y-78100000D01*
G75*
G02*
X187300000Y-77850001I0J249999D01*
G01*
X187300000Y-77149999D01*
G75*
G02*
X187549999Y-76900000I249999J0D01*
G01*
G37*
G36*
G01*
X107100000Y-106549999D02*
X107100000Y-107450001D01*
G75*
G02*
X106850001Y-107700000I-249999J0D01*
G01*
X106149999Y-107700000D01*
G75*
G02*
X105900000Y-107450001I0J249999D01*
G01*
X105900000Y-106549999D01*
G75*
G02*
X106149999Y-106300000I249999J0D01*
G01*
X106850001Y-106300000D01*
G75*
G02*
X107100000Y-106549999I0J-249999D01*
G01*
G37*
G36*
G01*
X109100000Y-106549999D02*
X109100000Y-107450001D01*
G75*
G02*
X108850001Y-107700000I-249999J0D01*
G01*
X108149999Y-107700000D01*
G75*
G02*
X107900000Y-107450001I0J249999D01*
G01*
X107900000Y-106549999D01*
G75*
G02*
X108149999Y-106300000I249999J0D01*
G01*
X108850001Y-106300000D01*
G75*
G02*
X109100000Y-106549999I0J-249999D01*
G01*
G37*
G36*
G01*
X107100000Y-95549999D02*
X107100000Y-96450001D01*
G75*
G02*
X106850001Y-96700000I-249999J0D01*
G01*
X106149999Y-96700000D01*
G75*
G02*
X105900000Y-96450001I0J249999D01*
G01*
X105900000Y-95549999D01*
G75*
G02*
X106149999Y-95300000I249999J0D01*
G01*
X106850001Y-95300000D01*
G75*
G02*
X107100000Y-95549999I0J-249999D01*
G01*
G37*
G36*
G01*
X109100000Y-95549999D02*
X109100000Y-96450001D01*
G75*
G02*
X108850001Y-96700000I-249999J0D01*
G01*
X108149999Y-96700000D01*
G75*
G02*
X107900000Y-96450001I0J249999D01*
G01*
X107900000Y-95549999D01*
G75*
G02*
X108149999Y-95300000I249999J0D01*
G01*
X108850001Y-95300000D01*
G75*
G02*
X109100000Y-95549999I0J-249999D01*
G01*
G37*
G36*
G01*
X107100000Y-84549999D02*
X107100000Y-85450001D01*
G75*
G02*
X106850001Y-85700000I-249999J0D01*
G01*
X106149999Y-85700000D01*
G75*
G02*
X105900000Y-85450001I0J249999D01*
G01*
X105900000Y-84549999D01*
G75*
G02*
X106149999Y-84300000I249999J0D01*
G01*
X106850001Y-84300000D01*
G75*
G02*
X107100000Y-84549999I0J-249999D01*
G01*
G37*
G36*
G01*
X109100000Y-84549999D02*
X109100000Y-85450001D01*
G75*
G02*
X108850001Y-85700000I-249999J0D01*
G01*
X108149999Y-85700000D01*
G75*
G02*
X107900000Y-85450001I0J249999D01*
G01*
X107900000Y-84549999D01*
G75*
G02*
X108149999Y-84300000I249999J0D01*
G01*
X108850001Y-84300000D01*
G75*
G02*
X109100000Y-84549999I0J-249999D01*
G01*
G37*
G36*
G01*
X107100000Y-73549999D02*
X107100000Y-74450001D01*
G75*
G02*
X106850001Y-74700000I-249999J0D01*
G01*
X106149999Y-74700000D01*
G75*
G02*
X105900000Y-74450001I0J249999D01*
G01*
X105900000Y-73549999D01*
G75*
G02*
X106149999Y-73300000I249999J0D01*
G01*
X106850001Y-73300000D01*
G75*
G02*
X107100000Y-73549999I0J-249999D01*
G01*
G37*
G36*
G01*
X109100000Y-73549999D02*
X109100000Y-74450001D01*
G75*
G02*
X108850001Y-74700000I-249999J0D01*
G01*
X108149999Y-74700000D01*
G75*
G02*
X107900000Y-74450001I0J249999D01*
G01*
X107900000Y-73549999D01*
G75*
G02*
X108149999Y-73300000I249999J0D01*
G01*
X108850001Y-73300000D01*
G75*
G02*
X109100000Y-73549999I0J-249999D01*
G01*
G37*
G36*
G01*
X107100000Y-62549999D02*
X107100000Y-63450001D01*
G75*
G02*
X106850001Y-63700000I-249999J0D01*
G01*
X106149999Y-63700000D01*
G75*
G02*
X105900000Y-63450001I0J249999D01*
G01*
X105900000Y-62549999D01*
G75*
G02*
X106149999Y-62300000I249999J0D01*
G01*
X106850001Y-62300000D01*
G75*
G02*
X107100000Y-62549999I0J-249999D01*
G01*
G37*
G36*
G01*
X109100000Y-62549999D02*
X109100000Y-63450001D01*
G75*
G02*
X108850001Y-63700000I-249999J0D01*
G01*
X108149999Y-63700000D01*
G75*
G02*
X107900000Y-63450001I0J249999D01*
G01*
X107900000Y-62549999D01*
G75*
G02*
X108149999Y-62300000I249999J0D01*
G01*
X108850001Y-62300000D01*
G75*
G02*
X109100000Y-62549999I0J-249999D01*
G01*
G37*
G36*
G01*
X107900000Y-112450001D02*
X107900000Y-111549999D01*
G75*
G02*
X108149999Y-111300000I249999J0D01*
G01*
X108850001Y-111300000D01*
G75*
G02*
X109100000Y-111549999I0J-249999D01*
G01*
X109100000Y-112450001D01*
G75*
G02*
X108850001Y-112700000I-249999J0D01*
G01*
X108149999Y-112700000D01*
G75*
G02*
X107900000Y-112450001I0J249999D01*
G01*
G37*
G36*
G01*
X105900000Y-112450001D02*
X105900000Y-111549999D01*
G75*
G02*
X106149999Y-111300000I249999J0D01*
G01*
X106850001Y-111300000D01*
G75*
G02*
X107100000Y-111549999I0J-249999D01*
G01*
X107100000Y-112450001D01*
G75*
G02*
X106850001Y-112700000I-249999J0D01*
G01*
X106149999Y-112700000D01*
G75*
G02*
X105900000Y-112450001I0J249999D01*
G01*
G37*
G36*
G01*
X107900000Y-101450001D02*
X107900000Y-100549999D01*
G75*
G02*
X108149999Y-100300000I249999J0D01*
G01*
X108850001Y-100300000D01*
G75*
G02*
X109100000Y-100549999I0J-249999D01*
G01*
X109100000Y-101450001D01*
G75*
G02*
X108850001Y-101700000I-249999J0D01*
G01*
X108149999Y-101700000D01*
G75*
G02*
X107900000Y-101450001I0J249999D01*
G01*
G37*
G36*
G01*
X105900000Y-101450001D02*
X105900000Y-100549999D01*
G75*
G02*
X106149999Y-100300000I249999J0D01*
G01*
X106850001Y-100300000D01*
G75*
G02*
X107100000Y-100549999I0J-249999D01*
G01*
X107100000Y-101450001D01*
G75*
G02*
X106850001Y-101700000I-249999J0D01*
G01*
X106149999Y-101700000D01*
G75*
G02*
X105900000Y-101450001I0J249999D01*
G01*
G37*
G36*
G01*
X107900000Y-90450001D02*
X107900000Y-89549999D01*
G75*
G02*
X108149999Y-89300000I249999J0D01*
G01*
X108850001Y-89300000D01*
G75*
G02*
X109100000Y-89549999I0J-249999D01*
G01*
X109100000Y-90450001D01*
G75*
G02*
X108850001Y-90700000I-249999J0D01*
G01*
X108149999Y-90700000D01*
G75*
G02*
X107900000Y-90450001I0J249999D01*
G01*
G37*
G36*
G01*
X105900000Y-90450001D02*
X105900000Y-89549999D01*
G75*
G02*
X106149999Y-89300000I249999J0D01*
G01*
X106850001Y-89300000D01*
G75*
G02*
X107100000Y-89549999I0J-249999D01*
G01*
X107100000Y-90450001D01*
G75*
G02*
X106850001Y-90700000I-249999J0D01*
G01*
X106149999Y-90700000D01*
G75*
G02*
X105900000Y-90450001I0J249999D01*
G01*
G37*
G36*
G01*
X107900000Y-79450001D02*
X107900000Y-78549999D01*
G75*
G02*
X108149999Y-78300000I249999J0D01*
G01*
X108850001Y-78300000D01*
G75*
G02*
X109100000Y-78549999I0J-249999D01*
G01*
X109100000Y-79450001D01*
G75*
G02*
X108850001Y-79700000I-249999J0D01*
G01*
X108149999Y-79700000D01*
G75*
G02*
X107900000Y-79450001I0J249999D01*
G01*
G37*
G36*
G01*
X105900000Y-79450001D02*
X105900000Y-78549999D01*
G75*
G02*
X106149999Y-78300000I249999J0D01*
G01*
X106850001Y-78300000D01*
G75*
G02*
X107100000Y-78549999I0J-249999D01*
G01*
X107100000Y-79450001D01*
G75*
G02*
X106850001Y-79700000I-249999J0D01*
G01*
X106149999Y-79700000D01*
G75*
G02*
X105900000Y-79450001I0J249999D01*
G01*
G37*
G36*
G01*
X107900000Y-68450001D02*
X107900000Y-67549999D01*
G75*
G02*
X108149999Y-67300000I249999J0D01*
G01*
X108850001Y-67300000D01*
G75*
G02*
X109100000Y-67549999I0J-249999D01*
G01*
X109100000Y-68450001D01*
G75*
G02*
X108850001Y-68700000I-249999J0D01*
G01*
X108149999Y-68700000D01*
G75*
G02*
X107900000Y-68450001I0J249999D01*
G01*
G37*
G36*
G01*
X105900000Y-68450001D02*
X105900000Y-67549999D01*
G75*
G02*
X106149999Y-67300000I249999J0D01*
G01*
X106850001Y-67300000D01*
G75*
G02*
X107100000Y-67549999I0J-249999D01*
G01*
X107100000Y-68450001D01*
G75*
G02*
X106850001Y-68700000I-249999J0D01*
G01*
X106149999Y-68700000D01*
G75*
G02*
X105900000Y-68450001I0J249999D01*
G01*
G37*
G36*
G01*
X107100000Y-104049999D02*
X107100000Y-104950001D01*
G75*
G02*
X106850001Y-105200000I-249999J0D01*
G01*
X106149999Y-105200000D01*
G75*
G02*
X105900000Y-104950001I0J249999D01*
G01*
X105900000Y-104049999D01*
G75*
G02*
X106149999Y-103800000I249999J0D01*
G01*
X106850001Y-103800000D01*
G75*
G02*
X107100000Y-104049999I0J-249999D01*
G01*
G37*
G36*
G01*
X109100000Y-104049999D02*
X109100000Y-104950001D01*
G75*
G02*
X108850001Y-105200000I-249999J0D01*
G01*
X108149999Y-105200000D01*
G75*
G02*
X107900000Y-104950001I0J249999D01*
G01*
X107900000Y-104049999D01*
G75*
G02*
X108149999Y-103800000I249999J0D01*
G01*
X108850001Y-103800000D01*
G75*
G02*
X109100000Y-104049999I0J-249999D01*
G01*
G37*
G36*
G01*
X107100000Y-93049999D02*
X107100000Y-93950001D01*
G75*
G02*
X106850001Y-94200000I-249999J0D01*
G01*
X106149999Y-94200000D01*
G75*
G02*
X105900000Y-93950001I0J249999D01*
G01*
X105900000Y-93049999D01*
G75*
G02*
X106149999Y-92800000I249999J0D01*
G01*
X106850001Y-92800000D01*
G75*
G02*
X107100000Y-93049999I0J-249999D01*
G01*
G37*
G36*
G01*
X109100000Y-93049999D02*
X109100000Y-93950001D01*
G75*
G02*
X108850001Y-94200000I-249999J0D01*
G01*
X108149999Y-94200000D01*
G75*
G02*
X107900000Y-93950001I0J249999D01*
G01*
X107900000Y-93049999D01*
G75*
G02*
X108149999Y-92800000I249999J0D01*
G01*
X108850001Y-92800000D01*
G75*
G02*
X109100000Y-93049999I0J-249999D01*
G01*
G37*
G36*
G01*
X107100000Y-82049999D02*
X107100000Y-82950001D01*
G75*
G02*
X106850001Y-83200000I-249999J0D01*
G01*
X106149999Y-83200000D01*
G75*
G02*
X105900000Y-82950001I0J249999D01*
G01*
X105900000Y-82049999D01*
G75*
G02*
X106149999Y-81800000I249999J0D01*
G01*
X106850001Y-81800000D01*
G75*
G02*
X107100000Y-82049999I0J-249999D01*
G01*
G37*
G36*
G01*
X109100000Y-82049999D02*
X109100000Y-82950001D01*
G75*
G02*
X108850001Y-83200000I-249999J0D01*
G01*
X108149999Y-83200000D01*
G75*
G02*
X107900000Y-82950001I0J249999D01*
G01*
X107900000Y-82049999D01*
G75*
G02*
X108149999Y-81800000I249999J0D01*
G01*
X108850001Y-81800000D01*
G75*
G02*
X109100000Y-82049999I0J-249999D01*
G01*
G37*
G36*
G01*
X107100000Y-71049999D02*
X107100000Y-71950001D01*
G75*
G02*
X106850001Y-72200000I-249999J0D01*
G01*
X106149999Y-72200000D01*
G75*
G02*
X105900000Y-71950001I0J249999D01*
G01*
X105900000Y-71049999D01*
G75*
G02*
X106149999Y-70800000I249999J0D01*
G01*
X106850001Y-70800000D01*
G75*
G02*
X107100000Y-71049999I0J-249999D01*
G01*
G37*
G36*
G01*
X109100000Y-71049999D02*
X109100000Y-71950001D01*
G75*
G02*
X108850001Y-72200000I-249999J0D01*
G01*
X108149999Y-72200000D01*
G75*
G02*
X107900000Y-71950001I0J249999D01*
G01*
X107900000Y-71049999D01*
G75*
G02*
X108149999Y-70800000I249999J0D01*
G01*
X108850001Y-70800000D01*
G75*
G02*
X109100000Y-71049999I0J-249999D01*
G01*
G37*
G36*
G01*
X107100000Y-60049999D02*
X107100000Y-60950001D01*
G75*
G02*
X106850001Y-61200000I-249999J0D01*
G01*
X106149999Y-61200000D01*
G75*
G02*
X105900000Y-60950001I0J249999D01*
G01*
X105900000Y-60049999D01*
G75*
G02*
X106149999Y-59800000I249999J0D01*
G01*
X106850001Y-59800000D01*
G75*
G02*
X107100000Y-60049999I0J-249999D01*
G01*
G37*
G36*
G01*
X109100000Y-60049999D02*
X109100000Y-60950001D01*
G75*
G02*
X108850001Y-61200000I-249999J0D01*
G01*
X108149999Y-61200000D01*
G75*
G02*
X107900000Y-60950001I0J249999D01*
G01*
X107900000Y-60049999D01*
G75*
G02*
X108149999Y-59800000I249999J0D01*
G01*
X108850001Y-59800000D01*
G75*
G02*
X109100000Y-60049999I0J-249999D01*
G01*
G37*
G36*
G01*
X91700400Y-106100000D02*
X90799600Y-106100000D01*
G75*
G02*
X90550000Y-105850400I0J249600D01*
G01*
X90550000Y-105149600D01*
G75*
G02*
X90799600Y-104900000I249600J0D01*
G01*
X91700400Y-104900000D01*
G75*
G02*
X91950000Y-105149600I0J-249600D01*
G01*
X91950000Y-105850400D01*
G75*
G02*
X91700400Y-106100000I-249600J0D01*
G01*
G37*
G36*
G01*
X91700400Y-108100000D02*
X90799600Y-108100000D01*
G75*
G02*
X90550000Y-107850400I0J249600D01*
G01*
X90550000Y-107149600D01*
G75*
G02*
X90799600Y-106900000I249600J0D01*
G01*
X91700400Y-106900000D01*
G75*
G02*
X91950000Y-107149600I0J-249600D01*
G01*
X91950000Y-107850400D01*
G75*
G02*
X91700400Y-108100000I-249600J0D01*
G01*
G37*
G36*
G01*
X91700400Y-95100000D02*
X90799600Y-95100000D01*
G75*
G02*
X90550000Y-94850400I0J249600D01*
G01*
X90550000Y-94149600D01*
G75*
G02*
X90799600Y-93900000I249600J0D01*
G01*
X91700400Y-93900000D01*
G75*
G02*
X91950000Y-94149600I0J-249600D01*
G01*
X91950000Y-94850400D01*
G75*
G02*
X91700400Y-95100000I-249600J0D01*
G01*
G37*
G36*
G01*
X91700400Y-97100000D02*
X90799600Y-97100000D01*
G75*
G02*
X90550000Y-96850400I0J249600D01*
G01*
X90550000Y-96149600D01*
G75*
G02*
X90799600Y-95900000I249600J0D01*
G01*
X91700400Y-95900000D01*
G75*
G02*
X91950000Y-96149600I0J-249600D01*
G01*
X91950000Y-96850400D01*
G75*
G02*
X91700400Y-97100000I-249600J0D01*
G01*
G37*
G36*
G01*
X91700400Y-84100000D02*
X90799600Y-84100000D01*
G75*
G02*
X90550000Y-83850400I0J249600D01*
G01*
X90550000Y-83149600D01*
G75*
G02*
X90799600Y-82900000I249600J0D01*
G01*
X91700400Y-82900000D01*
G75*
G02*
X91950000Y-83149600I0J-249600D01*
G01*
X91950000Y-83850400D01*
G75*
G02*
X91700400Y-84100000I-249600J0D01*
G01*
G37*
G36*
G01*
X91700400Y-86100000D02*
X90799600Y-86100000D01*
G75*
G02*
X90550000Y-85850400I0J249600D01*
G01*
X90550000Y-85149600D01*
G75*
G02*
X90799600Y-84900000I249600J0D01*
G01*
X91700400Y-84900000D01*
G75*
G02*
X91950000Y-85149600I0J-249600D01*
G01*
X91950000Y-85850400D01*
G75*
G02*
X91700400Y-86100000I-249600J0D01*
G01*
G37*
G36*
G01*
X91700400Y-73100000D02*
X90799600Y-73100000D01*
G75*
G02*
X90550000Y-72850400I0J249600D01*
G01*
X90550000Y-72149600D01*
G75*
G02*
X90799600Y-71900000I249600J0D01*
G01*
X91700400Y-71900000D01*
G75*
G02*
X91950000Y-72149600I0J-249600D01*
G01*
X91950000Y-72850400D01*
G75*
G02*
X91700400Y-73100000I-249600J0D01*
G01*
G37*
G36*
G01*
X91700400Y-75100000D02*
X90799600Y-75100000D01*
G75*
G02*
X90550000Y-74850400I0J249600D01*
G01*
X90550000Y-74149600D01*
G75*
G02*
X90799600Y-73900000I249600J0D01*
G01*
X91700400Y-73900000D01*
G75*
G02*
X91950000Y-74149600I0J-249600D01*
G01*
X91950000Y-74850400D01*
G75*
G02*
X91700400Y-75100000I-249600J0D01*
G01*
G37*
G36*
G01*
X91700400Y-62100000D02*
X90799600Y-62100000D01*
G75*
G02*
X90550000Y-61850400I0J249600D01*
G01*
X90550000Y-61149600D01*
G75*
G02*
X90799600Y-60900000I249600J0D01*
G01*
X91700400Y-60900000D01*
G75*
G02*
X91950000Y-61149600I0J-249600D01*
G01*
X91950000Y-61850400D01*
G75*
G02*
X91700400Y-62100000I-249600J0D01*
G01*
G37*
G36*
G01*
X91700400Y-64100000D02*
X90799600Y-64100000D01*
G75*
G02*
X90550000Y-63850400I0J249600D01*
G01*
X90550000Y-63149600D01*
G75*
G02*
X90799600Y-62900000I249600J0D01*
G01*
X91700400Y-62900000D01*
G75*
G02*
X91950000Y-63149600I0J-249600D01*
G01*
X91950000Y-63850400D01*
G75*
G02*
X91700400Y-64100000I-249600J0D01*
G01*
G37*
G36*
G01*
X203100000Y-58299999D02*
X203100000Y-59200001D01*
G75*
G02*
X202850001Y-59450000I-249999J0D01*
G01*
X202149999Y-59450000D01*
G75*
G02*
X201900000Y-59200001I0J249999D01*
G01*
X201900000Y-58299999D01*
G75*
G02*
X202149999Y-58050000I249999J0D01*
G01*
X202850001Y-58050000D01*
G75*
G02*
X203100000Y-58299999I0J-249999D01*
G01*
G37*
G36*
G01*
X201100000Y-58299999D02*
X201100000Y-59200001D01*
G75*
G02*
X200850001Y-59450000I-249999J0D01*
G01*
X200149999Y-59450000D01*
G75*
G02*
X199900000Y-59200001I0J249999D01*
G01*
X199900000Y-58299999D01*
G75*
G02*
X200149999Y-58050000I249999J0D01*
G01*
X200850001Y-58050000D01*
G75*
G02*
X201100000Y-58299999I0J-249999D01*
G01*
G37*
G36*
G01*
X87299999Y-86400000D02*
X88200001Y-86400000D01*
G75*
G02*
X88450000Y-86649999I0J-249999D01*
G01*
X88450000Y-87350001D01*
G75*
G02*
X88200001Y-87600000I-249999J0D01*
G01*
X87299999Y-87600000D01*
G75*
G02*
X87050000Y-87350001I0J249999D01*
G01*
X87050000Y-86649999D01*
G75*
G02*
X87299999Y-86400000I249999J0D01*
G01*
G37*
G36*
G01*
X87299999Y-88400000D02*
X88200001Y-88400000D01*
G75*
G02*
X88450000Y-88649999I0J-249999D01*
G01*
X88450000Y-89350001D01*
G75*
G02*
X88200001Y-89600000I-249999J0D01*
G01*
X87299999Y-89600000D01*
G75*
G02*
X87050000Y-89350001I0J249999D01*
G01*
X87050000Y-88649999D01*
G75*
G02*
X87299999Y-88400000I249999J0D01*
G01*
G37*
G36*
G01*
X87299999Y-83900000D02*
X88200001Y-83900000D01*
G75*
G02*
X88450000Y-84149999I0J-249999D01*
G01*
X88450000Y-84850001D01*
G75*
G02*
X88200001Y-85100000I-249999J0D01*
G01*
X87299999Y-85100000D01*
G75*
G02*
X87050000Y-84850001I0J249999D01*
G01*
X87050000Y-84149999D01*
G75*
G02*
X87299999Y-83900000I249999J0D01*
G01*
G37*
G36*
G01*
X87299999Y-81900000D02*
X88200001Y-81900000D01*
G75*
G02*
X88450000Y-82149999I0J-249999D01*
G01*
X88450000Y-82850001D01*
G75*
G02*
X88200001Y-83100000I-249999J0D01*
G01*
X87299999Y-83100000D01*
G75*
G02*
X87050000Y-82850001I0J249999D01*
G01*
X87050000Y-82149999D01*
G75*
G02*
X87299999Y-81900000I249999J0D01*
G01*
G37*
G36*
G01*
X161900000Y-63200400D02*
X161900000Y-62299600D01*
G75*
G02*
X162149600Y-62050000I249600J0D01*
G01*
X162850400Y-62050000D01*
G75*
G02*
X163100000Y-62299600I0J-249600D01*
G01*
X163100000Y-63200400D01*
G75*
G02*
X162850400Y-63450000I-249600J0D01*
G01*
X162149600Y-63450000D01*
G75*
G02*
X161900000Y-63200400I0J249600D01*
G01*
G37*
G36*
G01*
X163900000Y-63200400D02*
X163900000Y-62299600D01*
G75*
G02*
X164149600Y-62050000I249600J0D01*
G01*
X164850400Y-62050000D01*
G75*
G02*
X165100000Y-62299600I0J-249600D01*
G01*
X165100000Y-63200400D01*
G75*
G02*
X164850400Y-63450000I-249600J0D01*
G01*
X164149600Y-63450000D01*
G75*
G02*
X163900000Y-63200400I0J249600D01*
G01*
G37*
G36*
G01*
X199900000Y-65200001D02*
X199900000Y-64299999D01*
G75*
G02*
X200149999Y-64050000I249999J0D01*
G01*
X200850001Y-64050000D01*
G75*
G02*
X201100000Y-64299999I0J-249999D01*
G01*
X201100000Y-65200001D01*
G75*
G02*
X200850001Y-65450000I-249999J0D01*
G01*
X200149999Y-65450000D01*
G75*
G02*
X199900000Y-65200001I0J249999D01*
G01*
G37*
G36*
G01*
X201900000Y-65200001D02*
X201900000Y-64299999D01*
G75*
G02*
X202149999Y-64050000I249999J0D01*
G01*
X202850001Y-64050000D01*
G75*
G02*
X203100000Y-64299999I0J-249999D01*
G01*
X203100000Y-65200001D01*
G75*
G02*
X202850001Y-65450000I-249999J0D01*
G01*
X202149999Y-65450000D01*
G75*
G02*
X201900000Y-65200001I0J249999D01*
G01*
G37*
G36*
G01*
X201900000Y-62200001D02*
X201900000Y-61299999D01*
G75*
G02*
X202149999Y-61050000I249999J0D01*
G01*
X202850001Y-61050000D01*
G75*
G02*
X203100000Y-61299999I0J-249999D01*
G01*
X203100000Y-62200001D01*
G75*
G02*
X202850001Y-62450000I-249999J0D01*
G01*
X202149999Y-62450000D01*
G75*
G02*
X201900000Y-62200001I0J249999D01*
G01*
G37*
G36*
G01*
X199900000Y-62200001D02*
X199900000Y-61299999D01*
G75*
G02*
X200149999Y-61050000I249999J0D01*
G01*
X200850001Y-61050000D01*
G75*
G02*
X201100000Y-61299999I0J-249999D01*
G01*
X201100000Y-62200001D01*
G75*
G02*
X200850001Y-62450000I-249999J0D01*
G01*
X200149999Y-62450000D01*
G75*
G02*
X199900000Y-62200001I0J249999D01*
G01*
G37*
G36*
G01*
X196100000Y-61299999D02*
X196100000Y-62200001D01*
G75*
G02*
X195850001Y-62450000I-249999J0D01*
G01*
X195149999Y-62450000D01*
G75*
G02*
X194900000Y-62200001I0J249999D01*
G01*
X194900000Y-61299999D01*
G75*
G02*
X195149999Y-61050000I249999J0D01*
G01*
X195850001Y-61050000D01*
G75*
G02*
X196100000Y-61299999I0J-249999D01*
G01*
G37*
G36*
G01*
X198100000Y-61299999D02*
X198100000Y-62200001D01*
G75*
G02*
X197850001Y-62450000I-249999J0D01*
G01*
X197149999Y-62450000D01*
G75*
G02*
X196900000Y-62200001I0J249999D01*
G01*
X196900000Y-61299999D01*
G75*
G02*
X197149999Y-61050000I249999J0D01*
G01*
X197850001Y-61050000D01*
G75*
G02*
X198100000Y-61299999I0J-249999D01*
G01*
G37*
G36*
G01*
X194900000Y-65200001D02*
X194900000Y-64299999D01*
G75*
G02*
X195149999Y-64050000I249999J0D01*
G01*
X195850001Y-64050000D01*
G75*
G02*
X196100000Y-64299999I0J-249999D01*
G01*
X196100000Y-65200001D01*
G75*
G02*
X195850001Y-65450000I-249999J0D01*
G01*
X195149999Y-65450000D01*
G75*
G02*
X194900000Y-65200001I0J249999D01*
G01*
G37*
G36*
G01*
X196900000Y-65200001D02*
X196900000Y-64299999D01*
G75*
G02*
X197149999Y-64050000I249999J0D01*
G01*
X197850001Y-64050000D01*
G75*
G02*
X198100000Y-64299999I0J-249999D01*
G01*
X198100000Y-65200001D01*
G75*
G02*
X197850001Y-65450000I-249999J0D01*
G01*
X197149999Y-65450000D01*
G75*
G02*
X196900000Y-65200001I0J249999D01*
G01*
G37*
G36*
G01*
X194900000Y-59200001D02*
X194900000Y-58299999D01*
G75*
G02*
X195149999Y-58050000I249999J0D01*
G01*
X195850001Y-58050000D01*
G75*
G02*
X196100000Y-58299999I0J-249999D01*
G01*
X196100000Y-59200001D01*
G75*
G02*
X195850001Y-59450000I-249999J0D01*
G01*
X195149999Y-59450000D01*
G75*
G02*
X194900000Y-59200001I0J249999D01*
G01*
G37*
G36*
G01*
X196900000Y-59200001D02*
X196900000Y-58299999D01*
G75*
G02*
X197149999Y-58050000I249999J0D01*
G01*
X197850001Y-58050000D01*
G75*
G02*
X198100000Y-58299999I0J-249999D01*
G01*
X198100000Y-59200001D01*
G75*
G02*
X197850001Y-59450000I-249999J0D01*
G01*
X197149999Y-59450000D01*
G75*
G02*
X196900000Y-59200001I0J249999D01*
G01*
G37*
D17*
X72750000Y-91700000D03*
X72750000Y-81800000D03*
G36*
G01*
X76399999Y-97650000D02*
X78600001Y-97650000D01*
G75*
G02*
X78850000Y-97899999I0J-249999D01*
G01*
X78850000Y-98550001D01*
G75*
G02*
X78600001Y-98800000I-249999J0D01*
G01*
X76399999Y-98800000D01*
G75*
G02*
X76150000Y-98550001I0J249999D01*
G01*
X76150000Y-97899999D01*
G75*
G02*
X76399999Y-97650000I249999J0D01*
G01*
G37*
G36*
G01*
X76399999Y-94700000D02*
X78600001Y-94700000D01*
G75*
G02*
X78850000Y-94949999I0J-249999D01*
G01*
X78850000Y-95600001D01*
G75*
G02*
X78600001Y-95850000I-249999J0D01*
G01*
X76399999Y-95850000D01*
G75*
G02*
X76150000Y-95600001I0J249999D01*
G01*
X76150000Y-94949999D01*
G75*
G02*
X76399999Y-94700000I249999J0D01*
G01*
G37*
G36*
G01*
X71649999Y-97650000D02*
X73850001Y-97650000D01*
G75*
G02*
X74100000Y-97899999I0J-249999D01*
G01*
X74100000Y-98550001D01*
G75*
G02*
X73850001Y-98800000I-249999J0D01*
G01*
X71649999Y-98800000D01*
G75*
G02*
X71400000Y-98550001I0J249999D01*
G01*
X71400000Y-97899999D01*
G75*
G02*
X71649999Y-97650000I249999J0D01*
G01*
G37*
G36*
G01*
X71649999Y-94700000D02*
X73850001Y-94700000D01*
G75*
G02*
X74100000Y-94949999I0J-249999D01*
G01*
X74100000Y-95600001D01*
G75*
G02*
X73850001Y-95850000I-249999J0D01*
G01*
X71649999Y-95850000D01*
G75*
G02*
X71400000Y-95600001I0J249999D01*
G01*
X71400000Y-94949999D01*
G75*
G02*
X71649999Y-94700000I249999J0D01*
G01*
G37*
G36*
G01*
X66899999Y-97650000D02*
X69100001Y-97650000D01*
G75*
G02*
X69350000Y-97899999I0J-249999D01*
G01*
X69350000Y-98550001D01*
G75*
G02*
X69100001Y-98800000I-249999J0D01*
G01*
X66899999Y-98800000D01*
G75*
G02*
X66650000Y-98550001I0J249999D01*
G01*
X66650000Y-97899999D01*
G75*
G02*
X66899999Y-97650000I249999J0D01*
G01*
G37*
G36*
G01*
X66899999Y-94700000D02*
X69100001Y-94700000D01*
G75*
G02*
X69350000Y-94949999I0J-249999D01*
G01*
X69350000Y-95600001D01*
G75*
G02*
X69100001Y-95850000I-249999J0D01*
G01*
X66899999Y-95850000D01*
G75*
G02*
X66650000Y-95600001I0J249999D01*
G01*
X66650000Y-94949999D01*
G75*
G02*
X66899999Y-94700000I249999J0D01*
G01*
G37*
G36*
G01*
X164950000Y-53275000D02*
X164950000Y-54225000D01*
G75*
G02*
X164700000Y-54475000I-250000J0D01*
G01*
X164200000Y-54475000D01*
G75*
G02*
X163950000Y-54225000I0J250000D01*
G01*
X163950000Y-53275000D01*
G75*
G02*
X164200000Y-53025000I250000J0D01*
G01*
X164700000Y-53025000D01*
G75*
G02*
X164950000Y-53275000I0J-250000D01*
G01*
G37*
G36*
G01*
X163050000Y-53275000D02*
X163050000Y-54225000D01*
G75*
G02*
X162800000Y-54475000I-250000J0D01*
G01*
X162300000Y-54475000D01*
G75*
G02*
X162050000Y-54225000I0J250000D01*
G01*
X162050000Y-53275000D01*
G75*
G02*
X162300000Y-53025000I250000J0D01*
G01*
X162800000Y-53025000D01*
G75*
G02*
X163050000Y-53275000I0J-250000D01*
G01*
G37*
G36*
G01*
X163775000Y-50450000D02*
X164725000Y-50450000D01*
G75*
G02*
X164975000Y-50700000I0J-250000D01*
G01*
X164975000Y-51200000D01*
G75*
G02*
X164725000Y-51450000I-250000J0D01*
G01*
X163775000Y-51450000D01*
G75*
G02*
X163525000Y-51200000I0J250000D01*
G01*
X163525000Y-50700000D01*
G75*
G02*
X163775000Y-50450000I250000J0D01*
G01*
G37*
G36*
G01*
X163775000Y-48550000D02*
X164725000Y-48550000D01*
G75*
G02*
X164975000Y-48800000I0J-250000D01*
G01*
X164975000Y-49300000D01*
G75*
G02*
X164725000Y-49550000I-250000J0D01*
G01*
X163775000Y-49550000D01*
G75*
G02*
X163525000Y-49300000I0J250000D01*
G01*
X163525000Y-48800000D01*
G75*
G02*
X163775000Y-48550000I250000J0D01*
G01*
G37*
G36*
G01*
X205970000Y-88885000D02*
X205970000Y-89125000D01*
G75*
G02*
X205850000Y-89245000I-120000J0D01*
G01*
X204450000Y-89245000D01*
G75*
G02*
X204330000Y-89125000I0J120000D01*
G01*
X204330000Y-88885000D01*
G75*
G02*
X204450000Y-88765000I120000J0D01*
G01*
X205850000Y-88765000D01*
G75*
G02*
X205970000Y-88885000I0J-120000D01*
G01*
G37*
G36*
G01*
X205970000Y-87615000D02*
X205970000Y-87855000D01*
G75*
G02*
X205850000Y-87975000I-120000J0D01*
G01*
X204450000Y-87975000D01*
G75*
G02*
X204330000Y-87855000I0J120000D01*
G01*
X204330000Y-87615000D01*
G75*
G02*
X204450000Y-87495000I120000J0D01*
G01*
X205850000Y-87495000D01*
G75*
G02*
X205970000Y-87615000I0J-120000D01*
G01*
G37*
G36*
G01*
X205970000Y-86345000D02*
X205970000Y-86585000D01*
G75*
G02*
X205850000Y-86705000I-120000J0D01*
G01*
X204450000Y-86705000D01*
G75*
G02*
X204330000Y-86585000I0J120000D01*
G01*
X204330000Y-86345000D01*
G75*
G02*
X204450000Y-86225000I120000J0D01*
G01*
X205850000Y-86225000D01*
G75*
G02*
X205970000Y-86345000I0J-120000D01*
G01*
G37*
G36*
G01*
X205970000Y-85075000D02*
X205970000Y-85315000D01*
G75*
G02*
X205850000Y-85435000I-120000J0D01*
G01*
X204450000Y-85435000D01*
G75*
G02*
X204330000Y-85315000I0J120000D01*
G01*
X204330000Y-85075000D01*
G75*
G02*
X204450000Y-84955000I120000J0D01*
G01*
X205850000Y-84955000D01*
G75*
G02*
X205970000Y-85075000I0J-120000D01*
G01*
G37*
G36*
G01*
X205970000Y-83805000D02*
X205970000Y-84045000D01*
G75*
G02*
X205850000Y-84165000I-120000J0D01*
G01*
X204450000Y-84165000D01*
G75*
G02*
X204330000Y-84045000I0J120000D01*
G01*
X204330000Y-83805000D01*
G75*
G02*
X204450000Y-83685000I120000J0D01*
G01*
X205850000Y-83685000D01*
G75*
G02*
X205970000Y-83805000I0J-120000D01*
G01*
G37*
G36*
G01*
X205970000Y-82535000D02*
X205970000Y-82775000D01*
G75*
G02*
X205850000Y-82895000I-120000J0D01*
G01*
X204450000Y-82895000D01*
G75*
G02*
X204330000Y-82775000I0J120000D01*
G01*
X204330000Y-82535000D01*
G75*
G02*
X204450000Y-82415000I120000J0D01*
G01*
X205850000Y-82415000D01*
G75*
G02*
X205970000Y-82535000I0J-120000D01*
G01*
G37*
G36*
G01*
X205970000Y-81265000D02*
X205970000Y-81505000D01*
G75*
G02*
X205850000Y-81625000I-120000J0D01*
G01*
X204450000Y-81625000D01*
G75*
G02*
X204330000Y-81505000I0J120000D01*
G01*
X204330000Y-81265000D01*
G75*
G02*
X204450000Y-81145000I120000J0D01*
G01*
X205850000Y-81145000D01*
G75*
G02*
X205970000Y-81265000I0J-120000D01*
G01*
G37*
G36*
G01*
X205970000Y-79995000D02*
X205970000Y-80235000D01*
G75*
G02*
X205850000Y-80355000I-120000J0D01*
G01*
X204450000Y-80355000D01*
G75*
G02*
X204330000Y-80235000I0J120000D01*
G01*
X204330000Y-79995000D01*
G75*
G02*
X204450000Y-79875000I120000J0D01*
G01*
X205850000Y-79875000D01*
G75*
G02*
X205970000Y-79995000I0J-120000D01*
G01*
G37*
G36*
G01*
X205970000Y-78725000D02*
X205970000Y-78965000D01*
G75*
G02*
X205850000Y-79085000I-120000J0D01*
G01*
X204450000Y-79085000D01*
G75*
G02*
X204330000Y-78965000I0J120000D01*
G01*
X204330000Y-78725000D01*
G75*
G02*
X204450000Y-78605000I120000J0D01*
G01*
X205850000Y-78605000D01*
G75*
G02*
X205970000Y-78725000I0J-120000D01*
G01*
G37*
G36*
G01*
X205970000Y-77455000D02*
X205970000Y-77695000D01*
G75*
G02*
X205850000Y-77815000I-120000J0D01*
G01*
X204450000Y-77815000D01*
G75*
G02*
X204330000Y-77695000I0J120000D01*
G01*
X204330000Y-77455000D01*
G75*
G02*
X204450000Y-77335000I120000J0D01*
G01*
X205850000Y-77335000D01*
G75*
G02*
X205970000Y-77455000I0J-120000D01*
G01*
G37*
G36*
G01*
X205970000Y-76185000D02*
X205970000Y-76425000D01*
G75*
G02*
X205850000Y-76545000I-120000J0D01*
G01*
X204450000Y-76545000D01*
G75*
G02*
X204330000Y-76425000I0J120000D01*
G01*
X204330000Y-76185000D01*
G75*
G02*
X204450000Y-76065000I120000J0D01*
G01*
X205850000Y-76065000D01*
G75*
G02*
X205970000Y-76185000I0J-120000D01*
G01*
G37*
G36*
G01*
X205970000Y-74915000D02*
X205970000Y-75155000D01*
G75*
G02*
X205850000Y-75275000I-120000J0D01*
G01*
X204450000Y-75275000D01*
G75*
G02*
X204330000Y-75155000I0J120000D01*
G01*
X204330000Y-74915000D01*
G75*
G02*
X204450000Y-74795000I120000J0D01*
G01*
X205850000Y-74795000D01*
G75*
G02*
X205970000Y-74915000I0J-120000D01*
G01*
G37*
G36*
G01*
X205970000Y-73645000D02*
X205970000Y-73885000D01*
G75*
G02*
X205850000Y-74005000I-120000J0D01*
G01*
X204450000Y-74005000D01*
G75*
G02*
X204330000Y-73885000I0J120000D01*
G01*
X204330000Y-73645000D01*
G75*
G02*
X204450000Y-73525000I120000J0D01*
G01*
X205850000Y-73525000D01*
G75*
G02*
X205970000Y-73645000I0J-120000D01*
G01*
G37*
G36*
G01*
X205970000Y-72375000D02*
X205970000Y-72615000D01*
G75*
G02*
X205850000Y-72735000I-120000J0D01*
G01*
X204450000Y-72735000D01*
G75*
G02*
X204330000Y-72615000I0J120000D01*
G01*
X204330000Y-72375000D01*
G75*
G02*
X204450000Y-72255000I120000J0D01*
G01*
X205850000Y-72255000D01*
G75*
G02*
X205970000Y-72375000I0J-120000D01*
G01*
G37*
G36*
G01*
X196670000Y-72375000D02*
X196670000Y-72615000D01*
G75*
G02*
X196550000Y-72735000I-120000J0D01*
G01*
X195150000Y-72735000D01*
G75*
G02*
X195030000Y-72615000I0J120000D01*
G01*
X195030000Y-72375000D01*
G75*
G02*
X195150000Y-72255000I120000J0D01*
G01*
X196550000Y-72255000D01*
G75*
G02*
X196670000Y-72375000I0J-120000D01*
G01*
G37*
G36*
G01*
X196670000Y-73645000D02*
X196670000Y-73885000D01*
G75*
G02*
X196550000Y-74005000I-120000J0D01*
G01*
X195150000Y-74005000D01*
G75*
G02*
X195030000Y-73885000I0J120000D01*
G01*
X195030000Y-73645000D01*
G75*
G02*
X195150000Y-73525000I120000J0D01*
G01*
X196550000Y-73525000D01*
G75*
G02*
X196670000Y-73645000I0J-120000D01*
G01*
G37*
G36*
G01*
X196670000Y-74915000D02*
X196670000Y-75155000D01*
G75*
G02*
X196550000Y-75275000I-120000J0D01*
G01*
X195150000Y-75275000D01*
G75*
G02*
X195030000Y-75155000I0J120000D01*
G01*
X195030000Y-74915000D01*
G75*
G02*
X195150000Y-74795000I120000J0D01*
G01*
X196550000Y-74795000D01*
G75*
G02*
X196670000Y-74915000I0J-120000D01*
G01*
G37*
G36*
G01*
X196670000Y-76185000D02*
X196670000Y-76425000D01*
G75*
G02*
X196550000Y-76545000I-120000J0D01*
G01*
X195150000Y-76545000D01*
G75*
G02*
X195030000Y-76425000I0J120000D01*
G01*
X195030000Y-76185000D01*
G75*
G02*
X195150000Y-76065000I120000J0D01*
G01*
X196550000Y-76065000D01*
G75*
G02*
X196670000Y-76185000I0J-120000D01*
G01*
G37*
G36*
G01*
X196670000Y-77455000D02*
X196670000Y-77695000D01*
G75*
G02*
X196550000Y-77815000I-120000J0D01*
G01*
X195150000Y-77815000D01*
G75*
G02*
X195030000Y-77695000I0J120000D01*
G01*
X195030000Y-77455000D01*
G75*
G02*
X195150000Y-77335000I120000J0D01*
G01*
X196550000Y-77335000D01*
G75*
G02*
X196670000Y-77455000I0J-120000D01*
G01*
G37*
G36*
G01*
X196670000Y-78725000D02*
X196670000Y-78965000D01*
G75*
G02*
X196550000Y-79085000I-120000J0D01*
G01*
X195150000Y-79085000D01*
G75*
G02*
X195030000Y-78965000I0J120000D01*
G01*
X195030000Y-78725000D01*
G75*
G02*
X195150000Y-78605000I120000J0D01*
G01*
X196550000Y-78605000D01*
G75*
G02*
X196670000Y-78725000I0J-120000D01*
G01*
G37*
G36*
G01*
X196670000Y-79995000D02*
X196670000Y-80235000D01*
G75*
G02*
X196550000Y-80355000I-120000J0D01*
G01*
X195150000Y-80355000D01*
G75*
G02*
X195030000Y-80235000I0J120000D01*
G01*
X195030000Y-79995000D01*
G75*
G02*
X195150000Y-79875000I120000J0D01*
G01*
X196550000Y-79875000D01*
G75*
G02*
X196670000Y-79995000I0J-120000D01*
G01*
G37*
G36*
G01*
X196670000Y-81265000D02*
X196670000Y-81505000D01*
G75*
G02*
X196550000Y-81625000I-120000J0D01*
G01*
X195150000Y-81625000D01*
G75*
G02*
X195030000Y-81505000I0J120000D01*
G01*
X195030000Y-81265000D01*
G75*
G02*
X195150000Y-81145000I120000J0D01*
G01*
X196550000Y-81145000D01*
G75*
G02*
X196670000Y-81265000I0J-120000D01*
G01*
G37*
G36*
G01*
X196670000Y-82535000D02*
X196670000Y-82775000D01*
G75*
G02*
X196550000Y-82895000I-120000J0D01*
G01*
X195150000Y-82895000D01*
G75*
G02*
X195030000Y-82775000I0J120000D01*
G01*
X195030000Y-82535000D01*
G75*
G02*
X195150000Y-82415000I120000J0D01*
G01*
X196550000Y-82415000D01*
G75*
G02*
X196670000Y-82535000I0J-120000D01*
G01*
G37*
G36*
G01*
X196670000Y-83805000D02*
X196670000Y-84045000D01*
G75*
G02*
X196550000Y-84165000I-120000J0D01*
G01*
X195150000Y-84165000D01*
G75*
G02*
X195030000Y-84045000I0J120000D01*
G01*
X195030000Y-83805000D01*
G75*
G02*
X195150000Y-83685000I120000J0D01*
G01*
X196550000Y-83685000D01*
G75*
G02*
X196670000Y-83805000I0J-120000D01*
G01*
G37*
G36*
G01*
X196670000Y-85075000D02*
X196670000Y-85315000D01*
G75*
G02*
X196550000Y-85435000I-120000J0D01*
G01*
X195150000Y-85435000D01*
G75*
G02*
X195030000Y-85315000I0J120000D01*
G01*
X195030000Y-85075000D01*
G75*
G02*
X195150000Y-84955000I120000J0D01*
G01*
X196550000Y-84955000D01*
G75*
G02*
X196670000Y-85075000I0J-120000D01*
G01*
G37*
G36*
G01*
X196670000Y-86345000D02*
X196670000Y-86585000D01*
G75*
G02*
X196550000Y-86705000I-120000J0D01*
G01*
X195150000Y-86705000D01*
G75*
G02*
X195030000Y-86585000I0J120000D01*
G01*
X195030000Y-86345000D01*
G75*
G02*
X195150000Y-86225000I120000J0D01*
G01*
X196550000Y-86225000D01*
G75*
G02*
X196670000Y-86345000I0J-120000D01*
G01*
G37*
G36*
G01*
X196670000Y-87615000D02*
X196670000Y-87855000D01*
G75*
G02*
X196550000Y-87975000I-120000J0D01*
G01*
X195150000Y-87975000D01*
G75*
G02*
X195030000Y-87855000I0J120000D01*
G01*
X195030000Y-87615000D01*
G75*
G02*
X195150000Y-87495000I120000J0D01*
G01*
X196550000Y-87495000D01*
G75*
G02*
X196670000Y-87615000I0J-120000D01*
G01*
G37*
G36*
G01*
X196670000Y-88885000D02*
X196670000Y-89125000D01*
G75*
G02*
X196550000Y-89245000I-120000J0D01*
G01*
X195150000Y-89245000D01*
G75*
G02*
X195030000Y-89125000I0J120000D01*
G01*
X195030000Y-88885000D01*
G75*
G02*
X195150000Y-88765000I120000J0D01*
G01*
X196550000Y-88765000D01*
G75*
G02*
X196670000Y-88885000I0J-120000D01*
G01*
G37*
D18*
X225775000Y-108025000D03*
X226425000Y-108025000D03*
X227075000Y-108025000D03*
X227725000Y-108025000D03*
X227725000Y-105975000D03*
X227075000Y-105975000D03*
X226425000Y-105975000D03*
X225775000Y-105975000D03*
D19*
X221750000Y-107000000D03*
D20*
X222700000Y-106525000D03*
X220800000Y-107475000D03*
X220800000Y-106525000D03*
X222700000Y-107475000D03*
G36*
G01*
X217787500Y-107565000D02*
X217787500Y-107735000D01*
G75*
G02*
X217712500Y-107810000I-75000J0D01*
G01*
X217562500Y-107810000D01*
G75*
G02*
X217487500Y-107735000I0J75000D01*
G01*
X217487500Y-107565000D01*
G75*
G02*
X217562500Y-107490000I75000J0D01*
G01*
X217712500Y-107490000D01*
G75*
G02*
X217787500Y-107565000I0J-75000D01*
G01*
G37*
G36*
G01*
X217787500Y-106915000D02*
X217787500Y-107085000D01*
G75*
G02*
X217712500Y-107160000I-75000J0D01*
G01*
X217562500Y-107160000D01*
G75*
G02*
X217487500Y-107085000I0J75000D01*
G01*
X217487500Y-106915000D01*
G75*
G02*
X217562500Y-106840000I75000J0D01*
G01*
X217712500Y-106840000D01*
G75*
G02*
X217787500Y-106915000I0J-75000D01*
G01*
G37*
G36*
G01*
X217787500Y-106265000D02*
X217787500Y-106435000D01*
G75*
G02*
X217712500Y-106510000I-75000J0D01*
G01*
X217562500Y-106510000D01*
G75*
G02*
X217487500Y-106435000I0J75000D01*
G01*
X217487500Y-106265000D01*
G75*
G02*
X217562500Y-106190000I75000J0D01*
G01*
X217712500Y-106190000D01*
G75*
G02*
X217787500Y-106265000I0J-75000D01*
G01*
G37*
G36*
G01*
X216012500Y-106265000D02*
X216012500Y-106435000D01*
G75*
G02*
X215937500Y-106510000I-75000J0D01*
G01*
X215787500Y-106510000D01*
G75*
G02*
X215712500Y-106435000I0J75000D01*
G01*
X215712500Y-106265000D01*
G75*
G02*
X215787500Y-106190000I75000J0D01*
G01*
X215937500Y-106190000D01*
G75*
G02*
X216012500Y-106265000I0J-75000D01*
G01*
G37*
G36*
G01*
X216012500Y-106915000D02*
X216012500Y-107085000D01*
G75*
G02*
X215937500Y-107160000I-75000J0D01*
G01*
X215787500Y-107160000D01*
G75*
G02*
X215712500Y-107085000I0J75000D01*
G01*
X215712500Y-106915000D01*
G75*
G02*
X215787500Y-106840000I75000J0D01*
G01*
X215937500Y-106840000D01*
G75*
G02*
X216012500Y-106915000I0J-75000D01*
G01*
G37*
G36*
G01*
X216012500Y-107565000D02*
X216012500Y-107735000D01*
G75*
G02*
X215937500Y-107810000I-75000J0D01*
G01*
X215787500Y-107810000D01*
G75*
G02*
X215712500Y-107735000I0J75000D01*
G01*
X215712500Y-107565000D01*
G75*
G02*
X215787500Y-107490000I75000J0D01*
G01*
X215937500Y-107490000D01*
G75*
G02*
X216012500Y-107565000I0J-75000D01*
G01*
G37*
G36*
G01*
X217155000Y-107240000D02*
X217155000Y-107560000D01*
G75*
G02*
X216995000Y-107720000I-160000J0D01*
G01*
X216505000Y-107720000D01*
G75*
G02*
X216345000Y-107560000I0J160000D01*
G01*
X216345000Y-107240000D01*
G75*
G02*
X216505000Y-107080000I160000J0D01*
G01*
X216995000Y-107080000D01*
G75*
G02*
X217155000Y-107240000I0J-160000D01*
G01*
G37*
G36*
G01*
X217155000Y-106440000D02*
X217155000Y-106760000D01*
G75*
G02*
X216995000Y-106920000I-160000J0D01*
G01*
X216505000Y-106920000D01*
G75*
G02*
X216345000Y-106760000I0J160000D01*
G01*
X216345000Y-106440000D01*
G75*
G02*
X216505000Y-106280000I160000J0D01*
G01*
X216995000Y-106280000D01*
G75*
G02*
X217155000Y-106440000I0J-160000D01*
G01*
G37*
G36*
G01*
X82050000Y-95025000D02*
X82050000Y-95975000D01*
G75*
G02*
X81800000Y-96225000I-250000J0D01*
G01*
X81300000Y-96225000D01*
G75*
G02*
X81050000Y-95975000I0J250000D01*
G01*
X81050000Y-95025000D01*
G75*
G02*
X81300000Y-94775000I250000J0D01*
G01*
X81800000Y-94775000D01*
G75*
G02*
X82050000Y-95025000I0J-250000D01*
G01*
G37*
G36*
G01*
X83950000Y-95025000D02*
X83950000Y-95975000D01*
G75*
G02*
X83700000Y-96225000I-250000J0D01*
G01*
X83200000Y-96225000D01*
G75*
G02*
X82950000Y-95975000I0J250000D01*
G01*
X82950000Y-95025000D01*
G75*
G02*
X83200000Y-94775000I250000J0D01*
G01*
X83700000Y-94775000D01*
G75*
G02*
X83950000Y-95025000I0J-250000D01*
G01*
G37*
D21*
X94235000Y-60960000D03*
X103765000Y-66040000D03*
X94235000Y-63500000D03*
X103765000Y-63500000D03*
X94235000Y-66040000D03*
X103765000Y-60960000D03*
X94235000Y-82960000D03*
X103765000Y-88040000D03*
X94235000Y-85500000D03*
X103765000Y-85500000D03*
X94235000Y-88040000D03*
X103765000Y-82960000D03*
X94235000Y-71960000D03*
X103765000Y-77040000D03*
X94235000Y-74500000D03*
X103765000Y-74500000D03*
X94235000Y-77040000D03*
X103765000Y-71960000D03*
X94235000Y-104960000D03*
X103765000Y-110040000D03*
X94235000Y-107500000D03*
X103765000Y-107500000D03*
X94235000Y-110040000D03*
X103765000Y-104960000D03*
X94235000Y-93960000D03*
X103765000Y-99040000D03*
X94235000Y-96500000D03*
X103765000Y-96500000D03*
X94235000Y-99040000D03*
X103765000Y-93960000D03*
D22*
X68720000Y-76700000D03*
X73280000Y-76700000D03*
D23*
X72525000Y-68725000D03*
X69475000Y-72075000D03*
X69475000Y-68725000D03*
X72525000Y-72075000D03*
D24*
X83500000Y-89750000D03*
D25*
X81595000Y-87050000D03*
X82865000Y-87050000D03*
X84135000Y-87050000D03*
X85405000Y-87050000D03*
X85405000Y-92450000D03*
X84135000Y-92450000D03*
X82865000Y-92450000D03*
X81595000Y-92450000D03*
G36*
G01*
X107950000Y-65975000D02*
X107950000Y-65025000D01*
G75*
G02*
X108200000Y-64775000I250000J0D01*
G01*
X108700000Y-64775000D01*
G75*
G02*
X108950000Y-65025000I0J-250000D01*
G01*
X108950000Y-65975000D01*
G75*
G02*
X108700000Y-66225000I-250000J0D01*
G01*
X108200000Y-66225000D01*
G75*
G02*
X107950000Y-65975000I0J250000D01*
G01*
G37*
G36*
G01*
X106050000Y-65975000D02*
X106050000Y-65025000D01*
G75*
G02*
X106300000Y-64775000I250000J0D01*
G01*
X106800000Y-64775000D01*
G75*
G02*
X107050000Y-65025000I0J-250000D01*
G01*
X107050000Y-65975000D01*
G75*
G02*
X106800000Y-66225000I-250000J0D01*
G01*
X106300000Y-66225000D01*
G75*
G02*
X106050000Y-65975000I0J250000D01*
G01*
G37*
G36*
G01*
X107950000Y-87975000D02*
X107950000Y-87025000D01*
G75*
G02*
X108200000Y-86775000I250000J0D01*
G01*
X108700000Y-86775000D01*
G75*
G02*
X108950000Y-87025000I0J-250000D01*
G01*
X108950000Y-87975000D01*
G75*
G02*
X108700000Y-88225000I-250000J0D01*
G01*
X108200000Y-88225000D01*
G75*
G02*
X107950000Y-87975000I0J250000D01*
G01*
G37*
G36*
G01*
X106050000Y-87975000D02*
X106050000Y-87025000D01*
G75*
G02*
X106300000Y-86775000I250000J0D01*
G01*
X106800000Y-86775000D01*
G75*
G02*
X107050000Y-87025000I0J-250000D01*
G01*
X107050000Y-87975000D01*
G75*
G02*
X106800000Y-88225000I-250000J0D01*
G01*
X106300000Y-88225000D01*
G75*
G02*
X106050000Y-87975000I0J250000D01*
G01*
G37*
G36*
G01*
X107950000Y-76975000D02*
X107950000Y-76025000D01*
G75*
G02*
X108200000Y-75775000I250000J0D01*
G01*
X108700000Y-75775000D01*
G75*
G02*
X108950000Y-76025000I0J-250000D01*
G01*
X108950000Y-76975000D01*
G75*
G02*
X108700000Y-77225000I-250000J0D01*
G01*
X108200000Y-77225000D01*
G75*
G02*
X107950000Y-76975000I0J250000D01*
G01*
G37*
G36*
G01*
X106050000Y-76975000D02*
X106050000Y-76025000D01*
G75*
G02*
X106300000Y-75775000I250000J0D01*
G01*
X106800000Y-75775000D01*
G75*
G02*
X107050000Y-76025000I0J-250000D01*
G01*
X107050000Y-76975000D01*
G75*
G02*
X106800000Y-77225000I-250000J0D01*
G01*
X106300000Y-77225000D01*
G75*
G02*
X106050000Y-76975000I0J250000D01*
G01*
G37*
G36*
G01*
X107950000Y-109975000D02*
X107950000Y-109025000D01*
G75*
G02*
X108200000Y-108775000I250000J0D01*
G01*
X108700000Y-108775000D01*
G75*
G02*
X108950000Y-109025000I0J-250000D01*
G01*
X108950000Y-109975000D01*
G75*
G02*
X108700000Y-110225000I-250000J0D01*
G01*
X108200000Y-110225000D01*
G75*
G02*
X107950000Y-109975000I0J250000D01*
G01*
G37*
G36*
G01*
X106050000Y-109975000D02*
X106050000Y-109025000D01*
G75*
G02*
X106300000Y-108775000I250000J0D01*
G01*
X106800000Y-108775000D01*
G75*
G02*
X107050000Y-109025000I0J-250000D01*
G01*
X107050000Y-109975000D01*
G75*
G02*
X106800000Y-110225000I-250000J0D01*
G01*
X106300000Y-110225000D01*
G75*
G02*
X106050000Y-109975000I0J250000D01*
G01*
G37*
G36*
G01*
X107950000Y-98975000D02*
X107950000Y-98025000D01*
G75*
G02*
X108200000Y-97775000I250000J0D01*
G01*
X108700000Y-97775000D01*
G75*
G02*
X108950000Y-98025000I0J-250000D01*
G01*
X108950000Y-98975000D01*
G75*
G02*
X108700000Y-99225000I-250000J0D01*
G01*
X108200000Y-99225000D01*
G75*
G02*
X107950000Y-98975000I0J250000D01*
G01*
G37*
G36*
G01*
X106050000Y-98975000D02*
X106050000Y-98025000D01*
G75*
G02*
X106300000Y-97775000I250000J0D01*
G01*
X106800000Y-97775000D01*
G75*
G02*
X107050000Y-98025000I0J-250000D01*
G01*
X107050000Y-98975000D01*
G75*
G02*
X106800000Y-99225000I-250000J0D01*
G01*
X106300000Y-99225000D01*
G75*
G02*
X106050000Y-98975000I0J250000D01*
G01*
G37*
G36*
G01*
X222200000Y-103975000D02*
X222200000Y-103025000D01*
G75*
G02*
X222450000Y-102775000I250000J0D01*
G01*
X222950000Y-102775000D01*
G75*
G02*
X223200000Y-103025000I0J-250000D01*
G01*
X223200000Y-103975000D01*
G75*
G02*
X222950000Y-104225000I-250000J0D01*
G01*
X222450000Y-104225000D01*
G75*
G02*
X222200000Y-103975000I0J250000D01*
G01*
G37*
G36*
G01*
X220300000Y-103975000D02*
X220300000Y-103025000D01*
G75*
G02*
X220550000Y-102775000I250000J0D01*
G01*
X221050000Y-102775000D01*
G75*
G02*
X221300000Y-103025000I0J-250000D01*
G01*
X221300000Y-103975000D01*
G75*
G02*
X221050000Y-104225000I-250000J0D01*
G01*
X220550000Y-104225000D01*
G75*
G02*
X220300000Y-103975000I0J250000D01*
G01*
G37*
G36*
G01*
X225300000Y-110975000D02*
X225300000Y-110025000D01*
G75*
G02*
X225550000Y-109775000I250000J0D01*
G01*
X226050000Y-109775000D01*
G75*
G02*
X226300000Y-110025000I0J-250000D01*
G01*
X226300000Y-110975000D01*
G75*
G02*
X226050000Y-111225000I-250000J0D01*
G01*
X225550000Y-111225000D01*
G75*
G02*
X225300000Y-110975000I0J250000D01*
G01*
G37*
G36*
G01*
X227200000Y-110975000D02*
X227200000Y-110025000D01*
G75*
G02*
X227450000Y-109775000I250000J0D01*
G01*
X227950000Y-109775000D01*
G75*
G02*
X228200000Y-110025000I0J-250000D01*
G01*
X228200000Y-110975000D01*
G75*
G02*
X227950000Y-111225000I-250000J0D01*
G01*
X227450000Y-111225000D01*
G75*
G02*
X227200000Y-110975000I0J250000D01*
G01*
G37*
G36*
G01*
X225300000Y-103975000D02*
X225300000Y-103025000D01*
G75*
G02*
X225550000Y-102775000I250000J0D01*
G01*
X226050000Y-102775000D01*
G75*
G02*
X226300000Y-103025000I0J-250000D01*
G01*
X226300000Y-103975000D01*
G75*
G02*
X226050000Y-104225000I-250000J0D01*
G01*
X225550000Y-104225000D01*
G75*
G02*
X225300000Y-103975000I0J250000D01*
G01*
G37*
G36*
G01*
X227200000Y-103975000D02*
X227200000Y-103025000D01*
G75*
G02*
X227450000Y-102775000I250000J0D01*
G01*
X227950000Y-102775000D01*
G75*
G02*
X228200000Y-103025000I0J-250000D01*
G01*
X228200000Y-103975000D01*
G75*
G02*
X227950000Y-104225000I-250000J0D01*
G01*
X227450000Y-104225000D01*
G75*
G02*
X227200000Y-103975000I0J250000D01*
G01*
G37*
G36*
G01*
X215300000Y-110975000D02*
X215300000Y-110025000D01*
G75*
G02*
X215550000Y-109775000I250000J0D01*
G01*
X216050000Y-109775000D01*
G75*
G02*
X216300000Y-110025000I0J-250000D01*
G01*
X216300000Y-110975000D01*
G75*
G02*
X216050000Y-111225000I-250000J0D01*
G01*
X215550000Y-111225000D01*
G75*
G02*
X215300000Y-110975000I0J250000D01*
G01*
G37*
G36*
G01*
X217200000Y-110975000D02*
X217200000Y-110025000D01*
G75*
G02*
X217450000Y-109775000I250000J0D01*
G01*
X217950000Y-109775000D01*
G75*
G02*
X218200000Y-110025000I0J-250000D01*
G01*
X218200000Y-110975000D01*
G75*
G02*
X217950000Y-111225000I-250000J0D01*
G01*
X217450000Y-111225000D01*
G75*
G02*
X217200000Y-110975000I0J250000D01*
G01*
G37*
G36*
G01*
X70050000Y-61200000D02*
X70050000Y-62300000D01*
G75*
G02*
X69800000Y-62550000I-250000J0D01*
G01*
X67300000Y-62550000D01*
G75*
G02*
X67050000Y-62300000I0J250000D01*
G01*
X67050000Y-61200000D01*
G75*
G02*
X67300000Y-60950000I250000J0D01*
G01*
X69800000Y-60950000D01*
G75*
G02*
X70050000Y-61200000I0J-250000D01*
G01*
G37*
G36*
G01*
X74450000Y-61200000D02*
X74450000Y-62300000D01*
G75*
G02*
X74200000Y-62550000I-250000J0D01*
G01*
X71700000Y-62550000D01*
G75*
G02*
X71450000Y-62300000I0J250000D01*
G01*
X71450000Y-61200000D01*
G75*
G02*
X71700000Y-60950000I250000J0D01*
G01*
X74200000Y-60950000D01*
G75*
G02*
X74450000Y-61200000I0J-250000D01*
G01*
G37*
G36*
G01*
X82050000Y-98025000D02*
X82050000Y-98975000D01*
G75*
G02*
X81800000Y-99225000I-250000J0D01*
G01*
X81300000Y-99225000D01*
G75*
G02*
X81050000Y-98975000I0J250000D01*
G01*
X81050000Y-98025000D01*
G75*
G02*
X81300000Y-97775000I250000J0D01*
G01*
X81800000Y-97775000D01*
G75*
G02*
X82050000Y-98025000I0J-250000D01*
G01*
G37*
G36*
G01*
X83950000Y-98025000D02*
X83950000Y-98975000D01*
G75*
G02*
X83700000Y-99225000I-250000J0D01*
G01*
X83200000Y-99225000D01*
G75*
G02*
X82950000Y-98975000I0J250000D01*
G01*
X82950000Y-98025000D01*
G75*
G02*
X83200000Y-97775000I250000J0D01*
G01*
X83700000Y-97775000D01*
G75*
G02*
X83950000Y-98025000I0J-250000D01*
G01*
G37*
G36*
G01*
X208975000Y-77429000D02*
X208025000Y-77429000D01*
G75*
G02*
X207775000Y-77179000I0J250000D01*
G01*
X207775000Y-76679000D01*
G75*
G02*
X208025000Y-76429000I250000J0D01*
G01*
X208975000Y-76429000D01*
G75*
G02*
X209225000Y-76679000I0J-250000D01*
G01*
X209225000Y-77179000D01*
G75*
G02*
X208975000Y-77429000I-250000J0D01*
G01*
G37*
G36*
G01*
X208975000Y-79329000D02*
X208025000Y-79329000D01*
G75*
G02*
X207775000Y-79079000I0J250000D01*
G01*
X207775000Y-78579000D01*
G75*
G02*
X208025000Y-78329000I250000J0D01*
G01*
X208975000Y-78329000D01*
G75*
G02*
X209225000Y-78579000I0J-250000D01*
G01*
X209225000Y-79079000D01*
G75*
G02*
X208975000Y-79329000I-250000J0D01*
G01*
G37*
G36*
G01*
X79550000Y-73550000D02*
X78450000Y-73550000D01*
G75*
G02*
X78200000Y-73300000I0J250000D01*
G01*
X78200000Y-70800000D01*
G75*
G02*
X78450000Y-70550000I250000J0D01*
G01*
X79550000Y-70550000D01*
G75*
G02*
X79800000Y-70800000I0J-250000D01*
G01*
X79800000Y-73300000D01*
G75*
G02*
X79550000Y-73550000I-250000J0D01*
G01*
G37*
G36*
G01*
X79550000Y-77950000D02*
X78450000Y-77950000D01*
G75*
G02*
X78200000Y-77700000I0J250000D01*
G01*
X78200000Y-75200000D01*
G75*
G02*
X78450000Y-74950000I250000J0D01*
G01*
X79550000Y-74950000D01*
G75*
G02*
X79800000Y-75200000I0J-250000D01*
G01*
X79800000Y-77700000D01*
G75*
G02*
X79550000Y-77950000I-250000J0D01*
G01*
G37*
G36*
G01*
X81050000Y-83775000D02*
X81050000Y-84725000D01*
G75*
G02*
X80800000Y-84975000I-250000J0D01*
G01*
X80300000Y-84975000D01*
G75*
G02*
X80050000Y-84725000I0J250000D01*
G01*
X80050000Y-83775000D01*
G75*
G02*
X80300000Y-83525000I250000J0D01*
G01*
X80800000Y-83525000D01*
G75*
G02*
X81050000Y-83775000I0J-250000D01*
G01*
G37*
G36*
G01*
X82950000Y-83775000D02*
X82950000Y-84725000D01*
G75*
G02*
X82700000Y-84975000I-250000J0D01*
G01*
X82200000Y-84975000D01*
G75*
G02*
X81950000Y-84725000I0J250000D01*
G01*
X81950000Y-83775000D01*
G75*
G02*
X82200000Y-83525000I250000J0D01*
G01*
X82700000Y-83525000D01*
G75*
G02*
X82950000Y-83775000I0J-250000D01*
G01*
G37*
G36*
G01*
X85475000Y-83050000D02*
X84525000Y-83050000D01*
G75*
G02*
X84275000Y-82800000I0J250000D01*
G01*
X84275000Y-82300000D01*
G75*
G02*
X84525000Y-82050000I250000J0D01*
G01*
X85475000Y-82050000D01*
G75*
G02*
X85725000Y-82300000I0J-250000D01*
G01*
X85725000Y-82800000D01*
G75*
G02*
X85475000Y-83050000I-250000J0D01*
G01*
G37*
G36*
G01*
X85475000Y-84950000D02*
X84525000Y-84950000D01*
G75*
G02*
X84275000Y-84700000I0J250000D01*
G01*
X84275000Y-84200000D01*
G75*
G02*
X84525000Y-83950000I250000J0D01*
G01*
X85475000Y-83950000D01*
G75*
G02*
X85725000Y-84200000I0J-250000D01*
G01*
X85725000Y-84700000D01*
G75*
G02*
X85475000Y-84950000I-250000J0D01*
G01*
G37*
G36*
G01*
X82050000Y-101025000D02*
X82050000Y-101975000D01*
G75*
G02*
X81800000Y-102225000I-250000J0D01*
G01*
X81300000Y-102225000D01*
G75*
G02*
X81050000Y-101975000I0J250000D01*
G01*
X81050000Y-101025000D01*
G75*
G02*
X81300000Y-100775000I250000J0D01*
G01*
X81800000Y-100775000D01*
G75*
G02*
X82050000Y-101025000I0J-250000D01*
G01*
G37*
G36*
G01*
X83950000Y-101025000D02*
X83950000Y-101975000D01*
G75*
G02*
X83700000Y-102225000I-250000J0D01*
G01*
X83200000Y-102225000D01*
G75*
G02*
X82950000Y-101975000I0J250000D01*
G01*
X82950000Y-101025000D01*
G75*
G02*
X83200000Y-100775000I250000J0D01*
G01*
X83700000Y-100775000D01*
G75*
G02*
X83950000Y-101025000I0J-250000D01*
G01*
G37*
D26*
X83100000Y-119650000D03*
X83100000Y-123750000D03*
X88800000Y-123750000D03*
X88800000Y-119650000D03*
M02*
