0
SECTION
2
HEADER
9
$INSUNITS
70
4
9
$ACADVER
1
AC1014
9
$HANDSEED
5
FFFF
0
ENDSEC
0
SECTION
2
TABLES
0
TABLE
2
VPORT
5
8
100
AcDbSymbolTable
0
ENDTAB
0
TABLE
2
LTYPE
5
5
100
AcDbSymbolTable
0
LTYPE
5
14
100
AcDbSymbolTableRecord
100
AcDbLinetypeTableRecord
2
BYBLOCK
70
0
0
LTYPE
5
15
100
AcDbSymbolTableRecord
100
AcDbLinetypeTableRecord
2
BYLAYER
70
0
0
ENDTAB
0
TABLE
2
LAYER
5
2
100
AcDbSymbolTable
70
2
0
LAYER
5
50
100
AcDbSymbolTableRecord
100
AcDbLayerTableRecord
2
0
70
0
6
CONTINUOUS
0
ENDTAB
0
TABLE
2
STYLE
5
3
100
AcDbSymbolTable
70
1
0
STYLE
5
11
100
AcDbSymbolTableRecord
100
AcDbTextStyleTableRecord
2
STANDARD
70
0
0
ENDTAB
0
TABLE
2
VIEW
5
6
100
AcDbSymbolTable
70
0
0
ENDTAB
0
TABLE
2
UCS
5
7
100
AcDbSymbolTable
70
0
0
ENDTAB
0
TABLE
2
APPID
5
9
100
AcDbSymbolTable
70
2
0
APPID
5
12
100
AcDbSymbolTableRecord
100
AcDbRegAppTableRecord
2
ACAD
70
0
0
ENDTAB
0
TABLE
2
DIMSTYLE
5
A
100
AcDbSymbolTable
70
1
0
ENDTAB
0
TABLE
2
BLOCK_RECORD
5
1
100
AcDbSymbolTable
70
1
0
BLOCK_RECORD
5
1F
100
AcDbSymbolTableRecord
100
AcDbBlockTableRecord
2
*MODEL_SPACE
0
BLOCK_RECORD
5
1B
100
AcDbSymbolTableRecord
100
AcDbBlockTableRecord
2
*PAPER_SPACE
0
ENDTAB
0
ENDSEC
0
SECTION
2
BLOCKS
0
BLOCK
5
20
100
AcDbEntity
100
AcDbBlockBegin
2
*MODEL_SPACE
0
ENDBLK
5
21
100
AcDbEntity
100
AcDbBlockEnd
0
BLOCK
5
1C
100
AcDbEntity
100
AcDbBlockBegin
2
*PAPER_SPACE
0
ENDBLK
5
1D
100
AcDbEntity
100
AcDbBlockEnd
0
ENDSEC
0
SECTION
2
ENTITIES
0
CIRCLE
5
100
100
AcDbEntity
8
0
100
AcDbCircle
10
-87.300000000000011
20
-50.799999999999997
30
0
40
1.6000000000000014
210
0
220
-0
230
1
0
CIRCLE
5
101
100
AcDbEntity
8
0
100
AcDbCircle
10
-87.300000000000011
20
50.799999999999997
30
0
40
1.5999999999999965
210
0
220
-0
230
1
0
CIRCLE
5
102
100
AcDbEntity
8
0
100
AcDbCircle
10
87.300000000000011
20
50.799999999999997
30
0
40
1.6000000000000014
210
0
220
-0
230
1
0
CIRCLE
5
103
100
AcDbEntity
8
0
100
AcDbCircle
10
87.300000000000011
20
-50.799999999999997
30
0
40
1.6000000000000025
210
0
220
-0
230
1
0
LINE
5
104
100
AcDbEntity
8
0
100
AcDbLine
10
90.5
20
-54
30
0
11
90.5
21
54
31
0
0
LINE
5
105
100
AcDbEntity
8
0
100
AcDbLine
10
-90.5
20
-54
30
0
11
90.5
21
-54
31
0
0
LINE
5
106
100
AcDbEntity
8
0
100
AcDbLine
10
90.5
20
54
30
0
11
-90.5
21
54
31
0
0
LINE
5
107
100
AcDbEntity
8
0
100
AcDbLine
10
-90.5
20
54
30
0
11
-90.5
21
-54
31
0
0
LWPOLYLINE
5
108
100
AcDbEntity
8
0
100
AcDbPolyline
90
8
70
1
43
0.0
10
-102.09999999999991
20
54.00000000000005
10
102.10000000000011
20
54.000000000000057
42
-0.41421356237309381
10
108.50000000000016
20
47.600000000000037
10
108.50000000000011
20
-47.599999999999966
42
-0.41421356237309587
10
102.10000000000009
20
-53.999999999999957
10
-102.09999999999992
20
-53.999999999999943
42
-0.4142135623730942
10
-108.49999999999991
20
-47.599999999999973
10
-108.49999999999991
20
47.60000000000008
42
-0.41421356237309381
0
LINE
5
109
100
AcDbEntity
8
0
100
AcDbLine
10
108.50000000000016
20
54.000000000000064
30
0
11
-108.49999999999987
21
-53.999999999999972
31
0
0
LINE
5
110
100
AcDbEntity
8
0
100
AcDbLine
10
-108.49999999999987
20
54.00000000000005
30
0
11
108.50000000000017
21
-53.99999999999995
31
0
0
CIRCLE
5
111
100
AcDbEntity
8
0
100
AcDbCircle
10
-102.09999999999991
20
47.600000000000051
30
0
40
1.600000000000001
210
0
220
0
230
1
0
CIRCLE
5
112
100
AcDbEntity
8
0
100
AcDbCircle
10
-102.09999999999991
20
-47.599999999999952
30
0
40
1.6000000000000036
210
0
220
0
230
1
0
CIRCLE
5
113
100
AcDbEntity
8
0
100
AcDbCircle
10
102.10000000000014
20
-47.599999999999966
30
0
40
1.600000000000005
210
0
220
0
230
1
0
CIRCLE
5
114
100
AcDbEntity
8
0
100
AcDbCircle
10
102.10000000000014
20
47.600000000000037
30
0
40
1.6000000000000045
210
0
220
0
230
1
0
LWPOLYLINE
5
115
100
AcDbEntity
8
0
100
AcDbPolyline
90
4
70
1
43
0.0
10
83.500000000000156
20
-19.999999999999964
10
108.50000000000016
20
-19.999999999999964
10
108.50000000000017
20
-37.999999999999964
10
83.500000000000085
20
-37.999999999999964
0
LINE
5
116
100
AcDbEntity
8
0
100
AcDbLine
10
83.500000000000099
20
-28.999999999999964
30
0
11
108.5000000000001
21
-28.999999999999964
31
0
0
LINE
5
117
100
AcDbEntity
8
0
100
AcDbLine
10
108.50000000000014
20
-22.999999999999957
30
0
11
83.500000000000142
21
-22.999999999999964
31
0
0
LINE
5
118
100
AcDbEntity
8
0
100
AcDbLine
10
83.500000000000099
20
-34.999999999999964
30
0
11
108.50000000000016
21
-34.999999999999972
31
0
0
LINE
5
119
100
AcDbEntity
8
0
100
AcDbLine
10
0
20
54
30
0
11
8.8817841970012523e-14
21
-53.999999999999972
31
0
0
CIRCLE
5
120
100
AcDbEntity
8
0
100
AcDbCircle
10
0
20
0
30
0
40
20
210
0
220
0
230
1
0
LINE
5
121
100
AcDbEntity
8
0
100
AcDbLine
10
30
20
30
30
0
11
-30
21
30
31
0
0
LINE
5
122
100
AcDbEntity
8
0
100
AcDbLine
10
-30
20
30
30
0
11
-30
21
-30
31
0
0
LINE
5
123
100
AcDbEntity
8
0
100
AcDbLine
10
-30
20
-30
30
0
11
30
21
-30
31
0
0
LINE
5
124
100
AcDbEntity
8
0
100
AcDbLine
10
30
20
-30
30
0
11
30
21
30
31
0
0
LINE
5
125
100
AcDbEntity
8
0
100
AcDbLine
10
30
20
30
30
0
11
-30
21
-30
31
0
0
LINE
5
126
100
AcDbEntity
8
0
100
AcDbLine
10
-30
20
30
30
0
11
30
21
-30
31
0
0
ENDSEC
0
SECTION
2
OBJECTS
0
DICTIONARY
5
C
100
AcDbDictionary
3
ACAD_GROUP
350
D
3
ACAD_MLINESTYLE
350
17
0
DICTIONARY
5
D
100
AcDbDictionary
0
DICTIONARY
5
1A
330
C
100
AcDbDictionary
0
DICTIONARY
5
17
100
AcDbDictionary
0
ENDSEC
0
EOF
