0
SECTION
2
HEADER
9
$INSUNITS
70
4
9
$ACADVER
1
AC1014
9
$HANDSEED
5
FFFF
0
ENDSEC
0
SECTION
2
TABLES
0
TABLE
2
VPORT
5
8
100
AcDbSymbolTable
0
ENDTAB
0
TABLE
2
LTYPE
5
5
100
AcDbSymbolTable
0
LTYPE
5
14
100
AcDbSymbolTableRecord
100
AcDbLinetypeTableRecord
2
BYBLOCK
70
0
0
LTYPE
5
15
100
AcDbSymbolTableRecord
100
AcDbLinetypeTableRecord
2
BYLAYER
70
0
0
ENDTAB
0
TABLE
2
LAYER
5
2
100
AcDbSymbolTable
70
2
0
LAYER
5
50
100
AcDbSymbolTableRecord
100
AcDbLayerTableRecord
2
0
70
0
6
CONTINUOUS
0
ENDTAB
0
TABLE
2
STYLE
5
3
100
AcDbSymbolTable
70
1
0
STYLE
5
11
100
AcDbSymbolTableRecord
100
AcDbTextStyleTableRecord
2
STANDARD
70
0
0
ENDTAB
0
TABLE
2
VIEW
5
6
100
AcDbSymbolTable
70
0
0
ENDTAB
0
TABLE
2
UCS
5
7
100
AcDbSymbolTable
70
0
0
ENDTAB
0
TABLE
2
APPID
5
9
100
AcDbSymbolTable
70
2
0
APPID
5
12
100
AcDbSymbolTableRecord
100
AcDbRegAppTableRecord
2
ACAD
70
0
0
ENDTAB
0
TABLE
2
DIMSTYLE
5
A
100
AcDbSymbolTable
70
1
0
ENDTAB
0
TABLE
2
BLOCK_RECORD
5
1
100
AcDbSymbolTable
70
1
0
BLOCK_RECORD
5
1F
100
AcDbSymbolTableRecord
100
AcDbBlockTableRecord
2
*MODEL_SPACE
0
BLOCK_RECORD
5
1B
100
AcDbSymbolTableRecord
100
AcDbBlockTableRecord
2
*PAPER_SPACE
0
ENDTAB
0
ENDSEC
0
SECTION
2
BLOCKS
0
BLOCK
5
20
100
AcDbEntity
100
AcDbBlockBegin
2
*MODEL_SPACE
0
ENDBLK
5
21
100
AcDbEntity
100
AcDbBlockEnd
0
BLOCK
5
1C
100
AcDbEntity
100
AcDbBlockBegin
2
*PAPER_SPACE
0
ENDBLK
5
1D
100
AcDbEntity
100
AcDbBlockEnd
0
ENDSEC
0
SECTION
2
ENTITIES
0
CIRCLE
5
100
100
AcDbEntity
8
0
100
AcDbCircle
10
-63.550000000000026
20
-38.79999999999999
30
0
40
1.6000000000000014
210
0
220
-0
230
1
0
CIRCLE
5
101
100
AcDbEntity
8
0
100
AcDbCircle
10
-63.549999999999983
20
38.799999999999997
30
0
40
1.5999999999999965
210
0
220
-0
230
1
0
CIRCLE
5
102
100
AcDbEntity
8
0
100
AcDbCircle
10
63.550000000000004
20
38.79999999999999
30
0
40
1.6000000000000014
210
0
220
-0
230
1
0
CIRCLE
5
103
100
AcDbEntity
8
0
100
AcDbCircle
10
63.549999999999997
20
-38.79999999999999
30
0
40
1.6000000000000025
210
0
220
-0
230
1
0
LINE
5
104
100
AcDbEntity
8
0
100
AcDbLine
10
66.75
20
-41.999999999999986
30
0
11
66.75
21
42
31
0
0
LINE
5
105
100
AcDbEntity
8
0
100
AcDbLine
10
-66.750000000000014
20
-41.999999999999993
30
0
11
66.75
21
-41.999999999999986
31
0
0
LINE
5
106
100
AcDbEntity
8
0
100
AcDbLine
10
66.75
20
42
30
0
11
-66.750000000000014
21
41.999999999999993
31
0
0
LINE
5
107
100
AcDbEntity
8
0
100
AcDbLine
10
-66.75
20
41.999999999999993
30
0
11
-66.750000000000014
21
-41.999999999999993
31
0
0
LWPOLYLINE
5
108
100
AcDbEntity
8
0
100
AcDbPolyline
90
8
70
1
43
0.0
10
-78.349999999999611
20
42.000000000000178
10
78.35000000000035
20
42.000000000000163
42
-0.4142135623730967
10
84.750000000000384
20
35.600000000000108
10
84.750000000000369
20
-35.599999999999845
42
-0.41421356237309509
10
78.350000000000435
20
-41.999999999999801
10
-78.349999999999653
20
-41.999999999999829
42
-0.41421356237309465
10
-84.749999999999645
20
-35.599999999999838
10
-84.749999999999588
20
35.600000000000179
42
-0.41421356237309442
0
LINE
5
109
100
AcDbEntity
8
0
100
AcDbLine
10
84.750000000000426
20
42.000000000000171
30
0
11
-84.749999999999602
21
-41.999999999999801
31
0
0
LINE
5
110
100
AcDbEntity
8
0
100
AcDbLine
10
-84.749999999999645
20
42.000000000000178
30
0
11
84.750000000000398
21
-41.999999999999787
31
0
0
CIRCLE
5
111
100
AcDbEntity
8
0
100
AcDbCircle
10
-78.349999999999596
20
35.600000000000179
30
0
40
1.600000000000001
210
0
220
0
230
1
0
CIRCLE
5
112
100
AcDbEntity
8
0
100
AcDbCircle
10
-78.349999999999653
20
-35.599999999999838
30
0
40
1.6000000000000036
210
0
220
0
230
1
0
CIRCLE
5
113
100
AcDbEntity
8
0
100
AcDbCircle
10
78.350000000000421
20
-35.599999999999845
30
0
40
1.600000000000005
210
0
220
0
230
1
0
CIRCLE
5
114
100
AcDbEntity
8
0
100
AcDbCircle
10
78.350000000000335
20
35.600000000000136
30
0
40
1.6000000000000045
210
0
220
0
230
1
0
LWPOLYLINE
5
115
100
AcDbEntity
8
0
100
AcDbPolyline
90
4
70
1
43
0.0
10
59.750000000000384
20
-7.9999999999998312
10
84.750000000000426
20
-7.9999999999998312
10
84.750000000000455
20
-25.999999999999837
10
59.750000000000313
20
-25.999999999999822
0
LINE
5
116
100
AcDbEntity
8
0
100
AcDbLine
10
59.750000000000362
20
-16.999999999999829
30
0
11
84.750000000000426
21
-16.999999999999837
31
0
0
LINE
5
117
100
AcDbEntity
8
0
100
AcDbLine
10
84.750000000000426
20
-10.999999999999833
30
0
11
59.750000000000384
21
-10.999999999999833
31
0
0
LINE
5
118
100
AcDbEntity
8
0
100
AcDbLine
10
59.750000000000313
20
-22.999999999999822
30
0
11
84.750000000000455
21
-22.999999999999833
31
0
0
LINE
5
119
100
AcDbEntity
8
0
100
AcDbLine
10
-8.8817841970012523e-15
20
41.999999999999993
30
0
11
3.8288409335367852e-13
21
-41.999999999999808
31
0
0
CIRCLE
5
120
100
AcDbEntity
8
0
100
AcDbCircle
10
0
20
0
30
0
40
12.5
210
0
220
0
230
1
0
LINE
5
121
100
AcDbEntity
8
0
100
AcDbLine
10
18.75
20
18.75
30
0
11
-18.75
21
18.75
31
0
0
LINE
5
122
100
AcDbEntity
8
0
100
AcDbLine
10
-18.75
20
18.75
30
0
11
-18.75
21
-18.749999999999996
31
0
0
LINE
5
123
100
AcDbEntity
8
0
100
AcDbLine
10
-18.75
20
-18.749999999999996
30
0
11
18.75
21
-18.749999999999996
31
0
0
LINE
5
124
100
AcDbEntity
8
0
100
AcDbLine
10
18.75
20
-18.749999999999996
30
0
11
18.75
21
18.75
31
0
0
LINE
5
125
100
AcDbEntity
8
0
100
AcDbLine
10
18.75
20
18.75
30
0
11
-18.75
21
-18.749999999999996
31
0
0
LINE
5
126
100
AcDbEntity
8
0
100
AcDbLine
10
-18.75
20
18.75
30
0
11
18.75
21
-18.749999999999996
31
0
0
ENDSEC
0
SECTION
2
OBJECTS
0
DICTIONARY
5
C
100
AcDbDictionary
3
ACAD_GROUP
350
D
3
ACAD_MLINESTYLE
350
17
0
DICTIONARY
5
D
100
AcDbDictionary
0
DICTIONARY
5
1A
330
C
100
AcDbDictionary
0
DICTIONARY
5
17
100
AcDbDictionary
0
ENDSEC
0
EOF
