G04 #@! TF.GenerationSoftware,KiCad,Pcbnew,(5.1.8-0-10_14)*
G04 #@! TF.CreationDate,2020-12-03T22:49:35-06:00*
G04 #@! TF.ProjectId,ClimateSprinklerController,436c696d-6174-4655-9370-72696e6b6c65,rev?*
G04 #@! TF.SameCoordinates,Original*
G04 #@! TF.FileFunction,Soldermask,Bot*
G04 #@! TF.FilePolarity,Negative*
%FSLAX46Y46*%
G04 Gerber Fmt 4.6, Leading zero omitted, Abs format (unit mm)*
G04 Created by KiCad (PCBNEW (5.1.8-0-10_14)) date 2020-12-03 22:49:35*
%MOMM*%
%LPD*%
G01*
G04 APERTURE LIST*
%ADD10C,0.100000*%
%ADD11C,0.902000*%
%ADD12C,1.702000*%
%ADD13C,2.102000*%
%ADD14O,1.802000X1.802000*%
%ADD15C,2.202000*%
%ADD16O,1.702000X2.402000*%
%ADD17C,5.102000*%
%ADD18C,1.852000*%
%ADD19C,6.502000*%
%ADD20R,3.100000X2.600000*%
%ADD21C,1.902000*%
%ADD22C,2.402000*%
%ADD23O,1.902000X2.502000*%
G04 APERTURE END LIST*
G36*
G01*
X178443000Y-59572000D02*
X178443000Y-59122000D01*
G75*
G02*
X178494000Y-59071000I51000J0D01*
G01*
X179124000Y-59071000D01*
G75*
G02*
X179175000Y-59122000I0J-51000D01*
G01*
X179175000Y-59572000D01*
G75*
G02*
X179124000Y-59623000I-51000J0D01*
G01*
X178494000Y-59623000D01*
G75*
G02*
X178443000Y-59572000I0J51000D01*
G01*
G37*
G36*
G01*
X178443000Y-58772000D02*
X178443000Y-58322000D01*
G75*
G02*
X178494000Y-58271000I51000J0D01*
G01*
X179124000Y-58271000D01*
G75*
G02*
X179175000Y-58322000I0J-51000D01*
G01*
X179175000Y-58772000D01*
G75*
G02*
X179124000Y-58823000I-51000J0D01*
G01*
X178494000Y-58823000D01*
G75*
G02*
X178443000Y-58772000I0J51000D01*
G01*
G37*
G36*
G01*
X178443000Y-57972000D02*
X178443000Y-57522000D01*
G75*
G02*
X178494000Y-57471000I51000J0D01*
G01*
X179124000Y-57471000D01*
G75*
G02*
X179175000Y-57522000I0J-51000D01*
G01*
X179175000Y-57972000D01*
G75*
G02*
X179124000Y-58023000I-51000J0D01*
G01*
X178494000Y-58023000D01*
G75*
G02*
X178443000Y-57972000I0J51000D01*
G01*
G37*
G36*
G01*
X180743000Y-57972000D02*
X180743000Y-57522000D01*
G75*
G02*
X180794000Y-57471000I51000J0D01*
G01*
X181424000Y-57471000D01*
G75*
G02*
X181475000Y-57522000I0J-51000D01*
G01*
X181475000Y-57972000D01*
G75*
G02*
X181424000Y-58023000I-51000J0D01*
G01*
X180794000Y-58023000D01*
G75*
G02*
X180743000Y-57972000I0J51000D01*
G01*
G37*
G36*
G01*
X180743000Y-58772000D02*
X180743000Y-58322000D01*
G75*
G02*
X180794000Y-58271000I51000J0D01*
G01*
X181424000Y-58271000D01*
G75*
G02*
X181475000Y-58322000I0J-51000D01*
G01*
X181475000Y-58772000D01*
G75*
G02*
X181424000Y-58823000I-51000J0D01*
G01*
X180794000Y-58823000D01*
G75*
G02*
X180743000Y-58772000I0J51000D01*
G01*
G37*
G36*
G01*
X180743000Y-59572000D02*
X180743000Y-59122000D01*
G75*
G02*
X180794000Y-59071000I51000J0D01*
G01*
X181424000Y-59071000D01*
G75*
G02*
X181475000Y-59122000I0J-51000D01*
G01*
X181475000Y-59572000D01*
G75*
G02*
X181424000Y-59623000I-51000J0D01*
G01*
X180794000Y-59623000D01*
G75*
G02*
X180743000Y-59572000I0J51000D01*
G01*
G37*
G36*
G01*
X179283000Y-59397000D02*
X179283000Y-57697000D01*
G75*
G02*
X179334000Y-57646000I51000J0D01*
G01*
X180584000Y-57646000D01*
G75*
G02*
X180635000Y-57697000I0J-51000D01*
G01*
X180635000Y-59397000D01*
G75*
G02*
X180584000Y-59448000I-51000J0D01*
G01*
X179334000Y-59448000D01*
G75*
G02*
X179283000Y-59397000I0J51000D01*
G01*
G37*
G36*
G01*
X173958000Y-56232752D02*
X173958000Y-55273248D01*
G75*
G02*
X174229248Y-55002000I271248J0D01*
G01*
X174988752Y-55002000D01*
G75*
G02*
X175260000Y-55273248I0J-271248D01*
G01*
X175260000Y-56232752D01*
G75*
G02*
X174988752Y-56504000I-271248J0D01*
G01*
X174229248Y-56504000D01*
G75*
G02*
X173958000Y-56232752I0J271248D01*
G01*
G37*
G36*
G01*
X171958000Y-56232752D02*
X171958000Y-55273248D01*
G75*
G02*
X172229248Y-55002000I271248J0D01*
G01*
X172988752Y-55002000D01*
G75*
G02*
X173260000Y-55273248I0J-271248D01*
G01*
X173260000Y-56232752D01*
G75*
G02*
X172988752Y-56504000I-271248J0D01*
G01*
X172229248Y-56504000D01*
G75*
G02*
X171958000Y-56232752I0J271248D01*
G01*
G37*
G36*
G01*
X176410500Y-57046000D02*
X177411500Y-57046000D01*
G75*
G02*
X177687000Y-57321500I0J-275500D01*
G01*
X177687000Y-57872500D01*
G75*
G02*
X177411500Y-58148000I-275500J0D01*
G01*
X176410500Y-58148000D01*
G75*
G02*
X176135000Y-57872500I0J275500D01*
G01*
X176135000Y-57321500D01*
G75*
G02*
X176410500Y-57046000I275500J0D01*
G01*
G37*
G36*
G01*
X176410500Y-58946000D02*
X177411500Y-58946000D01*
G75*
G02*
X177687000Y-59221500I0J-275500D01*
G01*
X177687000Y-59772500D01*
G75*
G02*
X177411500Y-60048000I-275500J0D01*
G01*
X176410500Y-60048000D01*
G75*
G02*
X176135000Y-59772500I0J275500D01*
G01*
X176135000Y-59221500D01*
G75*
G02*
X176410500Y-58946000I275500J0D01*
G01*
G37*
G36*
G01*
X180358000Y-63238500D02*
X180358000Y-62237500D01*
G75*
G02*
X180633500Y-61962000I275500J0D01*
G01*
X181184500Y-61962000D01*
G75*
G02*
X181460000Y-62237500I0J-275500D01*
G01*
X181460000Y-63238500D01*
G75*
G02*
X181184500Y-63514000I-275500J0D01*
G01*
X180633500Y-63514000D01*
G75*
G02*
X180358000Y-63238500I0J275500D01*
G01*
G37*
G36*
G01*
X178458000Y-63238500D02*
X178458000Y-62237500D01*
G75*
G02*
X178733500Y-61962000I275500J0D01*
G01*
X179284500Y-61962000D01*
G75*
G02*
X179560000Y-62237500I0J-275500D01*
G01*
X179560000Y-63238500D01*
G75*
G02*
X179284500Y-63514000I-275500J0D01*
G01*
X178733500Y-63514000D01*
G75*
G02*
X178458000Y-63238500I0J275500D01*
G01*
G37*
G36*
G01*
X180495248Y-79089000D02*
X181454752Y-79089000D01*
G75*
G02*
X181726000Y-79360248I0J-271248D01*
G01*
X181726000Y-80119752D01*
G75*
G02*
X181454752Y-80391000I-271248J0D01*
G01*
X180495248Y-80391000D01*
G75*
G02*
X180224000Y-80119752I0J271248D01*
G01*
X180224000Y-79360248D01*
G75*
G02*
X180495248Y-79089000I271248J0D01*
G01*
G37*
G36*
G01*
X180495248Y-77089000D02*
X181454752Y-77089000D01*
G75*
G02*
X181726000Y-77360248I0J-271248D01*
G01*
X181726000Y-78119752D01*
G75*
G02*
X181454752Y-78391000I-271248J0D01*
G01*
X180495248Y-78391000D01*
G75*
G02*
X180224000Y-78119752I0J271248D01*
G01*
X180224000Y-77360248D01*
G75*
G02*
X180495248Y-77089000I271248J0D01*
G01*
G37*
G36*
G01*
X184305248Y-79089000D02*
X185264752Y-79089000D01*
G75*
G02*
X185536000Y-79360248I0J-271248D01*
G01*
X185536000Y-80119752D01*
G75*
G02*
X185264752Y-80391000I-271248J0D01*
G01*
X184305248Y-80391000D01*
G75*
G02*
X184034000Y-80119752I0J271248D01*
G01*
X184034000Y-79360248D01*
G75*
G02*
X184305248Y-79089000I271248J0D01*
G01*
G37*
G36*
G01*
X184305248Y-77089000D02*
X185264752Y-77089000D01*
G75*
G02*
X185536000Y-77360248I0J-271248D01*
G01*
X185536000Y-78119752D01*
G75*
G02*
X185264752Y-78391000I-271248J0D01*
G01*
X184305248Y-78391000D01*
G75*
G02*
X184034000Y-78119752I0J271248D01*
G01*
X184034000Y-77360248D01*
G75*
G02*
X184305248Y-77089000I271248J0D01*
G01*
G37*
G36*
G01*
X122399752Y-54261000D02*
X121440248Y-54261000D01*
G75*
G02*
X121169000Y-53989752I0J271248D01*
G01*
X121169000Y-53230248D01*
G75*
G02*
X121440248Y-52959000I271248J0D01*
G01*
X122399752Y-52959000D01*
G75*
G02*
X122671000Y-53230248I0J-271248D01*
G01*
X122671000Y-53989752D01*
G75*
G02*
X122399752Y-54261000I-271248J0D01*
G01*
G37*
G36*
G01*
X122399752Y-56261000D02*
X121440248Y-56261000D01*
G75*
G02*
X121169000Y-55989752I0J271248D01*
G01*
X121169000Y-55230248D01*
G75*
G02*
X121440248Y-54959000I271248J0D01*
G01*
X122399752Y-54959000D01*
G75*
G02*
X122671000Y-55230248I0J-271248D01*
G01*
X122671000Y-55989752D01*
G75*
G02*
X122399752Y-56261000I-271248J0D01*
G01*
G37*
G36*
G01*
X96806000Y-52225248D02*
X96806000Y-53184752D01*
G75*
G02*
X96534752Y-53456000I-271248J0D01*
G01*
X95775248Y-53456000D01*
G75*
G02*
X95504000Y-53184752I0J271248D01*
G01*
X95504000Y-52225248D01*
G75*
G02*
X95775248Y-51954000I271248J0D01*
G01*
X96534752Y-51954000D01*
G75*
G02*
X96806000Y-52225248I0J-271248D01*
G01*
G37*
G36*
G01*
X98806000Y-52225248D02*
X98806000Y-53184752D01*
G75*
G02*
X98534752Y-53456000I-271248J0D01*
G01*
X97775248Y-53456000D01*
G75*
G02*
X97504000Y-53184752I0J271248D01*
G01*
X97504000Y-52225248D01*
G75*
G02*
X97775248Y-51954000I271248J0D01*
G01*
X98534752Y-51954000D01*
G75*
G02*
X98806000Y-52225248I0J-271248D01*
G01*
G37*
G36*
G01*
X123980248Y-54959000D02*
X124939752Y-54959000D01*
G75*
G02*
X125211000Y-55230248I0J-271248D01*
G01*
X125211000Y-55989752D01*
G75*
G02*
X124939752Y-56261000I-271248J0D01*
G01*
X123980248Y-56261000D01*
G75*
G02*
X123709000Y-55989752I0J271248D01*
G01*
X123709000Y-55230248D01*
G75*
G02*
X123980248Y-54959000I271248J0D01*
G01*
G37*
G36*
G01*
X123980248Y-52959000D02*
X124939752Y-52959000D01*
G75*
G02*
X125211000Y-53230248I0J-271248D01*
G01*
X125211000Y-53989752D01*
G75*
G02*
X124939752Y-54261000I-271248J0D01*
G01*
X123980248Y-54261000D01*
G75*
G02*
X123709000Y-53989752I0J271248D01*
G01*
X123709000Y-53230248D01*
G75*
G02*
X123980248Y-52959000I271248J0D01*
G01*
G37*
G36*
G01*
X83975248Y-80359000D02*
X84934752Y-80359000D01*
G75*
G02*
X85206000Y-80630248I0J-271248D01*
G01*
X85206000Y-81389752D01*
G75*
G02*
X84934752Y-81661000I-271248J0D01*
G01*
X83975248Y-81661000D01*
G75*
G02*
X83704000Y-81389752I0J271248D01*
G01*
X83704000Y-80630248D01*
G75*
G02*
X83975248Y-80359000I271248J0D01*
G01*
G37*
G36*
G01*
X83975248Y-78359000D02*
X84934752Y-78359000D01*
G75*
G02*
X85206000Y-78630248I0J-271248D01*
G01*
X85206000Y-79389752D01*
G75*
G02*
X84934752Y-79661000I-271248J0D01*
G01*
X83975248Y-79661000D01*
G75*
G02*
X83704000Y-79389752I0J271248D01*
G01*
X83704000Y-78630248D01*
G75*
G02*
X83975248Y-78359000I271248J0D01*
G01*
G37*
G36*
G01*
X83975248Y-75914000D02*
X84934752Y-75914000D01*
G75*
G02*
X85206000Y-76185248I0J-271248D01*
G01*
X85206000Y-76944752D01*
G75*
G02*
X84934752Y-77216000I-271248J0D01*
G01*
X83975248Y-77216000D01*
G75*
G02*
X83704000Y-76944752I0J271248D01*
G01*
X83704000Y-76185248D01*
G75*
G02*
X83975248Y-75914000I271248J0D01*
G01*
G37*
G36*
G01*
X83975248Y-73914000D02*
X84934752Y-73914000D01*
G75*
G02*
X85206000Y-74185248I0J-271248D01*
G01*
X85206000Y-74944752D01*
G75*
G02*
X84934752Y-75216000I-271248J0D01*
G01*
X83975248Y-75216000D01*
G75*
G02*
X83704000Y-74944752I0J271248D01*
G01*
X83704000Y-74185248D01*
G75*
G02*
X83975248Y-73914000I271248J0D01*
G01*
G37*
G36*
G01*
X164179000Y-53819752D02*
X164179000Y-52860248D01*
G75*
G02*
X164450248Y-52589000I271248J0D01*
G01*
X165209752Y-52589000D01*
G75*
G02*
X165481000Y-52860248I0J-271248D01*
G01*
X165481000Y-53819752D01*
G75*
G02*
X165209752Y-54091000I-271248J0D01*
G01*
X164450248Y-54091000D01*
G75*
G02*
X164179000Y-53819752I0J271248D01*
G01*
G37*
G36*
G01*
X162179000Y-53819752D02*
X162179000Y-52860248D01*
G75*
G02*
X162450248Y-52589000I271248J0D01*
G01*
X163209752Y-52589000D01*
G75*
G02*
X163481000Y-52860248I0J-271248D01*
G01*
X163481000Y-53819752D01*
G75*
G02*
X163209752Y-54091000I-271248J0D01*
G01*
X162450248Y-54091000D01*
G75*
G02*
X162179000Y-53819752I0J271248D01*
G01*
G37*
G36*
G01*
X164179000Y-51279752D02*
X164179000Y-50320248D01*
G75*
G02*
X164450248Y-50049000I271248J0D01*
G01*
X165209752Y-50049000D01*
G75*
G02*
X165481000Y-50320248I0J-271248D01*
G01*
X165481000Y-51279752D01*
G75*
G02*
X165209752Y-51551000I-271248J0D01*
G01*
X164450248Y-51551000D01*
G75*
G02*
X164179000Y-51279752I0J271248D01*
G01*
G37*
G36*
G01*
X162179000Y-51279752D02*
X162179000Y-50320248D01*
G75*
G02*
X162450248Y-50049000I271248J0D01*
G01*
X163209752Y-50049000D01*
G75*
G02*
X163481000Y-50320248I0J-271248D01*
G01*
X163481000Y-51279752D01*
G75*
G02*
X163209752Y-51551000I-271248J0D01*
G01*
X162450248Y-51551000D01*
G75*
G02*
X162179000Y-51279752I0J271248D01*
G01*
G37*
G36*
G01*
X97504000Y-65884752D02*
X97504000Y-64925248D01*
G75*
G02*
X97775248Y-64654000I271248J0D01*
G01*
X98534752Y-64654000D01*
G75*
G02*
X98806000Y-64925248I0J-271248D01*
G01*
X98806000Y-65884752D01*
G75*
G02*
X98534752Y-66156000I-271248J0D01*
G01*
X97775248Y-66156000D01*
G75*
G02*
X97504000Y-65884752I0J271248D01*
G01*
G37*
G36*
G01*
X95504000Y-65884752D02*
X95504000Y-64925248D01*
G75*
G02*
X95775248Y-64654000I271248J0D01*
G01*
X96534752Y-64654000D01*
G75*
G02*
X96806000Y-64925248I0J-271248D01*
G01*
X96806000Y-65884752D01*
G75*
G02*
X96534752Y-66156000I-271248J0D01*
G01*
X95775248Y-66156000D01*
G75*
G02*
X95504000Y-65884752I0J271248D01*
G01*
G37*
G36*
G01*
X97504000Y-60804752D02*
X97504000Y-59845248D01*
G75*
G02*
X97775248Y-59574000I271248J0D01*
G01*
X98534752Y-59574000D01*
G75*
G02*
X98806000Y-59845248I0J-271248D01*
G01*
X98806000Y-60804752D01*
G75*
G02*
X98534752Y-61076000I-271248J0D01*
G01*
X97775248Y-61076000D01*
G75*
G02*
X97504000Y-60804752I0J271248D01*
G01*
G37*
G36*
G01*
X95504000Y-60804752D02*
X95504000Y-59845248D01*
G75*
G02*
X95775248Y-59574000I271248J0D01*
G01*
X96534752Y-59574000D01*
G75*
G02*
X96806000Y-59845248I0J-271248D01*
G01*
X96806000Y-60804752D01*
G75*
G02*
X96534752Y-61076000I-271248J0D01*
G01*
X95775248Y-61076000D01*
G75*
G02*
X95504000Y-60804752I0J271248D01*
G01*
G37*
G36*
G01*
X97504000Y-55724752D02*
X97504000Y-54765248D01*
G75*
G02*
X97775248Y-54494000I271248J0D01*
G01*
X98534752Y-54494000D01*
G75*
G02*
X98806000Y-54765248I0J-271248D01*
G01*
X98806000Y-55724752D01*
G75*
G02*
X98534752Y-55996000I-271248J0D01*
G01*
X97775248Y-55996000D01*
G75*
G02*
X97504000Y-55724752I0J271248D01*
G01*
G37*
G36*
G01*
X95504000Y-55724752D02*
X95504000Y-54765248D01*
G75*
G02*
X95775248Y-54494000I271248J0D01*
G01*
X96534752Y-54494000D01*
G75*
G02*
X96806000Y-54765248I0J-271248D01*
G01*
X96806000Y-55724752D01*
G75*
G02*
X96534752Y-55996000I-271248J0D01*
G01*
X95775248Y-55996000D01*
G75*
G02*
X95504000Y-55724752I0J271248D01*
G01*
G37*
G36*
G01*
X97504000Y-58264752D02*
X97504000Y-57305248D01*
G75*
G02*
X97775248Y-57034000I271248J0D01*
G01*
X98534752Y-57034000D01*
G75*
G02*
X98806000Y-57305248I0J-271248D01*
G01*
X98806000Y-58264752D01*
G75*
G02*
X98534752Y-58536000I-271248J0D01*
G01*
X97775248Y-58536000D01*
G75*
G02*
X97504000Y-58264752I0J271248D01*
G01*
G37*
G36*
G01*
X95504000Y-58264752D02*
X95504000Y-57305248D01*
G75*
G02*
X95775248Y-57034000I271248J0D01*
G01*
X96534752Y-57034000D01*
G75*
G02*
X96806000Y-57305248I0J-271248D01*
G01*
X96806000Y-58264752D01*
G75*
G02*
X96534752Y-58536000I-271248J0D01*
G01*
X95775248Y-58536000D01*
G75*
G02*
X95504000Y-58264752I0J271248D01*
G01*
G37*
G36*
G01*
X96806000Y-62385248D02*
X96806000Y-63344752D01*
G75*
G02*
X96534752Y-63616000I-271248J0D01*
G01*
X95775248Y-63616000D01*
G75*
G02*
X95504000Y-63344752I0J271248D01*
G01*
X95504000Y-62385248D01*
G75*
G02*
X95775248Y-62114000I271248J0D01*
G01*
X96534752Y-62114000D01*
G75*
G02*
X96806000Y-62385248I0J-271248D01*
G01*
G37*
G36*
G01*
X98806000Y-62385248D02*
X98806000Y-63344752D01*
G75*
G02*
X98534752Y-63616000I-271248J0D01*
G01*
X97775248Y-63616000D01*
G75*
G02*
X97504000Y-63344752I0J271248D01*
G01*
X97504000Y-62385248D01*
G75*
G02*
X97775248Y-62114000I271248J0D01*
G01*
X98534752Y-62114000D01*
G75*
G02*
X98806000Y-62385248I0J-271248D01*
G01*
G37*
G36*
G01*
X124939752Y-48301000D02*
X123980248Y-48301000D01*
G75*
G02*
X123709000Y-48029752I0J271248D01*
G01*
X123709000Y-47270248D01*
G75*
G02*
X123980248Y-46999000I271248J0D01*
G01*
X124939752Y-46999000D01*
G75*
G02*
X125211000Y-47270248I0J-271248D01*
G01*
X125211000Y-48029752D01*
G75*
G02*
X124939752Y-48301000I-271248J0D01*
G01*
G37*
G36*
G01*
X124939752Y-50301000D02*
X123980248Y-50301000D01*
G75*
G02*
X123709000Y-50029752I0J271248D01*
G01*
X123709000Y-49270248D01*
G75*
G02*
X123980248Y-48999000I271248J0D01*
G01*
X124939752Y-48999000D01*
G75*
G02*
X125211000Y-49270248I0J-271248D01*
G01*
X125211000Y-50029752D01*
G75*
G02*
X124939752Y-50301000I-271248J0D01*
G01*
G37*
D10*
G36*
X185585398Y-83841112D02*
G01*
X185585398Y-83859534D01*
X185585152Y-83864533D01*
X185580342Y-83913364D01*
X185579608Y-83918314D01*
X185570036Y-83966439D01*
X185568820Y-83971295D01*
X185554576Y-84018250D01*
X185552890Y-84022961D01*
X185534113Y-84068294D01*
X185531973Y-84072820D01*
X185508842Y-84116093D01*
X185506269Y-84120384D01*
X185479009Y-84161183D01*
X185476027Y-84165204D01*
X185444899Y-84203133D01*
X185441538Y-84206841D01*
X185406841Y-84241538D01*
X185403133Y-84244899D01*
X185365204Y-84276027D01*
X185361183Y-84279009D01*
X185320384Y-84306269D01*
X185316093Y-84308842D01*
X185272820Y-84331973D01*
X185268294Y-84334113D01*
X185222961Y-84352890D01*
X185218250Y-84354576D01*
X185171295Y-84368820D01*
X185166439Y-84370036D01*
X185118314Y-84379608D01*
X185113364Y-84380342D01*
X185064533Y-84385152D01*
X185059534Y-84385398D01*
X185041112Y-84385398D01*
X185035000Y-84386000D01*
X184535000Y-84386000D01*
X184528888Y-84385398D01*
X184510466Y-84385398D01*
X184505467Y-84385152D01*
X184456636Y-84380342D01*
X184451686Y-84379608D01*
X184403561Y-84370036D01*
X184398705Y-84368820D01*
X184351750Y-84354576D01*
X184347039Y-84352890D01*
X184301706Y-84334113D01*
X184297180Y-84331973D01*
X184253907Y-84308842D01*
X184249616Y-84306269D01*
X184208817Y-84279009D01*
X184204796Y-84276027D01*
X184166867Y-84244899D01*
X184163159Y-84241538D01*
X184128462Y-84206841D01*
X184125101Y-84203133D01*
X184093973Y-84165204D01*
X184090991Y-84161183D01*
X184063731Y-84120384D01*
X184061158Y-84116093D01*
X184038027Y-84072820D01*
X184035887Y-84068294D01*
X184017110Y-84022961D01*
X184015424Y-84018250D01*
X184001180Y-83971295D01*
X183999964Y-83966439D01*
X183990392Y-83918314D01*
X183989658Y-83913364D01*
X183984848Y-83864533D01*
X183984602Y-83859534D01*
X183984602Y-83841112D01*
X183984000Y-83835000D01*
X183984000Y-83335000D01*
X183984980Y-83325050D01*
X183987882Y-83315483D01*
X183992595Y-83306666D01*
X183998938Y-83298938D01*
X184006666Y-83292595D01*
X184015483Y-83287882D01*
X184025050Y-83284980D01*
X184035000Y-83284000D01*
X185535000Y-83284000D01*
X185544950Y-83284980D01*
X185554517Y-83287882D01*
X185563334Y-83292595D01*
X185571062Y-83298938D01*
X185577405Y-83306666D01*
X185582118Y-83315483D01*
X185585020Y-83325050D01*
X185586000Y-83335000D01*
X185586000Y-83835000D01*
X185585398Y-83841112D01*
G37*
G36*
X185585020Y-83044950D02*
G01*
X185582118Y-83054517D01*
X185577405Y-83063334D01*
X185571062Y-83071062D01*
X185563334Y-83077405D01*
X185554517Y-83082118D01*
X185544950Y-83085020D01*
X185535000Y-83086000D01*
X184035000Y-83086000D01*
X184025050Y-83085020D01*
X184015483Y-83082118D01*
X184006666Y-83077405D01*
X183998938Y-83071062D01*
X183992595Y-83063334D01*
X183987882Y-83054517D01*
X183984980Y-83044950D01*
X183984000Y-83035000D01*
X183984000Y-82535000D01*
X183984602Y-82528888D01*
X183984602Y-82510466D01*
X183984848Y-82505467D01*
X183989658Y-82456636D01*
X183990392Y-82451686D01*
X183999964Y-82403561D01*
X184001180Y-82398705D01*
X184015424Y-82351750D01*
X184017110Y-82347039D01*
X184035887Y-82301706D01*
X184038027Y-82297180D01*
X184061158Y-82253907D01*
X184063731Y-82249616D01*
X184090991Y-82208817D01*
X184093973Y-82204796D01*
X184125101Y-82166867D01*
X184128462Y-82163159D01*
X184163159Y-82128462D01*
X184166867Y-82125101D01*
X184204796Y-82093973D01*
X184208817Y-82090991D01*
X184249616Y-82063731D01*
X184253907Y-82061158D01*
X184297180Y-82038027D01*
X184301706Y-82035887D01*
X184347039Y-82017110D01*
X184351750Y-82015424D01*
X184398705Y-82001180D01*
X184403561Y-81999964D01*
X184451686Y-81990392D01*
X184456636Y-81989658D01*
X184505467Y-81984848D01*
X184510466Y-81984602D01*
X184528888Y-81984602D01*
X184535000Y-81984000D01*
X185035000Y-81984000D01*
X185041112Y-81984602D01*
X185059534Y-81984602D01*
X185064533Y-81984848D01*
X185113364Y-81989658D01*
X185118314Y-81990392D01*
X185166439Y-81999964D01*
X185171295Y-82001180D01*
X185218250Y-82015424D01*
X185222961Y-82017110D01*
X185268294Y-82035887D01*
X185272820Y-82038027D01*
X185316093Y-82061158D01*
X185320384Y-82063731D01*
X185361183Y-82090991D01*
X185365204Y-82093973D01*
X185403133Y-82125101D01*
X185406841Y-82128462D01*
X185441538Y-82163159D01*
X185444899Y-82166867D01*
X185476027Y-82204796D01*
X185479009Y-82208817D01*
X185506269Y-82249616D01*
X185508842Y-82253907D01*
X185531973Y-82297180D01*
X185534113Y-82301706D01*
X185552890Y-82347039D01*
X185554576Y-82351750D01*
X185568820Y-82398705D01*
X185570036Y-82403561D01*
X185579608Y-82451686D01*
X185580342Y-82456636D01*
X185585152Y-82505467D01*
X185585398Y-82510466D01*
X185585398Y-82528888D01*
X185586000Y-82535000D01*
X185586000Y-83035000D01*
X185585020Y-83044950D01*
G37*
G36*
X180174602Y-82528888D02*
G01*
X180174602Y-82510466D01*
X180174848Y-82505467D01*
X180179658Y-82456636D01*
X180180392Y-82451686D01*
X180189964Y-82403561D01*
X180191180Y-82398705D01*
X180205424Y-82351750D01*
X180207110Y-82347039D01*
X180225887Y-82301706D01*
X180228027Y-82297180D01*
X180251158Y-82253907D01*
X180253731Y-82249616D01*
X180280991Y-82208817D01*
X180283973Y-82204796D01*
X180315101Y-82166867D01*
X180318462Y-82163159D01*
X180353159Y-82128462D01*
X180356867Y-82125101D01*
X180394796Y-82093973D01*
X180398817Y-82090991D01*
X180439616Y-82063731D01*
X180443907Y-82061158D01*
X180487180Y-82038027D01*
X180491706Y-82035887D01*
X180537039Y-82017110D01*
X180541750Y-82015424D01*
X180588705Y-82001180D01*
X180593561Y-81999964D01*
X180641686Y-81990392D01*
X180646636Y-81989658D01*
X180695467Y-81984848D01*
X180700466Y-81984602D01*
X180718888Y-81984602D01*
X180725000Y-81984000D01*
X181225000Y-81984000D01*
X181231112Y-81984602D01*
X181249534Y-81984602D01*
X181254533Y-81984848D01*
X181303364Y-81989658D01*
X181308314Y-81990392D01*
X181356439Y-81999964D01*
X181361295Y-82001180D01*
X181408250Y-82015424D01*
X181412961Y-82017110D01*
X181458294Y-82035887D01*
X181462820Y-82038027D01*
X181506093Y-82061158D01*
X181510384Y-82063731D01*
X181551183Y-82090991D01*
X181555204Y-82093973D01*
X181593133Y-82125101D01*
X181596841Y-82128462D01*
X181631538Y-82163159D01*
X181634899Y-82166867D01*
X181666027Y-82204796D01*
X181669009Y-82208817D01*
X181696269Y-82249616D01*
X181698842Y-82253907D01*
X181721973Y-82297180D01*
X181724113Y-82301706D01*
X181742890Y-82347039D01*
X181744576Y-82351750D01*
X181758820Y-82398705D01*
X181760036Y-82403561D01*
X181769608Y-82451686D01*
X181770342Y-82456636D01*
X181775152Y-82505467D01*
X181775398Y-82510466D01*
X181775398Y-82528888D01*
X181776000Y-82535000D01*
X181776000Y-83035000D01*
X181775020Y-83044950D01*
X181772118Y-83054517D01*
X181767405Y-83063334D01*
X181761062Y-83071062D01*
X181753334Y-83077405D01*
X181744517Y-83082118D01*
X181734950Y-83085020D01*
X181725000Y-83086000D01*
X180225000Y-83086000D01*
X180215050Y-83085020D01*
X180205483Y-83082118D01*
X180196666Y-83077405D01*
X180188938Y-83071062D01*
X180182595Y-83063334D01*
X180177882Y-83054517D01*
X180174980Y-83044950D01*
X180174000Y-83035000D01*
X180174000Y-82535000D01*
X180174602Y-82528888D01*
G37*
G36*
X180174980Y-83325050D02*
G01*
X180177882Y-83315483D01*
X180182595Y-83306666D01*
X180188938Y-83298938D01*
X180196666Y-83292595D01*
X180205483Y-83287882D01*
X180215050Y-83284980D01*
X180225000Y-83284000D01*
X181725000Y-83284000D01*
X181734950Y-83284980D01*
X181744517Y-83287882D01*
X181753334Y-83292595D01*
X181761062Y-83298938D01*
X181767405Y-83306666D01*
X181772118Y-83315483D01*
X181775020Y-83325050D01*
X181776000Y-83335000D01*
X181776000Y-83835000D01*
X181775398Y-83841112D01*
X181775398Y-83859534D01*
X181775152Y-83864533D01*
X181770342Y-83913364D01*
X181769608Y-83918314D01*
X181760036Y-83966439D01*
X181758820Y-83971295D01*
X181744576Y-84018250D01*
X181742890Y-84022961D01*
X181724113Y-84068294D01*
X181721973Y-84072820D01*
X181698842Y-84116093D01*
X181696269Y-84120384D01*
X181669009Y-84161183D01*
X181666027Y-84165204D01*
X181634899Y-84203133D01*
X181631538Y-84206841D01*
X181596841Y-84241538D01*
X181593133Y-84244899D01*
X181555204Y-84276027D01*
X181551183Y-84279009D01*
X181510384Y-84306269D01*
X181506093Y-84308842D01*
X181462820Y-84331973D01*
X181458294Y-84334113D01*
X181412961Y-84352890D01*
X181408250Y-84354576D01*
X181361295Y-84368820D01*
X181356439Y-84370036D01*
X181308314Y-84379608D01*
X181303364Y-84380342D01*
X181254533Y-84385152D01*
X181249534Y-84385398D01*
X181231112Y-84385398D01*
X181225000Y-84386000D01*
X180725000Y-84386000D01*
X180718888Y-84385398D01*
X180700466Y-84385398D01*
X180695467Y-84385152D01*
X180646636Y-84380342D01*
X180641686Y-84379608D01*
X180593561Y-84370036D01*
X180588705Y-84368820D01*
X180541750Y-84354576D01*
X180537039Y-84352890D01*
X180491706Y-84334113D01*
X180487180Y-84331973D01*
X180443907Y-84308842D01*
X180439616Y-84306269D01*
X180398817Y-84279009D01*
X180394796Y-84276027D01*
X180356867Y-84244899D01*
X180353159Y-84241538D01*
X180318462Y-84206841D01*
X180315101Y-84203133D01*
X180283973Y-84165204D01*
X180280991Y-84161183D01*
X180253731Y-84120384D01*
X180251158Y-84116093D01*
X180228027Y-84072820D01*
X180225887Y-84068294D01*
X180207110Y-84022961D01*
X180205424Y-84018250D01*
X180191180Y-83971295D01*
X180189964Y-83966439D01*
X180180392Y-83918314D01*
X180179658Y-83913364D01*
X180174848Y-83864533D01*
X180174602Y-83859534D01*
X180174602Y-83841112D01*
X180174000Y-83835000D01*
X180174000Y-83335000D01*
X180174980Y-83325050D01*
G37*
D11*
X112846000Y-55855000D03*
X112846000Y-54855000D03*
X112846000Y-53855000D03*
X112846000Y-52855000D03*
X112846000Y-51855000D03*
X111846000Y-55855000D03*
X111846000Y-54855000D03*
X111846000Y-53855000D03*
X111846000Y-52855000D03*
X111846000Y-51855000D03*
X110846000Y-55855000D03*
X110846000Y-54855000D03*
X110846000Y-53855000D03*
X110846000Y-52855000D03*
X110846000Y-51855000D03*
X109846000Y-55855000D03*
X109846000Y-54855000D03*
X109846000Y-53855000D03*
X109846000Y-52855000D03*
X109846000Y-51855000D03*
X108846000Y-55855000D03*
X108846000Y-54855000D03*
X108846000Y-53855000D03*
X108846000Y-52855000D03*
X108846000Y-51855000D03*
G36*
G01*
X113397000Y-51355000D02*
X113397000Y-56355000D01*
G75*
G02*
X113346000Y-56406000I-51000J0D01*
G01*
X108346000Y-56406000D01*
G75*
G02*
X108295000Y-56355000I0J51000D01*
G01*
X108295000Y-51355000D01*
G75*
G02*
X108346000Y-51304000I51000J0D01*
G01*
X113346000Y-51304000D01*
G75*
G02*
X113397000Y-51355000I0J-51000D01*
G01*
G37*
G36*
G01*
X102397000Y-45905000D02*
X102397000Y-46805000D01*
G75*
G02*
X102346000Y-46856000I-51000J0D01*
G01*
X100346000Y-46856000D01*
G75*
G02*
X100295000Y-46805000I0J51000D01*
G01*
X100295000Y-45905000D01*
G75*
G02*
X100346000Y-45854000I51000J0D01*
G01*
X102346000Y-45854000D01*
G75*
G02*
X102397000Y-45905000I0J-51000D01*
G01*
G37*
G36*
G01*
X102397000Y-47175000D02*
X102397000Y-48075000D01*
G75*
G02*
X102346000Y-48126000I-51000J0D01*
G01*
X100346000Y-48126000D01*
G75*
G02*
X100295000Y-48075000I0J51000D01*
G01*
X100295000Y-47175000D01*
G75*
G02*
X100346000Y-47124000I51000J0D01*
G01*
X102346000Y-47124000D01*
G75*
G02*
X102397000Y-47175000I0J-51000D01*
G01*
G37*
G36*
G01*
X102397000Y-48445000D02*
X102397000Y-49345000D01*
G75*
G02*
X102346000Y-49396000I-51000J0D01*
G01*
X100346000Y-49396000D01*
G75*
G02*
X100295000Y-49345000I0J51000D01*
G01*
X100295000Y-48445000D01*
G75*
G02*
X100346000Y-48394000I51000J0D01*
G01*
X102346000Y-48394000D01*
G75*
G02*
X102397000Y-48445000I0J-51000D01*
G01*
G37*
G36*
G01*
X102397000Y-49715000D02*
X102397000Y-50615000D01*
G75*
G02*
X102346000Y-50666000I-51000J0D01*
G01*
X100346000Y-50666000D01*
G75*
G02*
X100295000Y-50615000I0J51000D01*
G01*
X100295000Y-49715000D01*
G75*
G02*
X100346000Y-49664000I51000J0D01*
G01*
X102346000Y-49664000D01*
G75*
G02*
X102397000Y-49715000I0J-51000D01*
G01*
G37*
G36*
G01*
X102397000Y-50985000D02*
X102397000Y-51885000D01*
G75*
G02*
X102346000Y-51936000I-51000J0D01*
G01*
X100346000Y-51936000D01*
G75*
G02*
X100295000Y-51885000I0J51000D01*
G01*
X100295000Y-50985000D01*
G75*
G02*
X100346000Y-50934000I51000J0D01*
G01*
X102346000Y-50934000D01*
G75*
G02*
X102397000Y-50985000I0J-51000D01*
G01*
G37*
G36*
G01*
X102397000Y-52255000D02*
X102397000Y-53155000D01*
G75*
G02*
X102346000Y-53206000I-51000J0D01*
G01*
X100346000Y-53206000D01*
G75*
G02*
X100295000Y-53155000I0J51000D01*
G01*
X100295000Y-52255000D01*
G75*
G02*
X100346000Y-52204000I51000J0D01*
G01*
X102346000Y-52204000D01*
G75*
G02*
X102397000Y-52255000I0J-51000D01*
G01*
G37*
G36*
G01*
X102397000Y-53525000D02*
X102397000Y-54425000D01*
G75*
G02*
X102346000Y-54476000I-51000J0D01*
G01*
X100346000Y-54476000D01*
G75*
G02*
X100295000Y-54425000I0J51000D01*
G01*
X100295000Y-53525000D01*
G75*
G02*
X100346000Y-53474000I51000J0D01*
G01*
X102346000Y-53474000D01*
G75*
G02*
X102397000Y-53525000I0J-51000D01*
G01*
G37*
G36*
G01*
X102397000Y-54795000D02*
X102397000Y-55695000D01*
G75*
G02*
X102346000Y-55746000I-51000J0D01*
G01*
X100346000Y-55746000D01*
G75*
G02*
X100295000Y-55695000I0J51000D01*
G01*
X100295000Y-54795000D01*
G75*
G02*
X100346000Y-54744000I51000J0D01*
G01*
X102346000Y-54744000D01*
G75*
G02*
X102397000Y-54795000I0J-51000D01*
G01*
G37*
G36*
G01*
X102397000Y-56065000D02*
X102397000Y-56965000D01*
G75*
G02*
X102346000Y-57016000I-51000J0D01*
G01*
X100346000Y-57016000D01*
G75*
G02*
X100295000Y-56965000I0J51000D01*
G01*
X100295000Y-56065000D01*
G75*
G02*
X100346000Y-56014000I51000J0D01*
G01*
X102346000Y-56014000D01*
G75*
G02*
X102397000Y-56065000I0J-51000D01*
G01*
G37*
G36*
G01*
X102397000Y-57335000D02*
X102397000Y-58235000D01*
G75*
G02*
X102346000Y-58286000I-51000J0D01*
G01*
X100346000Y-58286000D01*
G75*
G02*
X100295000Y-58235000I0J51000D01*
G01*
X100295000Y-57335000D01*
G75*
G02*
X100346000Y-57284000I51000J0D01*
G01*
X102346000Y-57284000D01*
G75*
G02*
X102397000Y-57335000I0J-51000D01*
G01*
G37*
G36*
G01*
X102397000Y-58605000D02*
X102397000Y-59505000D01*
G75*
G02*
X102346000Y-59556000I-51000J0D01*
G01*
X100346000Y-59556000D01*
G75*
G02*
X100295000Y-59505000I0J51000D01*
G01*
X100295000Y-58605000D01*
G75*
G02*
X100346000Y-58554000I51000J0D01*
G01*
X102346000Y-58554000D01*
G75*
G02*
X102397000Y-58605000I0J-51000D01*
G01*
G37*
G36*
G01*
X102397000Y-59875000D02*
X102397000Y-60775000D01*
G75*
G02*
X102346000Y-60826000I-51000J0D01*
G01*
X100346000Y-60826000D01*
G75*
G02*
X100295000Y-60775000I0J51000D01*
G01*
X100295000Y-59875000D01*
G75*
G02*
X100346000Y-59824000I51000J0D01*
G01*
X102346000Y-59824000D01*
G75*
G02*
X102397000Y-59875000I0J-51000D01*
G01*
G37*
G36*
G01*
X102397000Y-61145000D02*
X102397000Y-62045000D01*
G75*
G02*
X102346000Y-62096000I-51000J0D01*
G01*
X100346000Y-62096000D01*
G75*
G02*
X100295000Y-62045000I0J51000D01*
G01*
X100295000Y-61145000D01*
G75*
G02*
X100346000Y-61094000I51000J0D01*
G01*
X102346000Y-61094000D01*
G75*
G02*
X102397000Y-61145000I0J-51000D01*
G01*
G37*
G36*
G01*
X102397000Y-62415000D02*
X102397000Y-63315000D01*
G75*
G02*
X102346000Y-63366000I-51000J0D01*
G01*
X100346000Y-63366000D01*
G75*
G02*
X100295000Y-63315000I0J51000D01*
G01*
X100295000Y-62415000D01*
G75*
G02*
X100346000Y-62364000I51000J0D01*
G01*
X102346000Y-62364000D01*
G75*
G02*
X102397000Y-62415000I0J-51000D01*
G01*
G37*
G36*
G01*
X102397000Y-63685000D02*
X102397000Y-64585000D01*
G75*
G02*
X102346000Y-64636000I-51000J0D01*
G01*
X100346000Y-64636000D01*
G75*
G02*
X100295000Y-64585000I0J51000D01*
G01*
X100295000Y-63685000D01*
G75*
G02*
X100346000Y-63634000I51000J0D01*
G01*
X102346000Y-63634000D01*
G75*
G02*
X102397000Y-63685000I0J-51000D01*
G01*
G37*
G36*
G01*
X102397000Y-64955000D02*
X102397000Y-65855000D01*
G75*
G02*
X102346000Y-65906000I-51000J0D01*
G01*
X100346000Y-65906000D01*
G75*
G02*
X100295000Y-65855000I0J51000D01*
G01*
X100295000Y-64955000D01*
G75*
G02*
X100346000Y-64904000I51000J0D01*
G01*
X102346000Y-64904000D01*
G75*
G02*
X102397000Y-64955000I0J-51000D01*
G01*
G37*
G36*
G01*
X102397000Y-66225000D02*
X102397000Y-67125000D01*
G75*
G02*
X102346000Y-67176000I-51000J0D01*
G01*
X100346000Y-67176000D01*
G75*
G02*
X100295000Y-67125000I0J51000D01*
G01*
X100295000Y-66225000D01*
G75*
G02*
X100346000Y-66174000I51000J0D01*
G01*
X102346000Y-66174000D01*
G75*
G02*
X102397000Y-66225000I0J-51000D01*
G01*
G37*
G36*
G01*
X102397000Y-67495000D02*
X102397000Y-68395000D01*
G75*
G02*
X102346000Y-68446000I-51000J0D01*
G01*
X100346000Y-68446000D01*
G75*
G02*
X100295000Y-68395000I0J51000D01*
G01*
X100295000Y-67495000D01*
G75*
G02*
X100346000Y-67444000I51000J0D01*
G01*
X102346000Y-67444000D01*
G75*
G02*
X102397000Y-67495000I0J-51000D01*
G01*
G37*
G36*
G01*
X102397000Y-68765000D02*
X102397000Y-69665000D01*
G75*
G02*
X102346000Y-69716000I-51000J0D01*
G01*
X100346000Y-69716000D01*
G75*
G02*
X100295000Y-69665000I0J51000D01*
G01*
X100295000Y-68765000D01*
G75*
G02*
X100346000Y-68714000I51000J0D01*
G01*
X102346000Y-68714000D01*
G75*
G02*
X102397000Y-68765000I0J-51000D01*
G01*
G37*
G36*
G01*
X119397000Y-68765000D02*
X119397000Y-69665000D01*
G75*
G02*
X119346000Y-69716000I-51000J0D01*
G01*
X117346000Y-69716000D01*
G75*
G02*
X117295000Y-69665000I0J51000D01*
G01*
X117295000Y-68765000D01*
G75*
G02*
X117346000Y-68714000I51000J0D01*
G01*
X119346000Y-68714000D01*
G75*
G02*
X119397000Y-68765000I0J-51000D01*
G01*
G37*
G36*
G01*
X119397000Y-67495000D02*
X119397000Y-68395000D01*
G75*
G02*
X119346000Y-68446000I-51000J0D01*
G01*
X117346000Y-68446000D01*
G75*
G02*
X117295000Y-68395000I0J51000D01*
G01*
X117295000Y-67495000D01*
G75*
G02*
X117346000Y-67444000I51000J0D01*
G01*
X119346000Y-67444000D01*
G75*
G02*
X119397000Y-67495000I0J-51000D01*
G01*
G37*
G36*
G01*
X119397000Y-66225000D02*
X119397000Y-67125000D01*
G75*
G02*
X119346000Y-67176000I-51000J0D01*
G01*
X117346000Y-67176000D01*
G75*
G02*
X117295000Y-67125000I0J51000D01*
G01*
X117295000Y-66225000D01*
G75*
G02*
X117346000Y-66174000I51000J0D01*
G01*
X119346000Y-66174000D01*
G75*
G02*
X119397000Y-66225000I0J-51000D01*
G01*
G37*
G36*
G01*
X119397000Y-64955000D02*
X119397000Y-65855000D01*
G75*
G02*
X119346000Y-65906000I-51000J0D01*
G01*
X117346000Y-65906000D01*
G75*
G02*
X117295000Y-65855000I0J51000D01*
G01*
X117295000Y-64955000D01*
G75*
G02*
X117346000Y-64904000I51000J0D01*
G01*
X119346000Y-64904000D01*
G75*
G02*
X119397000Y-64955000I0J-51000D01*
G01*
G37*
G36*
G01*
X119397000Y-63685000D02*
X119397000Y-64585000D01*
G75*
G02*
X119346000Y-64636000I-51000J0D01*
G01*
X117346000Y-64636000D01*
G75*
G02*
X117295000Y-64585000I0J51000D01*
G01*
X117295000Y-63685000D01*
G75*
G02*
X117346000Y-63634000I51000J0D01*
G01*
X119346000Y-63634000D01*
G75*
G02*
X119397000Y-63685000I0J-51000D01*
G01*
G37*
G36*
G01*
X119397000Y-62415000D02*
X119397000Y-63315000D01*
G75*
G02*
X119346000Y-63366000I-51000J0D01*
G01*
X117346000Y-63366000D01*
G75*
G02*
X117295000Y-63315000I0J51000D01*
G01*
X117295000Y-62415000D01*
G75*
G02*
X117346000Y-62364000I51000J0D01*
G01*
X119346000Y-62364000D01*
G75*
G02*
X119397000Y-62415000I0J-51000D01*
G01*
G37*
G36*
G01*
X119397000Y-61145000D02*
X119397000Y-62045000D01*
G75*
G02*
X119346000Y-62096000I-51000J0D01*
G01*
X117346000Y-62096000D01*
G75*
G02*
X117295000Y-62045000I0J51000D01*
G01*
X117295000Y-61145000D01*
G75*
G02*
X117346000Y-61094000I51000J0D01*
G01*
X119346000Y-61094000D01*
G75*
G02*
X119397000Y-61145000I0J-51000D01*
G01*
G37*
G36*
G01*
X119397000Y-59875000D02*
X119397000Y-60775000D01*
G75*
G02*
X119346000Y-60826000I-51000J0D01*
G01*
X117346000Y-60826000D01*
G75*
G02*
X117295000Y-60775000I0J51000D01*
G01*
X117295000Y-59875000D01*
G75*
G02*
X117346000Y-59824000I51000J0D01*
G01*
X119346000Y-59824000D01*
G75*
G02*
X119397000Y-59875000I0J-51000D01*
G01*
G37*
G36*
G01*
X119397000Y-58605000D02*
X119397000Y-59505000D01*
G75*
G02*
X119346000Y-59556000I-51000J0D01*
G01*
X117346000Y-59556000D01*
G75*
G02*
X117295000Y-59505000I0J51000D01*
G01*
X117295000Y-58605000D01*
G75*
G02*
X117346000Y-58554000I51000J0D01*
G01*
X119346000Y-58554000D01*
G75*
G02*
X119397000Y-58605000I0J-51000D01*
G01*
G37*
G36*
G01*
X119397000Y-57335000D02*
X119397000Y-58235000D01*
G75*
G02*
X119346000Y-58286000I-51000J0D01*
G01*
X117346000Y-58286000D01*
G75*
G02*
X117295000Y-58235000I0J51000D01*
G01*
X117295000Y-57335000D01*
G75*
G02*
X117346000Y-57284000I51000J0D01*
G01*
X119346000Y-57284000D01*
G75*
G02*
X119397000Y-57335000I0J-51000D01*
G01*
G37*
G36*
G01*
X119397000Y-56065000D02*
X119397000Y-56965000D01*
G75*
G02*
X119346000Y-57016000I-51000J0D01*
G01*
X117346000Y-57016000D01*
G75*
G02*
X117295000Y-56965000I0J51000D01*
G01*
X117295000Y-56065000D01*
G75*
G02*
X117346000Y-56014000I51000J0D01*
G01*
X119346000Y-56014000D01*
G75*
G02*
X119397000Y-56065000I0J-51000D01*
G01*
G37*
G36*
G01*
X119397000Y-54795000D02*
X119397000Y-55695000D01*
G75*
G02*
X119346000Y-55746000I-51000J0D01*
G01*
X117346000Y-55746000D01*
G75*
G02*
X117295000Y-55695000I0J51000D01*
G01*
X117295000Y-54795000D01*
G75*
G02*
X117346000Y-54744000I51000J0D01*
G01*
X119346000Y-54744000D01*
G75*
G02*
X119397000Y-54795000I0J-51000D01*
G01*
G37*
G36*
G01*
X119397000Y-53525000D02*
X119397000Y-54425000D01*
G75*
G02*
X119346000Y-54476000I-51000J0D01*
G01*
X117346000Y-54476000D01*
G75*
G02*
X117295000Y-54425000I0J51000D01*
G01*
X117295000Y-53525000D01*
G75*
G02*
X117346000Y-53474000I51000J0D01*
G01*
X119346000Y-53474000D01*
G75*
G02*
X119397000Y-53525000I0J-51000D01*
G01*
G37*
G36*
G01*
X119397000Y-52255000D02*
X119397000Y-53155000D01*
G75*
G02*
X119346000Y-53206000I-51000J0D01*
G01*
X117346000Y-53206000D01*
G75*
G02*
X117295000Y-53155000I0J51000D01*
G01*
X117295000Y-52255000D01*
G75*
G02*
X117346000Y-52204000I51000J0D01*
G01*
X119346000Y-52204000D01*
G75*
G02*
X119397000Y-52255000I0J-51000D01*
G01*
G37*
G36*
G01*
X119397000Y-50985000D02*
X119397000Y-51885000D01*
G75*
G02*
X119346000Y-51936000I-51000J0D01*
G01*
X117346000Y-51936000D01*
G75*
G02*
X117295000Y-51885000I0J51000D01*
G01*
X117295000Y-50985000D01*
G75*
G02*
X117346000Y-50934000I51000J0D01*
G01*
X119346000Y-50934000D01*
G75*
G02*
X119397000Y-50985000I0J-51000D01*
G01*
G37*
G36*
G01*
X119397000Y-49715000D02*
X119397000Y-50615000D01*
G75*
G02*
X119346000Y-50666000I-51000J0D01*
G01*
X117346000Y-50666000D01*
G75*
G02*
X117295000Y-50615000I0J51000D01*
G01*
X117295000Y-49715000D01*
G75*
G02*
X117346000Y-49664000I51000J0D01*
G01*
X119346000Y-49664000D01*
G75*
G02*
X119397000Y-49715000I0J-51000D01*
G01*
G37*
G36*
G01*
X119397000Y-48445000D02*
X119397000Y-49345000D01*
G75*
G02*
X119346000Y-49396000I-51000J0D01*
G01*
X117346000Y-49396000D01*
G75*
G02*
X117295000Y-49345000I0J51000D01*
G01*
X117295000Y-48445000D01*
G75*
G02*
X117346000Y-48394000I51000J0D01*
G01*
X119346000Y-48394000D01*
G75*
G02*
X119397000Y-48445000I0J-51000D01*
G01*
G37*
G36*
G01*
X119397000Y-47175000D02*
X119397000Y-48075000D01*
G75*
G02*
X119346000Y-48126000I-51000J0D01*
G01*
X117346000Y-48126000D01*
G75*
G02*
X117295000Y-48075000I0J51000D01*
G01*
X117295000Y-47175000D01*
G75*
G02*
X117346000Y-47124000I51000J0D01*
G01*
X119346000Y-47124000D01*
G75*
G02*
X119397000Y-47175000I0J-51000D01*
G01*
G37*
G36*
G01*
X119397000Y-45905000D02*
X119397000Y-46805000D01*
G75*
G02*
X119346000Y-46856000I-51000J0D01*
G01*
X117346000Y-46856000D01*
G75*
G02*
X117295000Y-46805000I0J51000D01*
G01*
X117295000Y-45905000D01*
G75*
G02*
X117346000Y-45854000I51000J0D01*
G01*
X119346000Y-45854000D01*
G75*
G02*
X119397000Y-45905000I0J-51000D01*
G01*
G37*
D12*
X96520000Y-111760000D03*
X91520000Y-109960000D03*
G36*
G01*
X163310000Y-78021000D02*
X161810000Y-78021000D01*
G75*
G02*
X161759000Y-77970000I0J51000D01*
G01*
X161759000Y-76970000D01*
G75*
G02*
X161810000Y-76919000I51000J0D01*
G01*
X163310000Y-76919000D01*
G75*
G02*
X163361000Y-76970000I0J-51000D01*
G01*
X163361000Y-77970000D01*
G75*
G02*
X163310000Y-78021000I-51000J0D01*
G01*
G37*
D10*
G36*
X161759602Y-76163888D02*
G01*
X161759602Y-76145466D01*
X161759848Y-76140467D01*
X161764658Y-76091636D01*
X161765392Y-76086686D01*
X161774964Y-76038561D01*
X161776180Y-76033705D01*
X161790424Y-75986750D01*
X161792110Y-75982039D01*
X161810887Y-75936706D01*
X161813027Y-75932180D01*
X161836158Y-75888907D01*
X161838731Y-75884616D01*
X161865991Y-75843817D01*
X161868973Y-75839796D01*
X161900101Y-75801867D01*
X161903462Y-75798159D01*
X161938159Y-75763462D01*
X161941867Y-75760101D01*
X161979796Y-75728973D01*
X161983817Y-75725991D01*
X162024616Y-75698731D01*
X162028907Y-75696158D01*
X162072180Y-75673027D01*
X162076706Y-75670887D01*
X162122039Y-75652110D01*
X162126750Y-75650424D01*
X162173705Y-75636180D01*
X162178561Y-75634964D01*
X162226686Y-75625392D01*
X162231636Y-75624658D01*
X162280467Y-75619848D01*
X162285466Y-75619602D01*
X162303888Y-75619602D01*
X162310000Y-75619000D01*
X162810000Y-75619000D01*
X162816112Y-75619602D01*
X162834534Y-75619602D01*
X162839533Y-75619848D01*
X162888364Y-75624658D01*
X162893314Y-75625392D01*
X162941439Y-75634964D01*
X162946295Y-75636180D01*
X162993250Y-75650424D01*
X162997961Y-75652110D01*
X163043294Y-75670887D01*
X163047820Y-75673027D01*
X163091093Y-75696158D01*
X163095384Y-75698731D01*
X163136183Y-75725991D01*
X163140204Y-75728973D01*
X163178133Y-75760101D01*
X163181841Y-75763462D01*
X163216538Y-75798159D01*
X163219899Y-75801867D01*
X163251027Y-75839796D01*
X163254009Y-75843817D01*
X163281269Y-75884616D01*
X163283842Y-75888907D01*
X163306973Y-75932180D01*
X163309113Y-75936706D01*
X163327890Y-75982039D01*
X163329576Y-75986750D01*
X163343820Y-76033705D01*
X163345036Y-76038561D01*
X163354608Y-76086686D01*
X163355342Y-76091636D01*
X163360152Y-76140467D01*
X163360398Y-76145466D01*
X163360398Y-76163888D01*
X163361000Y-76170000D01*
X163361000Y-76720000D01*
X163360020Y-76729950D01*
X163357118Y-76739517D01*
X163352405Y-76748334D01*
X163346062Y-76756062D01*
X163338334Y-76762405D01*
X163329517Y-76767118D01*
X163319950Y-76770020D01*
X163310000Y-76771000D01*
X161810000Y-76771000D01*
X161800050Y-76770020D01*
X161790483Y-76767118D01*
X161781666Y-76762405D01*
X161773938Y-76756062D01*
X161767595Y-76748334D01*
X161762882Y-76739517D01*
X161759980Y-76729950D01*
X161759000Y-76720000D01*
X161759000Y-76170000D01*
X161759602Y-76163888D01*
G37*
G36*
X161759980Y-78210050D02*
G01*
X161762882Y-78200483D01*
X161767595Y-78191666D01*
X161773938Y-78183938D01*
X161781666Y-78177595D01*
X161790483Y-78172882D01*
X161800050Y-78169980D01*
X161810000Y-78169000D01*
X163310000Y-78169000D01*
X163319950Y-78169980D01*
X163329517Y-78172882D01*
X163338334Y-78177595D01*
X163346062Y-78183938D01*
X163352405Y-78191666D01*
X163357118Y-78200483D01*
X163360020Y-78210050D01*
X163361000Y-78220000D01*
X163361000Y-78770000D01*
X163360398Y-78776112D01*
X163360398Y-78794534D01*
X163360152Y-78799533D01*
X163355342Y-78848364D01*
X163354608Y-78853314D01*
X163345036Y-78901439D01*
X163343820Y-78906295D01*
X163329576Y-78953250D01*
X163327890Y-78957961D01*
X163309113Y-79003294D01*
X163306973Y-79007820D01*
X163283842Y-79051093D01*
X163281269Y-79055384D01*
X163254009Y-79096183D01*
X163251027Y-79100204D01*
X163219899Y-79138133D01*
X163216538Y-79141841D01*
X163181841Y-79176538D01*
X163178133Y-79179899D01*
X163140204Y-79211027D01*
X163136183Y-79214009D01*
X163095384Y-79241269D01*
X163091093Y-79243842D01*
X163047820Y-79266973D01*
X163043294Y-79269113D01*
X162997961Y-79287890D01*
X162993250Y-79289576D01*
X162946295Y-79303820D01*
X162941439Y-79305036D01*
X162893314Y-79314608D01*
X162888364Y-79315342D01*
X162839533Y-79320152D01*
X162834534Y-79320398D01*
X162816112Y-79320398D01*
X162810000Y-79321000D01*
X162310000Y-79321000D01*
X162303888Y-79320398D01*
X162285466Y-79320398D01*
X162280467Y-79320152D01*
X162231636Y-79315342D01*
X162226686Y-79314608D01*
X162178561Y-79305036D01*
X162173705Y-79303820D01*
X162126750Y-79289576D01*
X162122039Y-79287890D01*
X162076706Y-79269113D01*
X162072180Y-79266973D01*
X162028907Y-79243842D01*
X162024616Y-79241269D01*
X161983817Y-79214009D01*
X161979796Y-79211027D01*
X161941867Y-79179899D01*
X161938159Y-79176538D01*
X161903462Y-79141841D01*
X161900101Y-79138133D01*
X161868973Y-79100204D01*
X161865991Y-79096183D01*
X161838731Y-79055384D01*
X161836158Y-79051093D01*
X161813027Y-79007820D01*
X161810887Y-79003294D01*
X161792110Y-78957961D01*
X161790424Y-78953250D01*
X161776180Y-78906295D01*
X161774964Y-78901439D01*
X161765392Y-78853314D01*
X161764658Y-78848364D01*
X161759848Y-78799533D01*
X161759602Y-78794534D01*
X161759602Y-78776112D01*
X161759000Y-78770000D01*
X161759000Y-78220000D01*
X161759980Y-78210050D01*
G37*
G36*
G01*
X104633828Y-84876000D02*
X102376172Y-84876000D01*
G75*
G02*
X102104000Y-84603828I0J272172D01*
G01*
X102104000Y-83896172D01*
G75*
G02*
X102376172Y-83624000I272172J0D01*
G01*
X104633828Y-83624000D01*
G75*
G02*
X104906000Y-83896172I0J-272172D01*
G01*
X104906000Y-84603828D01*
G75*
G02*
X104633828Y-84876000I-272172J0D01*
G01*
G37*
G36*
G01*
X104633828Y-87826000D02*
X102376172Y-87826000D01*
G75*
G02*
X102104000Y-87553828I0J272172D01*
G01*
X102104000Y-86846172D01*
G75*
G02*
X102376172Y-86574000I272172J0D01*
G01*
X104633828Y-86574000D01*
G75*
G02*
X104906000Y-86846172I0J-272172D01*
G01*
X104906000Y-87553828D01*
G75*
G02*
X104633828Y-87826000I-272172J0D01*
G01*
G37*
G36*
G01*
X100188828Y-84876000D02*
X97931172Y-84876000D01*
G75*
G02*
X97659000Y-84603828I0J272172D01*
G01*
X97659000Y-83896172D01*
G75*
G02*
X97931172Y-83624000I272172J0D01*
G01*
X100188828Y-83624000D01*
G75*
G02*
X100461000Y-83896172I0J-272172D01*
G01*
X100461000Y-84603828D01*
G75*
G02*
X100188828Y-84876000I-272172J0D01*
G01*
G37*
G36*
G01*
X100188828Y-87826000D02*
X97931172Y-87826000D01*
G75*
G02*
X97659000Y-87553828I0J272172D01*
G01*
X97659000Y-86846172D01*
G75*
G02*
X97931172Y-86574000I272172J0D01*
G01*
X100188828Y-86574000D01*
G75*
G02*
X100461000Y-86846172I0J-272172D01*
G01*
X100461000Y-87553828D01*
G75*
G02*
X100188828Y-87826000I-272172J0D01*
G01*
G37*
G36*
G01*
X95743828Y-84876000D02*
X93486172Y-84876000D01*
G75*
G02*
X93214000Y-84603828I0J272172D01*
G01*
X93214000Y-83896172D01*
G75*
G02*
X93486172Y-83624000I272172J0D01*
G01*
X95743828Y-83624000D01*
G75*
G02*
X96016000Y-83896172I0J-272172D01*
G01*
X96016000Y-84603828D01*
G75*
G02*
X95743828Y-84876000I-272172J0D01*
G01*
G37*
G36*
G01*
X95743828Y-87826000D02*
X93486172Y-87826000D01*
G75*
G02*
X93214000Y-87553828I0J272172D01*
G01*
X93214000Y-86846172D01*
G75*
G02*
X93486172Y-86574000I272172J0D01*
G01*
X95743828Y-86574000D01*
G75*
G02*
X96016000Y-86846172I0J-272172D01*
G01*
X96016000Y-87553828D01*
G75*
G02*
X95743828Y-87826000I-272172J0D01*
G01*
G37*
G36*
G01*
X128034000Y-55110500D02*
X128034000Y-54109500D01*
G75*
G02*
X128309500Y-53834000I275500J0D01*
G01*
X128860500Y-53834000D01*
G75*
G02*
X129136000Y-54109500I0J-275500D01*
G01*
X129136000Y-55110500D01*
G75*
G02*
X128860500Y-55386000I-275500J0D01*
G01*
X128309500Y-55386000D01*
G75*
G02*
X128034000Y-55110500I0J275500D01*
G01*
G37*
G36*
G01*
X126134000Y-55110500D02*
X126134000Y-54109500D01*
G75*
G02*
X126409500Y-53834000I275500J0D01*
G01*
X126960500Y-53834000D01*
G75*
G02*
X127236000Y-54109500I0J-275500D01*
G01*
X127236000Y-55110500D01*
G75*
G02*
X126960500Y-55386000I-275500J0D01*
G01*
X126409500Y-55386000D01*
G75*
G02*
X126134000Y-55110500I0J275500D01*
G01*
G37*
G36*
G01*
X128034000Y-52570500D02*
X128034000Y-51569500D01*
G75*
G02*
X128309500Y-51294000I275500J0D01*
G01*
X128860500Y-51294000D01*
G75*
G02*
X129136000Y-51569500I0J-275500D01*
G01*
X129136000Y-52570500D01*
G75*
G02*
X128860500Y-52846000I-275500J0D01*
G01*
X128309500Y-52846000D01*
G75*
G02*
X128034000Y-52570500I0J275500D01*
G01*
G37*
G36*
G01*
X126134000Y-52570500D02*
X126134000Y-51569500D01*
G75*
G02*
X126409500Y-51294000I275500J0D01*
G01*
X126960500Y-51294000D01*
G75*
G02*
X127236000Y-51569500I0J-275500D01*
G01*
X127236000Y-52570500D01*
G75*
G02*
X126960500Y-52846000I-275500J0D01*
G01*
X126409500Y-52846000D01*
G75*
G02*
X126134000Y-52570500I0J275500D01*
G01*
G37*
D13*
X125730000Y-115760000D03*
X125730000Y-118110000D03*
X125730000Y-120460000D03*
X125730000Y-104330000D03*
X125730000Y-106680000D03*
X125730000Y-109030000D03*
X125730000Y-92900000D03*
X125730000Y-95250000D03*
X125730000Y-97600000D03*
X125730000Y-81470000D03*
X125730000Y-83820000D03*
X125730000Y-86170000D03*
X142240000Y-87440000D03*
X142240000Y-85090000D03*
X142240000Y-82740000D03*
X142240000Y-98870000D03*
X142240000Y-96520000D03*
X142240000Y-94170000D03*
X142240000Y-110300000D03*
X142240000Y-107950000D03*
X142240000Y-105600000D03*
X142240000Y-121730000D03*
X142240000Y-119380000D03*
X142240000Y-117030000D03*
D14*
X153790000Y-138600000D03*
X151250000Y-138600000D03*
X148710000Y-138600000D03*
G36*
G01*
X147020000Y-139501000D02*
X145320000Y-139501000D01*
G75*
G02*
X145269000Y-139450000I0J51000D01*
G01*
X145269000Y-137750000D01*
G75*
G02*
X145320000Y-137699000I51000J0D01*
G01*
X147020000Y-137699000D01*
G75*
G02*
X147071000Y-137750000I0J-51000D01*
G01*
X147071000Y-139450000D01*
G75*
G02*
X147020000Y-139501000I-51000J0D01*
G01*
G37*
G36*
G01*
X211638000Y-60180000D02*
X210637000Y-60180000D01*
G75*
G02*
X210361500Y-59904500I0J275500D01*
G01*
X210361500Y-59353500D01*
G75*
G02*
X210637000Y-59078000I275500J0D01*
G01*
X211638000Y-59078000D01*
G75*
G02*
X211913500Y-59353500I0J-275500D01*
G01*
X211913500Y-59904500D01*
G75*
G02*
X211638000Y-60180000I-275500J0D01*
G01*
G37*
G36*
G01*
X211638000Y-62080000D02*
X210637000Y-62080000D01*
G75*
G02*
X210361500Y-61804500I0J275500D01*
G01*
X210361500Y-61253500D01*
G75*
G02*
X210637000Y-60978000I275500J0D01*
G01*
X211638000Y-60978000D01*
G75*
G02*
X211913500Y-61253500I0J-275500D01*
G01*
X211913500Y-61804500D01*
G75*
G02*
X211638000Y-62080000I-275500J0D01*
G01*
G37*
D10*
G36*
X199300398Y-70156112D02*
G01*
X199300398Y-70174534D01*
X199300152Y-70179533D01*
X199295342Y-70228364D01*
X199294608Y-70233314D01*
X199285036Y-70281439D01*
X199283820Y-70286295D01*
X199269576Y-70333250D01*
X199267890Y-70337961D01*
X199249113Y-70383294D01*
X199246973Y-70387820D01*
X199223842Y-70431093D01*
X199221269Y-70435384D01*
X199194009Y-70476183D01*
X199191027Y-70480204D01*
X199159899Y-70518133D01*
X199156538Y-70521841D01*
X199121841Y-70556538D01*
X199118133Y-70559899D01*
X199080204Y-70591027D01*
X199076183Y-70594009D01*
X199035384Y-70621269D01*
X199031093Y-70623842D01*
X198987820Y-70646973D01*
X198983294Y-70649113D01*
X198937961Y-70667890D01*
X198933250Y-70669576D01*
X198886295Y-70683820D01*
X198881439Y-70685036D01*
X198833314Y-70694608D01*
X198828364Y-70695342D01*
X198779533Y-70700152D01*
X198774534Y-70700398D01*
X198756112Y-70700398D01*
X198750000Y-70701000D01*
X198250000Y-70701000D01*
X198243888Y-70700398D01*
X198225466Y-70700398D01*
X198220467Y-70700152D01*
X198171636Y-70695342D01*
X198166686Y-70694608D01*
X198118561Y-70685036D01*
X198113705Y-70683820D01*
X198066750Y-70669576D01*
X198062039Y-70667890D01*
X198016706Y-70649113D01*
X198012180Y-70646973D01*
X197968907Y-70623842D01*
X197964616Y-70621269D01*
X197923817Y-70594009D01*
X197919796Y-70591027D01*
X197881867Y-70559899D01*
X197878159Y-70556538D01*
X197843462Y-70521841D01*
X197840101Y-70518133D01*
X197808973Y-70480204D01*
X197805991Y-70476183D01*
X197778731Y-70435384D01*
X197776158Y-70431093D01*
X197753027Y-70387820D01*
X197750887Y-70383294D01*
X197732110Y-70337961D01*
X197730424Y-70333250D01*
X197716180Y-70286295D01*
X197714964Y-70281439D01*
X197705392Y-70233314D01*
X197704658Y-70228364D01*
X197699848Y-70179533D01*
X197699602Y-70174534D01*
X197699602Y-70156112D01*
X197699000Y-70150000D01*
X197699000Y-69650000D01*
X197699980Y-69640050D01*
X197702882Y-69630483D01*
X197707595Y-69621666D01*
X197713938Y-69613938D01*
X197721666Y-69607595D01*
X197730483Y-69602882D01*
X197740050Y-69599980D01*
X197750000Y-69599000D01*
X199250000Y-69599000D01*
X199259950Y-69599980D01*
X199269517Y-69602882D01*
X199278334Y-69607595D01*
X199286062Y-69613938D01*
X199292405Y-69621666D01*
X199297118Y-69630483D01*
X199300020Y-69640050D01*
X199301000Y-69650000D01*
X199301000Y-70150000D01*
X199300398Y-70156112D01*
G37*
G36*
X199300020Y-69359950D02*
G01*
X199297118Y-69369517D01*
X199292405Y-69378334D01*
X199286062Y-69386062D01*
X199278334Y-69392405D01*
X199269517Y-69397118D01*
X199259950Y-69400020D01*
X199250000Y-69401000D01*
X197750000Y-69401000D01*
X197740050Y-69400020D01*
X197730483Y-69397118D01*
X197721666Y-69392405D01*
X197713938Y-69386062D01*
X197707595Y-69378334D01*
X197702882Y-69369517D01*
X197699980Y-69359950D01*
X197699000Y-69350000D01*
X197699000Y-68850000D01*
X197699602Y-68843888D01*
X197699602Y-68825466D01*
X197699848Y-68820467D01*
X197704658Y-68771636D01*
X197705392Y-68766686D01*
X197714964Y-68718561D01*
X197716180Y-68713705D01*
X197730424Y-68666750D01*
X197732110Y-68662039D01*
X197750887Y-68616706D01*
X197753027Y-68612180D01*
X197776158Y-68568907D01*
X197778731Y-68564616D01*
X197805991Y-68523817D01*
X197808973Y-68519796D01*
X197840101Y-68481867D01*
X197843462Y-68478159D01*
X197878159Y-68443462D01*
X197881867Y-68440101D01*
X197919796Y-68408973D01*
X197923817Y-68405991D01*
X197964616Y-68378731D01*
X197968907Y-68376158D01*
X198012180Y-68353027D01*
X198016706Y-68350887D01*
X198062039Y-68332110D01*
X198066750Y-68330424D01*
X198113705Y-68316180D01*
X198118561Y-68314964D01*
X198166686Y-68305392D01*
X198171636Y-68304658D01*
X198220467Y-68299848D01*
X198225466Y-68299602D01*
X198243888Y-68299602D01*
X198250000Y-68299000D01*
X198750000Y-68299000D01*
X198756112Y-68299602D01*
X198774534Y-68299602D01*
X198779533Y-68299848D01*
X198828364Y-68304658D01*
X198833314Y-68305392D01*
X198881439Y-68314964D01*
X198886295Y-68316180D01*
X198933250Y-68330424D01*
X198937961Y-68332110D01*
X198983294Y-68350887D01*
X198987820Y-68353027D01*
X199031093Y-68376158D01*
X199035384Y-68378731D01*
X199076183Y-68405991D01*
X199080204Y-68408973D01*
X199118133Y-68440101D01*
X199121841Y-68443462D01*
X199156538Y-68478159D01*
X199159899Y-68481867D01*
X199191027Y-68519796D01*
X199194009Y-68523817D01*
X199221269Y-68564616D01*
X199223842Y-68568907D01*
X199246973Y-68612180D01*
X199249113Y-68616706D01*
X199267890Y-68662039D01*
X199269576Y-68666750D01*
X199283820Y-68713705D01*
X199285036Y-68718561D01*
X199294608Y-68766686D01*
X199295342Y-68771636D01*
X199300152Y-68820467D01*
X199300398Y-68825466D01*
X199300398Y-68843888D01*
X199301000Y-68850000D01*
X199301000Y-69350000D01*
X199300020Y-69359950D01*
G37*
G36*
G01*
X146799000Y-128900000D02*
X146799000Y-126500000D01*
G75*
G02*
X146850000Y-126449000I51000J0D01*
G01*
X148150000Y-126449000D01*
G75*
G02*
X148201000Y-126500000I0J-51000D01*
G01*
X148201000Y-128900000D01*
G75*
G02*
X148150000Y-128951000I-51000J0D01*
G01*
X146850000Y-128951000D01*
G75*
G02*
X146799000Y-128900000I0J51000D01*
G01*
G37*
G36*
G01*
X149299000Y-128900000D02*
X149299000Y-126500000D01*
G75*
G02*
X149350000Y-126449000I51000J0D01*
G01*
X150650000Y-126449000D01*
G75*
G02*
X150701000Y-126500000I0J-51000D01*
G01*
X150701000Y-128900000D01*
G75*
G02*
X150650000Y-128951000I-51000J0D01*
G01*
X149350000Y-128951000D01*
G75*
G02*
X149299000Y-128900000I0J51000D01*
G01*
G37*
G36*
G01*
X151799000Y-128900000D02*
X151799000Y-126500000D01*
G75*
G02*
X151850000Y-126449000I51000J0D01*
G01*
X153150000Y-126449000D01*
G75*
G02*
X153201000Y-126500000I0J-51000D01*
G01*
X153201000Y-128900000D01*
G75*
G02*
X153150000Y-128951000I-51000J0D01*
G01*
X151850000Y-128951000D01*
G75*
G02*
X151799000Y-128900000I0J51000D01*
G01*
G37*
G36*
G01*
X141574000Y-136875000D02*
X141574000Y-133125000D01*
G75*
G02*
X141625000Y-133074000I51000J0D01*
G01*
X145625000Y-133074000D01*
G75*
G02*
X145676000Y-133125000I0J-51000D01*
G01*
X145676000Y-136875000D01*
G75*
G02*
X145625000Y-136926000I-51000J0D01*
G01*
X141625000Y-136926000D01*
G75*
G02*
X141574000Y-136875000I0J51000D01*
G01*
G37*
G36*
G01*
X151799000Y-143200000D02*
X151799000Y-140800000D01*
G75*
G02*
X151850000Y-140749000I51000J0D01*
G01*
X153150000Y-140749000D01*
G75*
G02*
X153201000Y-140800000I0J-51000D01*
G01*
X153201000Y-143200000D01*
G75*
G02*
X153150000Y-143251000I-51000J0D01*
G01*
X151850000Y-143251000D01*
G75*
G02*
X151799000Y-143200000I0J51000D01*
G01*
G37*
G36*
G01*
X146799000Y-143200000D02*
X146799000Y-140800000D01*
G75*
G02*
X146850000Y-140749000I51000J0D01*
G01*
X148150000Y-140749000D01*
G75*
G02*
X148201000Y-140800000I0J-51000D01*
G01*
X148201000Y-143200000D01*
G75*
G02*
X148150000Y-143251000I-51000J0D01*
G01*
X146850000Y-143251000D01*
G75*
G02*
X146799000Y-143200000I0J51000D01*
G01*
G37*
D15*
X150000000Y-135000000D03*
D16*
X150000000Y-130500000D03*
G36*
G01*
X154324000Y-136875000D02*
X154324000Y-133125000D01*
G75*
G02*
X154375000Y-133074000I51000J0D01*
G01*
X158375000Y-133074000D01*
G75*
G02*
X158426000Y-133125000I0J-51000D01*
G01*
X158426000Y-136875000D01*
G75*
G02*
X158375000Y-136926000I-51000J0D01*
G01*
X154375000Y-136926000D01*
G75*
G02*
X154324000Y-136875000I0J51000D01*
G01*
G37*
G36*
G01*
X143699000Y-144500000D02*
X143699000Y-141300000D01*
G75*
G02*
X143750000Y-141249000I51000J0D01*
G01*
X146250000Y-141249000D01*
G75*
G02*
X146301000Y-141300000I0J-51000D01*
G01*
X146301000Y-144500000D01*
G75*
G02*
X146250000Y-144551000I-51000J0D01*
G01*
X143750000Y-144551000D01*
G75*
G02*
X143699000Y-144500000I0J51000D01*
G01*
G37*
G36*
G01*
X153699000Y-144500000D02*
X153699000Y-141300000D01*
G75*
G02*
X153750000Y-141249000I51000J0D01*
G01*
X156250000Y-141249000D01*
G75*
G02*
X156301000Y-141300000I0J-51000D01*
G01*
X156301000Y-144500000D01*
G75*
G02*
X156250000Y-144551000I-51000J0D01*
G01*
X153750000Y-144551000D01*
G75*
G02*
X153699000Y-144500000I0J51000D01*
G01*
G37*
G36*
G01*
X143699000Y-128700000D02*
X143699000Y-125500000D01*
G75*
G02*
X143750000Y-125449000I51000J0D01*
G01*
X146250000Y-125449000D01*
G75*
G02*
X146301000Y-125500000I0J-51000D01*
G01*
X146301000Y-128700000D01*
G75*
G02*
X146250000Y-128751000I-51000J0D01*
G01*
X143750000Y-128751000D01*
G75*
G02*
X143699000Y-128700000I0J51000D01*
G01*
G37*
G36*
G01*
X153699000Y-128700000D02*
X153699000Y-125500000D01*
G75*
G02*
X153750000Y-125449000I51000J0D01*
G01*
X156250000Y-125449000D01*
G75*
G02*
X156301000Y-125500000I0J-51000D01*
G01*
X156301000Y-128700000D01*
G75*
G02*
X156250000Y-128751000I-51000J0D01*
G01*
X153750000Y-128751000D01*
G75*
G02*
X153699000Y-128700000I0J51000D01*
G01*
G37*
G36*
G01*
X121419500Y-47643000D02*
X122420500Y-47643000D01*
G75*
G02*
X122696000Y-47918500I0J-275500D01*
G01*
X122696000Y-48469500D01*
G75*
G02*
X122420500Y-48745000I-275500J0D01*
G01*
X121419500Y-48745000D01*
G75*
G02*
X121144000Y-48469500I0J275500D01*
G01*
X121144000Y-47918500D01*
G75*
G02*
X121419500Y-47643000I275500J0D01*
G01*
G37*
G36*
G01*
X121419500Y-45743000D02*
X122420500Y-45743000D01*
G75*
G02*
X122696000Y-46018500I0J-275500D01*
G01*
X122696000Y-46569500D01*
G75*
G02*
X122420500Y-46845000I-275500J0D01*
G01*
X121419500Y-46845000D01*
G75*
G02*
X121144000Y-46569500I0J275500D01*
G01*
X121144000Y-46018500D01*
G75*
G02*
X121419500Y-45743000I275500J0D01*
G01*
G37*
D10*
G36*
X160185398Y-77491112D02*
G01*
X160185398Y-77509534D01*
X160185152Y-77514533D01*
X160180342Y-77563364D01*
X160179608Y-77568314D01*
X160170036Y-77616439D01*
X160168820Y-77621295D01*
X160154576Y-77668250D01*
X160152890Y-77672961D01*
X160134113Y-77718294D01*
X160131973Y-77722820D01*
X160108842Y-77766093D01*
X160106269Y-77770384D01*
X160079009Y-77811183D01*
X160076027Y-77815204D01*
X160044899Y-77853133D01*
X160041538Y-77856841D01*
X160006841Y-77891538D01*
X160003133Y-77894899D01*
X159965204Y-77926027D01*
X159961183Y-77929009D01*
X159920384Y-77956269D01*
X159916093Y-77958842D01*
X159872820Y-77981973D01*
X159868294Y-77984113D01*
X159822961Y-78002890D01*
X159818250Y-78004576D01*
X159771295Y-78018820D01*
X159766439Y-78020036D01*
X159718314Y-78029608D01*
X159713364Y-78030342D01*
X159664533Y-78035152D01*
X159659534Y-78035398D01*
X159641112Y-78035398D01*
X159635000Y-78036000D01*
X159135000Y-78036000D01*
X159128888Y-78035398D01*
X159110466Y-78035398D01*
X159105467Y-78035152D01*
X159056636Y-78030342D01*
X159051686Y-78029608D01*
X159003561Y-78020036D01*
X158998705Y-78018820D01*
X158951750Y-78004576D01*
X158947039Y-78002890D01*
X158901706Y-77984113D01*
X158897180Y-77981973D01*
X158853907Y-77958842D01*
X158849616Y-77956269D01*
X158808817Y-77929009D01*
X158804796Y-77926027D01*
X158766867Y-77894899D01*
X158763159Y-77891538D01*
X158728462Y-77856841D01*
X158725101Y-77853133D01*
X158693973Y-77815204D01*
X158690991Y-77811183D01*
X158663731Y-77770384D01*
X158661158Y-77766093D01*
X158638027Y-77722820D01*
X158635887Y-77718294D01*
X158617110Y-77672961D01*
X158615424Y-77668250D01*
X158601180Y-77621295D01*
X158599964Y-77616439D01*
X158590392Y-77568314D01*
X158589658Y-77563364D01*
X158584848Y-77514533D01*
X158584602Y-77509534D01*
X158584602Y-77491112D01*
X158584000Y-77485000D01*
X158584000Y-76985000D01*
X158584980Y-76975050D01*
X158587882Y-76965483D01*
X158592595Y-76956666D01*
X158598938Y-76948938D01*
X158606666Y-76942595D01*
X158615483Y-76937882D01*
X158625050Y-76934980D01*
X158635000Y-76934000D01*
X160135000Y-76934000D01*
X160144950Y-76934980D01*
X160154517Y-76937882D01*
X160163334Y-76942595D01*
X160171062Y-76948938D01*
X160177405Y-76956666D01*
X160182118Y-76965483D01*
X160185020Y-76975050D01*
X160186000Y-76985000D01*
X160186000Y-77485000D01*
X160185398Y-77491112D01*
G37*
G36*
X160185020Y-76694950D02*
G01*
X160182118Y-76704517D01*
X160177405Y-76713334D01*
X160171062Y-76721062D01*
X160163334Y-76727405D01*
X160154517Y-76732118D01*
X160144950Y-76735020D01*
X160135000Y-76736000D01*
X158635000Y-76736000D01*
X158625050Y-76735020D01*
X158615483Y-76732118D01*
X158606666Y-76727405D01*
X158598938Y-76721062D01*
X158592595Y-76713334D01*
X158587882Y-76704517D01*
X158584980Y-76694950D01*
X158584000Y-76685000D01*
X158584000Y-76185000D01*
X158584602Y-76178888D01*
X158584602Y-76160466D01*
X158584848Y-76155467D01*
X158589658Y-76106636D01*
X158590392Y-76101686D01*
X158599964Y-76053561D01*
X158601180Y-76048705D01*
X158615424Y-76001750D01*
X158617110Y-75997039D01*
X158635887Y-75951706D01*
X158638027Y-75947180D01*
X158661158Y-75903907D01*
X158663731Y-75899616D01*
X158690991Y-75858817D01*
X158693973Y-75854796D01*
X158725101Y-75816867D01*
X158728462Y-75813159D01*
X158763159Y-75778462D01*
X158766867Y-75775101D01*
X158804796Y-75743973D01*
X158808817Y-75740991D01*
X158849616Y-75713731D01*
X158853907Y-75711158D01*
X158897180Y-75688027D01*
X158901706Y-75685887D01*
X158947039Y-75667110D01*
X158951750Y-75665424D01*
X158998705Y-75651180D01*
X159003561Y-75649964D01*
X159051686Y-75640392D01*
X159056636Y-75639658D01*
X159105467Y-75634848D01*
X159110466Y-75634602D01*
X159128888Y-75634602D01*
X159135000Y-75634000D01*
X159635000Y-75634000D01*
X159641112Y-75634602D01*
X159659534Y-75634602D01*
X159664533Y-75634848D01*
X159713364Y-75639658D01*
X159718314Y-75640392D01*
X159766439Y-75649964D01*
X159771295Y-75651180D01*
X159818250Y-75665424D01*
X159822961Y-75667110D01*
X159868294Y-75685887D01*
X159872820Y-75688027D01*
X159916093Y-75711158D01*
X159920384Y-75713731D01*
X159961183Y-75740991D01*
X159965204Y-75743973D01*
X160003133Y-75775101D01*
X160006841Y-75778462D01*
X160041538Y-75813159D01*
X160044899Y-75816867D01*
X160076027Y-75854796D01*
X160079009Y-75858817D01*
X160106269Y-75899616D01*
X160108842Y-75903907D01*
X160131973Y-75947180D01*
X160134113Y-75951706D01*
X160152890Y-75997039D01*
X160154576Y-76001750D01*
X160168820Y-76048705D01*
X160170036Y-76053561D01*
X160179608Y-76101686D01*
X160180342Y-76106636D01*
X160185152Y-76155467D01*
X160185398Y-76160466D01*
X160185398Y-76178888D01*
X160186000Y-76185000D01*
X160186000Y-76685000D01*
X160185020Y-76694950D01*
G37*
G36*
X144945398Y-56536112D02*
G01*
X144945398Y-56554534D01*
X144945152Y-56559533D01*
X144940342Y-56608364D01*
X144939608Y-56613314D01*
X144930036Y-56661439D01*
X144928820Y-56666295D01*
X144914576Y-56713250D01*
X144912890Y-56717961D01*
X144894113Y-56763294D01*
X144891973Y-56767820D01*
X144868842Y-56811093D01*
X144866269Y-56815384D01*
X144839009Y-56856183D01*
X144836027Y-56860204D01*
X144804899Y-56898133D01*
X144801538Y-56901841D01*
X144766841Y-56936538D01*
X144763133Y-56939899D01*
X144725204Y-56971027D01*
X144721183Y-56974009D01*
X144680384Y-57001269D01*
X144676093Y-57003842D01*
X144632820Y-57026973D01*
X144628294Y-57029113D01*
X144582961Y-57047890D01*
X144578250Y-57049576D01*
X144531295Y-57063820D01*
X144526439Y-57065036D01*
X144478314Y-57074608D01*
X144473364Y-57075342D01*
X144424533Y-57080152D01*
X144419534Y-57080398D01*
X144401112Y-57080398D01*
X144395000Y-57081000D01*
X143895000Y-57081000D01*
X143888888Y-57080398D01*
X143870466Y-57080398D01*
X143865467Y-57080152D01*
X143816636Y-57075342D01*
X143811686Y-57074608D01*
X143763561Y-57065036D01*
X143758705Y-57063820D01*
X143711750Y-57049576D01*
X143707039Y-57047890D01*
X143661706Y-57029113D01*
X143657180Y-57026973D01*
X143613907Y-57003842D01*
X143609616Y-57001269D01*
X143568817Y-56974009D01*
X143564796Y-56971027D01*
X143526867Y-56939899D01*
X143523159Y-56936538D01*
X143488462Y-56901841D01*
X143485101Y-56898133D01*
X143453973Y-56860204D01*
X143450991Y-56856183D01*
X143423731Y-56815384D01*
X143421158Y-56811093D01*
X143398027Y-56767820D01*
X143395887Y-56763294D01*
X143377110Y-56717961D01*
X143375424Y-56713250D01*
X143361180Y-56666295D01*
X143359964Y-56661439D01*
X143350392Y-56613314D01*
X143349658Y-56608364D01*
X143344848Y-56559533D01*
X143344602Y-56554534D01*
X143344602Y-56536112D01*
X143344000Y-56530000D01*
X143344000Y-56030000D01*
X143344980Y-56020050D01*
X143347882Y-56010483D01*
X143352595Y-56001666D01*
X143358938Y-55993938D01*
X143366666Y-55987595D01*
X143375483Y-55982882D01*
X143385050Y-55979980D01*
X143395000Y-55979000D01*
X144895000Y-55979000D01*
X144904950Y-55979980D01*
X144914517Y-55982882D01*
X144923334Y-55987595D01*
X144931062Y-55993938D01*
X144937405Y-56001666D01*
X144942118Y-56010483D01*
X144945020Y-56020050D01*
X144946000Y-56030000D01*
X144946000Y-56530000D01*
X144945398Y-56536112D01*
G37*
G36*
X144945020Y-55739950D02*
G01*
X144942118Y-55749517D01*
X144937405Y-55758334D01*
X144931062Y-55766062D01*
X144923334Y-55772405D01*
X144914517Y-55777118D01*
X144904950Y-55780020D01*
X144895000Y-55781000D01*
X143395000Y-55781000D01*
X143385050Y-55780020D01*
X143375483Y-55777118D01*
X143366666Y-55772405D01*
X143358938Y-55766062D01*
X143352595Y-55758334D01*
X143347882Y-55749517D01*
X143344980Y-55739950D01*
X143344000Y-55730000D01*
X143344000Y-55230000D01*
X143344602Y-55223888D01*
X143344602Y-55205466D01*
X143344848Y-55200467D01*
X143349658Y-55151636D01*
X143350392Y-55146686D01*
X143359964Y-55098561D01*
X143361180Y-55093705D01*
X143375424Y-55046750D01*
X143377110Y-55042039D01*
X143395887Y-54996706D01*
X143398027Y-54992180D01*
X143421158Y-54948907D01*
X143423731Y-54944616D01*
X143450991Y-54903817D01*
X143453973Y-54899796D01*
X143485101Y-54861867D01*
X143488462Y-54858159D01*
X143523159Y-54823462D01*
X143526867Y-54820101D01*
X143564796Y-54788973D01*
X143568817Y-54785991D01*
X143609616Y-54758731D01*
X143613907Y-54756158D01*
X143657180Y-54733027D01*
X143661706Y-54730887D01*
X143707039Y-54712110D01*
X143711750Y-54710424D01*
X143758705Y-54696180D01*
X143763561Y-54694964D01*
X143811686Y-54685392D01*
X143816636Y-54684658D01*
X143865467Y-54679848D01*
X143870466Y-54679602D01*
X143888888Y-54679602D01*
X143895000Y-54679000D01*
X144395000Y-54679000D01*
X144401112Y-54679602D01*
X144419534Y-54679602D01*
X144424533Y-54679848D01*
X144473364Y-54684658D01*
X144478314Y-54685392D01*
X144526439Y-54694964D01*
X144531295Y-54696180D01*
X144578250Y-54710424D01*
X144582961Y-54712110D01*
X144628294Y-54730887D01*
X144632820Y-54733027D01*
X144676093Y-54756158D01*
X144680384Y-54758731D01*
X144721183Y-54785991D01*
X144725204Y-54788973D01*
X144763133Y-54820101D01*
X144766841Y-54823462D01*
X144801538Y-54858159D01*
X144804899Y-54861867D01*
X144836027Y-54899796D01*
X144839009Y-54903817D01*
X144866269Y-54944616D01*
X144868842Y-54948907D01*
X144891973Y-54992180D01*
X144894113Y-54996706D01*
X144912890Y-55042039D01*
X144914576Y-55046750D01*
X144928820Y-55093705D01*
X144930036Y-55098561D01*
X144939608Y-55146686D01*
X144940342Y-55151636D01*
X144945152Y-55200467D01*
X144945398Y-55205466D01*
X144945398Y-55223888D01*
X144946000Y-55230000D01*
X144946000Y-55730000D01*
X144945020Y-55739950D01*
G37*
D14*
X162700000Y-69900000D03*
X160160000Y-69900000D03*
X157620000Y-69900000D03*
X155080000Y-69900000D03*
X152540000Y-69900000D03*
X150000000Y-69900000D03*
X147460000Y-69900000D03*
X144920000Y-69900000D03*
X142380000Y-69900000D03*
X139840000Y-69900000D03*
G36*
G01*
X136450000Y-68999000D02*
X138150000Y-68999000D01*
G75*
G02*
X138201000Y-69050000I0J-51000D01*
G01*
X138201000Y-70750000D01*
G75*
G02*
X138150000Y-70801000I-51000J0D01*
G01*
X136450000Y-70801000D01*
G75*
G02*
X136399000Y-70750000I0J51000D01*
G01*
X136399000Y-69050000D01*
G75*
G02*
X136450000Y-68999000I51000J0D01*
G01*
G37*
G36*
G01*
X174559000Y-95044500D02*
X174559000Y-94693500D01*
G75*
G02*
X174734500Y-94518000I175500J0D01*
G01*
X176535500Y-94518000D01*
G75*
G02*
X176711000Y-94693500I0J-175500D01*
G01*
X176711000Y-95044500D01*
G75*
G02*
X176535500Y-95220000I-175500J0D01*
G01*
X174734500Y-95220000D01*
G75*
G02*
X174559000Y-95044500I0J175500D01*
G01*
G37*
G36*
G01*
X174559000Y-93774500D02*
X174559000Y-93423500D01*
G75*
G02*
X174734500Y-93248000I175500J0D01*
G01*
X176535500Y-93248000D01*
G75*
G02*
X176711000Y-93423500I0J-175500D01*
G01*
X176711000Y-93774500D01*
G75*
G02*
X176535500Y-93950000I-175500J0D01*
G01*
X174734500Y-93950000D01*
G75*
G02*
X174559000Y-93774500I0J175500D01*
G01*
G37*
G36*
G01*
X174559000Y-92504500D02*
X174559000Y-92153500D01*
G75*
G02*
X174734500Y-91978000I175500J0D01*
G01*
X176535500Y-91978000D01*
G75*
G02*
X176711000Y-92153500I0J-175500D01*
G01*
X176711000Y-92504500D01*
G75*
G02*
X176535500Y-92680000I-175500J0D01*
G01*
X174734500Y-92680000D01*
G75*
G02*
X174559000Y-92504500I0J175500D01*
G01*
G37*
G36*
G01*
X174559000Y-91234500D02*
X174559000Y-90883500D01*
G75*
G02*
X174734500Y-90708000I175500J0D01*
G01*
X176535500Y-90708000D01*
G75*
G02*
X176711000Y-90883500I0J-175500D01*
G01*
X176711000Y-91234500D01*
G75*
G02*
X176535500Y-91410000I-175500J0D01*
G01*
X174734500Y-91410000D01*
G75*
G02*
X174559000Y-91234500I0J175500D01*
G01*
G37*
G36*
G01*
X174559000Y-89964500D02*
X174559000Y-89613500D01*
G75*
G02*
X174734500Y-89438000I175500J0D01*
G01*
X176535500Y-89438000D01*
G75*
G02*
X176711000Y-89613500I0J-175500D01*
G01*
X176711000Y-89964500D01*
G75*
G02*
X176535500Y-90140000I-175500J0D01*
G01*
X174734500Y-90140000D01*
G75*
G02*
X174559000Y-89964500I0J175500D01*
G01*
G37*
G36*
G01*
X174559000Y-88694500D02*
X174559000Y-88343500D01*
G75*
G02*
X174734500Y-88168000I175500J0D01*
G01*
X176535500Y-88168000D01*
G75*
G02*
X176711000Y-88343500I0J-175500D01*
G01*
X176711000Y-88694500D01*
G75*
G02*
X176535500Y-88870000I-175500J0D01*
G01*
X174734500Y-88870000D01*
G75*
G02*
X174559000Y-88694500I0J175500D01*
G01*
G37*
G36*
G01*
X174559000Y-87424500D02*
X174559000Y-87073500D01*
G75*
G02*
X174734500Y-86898000I175500J0D01*
G01*
X176535500Y-86898000D01*
G75*
G02*
X176711000Y-87073500I0J-175500D01*
G01*
X176711000Y-87424500D01*
G75*
G02*
X176535500Y-87600000I-175500J0D01*
G01*
X174734500Y-87600000D01*
G75*
G02*
X174559000Y-87424500I0J175500D01*
G01*
G37*
G36*
G01*
X174559000Y-86154500D02*
X174559000Y-85803500D01*
G75*
G02*
X174734500Y-85628000I175500J0D01*
G01*
X176535500Y-85628000D01*
G75*
G02*
X176711000Y-85803500I0J-175500D01*
G01*
X176711000Y-86154500D01*
G75*
G02*
X176535500Y-86330000I-175500J0D01*
G01*
X174734500Y-86330000D01*
G75*
G02*
X174559000Y-86154500I0J175500D01*
G01*
G37*
G36*
G01*
X174559000Y-84884500D02*
X174559000Y-84533500D01*
G75*
G02*
X174734500Y-84358000I175500J0D01*
G01*
X176535500Y-84358000D01*
G75*
G02*
X176711000Y-84533500I0J-175500D01*
G01*
X176711000Y-84884500D01*
G75*
G02*
X176535500Y-85060000I-175500J0D01*
G01*
X174734500Y-85060000D01*
G75*
G02*
X174559000Y-84884500I0J175500D01*
G01*
G37*
G36*
G01*
X174559000Y-83614500D02*
X174559000Y-83263500D01*
G75*
G02*
X174734500Y-83088000I175500J0D01*
G01*
X176535500Y-83088000D01*
G75*
G02*
X176711000Y-83263500I0J-175500D01*
G01*
X176711000Y-83614500D01*
G75*
G02*
X176535500Y-83790000I-175500J0D01*
G01*
X174734500Y-83790000D01*
G75*
G02*
X174559000Y-83614500I0J175500D01*
G01*
G37*
G36*
G01*
X174559000Y-82344500D02*
X174559000Y-81993500D01*
G75*
G02*
X174734500Y-81818000I175500J0D01*
G01*
X176535500Y-81818000D01*
G75*
G02*
X176711000Y-81993500I0J-175500D01*
G01*
X176711000Y-82344500D01*
G75*
G02*
X176535500Y-82520000I-175500J0D01*
G01*
X174734500Y-82520000D01*
G75*
G02*
X174559000Y-82344500I0J175500D01*
G01*
G37*
G36*
G01*
X174559000Y-81074500D02*
X174559000Y-80723500D01*
G75*
G02*
X174734500Y-80548000I175500J0D01*
G01*
X176535500Y-80548000D01*
G75*
G02*
X176711000Y-80723500I0J-175500D01*
G01*
X176711000Y-81074500D01*
G75*
G02*
X176535500Y-81250000I-175500J0D01*
G01*
X174734500Y-81250000D01*
G75*
G02*
X174559000Y-81074500I0J175500D01*
G01*
G37*
G36*
G01*
X174559000Y-79804500D02*
X174559000Y-79453500D01*
G75*
G02*
X174734500Y-79278000I175500J0D01*
G01*
X176535500Y-79278000D01*
G75*
G02*
X176711000Y-79453500I0J-175500D01*
G01*
X176711000Y-79804500D01*
G75*
G02*
X176535500Y-79980000I-175500J0D01*
G01*
X174734500Y-79980000D01*
G75*
G02*
X174559000Y-79804500I0J175500D01*
G01*
G37*
G36*
G01*
X174559000Y-78534500D02*
X174559000Y-78183500D01*
G75*
G02*
X174734500Y-78008000I175500J0D01*
G01*
X176535500Y-78008000D01*
G75*
G02*
X176711000Y-78183500I0J-175500D01*
G01*
X176711000Y-78534500D01*
G75*
G02*
X176535500Y-78710000I-175500J0D01*
G01*
X174734500Y-78710000D01*
G75*
G02*
X174559000Y-78534500I0J175500D01*
G01*
G37*
G36*
G01*
X165259000Y-78534500D02*
X165259000Y-78183500D01*
G75*
G02*
X165434500Y-78008000I175500J0D01*
G01*
X167235500Y-78008000D01*
G75*
G02*
X167411000Y-78183500I0J-175500D01*
G01*
X167411000Y-78534500D01*
G75*
G02*
X167235500Y-78710000I-175500J0D01*
G01*
X165434500Y-78710000D01*
G75*
G02*
X165259000Y-78534500I0J175500D01*
G01*
G37*
G36*
G01*
X165259000Y-79804500D02*
X165259000Y-79453500D01*
G75*
G02*
X165434500Y-79278000I175500J0D01*
G01*
X167235500Y-79278000D01*
G75*
G02*
X167411000Y-79453500I0J-175500D01*
G01*
X167411000Y-79804500D01*
G75*
G02*
X167235500Y-79980000I-175500J0D01*
G01*
X165434500Y-79980000D01*
G75*
G02*
X165259000Y-79804500I0J175500D01*
G01*
G37*
G36*
G01*
X165259000Y-81074500D02*
X165259000Y-80723500D01*
G75*
G02*
X165434500Y-80548000I175500J0D01*
G01*
X167235500Y-80548000D01*
G75*
G02*
X167411000Y-80723500I0J-175500D01*
G01*
X167411000Y-81074500D01*
G75*
G02*
X167235500Y-81250000I-175500J0D01*
G01*
X165434500Y-81250000D01*
G75*
G02*
X165259000Y-81074500I0J175500D01*
G01*
G37*
G36*
G01*
X165259000Y-82344500D02*
X165259000Y-81993500D01*
G75*
G02*
X165434500Y-81818000I175500J0D01*
G01*
X167235500Y-81818000D01*
G75*
G02*
X167411000Y-81993500I0J-175500D01*
G01*
X167411000Y-82344500D01*
G75*
G02*
X167235500Y-82520000I-175500J0D01*
G01*
X165434500Y-82520000D01*
G75*
G02*
X165259000Y-82344500I0J175500D01*
G01*
G37*
G36*
G01*
X165259000Y-83614500D02*
X165259000Y-83263500D01*
G75*
G02*
X165434500Y-83088000I175500J0D01*
G01*
X167235500Y-83088000D01*
G75*
G02*
X167411000Y-83263500I0J-175500D01*
G01*
X167411000Y-83614500D01*
G75*
G02*
X167235500Y-83790000I-175500J0D01*
G01*
X165434500Y-83790000D01*
G75*
G02*
X165259000Y-83614500I0J175500D01*
G01*
G37*
G36*
G01*
X165259000Y-84884500D02*
X165259000Y-84533500D01*
G75*
G02*
X165434500Y-84358000I175500J0D01*
G01*
X167235500Y-84358000D01*
G75*
G02*
X167411000Y-84533500I0J-175500D01*
G01*
X167411000Y-84884500D01*
G75*
G02*
X167235500Y-85060000I-175500J0D01*
G01*
X165434500Y-85060000D01*
G75*
G02*
X165259000Y-84884500I0J175500D01*
G01*
G37*
G36*
G01*
X165259000Y-86154500D02*
X165259000Y-85803500D01*
G75*
G02*
X165434500Y-85628000I175500J0D01*
G01*
X167235500Y-85628000D01*
G75*
G02*
X167411000Y-85803500I0J-175500D01*
G01*
X167411000Y-86154500D01*
G75*
G02*
X167235500Y-86330000I-175500J0D01*
G01*
X165434500Y-86330000D01*
G75*
G02*
X165259000Y-86154500I0J175500D01*
G01*
G37*
G36*
G01*
X165259000Y-87424500D02*
X165259000Y-87073500D01*
G75*
G02*
X165434500Y-86898000I175500J0D01*
G01*
X167235500Y-86898000D01*
G75*
G02*
X167411000Y-87073500I0J-175500D01*
G01*
X167411000Y-87424500D01*
G75*
G02*
X167235500Y-87600000I-175500J0D01*
G01*
X165434500Y-87600000D01*
G75*
G02*
X165259000Y-87424500I0J175500D01*
G01*
G37*
G36*
G01*
X165259000Y-88694500D02*
X165259000Y-88343500D01*
G75*
G02*
X165434500Y-88168000I175500J0D01*
G01*
X167235500Y-88168000D01*
G75*
G02*
X167411000Y-88343500I0J-175500D01*
G01*
X167411000Y-88694500D01*
G75*
G02*
X167235500Y-88870000I-175500J0D01*
G01*
X165434500Y-88870000D01*
G75*
G02*
X165259000Y-88694500I0J175500D01*
G01*
G37*
G36*
G01*
X165259000Y-89964500D02*
X165259000Y-89613500D01*
G75*
G02*
X165434500Y-89438000I175500J0D01*
G01*
X167235500Y-89438000D01*
G75*
G02*
X167411000Y-89613500I0J-175500D01*
G01*
X167411000Y-89964500D01*
G75*
G02*
X167235500Y-90140000I-175500J0D01*
G01*
X165434500Y-90140000D01*
G75*
G02*
X165259000Y-89964500I0J175500D01*
G01*
G37*
G36*
G01*
X165259000Y-91234500D02*
X165259000Y-90883500D01*
G75*
G02*
X165434500Y-90708000I175500J0D01*
G01*
X167235500Y-90708000D01*
G75*
G02*
X167411000Y-90883500I0J-175500D01*
G01*
X167411000Y-91234500D01*
G75*
G02*
X167235500Y-91410000I-175500J0D01*
G01*
X165434500Y-91410000D01*
G75*
G02*
X165259000Y-91234500I0J175500D01*
G01*
G37*
G36*
G01*
X165259000Y-92504500D02*
X165259000Y-92153500D01*
G75*
G02*
X165434500Y-91978000I175500J0D01*
G01*
X167235500Y-91978000D01*
G75*
G02*
X167411000Y-92153500I0J-175500D01*
G01*
X167411000Y-92504500D01*
G75*
G02*
X167235500Y-92680000I-175500J0D01*
G01*
X165434500Y-92680000D01*
G75*
G02*
X165259000Y-92504500I0J175500D01*
G01*
G37*
G36*
G01*
X165259000Y-93774500D02*
X165259000Y-93423500D01*
G75*
G02*
X165434500Y-93248000I175500J0D01*
G01*
X167235500Y-93248000D01*
G75*
G02*
X167411000Y-93423500I0J-175500D01*
G01*
X167411000Y-93774500D01*
G75*
G02*
X167235500Y-93950000I-175500J0D01*
G01*
X165434500Y-93950000D01*
G75*
G02*
X165259000Y-93774500I0J175500D01*
G01*
G37*
G36*
G01*
X165259000Y-95044500D02*
X165259000Y-94693500D01*
G75*
G02*
X165434500Y-94518000I175500J0D01*
G01*
X167235500Y-94518000D01*
G75*
G02*
X167411000Y-94693500I0J-175500D01*
G01*
X167411000Y-95044500D01*
G75*
G02*
X167235500Y-95220000I-175500J0D01*
G01*
X165434500Y-95220000D01*
G75*
G02*
X165259000Y-95044500I0J175500D01*
G01*
G37*
D17*
X198500000Y-65000000D03*
G36*
G01*
X199826000Y-49300000D02*
X199826000Y-49650000D01*
G75*
G02*
X199775000Y-49701000I-51000J0D01*
G01*
X199275000Y-49701000D01*
G75*
G02*
X199224000Y-49650000I0J51000D01*
G01*
X199224000Y-49300000D01*
G75*
G02*
X199275000Y-49249000I51000J0D01*
G01*
X199775000Y-49249000D01*
G75*
G02*
X199826000Y-49300000I0J-51000D01*
G01*
G37*
G36*
G01*
X199826000Y-48650000D02*
X199826000Y-49000000D01*
G75*
G02*
X199775000Y-49051000I-51000J0D01*
G01*
X199275000Y-49051000D01*
G75*
G02*
X199224000Y-49000000I0J51000D01*
G01*
X199224000Y-48650000D01*
G75*
G02*
X199275000Y-48599000I51000J0D01*
G01*
X199775000Y-48599000D01*
G75*
G02*
X199826000Y-48650000I0J-51000D01*
G01*
G37*
G36*
G01*
X199826000Y-48000000D02*
X199826000Y-48350000D01*
G75*
G02*
X199775000Y-48401000I-51000J0D01*
G01*
X199275000Y-48401000D01*
G75*
G02*
X199224000Y-48350000I0J51000D01*
G01*
X199224000Y-48000000D01*
G75*
G02*
X199275000Y-47949000I51000J0D01*
G01*
X199775000Y-47949000D01*
G75*
G02*
X199826000Y-48000000I0J-51000D01*
G01*
G37*
G36*
G01*
X199826000Y-47350000D02*
X199826000Y-47700000D01*
G75*
G02*
X199775000Y-47751000I-51000J0D01*
G01*
X199275000Y-47751000D01*
G75*
G02*
X199224000Y-47700000I0J51000D01*
G01*
X199224000Y-47350000D01*
G75*
G02*
X199275000Y-47299000I51000J0D01*
G01*
X199775000Y-47299000D01*
G75*
G02*
X199826000Y-47350000I0J-51000D01*
G01*
G37*
G36*
G01*
X197776000Y-47350000D02*
X197776000Y-47700000D01*
G75*
G02*
X197725000Y-47751000I-51000J0D01*
G01*
X197225000Y-47751000D01*
G75*
G02*
X197174000Y-47700000I0J51000D01*
G01*
X197174000Y-47350000D01*
G75*
G02*
X197225000Y-47299000I51000J0D01*
G01*
X197725000Y-47299000D01*
G75*
G02*
X197776000Y-47350000I0J-51000D01*
G01*
G37*
G36*
G01*
X197776000Y-48000000D02*
X197776000Y-48350000D01*
G75*
G02*
X197725000Y-48401000I-51000J0D01*
G01*
X197225000Y-48401000D01*
G75*
G02*
X197174000Y-48350000I0J51000D01*
G01*
X197174000Y-48000000D01*
G75*
G02*
X197225000Y-47949000I51000J0D01*
G01*
X197725000Y-47949000D01*
G75*
G02*
X197776000Y-48000000I0J-51000D01*
G01*
G37*
G36*
G01*
X197776000Y-48650000D02*
X197776000Y-49000000D01*
G75*
G02*
X197725000Y-49051000I-51000J0D01*
G01*
X197225000Y-49051000D01*
G75*
G02*
X197174000Y-49000000I0J51000D01*
G01*
X197174000Y-48650000D01*
G75*
G02*
X197225000Y-48599000I51000J0D01*
G01*
X197725000Y-48599000D01*
G75*
G02*
X197776000Y-48650000I0J-51000D01*
G01*
G37*
G36*
G01*
X197776000Y-49300000D02*
X197776000Y-49650000D01*
G75*
G02*
X197725000Y-49701000I-51000J0D01*
G01*
X197225000Y-49701000D01*
G75*
G02*
X197174000Y-49650000I0J51000D01*
G01*
X197174000Y-49300000D01*
G75*
G02*
X197225000Y-49249000I51000J0D01*
G01*
X197725000Y-49249000D01*
G75*
G02*
X197776000Y-49300000I0J-51000D01*
G01*
G37*
G36*
G01*
X198225000Y-52901000D02*
X197825000Y-52901000D01*
G75*
G02*
X197774000Y-52850000I0J51000D01*
G01*
X197774000Y-52250000D01*
G75*
G02*
X197825000Y-52199000I51000J0D01*
G01*
X198225000Y-52199000D01*
G75*
G02*
X198276000Y-52250000I0J-51000D01*
G01*
X198276000Y-52850000D01*
G75*
G02*
X198225000Y-52901000I-51000J0D01*
G01*
G37*
G36*
G01*
X199175000Y-54801000D02*
X198775000Y-54801000D01*
G75*
G02*
X198724000Y-54750000I0J51000D01*
G01*
X198724000Y-54150000D01*
G75*
G02*
X198775000Y-54099000I51000J0D01*
G01*
X199175000Y-54099000D01*
G75*
G02*
X199226000Y-54150000I0J-51000D01*
G01*
X199226000Y-54750000D01*
G75*
G02*
X199175000Y-54801000I-51000J0D01*
G01*
G37*
G36*
G01*
X198225000Y-54801000D02*
X197825000Y-54801000D01*
G75*
G02*
X197774000Y-54750000I0J51000D01*
G01*
X197774000Y-54150000D01*
G75*
G02*
X197825000Y-54099000I51000J0D01*
G01*
X198225000Y-54099000D01*
G75*
G02*
X198276000Y-54150000I0J-51000D01*
G01*
X198276000Y-54750000D01*
G75*
G02*
X198225000Y-54801000I-51000J0D01*
G01*
G37*
G36*
G01*
X199175000Y-52901000D02*
X198775000Y-52901000D01*
G75*
G02*
X198724000Y-52850000I0J51000D01*
G01*
X198724000Y-52250000D01*
G75*
G02*
X198775000Y-52199000I51000J0D01*
G01*
X199175000Y-52199000D01*
G75*
G02*
X199226000Y-52250000I0J-51000D01*
G01*
X199226000Y-52850000D01*
G75*
G02*
X199175000Y-52901000I-51000J0D01*
G01*
G37*
G36*
G01*
X199300001Y-53901000D02*
X197699999Y-53901000D01*
G75*
G02*
X197649000Y-53850001I0J50999D01*
G01*
X197649000Y-53149999D01*
G75*
G02*
X197699999Y-53099000I50999J0D01*
G01*
X199300001Y-53099000D01*
G75*
G02*
X199351000Y-53149999I0J-50999D01*
G01*
X199351000Y-53850001D01*
G75*
G02*
X199300001Y-53901000I-50999J0D01*
G01*
G37*
G36*
G01*
X197700000Y-57949000D02*
X199300000Y-57949000D01*
G75*
G02*
X199351000Y-58000000I0J-51000D01*
G01*
X199351000Y-59000000D01*
G75*
G02*
X199300000Y-59051000I-51000J0D01*
G01*
X197700000Y-59051000D01*
G75*
G02*
X197649000Y-59000000I0J51000D01*
G01*
X197649000Y-58000000D01*
G75*
G02*
X197700000Y-57949000I51000J0D01*
G01*
G37*
G36*
G01*
X197718250Y-59149000D02*
X197981750Y-59149000D01*
G75*
G02*
X198101000Y-59268250I0J-119250D01*
G01*
X198101000Y-59506750D01*
G75*
G02*
X197981750Y-59626000I-119250J0D01*
G01*
X197718250Y-59626000D01*
G75*
G02*
X197599000Y-59506750I0J119250D01*
G01*
X197599000Y-59268250D01*
G75*
G02*
X197718250Y-59149000I119250J0D01*
G01*
G37*
G36*
G01*
X198368250Y-59149000D02*
X198631750Y-59149000D01*
G75*
G02*
X198751000Y-59268250I0J-119250D01*
G01*
X198751000Y-59506750D01*
G75*
G02*
X198631750Y-59626000I-119250J0D01*
G01*
X198368250Y-59626000D01*
G75*
G02*
X198249000Y-59506750I0J119250D01*
G01*
X198249000Y-59268250D01*
G75*
G02*
X198368250Y-59149000I119250J0D01*
G01*
G37*
G36*
G01*
X199018250Y-59149000D02*
X199281750Y-59149000D01*
G75*
G02*
X199401000Y-59268250I0J-119250D01*
G01*
X199401000Y-59506750D01*
G75*
G02*
X199281750Y-59626000I-119250J0D01*
G01*
X199018250Y-59626000D01*
G75*
G02*
X198899000Y-59506750I0J119250D01*
G01*
X198899000Y-59268250D01*
G75*
G02*
X199018250Y-59149000I119250J0D01*
G01*
G37*
G36*
G01*
X199018250Y-57374000D02*
X199281750Y-57374000D01*
G75*
G02*
X199401000Y-57493250I0J-119250D01*
G01*
X199401000Y-57731750D01*
G75*
G02*
X199281750Y-57851000I-119250J0D01*
G01*
X199018250Y-57851000D01*
G75*
G02*
X198899000Y-57731750I0J119250D01*
G01*
X198899000Y-57493250D01*
G75*
G02*
X199018250Y-57374000I119250J0D01*
G01*
G37*
G36*
G01*
X198368250Y-57374000D02*
X198631750Y-57374000D01*
G75*
G02*
X198751000Y-57493250I0J-119250D01*
G01*
X198751000Y-57731750D01*
G75*
G02*
X198631750Y-57851000I-119250J0D01*
G01*
X198368250Y-57851000D01*
G75*
G02*
X198249000Y-57731750I0J119250D01*
G01*
X198249000Y-57493250D01*
G75*
G02*
X198368250Y-57374000I119250J0D01*
G01*
G37*
G36*
G01*
X197718250Y-57374000D02*
X197981750Y-57374000D01*
G75*
G02*
X198101000Y-57493250I0J-119250D01*
G01*
X198101000Y-57731750D01*
G75*
G02*
X197981750Y-57851000I-119250J0D01*
G01*
X197718250Y-57851000D01*
G75*
G02*
X197599000Y-57731750I0J119250D01*
G01*
X197599000Y-57493250D01*
G75*
G02*
X197718250Y-57374000I119250J0D01*
G01*
G37*
G36*
G01*
X91204000Y-91305500D02*
X91204000Y-90304500D01*
G75*
G02*
X91479500Y-90029000I275500J0D01*
G01*
X92030500Y-90029000D01*
G75*
G02*
X92306000Y-90304500I0J-275500D01*
G01*
X92306000Y-91305500D01*
G75*
G02*
X92030500Y-91581000I-275500J0D01*
G01*
X91479500Y-91581000D01*
G75*
G02*
X91204000Y-91305500I0J275500D01*
G01*
G37*
G36*
G01*
X89304000Y-91305500D02*
X89304000Y-90304500D01*
G75*
G02*
X89579500Y-90029000I275500J0D01*
G01*
X90130500Y-90029000D01*
G75*
G02*
X90406000Y-90304500I0J-275500D01*
G01*
X90406000Y-91305500D01*
G75*
G02*
X90130500Y-91581000I-275500J0D01*
G01*
X89579500Y-91581000D01*
G75*
G02*
X89304000Y-91305500I0J275500D01*
G01*
G37*
D13*
X162250000Y-132500000D03*
X162250000Y-137500000D03*
X165750000Y-132500000D03*
X165750000Y-137500000D03*
X169250000Y-132500000D03*
X169250000Y-137500000D03*
X172750000Y-132500000D03*
X172750000Y-137500000D03*
X176250000Y-132500000D03*
X176250000Y-137500000D03*
X179750000Y-132500000D03*
X179750000Y-137500000D03*
X183250000Y-132500000D03*
X183250000Y-137500000D03*
X186750000Y-132500000D03*
X186750000Y-137500000D03*
X190250000Y-132500000D03*
X190250000Y-137500000D03*
X193750000Y-132500000D03*
X193750000Y-137500000D03*
X197250000Y-132500000D03*
X197250000Y-137500000D03*
G36*
G01*
X201801000Y-131974500D02*
X201801000Y-133025500D01*
G75*
G02*
X201275500Y-133551000I-525500J0D01*
G01*
X200224500Y-133551000D01*
G75*
G02*
X199699000Y-133025500I0J525500D01*
G01*
X199699000Y-131974500D01*
G75*
G02*
X200224500Y-131449000I525500J0D01*
G01*
X201275500Y-131449000D01*
G75*
G02*
X201801000Y-131974500I0J-525500D01*
G01*
G37*
G36*
G01*
X201801000Y-136974500D02*
X201801000Y-138025500D01*
G75*
G02*
X201275500Y-138551000I-525500J0D01*
G01*
X200224500Y-138551000D01*
G75*
G02*
X199699000Y-138025500I0J525500D01*
G01*
X199699000Y-136974500D01*
G75*
G02*
X200224500Y-136449000I525500J0D01*
G01*
X201275500Y-136449000D01*
G75*
G02*
X201801000Y-136974500I0J-525500D01*
G01*
G37*
X99250000Y-132500000D03*
X99250000Y-137500000D03*
X102750000Y-132500000D03*
X102750000Y-137500000D03*
X106250000Y-132500000D03*
X106250000Y-137500000D03*
X109750000Y-132500000D03*
X109750000Y-137500000D03*
X113250000Y-132500000D03*
X113250000Y-137500000D03*
X116750000Y-132500000D03*
X116750000Y-137500000D03*
X120250000Y-132500000D03*
X120250000Y-137500000D03*
X123750000Y-132500000D03*
X123750000Y-137500000D03*
X127250000Y-132500000D03*
X127250000Y-137500000D03*
X130750000Y-132500000D03*
X130750000Y-137500000D03*
X134250000Y-132500000D03*
X134250000Y-137500000D03*
G36*
G01*
X138801000Y-131974500D02*
X138801000Y-133025500D01*
G75*
G02*
X138275500Y-133551000I-525500J0D01*
G01*
X137224500Y-133551000D01*
G75*
G02*
X136699000Y-133025500I0J525500D01*
G01*
X136699000Y-131974500D01*
G75*
G02*
X137224500Y-131449000I525500J0D01*
G01*
X138275500Y-131449000D01*
G75*
G02*
X138801000Y-131974500I0J-525500D01*
G01*
G37*
G36*
G01*
X138801000Y-136974500D02*
X138801000Y-138025500D01*
G75*
G02*
X138275500Y-138551000I-525500J0D01*
G01*
X137224500Y-138551000D01*
G75*
G02*
X136699000Y-138025500I0J525500D01*
G01*
X136699000Y-136974500D01*
G75*
G02*
X137224500Y-136449000I525500J0D01*
G01*
X138275500Y-136449000D01*
G75*
G02*
X138801000Y-136974500I0J-525500D01*
G01*
G37*
D10*
G36*
X141135398Y-52091112D02*
G01*
X141135398Y-52109534D01*
X141135152Y-52114533D01*
X141130342Y-52163364D01*
X141129608Y-52168314D01*
X141120036Y-52216439D01*
X141118820Y-52221295D01*
X141104576Y-52268250D01*
X141102890Y-52272961D01*
X141084113Y-52318294D01*
X141081973Y-52322820D01*
X141058842Y-52366093D01*
X141056269Y-52370384D01*
X141029009Y-52411183D01*
X141026027Y-52415204D01*
X140994899Y-52453133D01*
X140991538Y-52456841D01*
X140956841Y-52491538D01*
X140953133Y-52494899D01*
X140915204Y-52526027D01*
X140911183Y-52529009D01*
X140870384Y-52556269D01*
X140866093Y-52558842D01*
X140822820Y-52581973D01*
X140818294Y-52584113D01*
X140772961Y-52602890D01*
X140768250Y-52604576D01*
X140721295Y-52618820D01*
X140716439Y-52620036D01*
X140668314Y-52629608D01*
X140663364Y-52630342D01*
X140614533Y-52635152D01*
X140609534Y-52635398D01*
X140591112Y-52635398D01*
X140585000Y-52636000D01*
X140085000Y-52636000D01*
X140078888Y-52635398D01*
X140060466Y-52635398D01*
X140055467Y-52635152D01*
X140006636Y-52630342D01*
X140001686Y-52629608D01*
X139953561Y-52620036D01*
X139948705Y-52618820D01*
X139901750Y-52604576D01*
X139897039Y-52602890D01*
X139851706Y-52584113D01*
X139847180Y-52581973D01*
X139803907Y-52558842D01*
X139799616Y-52556269D01*
X139758817Y-52529009D01*
X139754796Y-52526027D01*
X139716867Y-52494899D01*
X139713159Y-52491538D01*
X139678462Y-52456841D01*
X139675101Y-52453133D01*
X139643973Y-52415204D01*
X139640991Y-52411183D01*
X139613731Y-52370384D01*
X139611158Y-52366093D01*
X139588027Y-52322820D01*
X139585887Y-52318294D01*
X139567110Y-52272961D01*
X139565424Y-52268250D01*
X139551180Y-52221295D01*
X139549964Y-52216439D01*
X139540392Y-52168314D01*
X139539658Y-52163364D01*
X139534848Y-52114533D01*
X139534602Y-52109534D01*
X139534602Y-52091112D01*
X139534000Y-52085000D01*
X139534000Y-51585000D01*
X139534980Y-51575050D01*
X139537882Y-51565483D01*
X139542595Y-51556666D01*
X139548938Y-51548938D01*
X139556666Y-51542595D01*
X139565483Y-51537882D01*
X139575050Y-51534980D01*
X139585000Y-51534000D01*
X141085000Y-51534000D01*
X141094950Y-51534980D01*
X141104517Y-51537882D01*
X141113334Y-51542595D01*
X141121062Y-51548938D01*
X141127405Y-51556666D01*
X141132118Y-51565483D01*
X141135020Y-51575050D01*
X141136000Y-51585000D01*
X141136000Y-52085000D01*
X141135398Y-52091112D01*
G37*
G36*
X141135020Y-51294950D02*
G01*
X141132118Y-51304517D01*
X141127405Y-51313334D01*
X141121062Y-51321062D01*
X141113334Y-51327405D01*
X141104517Y-51332118D01*
X141094950Y-51335020D01*
X141085000Y-51336000D01*
X139585000Y-51336000D01*
X139575050Y-51335020D01*
X139565483Y-51332118D01*
X139556666Y-51327405D01*
X139548938Y-51321062D01*
X139542595Y-51313334D01*
X139537882Y-51304517D01*
X139534980Y-51294950D01*
X139534000Y-51285000D01*
X139534000Y-50785000D01*
X139534602Y-50778888D01*
X139534602Y-50760466D01*
X139534848Y-50755467D01*
X139539658Y-50706636D01*
X139540392Y-50701686D01*
X139549964Y-50653561D01*
X139551180Y-50648705D01*
X139565424Y-50601750D01*
X139567110Y-50597039D01*
X139585887Y-50551706D01*
X139588027Y-50547180D01*
X139611158Y-50503907D01*
X139613731Y-50499616D01*
X139640991Y-50458817D01*
X139643973Y-50454796D01*
X139675101Y-50416867D01*
X139678462Y-50413159D01*
X139713159Y-50378462D01*
X139716867Y-50375101D01*
X139754796Y-50343973D01*
X139758817Y-50340991D01*
X139799616Y-50313731D01*
X139803907Y-50311158D01*
X139847180Y-50288027D01*
X139851706Y-50285887D01*
X139897039Y-50267110D01*
X139901750Y-50265424D01*
X139948705Y-50251180D01*
X139953561Y-50249964D01*
X140001686Y-50240392D01*
X140006636Y-50239658D01*
X140055467Y-50234848D01*
X140060466Y-50234602D01*
X140078888Y-50234602D01*
X140085000Y-50234000D01*
X140585000Y-50234000D01*
X140591112Y-50234602D01*
X140609534Y-50234602D01*
X140614533Y-50234848D01*
X140663364Y-50239658D01*
X140668314Y-50240392D01*
X140716439Y-50249964D01*
X140721295Y-50251180D01*
X140768250Y-50265424D01*
X140772961Y-50267110D01*
X140818294Y-50285887D01*
X140822820Y-50288027D01*
X140866093Y-50311158D01*
X140870384Y-50313731D01*
X140911183Y-50340991D01*
X140915204Y-50343973D01*
X140953133Y-50375101D01*
X140956841Y-50378462D01*
X140991538Y-50413159D01*
X140994899Y-50416867D01*
X141026027Y-50454796D01*
X141029009Y-50458817D01*
X141056269Y-50499616D01*
X141058842Y-50503907D01*
X141081973Y-50547180D01*
X141084113Y-50551706D01*
X141102890Y-50597039D01*
X141104576Y-50601750D01*
X141118820Y-50648705D01*
X141120036Y-50653561D01*
X141129608Y-50701686D01*
X141130342Y-50706636D01*
X141135152Y-50755467D01*
X141135398Y-50760466D01*
X141135398Y-50778888D01*
X141136000Y-50785000D01*
X141136000Y-51285000D01*
X141135020Y-51294950D01*
G37*
D15*
X212140000Y-67275000D03*
D18*
X214630000Y-68525000D03*
X214630000Y-73025000D03*
D15*
X212140000Y-74285000D03*
X212140000Y-57115000D03*
D18*
X214630000Y-58365000D03*
X214630000Y-62865000D03*
D15*
X212140000Y-64125000D03*
D14*
X104775000Y-118110000D03*
X104775000Y-120650000D03*
X102235000Y-118110000D03*
X102235000Y-120650000D03*
X99695000Y-118110000D03*
X99695000Y-120650000D03*
X97155000Y-118110000D03*
G36*
G01*
X98005000Y-121551000D02*
X96305000Y-121551000D01*
G75*
G02*
X96254000Y-121500000I0J51000D01*
G01*
X96254000Y-119800000D01*
G75*
G02*
X96305000Y-119749000I51000J0D01*
G01*
X98005000Y-119749000D01*
G75*
G02*
X98056000Y-119800000I0J-51000D01*
G01*
X98056000Y-121500000D01*
G75*
G02*
X98005000Y-121551000I-51000J0D01*
G01*
G37*
D11*
X213197056Y-136802944D03*
X211500000Y-136100000D03*
X209802944Y-136802944D03*
X209100000Y-138500000D03*
X209802944Y-140197056D03*
X211500000Y-140900000D03*
X213197056Y-140197056D03*
X213900000Y-138500000D03*
D19*
X211500000Y-138500000D03*
D11*
X90197056Y-136802944D03*
X88500000Y-136100000D03*
X86802944Y-136802944D03*
X86100000Y-138500000D03*
X86802944Y-140197056D03*
X88500000Y-140900000D03*
X90197056Y-140197056D03*
X90900000Y-138500000D03*
D19*
X88500000Y-138500000D03*
D11*
X213197056Y-49802944D03*
X211500000Y-49100000D03*
X209802944Y-49802944D03*
X209100000Y-51500000D03*
X209802944Y-53197056D03*
X211500000Y-53900000D03*
X213197056Y-53197056D03*
X213900000Y-51500000D03*
D19*
X211500000Y-51500000D03*
D11*
X151697056Y-49802944D03*
X150000000Y-49100000D03*
X148302944Y-49802944D03*
X147600000Y-51500000D03*
X148302944Y-53197056D03*
X150000000Y-53900000D03*
X151697056Y-53197056D03*
X152400000Y-51500000D03*
D19*
X150000000Y-51500000D03*
D11*
X90197056Y-49802944D03*
X88500000Y-49100000D03*
X86802944Y-49802944D03*
X86100000Y-51500000D03*
X86802944Y-53197056D03*
X88500000Y-53900000D03*
X90197056Y-53197056D03*
X90900000Y-51500000D03*
D19*
X88500000Y-51500000D03*
D14*
X186690000Y-55245000D03*
X186690000Y-57785000D03*
X186690000Y-60325000D03*
G36*
G01*
X185789000Y-63715000D02*
X185789000Y-62015000D01*
G75*
G02*
X185840000Y-61964000I51000J0D01*
G01*
X187540000Y-61964000D01*
G75*
G02*
X187591000Y-62015000I0J-51000D01*
G01*
X187591000Y-63715000D01*
G75*
G02*
X187540000Y-63766000I-51000J0D01*
G01*
X185840000Y-63766000D01*
G75*
G02*
X185789000Y-63715000I0J51000D01*
G01*
G37*
D20*
X89535000Y-82550000D03*
G36*
G01*
X91740000Y-80676000D02*
X91140000Y-80676000D01*
G75*
G02*
X91089000Y-80625000I0J51000D01*
G01*
X91089000Y-79075000D01*
G75*
G02*
X91140000Y-79024000I51000J0D01*
G01*
X91740000Y-79024000D01*
G75*
G02*
X91791000Y-79075000I0J-51000D01*
G01*
X91791000Y-80625000D01*
G75*
G02*
X91740000Y-80676000I-51000J0D01*
G01*
G37*
G36*
G01*
X90470000Y-80676000D02*
X89870000Y-80676000D01*
G75*
G02*
X89819000Y-80625000I0J51000D01*
G01*
X89819000Y-79075000D01*
G75*
G02*
X89870000Y-79024000I51000J0D01*
G01*
X90470000Y-79024000D01*
G75*
G02*
X90521000Y-79075000I0J-51000D01*
G01*
X90521000Y-80625000D01*
G75*
G02*
X90470000Y-80676000I-51000J0D01*
G01*
G37*
G36*
G01*
X89200000Y-80676000D02*
X88600000Y-80676000D01*
G75*
G02*
X88549000Y-80625000I0J51000D01*
G01*
X88549000Y-79075000D01*
G75*
G02*
X88600000Y-79024000I51000J0D01*
G01*
X89200000Y-79024000D01*
G75*
G02*
X89251000Y-79075000I0J-51000D01*
G01*
X89251000Y-80625000D01*
G75*
G02*
X89200000Y-80676000I-51000J0D01*
G01*
G37*
G36*
G01*
X87930000Y-80676000D02*
X87330000Y-80676000D01*
G75*
G02*
X87279000Y-80625000I0J51000D01*
G01*
X87279000Y-79075000D01*
G75*
G02*
X87330000Y-79024000I51000J0D01*
G01*
X87930000Y-79024000D01*
G75*
G02*
X87981000Y-79075000I0J-51000D01*
G01*
X87981000Y-80625000D01*
G75*
G02*
X87930000Y-80676000I-51000J0D01*
G01*
G37*
G36*
G01*
X87930000Y-86076000D02*
X87330000Y-86076000D01*
G75*
G02*
X87279000Y-86025000I0J51000D01*
G01*
X87279000Y-84475000D01*
G75*
G02*
X87330000Y-84424000I51000J0D01*
G01*
X87930000Y-84424000D01*
G75*
G02*
X87981000Y-84475000I0J-51000D01*
G01*
X87981000Y-86025000D01*
G75*
G02*
X87930000Y-86076000I-51000J0D01*
G01*
G37*
G36*
G01*
X89200000Y-86076000D02*
X88600000Y-86076000D01*
G75*
G02*
X88549000Y-86025000I0J51000D01*
G01*
X88549000Y-84475000D01*
G75*
G02*
X88600000Y-84424000I51000J0D01*
G01*
X89200000Y-84424000D01*
G75*
G02*
X89251000Y-84475000I0J-51000D01*
G01*
X89251000Y-86025000D01*
G75*
G02*
X89200000Y-86076000I-51000J0D01*
G01*
G37*
G36*
G01*
X90470000Y-86076000D02*
X89870000Y-86076000D01*
G75*
G02*
X89819000Y-86025000I0J51000D01*
G01*
X89819000Y-84475000D01*
G75*
G02*
X89870000Y-84424000I51000J0D01*
G01*
X90470000Y-84424000D01*
G75*
G02*
X90521000Y-84475000I0J-51000D01*
G01*
X90521000Y-86025000D01*
G75*
G02*
X90470000Y-86076000I-51000J0D01*
G01*
G37*
G36*
G01*
X91740000Y-86076000D02*
X91140000Y-86076000D01*
G75*
G02*
X91089000Y-86025000I0J51000D01*
G01*
X91089000Y-84475000D01*
G75*
G02*
X91140000Y-84424000I51000J0D01*
G01*
X91740000Y-84424000D01*
G75*
G02*
X91791000Y-84475000I0J-51000D01*
G01*
X91791000Y-86025000D01*
G75*
G02*
X91740000Y-86076000I-51000J0D01*
G01*
G37*
D14*
X186690000Y-47625000D03*
G36*
G01*
X185789000Y-51015000D02*
X185789000Y-49315000D01*
G75*
G02*
X185840000Y-49264000I51000J0D01*
G01*
X187540000Y-49264000D01*
G75*
G02*
X187591000Y-49315000I0J-51000D01*
G01*
X187591000Y-51015000D01*
G75*
G02*
X187540000Y-51066000I-51000J0D01*
G01*
X185840000Y-51066000D01*
G75*
G02*
X185789000Y-51015000I0J51000D01*
G01*
G37*
D21*
X91440000Y-57785000D03*
G36*
G01*
X92340000Y-61276000D02*
X90540000Y-61276000D01*
G75*
G02*
X90489000Y-61225000I0J51000D01*
G01*
X90489000Y-59425000D01*
G75*
G02*
X90540000Y-59374000I51000J0D01*
G01*
X92340000Y-59374000D01*
G75*
G02*
X92391000Y-59425000I0J-51000D01*
G01*
X92391000Y-61225000D01*
G75*
G02*
X92340000Y-61276000I-51000J0D01*
G01*
G37*
D22*
X199390000Y-106045000D03*
X199390000Y-121285000D03*
X191770000Y-123825000D03*
X191770000Y-116205000D03*
G36*
G01*
X192920000Y-107246000D02*
X190620000Y-107246000D01*
G75*
G02*
X190569000Y-107195000I0J51000D01*
G01*
X190569000Y-104895000D01*
G75*
G02*
X190620000Y-104844000I51000J0D01*
G01*
X192920000Y-104844000D01*
G75*
G02*
X192971000Y-104895000I0J-51000D01*
G01*
X192971000Y-107195000D01*
G75*
G02*
X192920000Y-107246000I-51000J0D01*
G01*
G37*
X186055000Y-106045000D03*
X186055000Y-121285000D03*
X178435000Y-123825000D03*
X178435000Y-116205000D03*
G36*
G01*
X179585000Y-107246000D02*
X177285000Y-107246000D01*
G75*
G02*
X177234000Y-107195000I0J51000D01*
G01*
X177234000Y-104895000D01*
G75*
G02*
X177285000Y-104844000I51000J0D01*
G01*
X179585000Y-104844000D01*
G75*
G02*
X179636000Y-104895000I0J-51000D01*
G01*
X179636000Y-107195000D01*
G75*
G02*
X179585000Y-107246000I-51000J0D01*
G01*
G37*
X172720000Y-106045000D03*
X172720000Y-121285000D03*
X165100000Y-123825000D03*
X165100000Y-116205000D03*
G36*
G01*
X166250000Y-107246000D02*
X163950000Y-107246000D01*
G75*
G02*
X163899000Y-107195000I0J51000D01*
G01*
X163899000Y-104895000D01*
G75*
G02*
X163950000Y-104844000I51000J0D01*
G01*
X166250000Y-104844000D01*
G75*
G02*
X166301000Y-104895000I0J-51000D01*
G01*
X166301000Y-107195000D01*
G75*
G02*
X166250000Y-107246000I-51000J0D01*
G01*
G37*
D10*
G36*
X86829602Y-88243888D02*
G01*
X86829602Y-88225466D01*
X86829848Y-88220467D01*
X86834658Y-88171636D01*
X86835392Y-88166686D01*
X86844964Y-88118561D01*
X86846180Y-88113705D01*
X86860424Y-88066750D01*
X86862110Y-88062039D01*
X86880887Y-88016706D01*
X86883027Y-88012180D01*
X86906158Y-87968907D01*
X86908731Y-87964616D01*
X86935991Y-87923817D01*
X86938973Y-87919796D01*
X86970101Y-87881867D01*
X86973462Y-87878159D01*
X87008159Y-87843462D01*
X87011867Y-87840101D01*
X87049796Y-87808973D01*
X87053817Y-87805991D01*
X87094616Y-87778731D01*
X87098907Y-87776158D01*
X87142180Y-87753027D01*
X87146706Y-87750887D01*
X87192039Y-87732110D01*
X87196750Y-87730424D01*
X87243705Y-87716180D01*
X87248561Y-87714964D01*
X87296686Y-87705392D01*
X87301636Y-87704658D01*
X87350467Y-87699848D01*
X87355466Y-87699602D01*
X87373888Y-87699602D01*
X87380000Y-87699000D01*
X87880000Y-87699000D01*
X87886112Y-87699602D01*
X87904534Y-87699602D01*
X87909533Y-87699848D01*
X87958364Y-87704658D01*
X87963314Y-87705392D01*
X88011439Y-87714964D01*
X88016295Y-87716180D01*
X88063250Y-87730424D01*
X88067961Y-87732110D01*
X88113294Y-87750887D01*
X88117820Y-87753027D01*
X88161093Y-87776158D01*
X88165384Y-87778731D01*
X88206183Y-87805991D01*
X88210204Y-87808973D01*
X88248133Y-87840101D01*
X88251841Y-87843462D01*
X88286538Y-87878159D01*
X88289899Y-87881867D01*
X88321027Y-87919796D01*
X88324009Y-87923817D01*
X88351269Y-87964616D01*
X88353842Y-87968907D01*
X88376973Y-88012180D01*
X88379113Y-88016706D01*
X88397890Y-88062039D01*
X88399576Y-88066750D01*
X88413820Y-88113705D01*
X88415036Y-88118561D01*
X88424608Y-88166686D01*
X88425342Y-88171636D01*
X88430152Y-88220467D01*
X88430398Y-88225466D01*
X88430398Y-88243888D01*
X88431000Y-88250000D01*
X88431000Y-88750000D01*
X88430020Y-88759950D01*
X88427118Y-88769517D01*
X88422405Y-88778334D01*
X88416062Y-88786062D01*
X88408334Y-88792405D01*
X88399517Y-88797118D01*
X88389950Y-88800020D01*
X88380000Y-88801000D01*
X86880000Y-88801000D01*
X86870050Y-88800020D01*
X86860483Y-88797118D01*
X86851666Y-88792405D01*
X86843938Y-88786062D01*
X86837595Y-88778334D01*
X86832882Y-88769517D01*
X86829980Y-88759950D01*
X86829000Y-88750000D01*
X86829000Y-88250000D01*
X86829602Y-88243888D01*
G37*
G36*
X86829980Y-89040050D02*
G01*
X86832882Y-89030483D01*
X86837595Y-89021666D01*
X86843938Y-89013938D01*
X86851666Y-89007595D01*
X86860483Y-89002882D01*
X86870050Y-88999980D01*
X86880000Y-88999000D01*
X88380000Y-88999000D01*
X88389950Y-88999980D01*
X88399517Y-89002882D01*
X88408334Y-89007595D01*
X88416062Y-89013938D01*
X88422405Y-89021666D01*
X88427118Y-89030483D01*
X88430020Y-89040050D01*
X88431000Y-89050000D01*
X88431000Y-89550000D01*
X88430398Y-89556112D01*
X88430398Y-89574534D01*
X88430152Y-89579533D01*
X88425342Y-89628364D01*
X88424608Y-89633314D01*
X88415036Y-89681439D01*
X88413820Y-89686295D01*
X88399576Y-89733250D01*
X88397890Y-89737961D01*
X88379113Y-89783294D01*
X88376973Y-89787820D01*
X88353842Y-89831093D01*
X88351269Y-89835384D01*
X88324009Y-89876183D01*
X88321027Y-89880204D01*
X88289899Y-89918133D01*
X88286538Y-89921841D01*
X88251841Y-89956538D01*
X88248133Y-89959899D01*
X88210204Y-89991027D01*
X88206183Y-89994009D01*
X88165384Y-90021269D01*
X88161093Y-90023842D01*
X88117820Y-90046973D01*
X88113294Y-90049113D01*
X88067961Y-90067890D01*
X88063250Y-90069576D01*
X88016295Y-90083820D01*
X88011439Y-90085036D01*
X87963314Y-90094608D01*
X87958364Y-90095342D01*
X87909533Y-90100152D01*
X87904534Y-90100398D01*
X87886112Y-90100398D01*
X87880000Y-90101000D01*
X87380000Y-90101000D01*
X87373888Y-90100398D01*
X87355466Y-90100398D01*
X87350467Y-90100152D01*
X87301636Y-90095342D01*
X87296686Y-90094608D01*
X87248561Y-90085036D01*
X87243705Y-90083820D01*
X87196750Y-90069576D01*
X87192039Y-90067890D01*
X87146706Y-90049113D01*
X87142180Y-90046973D01*
X87098907Y-90023842D01*
X87094616Y-90021269D01*
X87053817Y-89994009D01*
X87049796Y-89991027D01*
X87011867Y-89959899D01*
X87008159Y-89956538D01*
X86973462Y-89921841D01*
X86970101Y-89918133D01*
X86938973Y-89880204D01*
X86935991Y-89876183D01*
X86908731Y-89835384D01*
X86906158Y-89831093D01*
X86883027Y-89787820D01*
X86880887Y-89783294D01*
X86862110Y-89737961D01*
X86860424Y-89733250D01*
X86846180Y-89686295D01*
X86844964Y-89681439D01*
X86835392Y-89633314D01*
X86834658Y-89628364D01*
X86829848Y-89579533D01*
X86829602Y-89574534D01*
X86829602Y-89556112D01*
X86829000Y-89550000D01*
X86829000Y-89050000D01*
X86829980Y-89040050D01*
G37*
G36*
X89556112Y-68414602D02*
G01*
X89574534Y-68414602D01*
X89579533Y-68414848D01*
X89628364Y-68419658D01*
X89633314Y-68420392D01*
X89681439Y-68429964D01*
X89686295Y-68431180D01*
X89733250Y-68445424D01*
X89737961Y-68447110D01*
X89783294Y-68465887D01*
X89787820Y-68468027D01*
X89831093Y-68491158D01*
X89835384Y-68493731D01*
X89876183Y-68520991D01*
X89880204Y-68523973D01*
X89918133Y-68555101D01*
X89921841Y-68558462D01*
X89956538Y-68593159D01*
X89959899Y-68596867D01*
X89991027Y-68634796D01*
X89994009Y-68638817D01*
X90021269Y-68679616D01*
X90023842Y-68683907D01*
X90046973Y-68727180D01*
X90049113Y-68731706D01*
X90067890Y-68777039D01*
X90069576Y-68781750D01*
X90083820Y-68828705D01*
X90085036Y-68833561D01*
X90094608Y-68881686D01*
X90095342Y-68886636D01*
X90100152Y-68935467D01*
X90100398Y-68940466D01*
X90100398Y-68958888D01*
X90101000Y-68965000D01*
X90101000Y-69465000D01*
X90100398Y-69471112D01*
X90100398Y-69489534D01*
X90100152Y-69494533D01*
X90095342Y-69543364D01*
X90094608Y-69548314D01*
X90085036Y-69596439D01*
X90083820Y-69601295D01*
X90069576Y-69648250D01*
X90067890Y-69652961D01*
X90049113Y-69698294D01*
X90046973Y-69702820D01*
X90023842Y-69746093D01*
X90021269Y-69750384D01*
X89994009Y-69791183D01*
X89991027Y-69795204D01*
X89959899Y-69833133D01*
X89956538Y-69836841D01*
X89921841Y-69871538D01*
X89918133Y-69874899D01*
X89880204Y-69906027D01*
X89876183Y-69909009D01*
X89835384Y-69936269D01*
X89831093Y-69938842D01*
X89787820Y-69961973D01*
X89783294Y-69964113D01*
X89737961Y-69982890D01*
X89733250Y-69984576D01*
X89686295Y-69998820D01*
X89681439Y-70000036D01*
X89633314Y-70009608D01*
X89628364Y-70010342D01*
X89579533Y-70015152D01*
X89574534Y-70015398D01*
X89556112Y-70015398D01*
X89550000Y-70016000D01*
X89050000Y-70016000D01*
X89040050Y-70015020D01*
X89030483Y-70012118D01*
X89021666Y-70007405D01*
X89013938Y-70001062D01*
X89007595Y-69993334D01*
X89002882Y-69984517D01*
X88999980Y-69974950D01*
X88999000Y-69965000D01*
X88999000Y-68465000D01*
X88999980Y-68455050D01*
X89002882Y-68445483D01*
X89007595Y-68436666D01*
X89013938Y-68428938D01*
X89021666Y-68422595D01*
X89030483Y-68417882D01*
X89040050Y-68414980D01*
X89050000Y-68414000D01*
X89550000Y-68414000D01*
X89556112Y-68414602D01*
G37*
G36*
X88759950Y-68414980D02*
G01*
X88769517Y-68417882D01*
X88778334Y-68422595D01*
X88786062Y-68428938D01*
X88792405Y-68436666D01*
X88797118Y-68445483D01*
X88800020Y-68455050D01*
X88801000Y-68465000D01*
X88801000Y-69965000D01*
X88800020Y-69974950D01*
X88797118Y-69984517D01*
X88792405Y-69993334D01*
X88786062Y-70001062D01*
X88778334Y-70007405D01*
X88769517Y-70012118D01*
X88759950Y-70015020D01*
X88750000Y-70016000D01*
X88250000Y-70016000D01*
X88243888Y-70015398D01*
X88225466Y-70015398D01*
X88220467Y-70015152D01*
X88171636Y-70010342D01*
X88166686Y-70009608D01*
X88118561Y-70000036D01*
X88113705Y-69998820D01*
X88066750Y-69984576D01*
X88062039Y-69982890D01*
X88016706Y-69964113D01*
X88012180Y-69961973D01*
X87968907Y-69938842D01*
X87964616Y-69936269D01*
X87923817Y-69909009D01*
X87919796Y-69906027D01*
X87881867Y-69874899D01*
X87878159Y-69871538D01*
X87843462Y-69836841D01*
X87840101Y-69833133D01*
X87808973Y-69795204D01*
X87805991Y-69791183D01*
X87778731Y-69750384D01*
X87776158Y-69746093D01*
X87753027Y-69702820D01*
X87750887Y-69698294D01*
X87732110Y-69652961D01*
X87730424Y-69648250D01*
X87716180Y-69601295D01*
X87714964Y-69596439D01*
X87705392Y-69548314D01*
X87704658Y-69543364D01*
X87699848Y-69494533D01*
X87699602Y-69489534D01*
X87699602Y-69471112D01*
X87699000Y-69465000D01*
X87699000Y-68965000D01*
X87699602Y-68958888D01*
X87699602Y-68940466D01*
X87699848Y-68935467D01*
X87704658Y-68886636D01*
X87705392Y-68881686D01*
X87714964Y-68833561D01*
X87716180Y-68828705D01*
X87730424Y-68781750D01*
X87732110Y-68777039D01*
X87750887Y-68731706D01*
X87753027Y-68727180D01*
X87776158Y-68683907D01*
X87778731Y-68679616D01*
X87805991Y-68638817D01*
X87808973Y-68634796D01*
X87840101Y-68596867D01*
X87843462Y-68593159D01*
X87878159Y-68558462D01*
X87881867Y-68555101D01*
X87919796Y-68523973D01*
X87923817Y-68520991D01*
X87964616Y-68493731D01*
X87968907Y-68491158D01*
X88012180Y-68468027D01*
X88016706Y-68465887D01*
X88062039Y-68447110D01*
X88066750Y-68445424D01*
X88113705Y-68431180D01*
X88118561Y-68429964D01*
X88166686Y-68420392D01*
X88171636Y-68419658D01*
X88220467Y-68414848D01*
X88225466Y-68414602D01*
X88243888Y-68414602D01*
X88250000Y-68414000D01*
X88750000Y-68414000D01*
X88759950Y-68414980D01*
G37*
G36*
G01*
X93896000Y-68465000D02*
X93896000Y-69965000D01*
G75*
G02*
X93845000Y-70016000I-51000J0D01*
G01*
X92845000Y-70016000D01*
G75*
G02*
X92794000Y-69965000I0J51000D01*
G01*
X92794000Y-68465000D01*
G75*
G02*
X92845000Y-68414000I51000J0D01*
G01*
X93845000Y-68414000D01*
G75*
G02*
X93896000Y-68465000I0J-51000D01*
G01*
G37*
G36*
X92038888Y-70015398D02*
G01*
X92020466Y-70015398D01*
X92015467Y-70015152D01*
X91966636Y-70010342D01*
X91961686Y-70009608D01*
X91913561Y-70000036D01*
X91908705Y-69998820D01*
X91861750Y-69984576D01*
X91857039Y-69982890D01*
X91811706Y-69964113D01*
X91807180Y-69961973D01*
X91763907Y-69938842D01*
X91759616Y-69936269D01*
X91718817Y-69909009D01*
X91714796Y-69906027D01*
X91676867Y-69874899D01*
X91673159Y-69871538D01*
X91638462Y-69836841D01*
X91635101Y-69833133D01*
X91603973Y-69795204D01*
X91600991Y-69791183D01*
X91573731Y-69750384D01*
X91571158Y-69746093D01*
X91548027Y-69702820D01*
X91545887Y-69698294D01*
X91527110Y-69652961D01*
X91525424Y-69648250D01*
X91511180Y-69601295D01*
X91509964Y-69596439D01*
X91500392Y-69548314D01*
X91499658Y-69543364D01*
X91494848Y-69494533D01*
X91494602Y-69489534D01*
X91494602Y-69471112D01*
X91494000Y-69465000D01*
X91494000Y-68965000D01*
X91494602Y-68958888D01*
X91494602Y-68940466D01*
X91494848Y-68935467D01*
X91499658Y-68886636D01*
X91500392Y-68881686D01*
X91509964Y-68833561D01*
X91511180Y-68828705D01*
X91525424Y-68781750D01*
X91527110Y-68777039D01*
X91545887Y-68731706D01*
X91548027Y-68727180D01*
X91571158Y-68683907D01*
X91573731Y-68679616D01*
X91600991Y-68638817D01*
X91603973Y-68634796D01*
X91635101Y-68596867D01*
X91638462Y-68593159D01*
X91673159Y-68558462D01*
X91676867Y-68555101D01*
X91714796Y-68523973D01*
X91718817Y-68520991D01*
X91759616Y-68493731D01*
X91763907Y-68491158D01*
X91807180Y-68468027D01*
X91811706Y-68465887D01*
X91857039Y-68447110D01*
X91861750Y-68445424D01*
X91908705Y-68431180D01*
X91913561Y-68429964D01*
X91961686Y-68420392D01*
X91966636Y-68419658D01*
X92015467Y-68414848D01*
X92020466Y-68414602D01*
X92038888Y-68414602D01*
X92045000Y-68414000D01*
X92595000Y-68414000D01*
X92604950Y-68414980D01*
X92614517Y-68417882D01*
X92623334Y-68422595D01*
X92631062Y-68428938D01*
X92637405Y-68436666D01*
X92642118Y-68445483D01*
X92645020Y-68455050D01*
X92646000Y-68465000D01*
X92646000Y-69965000D01*
X92645020Y-69974950D01*
X92642118Y-69984517D01*
X92637405Y-69993334D01*
X92631062Y-70001062D01*
X92623334Y-70007405D01*
X92614517Y-70012118D01*
X92604950Y-70015020D01*
X92595000Y-70016000D01*
X92045000Y-70016000D01*
X92038888Y-70015398D01*
G37*
G36*
X94085050Y-70015020D02*
G01*
X94075483Y-70012118D01*
X94066666Y-70007405D01*
X94058938Y-70001062D01*
X94052595Y-69993334D01*
X94047882Y-69984517D01*
X94044980Y-69974950D01*
X94044000Y-69965000D01*
X94044000Y-68465000D01*
X94044980Y-68455050D01*
X94047882Y-68445483D01*
X94052595Y-68436666D01*
X94058938Y-68428938D01*
X94066666Y-68422595D01*
X94075483Y-68417882D01*
X94085050Y-68414980D01*
X94095000Y-68414000D01*
X94645000Y-68414000D01*
X94651112Y-68414602D01*
X94669534Y-68414602D01*
X94674533Y-68414848D01*
X94723364Y-68419658D01*
X94728314Y-68420392D01*
X94776439Y-68429964D01*
X94781295Y-68431180D01*
X94828250Y-68445424D01*
X94832961Y-68447110D01*
X94878294Y-68465887D01*
X94882820Y-68468027D01*
X94926093Y-68491158D01*
X94930384Y-68493731D01*
X94971183Y-68520991D01*
X94975204Y-68523973D01*
X95013133Y-68555101D01*
X95016841Y-68558462D01*
X95051538Y-68593159D01*
X95054899Y-68596867D01*
X95086027Y-68634796D01*
X95089009Y-68638817D01*
X95116269Y-68679616D01*
X95118842Y-68683907D01*
X95141973Y-68727180D01*
X95144113Y-68731706D01*
X95162890Y-68777039D01*
X95164576Y-68781750D01*
X95178820Y-68828705D01*
X95180036Y-68833561D01*
X95189608Y-68881686D01*
X95190342Y-68886636D01*
X95195152Y-68935467D01*
X95195398Y-68940466D01*
X95195398Y-68958888D01*
X95196000Y-68965000D01*
X95196000Y-69465000D01*
X95195398Y-69471112D01*
X95195398Y-69489534D01*
X95195152Y-69494533D01*
X95190342Y-69543364D01*
X95189608Y-69548314D01*
X95180036Y-69596439D01*
X95178820Y-69601295D01*
X95164576Y-69648250D01*
X95162890Y-69652961D01*
X95144113Y-69698294D01*
X95141973Y-69702820D01*
X95118842Y-69746093D01*
X95116269Y-69750384D01*
X95089009Y-69791183D01*
X95086027Y-69795204D01*
X95054899Y-69833133D01*
X95051538Y-69836841D01*
X95016841Y-69871538D01*
X95013133Y-69874899D01*
X94975204Y-69906027D01*
X94971183Y-69909009D01*
X94930384Y-69936269D01*
X94926093Y-69938842D01*
X94882820Y-69961973D01*
X94878294Y-69964113D01*
X94832961Y-69982890D01*
X94828250Y-69984576D01*
X94781295Y-69998820D01*
X94776439Y-70000036D01*
X94728314Y-70009608D01*
X94723364Y-70010342D01*
X94674533Y-70015152D01*
X94669534Y-70015398D01*
X94651112Y-70015398D01*
X94645000Y-70016000D01*
X94095000Y-70016000D01*
X94085050Y-70015020D01*
G37*
D14*
X125840000Y-63500000D03*
X128380000Y-63500000D03*
X130920000Y-63500000D03*
X133460000Y-63500000D03*
X136000000Y-63500000D03*
X138540000Y-63500000D03*
X141080000Y-63500000D03*
X143620000Y-63500000D03*
X146160000Y-63500000D03*
X148700000Y-63500000D03*
X151240000Y-63500000D03*
X153780000Y-63500000D03*
X156320000Y-63500000D03*
X158860000Y-63500000D03*
X161400000Y-63500000D03*
X163940000Y-63500000D03*
X166480000Y-63500000D03*
X169020000Y-63500000D03*
X171560000Y-63500000D03*
G36*
G01*
X174950000Y-64401000D02*
X173250000Y-64401000D01*
G75*
G02*
X173199000Y-64350000I0J51000D01*
G01*
X173199000Y-62650000D01*
G75*
G02*
X173250000Y-62599000I51000J0D01*
G01*
X174950000Y-62599000D01*
G75*
G02*
X175001000Y-62650000I0J-51000D01*
G01*
X175001000Y-64350000D01*
G75*
G02*
X174950000Y-64401000I-51000J0D01*
G01*
G37*
X215500000Y-121680000D03*
X215500000Y-119140000D03*
X215500000Y-116600000D03*
X215500000Y-114060000D03*
X215500000Y-111520000D03*
X215500000Y-108980000D03*
X215500000Y-106440000D03*
X215500000Y-103900000D03*
X215500000Y-101360000D03*
X215500000Y-98820000D03*
X215500000Y-96280000D03*
X215500000Y-93740000D03*
X215500000Y-91200000D03*
X215500000Y-88660000D03*
X215500000Y-86120000D03*
X215500000Y-83580000D03*
X215500000Y-81040000D03*
G36*
G01*
X214599000Y-79350000D02*
X214599000Y-77650000D01*
G75*
G02*
X214650000Y-77599000I51000J0D01*
G01*
X216350000Y-77599000D01*
G75*
G02*
X216401000Y-77650000I0J-51000D01*
G01*
X216401000Y-79350000D01*
G75*
G02*
X216350000Y-79401000I-51000J0D01*
G01*
X214650000Y-79401000D01*
G75*
G02*
X214599000Y-79350000I0J51000D01*
G01*
G37*
X180975000Y-47625000D03*
X178435000Y-47625000D03*
X175895000Y-47625000D03*
G36*
G01*
X174205000Y-48526000D02*
X172505000Y-48526000D01*
G75*
G02*
X172454000Y-48475000I0J51000D01*
G01*
X172454000Y-46775000D01*
G75*
G02*
X172505000Y-46724000I51000J0D01*
G01*
X174205000Y-46724000D01*
G75*
G02*
X174256000Y-46775000I0J-51000D01*
G01*
X174256000Y-48475000D01*
G75*
G02*
X174205000Y-48526000I-51000J0D01*
G01*
G37*
X167640000Y-47625000D03*
X165100000Y-47625000D03*
X162560000Y-47625000D03*
G36*
G01*
X160870000Y-48526000D02*
X159170000Y-48526000D01*
G75*
G02*
X159119000Y-48475000I0J51000D01*
G01*
X159119000Y-46775000D01*
G75*
G02*
X159170000Y-46724000I51000J0D01*
G01*
X160870000Y-46724000D01*
G75*
G02*
X160921000Y-46775000I0J-51000D01*
G01*
X160921000Y-48475000D01*
G75*
G02*
X160870000Y-48526000I-51000J0D01*
G01*
G37*
X140335000Y-47625000D03*
X137795000Y-47625000D03*
X135255000Y-47625000D03*
X132715000Y-47625000D03*
X130175000Y-47625000D03*
G36*
G01*
X128485000Y-48526000D02*
X126785000Y-48526000D01*
G75*
G02*
X126734000Y-48475000I0J51000D01*
G01*
X126734000Y-46775000D01*
G75*
G02*
X126785000Y-46724000I51000J0D01*
G01*
X128485000Y-46724000D01*
G75*
G02*
X128536000Y-46775000I0J-51000D01*
G01*
X128536000Y-48475000D01*
G75*
G02*
X128485000Y-48526000I-51000J0D01*
G01*
G37*
X85090000Y-57785000D03*
X85090000Y-60325000D03*
X85090000Y-62865000D03*
X85090000Y-65405000D03*
X85090000Y-67945000D03*
G36*
G01*
X85991000Y-69635000D02*
X85991000Y-71335000D01*
G75*
G02*
X85940000Y-71386000I-51000J0D01*
G01*
X84240000Y-71386000D01*
G75*
G02*
X84189000Y-71335000I0J51000D01*
G01*
X84189000Y-69635000D01*
G75*
G02*
X84240000Y-69584000I51000J0D01*
G01*
X85940000Y-69584000D01*
G75*
G02*
X85991000Y-69635000I0J-51000D01*
G01*
G37*
G36*
G01*
X88544000Y-133600500D02*
X88544000Y-131799500D01*
G75*
G02*
X89444500Y-130899000I900500J0D01*
G01*
X91245500Y-130899000D01*
G75*
G02*
X92146000Y-131799500I0J-900500D01*
G01*
X92146000Y-133600500D01*
G75*
G02*
X91245500Y-134501000I-900500J0D01*
G01*
X89444500Y-134501000D01*
G75*
G02*
X88544000Y-133600500I0J900500D01*
G01*
G37*
G36*
G01*
X85794000Y-129025500D02*
X85794000Y-126974500D01*
G75*
G02*
X86569500Y-126199000I775500J0D01*
G01*
X88120500Y-126199000D01*
G75*
G02*
X88896000Y-126974500I0J-775500D01*
G01*
X88896000Y-129025500D01*
G75*
G02*
X88120500Y-129801000I-775500J0D01*
G01*
X86569500Y-129801000D01*
G75*
G02*
X85794000Y-129025500I0J775500D01*
G01*
G37*
G36*
G01*
X91544000Y-129750000D02*
X91544000Y-126250000D01*
G75*
G02*
X91595000Y-126199000I51000J0D01*
G01*
X95095000Y-126199000D01*
G75*
G02*
X95146000Y-126250000I0J-51000D01*
G01*
X95146000Y-129750000D01*
G75*
G02*
X95095000Y-129801000I-51000J0D01*
G01*
X91595000Y-129801000D01*
G75*
G02*
X91544000Y-129750000I0J51000D01*
G01*
G37*
G36*
G01*
X104112755Y-107481000D02*
X99087245Y-107481000D01*
G75*
G02*
X98824000Y-107217755I0J263245D01*
G01*
X98824000Y-105717245D01*
G75*
G02*
X99087245Y-105454000I263245J0D01*
G01*
X104112755Y-105454000D01*
G75*
G02*
X104376000Y-105717245I0J-263245D01*
G01*
X104376000Y-107217755D01*
G75*
G02*
X104112755Y-107481000I-263245J0D01*
G01*
G37*
G36*
G01*
X104112755Y-114256000D02*
X99087245Y-114256000D01*
G75*
G02*
X98824000Y-113992755I0J263245D01*
G01*
X98824000Y-112492245D01*
G75*
G02*
X99087245Y-112229000I263245J0D01*
G01*
X104112755Y-112229000D01*
G75*
G02*
X104376000Y-112492245I0J-263245D01*
G01*
X104376000Y-113992755D01*
G75*
G02*
X104112755Y-114256000I-263245J0D01*
G01*
G37*
D23*
X206000000Y-105000000D03*
X206000000Y-100000000D03*
X206000000Y-95000000D03*
X206000000Y-70000000D03*
X206000000Y-80000000D03*
X206000000Y-75000000D03*
X206000000Y-90000000D03*
X206000000Y-85000000D03*
X206000000Y-110000000D03*
X206000000Y-115000000D03*
X206000000Y-120000000D03*
X196000000Y-85000000D03*
X196000000Y-75000000D03*
X196000000Y-80000000D03*
G36*
G01*
X202500500Y-53101000D02*
X201499500Y-53101000D01*
G75*
G02*
X201224000Y-52825500I0J275500D01*
G01*
X201224000Y-52274500D01*
G75*
G02*
X201499500Y-51999000I275500J0D01*
G01*
X202500500Y-51999000D01*
G75*
G02*
X202776000Y-52274500I0J-275500D01*
G01*
X202776000Y-52825500D01*
G75*
G02*
X202500500Y-53101000I-275500J0D01*
G01*
G37*
G36*
G01*
X202500500Y-55001000D02*
X201499500Y-55001000D01*
G75*
G02*
X201224000Y-54725500I0J275500D01*
G01*
X201224000Y-54174500D01*
G75*
G02*
X201499500Y-53899000I275500J0D01*
G01*
X202500500Y-53899000D01*
G75*
G02*
X202776000Y-54174500I0J-275500D01*
G01*
X202776000Y-54725500D01*
G75*
G02*
X202500500Y-55001000I-275500J0D01*
G01*
G37*
G36*
G01*
X195500500Y-48101000D02*
X194499500Y-48101000D01*
G75*
G02*
X194224000Y-47825500I0J275500D01*
G01*
X194224000Y-47274500D01*
G75*
G02*
X194499500Y-46999000I275500J0D01*
G01*
X195500500Y-46999000D01*
G75*
G02*
X195776000Y-47274500I0J-275500D01*
G01*
X195776000Y-47825500D01*
G75*
G02*
X195500500Y-48101000I-275500J0D01*
G01*
G37*
G36*
G01*
X195500500Y-50001000D02*
X194499500Y-50001000D01*
G75*
G02*
X194224000Y-49725500I0J275500D01*
G01*
X194224000Y-49174500D01*
G75*
G02*
X194499500Y-48899000I275500J0D01*
G01*
X195500500Y-48899000D01*
G75*
G02*
X195776000Y-49174500I0J-275500D01*
G01*
X195776000Y-49725500D01*
G75*
G02*
X195500500Y-50001000I-275500J0D01*
G01*
G37*
G36*
G01*
X202500500Y-48101000D02*
X201499500Y-48101000D01*
G75*
G02*
X201224000Y-47825500I0J275500D01*
G01*
X201224000Y-47274500D01*
G75*
G02*
X201499500Y-46999000I275500J0D01*
G01*
X202500500Y-46999000D01*
G75*
G02*
X202776000Y-47274500I0J-275500D01*
G01*
X202776000Y-47825500D01*
G75*
G02*
X202500500Y-48101000I-275500J0D01*
G01*
G37*
G36*
G01*
X202500500Y-50001000D02*
X201499500Y-50001000D01*
G75*
G02*
X201224000Y-49725500I0J275500D01*
G01*
X201224000Y-49174500D01*
G75*
G02*
X201499500Y-48899000I275500J0D01*
G01*
X202500500Y-48899000D01*
G75*
G02*
X202776000Y-49174500I0J-275500D01*
G01*
X202776000Y-49725500D01*
G75*
G02*
X202500500Y-50001000I-275500J0D01*
G01*
G37*
G36*
G01*
X202500500Y-58101000D02*
X201499500Y-58101000D01*
G75*
G02*
X201224000Y-57825500I0J275500D01*
G01*
X201224000Y-57274500D01*
G75*
G02*
X201499500Y-56999000I275500J0D01*
G01*
X202500500Y-56999000D01*
G75*
G02*
X202776000Y-57274500I0J-275500D01*
G01*
X202776000Y-57825500D01*
G75*
G02*
X202500500Y-58101000I-275500J0D01*
G01*
G37*
G36*
G01*
X202500500Y-60001000D02*
X201499500Y-60001000D01*
G75*
G02*
X201224000Y-59725500I0J275500D01*
G01*
X201224000Y-59174500D01*
G75*
G02*
X201499500Y-58899000I275500J0D01*
G01*
X202500500Y-58899000D01*
G75*
G02*
X202776000Y-59174500I0J-275500D01*
G01*
X202776000Y-59725500D01*
G75*
G02*
X202500500Y-60001000I-275500J0D01*
G01*
G37*
G36*
G01*
X91204000Y-93845500D02*
X91204000Y-92844500D01*
G75*
G02*
X91479500Y-92569000I275500J0D01*
G01*
X92030500Y-92569000D01*
G75*
G02*
X92306000Y-92844500I0J-275500D01*
G01*
X92306000Y-93845500D01*
G75*
G02*
X92030500Y-94121000I-275500J0D01*
G01*
X91479500Y-94121000D01*
G75*
G02*
X91204000Y-93845500I0J275500D01*
G01*
G37*
G36*
G01*
X89304000Y-93845500D02*
X89304000Y-92844500D01*
G75*
G02*
X89579500Y-92569000I275500J0D01*
G01*
X90130500Y-92569000D01*
G75*
G02*
X90406000Y-92844500I0J-275500D01*
G01*
X90406000Y-93845500D01*
G75*
G02*
X90130500Y-94121000I-275500J0D01*
G01*
X89579500Y-94121000D01*
G75*
G02*
X89304000Y-93845500I0J275500D01*
G01*
G37*
G36*
G01*
X163949500Y-83548000D02*
X162948500Y-83548000D01*
G75*
G02*
X162673000Y-83272500I0J275500D01*
G01*
X162673000Y-82721500D01*
G75*
G02*
X162948500Y-82446000I275500J0D01*
G01*
X163949500Y-82446000D01*
G75*
G02*
X164225000Y-82721500I0J-275500D01*
G01*
X164225000Y-83272500D01*
G75*
G02*
X163949500Y-83548000I-275500J0D01*
G01*
G37*
G36*
G01*
X163949500Y-85448000D02*
X162948500Y-85448000D01*
G75*
G02*
X162673000Y-85172500I0J275500D01*
G01*
X162673000Y-84621500D01*
G75*
G02*
X162948500Y-84346000I275500J0D01*
G01*
X163949500Y-84346000D01*
G75*
G02*
X164225000Y-84621500I0J-275500D01*
G01*
X164225000Y-85172500D01*
G75*
G02*
X163949500Y-85448000I-275500J0D01*
G01*
G37*
G36*
G01*
X91839000Y-77335500D02*
X91839000Y-76334500D01*
G75*
G02*
X92114500Y-76059000I275500J0D01*
G01*
X92665500Y-76059000D01*
G75*
G02*
X92941000Y-76334500I0J-275500D01*
G01*
X92941000Y-77335500D01*
G75*
G02*
X92665500Y-77611000I-275500J0D01*
G01*
X92114500Y-77611000D01*
G75*
G02*
X91839000Y-77335500I0J275500D01*
G01*
G37*
G36*
G01*
X89939000Y-77335500D02*
X89939000Y-76334500D01*
G75*
G02*
X90214500Y-76059000I275500J0D01*
G01*
X90765500Y-76059000D01*
G75*
G02*
X91041000Y-76334500I0J-275500D01*
G01*
X91041000Y-77335500D01*
G75*
G02*
X90765500Y-77611000I-275500J0D01*
G01*
X90214500Y-77611000D01*
G75*
G02*
X89939000Y-77335500I0J275500D01*
G01*
G37*
G36*
G01*
X87231000Y-76334500D02*
X87231000Y-77335500D01*
G75*
G02*
X86955500Y-77611000I-275500J0D01*
G01*
X86404500Y-77611000D01*
G75*
G02*
X86129000Y-77335500I0J275500D01*
G01*
X86129000Y-76334500D01*
G75*
G02*
X86404500Y-76059000I275500J0D01*
G01*
X86955500Y-76059000D01*
G75*
G02*
X87231000Y-76334500I0J-275500D01*
G01*
G37*
G36*
G01*
X89131000Y-76334500D02*
X89131000Y-77335500D01*
G75*
G02*
X88855500Y-77611000I-275500J0D01*
G01*
X88304500Y-77611000D01*
G75*
G02*
X88029000Y-77335500I0J275500D01*
G01*
X88029000Y-76334500D01*
G75*
G02*
X88304500Y-76059000I275500J0D01*
G01*
X88855500Y-76059000D01*
G75*
G02*
X89131000Y-76334500I0J-275500D01*
G01*
G37*
G36*
G01*
X91204000Y-88765500D02*
X91204000Y-87764500D01*
G75*
G02*
X91479500Y-87489000I275500J0D01*
G01*
X92030500Y-87489000D01*
G75*
G02*
X92306000Y-87764500I0J-275500D01*
G01*
X92306000Y-88765500D01*
G75*
G02*
X92030500Y-89041000I-275500J0D01*
G01*
X91479500Y-89041000D01*
G75*
G02*
X91204000Y-88765500I0J275500D01*
G01*
G37*
G36*
G01*
X89304000Y-88765500D02*
X89304000Y-87764500D01*
G75*
G02*
X89579500Y-87489000I275500J0D01*
G01*
X90130500Y-87489000D01*
G75*
G02*
X90406000Y-87764500I0J-275500D01*
G01*
X90406000Y-88765500D01*
G75*
G02*
X90130500Y-89041000I-275500J0D01*
G01*
X89579500Y-89041000D01*
G75*
G02*
X89304000Y-88765500I0J275500D01*
G01*
G37*
G36*
G01*
X91965000Y-105504000D02*
X93065000Y-105504000D01*
G75*
G02*
X93116000Y-105555000I0J-51000D01*
G01*
X93116000Y-107055000D01*
G75*
G02*
X93065000Y-107106000I-51000J0D01*
G01*
X91965000Y-107106000D01*
G75*
G02*
X91914000Y-107055000I0J51000D01*
G01*
X91914000Y-105555000D01*
G75*
G02*
X91965000Y-105504000I51000J0D01*
G01*
G37*
G36*
G01*
X96065000Y-105504000D02*
X97165000Y-105504000D01*
G75*
G02*
X97216000Y-105555000I0J-51000D01*
G01*
X97216000Y-107055000D01*
G75*
G02*
X97165000Y-107106000I-51000J0D01*
G01*
X96065000Y-107106000D01*
G75*
G02*
X96014000Y-107055000I0J51000D01*
G01*
X96014000Y-105555000D01*
G75*
G02*
X96065000Y-105504000I51000J0D01*
G01*
G37*
G36*
G01*
X96065000Y-99804000D02*
X97165000Y-99804000D01*
G75*
G02*
X97216000Y-99855000I0J-51000D01*
G01*
X97216000Y-101355000D01*
G75*
G02*
X97165000Y-101406000I-51000J0D01*
G01*
X96065000Y-101406000D01*
G75*
G02*
X96014000Y-101355000I0J51000D01*
G01*
X96014000Y-99855000D01*
G75*
G02*
X96065000Y-99804000I51000J0D01*
G01*
G37*
G36*
G01*
X91965000Y-99804000D02*
X93065000Y-99804000D01*
G75*
G02*
X93116000Y-99855000I0J-51000D01*
G01*
X93116000Y-101355000D01*
G75*
G02*
X93065000Y-101406000I-51000J0D01*
G01*
X91965000Y-101406000D01*
G75*
G02*
X91914000Y-101355000I0J51000D01*
G01*
X91914000Y-99855000D01*
G75*
G02*
X91965000Y-99804000I51000J0D01*
G01*
G37*
D10*
G36*
X138802165Y-138023874D02*
G01*
X138803000Y-138025500D01*
X138803000Y-138081860D01*
X138802990Y-138082056D01*
X138793501Y-138178406D01*
X138793425Y-138178791D01*
X138767112Y-138265531D01*
X138766962Y-138265893D01*
X138724234Y-138345832D01*
X138724016Y-138346158D01*
X138666508Y-138416231D01*
X138666231Y-138416508D01*
X138596158Y-138474016D01*
X138595832Y-138474234D01*
X138515893Y-138516962D01*
X138515531Y-138517112D01*
X138428791Y-138543425D01*
X138428406Y-138543501D01*
X138332056Y-138552990D01*
X138331860Y-138553000D01*
X138275500Y-138553000D01*
X138273768Y-138552000D01*
X138273768Y-138550000D01*
X138275304Y-138549010D01*
X138377625Y-138538933D01*
X138475831Y-138509142D01*
X138566336Y-138460766D01*
X138645664Y-138395664D01*
X138710766Y-138316336D01*
X138759142Y-138225831D01*
X138788933Y-138127625D01*
X138799010Y-138025304D01*
X138800175Y-138023678D01*
X138802165Y-138023874D01*
G37*
G36*
X201802165Y-138023874D02*
G01*
X201803000Y-138025500D01*
X201803000Y-138081860D01*
X201802990Y-138082056D01*
X201793501Y-138178406D01*
X201793425Y-138178791D01*
X201767112Y-138265531D01*
X201766962Y-138265893D01*
X201724234Y-138345832D01*
X201724016Y-138346158D01*
X201666508Y-138416231D01*
X201666231Y-138416508D01*
X201596158Y-138474016D01*
X201595832Y-138474234D01*
X201515893Y-138516962D01*
X201515531Y-138517112D01*
X201428791Y-138543425D01*
X201428406Y-138543501D01*
X201332056Y-138552990D01*
X201331860Y-138553000D01*
X201275500Y-138553000D01*
X201273768Y-138552000D01*
X201273768Y-138550000D01*
X201275304Y-138549010D01*
X201377625Y-138538933D01*
X201475831Y-138509142D01*
X201566336Y-138460766D01*
X201645664Y-138395664D01*
X201710766Y-138316336D01*
X201759142Y-138225831D01*
X201788933Y-138127625D01*
X201799010Y-138025304D01*
X201800175Y-138023678D01*
X201802165Y-138023874D01*
G37*
G36*
X136700990Y-138025304D02*
G01*
X136711067Y-138127625D01*
X136740858Y-138225831D01*
X136789234Y-138316336D01*
X136854336Y-138395664D01*
X136933664Y-138460766D01*
X137024169Y-138509142D01*
X137122375Y-138538933D01*
X137224696Y-138549010D01*
X137226322Y-138550175D01*
X137226126Y-138552165D01*
X137224500Y-138553000D01*
X137168140Y-138553000D01*
X137167944Y-138552990D01*
X137071594Y-138543501D01*
X137071209Y-138543425D01*
X136984469Y-138517112D01*
X136984107Y-138516962D01*
X136904168Y-138474234D01*
X136903842Y-138474016D01*
X136833769Y-138416508D01*
X136833492Y-138416231D01*
X136775984Y-138346158D01*
X136775766Y-138345832D01*
X136733038Y-138265893D01*
X136732888Y-138265531D01*
X136706575Y-138178791D01*
X136706499Y-138178406D01*
X136697010Y-138082056D01*
X136697000Y-138081860D01*
X136697000Y-138025500D01*
X136698000Y-138023768D01*
X136700000Y-138023768D01*
X136700990Y-138025304D01*
G37*
G36*
X199700990Y-138025304D02*
G01*
X199711067Y-138127625D01*
X199740858Y-138225831D01*
X199789234Y-138316336D01*
X199854336Y-138395664D01*
X199933664Y-138460766D01*
X200024169Y-138509142D01*
X200122375Y-138538933D01*
X200224696Y-138549010D01*
X200226322Y-138550175D01*
X200226126Y-138552165D01*
X200224500Y-138553000D01*
X200168140Y-138553000D01*
X200167944Y-138552990D01*
X200071594Y-138543501D01*
X200071209Y-138543425D01*
X199984469Y-138517112D01*
X199984107Y-138516962D01*
X199904168Y-138474234D01*
X199903842Y-138474016D01*
X199833769Y-138416508D01*
X199833492Y-138416231D01*
X199775984Y-138346158D01*
X199775766Y-138345832D01*
X199733038Y-138265893D01*
X199732888Y-138265531D01*
X199706575Y-138178791D01*
X199706499Y-138178406D01*
X199697010Y-138082056D01*
X199697000Y-138081860D01*
X199697000Y-138025500D01*
X199698000Y-138023768D01*
X199700000Y-138023768D01*
X199700990Y-138025304D01*
G37*
G36*
X137226232Y-136448000D02*
G01*
X137226232Y-136450000D01*
X137224696Y-136450990D01*
X137122375Y-136461067D01*
X137024169Y-136490858D01*
X136933664Y-136539234D01*
X136854336Y-136604336D01*
X136789234Y-136683664D01*
X136740858Y-136774169D01*
X136711067Y-136872375D01*
X136700990Y-136974696D01*
X136699825Y-136976322D01*
X136697835Y-136976126D01*
X136697000Y-136974500D01*
X136697000Y-136918140D01*
X136697010Y-136917944D01*
X136706499Y-136821594D01*
X136706575Y-136821209D01*
X136732888Y-136734469D01*
X136733038Y-136734107D01*
X136775766Y-136654168D01*
X136775984Y-136653842D01*
X136833492Y-136583769D01*
X136833769Y-136583492D01*
X136903842Y-136525984D01*
X136904168Y-136525766D01*
X136984107Y-136483038D01*
X136984469Y-136482888D01*
X137071209Y-136456575D01*
X137071594Y-136456499D01*
X137167944Y-136447010D01*
X137168140Y-136447000D01*
X137224500Y-136447000D01*
X137226232Y-136448000D01*
G37*
G36*
X200226232Y-136448000D02*
G01*
X200226232Y-136450000D01*
X200224696Y-136450990D01*
X200122375Y-136461067D01*
X200024169Y-136490858D01*
X199933664Y-136539234D01*
X199854336Y-136604336D01*
X199789234Y-136683664D01*
X199740858Y-136774169D01*
X199711067Y-136872375D01*
X199700990Y-136974696D01*
X199699825Y-136976322D01*
X199697835Y-136976126D01*
X199697000Y-136974500D01*
X199697000Y-136918140D01*
X199697010Y-136917944D01*
X199706499Y-136821594D01*
X199706575Y-136821209D01*
X199732888Y-136734469D01*
X199733038Y-136734107D01*
X199775766Y-136654168D01*
X199775984Y-136653842D01*
X199833492Y-136583769D01*
X199833769Y-136583492D01*
X199903842Y-136525984D01*
X199904168Y-136525766D01*
X199984107Y-136483038D01*
X199984469Y-136482888D01*
X200071209Y-136456575D01*
X200071594Y-136456499D01*
X200167944Y-136447010D01*
X200168140Y-136447000D01*
X200224500Y-136447000D01*
X200226232Y-136448000D01*
G37*
G36*
X201332056Y-136447010D02*
G01*
X201428406Y-136456499D01*
X201428791Y-136456575D01*
X201515531Y-136482888D01*
X201515893Y-136483038D01*
X201595832Y-136525766D01*
X201596158Y-136525984D01*
X201666231Y-136583492D01*
X201666508Y-136583769D01*
X201724016Y-136653842D01*
X201724234Y-136654168D01*
X201766962Y-136734107D01*
X201767112Y-136734469D01*
X201793425Y-136821209D01*
X201793501Y-136821594D01*
X201802990Y-136917944D01*
X201803000Y-136918140D01*
X201803000Y-136974500D01*
X201802000Y-136976232D01*
X201800000Y-136976232D01*
X201799010Y-136974696D01*
X201788933Y-136872375D01*
X201759142Y-136774169D01*
X201710766Y-136683664D01*
X201645664Y-136604336D01*
X201566336Y-136539234D01*
X201475831Y-136490858D01*
X201377625Y-136461067D01*
X201275304Y-136450990D01*
X201273678Y-136449825D01*
X201273874Y-136447835D01*
X201275500Y-136447000D01*
X201331860Y-136447000D01*
X201332056Y-136447010D01*
G37*
G36*
X138332056Y-136447010D02*
G01*
X138428406Y-136456499D01*
X138428791Y-136456575D01*
X138515531Y-136482888D01*
X138515893Y-136483038D01*
X138595832Y-136525766D01*
X138596158Y-136525984D01*
X138666231Y-136583492D01*
X138666508Y-136583769D01*
X138724016Y-136653842D01*
X138724234Y-136654168D01*
X138766962Y-136734107D01*
X138767112Y-136734469D01*
X138793425Y-136821209D01*
X138793501Y-136821594D01*
X138802990Y-136917944D01*
X138803000Y-136918140D01*
X138803000Y-136974500D01*
X138802000Y-136976232D01*
X138800000Y-136976232D01*
X138799010Y-136974696D01*
X138788933Y-136872375D01*
X138759142Y-136774169D01*
X138710766Y-136683664D01*
X138645664Y-136604336D01*
X138566336Y-136539234D01*
X138475831Y-136490858D01*
X138377625Y-136461067D01*
X138275304Y-136450990D01*
X138273678Y-136449825D01*
X138273874Y-136447835D01*
X138275500Y-136447000D01*
X138331860Y-136447000D01*
X138332056Y-136447010D01*
G37*
G36*
X88545990Y-133600304D02*
G01*
X88563273Y-133775784D01*
X88614403Y-133944337D01*
X88697433Y-134099675D01*
X88809171Y-134235829D01*
X88945325Y-134347567D01*
X89100663Y-134430597D01*
X89269216Y-134481727D01*
X89444696Y-134499010D01*
X89446322Y-134500175D01*
X89446126Y-134502165D01*
X89444500Y-134503000D01*
X89388140Y-134503000D01*
X89387944Y-134502990D01*
X89218438Y-134486295D01*
X89218053Y-134486219D01*
X89060959Y-134438565D01*
X89060597Y-134438415D01*
X88915826Y-134361033D01*
X88915500Y-134360815D01*
X88788603Y-134256674D01*
X88788326Y-134256397D01*
X88684185Y-134129500D01*
X88683967Y-134129174D01*
X88606585Y-133984403D01*
X88606435Y-133984041D01*
X88558781Y-133826947D01*
X88558705Y-133826562D01*
X88542010Y-133657056D01*
X88542000Y-133656860D01*
X88542000Y-133600500D01*
X88543000Y-133598768D01*
X88545000Y-133598768D01*
X88545990Y-133600304D01*
G37*
G36*
X92147165Y-133598874D02*
G01*
X92148000Y-133600500D01*
X92148000Y-133656860D01*
X92147990Y-133657056D01*
X92131295Y-133826562D01*
X92131219Y-133826947D01*
X92083565Y-133984041D01*
X92083415Y-133984403D01*
X92006033Y-134129174D01*
X92005815Y-134129500D01*
X91901674Y-134256397D01*
X91901397Y-134256674D01*
X91774500Y-134360815D01*
X91774174Y-134361033D01*
X91629403Y-134438415D01*
X91629041Y-134438565D01*
X91471947Y-134486219D01*
X91471562Y-134486295D01*
X91302056Y-134502990D01*
X91301860Y-134503000D01*
X91245500Y-134503000D01*
X91243768Y-134502000D01*
X91243768Y-134500000D01*
X91245304Y-134499010D01*
X91420784Y-134481727D01*
X91589337Y-134430597D01*
X91744675Y-134347567D01*
X91880829Y-134235829D01*
X91992567Y-134099675D01*
X92075597Y-133944337D01*
X92126727Y-133775784D01*
X92144010Y-133600304D01*
X92145175Y-133598678D01*
X92147165Y-133598874D01*
G37*
G36*
X136700990Y-133025304D02*
G01*
X136711067Y-133127625D01*
X136740858Y-133225831D01*
X136789234Y-133316336D01*
X136854336Y-133395664D01*
X136933664Y-133460766D01*
X137024169Y-133509142D01*
X137122375Y-133538933D01*
X137224696Y-133549010D01*
X137226322Y-133550175D01*
X137226126Y-133552165D01*
X137224500Y-133553000D01*
X137168140Y-133553000D01*
X137167944Y-133552990D01*
X137071594Y-133543501D01*
X137071209Y-133543425D01*
X136984469Y-133517112D01*
X136984107Y-133516962D01*
X136904168Y-133474234D01*
X136903842Y-133474016D01*
X136833769Y-133416508D01*
X136833492Y-133416231D01*
X136775984Y-133346158D01*
X136775766Y-133345832D01*
X136733038Y-133265893D01*
X136732888Y-133265531D01*
X136706575Y-133178791D01*
X136706499Y-133178406D01*
X136697010Y-133082056D01*
X136697000Y-133081860D01*
X136697000Y-133025500D01*
X136698000Y-133023768D01*
X136700000Y-133023768D01*
X136700990Y-133025304D01*
G37*
G36*
X199700990Y-133025304D02*
G01*
X199711067Y-133127625D01*
X199740858Y-133225831D01*
X199789234Y-133316336D01*
X199854336Y-133395664D01*
X199933664Y-133460766D01*
X200024169Y-133509142D01*
X200122375Y-133538933D01*
X200224696Y-133549010D01*
X200226322Y-133550175D01*
X200226126Y-133552165D01*
X200224500Y-133553000D01*
X200168140Y-133553000D01*
X200167944Y-133552990D01*
X200071594Y-133543501D01*
X200071209Y-133543425D01*
X199984469Y-133517112D01*
X199984107Y-133516962D01*
X199904168Y-133474234D01*
X199903842Y-133474016D01*
X199833769Y-133416508D01*
X199833492Y-133416231D01*
X199775984Y-133346158D01*
X199775766Y-133345832D01*
X199733038Y-133265893D01*
X199732888Y-133265531D01*
X199706575Y-133178791D01*
X199706499Y-133178406D01*
X199697010Y-133082056D01*
X199697000Y-133081860D01*
X199697000Y-133025500D01*
X199698000Y-133023768D01*
X199700000Y-133023768D01*
X199700990Y-133025304D01*
G37*
G36*
X201802165Y-133023874D02*
G01*
X201803000Y-133025500D01*
X201803000Y-133081860D01*
X201802990Y-133082056D01*
X201793501Y-133178406D01*
X201793425Y-133178791D01*
X201767112Y-133265531D01*
X201766962Y-133265893D01*
X201724234Y-133345832D01*
X201724016Y-133346158D01*
X201666508Y-133416231D01*
X201666231Y-133416508D01*
X201596158Y-133474016D01*
X201595832Y-133474234D01*
X201515893Y-133516962D01*
X201515531Y-133517112D01*
X201428791Y-133543425D01*
X201428406Y-133543501D01*
X201332056Y-133552990D01*
X201331860Y-133553000D01*
X201275500Y-133553000D01*
X201273768Y-133552000D01*
X201273768Y-133550000D01*
X201275304Y-133549010D01*
X201377625Y-133538933D01*
X201475831Y-133509142D01*
X201566336Y-133460766D01*
X201645664Y-133395664D01*
X201710766Y-133316336D01*
X201759142Y-133225831D01*
X201788933Y-133127625D01*
X201799010Y-133025304D01*
X201800175Y-133023678D01*
X201802165Y-133023874D01*
G37*
G36*
X138802165Y-133023874D02*
G01*
X138803000Y-133025500D01*
X138803000Y-133081860D01*
X138802990Y-133082056D01*
X138793501Y-133178406D01*
X138793425Y-133178791D01*
X138767112Y-133265531D01*
X138766962Y-133265893D01*
X138724234Y-133345832D01*
X138724016Y-133346158D01*
X138666508Y-133416231D01*
X138666231Y-133416508D01*
X138596158Y-133474016D01*
X138595832Y-133474234D01*
X138515893Y-133516962D01*
X138515531Y-133517112D01*
X138428791Y-133543425D01*
X138428406Y-133543501D01*
X138332056Y-133552990D01*
X138331860Y-133553000D01*
X138275500Y-133553000D01*
X138273768Y-133552000D01*
X138273768Y-133550000D01*
X138275304Y-133549010D01*
X138377625Y-133538933D01*
X138475831Y-133509142D01*
X138566336Y-133460766D01*
X138645664Y-133395664D01*
X138710766Y-133316336D01*
X138759142Y-133225831D01*
X138788933Y-133127625D01*
X138799010Y-133025304D01*
X138800175Y-133023678D01*
X138802165Y-133023874D01*
G37*
G36*
X200226232Y-131448000D02*
G01*
X200226232Y-131450000D01*
X200224696Y-131450990D01*
X200122375Y-131461067D01*
X200024169Y-131490858D01*
X199933664Y-131539234D01*
X199854336Y-131604336D01*
X199789234Y-131683664D01*
X199740858Y-131774169D01*
X199711067Y-131872375D01*
X199700990Y-131974696D01*
X199699825Y-131976322D01*
X199697835Y-131976126D01*
X199697000Y-131974500D01*
X199697000Y-131918140D01*
X199697010Y-131917944D01*
X199706499Y-131821594D01*
X199706575Y-131821209D01*
X199732888Y-131734469D01*
X199733038Y-131734107D01*
X199775766Y-131654168D01*
X199775984Y-131653842D01*
X199833492Y-131583769D01*
X199833769Y-131583492D01*
X199903842Y-131525984D01*
X199904168Y-131525766D01*
X199984107Y-131483038D01*
X199984469Y-131482888D01*
X200071209Y-131456575D01*
X200071594Y-131456499D01*
X200167944Y-131447010D01*
X200168140Y-131447000D01*
X200224500Y-131447000D01*
X200226232Y-131448000D01*
G37*
G36*
X137226232Y-131448000D02*
G01*
X137226232Y-131450000D01*
X137224696Y-131450990D01*
X137122375Y-131461067D01*
X137024169Y-131490858D01*
X136933664Y-131539234D01*
X136854336Y-131604336D01*
X136789234Y-131683664D01*
X136740858Y-131774169D01*
X136711067Y-131872375D01*
X136700990Y-131974696D01*
X136699825Y-131976322D01*
X136697835Y-131976126D01*
X136697000Y-131974500D01*
X136697000Y-131918140D01*
X136697010Y-131917944D01*
X136706499Y-131821594D01*
X136706575Y-131821209D01*
X136732888Y-131734469D01*
X136733038Y-131734107D01*
X136775766Y-131654168D01*
X136775984Y-131653842D01*
X136833492Y-131583769D01*
X136833769Y-131583492D01*
X136903842Y-131525984D01*
X136904168Y-131525766D01*
X136984107Y-131483038D01*
X136984469Y-131482888D01*
X137071209Y-131456575D01*
X137071594Y-131456499D01*
X137167944Y-131447010D01*
X137168140Y-131447000D01*
X137224500Y-131447000D01*
X137226232Y-131448000D01*
G37*
G36*
X201332056Y-131447010D02*
G01*
X201428406Y-131456499D01*
X201428791Y-131456575D01*
X201515531Y-131482888D01*
X201515893Y-131483038D01*
X201595832Y-131525766D01*
X201596158Y-131525984D01*
X201666231Y-131583492D01*
X201666508Y-131583769D01*
X201724016Y-131653842D01*
X201724234Y-131654168D01*
X201766962Y-131734107D01*
X201767112Y-131734469D01*
X201793425Y-131821209D01*
X201793501Y-131821594D01*
X201802990Y-131917944D01*
X201803000Y-131918140D01*
X201803000Y-131974500D01*
X201802000Y-131976232D01*
X201800000Y-131976232D01*
X201799010Y-131974696D01*
X201788933Y-131872375D01*
X201759142Y-131774169D01*
X201710766Y-131683664D01*
X201645664Y-131604336D01*
X201566336Y-131539234D01*
X201475831Y-131490858D01*
X201377625Y-131461067D01*
X201275304Y-131450990D01*
X201273678Y-131449825D01*
X201273874Y-131447835D01*
X201275500Y-131447000D01*
X201331860Y-131447000D01*
X201332056Y-131447010D01*
G37*
G36*
X138332056Y-131447010D02*
G01*
X138428406Y-131456499D01*
X138428791Y-131456575D01*
X138515531Y-131482888D01*
X138515893Y-131483038D01*
X138595832Y-131525766D01*
X138596158Y-131525984D01*
X138666231Y-131583492D01*
X138666508Y-131583769D01*
X138724016Y-131653842D01*
X138724234Y-131654168D01*
X138766962Y-131734107D01*
X138767112Y-131734469D01*
X138793425Y-131821209D01*
X138793501Y-131821594D01*
X138802990Y-131917944D01*
X138803000Y-131918140D01*
X138803000Y-131974500D01*
X138802000Y-131976232D01*
X138800000Y-131976232D01*
X138799010Y-131974696D01*
X138788933Y-131872375D01*
X138759142Y-131774169D01*
X138710766Y-131683664D01*
X138645664Y-131604336D01*
X138566336Y-131539234D01*
X138475831Y-131490858D01*
X138377625Y-131461067D01*
X138275304Y-131450990D01*
X138273678Y-131449825D01*
X138273874Y-131447835D01*
X138275500Y-131447000D01*
X138331860Y-131447000D01*
X138332056Y-131447010D01*
G37*
G36*
X89446232Y-130898000D02*
G01*
X89446232Y-130900000D01*
X89444696Y-130900990D01*
X89269216Y-130918273D01*
X89100663Y-130969403D01*
X88945325Y-131052433D01*
X88809171Y-131164171D01*
X88697433Y-131300325D01*
X88614403Y-131455663D01*
X88563273Y-131624216D01*
X88545990Y-131799696D01*
X88544825Y-131801322D01*
X88542835Y-131801126D01*
X88542000Y-131799500D01*
X88542000Y-131743140D01*
X88542010Y-131742944D01*
X88558705Y-131573438D01*
X88558781Y-131573053D01*
X88606435Y-131415959D01*
X88606585Y-131415597D01*
X88683967Y-131270826D01*
X88684185Y-131270500D01*
X88788326Y-131143603D01*
X88788603Y-131143326D01*
X88915500Y-131039185D01*
X88915826Y-131038967D01*
X89060597Y-130961585D01*
X89060959Y-130961435D01*
X89218053Y-130913781D01*
X89218438Y-130913705D01*
X89387944Y-130897010D01*
X89388140Y-130897000D01*
X89444500Y-130897000D01*
X89446232Y-130898000D01*
G37*
G36*
X91302056Y-130897010D02*
G01*
X91471562Y-130913705D01*
X91471947Y-130913781D01*
X91629041Y-130961435D01*
X91629403Y-130961585D01*
X91774174Y-131038967D01*
X91774500Y-131039185D01*
X91901397Y-131143326D01*
X91901674Y-131143603D01*
X92005815Y-131270500D01*
X92006033Y-131270826D01*
X92083415Y-131415597D01*
X92083565Y-131415959D01*
X92131219Y-131573053D01*
X92131295Y-131573438D01*
X92147990Y-131742944D01*
X92148000Y-131743140D01*
X92148000Y-131799500D01*
X92147000Y-131801232D01*
X92145000Y-131801232D01*
X92144010Y-131799696D01*
X92126727Y-131624216D01*
X92075597Y-131455663D01*
X91992567Y-131300325D01*
X91880829Y-131164171D01*
X91744675Y-131052433D01*
X91589337Y-130969403D01*
X91420784Y-130918273D01*
X91245304Y-130900990D01*
X91243678Y-130899825D01*
X91243874Y-130897835D01*
X91245500Y-130897000D01*
X91301860Y-130897000D01*
X91302056Y-130897010D01*
G37*
G36*
X85795990Y-129025304D02*
G01*
X85810871Y-129176398D01*
X85854888Y-129321502D01*
X85926366Y-129455229D01*
X86022560Y-129572440D01*
X86139771Y-129668634D01*
X86273498Y-129740112D01*
X86418602Y-129784129D01*
X86569696Y-129799010D01*
X86571322Y-129800175D01*
X86571126Y-129802165D01*
X86569500Y-129803000D01*
X86513140Y-129803000D01*
X86512944Y-129802990D01*
X86367825Y-129788697D01*
X86367440Y-129788621D01*
X86233794Y-129748080D01*
X86233432Y-129747930D01*
X86110273Y-129682100D01*
X86109947Y-129681882D01*
X86001991Y-129593286D01*
X86001714Y-129593009D01*
X85913118Y-129485053D01*
X85912900Y-129484727D01*
X85847070Y-129361568D01*
X85846920Y-129361206D01*
X85806379Y-129227560D01*
X85806303Y-129227175D01*
X85792010Y-129082056D01*
X85792000Y-129081860D01*
X85792000Y-129025500D01*
X85793000Y-129023768D01*
X85795000Y-129023768D01*
X85795990Y-129025304D01*
G37*
G36*
X88897165Y-129023874D02*
G01*
X88898000Y-129025500D01*
X88898000Y-129081860D01*
X88897990Y-129082056D01*
X88883697Y-129227175D01*
X88883621Y-129227560D01*
X88843080Y-129361206D01*
X88842930Y-129361568D01*
X88777100Y-129484727D01*
X88776882Y-129485053D01*
X88688286Y-129593009D01*
X88688009Y-129593286D01*
X88580053Y-129681882D01*
X88579727Y-129682100D01*
X88456568Y-129747930D01*
X88456206Y-129748080D01*
X88322560Y-129788621D01*
X88322175Y-129788697D01*
X88177056Y-129802990D01*
X88176860Y-129803000D01*
X88120500Y-129803000D01*
X88118768Y-129802000D01*
X88118768Y-129800000D01*
X88120304Y-129799010D01*
X88271398Y-129784129D01*
X88416502Y-129740112D01*
X88550229Y-129668634D01*
X88667440Y-129572440D01*
X88763634Y-129455229D01*
X88835112Y-129321502D01*
X88879129Y-129176398D01*
X88894010Y-129025304D01*
X88895175Y-129023678D01*
X88897165Y-129023874D01*
G37*
G36*
X86571232Y-126198000D02*
G01*
X86571232Y-126200000D01*
X86569696Y-126200990D01*
X86418602Y-126215871D01*
X86273498Y-126259888D01*
X86139771Y-126331366D01*
X86022560Y-126427560D01*
X85926366Y-126544771D01*
X85854888Y-126678498D01*
X85810871Y-126823602D01*
X85795990Y-126974696D01*
X85794825Y-126976322D01*
X85792835Y-126976126D01*
X85792000Y-126974500D01*
X85792000Y-126918140D01*
X85792010Y-126917944D01*
X85806303Y-126772825D01*
X85806379Y-126772440D01*
X85846920Y-126638794D01*
X85847070Y-126638432D01*
X85912900Y-126515273D01*
X85913118Y-126514947D01*
X86001714Y-126406991D01*
X86001991Y-126406714D01*
X86109947Y-126318118D01*
X86110273Y-126317900D01*
X86233432Y-126252070D01*
X86233794Y-126251920D01*
X86367440Y-126211379D01*
X86367825Y-126211303D01*
X86512944Y-126197010D01*
X86513140Y-126197000D01*
X86569500Y-126197000D01*
X86571232Y-126198000D01*
G37*
G36*
X88177056Y-126197010D02*
G01*
X88322175Y-126211303D01*
X88322560Y-126211379D01*
X88456206Y-126251920D01*
X88456568Y-126252070D01*
X88579727Y-126317900D01*
X88580053Y-126318118D01*
X88688009Y-126406714D01*
X88688286Y-126406991D01*
X88776882Y-126514947D01*
X88777100Y-126515273D01*
X88842930Y-126638432D01*
X88843080Y-126638794D01*
X88883621Y-126772440D01*
X88883697Y-126772825D01*
X88897990Y-126917944D01*
X88898000Y-126918140D01*
X88898000Y-126974500D01*
X88897000Y-126976232D01*
X88895000Y-126976232D01*
X88894010Y-126974696D01*
X88879129Y-126823602D01*
X88835112Y-126678498D01*
X88763634Y-126544771D01*
X88667440Y-126427560D01*
X88550229Y-126331366D01*
X88416502Y-126259888D01*
X88271398Y-126215871D01*
X88120304Y-126200990D01*
X88118678Y-126199825D01*
X88118874Y-126197835D01*
X88120500Y-126197000D01*
X88176860Y-126197000D01*
X88177056Y-126197010D01*
G37*
G36*
X98825990Y-113992559D02*
G01*
X98831028Y-114043717D01*
X98845895Y-114092726D01*
X98870036Y-114137890D01*
X98902524Y-114177476D01*
X98942110Y-114209964D01*
X98987274Y-114234105D01*
X99036283Y-114248972D01*
X99087441Y-114254010D01*
X99089067Y-114255175D01*
X99088871Y-114257165D01*
X99087245Y-114258000D01*
X99000853Y-114258000D01*
X99000657Y-114257990D01*
X98961329Y-114254117D01*
X98960944Y-114254041D01*
X98929036Y-114244361D01*
X98928674Y-114244211D01*
X98899262Y-114228490D01*
X98898936Y-114228272D01*
X98873159Y-114207118D01*
X98872882Y-114206841D01*
X98851728Y-114181064D01*
X98851510Y-114180738D01*
X98835789Y-114151326D01*
X98835639Y-114150964D01*
X98825959Y-114119056D01*
X98825883Y-114118671D01*
X98822010Y-114079343D01*
X98822000Y-114079147D01*
X98822000Y-113992755D01*
X98823000Y-113991023D01*
X98825000Y-113991023D01*
X98825990Y-113992559D01*
G37*
G36*
X104377165Y-113991129D02*
G01*
X104378000Y-113992755D01*
X104378000Y-114079147D01*
X104377990Y-114079343D01*
X104374117Y-114118671D01*
X104374041Y-114119056D01*
X104364361Y-114150964D01*
X104364211Y-114151326D01*
X104348490Y-114180738D01*
X104348272Y-114181064D01*
X104327118Y-114206841D01*
X104326841Y-114207118D01*
X104301064Y-114228272D01*
X104300738Y-114228490D01*
X104271326Y-114244211D01*
X104270964Y-114244361D01*
X104239056Y-114254041D01*
X104238671Y-114254117D01*
X104199343Y-114257990D01*
X104199147Y-114258000D01*
X104112755Y-114258000D01*
X104111023Y-114257000D01*
X104111023Y-114255000D01*
X104112559Y-114254010D01*
X104163717Y-114248972D01*
X104212726Y-114234105D01*
X104257890Y-114209964D01*
X104297476Y-114177476D01*
X104329964Y-114137890D01*
X104354105Y-114092726D01*
X104368972Y-114043717D01*
X104374010Y-113992559D01*
X104375175Y-113990933D01*
X104377165Y-113991129D01*
G37*
G36*
X99088977Y-112228000D02*
G01*
X99088977Y-112230000D01*
X99087441Y-112230990D01*
X99036283Y-112236028D01*
X98987274Y-112250895D01*
X98942110Y-112275036D01*
X98902524Y-112307524D01*
X98870036Y-112347110D01*
X98845895Y-112392274D01*
X98831028Y-112441283D01*
X98825990Y-112492441D01*
X98824825Y-112494067D01*
X98822835Y-112493871D01*
X98822000Y-112492245D01*
X98822000Y-112405853D01*
X98822010Y-112405657D01*
X98825883Y-112366329D01*
X98825959Y-112365944D01*
X98835639Y-112334036D01*
X98835789Y-112333674D01*
X98851510Y-112304262D01*
X98851728Y-112303936D01*
X98872882Y-112278159D01*
X98873159Y-112277882D01*
X98898936Y-112256728D01*
X98899262Y-112256510D01*
X98928674Y-112240789D01*
X98929036Y-112240639D01*
X98960944Y-112230959D01*
X98961329Y-112230883D01*
X99000657Y-112227010D01*
X99000853Y-112227000D01*
X99087245Y-112227000D01*
X99088977Y-112228000D01*
G37*
G36*
X104199343Y-112227010D02*
G01*
X104238671Y-112230883D01*
X104239056Y-112230959D01*
X104270964Y-112240639D01*
X104271326Y-112240789D01*
X104300738Y-112256510D01*
X104301064Y-112256728D01*
X104326841Y-112277882D01*
X104327118Y-112278159D01*
X104348272Y-112303936D01*
X104348490Y-112304262D01*
X104364211Y-112333674D01*
X104364361Y-112334036D01*
X104374041Y-112365944D01*
X104374117Y-112366329D01*
X104377990Y-112405657D01*
X104378000Y-112405853D01*
X104378000Y-112492245D01*
X104377000Y-112493977D01*
X104375000Y-112493977D01*
X104374010Y-112492441D01*
X104368972Y-112441283D01*
X104354105Y-112392274D01*
X104329964Y-112347110D01*
X104297476Y-112307524D01*
X104257890Y-112275036D01*
X104212726Y-112250895D01*
X104163717Y-112236028D01*
X104112559Y-112230990D01*
X104110933Y-112229825D01*
X104111129Y-112227835D01*
X104112755Y-112227000D01*
X104199147Y-112227000D01*
X104199343Y-112227010D01*
G37*
G36*
X104377165Y-107216129D02*
G01*
X104378000Y-107217755D01*
X104378000Y-107304147D01*
X104377990Y-107304343D01*
X104374117Y-107343671D01*
X104374041Y-107344056D01*
X104364361Y-107375964D01*
X104364211Y-107376326D01*
X104348490Y-107405738D01*
X104348272Y-107406064D01*
X104327118Y-107431841D01*
X104326841Y-107432118D01*
X104301064Y-107453272D01*
X104300738Y-107453490D01*
X104271326Y-107469211D01*
X104270964Y-107469361D01*
X104239056Y-107479041D01*
X104238671Y-107479117D01*
X104199343Y-107482990D01*
X104199147Y-107483000D01*
X104112755Y-107483000D01*
X104111023Y-107482000D01*
X104111023Y-107480000D01*
X104112559Y-107479010D01*
X104163717Y-107473972D01*
X104212726Y-107459105D01*
X104257890Y-107434964D01*
X104297476Y-107402476D01*
X104329964Y-107362890D01*
X104354105Y-107317726D01*
X104368972Y-107268717D01*
X104374010Y-107217559D01*
X104375175Y-107215933D01*
X104377165Y-107216129D01*
G37*
G36*
X98825990Y-107217559D02*
G01*
X98831028Y-107268717D01*
X98845895Y-107317726D01*
X98870036Y-107362890D01*
X98902524Y-107402476D01*
X98942110Y-107434964D01*
X98987274Y-107459105D01*
X99036283Y-107473972D01*
X99087441Y-107479010D01*
X99089067Y-107480175D01*
X99088871Y-107482165D01*
X99087245Y-107483000D01*
X99000853Y-107483000D01*
X99000657Y-107482990D01*
X98961329Y-107479117D01*
X98960944Y-107479041D01*
X98929036Y-107469361D01*
X98928674Y-107469211D01*
X98899262Y-107453490D01*
X98898936Y-107453272D01*
X98873159Y-107432118D01*
X98872882Y-107431841D01*
X98851728Y-107406064D01*
X98851510Y-107405738D01*
X98835789Y-107376326D01*
X98835639Y-107375964D01*
X98825959Y-107344056D01*
X98825883Y-107343671D01*
X98822010Y-107304343D01*
X98822000Y-107304147D01*
X98822000Y-107217755D01*
X98823000Y-107216023D01*
X98825000Y-107216023D01*
X98825990Y-107217559D01*
G37*
G36*
X99088977Y-105453000D02*
G01*
X99088977Y-105455000D01*
X99087441Y-105455990D01*
X99036283Y-105461028D01*
X98987274Y-105475895D01*
X98942110Y-105500036D01*
X98902524Y-105532524D01*
X98870036Y-105572110D01*
X98845895Y-105617274D01*
X98831028Y-105666283D01*
X98825990Y-105717441D01*
X98824825Y-105719067D01*
X98822835Y-105718871D01*
X98822000Y-105717245D01*
X98822000Y-105630853D01*
X98822010Y-105630657D01*
X98825883Y-105591329D01*
X98825959Y-105590944D01*
X98835639Y-105559036D01*
X98835789Y-105558674D01*
X98851510Y-105529262D01*
X98851728Y-105528936D01*
X98872882Y-105503159D01*
X98873159Y-105502882D01*
X98898936Y-105481728D01*
X98899262Y-105481510D01*
X98928674Y-105465789D01*
X98929036Y-105465639D01*
X98960944Y-105455959D01*
X98961329Y-105455883D01*
X99000657Y-105452010D01*
X99000853Y-105452000D01*
X99087245Y-105452000D01*
X99088977Y-105453000D01*
G37*
G36*
X104199343Y-105452010D02*
G01*
X104238671Y-105455883D01*
X104239056Y-105455959D01*
X104270964Y-105465639D01*
X104271326Y-105465789D01*
X104300738Y-105481510D01*
X104301064Y-105481728D01*
X104326841Y-105502882D01*
X104327118Y-105503159D01*
X104348272Y-105528936D01*
X104348490Y-105529262D01*
X104364211Y-105558674D01*
X104364361Y-105559036D01*
X104374041Y-105590944D01*
X104374117Y-105591329D01*
X104377990Y-105630657D01*
X104378000Y-105630853D01*
X104378000Y-105717245D01*
X104377000Y-105718977D01*
X104375000Y-105718977D01*
X104374010Y-105717441D01*
X104368972Y-105666283D01*
X104354105Y-105617274D01*
X104329964Y-105572110D01*
X104297476Y-105532524D01*
X104257890Y-105500036D01*
X104212726Y-105475895D01*
X104163717Y-105461028D01*
X104112559Y-105455990D01*
X104110933Y-105454825D01*
X104111129Y-105452835D01*
X104112755Y-105452000D01*
X104199147Y-105452000D01*
X104199343Y-105452010D01*
G37*
G36*
X86855333Y-88792097D02*
G01*
X86861252Y-88795261D01*
X86870445Y-88798050D01*
X86880094Y-88799000D01*
X88379906Y-88799000D01*
X88389555Y-88798050D01*
X88398748Y-88795261D01*
X88404671Y-88792095D01*
X88406670Y-88792161D01*
X88407613Y-88793924D01*
X88406883Y-88795405D01*
X88405751Y-88796334D01*
X88405593Y-88796451D01*
X88392904Y-88804929D01*
X88375857Y-88821976D01*
X88362462Y-88842024D01*
X88353236Y-88864298D01*
X88348532Y-88887948D01*
X88348532Y-88912054D01*
X88353237Y-88935704D01*
X88362463Y-88957978D01*
X88375858Y-88978025D01*
X88392905Y-88995072D01*
X88405593Y-89003550D01*
X88405751Y-89003667D01*
X88406879Y-89004593D01*
X88407583Y-89006465D01*
X88406314Y-89008011D01*
X88404667Y-89007903D01*
X88398748Y-89004739D01*
X88389555Y-89001950D01*
X88379906Y-89001000D01*
X86880094Y-89001000D01*
X86870445Y-89001950D01*
X86861252Y-89004739D01*
X86855329Y-89007905D01*
X86853330Y-89007839D01*
X86852387Y-89006076D01*
X86853117Y-89004595D01*
X86854249Y-89003666D01*
X86854407Y-89003549D01*
X86867096Y-88995071D01*
X86884143Y-88978024D01*
X86897538Y-88957976D01*
X86906764Y-88935702D01*
X86911468Y-88912052D01*
X86911468Y-88887946D01*
X86906763Y-88864296D01*
X86897537Y-88842022D01*
X86884142Y-88821975D01*
X86867095Y-88804928D01*
X86854407Y-88796450D01*
X86854249Y-88796333D01*
X86853121Y-88795407D01*
X86852417Y-88793535D01*
X86853686Y-88791989D01*
X86855333Y-88792097D01*
G37*
G36*
X180200333Y-83077097D02*
G01*
X180206252Y-83080261D01*
X180215445Y-83083050D01*
X180225094Y-83084000D01*
X181724906Y-83084000D01*
X181734555Y-83083050D01*
X181743748Y-83080261D01*
X181749671Y-83077095D01*
X181751670Y-83077161D01*
X181752613Y-83078924D01*
X181751883Y-83080405D01*
X181750751Y-83081334D01*
X181750593Y-83081451D01*
X181737904Y-83089929D01*
X181720857Y-83106976D01*
X181707462Y-83127024D01*
X181698236Y-83149298D01*
X181693532Y-83172948D01*
X181693532Y-83197054D01*
X181698237Y-83220704D01*
X181707463Y-83242978D01*
X181720858Y-83263025D01*
X181737905Y-83280072D01*
X181750593Y-83288550D01*
X181750751Y-83288667D01*
X181751879Y-83289593D01*
X181752583Y-83291465D01*
X181751314Y-83293011D01*
X181749667Y-83292903D01*
X181743748Y-83289739D01*
X181734555Y-83286950D01*
X181724906Y-83286000D01*
X180225094Y-83286000D01*
X180215445Y-83286950D01*
X180206252Y-83289739D01*
X180200329Y-83292905D01*
X180198330Y-83292839D01*
X180197387Y-83291076D01*
X180198117Y-83289595D01*
X180199249Y-83288666D01*
X180199407Y-83288549D01*
X180212096Y-83280071D01*
X180229143Y-83263024D01*
X180242538Y-83242976D01*
X180251764Y-83220702D01*
X180256468Y-83197052D01*
X180256468Y-83172946D01*
X180251763Y-83149296D01*
X180242537Y-83127022D01*
X180229142Y-83106975D01*
X180212095Y-83089928D01*
X180199407Y-83081450D01*
X180199249Y-83081333D01*
X180198121Y-83080407D01*
X180197417Y-83078535D01*
X180198686Y-83076989D01*
X180200333Y-83077097D01*
G37*
G36*
X184010333Y-83077097D02*
G01*
X184016252Y-83080261D01*
X184025445Y-83083050D01*
X184035094Y-83084000D01*
X185534906Y-83084000D01*
X185544555Y-83083050D01*
X185553748Y-83080261D01*
X185559671Y-83077095D01*
X185561670Y-83077161D01*
X185562613Y-83078924D01*
X185561883Y-83080405D01*
X185560751Y-83081334D01*
X185560593Y-83081451D01*
X185547904Y-83089929D01*
X185530857Y-83106976D01*
X185517462Y-83127024D01*
X185508236Y-83149298D01*
X185503532Y-83172948D01*
X185503532Y-83197054D01*
X185508237Y-83220704D01*
X185517463Y-83242978D01*
X185530858Y-83263025D01*
X185547905Y-83280072D01*
X185560593Y-83288550D01*
X185560751Y-83288667D01*
X185561879Y-83289593D01*
X185562583Y-83291465D01*
X185561314Y-83293011D01*
X185559667Y-83292903D01*
X185553748Y-83289739D01*
X185544555Y-83286950D01*
X185534906Y-83286000D01*
X184035094Y-83286000D01*
X184025445Y-83286950D01*
X184016252Y-83289739D01*
X184010329Y-83292905D01*
X184008330Y-83292839D01*
X184007387Y-83291076D01*
X184008117Y-83289595D01*
X184009249Y-83288666D01*
X184009407Y-83288549D01*
X184022096Y-83280071D01*
X184039143Y-83263024D01*
X184052538Y-83242976D01*
X184061764Y-83220702D01*
X184066468Y-83197052D01*
X184066468Y-83172946D01*
X184061763Y-83149296D01*
X184052537Y-83127022D01*
X184039142Y-83106975D01*
X184022095Y-83089928D01*
X184009407Y-83081450D01*
X184009249Y-83081333D01*
X184008121Y-83080407D01*
X184007417Y-83078535D01*
X184008686Y-83076989D01*
X184010333Y-83077097D01*
G37*
G36*
X163362732Y-78020000D02*
G01*
X163363000Y-78021000D01*
X163363000Y-78084252D01*
X163362764Y-78085195D01*
X163355421Y-78098933D01*
X163348421Y-78122008D01*
X163346058Y-78145999D01*
X163348421Y-78169990D01*
X163355478Y-78193253D01*
X163355024Y-78195201D01*
X163353110Y-78195782D01*
X163351800Y-78194777D01*
X163350734Y-78192782D01*
X163344641Y-78185359D01*
X163337218Y-78179266D01*
X163328748Y-78174739D01*
X163319555Y-78171950D01*
X163309906Y-78171000D01*
X161810094Y-78171000D01*
X161800445Y-78171950D01*
X161791252Y-78174739D01*
X161782782Y-78179266D01*
X161775359Y-78185359D01*
X161769266Y-78192782D01*
X161766100Y-78198707D01*
X161764402Y-78199763D01*
X161762638Y-78198820D01*
X161762422Y-78197184D01*
X161762912Y-78195567D01*
X161762978Y-78195382D01*
X161768644Y-78181703D01*
X161773349Y-78158053D01*
X161773349Y-78133946D01*
X161768645Y-78110296D01*
X161759419Y-78088022D01*
X161757337Y-78084906D01*
X161757000Y-78083795D01*
X161757000Y-78021000D01*
X161758000Y-78019268D01*
X161759000Y-78019000D01*
X163361000Y-78019000D01*
X163362732Y-78020000D01*
G37*
G36*
X158610333Y-76727097D02*
G01*
X158616252Y-76730261D01*
X158625445Y-76733050D01*
X158635094Y-76734000D01*
X160134906Y-76734000D01*
X160144555Y-76733050D01*
X160153748Y-76730261D01*
X160159671Y-76727095D01*
X160161670Y-76727161D01*
X160162613Y-76728924D01*
X160161883Y-76730405D01*
X160160751Y-76731334D01*
X160160593Y-76731451D01*
X160147904Y-76739929D01*
X160130857Y-76756976D01*
X160117462Y-76777024D01*
X160108236Y-76799298D01*
X160103532Y-76822948D01*
X160103532Y-76847054D01*
X160108237Y-76870704D01*
X160117463Y-76892978D01*
X160130858Y-76913025D01*
X160147905Y-76930072D01*
X160160593Y-76938550D01*
X160160751Y-76938667D01*
X160161879Y-76939593D01*
X160162583Y-76941465D01*
X160161314Y-76943011D01*
X160159667Y-76942903D01*
X160153748Y-76939739D01*
X160144555Y-76936950D01*
X160134906Y-76936000D01*
X158635094Y-76936000D01*
X158625445Y-76936950D01*
X158616252Y-76939739D01*
X158610329Y-76942905D01*
X158608330Y-76942839D01*
X158607387Y-76941076D01*
X158608117Y-76939595D01*
X158609249Y-76938666D01*
X158609407Y-76938549D01*
X158622096Y-76930071D01*
X158639143Y-76913024D01*
X158652538Y-76892976D01*
X158661764Y-76870702D01*
X158666468Y-76847052D01*
X158666468Y-76822946D01*
X158661763Y-76799296D01*
X158652537Y-76777022D01*
X158639142Y-76756975D01*
X158622095Y-76739928D01*
X158609407Y-76731450D01*
X158609249Y-76731333D01*
X158608121Y-76730407D01*
X158607417Y-76728535D01*
X158608686Y-76726989D01*
X158610333Y-76727097D01*
G37*
G36*
X163357362Y-76741180D02*
G01*
X163357578Y-76742816D01*
X163357088Y-76744433D01*
X163357022Y-76744618D01*
X163351356Y-76758297D01*
X163346651Y-76781947D01*
X163346651Y-76806054D01*
X163351355Y-76829704D01*
X163360581Y-76851978D01*
X163362663Y-76855094D01*
X163363000Y-76856205D01*
X163363000Y-76919000D01*
X163362000Y-76920732D01*
X163361000Y-76921000D01*
X161759000Y-76921000D01*
X161757268Y-76920000D01*
X161757000Y-76919000D01*
X161757000Y-76855748D01*
X161757236Y-76854805D01*
X161764579Y-76841067D01*
X161771579Y-76817992D01*
X161773942Y-76794001D01*
X161771579Y-76770010D01*
X161764522Y-76746747D01*
X161764976Y-76744799D01*
X161766890Y-76744218D01*
X161768200Y-76745223D01*
X161769266Y-76747218D01*
X161775359Y-76754641D01*
X161782782Y-76760734D01*
X161791252Y-76765261D01*
X161800445Y-76768050D01*
X161810094Y-76769000D01*
X163309906Y-76769000D01*
X163319555Y-76768050D01*
X163328748Y-76765261D01*
X163337218Y-76760734D01*
X163344641Y-76754641D01*
X163350734Y-76747218D01*
X163353900Y-76741293D01*
X163355598Y-76740237D01*
X163357362Y-76741180D01*
G37*
G36*
X92795732Y-68413000D02*
G01*
X92796000Y-68414000D01*
X92796000Y-70016000D01*
X92795000Y-70017732D01*
X92794000Y-70018000D01*
X92730748Y-70018000D01*
X92729805Y-70017764D01*
X92716067Y-70010421D01*
X92692992Y-70003421D01*
X92669001Y-70001058D01*
X92645010Y-70003421D01*
X92621746Y-70010478D01*
X92619798Y-70010024D01*
X92619217Y-70008110D01*
X92620222Y-70006800D01*
X92622218Y-70005733D01*
X92629641Y-69999641D01*
X92635734Y-69992218D01*
X92640261Y-69983748D01*
X92643050Y-69974555D01*
X92644000Y-69964906D01*
X92644000Y-68465094D01*
X92643050Y-68455445D01*
X92640261Y-68446252D01*
X92635734Y-68437782D01*
X92629641Y-68430359D01*
X92622218Y-68424266D01*
X92616293Y-68421100D01*
X92615237Y-68419402D01*
X92616180Y-68417638D01*
X92617816Y-68417422D01*
X92619433Y-68417912D01*
X92619618Y-68417978D01*
X92633297Y-68423644D01*
X92656947Y-68428349D01*
X92681054Y-68428349D01*
X92704704Y-68423645D01*
X92726978Y-68414419D01*
X92730094Y-68412337D01*
X92731205Y-68412000D01*
X92794000Y-68412000D01*
X92795732Y-68413000D01*
G37*
G36*
X93960195Y-68412236D02*
G01*
X93973933Y-68419579D01*
X93997008Y-68426579D01*
X94020999Y-68428942D01*
X94044990Y-68426579D01*
X94068253Y-68419522D01*
X94070201Y-68419976D01*
X94070782Y-68421890D01*
X94069777Y-68423200D01*
X94067782Y-68424266D01*
X94060359Y-68430359D01*
X94054266Y-68437782D01*
X94049739Y-68446252D01*
X94046950Y-68455445D01*
X94046000Y-68465094D01*
X94046000Y-69964906D01*
X94046950Y-69974555D01*
X94049739Y-69983748D01*
X94054266Y-69992218D01*
X94060359Y-69999641D01*
X94067782Y-70005734D01*
X94073707Y-70008900D01*
X94074763Y-70010598D01*
X94073820Y-70012362D01*
X94072184Y-70012578D01*
X94070567Y-70012088D01*
X94070382Y-70012022D01*
X94056703Y-70006356D01*
X94033053Y-70001651D01*
X94008946Y-70001651D01*
X93985296Y-70006355D01*
X93963022Y-70015581D01*
X93959906Y-70017663D01*
X93958795Y-70018000D01*
X93896000Y-70018000D01*
X93894268Y-70017000D01*
X93894000Y-70016000D01*
X93894000Y-68414000D01*
X93895000Y-68412268D01*
X93896000Y-68412000D01*
X93959252Y-68412000D01*
X93960195Y-68412236D01*
G37*
G36*
X88795405Y-68438117D02*
G01*
X88796334Y-68439249D01*
X88796451Y-68439407D01*
X88804929Y-68452096D01*
X88821976Y-68469143D01*
X88842024Y-68482538D01*
X88864298Y-68491764D01*
X88887948Y-68496468D01*
X88912054Y-68496468D01*
X88935704Y-68491763D01*
X88957978Y-68482537D01*
X88978025Y-68469142D01*
X88995072Y-68452095D01*
X89003550Y-68439407D01*
X89003667Y-68439249D01*
X89004593Y-68438121D01*
X89006465Y-68437417D01*
X89008011Y-68438686D01*
X89007903Y-68440333D01*
X89004739Y-68446252D01*
X89001950Y-68455445D01*
X89001000Y-68465094D01*
X89001000Y-69964906D01*
X89001950Y-69974555D01*
X89004739Y-69983748D01*
X89007905Y-69989671D01*
X89007839Y-69991670D01*
X89006076Y-69992613D01*
X89004595Y-69991883D01*
X89003666Y-69990751D01*
X89003549Y-69990593D01*
X88995071Y-69977904D01*
X88978024Y-69960857D01*
X88957976Y-69947462D01*
X88935702Y-69938236D01*
X88912052Y-69933532D01*
X88887946Y-69933532D01*
X88864296Y-69938237D01*
X88842022Y-69947463D01*
X88821975Y-69960858D01*
X88804928Y-69977905D01*
X88796450Y-69990593D01*
X88796333Y-69990751D01*
X88795407Y-69991879D01*
X88793535Y-69992583D01*
X88791989Y-69991314D01*
X88792097Y-69989667D01*
X88795261Y-69983748D01*
X88798050Y-69974555D01*
X88799000Y-69964906D01*
X88799000Y-68465094D01*
X88798050Y-68455445D01*
X88795261Y-68446252D01*
X88792095Y-68440329D01*
X88792161Y-68438330D01*
X88793924Y-68437387D01*
X88795405Y-68438117D01*
G37*
G36*
X197725333Y-69392097D02*
G01*
X197731252Y-69395261D01*
X197740445Y-69398050D01*
X197750094Y-69399000D01*
X199249906Y-69399000D01*
X199259555Y-69398050D01*
X199268748Y-69395261D01*
X199274671Y-69392095D01*
X199276670Y-69392161D01*
X199277613Y-69393924D01*
X199276883Y-69395405D01*
X199275751Y-69396334D01*
X199275593Y-69396451D01*
X199262904Y-69404929D01*
X199245857Y-69421976D01*
X199232462Y-69442024D01*
X199223236Y-69464298D01*
X199218532Y-69487948D01*
X199218532Y-69512054D01*
X199223237Y-69535704D01*
X199232463Y-69557978D01*
X199245858Y-69578025D01*
X199262905Y-69595072D01*
X199275593Y-69603550D01*
X199275751Y-69603667D01*
X199276879Y-69604593D01*
X199277583Y-69606465D01*
X199276314Y-69608011D01*
X199274667Y-69607903D01*
X199268748Y-69604739D01*
X199259555Y-69601950D01*
X199249906Y-69601000D01*
X197750094Y-69601000D01*
X197740445Y-69601950D01*
X197731252Y-69604739D01*
X197725329Y-69607905D01*
X197723330Y-69607839D01*
X197722387Y-69606076D01*
X197723117Y-69604595D01*
X197724249Y-69603666D01*
X197724407Y-69603549D01*
X197737096Y-69595071D01*
X197754143Y-69578024D01*
X197767538Y-69557976D01*
X197776764Y-69535702D01*
X197781468Y-69512052D01*
X197781468Y-69487946D01*
X197776763Y-69464296D01*
X197767537Y-69442022D01*
X197754142Y-69421975D01*
X197737095Y-69404928D01*
X197724407Y-69396450D01*
X197724249Y-69396333D01*
X197723121Y-69395407D01*
X197722417Y-69393535D01*
X197723686Y-69391989D01*
X197725333Y-69392097D01*
G37*
G36*
X199352732Y-59050000D02*
G01*
X199353000Y-59051000D01*
X199353000Y-59081079D01*
X199355372Y-59105164D01*
X199362358Y-59128194D01*
X199381009Y-59159312D01*
X199392479Y-59173288D01*
X199392697Y-59173614D01*
X199397886Y-59183322D01*
X199398036Y-59183684D01*
X199401231Y-59194217D01*
X199401307Y-59194602D01*
X199402990Y-59211692D01*
X199403000Y-59211888D01*
X199403000Y-59268250D01*
X199402000Y-59269982D01*
X199400000Y-59269982D01*
X199399010Y-59268446D01*
X199396739Y-59245380D01*
X199390066Y-59223384D01*
X199379232Y-59203114D01*
X199364651Y-59185349D01*
X199346886Y-59170768D01*
X199326616Y-59159934D01*
X199304620Y-59153261D01*
X199281656Y-59151000D01*
X199018344Y-59151000D01*
X198995380Y-59153261D01*
X198973384Y-59159934D01*
X198953114Y-59170768D01*
X198935349Y-59185349D01*
X198920768Y-59203114D01*
X198909934Y-59223384D01*
X198903261Y-59245380D01*
X198901000Y-59268344D01*
X198901000Y-59506656D01*
X198903261Y-59529620D01*
X198909934Y-59551616D01*
X198920768Y-59571886D01*
X198935349Y-59589651D01*
X198953114Y-59604232D01*
X198973384Y-59615066D01*
X198995380Y-59621739D01*
X199018446Y-59624010D01*
X199020072Y-59625175D01*
X199019876Y-59627165D01*
X199018250Y-59628000D01*
X198961888Y-59628000D01*
X198961692Y-59627990D01*
X198944602Y-59626307D01*
X198944217Y-59626231D01*
X198933684Y-59623036D01*
X198933322Y-59622886D01*
X198923614Y-59617696D01*
X198923288Y-59617478D01*
X198907982Y-59604917D01*
X198907837Y-59604785D01*
X198903022Y-59599971D01*
X198882974Y-59586576D01*
X198860700Y-59577351D01*
X198837050Y-59572647D01*
X198812944Y-59572647D01*
X198789294Y-59577352D01*
X198767020Y-59586579D01*
X198746973Y-59599974D01*
X198742155Y-59604792D01*
X198742010Y-59604924D01*
X198726712Y-59617478D01*
X198726386Y-59617696D01*
X198716678Y-59622886D01*
X198716316Y-59623036D01*
X198705783Y-59626231D01*
X198705398Y-59626307D01*
X198688308Y-59627990D01*
X198688112Y-59628000D01*
X198631750Y-59628000D01*
X198630018Y-59627000D01*
X198630018Y-59625000D01*
X198631554Y-59624010D01*
X198654620Y-59621739D01*
X198676616Y-59615066D01*
X198696886Y-59604232D01*
X198714651Y-59589651D01*
X198729232Y-59571886D01*
X198740066Y-59551616D01*
X198746739Y-59529620D01*
X198749000Y-59506656D01*
X198749000Y-59268344D01*
X198746739Y-59245380D01*
X198740066Y-59223384D01*
X198729232Y-59203114D01*
X198714651Y-59185349D01*
X198696886Y-59170768D01*
X198676616Y-59159934D01*
X198654620Y-59153261D01*
X198631656Y-59151000D01*
X198368344Y-59151000D01*
X198345380Y-59153261D01*
X198323384Y-59159934D01*
X198303114Y-59170768D01*
X198285349Y-59185349D01*
X198270768Y-59203114D01*
X198259934Y-59223384D01*
X198253261Y-59245380D01*
X198251000Y-59268344D01*
X198251000Y-59506656D01*
X198253261Y-59529620D01*
X198259934Y-59551616D01*
X198270768Y-59571886D01*
X198285349Y-59589651D01*
X198303114Y-59604232D01*
X198323384Y-59615066D01*
X198345380Y-59621739D01*
X198368446Y-59624010D01*
X198370072Y-59625175D01*
X198369876Y-59627165D01*
X198368250Y-59628000D01*
X198311888Y-59628000D01*
X198311692Y-59627990D01*
X198294602Y-59626307D01*
X198294217Y-59626231D01*
X198283684Y-59623036D01*
X198283322Y-59622886D01*
X198273614Y-59617696D01*
X198273288Y-59617478D01*
X198257982Y-59604917D01*
X198257837Y-59604785D01*
X198253022Y-59599971D01*
X198232974Y-59586576D01*
X198210700Y-59577351D01*
X198187050Y-59572647D01*
X198162944Y-59572647D01*
X198139294Y-59577352D01*
X198117020Y-59586579D01*
X198096973Y-59599974D01*
X198092155Y-59604792D01*
X198092010Y-59604924D01*
X198076712Y-59617478D01*
X198076386Y-59617696D01*
X198066678Y-59622886D01*
X198066316Y-59623036D01*
X198055783Y-59626231D01*
X198055398Y-59626307D01*
X198038308Y-59627990D01*
X198038112Y-59628000D01*
X197981750Y-59628000D01*
X197980018Y-59627000D01*
X197980018Y-59625000D01*
X197981554Y-59624010D01*
X198004620Y-59621739D01*
X198026616Y-59615066D01*
X198046886Y-59604232D01*
X198064651Y-59589651D01*
X198079232Y-59571886D01*
X198090066Y-59551616D01*
X198096739Y-59529620D01*
X198099000Y-59506656D01*
X198099000Y-59268344D01*
X198096739Y-59245380D01*
X198090066Y-59223384D01*
X198079232Y-59203114D01*
X198064651Y-59185349D01*
X198046886Y-59170768D01*
X198026616Y-59159934D01*
X198004620Y-59153261D01*
X197981656Y-59151000D01*
X197718344Y-59151000D01*
X197695380Y-59153261D01*
X197673384Y-59159934D01*
X197653114Y-59170768D01*
X197635349Y-59185349D01*
X197620768Y-59203114D01*
X197609934Y-59223384D01*
X197603261Y-59245380D01*
X197600990Y-59268446D01*
X197599825Y-59270072D01*
X197597835Y-59269876D01*
X197597000Y-59268250D01*
X197597000Y-59211888D01*
X197597010Y-59211692D01*
X197598693Y-59194602D01*
X197598769Y-59194217D01*
X197601964Y-59183684D01*
X197602114Y-59183322D01*
X197607303Y-59173614D01*
X197607521Y-59173288D01*
X197619020Y-59159276D01*
X197632468Y-59139149D01*
X197641677Y-59116918D01*
X197647000Y-59081028D01*
X197647000Y-59051000D01*
X197648000Y-59049268D01*
X197649000Y-59049000D01*
X199351000Y-59049000D01*
X199352732Y-59050000D01*
G37*
G36*
X179176990Y-57520805D02*
G01*
X179179372Y-57544992D01*
X179186372Y-57568067D01*
X179197737Y-57589331D01*
X179213032Y-57607968D01*
X179231669Y-57623263D01*
X179252933Y-57634628D01*
X179276008Y-57641628D01*
X179300195Y-57644010D01*
X179301821Y-57645175D01*
X179301625Y-57647165D01*
X179299999Y-57648000D01*
X179285000Y-57648000D01*
X179285000Y-59446000D01*
X179299999Y-59446000D01*
X179301731Y-59447000D01*
X179301731Y-59449000D01*
X179300195Y-59449990D01*
X179276008Y-59452372D01*
X179252933Y-59459372D01*
X179231669Y-59470737D01*
X179213032Y-59486032D01*
X179197737Y-59504669D01*
X179186372Y-59525933D01*
X179179372Y-59549008D01*
X179176990Y-59573195D01*
X179175825Y-59574821D01*
X179173835Y-59574625D01*
X179173000Y-59572999D01*
X179173000Y-59073000D01*
X178443000Y-59073000D01*
X178441268Y-59072000D01*
X178441000Y-59071000D01*
X178441000Y-58823000D01*
X178442000Y-58821268D01*
X178443000Y-58821000D01*
X179173000Y-58821000D01*
X179173000Y-58273000D01*
X178443000Y-58273000D01*
X178441268Y-58272000D01*
X178441000Y-58271000D01*
X178441000Y-58023000D01*
X178442000Y-58021268D01*
X178443000Y-58021000D01*
X179173000Y-58021000D01*
X179173000Y-57521001D01*
X179174000Y-57519269D01*
X179176000Y-57519269D01*
X179176990Y-57520805D01*
G37*
G36*
X180744165Y-57519375D02*
G01*
X180745000Y-57521001D01*
X180745000Y-58021000D01*
X181475000Y-58021000D01*
X181476732Y-58022000D01*
X181477000Y-58023000D01*
X181477000Y-58271000D01*
X181476000Y-58272732D01*
X181475000Y-58273000D01*
X180745000Y-58273000D01*
X180745000Y-58821000D01*
X181475000Y-58821000D01*
X181476732Y-58822000D01*
X181477000Y-58823000D01*
X181477000Y-59071000D01*
X181476000Y-59072732D01*
X181475000Y-59073000D01*
X180745000Y-59073000D01*
X180745000Y-59572999D01*
X180744000Y-59574731D01*
X180742000Y-59574731D01*
X180741010Y-59573195D01*
X180738628Y-59549008D01*
X180731628Y-59525933D01*
X180720263Y-59504669D01*
X180704968Y-59486032D01*
X180686331Y-59470737D01*
X180665067Y-59459372D01*
X180641992Y-59452372D01*
X180617805Y-59449990D01*
X180616179Y-59448825D01*
X180616375Y-59446835D01*
X180618001Y-59446000D01*
X180633000Y-59446000D01*
X180633000Y-57648000D01*
X180618001Y-57648000D01*
X180616269Y-57647000D01*
X180616269Y-57645000D01*
X180617805Y-57644010D01*
X180641992Y-57641628D01*
X180665067Y-57634628D01*
X180686331Y-57623263D01*
X180704968Y-57607968D01*
X180720263Y-57589331D01*
X180731628Y-57568067D01*
X180738628Y-57544992D01*
X180741010Y-57520805D01*
X180742175Y-57519179D01*
X180744165Y-57519375D01*
G37*
G36*
X198038308Y-57372010D02*
G01*
X198055398Y-57373693D01*
X198055783Y-57373769D01*
X198066316Y-57376964D01*
X198066678Y-57377114D01*
X198076386Y-57382304D01*
X198076712Y-57382522D01*
X198092018Y-57395083D01*
X198092163Y-57395215D01*
X198096978Y-57400029D01*
X198117026Y-57413424D01*
X198139300Y-57422649D01*
X198162950Y-57427353D01*
X198187056Y-57427353D01*
X198210706Y-57422648D01*
X198232980Y-57413421D01*
X198253027Y-57400026D01*
X198257845Y-57395208D01*
X198257990Y-57395076D01*
X198273288Y-57382522D01*
X198273614Y-57382304D01*
X198283322Y-57377114D01*
X198283684Y-57376964D01*
X198294217Y-57373769D01*
X198294602Y-57373693D01*
X198311692Y-57372010D01*
X198311888Y-57372000D01*
X198368250Y-57372000D01*
X198369982Y-57373000D01*
X198369982Y-57375000D01*
X198368446Y-57375990D01*
X198345380Y-57378261D01*
X198323384Y-57384934D01*
X198303114Y-57395768D01*
X198285349Y-57410349D01*
X198270768Y-57428114D01*
X198259934Y-57448384D01*
X198253261Y-57470380D01*
X198251000Y-57493344D01*
X198251000Y-57731656D01*
X198253261Y-57754620D01*
X198259934Y-57776616D01*
X198270768Y-57796886D01*
X198285349Y-57814651D01*
X198303114Y-57829232D01*
X198323384Y-57840066D01*
X198345380Y-57846739D01*
X198368344Y-57849000D01*
X198631656Y-57849000D01*
X198654620Y-57846739D01*
X198676616Y-57840066D01*
X198696886Y-57829232D01*
X198714651Y-57814651D01*
X198729232Y-57796886D01*
X198740066Y-57776616D01*
X198746739Y-57754620D01*
X198749000Y-57731656D01*
X198749000Y-57493344D01*
X198746739Y-57470380D01*
X198740066Y-57448384D01*
X198729232Y-57428114D01*
X198714651Y-57410349D01*
X198696886Y-57395768D01*
X198676616Y-57384934D01*
X198654620Y-57378261D01*
X198631554Y-57375990D01*
X198629928Y-57374825D01*
X198630124Y-57372835D01*
X198631750Y-57372000D01*
X198688112Y-57372000D01*
X198688308Y-57372010D01*
X198705398Y-57373693D01*
X198705783Y-57373769D01*
X198716316Y-57376964D01*
X198716678Y-57377114D01*
X198726386Y-57382304D01*
X198726712Y-57382522D01*
X198742018Y-57395083D01*
X198742163Y-57395215D01*
X198746978Y-57400029D01*
X198767026Y-57413424D01*
X198789300Y-57422649D01*
X198812950Y-57427353D01*
X198837056Y-57427353D01*
X198860706Y-57422648D01*
X198882980Y-57413421D01*
X198903027Y-57400026D01*
X198907845Y-57395208D01*
X198907990Y-57395076D01*
X198923288Y-57382522D01*
X198923614Y-57382304D01*
X198933322Y-57377114D01*
X198933684Y-57376964D01*
X198944217Y-57373769D01*
X198944602Y-57373693D01*
X198961692Y-57372010D01*
X198961888Y-57372000D01*
X199018250Y-57372000D01*
X199019982Y-57373000D01*
X199019982Y-57375000D01*
X199018446Y-57375990D01*
X198995380Y-57378261D01*
X198973384Y-57384934D01*
X198953114Y-57395768D01*
X198935349Y-57410349D01*
X198920768Y-57428114D01*
X198909934Y-57448384D01*
X198903261Y-57470380D01*
X198901000Y-57493344D01*
X198901000Y-57731656D01*
X198903261Y-57754620D01*
X198909934Y-57776616D01*
X198920768Y-57796886D01*
X198935349Y-57814651D01*
X198953114Y-57829232D01*
X198973384Y-57840066D01*
X198995380Y-57846739D01*
X199018344Y-57849000D01*
X199281656Y-57849000D01*
X199304620Y-57846739D01*
X199326616Y-57840066D01*
X199346886Y-57829232D01*
X199364651Y-57814651D01*
X199379232Y-57796886D01*
X199390066Y-57776616D01*
X199396739Y-57754620D01*
X199399010Y-57731554D01*
X199400175Y-57729928D01*
X199402165Y-57730124D01*
X199403000Y-57731750D01*
X199403000Y-57788112D01*
X199402990Y-57788308D01*
X199401307Y-57805398D01*
X199401231Y-57805783D01*
X199398036Y-57816316D01*
X199397886Y-57816678D01*
X199392697Y-57826386D01*
X199392479Y-57826712D01*
X199380980Y-57840724D01*
X199367532Y-57860851D01*
X199358323Y-57883082D01*
X199353000Y-57918972D01*
X199353000Y-57949000D01*
X199352000Y-57950732D01*
X199351000Y-57951000D01*
X197649000Y-57951000D01*
X197647268Y-57950000D01*
X197647000Y-57949000D01*
X197647000Y-57918921D01*
X197644628Y-57894836D01*
X197637642Y-57871806D01*
X197618991Y-57840688D01*
X197607521Y-57826712D01*
X197607303Y-57826386D01*
X197602114Y-57816678D01*
X197601964Y-57816316D01*
X197598769Y-57805783D01*
X197598693Y-57805398D01*
X197597010Y-57788308D01*
X197597000Y-57788112D01*
X197597000Y-57731750D01*
X197598000Y-57730018D01*
X197600000Y-57730018D01*
X197600990Y-57731554D01*
X197603261Y-57754620D01*
X197609934Y-57776616D01*
X197620768Y-57796886D01*
X197635349Y-57814651D01*
X197653114Y-57829232D01*
X197673384Y-57840066D01*
X197695380Y-57846739D01*
X197718344Y-57849000D01*
X197981656Y-57849000D01*
X198004620Y-57846739D01*
X198026616Y-57840066D01*
X198046886Y-57829232D01*
X198064651Y-57814651D01*
X198079232Y-57796886D01*
X198090066Y-57776616D01*
X198096739Y-57754620D01*
X198099000Y-57731656D01*
X198099000Y-57493344D01*
X198096739Y-57470380D01*
X198090066Y-57448384D01*
X198079232Y-57428114D01*
X198064651Y-57410349D01*
X198046886Y-57395768D01*
X198026616Y-57384934D01*
X198004620Y-57378261D01*
X197981554Y-57375990D01*
X197979928Y-57374825D01*
X197980124Y-57372835D01*
X197981750Y-57372000D01*
X198038112Y-57372000D01*
X198038308Y-57372010D01*
G37*
G36*
X143370333Y-55772097D02*
G01*
X143376252Y-55775261D01*
X143385445Y-55778050D01*
X143395094Y-55779000D01*
X144894906Y-55779000D01*
X144904555Y-55778050D01*
X144913748Y-55775261D01*
X144919671Y-55772095D01*
X144921670Y-55772161D01*
X144922613Y-55773924D01*
X144921883Y-55775405D01*
X144920751Y-55776334D01*
X144920593Y-55776451D01*
X144907904Y-55784929D01*
X144890857Y-55801976D01*
X144877462Y-55822024D01*
X144868236Y-55844298D01*
X144863532Y-55867948D01*
X144863532Y-55892054D01*
X144868237Y-55915704D01*
X144877463Y-55937978D01*
X144890858Y-55958025D01*
X144907905Y-55975072D01*
X144920593Y-55983550D01*
X144920751Y-55983667D01*
X144921879Y-55984593D01*
X144922583Y-55986465D01*
X144921314Y-55988011D01*
X144919667Y-55987903D01*
X144913748Y-55984739D01*
X144904555Y-55981950D01*
X144894906Y-55981000D01*
X143395094Y-55981000D01*
X143385445Y-55981950D01*
X143376252Y-55984739D01*
X143370329Y-55987905D01*
X143368330Y-55987839D01*
X143367387Y-55986076D01*
X143368117Y-55984595D01*
X143369249Y-55983666D01*
X143369407Y-55983549D01*
X143382096Y-55975071D01*
X143399143Y-55958024D01*
X143412538Y-55937976D01*
X143421764Y-55915702D01*
X143426468Y-55892052D01*
X143426468Y-55867946D01*
X143421763Y-55844296D01*
X143412537Y-55822022D01*
X143399142Y-55801975D01*
X143382095Y-55784928D01*
X143369407Y-55776450D01*
X143369249Y-55776333D01*
X143368121Y-55775407D01*
X143367417Y-55773535D01*
X143368686Y-55771989D01*
X143370333Y-55772097D01*
G37*
G36*
X198402731Y-53900000D02*
G01*
X198402731Y-53902000D01*
X198401195Y-53902990D01*
X198377008Y-53905372D01*
X198353933Y-53912372D01*
X198332669Y-53923737D01*
X198314032Y-53939032D01*
X198298737Y-53957669D01*
X198287372Y-53978933D01*
X198280372Y-54002008D01*
X198278000Y-54026093D01*
X198278000Y-54099000D01*
X198277000Y-54100732D01*
X198276000Y-54101000D01*
X197774000Y-54101000D01*
X197772268Y-54100000D01*
X197772000Y-54099000D01*
X197772000Y-54026093D01*
X197769628Y-54002008D01*
X197762628Y-53978933D01*
X197751263Y-53957669D01*
X197735968Y-53939032D01*
X197717331Y-53923737D01*
X197696067Y-53912372D01*
X197672992Y-53905372D01*
X197648805Y-53902990D01*
X197647179Y-53901825D01*
X197647375Y-53899835D01*
X197649001Y-53899000D01*
X198400999Y-53899000D01*
X198402731Y-53900000D01*
G37*
G36*
X199352731Y-53900000D02*
G01*
X199352731Y-53902000D01*
X199351195Y-53902990D01*
X199327008Y-53905372D01*
X199303933Y-53912372D01*
X199282669Y-53923737D01*
X199264032Y-53939032D01*
X199248737Y-53957669D01*
X199237372Y-53978933D01*
X199230372Y-54002008D01*
X199228000Y-54026093D01*
X199228000Y-54099000D01*
X199227000Y-54100732D01*
X199226000Y-54101000D01*
X198724000Y-54101000D01*
X198722268Y-54100000D01*
X198722000Y-54099000D01*
X198722000Y-54026093D01*
X198719628Y-54002008D01*
X198712628Y-53978933D01*
X198701263Y-53957669D01*
X198685968Y-53939032D01*
X198667331Y-53923737D01*
X198646067Y-53912372D01*
X198622992Y-53905372D01*
X198598805Y-53902990D01*
X198597179Y-53901825D01*
X198597375Y-53899835D01*
X198599001Y-53899000D01*
X199350999Y-53899000D01*
X199352731Y-53900000D01*
G37*
G36*
X198277732Y-52900000D02*
G01*
X198278000Y-52901000D01*
X198278000Y-52973907D01*
X198280372Y-52997992D01*
X198287372Y-53021067D01*
X198298737Y-53042331D01*
X198314032Y-53060968D01*
X198332669Y-53076263D01*
X198353933Y-53087628D01*
X198377008Y-53094628D01*
X198401195Y-53097010D01*
X198402821Y-53098175D01*
X198402625Y-53100165D01*
X198400999Y-53101000D01*
X197649001Y-53101000D01*
X197647269Y-53100000D01*
X197647269Y-53098000D01*
X197648805Y-53097010D01*
X197672992Y-53094628D01*
X197696067Y-53087628D01*
X197717331Y-53076263D01*
X197735968Y-53060968D01*
X197751263Y-53042331D01*
X197762628Y-53021067D01*
X197769628Y-52997992D01*
X197772000Y-52973907D01*
X197772000Y-52901000D01*
X197773000Y-52899268D01*
X197774000Y-52899000D01*
X198276000Y-52899000D01*
X198277732Y-52900000D01*
G37*
G36*
X199227732Y-52900000D02*
G01*
X199228000Y-52901000D01*
X199228000Y-52973907D01*
X199230372Y-52997992D01*
X199237372Y-53021067D01*
X199248737Y-53042331D01*
X199264032Y-53060968D01*
X199282669Y-53076263D01*
X199303933Y-53087628D01*
X199327008Y-53094628D01*
X199351195Y-53097010D01*
X199352821Y-53098175D01*
X199352625Y-53100165D01*
X199350999Y-53101000D01*
X198599001Y-53101000D01*
X198597269Y-53100000D01*
X198597269Y-53098000D01*
X198598805Y-53097010D01*
X198622992Y-53094628D01*
X198646067Y-53087628D01*
X198667331Y-53076263D01*
X198685968Y-53060968D01*
X198701263Y-53042331D01*
X198712628Y-53021067D01*
X198719628Y-52997992D01*
X198722000Y-52973907D01*
X198722000Y-52901000D01*
X198723000Y-52899268D01*
X198724000Y-52899000D01*
X199226000Y-52899000D01*
X199227732Y-52900000D01*
G37*
G36*
X139560333Y-51327097D02*
G01*
X139566252Y-51330261D01*
X139575445Y-51333050D01*
X139585094Y-51334000D01*
X141084906Y-51334000D01*
X141094555Y-51333050D01*
X141103748Y-51330261D01*
X141109671Y-51327095D01*
X141111670Y-51327161D01*
X141112613Y-51328924D01*
X141111883Y-51330405D01*
X141110751Y-51331334D01*
X141110593Y-51331451D01*
X141097904Y-51339929D01*
X141080857Y-51356976D01*
X141067462Y-51377024D01*
X141058236Y-51399298D01*
X141053532Y-51422948D01*
X141053532Y-51447054D01*
X141058237Y-51470704D01*
X141067463Y-51492978D01*
X141080858Y-51513025D01*
X141097905Y-51530072D01*
X141110593Y-51538550D01*
X141110751Y-51538667D01*
X141111879Y-51539593D01*
X141112583Y-51541465D01*
X141111314Y-51543011D01*
X141109667Y-51542903D01*
X141103748Y-51539739D01*
X141094555Y-51536950D01*
X141084906Y-51536000D01*
X139585094Y-51536000D01*
X139575445Y-51536950D01*
X139566252Y-51539739D01*
X139560329Y-51542905D01*
X139558330Y-51542839D01*
X139557387Y-51541076D01*
X139558117Y-51539595D01*
X139559249Y-51538666D01*
X139559407Y-51538549D01*
X139572096Y-51530071D01*
X139589143Y-51513024D01*
X139602538Y-51492976D01*
X139611764Y-51470702D01*
X139616468Y-51447052D01*
X139616468Y-51422946D01*
X139611763Y-51399296D01*
X139602537Y-51377022D01*
X139589142Y-51356975D01*
X139572095Y-51339928D01*
X139559407Y-51331450D01*
X139559249Y-51331333D01*
X139558121Y-51330407D01*
X139557417Y-51328535D01*
X139558686Y-51326989D01*
X139560333Y-51327097D01*
G37*
G36*
X199827732Y-49050000D02*
G01*
X199828000Y-49051000D01*
X199828000Y-49249000D01*
X199827000Y-49250732D01*
X199826000Y-49251000D01*
X199224000Y-49251000D01*
X199222268Y-49250000D01*
X199222000Y-49249000D01*
X199222000Y-49051000D01*
X199223000Y-49049268D01*
X199224000Y-49049000D01*
X199826000Y-49049000D01*
X199827732Y-49050000D01*
G37*
G36*
X197777732Y-49050000D02*
G01*
X197778000Y-49051000D01*
X197778000Y-49249000D01*
X197777000Y-49250732D01*
X197776000Y-49251000D01*
X197174000Y-49251000D01*
X197172268Y-49250000D01*
X197172000Y-49249000D01*
X197172000Y-49051000D01*
X197173000Y-49049268D01*
X197174000Y-49049000D01*
X197776000Y-49049000D01*
X197777732Y-49050000D01*
G37*
G36*
X199827732Y-48400000D02*
G01*
X199828000Y-48401000D01*
X199828000Y-48599000D01*
X199827000Y-48600732D01*
X199826000Y-48601000D01*
X199224000Y-48601000D01*
X199222268Y-48600000D01*
X199222000Y-48599000D01*
X199222000Y-48401000D01*
X199223000Y-48399268D01*
X199224000Y-48399000D01*
X199826000Y-48399000D01*
X199827732Y-48400000D01*
G37*
G36*
X197777732Y-48400000D02*
G01*
X197778000Y-48401000D01*
X197778000Y-48599000D01*
X197777000Y-48600732D01*
X197776000Y-48601000D01*
X197174000Y-48601000D01*
X197172268Y-48600000D01*
X197172000Y-48599000D01*
X197172000Y-48401000D01*
X197173000Y-48399268D01*
X197174000Y-48399000D01*
X197776000Y-48399000D01*
X197777732Y-48400000D01*
G37*
G36*
X197777732Y-47750000D02*
G01*
X197778000Y-47751000D01*
X197778000Y-47949000D01*
X197777000Y-47950732D01*
X197776000Y-47951000D01*
X197174000Y-47951000D01*
X197172268Y-47950000D01*
X197172000Y-47949000D01*
X197172000Y-47751000D01*
X197173000Y-47749268D01*
X197174000Y-47749000D01*
X197776000Y-47749000D01*
X197777732Y-47750000D01*
G37*
G36*
X199827732Y-47750000D02*
G01*
X199828000Y-47751000D01*
X199828000Y-47949000D01*
X199827000Y-47950732D01*
X199826000Y-47951000D01*
X199224000Y-47951000D01*
X199222268Y-47950000D01*
X199222000Y-47949000D01*
X199222000Y-47751000D01*
X199223000Y-47749268D01*
X199224000Y-47749000D01*
X199826000Y-47749000D01*
X199827732Y-47750000D01*
G37*
M02*
