G04 #@! TF.GenerationSoftware,KiCad,Pcbnew,(5.1.9-0-10_14)*
G04 #@! TF.CreationDate,2021-03-25T01:03:47-05:00*
G04 #@! TF.ProjectId,ClimateSprinklerController,436c696d-6174-4655-9370-72696e6b6c65,rev?*
G04 #@! TF.SameCoordinates,Original*
G04 #@! TF.FileFunction,Paste,Bot*
G04 #@! TF.FilePolarity,Positive*
%FSLAX46Y46*%
G04 Gerber Fmt 4.6, Leading zero omitted, Abs format (unit mm)*
G04 Created by KiCad (PCBNEW (5.1.9-0-10_14)) date 2021-03-25 01:03:47*
%MOMM*%
%LPD*%
G01*
G04 APERTURE LIST*
%ADD10R,5.000000X5.000000*%
%ADD11R,2.000000X0.900000*%
%ADD12R,1.050000X0.700000*%
%ADD13R,0.630000X0.450000*%
%ADD14R,1.300000X2.400000*%
%ADD15R,4.000000X3.750000*%
%ADD16R,2.500000X3.200000*%
%ADD17R,0.500000X0.350000*%
%ADD18R,0.300000X0.500000*%
%ADD19R,0.800000X0.350000*%
%ADD20R,3.100000X2.600000*%
%ADD21R,0.600000X1.550000*%
%ADD22R,1.100000X1.500000*%
G04 APERTURE END LIST*
D10*
X110846000Y-53855000D03*
D11*
X101346000Y-46355000D03*
X101346000Y-47625000D03*
X101346000Y-48895000D03*
X101346000Y-50165000D03*
X101346000Y-51435000D03*
X101346000Y-52705000D03*
X101346000Y-53975000D03*
X101346000Y-55245000D03*
X101346000Y-56515000D03*
X101346000Y-57785000D03*
X101346000Y-59055000D03*
X101346000Y-60325000D03*
X101346000Y-61595000D03*
X101346000Y-62865000D03*
X101346000Y-64135000D03*
X101346000Y-65405000D03*
X101346000Y-66675000D03*
X101346000Y-67945000D03*
X101346000Y-69215000D03*
X118346000Y-69215000D03*
X118346000Y-67945000D03*
X118346000Y-66675000D03*
X118346000Y-65405000D03*
X118346000Y-64135000D03*
X118346000Y-62865000D03*
X118346000Y-61595000D03*
X118346000Y-60325000D03*
X118346000Y-59055000D03*
X118346000Y-57785000D03*
X118346000Y-56515000D03*
X118346000Y-55245000D03*
X118346000Y-53975000D03*
X118346000Y-52705000D03*
X118346000Y-51435000D03*
X118346000Y-50165000D03*
X118346000Y-48895000D03*
X118346000Y-47625000D03*
X118346000Y-46355000D03*
D12*
X179959000Y-58947000D03*
X179959000Y-58147000D03*
D13*
X178809000Y-59347000D03*
X178809000Y-58547000D03*
X178809000Y-57747000D03*
X181109000Y-57747000D03*
X181109000Y-58547000D03*
X181109000Y-59347000D03*
G36*
G01*
X174009000Y-56203001D02*
X174009000Y-55302999D01*
G75*
G02*
X174258999Y-55053000I249999J0D01*
G01*
X174959001Y-55053000D01*
G75*
G02*
X175209000Y-55302999I0J-249999D01*
G01*
X175209000Y-56203001D01*
G75*
G02*
X174959001Y-56453000I-249999J0D01*
G01*
X174258999Y-56453000D01*
G75*
G02*
X174009000Y-56203001I0J249999D01*
G01*
G37*
G36*
G01*
X172009000Y-56203001D02*
X172009000Y-55302999D01*
G75*
G02*
X172258999Y-55053000I249999J0D01*
G01*
X172959001Y-55053000D01*
G75*
G02*
X173209000Y-55302999I0J-249999D01*
G01*
X173209000Y-56203001D01*
G75*
G02*
X172959001Y-56453000I-249999J0D01*
G01*
X172258999Y-56453000D01*
G75*
G02*
X172009000Y-56203001I0J249999D01*
G01*
G37*
G36*
G01*
X176436000Y-57097000D02*
X177386000Y-57097000D01*
G75*
G02*
X177636000Y-57347000I0J-250000D01*
G01*
X177636000Y-57847000D01*
G75*
G02*
X177386000Y-58097000I-250000J0D01*
G01*
X176436000Y-58097000D01*
G75*
G02*
X176186000Y-57847000I0J250000D01*
G01*
X176186000Y-57347000D01*
G75*
G02*
X176436000Y-57097000I250000J0D01*
G01*
G37*
G36*
G01*
X176436000Y-58997000D02*
X177386000Y-58997000D01*
G75*
G02*
X177636000Y-59247000I0J-250000D01*
G01*
X177636000Y-59747000D01*
G75*
G02*
X177386000Y-59997000I-250000J0D01*
G01*
X176436000Y-59997000D01*
G75*
G02*
X176186000Y-59747000I0J250000D01*
G01*
X176186000Y-59247000D01*
G75*
G02*
X176436000Y-58997000I250000J0D01*
G01*
G37*
G36*
G01*
X180409000Y-63213000D02*
X180409000Y-62263000D01*
G75*
G02*
X180659000Y-62013000I250000J0D01*
G01*
X181159000Y-62013000D01*
G75*
G02*
X181409000Y-62263000I0J-250000D01*
G01*
X181409000Y-63213000D01*
G75*
G02*
X181159000Y-63463000I-250000J0D01*
G01*
X180659000Y-63463000D01*
G75*
G02*
X180409000Y-63213000I0J250000D01*
G01*
G37*
G36*
G01*
X178509000Y-63213000D02*
X178509000Y-62263000D01*
G75*
G02*
X178759000Y-62013000I250000J0D01*
G01*
X179259000Y-62013000D01*
G75*
G02*
X179509000Y-62263000I0J-250000D01*
G01*
X179509000Y-63213000D01*
G75*
G02*
X179259000Y-63463000I-250000J0D01*
G01*
X178759000Y-63463000D01*
G75*
G02*
X178509000Y-63213000I0J250000D01*
G01*
G37*
G36*
G01*
X180524999Y-79140000D02*
X181425001Y-79140000D01*
G75*
G02*
X181675000Y-79389999I0J-249999D01*
G01*
X181675000Y-80090001D01*
G75*
G02*
X181425001Y-80340000I-249999J0D01*
G01*
X180524999Y-80340000D01*
G75*
G02*
X180275000Y-80090001I0J249999D01*
G01*
X180275000Y-79389999D01*
G75*
G02*
X180524999Y-79140000I249999J0D01*
G01*
G37*
G36*
G01*
X180524999Y-77140000D02*
X181425001Y-77140000D01*
G75*
G02*
X181675000Y-77389999I0J-249999D01*
G01*
X181675000Y-78090001D01*
G75*
G02*
X181425001Y-78340000I-249999J0D01*
G01*
X180524999Y-78340000D01*
G75*
G02*
X180275000Y-78090001I0J249999D01*
G01*
X180275000Y-77389999D01*
G75*
G02*
X180524999Y-77140000I249999J0D01*
G01*
G37*
G36*
G01*
X184334999Y-79140000D02*
X185235001Y-79140000D01*
G75*
G02*
X185485000Y-79389999I0J-249999D01*
G01*
X185485000Y-80090001D01*
G75*
G02*
X185235001Y-80340000I-249999J0D01*
G01*
X184334999Y-80340000D01*
G75*
G02*
X184085000Y-80090001I0J249999D01*
G01*
X184085000Y-79389999D01*
G75*
G02*
X184334999Y-79140000I249999J0D01*
G01*
G37*
G36*
G01*
X184334999Y-77140000D02*
X185235001Y-77140000D01*
G75*
G02*
X185485000Y-77389999I0J-249999D01*
G01*
X185485000Y-78090001D01*
G75*
G02*
X185235001Y-78340000I-249999J0D01*
G01*
X184334999Y-78340000D01*
G75*
G02*
X184085000Y-78090001I0J249999D01*
G01*
X184085000Y-77389999D01*
G75*
G02*
X184334999Y-77140000I249999J0D01*
G01*
G37*
G36*
G01*
X122370001Y-54210000D02*
X121469999Y-54210000D01*
G75*
G02*
X121220000Y-53960001I0J249999D01*
G01*
X121220000Y-53259999D01*
G75*
G02*
X121469999Y-53010000I249999J0D01*
G01*
X122370001Y-53010000D01*
G75*
G02*
X122620000Y-53259999I0J-249999D01*
G01*
X122620000Y-53960001D01*
G75*
G02*
X122370001Y-54210000I-249999J0D01*
G01*
G37*
G36*
G01*
X122370001Y-56210000D02*
X121469999Y-56210000D01*
G75*
G02*
X121220000Y-55960001I0J249999D01*
G01*
X121220000Y-55259999D01*
G75*
G02*
X121469999Y-55010000I249999J0D01*
G01*
X122370001Y-55010000D01*
G75*
G02*
X122620000Y-55259999I0J-249999D01*
G01*
X122620000Y-55960001D01*
G75*
G02*
X122370001Y-56210000I-249999J0D01*
G01*
G37*
G36*
G01*
X96755000Y-52254999D02*
X96755000Y-53155001D01*
G75*
G02*
X96505001Y-53405000I-249999J0D01*
G01*
X95804999Y-53405000D01*
G75*
G02*
X95555000Y-53155001I0J249999D01*
G01*
X95555000Y-52254999D01*
G75*
G02*
X95804999Y-52005000I249999J0D01*
G01*
X96505001Y-52005000D01*
G75*
G02*
X96755000Y-52254999I0J-249999D01*
G01*
G37*
G36*
G01*
X98755000Y-52254999D02*
X98755000Y-53155001D01*
G75*
G02*
X98505001Y-53405000I-249999J0D01*
G01*
X97804999Y-53405000D01*
G75*
G02*
X97555000Y-53155001I0J249999D01*
G01*
X97555000Y-52254999D01*
G75*
G02*
X97804999Y-52005000I249999J0D01*
G01*
X98505001Y-52005000D01*
G75*
G02*
X98755000Y-52254999I0J-249999D01*
G01*
G37*
G36*
G01*
X124009999Y-55010000D02*
X124910001Y-55010000D01*
G75*
G02*
X125160000Y-55259999I0J-249999D01*
G01*
X125160000Y-55960001D01*
G75*
G02*
X124910001Y-56210000I-249999J0D01*
G01*
X124009999Y-56210000D01*
G75*
G02*
X123760000Y-55960001I0J249999D01*
G01*
X123760000Y-55259999D01*
G75*
G02*
X124009999Y-55010000I249999J0D01*
G01*
G37*
G36*
G01*
X124009999Y-53010000D02*
X124910001Y-53010000D01*
G75*
G02*
X125160000Y-53259999I0J-249999D01*
G01*
X125160000Y-53960001D01*
G75*
G02*
X124910001Y-54210000I-249999J0D01*
G01*
X124009999Y-54210000D01*
G75*
G02*
X123760000Y-53960001I0J249999D01*
G01*
X123760000Y-53259999D01*
G75*
G02*
X124009999Y-53010000I249999J0D01*
G01*
G37*
G36*
G01*
X84004999Y-80410000D02*
X84905001Y-80410000D01*
G75*
G02*
X85155000Y-80659999I0J-249999D01*
G01*
X85155000Y-81360001D01*
G75*
G02*
X84905001Y-81610000I-249999J0D01*
G01*
X84004999Y-81610000D01*
G75*
G02*
X83755000Y-81360001I0J249999D01*
G01*
X83755000Y-80659999D01*
G75*
G02*
X84004999Y-80410000I249999J0D01*
G01*
G37*
G36*
G01*
X84004999Y-78410000D02*
X84905001Y-78410000D01*
G75*
G02*
X85155000Y-78659999I0J-249999D01*
G01*
X85155000Y-79360001D01*
G75*
G02*
X84905001Y-79610000I-249999J0D01*
G01*
X84004999Y-79610000D01*
G75*
G02*
X83755000Y-79360001I0J249999D01*
G01*
X83755000Y-78659999D01*
G75*
G02*
X84004999Y-78410000I249999J0D01*
G01*
G37*
G36*
G01*
X84004999Y-75965000D02*
X84905001Y-75965000D01*
G75*
G02*
X85155000Y-76214999I0J-249999D01*
G01*
X85155000Y-76915001D01*
G75*
G02*
X84905001Y-77165000I-249999J0D01*
G01*
X84004999Y-77165000D01*
G75*
G02*
X83755000Y-76915001I0J249999D01*
G01*
X83755000Y-76214999D01*
G75*
G02*
X84004999Y-75965000I249999J0D01*
G01*
G37*
G36*
G01*
X84004999Y-73965000D02*
X84905001Y-73965000D01*
G75*
G02*
X85155000Y-74214999I0J-249999D01*
G01*
X85155000Y-74915001D01*
G75*
G02*
X84905001Y-75165000I-249999J0D01*
G01*
X84004999Y-75165000D01*
G75*
G02*
X83755000Y-74915001I0J249999D01*
G01*
X83755000Y-74214999D01*
G75*
G02*
X84004999Y-73965000I249999J0D01*
G01*
G37*
G36*
G01*
X164230000Y-53790001D02*
X164230000Y-52889999D01*
G75*
G02*
X164479999Y-52640000I249999J0D01*
G01*
X165180001Y-52640000D01*
G75*
G02*
X165430000Y-52889999I0J-249999D01*
G01*
X165430000Y-53790001D01*
G75*
G02*
X165180001Y-54040000I-249999J0D01*
G01*
X164479999Y-54040000D01*
G75*
G02*
X164230000Y-53790001I0J249999D01*
G01*
G37*
G36*
G01*
X162230000Y-53790001D02*
X162230000Y-52889999D01*
G75*
G02*
X162479999Y-52640000I249999J0D01*
G01*
X163180001Y-52640000D01*
G75*
G02*
X163430000Y-52889999I0J-249999D01*
G01*
X163430000Y-53790001D01*
G75*
G02*
X163180001Y-54040000I-249999J0D01*
G01*
X162479999Y-54040000D01*
G75*
G02*
X162230000Y-53790001I0J249999D01*
G01*
G37*
G36*
G01*
X164230000Y-51250001D02*
X164230000Y-50349999D01*
G75*
G02*
X164479999Y-50100000I249999J0D01*
G01*
X165180001Y-50100000D01*
G75*
G02*
X165430000Y-50349999I0J-249999D01*
G01*
X165430000Y-51250001D01*
G75*
G02*
X165180001Y-51500000I-249999J0D01*
G01*
X164479999Y-51500000D01*
G75*
G02*
X164230000Y-51250001I0J249999D01*
G01*
G37*
G36*
G01*
X162230000Y-51250001D02*
X162230000Y-50349999D01*
G75*
G02*
X162479999Y-50100000I249999J0D01*
G01*
X163180001Y-50100000D01*
G75*
G02*
X163430000Y-50349999I0J-249999D01*
G01*
X163430000Y-51250001D01*
G75*
G02*
X163180001Y-51500000I-249999J0D01*
G01*
X162479999Y-51500000D01*
G75*
G02*
X162230000Y-51250001I0J249999D01*
G01*
G37*
G36*
G01*
X97555000Y-65855001D02*
X97555000Y-64954999D01*
G75*
G02*
X97804999Y-64705000I249999J0D01*
G01*
X98505001Y-64705000D01*
G75*
G02*
X98755000Y-64954999I0J-249999D01*
G01*
X98755000Y-65855001D01*
G75*
G02*
X98505001Y-66105000I-249999J0D01*
G01*
X97804999Y-66105000D01*
G75*
G02*
X97555000Y-65855001I0J249999D01*
G01*
G37*
G36*
G01*
X95555000Y-65855001D02*
X95555000Y-64954999D01*
G75*
G02*
X95804999Y-64705000I249999J0D01*
G01*
X96505001Y-64705000D01*
G75*
G02*
X96755000Y-64954999I0J-249999D01*
G01*
X96755000Y-65855001D01*
G75*
G02*
X96505001Y-66105000I-249999J0D01*
G01*
X95804999Y-66105000D01*
G75*
G02*
X95555000Y-65855001I0J249999D01*
G01*
G37*
G36*
G01*
X97555000Y-60775001D02*
X97555000Y-59874999D01*
G75*
G02*
X97804999Y-59625000I249999J0D01*
G01*
X98505001Y-59625000D01*
G75*
G02*
X98755000Y-59874999I0J-249999D01*
G01*
X98755000Y-60775001D01*
G75*
G02*
X98505001Y-61025000I-249999J0D01*
G01*
X97804999Y-61025000D01*
G75*
G02*
X97555000Y-60775001I0J249999D01*
G01*
G37*
G36*
G01*
X95555000Y-60775001D02*
X95555000Y-59874999D01*
G75*
G02*
X95804999Y-59625000I249999J0D01*
G01*
X96505001Y-59625000D01*
G75*
G02*
X96755000Y-59874999I0J-249999D01*
G01*
X96755000Y-60775001D01*
G75*
G02*
X96505001Y-61025000I-249999J0D01*
G01*
X95804999Y-61025000D01*
G75*
G02*
X95555000Y-60775001I0J249999D01*
G01*
G37*
G36*
G01*
X97555000Y-55695001D02*
X97555000Y-54794999D01*
G75*
G02*
X97804999Y-54545000I249999J0D01*
G01*
X98505001Y-54545000D01*
G75*
G02*
X98755000Y-54794999I0J-249999D01*
G01*
X98755000Y-55695001D01*
G75*
G02*
X98505001Y-55945000I-249999J0D01*
G01*
X97804999Y-55945000D01*
G75*
G02*
X97555000Y-55695001I0J249999D01*
G01*
G37*
G36*
G01*
X95555000Y-55695001D02*
X95555000Y-54794999D01*
G75*
G02*
X95804999Y-54545000I249999J0D01*
G01*
X96505001Y-54545000D01*
G75*
G02*
X96755000Y-54794999I0J-249999D01*
G01*
X96755000Y-55695001D01*
G75*
G02*
X96505001Y-55945000I-249999J0D01*
G01*
X95804999Y-55945000D01*
G75*
G02*
X95555000Y-55695001I0J249999D01*
G01*
G37*
G36*
G01*
X97555000Y-58235001D02*
X97555000Y-57334999D01*
G75*
G02*
X97804999Y-57085000I249999J0D01*
G01*
X98505001Y-57085000D01*
G75*
G02*
X98755000Y-57334999I0J-249999D01*
G01*
X98755000Y-58235001D01*
G75*
G02*
X98505001Y-58485000I-249999J0D01*
G01*
X97804999Y-58485000D01*
G75*
G02*
X97555000Y-58235001I0J249999D01*
G01*
G37*
G36*
G01*
X95555000Y-58235001D02*
X95555000Y-57334999D01*
G75*
G02*
X95804999Y-57085000I249999J0D01*
G01*
X96505001Y-57085000D01*
G75*
G02*
X96755000Y-57334999I0J-249999D01*
G01*
X96755000Y-58235001D01*
G75*
G02*
X96505001Y-58485000I-249999J0D01*
G01*
X95804999Y-58485000D01*
G75*
G02*
X95555000Y-58235001I0J249999D01*
G01*
G37*
G36*
G01*
X96755000Y-62414999D02*
X96755000Y-63315001D01*
G75*
G02*
X96505001Y-63565000I-249999J0D01*
G01*
X95804999Y-63565000D01*
G75*
G02*
X95555000Y-63315001I0J249999D01*
G01*
X95555000Y-62414999D01*
G75*
G02*
X95804999Y-62165000I249999J0D01*
G01*
X96505001Y-62165000D01*
G75*
G02*
X96755000Y-62414999I0J-249999D01*
G01*
G37*
G36*
G01*
X98755000Y-62414999D02*
X98755000Y-63315001D01*
G75*
G02*
X98505001Y-63565000I-249999J0D01*
G01*
X97804999Y-63565000D01*
G75*
G02*
X97555000Y-63315001I0J249999D01*
G01*
X97555000Y-62414999D01*
G75*
G02*
X97804999Y-62165000I249999J0D01*
G01*
X98505001Y-62165000D01*
G75*
G02*
X98755000Y-62414999I0J-249999D01*
G01*
G37*
G36*
G01*
X124910001Y-48250000D02*
X124009999Y-48250000D01*
G75*
G02*
X123760000Y-48000001I0J249999D01*
G01*
X123760000Y-47299999D01*
G75*
G02*
X124009999Y-47050000I249999J0D01*
G01*
X124910001Y-47050000D01*
G75*
G02*
X125160000Y-47299999I0J-249999D01*
G01*
X125160000Y-48000001D01*
G75*
G02*
X124910001Y-48250000I-249999J0D01*
G01*
G37*
G36*
G01*
X124910001Y-50250000D02*
X124009999Y-50250000D01*
G75*
G02*
X123760000Y-50000001I0J249999D01*
G01*
X123760000Y-49299999D01*
G75*
G02*
X124009999Y-49050000I249999J0D01*
G01*
X124910001Y-49050000D01*
G75*
G02*
X125160000Y-49299999I0J-249999D01*
G01*
X125160000Y-50000001D01*
G75*
G02*
X124910001Y-50250000I-249999J0D01*
G01*
G37*
G36*
G01*
X104605001Y-84825000D02*
X102404999Y-84825000D01*
G75*
G02*
X102155000Y-84575001I0J249999D01*
G01*
X102155000Y-83924999D01*
G75*
G02*
X102404999Y-83675000I249999J0D01*
G01*
X104605001Y-83675000D01*
G75*
G02*
X104855000Y-83924999I0J-249999D01*
G01*
X104855000Y-84575001D01*
G75*
G02*
X104605001Y-84825000I-249999J0D01*
G01*
G37*
G36*
G01*
X104605001Y-87775000D02*
X102404999Y-87775000D01*
G75*
G02*
X102155000Y-87525001I0J249999D01*
G01*
X102155000Y-86874999D01*
G75*
G02*
X102404999Y-86625000I249999J0D01*
G01*
X104605001Y-86625000D01*
G75*
G02*
X104855000Y-86874999I0J-249999D01*
G01*
X104855000Y-87525001D01*
G75*
G02*
X104605001Y-87775000I-249999J0D01*
G01*
G37*
G36*
G01*
X100160001Y-84825000D02*
X97959999Y-84825000D01*
G75*
G02*
X97710000Y-84575001I0J249999D01*
G01*
X97710000Y-83924999D01*
G75*
G02*
X97959999Y-83675000I249999J0D01*
G01*
X100160001Y-83675000D01*
G75*
G02*
X100410000Y-83924999I0J-249999D01*
G01*
X100410000Y-84575001D01*
G75*
G02*
X100160001Y-84825000I-249999J0D01*
G01*
G37*
G36*
G01*
X100160001Y-87775000D02*
X97959999Y-87775000D01*
G75*
G02*
X97710000Y-87525001I0J249999D01*
G01*
X97710000Y-86874999D01*
G75*
G02*
X97959999Y-86625000I249999J0D01*
G01*
X100160001Y-86625000D01*
G75*
G02*
X100410000Y-86874999I0J-249999D01*
G01*
X100410000Y-87525001D01*
G75*
G02*
X100160001Y-87775000I-249999J0D01*
G01*
G37*
G36*
G01*
X95715001Y-84825000D02*
X93514999Y-84825000D01*
G75*
G02*
X93265000Y-84575001I0J249999D01*
G01*
X93265000Y-83924999D01*
G75*
G02*
X93514999Y-83675000I249999J0D01*
G01*
X95715001Y-83675000D01*
G75*
G02*
X95965000Y-83924999I0J-249999D01*
G01*
X95965000Y-84575001D01*
G75*
G02*
X95715001Y-84825000I-249999J0D01*
G01*
G37*
G36*
G01*
X95715001Y-87775000D02*
X93514999Y-87775000D01*
G75*
G02*
X93265000Y-87525001I0J249999D01*
G01*
X93265000Y-86874999D01*
G75*
G02*
X93514999Y-86625000I249999J0D01*
G01*
X95715001Y-86625000D01*
G75*
G02*
X95965000Y-86874999I0J-249999D01*
G01*
X95965000Y-87525001D01*
G75*
G02*
X95715001Y-87775000I-249999J0D01*
G01*
G37*
G36*
G01*
X128085000Y-55085000D02*
X128085000Y-54135000D01*
G75*
G02*
X128335000Y-53885000I250000J0D01*
G01*
X128835000Y-53885000D01*
G75*
G02*
X129085000Y-54135000I0J-250000D01*
G01*
X129085000Y-55085000D01*
G75*
G02*
X128835000Y-55335000I-250000J0D01*
G01*
X128335000Y-55335000D01*
G75*
G02*
X128085000Y-55085000I0J250000D01*
G01*
G37*
G36*
G01*
X126185000Y-55085000D02*
X126185000Y-54135000D01*
G75*
G02*
X126435000Y-53885000I250000J0D01*
G01*
X126935000Y-53885000D01*
G75*
G02*
X127185000Y-54135000I0J-250000D01*
G01*
X127185000Y-55085000D01*
G75*
G02*
X126935000Y-55335000I-250000J0D01*
G01*
X126435000Y-55335000D01*
G75*
G02*
X126185000Y-55085000I0J250000D01*
G01*
G37*
G36*
G01*
X128085000Y-52545000D02*
X128085000Y-51595000D01*
G75*
G02*
X128335000Y-51345000I250000J0D01*
G01*
X128835000Y-51345000D01*
G75*
G02*
X129085000Y-51595000I0J-250000D01*
G01*
X129085000Y-52545000D01*
G75*
G02*
X128835000Y-52795000I-250000J0D01*
G01*
X128335000Y-52795000D01*
G75*
G02*
X128085000Y-52545000I0J250000D01*
G01*
G37*
G36*
G01*
X126185000Y-52545000D02*
X126185000Y-51595000D01*
G75*
G02*
X126435000Y-51345000I250000J0D01*
G01*
X126935000Y-51345000D01*
G75*
G02*
X127185000Y-51595000I0J-250000D01*
G01*
X127185000Y-52545000D01*
G75*
G02*
X126935000Y-52795000I-250000J0D01*
G01*
X126435000Y-52795000D01*
G75*
G02*
X126185000Y-52545000I0J250000D01*
G01*
G37*
G36*
G01*
X211612500Y-60129000D02*
X210662500Y-60129000D01*
G75*
G02*
X210412500Y-59879000I0J250000D01*
G01*
X210412500Y-59379000D01*
G75*
G02*
X210662500Y-59129000I250000J0D01*
G01*
X211612500Y-59129000D01*
G75*
G02*
X211862500Y-59379000I0J-250000D01*
G01*
X211862500Y-59879000D01*
G75*
G02*
X211612500Y-60129000I-250000J0D01*
G01*
G37*
G36*
G01*
X211612500Y-62029000D02*
X210662500Y-62029000D01*
G75*
G02*
X210412500Y-61779000I0J250000D01*
G01*
X210412500Y-61279000D01*
G75*
G02*
X210662500Y-61029000I250000J0D01*
G01*
X211612500Y-61029000D01*
G75*
G02*
X211862500Y-61279000I0J-250000D01*
G01*
X211862500Y-61779000D01*
G75*
G02*
X211612500Y-62029000I-250000J0D01*
G01*
G37*
D14*
X147500000Y-127700000D03*
X150000000Y-127700000D03*
X152500000Y-127700000D03*
D15*
X143625000Y-135000000D03*
D14*
X152500000Y-142000000D03*
X147500000Y-142000000D03*
D15*
X156375000Y-135000000D03*
D16*
X145000000Y-142900000D03*
X155000000Y-142900000D03*
X145000000Y-127100000D03*
X155000000Y-127100000D03*
G36*
G01*
X121445000Y-47694000D02*
X122395000Y-47694000D01*
G75*
G02*
X122645000Y-47944000I0J-250000D01*
G01*
X122645000Y-48444000D01*
G75*
G02*
X122395000Y-48694000I-250000J0D01*
G01*
X121445000Y-48694000D01*
G75*
G02*
X121195000Y-48444000I0J250000D01*
G01*
X121195000Y-47944000D01*
G75*
G02*
X121445000Y-47694000I250000J0D01*
G01*
G37*
G36*
G01*
X121445000Y-45794000D02*
X122395000Y-45794000D01*
G75*
G02*
X122645000Y-46044000I0J-250000D01*
G01*
X122645000Y-46544000D01*
G75*
G02*
X122395000Y-46794000I-250000J0D01*
G01*
X121445000Y-46794000D01*
G75*
G02*
X121195000Y-46544000I0J250000D01*
G01*
X121195000Y-46044000D01*
G75*
G02*
X121445000Y-45794000I250000J0D01*
G01*
G37*
G36*
G01*
X174610000Y-95019000D02*
X174610000Y-94719000D01*
G75*
G02*
X174760000Y-94569000I150000J0D01*
G01*
X176510000Y-94569000D01*
G75*
G02*
X176660000Y-94719000I0J-150000D01*
G01*
X176660000Y-95019000D01*
G75*
G02*
X176510000Y-95169000I-150000J0D01*
G01*
X174760000Y-95169000D01*
G75*
G02*
X174610000Y-95019000I0J150000D01*
G01*
G37*
G36*
G01*
X174610000Y-93749000D02*
X174610000Y-93449000D01*
G75*
G02*
X174760000Y-93299000I150000J0D01*
G01*
X176510000Y-93299000D01*
G75*
G02*
X176660000Y-93449000I0J-150000D01*
G01*
X176660000Y-93749000D01*
G75*
G02*
X176510000Y-93899000I-150000J0D01*
G01*
X174760000Y-93899000D01*
G75*
G02*
X174610000Y-93749000I0J150000D01*
G01*
G37*
G36*
G01*
X174610000Y-92479000D02*
X174610000Y-92179000D01*
G75*
G02*
X174760000Y-92029000I150000J0D01*
G01*
X176510000Y-92029000D01*
G75*
G02*
X176660000Y-92179000I0J-150000D01*
G01*
X176660000Y-92479000D01*
G75*
G02*
X176510000Y-92629000I-150000J0D01*
G01*
X174760000Y-92629000D01*
G75*
G02*
X174610000Y-92479000I0J150000D01*
G01*
G37*
G36*
G01*
X174610000Y-91209000D02*
X174610000Y-90909000D01*
G75*
G02*
X174760000Y-90759000I150000J0D01*
G01*
X176510000Y-90759000D01*
G75*
G02*
X176660000Y-90909000I0J-150000D01*
G01*
X176660000Y-91209000D01*
G75*
G02*
X176510000Y-91359000I-150000J0D01*
G01*
X174760000Y-91359000D01*
G75*
G02*
X174610000Y-91209000I0J150000D01*
G01*
G37*
G36*
G01*
X174610000Y-89939000D02*
X174610000Y-89639000D01*
G75*
G02*
X174760000Y-89489000I150000J0D01*
G01*
X176510000Y-89489000D01*
G75*
G02*
X176660000Y-89639000I0J-150000D01*
G01*
X176660000Y-89939000D01*
G75*
G02*
X176510000Y-90089000I-150000J0D01*
G01*
X174760000Y-90089000D01*
G75*
G02*
X174610000Y-89939000I0J150000D01*
G01*
G37*
G36*
G01*
X174610000Y-88669000D02*
X174610000Y-88369000D01*
G75*
G02*
X174760000Y-88219000I150000J0D01*
G01*
X176510000Y-88219000D01*
G75*
G02*
X176660000Y-88369000I0J-150000D01*
G01*
X176660000Y-88669000D01*
G75*
G02*
X176510000Y-88819000I-150000J0D01*
G01*
X174760000Y-88819000D01*
G75*
G02*
X174610000Y-88669000I0J150000D01*
G01*
G37*
G36*
G01*
X174610000Y-87399000D02*
X174610000Y-87099000D01*
G75*
G02*
X174760000Y-86949000I150000J0D01*
G01*
X176510000Y-86949000D01*
G75*
G02*
X176660000Y-87099000I0J-150000D01*
G01*
X176660000Y-87399000D01*
G75*
G02*
X176510000Y-87549000I-150000J0D01*
G01*
X174760000Y-87549000D01*
G75*
G02*
X174610000Y-87399000I0J150000D01*
G01*
G37*
G36*
G01*
X174610000Y-86129000D02*
X174610000Y-85829000D01*
G75*
G02*
X174760000Y-85679000I150000J0D01*
G01*
X176510000Y-85679000D01*
G75*
G02*
X176660000Y-85829000I0J-150000D01*
G01*
X176660000Y-86129000D01*
G75*
G02*
X176510000Y-86279000I-150000J0D01*
G01*
X174760000Y-86279000D01*
G75*
G02*
X174610000Y-86129000I0J150000D01*
G01*
G37*
G36*
G01*
X174610000Y-84859000D02*
X174610000Y-84559000D01*
G75*
G02*
X174760000Y-84409000I150000J0D01*
G01*
X176510000Y-84409000D01*
G75*
G02*
X176660000Y-84559000I0J-150000D01*
G01*
X176660000Y-84859000D01*
G75*
G02*
X176510000Y-85009000I-150000J0D01*
G01*
X174760000Y-85009000D01*
G75*
G02*
X174610000Y-84859000I0J150000D01*
G01*
G37*
G36*
G01*
X174610000Y-83589000D02*
X174610000Y-83289000D01*
G75*
G02*
X174760000Y-83139000I150000J0D01*
G01*
X176510000Y-83139000D01*
G75*
G02*
X176660000Y-83289000I0J-150000D01*
G01*
X176660000Y-83589000D01*
G75*
G02*
X176510000Y-83739000I-150000J0D01*
G01*
X174760000Y-83739000D01*
G75*
G02*
X174610000Y-83589000I0J150000D01*
G01*
G37*
G36*
G01*
X174610000Y-82319000D02*
X174610000Y-82019000D01*
G75*
G02*
X174760000Y-81869000I150000J0D01*
G01*
X176510000Y-81869000D01*
G75*
G02*
X176660000Y-82019000I0J-150000D01*
G01*
X176660000Y-82319000D01*
G75*
G02*
X176510000Y-82469000I-150000J0D01*
G01*
X174760000Y-82469000D01*
G75*
G02*
X174610000Y-82319000I0J150000D01*
G01*
G37*
G36*
G01*
X174610000Y-81049000D02*
X174610000Y-80749000D01*
G75*
G02*
X174760000Y-80599000I150000J0D01*
G01*
X176510000Y-80599000D01*
G75*
G02*
X176660000Y-80749000I0J-150000D01*
G01*
X176660000Y-81049000D01*
G75*
G02*
X176510000Y-81199000I-150000J0D01*
G01*
X174760000Y-81199000D01*
G75*
G02*
X174610000Y-81049000I0J150000D01*
G01*
G37*
G36*
G01*
X174610000Y-79779000D02*
X174610000Y-79479000D01*
G75*
G02*
X174760000Y-79329000I150000J0D01*
G01*
X176510000Y-79329000D01*
G75*
G02*
X176660000Y-79479000I0J-150000D01*
G01*
X176660000Y-79779000D01*
G75*
G02*
X176510000Y-79929000I-150000J0D01*
G01*
X174760000Y-79929000D01*
G75*
G02*
X174610000Y-79779000I0J150000D01*
G01*
G37*
G36*
G01*
X174610000Y-78509000D02*
X174610000Y-78209000D01*
G75*
G02*
X174760000Y-78059000I150000J0D01*
G01*
X176510000Y-78059000D01*
G75*
G02*
X176660000Y-78209000I0J-150000D01*
G01*
X176660000Y-78509000D01*
G75*
G02*
X176510000Y-78659000I-150000J0D01*
G01*
X174760000Y-78659000D01*
G75*
G02*
X174610000Y-78509000I0J150000D01*
G01*
G37*
G36*
G01*
X165310000Y-78509000D02*
X165310000Y-78209000D01*
G75*
G02*
X165460000Y-78059000I150000J0D01*
G01*
X167210000Y-78059000D01*
G75*
G02*
X167360000Y-78209000I0J-150000D01*
G01*
X167360000Y-78509000D01*
G75*
G02*
X167210000Y-78659000I-150000J0D01*
G01*
X165460000Y-78659000D01*
G75*
G02*
X165310000Y-78509000I0J150000D01*
G01*
G37*
G36*
G01*
X165310000Y-79779000D02*
X165310000Y-79479000D01*
G75*
G02*
X165460000Y-79329000I150000J0D01*
G01*
X167210000Y-79329000D01*
G75*
G02*
X167360000Y-79479000I0J-150000D01*
G01*
X167360000Y-79779000D01*
G75*
G02*
X167210000Y-79929000I-150000J0D01*
G01*
X165460000Y-79929000D01*
G75*
G02*
X165310000Y-79779000I0J150000D01*
G01*
G37*
G36*
G01*
X165310000Y-81049000D02*
X165310000Y-80749000D01*
G75*
G02*
X165460000Y-80599000I150000J0D01*
G01*
X167210000Y-80599000D01*
G75*
G02*
X167360000Y-80749000I0J-150000D01*
G01*
X167360000Y-81049000D01*
G75*
G02*
X167210000Y-81199000I-150000J0D01*
G01*
X165460000Y-81199000D01*
G75*
G02*
X165310000Y-81049000I0J150000D01*
G01*
G37*
G36*
G01*
X165310000Y-82319000D02*
X165310000Y-82019000D01*
G75*
G02*
X165460000Y-81869000I150000J0D01*
G01*
X167210000Y-81869000D01*
G75*
G02*
X167360000Y-82019000I0J-150000D01*
G01*
X167360000Y-82319000D01*
G75*
G02*
X167210000Y-82469000I-150000J0D01*
G01*
X165460000Y-82469000D01*
G75*
G02*
X165310000Y-82319000I0J150000D01*
G01*
G37*
G36*
G01*
X165310000Y-83589000D02*
X165310000Y-83289000D01*
G75*
G02*
X165460000Y-83139000I150000J0D01*
G01*
X167210000Y-83139000D01*
G75*
G02*
X167360000Y-83289000I0J-150000D01*
G01*
X167360000Y-83589000D01*
G75*
G02*
X167210000Y-83739000I-150000J0D01*
G01*
X165460000Y-83739000D01*
G75*
G02*
X165310000Y-83589000I0J150000D01*
G01*
G37*
G36*
G01*
X165310000Y-84859000D02*
X165310000Y-84559000D01*
G75*
G02*
X165460000Y-84409000I150000J0D01*
G01*
X167210000Y-84409000D01*
G75*
G02*
X167360000Y-84559000I0J-150000D01*
G01*
X167360000Y-84859000D01*
G75*
G02*
X167210000Y-85009000I-150000J0D01*
G01*
X165460000Y-85009000D01*
G75*
G02*
X165310000Y-84859000I0J150000D01*
G01*
G37*
G36*
G01*
X165310000Y-86129000D02*
X165310000Y-85829000D01*
G75*
G02*
X165460000Y-85679000I150000J0D01*
G01*
X167210000Y-85679000D01*
G75*
G02*
X167360000Y-85829000I0J-150000D01*
G01*
X167360000Y-86129000D01*
G75*
G02*
X167210000Y-86279000I-150000J0D01*
G01*
X165460000Y-86279000D01*
G75*
G02*
X165310000Y-86129000I0J150000D01*
G01*
G37*
G36*
G01*
X165310000Y-87399000D02*
X165310000Y-87099000D01*
G75*
G02*
X165460000Y-86949000I150000J0D01*
G01*
X167210000Y-86949000D01*
G75*
G02*
X167360000Y-87099000I0J-150000D01*
G01*
X167360000Y-87399000D01*
G75*
G02*
X167210000Y-87549000I-150000J0D01*
G01*
X165460000Y-87549000D01*
G75*
G02*
X165310000Y-87399000I0J150000D01*
G01*
G37*
G36*
G01*
X165310000Y-88669000D02*
X165310000Y-88369000D01*
G75*
G02*
X165460000Y-88219000I150000J0D01*
G01*
X167210000Y-88219000D01*
G75*
G02*
X167360000Y-88369000I0J-150000D01*
G01*
X167360000Y-88669000D01*
G75*
G02*
X167210000Y-88819000I-150000J0D01*
G01*
X165460000Y-88819000D01*
G75*
G02*
X165310000Y-88669000I0J150000D01*
G01*
G37*
G36*
G01*
X165310000Y-89939000D02*
X165310000Y-89639000D01*
G75*
G02*
X165460000Y-89489000I150000J0D01*
G01*
X167210000Y-89489000D01*
G75*
G02*
X167360000Y-89639000I0J-150000D01*
G01*
X167360000Y-89939000D01*
G75*
G02*
X167210000Y-90089000I-150000J0D01*
G01*
X165460000Y-90089000D01*
G75*
G02*
X165310000Y-89939000I0J150000D01*
G01*
G37*
G36*
G01*
X165310000Y-91209000D02*
X165310000Y-90909000D01*
G75*
G02*
X165460000Y-90759000I150000J0D01*
G01*
X167210000Y-90759000D01*
G75*
G02*
X167360000Y-90909000I0J-150000D01*
G01*
X167360000Y-91209000D01*
G75*
G02*
X167210000Y-91359000I-150000J0D01*
G01*
X165460000Y-91359000D01*
G75*
G02*
X165310000Y-91209000I0J150000D01*
G01*
G37*
G36*
G01*
X165310000Y-92479000D02*
X165310000Y-92179000D01*
G75*
G02*
X165460000Y-92029000I150000J0D01*
G01*
X167210000Y-92029000D01*
G75*
G02*
X167360000Y-92179000I0J-150000D01*
G01*
X167360000Y-92479000D01*
G75*
G02*
X167210000Y-92629000I-150000J0D01*
G01*
X165460000Y-92629000D01*
G75*
G02*
X165310000Y-92479000I0J150000D01*
G01*
G37*
G36*
G01*
X165310000Y-93749000D02*
X165310000Y-93449000D01*
G75*
G02*
X165460000Y-93299000I150000J0D01*
G01*
X167210000Y-93299000D01*
G75*
G02*
X167360000Y-93449000I0J-150000D01*
G01*
X167360000Y-93749000D01*
G75*
G02*
X167210000Y-93899000I-150000J0D01*
G01*
X165460000Y-93899000D01*
G75*
G02*
X165310000Y-93749000I0J150000D01*
G01*
G37*
G36*
G01*
X165310000Y-95019000D02*
X165310000Y-94719000D01*
G75*
G02*
X165460000Y-94569000I150000J0D01*
G01*
X167210000Y-94569000D01*
G75*
G02*
X167360000Y-94719000I0J-150000D01*
G01*
X167360000Y-95019000D01*
G75*
G02*
X167210000Y-95169000I-150000J0D01*
G01*
X165460000Y-95169000D01*
G75*
G02*
X165310000Y-95019000I0J150000D01*
G01*
G37*
D17*
X199525000Y-49475000D03*
X199525000Y-48825000D03*
X199525000Y-48175000D03*
X199525000Y-47525000D03*
X197475000Y-47525000D03*
X197475000Y-48175000D03*
X197475000Y-48825000D03*
X197475000Y-49475000D03*
D18*
X198025000Y-52550000D03*
X198975000Y-54450000D03*
X198025000Y-54450000D03*
X198975000Y-52550000D03*
D19*
X198500000Y-53500000D03*
G36*
G01*
X198740000Y-58095000D02*
X199060000Y-58095000D01*
G75*
G02*
X199220000Y-58255000I0J-160000D01*
G01*
X199220000Y-58745000D01*
G75*
G02*
X199060000Y-58905000I-160000J0D01*
G01*
X198740000Y-58905000D01*
G75*
G02*
X198580000Y-58745000I0J160000D01*
G01*
X198580000Y-58255000D01*
G75*
G02*
X198740000Y-58095000I160000J0D01*
G01*
G37*
G36*
G01*
X197940000Y-58095000D02*
X198260000Y-58095000D01*
G75*
G02*
X198420000Y-58255000I0J-160000D01*
G01*
X198420000Y-58745000D01*
G75*
G02*
X198260000Y-58905000I-160000J0D01*
G01*
X197940000Y-58905000D01*
G75*
G02*
X197780000Y-58745000I0J160000D01*
G01*
X197780000Y-58255000D01*
G75*
G02*
X197940000Y-58095000I160000J0D01*
G01*
G37*
G36*
G01*
X197743750Y-59200000D02*
X197956250Y-59200000D01*
G75*
G02*
X198050000Y-59293750I0J-93750D01*
G01*
X198050000Y-59481250D01*
G75*
G02*
X197956250Y-59575000I-93750J0D01*
G01*
X197743750Y-59575000D01*
G75*
G02*
X197650000Y-59481250I0J93750D01*
G01*
X197650000Y-59293750D01*
G75*
G02*
X197743750Y-59200000I93750J0D01*
G01*
G37*
G36*
G01*
X198393750Y-59200000D02*
X198606250Y-59200000D01*
G75*
G02*
X198700000Y-59293750I0J-93750D01*
G01*
X198700000Y-59481250D01*
G75*
G02*
X198606250Y-59575000I-93750J0D01*
G01*
X198393750Y-59575000D01*
G75*
G02*
X198300000Y-59481250I0J93750D01*
G01*
X198300000Y-59293750D01*
G75*
G02*
X198393750Y-59200000I93750J0D01*
G01*
G37*
G36*
G01*
X199043750Y-59200000D02*
X199256250Y-59200000D01*
G75*
G02*
X199350000Y-59293750I0J-93750D01*
G01*
X199350000Y-59481250D01*
G75*
G02*
X199256250Y-59575000I-93750J0D01*
G01*
X199043750Y-59575000D01*
G75*
G02*
X198950000Y-59481250I0J93750D01*
G01*
X198950000Y-59293750D01*
G75*
G02*
X199043750Y-59200000I93750J0D01*
G01*
G37*
G36*
G01*
X199043750Y-57425000D02*
X199256250Y-57425000D01*
G75*
G02*
X199350000Y-57518750I0J-93750D01*
G01*
X199350000Y-57706250D01*
G75*
G02*
X199256250Y-57800000I-93750J0D01*
G01*
X199043750Y-57800000D01*
G75*
G02*
X198950000Y-57706250I0J93750D01*
G01*
X198950000Y-57518750D01*
G75*
G02*
X199043750Y-57425000I93750J0D01*
G01*
G37*
G36*
G01*
X198393750Y-57425000D02*
X198606250Y-57425000D01*
G75*
G02*
X198700000Y-57518750I0J-93750D01*
G01*
X198700000Y-57706250D01*
G75*
G02*
X198606250Y-57800000I-93750J0D01*
G01*
X198393750Y-57800000D01*
G75*
G02*
X198300000Y-57706250I0J93750D01*
G01*
X198300000Y-57518750D01*
G75*
G02*
X198393750Y-57425000I93750J0D01*
G01*
G37*
G36*
G01*
X197743750Y-57425000D02*
X197956250Y-57425000D01*
G75*
G02*
X198050000Y-57518750I0J-93750D01*
G01*
X198050000Y-57706250D01*
G75*
G02*
X197956250Y-57800000I-93750J0D01*
G01*
X197743750Y-57800000D01*
G75*
G02*
X197650000Y-57706250I0J93750D01*
G01*
X197650000Y-57518750D01*
G75*
G02*
X197743750Y-57425000I93750J0D01*
G01*
G37*
G36*
G01*
X91255000Y-91280000D02*
X91255000Y-90330000D01*
G75*
G02*
X91505000Y-90080000I250000J0D01*
G01*
X92005000Y-90080000D01*
G75*
G02*
X92255000Y-90330000I0J-250000D01*
G01*
X92255000Y-91280000D01*
G75*
G02*
X92005000Y-91530000I-250000J0D01*
G01*
X91505000Y-91530000D01*
G75*
G02*
X91255000Y-91280000I0J250000D01*
G01*
G37*
G36*
G01*
X89355000Y-91280000D02*
X89355000Y-90330000D01*
G75*
G02*
X89605000Y-90080000I250000J0D01*
G01*
X90105000Y-90080000D01*
G75*
G02*
X90355000Y-90330000I0J-250000D01*
G01*
X90355000Y-91280000D01*
G75*
G02*
X90105000Y-91530000I-250000J0D01*
G01*
X89605000Y-91530000D01*
G75*
G02*
X89355000Y-91280000I0J250000D01*
G01*
G37*
D20*
X89535000Y-82550000D03*
D21*
X91440000Y-79850000D03*
X90170000Y-79850000D03*
X88900000Y-79850000D03*
X87630000Y-79850000D03*
X87630000Y-85250000D03*
X88900000Y-85250000D03*
X90170000Y-85250000D03*
X91440000Y-85250000D03*
G36*
G01*
X104075001Y-107430000D02*
X99124999Y-107430000D01*
G75*
G02*
X98875000Y-107180001I0J249999D01*
G01*
X98875000Y-105754999D01*
G75*
G02*
X99124999Y-105505000I249999J0D01*
G01*
X104075001Y-105505000D01*
G75*
G02*
X104325000Y-105754999I0J-249999D01*
G01*
X104325000Y-107180001D01*
G75*
G02*
X104075001Y-107430000I-249999J0D01*
G01*
G37*
G36*
G01*
X104075001Y-114205000D02*
X99124999Y-114205000D01*
G75*
G02*
X98875000Y-113955001I0J249999D01*
G01*
X98875000Y-112529999D01*
G75*
G02*
X99124999Y-112280000I249999J0D01*
G01*
X104075001Y-112280000D01*
G75*
G02*
X104325000Y-112529999I0J-249999D01*
G01*
X104325000Y-113955001D01*
G75*
G02*
X104075001Y-114205000I-249999J0D01*
G01*
G37*
G36*
G01*
X202475000Y-53050000D02*
X201525000Y-53050000D01*
G75*
G02*
X201275000Y-52800000I0J250000D01*
G01*
X201275000Y-52300000D01*
G75*
G02*
X201525000Y-52050000I250000J0D01*
G01*
X202475000Y-52050000D01*
G75*
G02*
X202725000Y-52300000I0J-250000D01*
G01*
X202725000Y-52800000D01*
G75*
G02*
X202475000Y-53050000I-250000J0D01*
G01*
G37*
G36*
G01*
X202475000Y-54950000D02*
X201525000Y-54950000D01*
G75*
G02*
X201275000Y-54700000I0J250000D01*
G01*
X201275000Y-54200000D01*
G75*
G02*
X201525000Y-53950000I250000J0D01*
G01*
X202475000Y-53950000D01*
G75*
G02*
X202725000Y-54200000I0J-250000D01*
G01*
X202725000Y-54700000D01*
G75*
G02*
X202475000Y-54950000I-250000J0D01*
G01*
G37*
G36*
G01*
X195475000Y-48050000D02*
X194525000Y-48050000D01*
G75*
G02*
X194275000Y-47800000I0J250000D01*
G01*
X194275000Y-47300000D01*
G75*
G02*
X194525000Y-47050000I250000J0D01*
G01*
X195475000Y-47050000D01*
G75*
G02*
X195725000Y-47300000I0J-250000D01*
G01*
X195725000Y-47800000D01*
G75*
G02*
X195475000Y-48050000I-250000J0D01*
G01*
G37*
G36*
G01*
X195475000Y-49950000D02*
X194525000Y-49950000D01*
G75*
G02*
X194275000Y-49700000I0J250000D01*
G01*
X194275000Y-49200000D01*
G75*
G02*
X194525000Y-48950000I250000J0D01*
G01*
X195475000Y-48950000D01*
G75*
G02*
X195725000Y-49200000I0J-250000D01*
G01*
X195725000Y-49700000D01*
G75*
G02*
X195475000Y-49950000I-250000J0D01*
G01*
G37*
G36*
G01*
X202475000Y-48050000D02*
X201525000Y-48050000D01*
G75*
G02*
X201275000Y-47800000I0J250000D01*
G01*
X201275000Y-47300000D01*
G75*
G02*
X201525000Y-47050000I250000J0D01*
G01*
X202475000Y-47050000D01*
G75*
G02*
X202725000Y-47300000I0J-250000D01*
G01*
X202725000Y-47800000D01*
G75*
G02*
X202475000Y-48050000I-250000J0D01*
G01*
G37*
G36*
G01*
X202475000Y-49950000D02*
X201525000Y-49950000D01*
G75*
G02*
X201275000Y-49700000I0J250000D01*
G01*
X201275000Y-49200000D01*
G75*
G02*
X201525000Y-48950000I250000J0D01*
G01*
X202475000Y-48950000D01*
G75*
G02*
X202725000Y-49200000I0J-250000D01*
G01*
X202725000Y-49700000D01*
G75*
G02*
X202475000Y-49950000I-250000J0D01*
G01*
G37*
G36*
G01*
X202475000Y-58050000D02*
X201525000Y-58050000D01*
G75*
G02*
X201275000Y-57800000I0J250000D01*
G01*
X201275000Y-57300000D01*
G75*
G02*
X201525000Y-57050000I250000J0D01*
G01*
X202475000Y-57050000D01*
G75*
G02*
X202725000Y-57300000I0J-250000D01*
G01*
X202725000Y-57800000D01*
G75*
G02*
X202475000Y-58050000I-250000J0D01*
G01*
G37*
G36*
G01*
X202475000Y-59950000D02*
X201525000Y-59950000D01*
G75*
G02*
X201275000Y-59700000I0J250000D01*
G01*
X201275000Y-59200000D01*
G75*
G02*
X201525000Y-58950000I250000J0D01*
G01*
X202475000Y-58950000D01*
G75*
G02*
X202725000Y-59200000I0J-250000D01*
G01*
X202725000Y-59700000D01*
G75*
G02*
X202475000Y-59950000I-250000J0D01*
G01*
G37*
G36*
G01*
X91255000Y-93820000D02*
X91255000Y-92870000D01*
G75*
G02*
X91505000Y-92620000I250000J0D01*
G01*
X92005000Y-92620000D01*
G75*
G02*
X92255000Y-92870000I0J-250000D01*
G01*
X92255000Y-93820000D01*
G75*
G02*
X92005000Y-94070000I-250000J0D01*
G01*
X91505000Y-94070000D01*
G75*
G02*
X91255000Y-93820000I0J250000D01*
G01*
G37*
G36*
G01*
X89355000Y-93820000D02*
X89355000Y-92870000D01*
G75*
G02*
X89605000Y-92620000I250000J0D01*
G01*
X90105000Y-92620000D01*
G75*
G02*
X90355000Y-92870000I0J-250000D01*
G01*
X90355000Y-93820000D01*
G75*
G02*
X90105000Y-94070000I-250000J0D01*
G01*
X89605000Y-94070000D01*
G75*
G02*
X89355000Y-93820000I0J250000D01*
G01*
G37*
G36*
G01*
X163924000Y-83497000D02*
X162974000Y-83497000D01*
G75*
G02*
X162724000Y-83247000I0J250000D01*
G01*
X162724000Y-82747000D01*
G75*
G02*
X162974000Y-82497000I250000J0D01*
G01*
X163924000Y-82497000D01*
G75*
G02*
X164174000Y-82747000I0J-250000D01*
G01*
X164174000Y-83247000D01*
G75*
G02*
X163924000Y-83497000I-250000J0D01*
G01*
G37*
G36*
G01*
X163924000Y-85397000D02*
X162974000Y-85397000D01*
G75*
G02*
X162724000Y-85147000I0J250000D01*
G01*
X162724000Y-84647000D01*
G75*
G02*
X162974000Y-84397000I250000J0D01*
G01*
X163924000Y-84397000D01*
G75*
G02*
X164174000Y-84647000I0J-250000D01*
G01*
X164174000Y-85147000D01*
G75*
G02*
X163924000Y-85397000I-250000J0D01*
G01*
G37*
G36*
G01*
X91890000Y-77310000D02*
X91890000Y-76360000D01*
G75*
G02*
X92140000Y-76110000I250000J0D01*
G01*
X92640000Y-76110000D01*
G75*
G02*
X92890000Y-76360000I0J-250000D01*
G01*
X92890000Y-77310000D01*
G75*
G02*
X92640000Y-77560000I-250000J0D01*
G01*
X92140000Y-77560000D01*
G75*
G02*
X91890000Y-77310000I0J250000D01*
G01*
G37*
G36*
G01*
X89990000Y-77310000D02*
X89990000Y-76360000D01*
G75*
G02*
X90240000Y-76110000I250000J0D01*
G01*
X90740000Y-76110000D01*
G75*
G02*
X90990000Y-76360000I0J-250000D01*
G01*
X90990000Y-77310000D01*
G75*
G02*
X90740000Y-77560000I-250000J0D01*
G01*
X90240000Y-77560000D01*
G75*
G02*
X89990000Y-77310000I0J250000D01*
G01*
G37*
G36*
G01*
X87180000Y-76360000D02*
X87180000Y-77310000D01*
G75*
G02*
X86930000Y-77560000I-250000J0D01*
G01*
X86430000Y-77560000D01*
G75*
G02*
X86180000Y-77310000I0J250000D01*
G01*
X86180000Y-76360000D01*
G75*
G02*
X86430000Y-76110000I250000J0D01*
G01*
X86930000Y-76110000D01*
G75*
G02*
X87180000Y-76360000I0J-250000D01*
G01*
G37*
G36*
G01*
X89080000Y-76360000D02*
X89080000Y-77310000D01*
G75*
G02*
X88830000Y-77560000I-250000J0D01*
G01*
X88330000Y-77560000D01*
G75*
G02*
X88080000Y-77310000I0J250000D01*
G01*
X88080000Y-76360000D01*
G75*
G02*
X88330000Y-76110000I250000J0D01*
G01*
X88830000Y-76110000D01*
G75*
G02*
X89080000Y-76360000I0J-250000D01*
G01*
G37*
G36*
G01*
X91255000Y-88740000D02*
X91255000Y-87790000D01*
G75*
G02*
X91505000Y-87540000I250000J0D01*
G01*
X92005000Y-87540000D01*
G75*
G02*
X92255000Y-87790000I0J-250000D01*
G01*
X92255000Y-88740000D01*
G75*
G02*
X92005000Y-88990000I-250000J0D01*
G01*
X91505000Y-88990000D01*
G75*
G02*
X91255000Y-88740000I0J250000D01*
G01*
G37*
G36*
G01*
X89355000Y-88740000D02*
X89355000Y-87790000D01*
G75*
G02*
X89605000Y-87540000I250000J0D01*
G01*
X90105000Y-87540000D01*
G75*
G02*
X90355000Y-87790000I0J-250000D01*
G01*
X90355000Y-88740000D01*
G75*
G02*
X90105000Y-88990000I-250000J0D01*
G01*
X89605000Y-88990000D01*
G75*
G02*
X89355000Y-88740000I0J250000D01*
G01*
G37*
D22*
X92515000Y-106305000D03*
X96615000Y-106305000D03*
X96615000Y-100605000D03*
X92515000Y-100605000D03*
M02*
