M48
; DRILL file {KiCad (5.1.8-0-10_14)} date Thursday, December 03, 2020 at 10:49:31 PM
; FORMAT={-:-/ absolute / inch / decimal}
; #@! TF.CreationDate,2020-12-03T22:49:31-06:00
; #@! TF.GenerationSoftware,Kicad,Pcbnew,(5.1.8-0-10_14)
; #@! TF.FileFunction,Plated,1,2,PTH
FMAT,2
INCH
T1C0.0118
T2C0.0157
T3C0.0197
T4C0.0236
T5C0.0315
T6C0.0354
T7C0.0390
T8C0.0394
T9C0.0472
T10C0.0512
T11C0.1260
%
G90
G05
T1
X3.4482Y-3.2244
X3.4482Y-3.2756
X3.4994Y-3.2244
X3.4994Y-3.2756
X3.5506Y-3.2244
X3.5506Y-3.2756
X3.6018Y-3.2244
X3.6018Y-3.2756
X4.2853Y-2.0415
X4.2853Y-2.0809
X4.2853Y-2.1203
X4.2853Y-2.1596
X4.2853Y-2.199
X4.3246Y-2.0415
X4.3246Y-2.0809
X4.3246Y-2.1203
X4.3246Y-2.1596
X4.3246Y-2.199
X4.364Y-2.0415
X4.364Y-2.0809
X4.364Y-2.1203
X4.364Y-2.1596
X4.364Y-2.199
X4.4034Y-2.0415
X4.4034Y-2.0809
X4.4034Y-2.1203
X4.4034Y-2.1596
X4.4034Y-2.199
X4.4428Y-2.0415
X4.4428Y-2.0809
X4.4428Y-2.1203
X4.4428Y-2.1596
X4.4428Y-2.199
T2
X3.425Y-2.605
X3.425Y-3.075
X3.45Y-3.5256
X3.465Y-3.78
X3.465Y-4.015
X3.515Y-3.78
X3.515Y-4.015
X3.565Y-3.78
X3.565Y-4.015
X3.615Y-3.78
X3.615Y-4.015
X3.625Y-2.725
X3.625Y-3.04
X3.625Y-3.09
X3.625Y-3.14
X3.675Y-3.14
X3.715Y-3.495
X3.725Y-3.14
X3.75Y-2.375
X3.75Y-2.475
X3.75Y-2.575
X3.765Y-3.495
X3.775Y-3.14
X3.815Y-3.395
X3.815Y-3.445
X3.815Y-3.495
X3.825Y-3.14
X3.865Y-3.495
X3.875Y-3.14
X3.92Y-2.295
X3.925Y-1.975
X3.925Y-2.025
X3.925Y-3.04
X3.925Y-3.09
X3.925Y-3.14
X3.925Y-3.775
X3.925Y-4.075
X3.94Y-3.495
X3.975Y-3.775
X3.975Y-4.075
X3.99Y-3.395
X3.99Y-3.395
X3.99Y-3.445
X3.99Y-3.495
X4.025Y-3.775
X4.025Y-4.075
X4.04Y-3.495
X4.055Y-2.05
X4.075Y-3.775
X4.075Y-4.075
X4.085Y-2.025
X4.115Y-2.075
X4.125Y-3.775
X4.125Y-4.075
X4.15Y-2.625
X4.15Y-2.75
X4.15Y-2.875
X4.19Y-2.43
X4.215Y-2.46
X4.26Y-2.54
X4.4Y-2.4
X4.4Y-2.5
X4.4Y-2.75
X4.4Y-2.875
X4.525Y-2.4
X4.525Y-2.5
X4.595Y-2.375
X4.6Y-2.175
X4.605Y-1.925
X4.65Y-2.875
X4.715Y-2.325
X4.725Y-2.225
X4.725Y-2.525
X4.795Y-2.4
X4.85Y-2.22
X4.875Y-2.525
X4.9Y-2.875
X4.915Y-2.325
X5.01Y-2.25
X5.0625Y-2.1
X5.125Y-2.125
X5.15Y-2.155
X5.15Y-2.875
X5.2Y-2.175
X5.275Y-3.45
X5.325Y-2.175
X5.4Y-2.875
X5.41Y-2.225
X5.455Y-2.81
X5.475Y-2.25
X5.595Y-2.55
X5.6Y-5.175
X5.675Y-2.175
X5.9Y-2.425
X5.9Y-2.875
X5.9055Y-5.5906
X6.055Y-3.04
X6.06Y-2.665
X6.065Y-2.375
X6.105Y-3.04
X6.13Y-2.695
X6.2Y-5.175
X6.25Y-2.825
X6.45Y-2.275
X6.48Y-2.9
X6.4898Y-2.3252
X6.575Y-2.825
X6.605Y-3.335
X6.675Y-2.35
X6.675Y-3.225
X6.715Y-2.575
X6.735Y-3.865
X6.755Y-2.65
X6.755Y-3.465
X6.775Y-3.585
X6.79Y-3.865
X6.8Y-3.645
X6.805Y-2.25
X6.825Y-3.615
X6.85Y-3.7
X6.95Y-2.175
X6.98Y-3.535
X6.98Y-3.585
X6.98Y-3.635
X6.98Y-3.685
X7.0Y-2.875
X7.0Y-3.025
X7.0Y-3.15
X7.0Y-3.275
X7.04Y-2.255
X7.1Y-3.55
X7.125Y-2.775
X7.13Y-2.355
X7.16Y-2.715
X7.28Y-2.345
X7.35Y-3.55
X7.375Y-3.225
X7.4783Y-3.0567
X7.525Y-3.975
X7.6Y-3.55
X7.675Y-2.6
X7.7189Y-1.8711
X7.7375Y-3.9025
X7.7598Y-2.305
X7.815Y-2.7618
X7.83Y-1.985
X7.85Y-3.05
X7.8661Y-2.4016
X7.8666Y-2.3352
X7.8935Y-1.9565
X7.9063Y-2.1437
X7.99Y-2.6
X8.35Y-3.55
X8.35Y-3.8
T3
X3.645Y-2.865
X6.4Y-3.1
X6.65Y-2.875
X7.12Y-2.57
X8.2323Y-2.0276
X8.26Y-1.9607
X8.26Y-2.0944
X8.3268Y-1.9331
X8.3268Y-2.122
X8.3936Y-1.9607
X8.3936Y-2.0944
X8.4213Y-2.0276
X5.811Y-2.0276
X5.8387Y-1.9607
X5.8387Y-2.0944
X5.9055Y-1.9331
X5.9055Y-2.122
X5.9723Y-1.9607
X5.9723Y-2.0944
X6.0Y-2.0276
X8.2323Y-5.4528
X8.26Y-5.3859
X8.26Y-5.5196
X8.3268Y-5.3583
X8.3268Y-5.5472
X8.3936Y-5.3859
X8.3936Y-5.5196
X8.4213Y-5.4528
X3.3898Y-2.0276
X3.4174Y-1.9607
X3.4174Y-2.0944
X3.4843Y-1.9331
X3.4843Y-2.122
X3.5511Y-1.9607
X3.5511Y-2.0944
X3.5787Y-2.0276
X3.3898Y-5.4528
X3.4174Y-5.3859
X3.4174Y-5.5196
X3.4843Y-5.3583
X3.4843Y-5.5472
X3.5511Y-5.3859
X3.5511Y-5.5196
X3.5787Y-5.4528
T4
X3.875Y-1.875
X6.225Y-3.1
X6.5Y-2.775
X6.85Y-2.775
T5
X3.6031Y-4.3291
X3.8Y-4.4
T6
X3.6Y-2.275
X3.6Y-2.375
T7
X8.45Y-2.2978
X8.45Y-2.475
X8.45Y-2.6978
X8.45Y-2.875
T8
X4.95Y-4.5575
X4.95Y-4.65
X4.95Y-4.7425
X4.95Y-3.2075
X4.95Y-3.3
X4.95Y-3.3925
X3.825Y-4.65
X3.825Y-4.75
X3.925Y-4.65
X3.925Y-4.75
X4.025Y-4.65
X4.025Y-4.75
X4.125Y-4.65
X4.125Y-4.75
X6.3Y-1.875
X6.4Y-1.875
X6.5Y-1.875
X6.6Y-1.875
X5.6Y-3.2575
X5.6Y-3.35
X5.6Y-3.4425
X4.95Y-4.1075
X4.95Y-4.2
X4.95Y-4.2925
X5.7547Y-5.4567
X5.8547Y-5.4567
X5.9547Y-5.4567
X6.0547Y-5.4567
X5.4055Y-2.752
X5.5055Y-2.752
X5.6055Y-2.752
X5.7055Y-2.752
X5.8055Y-2.752
X5.9055Y-2.752
X6.0055Y-2.752
X6.1055Y-2.752
X6.2055Y-2.752
X6.3055Y-2.752
X6.4055Y-2.752
X5.6Y-3.7075
X5.6Y-3.8
X5.6Y-3.8925
X7.35Y-1.875
X7.35Y-1.975
X4.9543Y-2.5
X5.0543Y-2.5
X5.1543Y-2.5
X5.2543Y-2.5
X5.3543Y-2.5
X5.4543Y-2.5
X5.5543Y-2.5
X5.6543Y-2.5
X5.7543Y-2.5
X5.8543Y-2.5
X5.9543Y-2.5
X6.0543Y-2.5
X6.1543Y-2.5
X6.2543Y-2.5
X6.3543Y-2.5
X6.4543Y-2.5
X6.5543Y-2.5
X6.6543Y-2.5
X6.7543Y-2.5
X6.8543Y-2.5
X6.825Y-1.875
X6.925Y-1.875
X7.025Y-1.875
X7.125Y-1.875
X7.35Y-2.175
X7.35Y-2.275
X7.35Y-2.375
X7.35Y-2.475
X5.6Y-4.1575
X5.6Y-4.25
X5.6Y-4.3425
X4.95Y-3.6575
X4.95Y-3.75
X4.95Y-3.8425
X5.025Y-1.875
X5.125Y-1.875
X5.225Y-1.875
X5.325Y-1.875
X5.425Y-1.875
X5.525Y-1.875
X8.4843Y-3.0906
X8.4843Y-3.1906
X8.4843Y-3.2906
X8.4843Y-3.3906
X8.4843Y-3.4906
X8.4843Y-3.5906
X8.4843Y-3.6906
X8.4843Y-3.7906
X8.4843Y-3.8906
X8.4843Y-3.9906
X8.4843Y-4.0906
X8.4843Y-4.1906
X8.4843Y-4.2906
X8.4843Y-4.3906
X8.4843Y-4.4906
X8.4843Y-4.5906
X8.4843Y-4.6906
X8.4843Y-4.7906
X5.6Y-4.6075
X5.6Y-4.7
X5.6Y-4.7925
X3.35Y-2.275
X3.35Y-2.375
X3.35Y-2.475
X3.35Y-2.575
X3.35Y-2.675
X3.35Y-2.775
T9
X3.9075Y-5.2165
X3.9075Y-5.4134
X4.0453Y-5.2165
X4.0453Y-5.4134
X4.1831Y-5.2165
X4.1831Y-5.4134
X4.3209Y-5.2165
X4.3209Y-5.4134
X4.4587Y-5.2165
X4.4587Y-5.4134
X4.5965Y-5.2165
X4.5965Y-5.4134
X4.7343Y-5.2165
X4.7343Y-5.4134
X4.872Y-5.2165
X4.872Y-5.4134
X5.0098Y-5.2165
X5.0098Y-5.4134
X5.1476Y-5.2165
X5.1476Y-5.4134
X5.2854Y-5.2165
X5.2854Y-5.4134
X5.4232Y-5.2165
X5.4232Y-5.4134
X6.3878Y-5.2165
X6.3878Y-5.4134
X6.5256Y-5.2165
X6.5256Y-5.4134
X6.6634Y-5.2165
X6.6634Y-5.4134
X6.8012Y-5.2165
X6.8012Y-5.4134
X6.939Y-5.2165
X6.939Y-5.4134
X7.0768Y-5.2165
X7.0768Y-5.4134
X7.2146Y-5.2165
X7.2146Y-5.4134
X7.3524Y-5.2165
X7.3524Y-5.4134
X7.4902Y-5.2165
X7.4902Y-5.4134
X7.628Y-5.2165
X7.628Y-5.4134
X7.7657Y-5.2165
X7.7657Y-5.4134
X7.9035Y-5.2165
X7.9035Y-5.4134
T10
X8.352Y-2.2486
X8.352Y-2.5246
X8.352Y-2.6486
X8.352Y-2.9246
X6.5Y-4.175
X6.5Y-4.575
X6.5Y-4.875
X6.8Y-4.175
X6.8Y-4.775
X7.025Y-4.175
X7.025Y-4.575
X7.025Y-4.875
X7.325Y-4.175
X7.325Y-4.775
X7.55Y-4.175
X7.55Y-4.575
X7.55Y-4.875
X7.85Y-4.175
X7.85Y-4.775
T11
X8.3268Y-2.0276
X5.9055Y-2.0276
X8.3268Y-5.4528
X3.4843Y-2.0276
X3.4843Y-5.4528
T8
G00X3.4388Y-5.0
M15
G01X3.4388Y-5.0787
M16
G05
G00X3.5175Y-5.2244
M15
G01X3.5963Y-5.2244
M16
G05
G00X3.675Y-5.0
M15
G01X3.675Y-5.0787
M16
G05
T0
M30
