M48
; DRILL file {KiCad (5.1.9-0-10_14)} date Thursday, March 25, 2021 at 01:17:29 AM
; FORMAT={-:-/ absolute / inch / decimal}
; #@! TF.CreationDate,2021-03-25T01:17:29-05:00
; #@! TF.GenerationSoftware,Kicad,Pcbnew,(5.1.9-0-10_14)
; #@! TF.FileFunction,NonPlated,1,2,NPTH
FMAT,2
INCH
T1C0.0630
T2C0.0709
T3C0.0827
T4C0.1969
%
G90
G05
T3
X5.9055Y-5.315
T4
X7.815Y-2.5591
T1
G00X5.9055Y-5.124
M15
G01X5.9055Y-5.1516
M16
G05
T2
G00X7.7165Y-2.9646
M15
G01X7.7165Y-2.9409
M16
G05
G00X7.7165Y-3.1614
M15
G01X7.7165Y-3.1378
M16
G05
G00X7.7165Y-3.3583
M15
G01X7.7165Y-3.3346
M16
G05
G00X8.1102Y-2.7441
M15
G01X8.1102Y-2.7677
M16
G05
G00X8.1102Y-2.9409
M15
G01X8.1102Y-2.9646
M16
G05
G00X8.1102Y-3.1378
M15
G01X8.1102Y-3.1614
M16
G05
G00X8.1102Y-3.3346
M15
G01X8.1102Y-3.3583
M16
G05
G00X8.1102Y-3.5315
M15
G01X8.1102Y-3.5551
M16
G05
G00X8.1102Y-3.7283
M15
G01X8.1102Y-3.752
M16
G05
G00X8.1102Y-3.9252
M15
G01X8.1102Y-3.9488
M16
G05
G00X8.1102Y-4.122
M15
G01X8.1102Y-4.1457
M16
G05
G00X8.1102Y-4.3425
M15
G01X8.1102Y-4.3189
M16
G05
G00X8.1102Y-4.5394
M15
G01X8.1102Y-4.5157
M16
G05
G00X8.1102Y-4.7362
M15
G01X8.1102Y-4.7126
M16
G05
T0
M30
