G04 #@! TF.GenerationSoftware,KiCad,Pcbnew,(5.1.9-0-10_14)*
G04 #@! TF.CreationDate,2021-03-25T01:17:32-05:00*
G04 #@! TF.ProjectId,ClimateSprinklerController,436c696d-6174-4655-9370-72696e6b6c65,rev?*
G04 #@! TF.SameCoordinates,Original*
G04 #@! TF.FileFunction,Paste,Top*
G04 #@! TF.FilePolarity,Positive*
%FSLAX46Y46*%
G04 Gerber Fmt 4.6, Leading zero omitted, Abs format (unit mm)*
G04 Created by KiCad (PCBNEW (5.1.9-0-10_14)) date 2021-03-25 01:17:32*
%MOMM*%
%LPD*%
G01*
G04 APERTURE LIST*
%ADD10R,5.400000X2.900000*%
%ADD11R,2.000000X1.780000*%
%ADD12R,2.750000X3.050000*%
%ADD13R,1.200000X2.200000*%
%ADD14R,0.800000X0.900000*%
%ADD15R,0.900000X1.200000*%
G04 APERTURE END LIST*
G36*
G01*
X201050000Y-102049999D02*
X201050000Y-102950001D01*
G75*
G02*
X200800001Y-103200000I-249999J0D01*
G01*
X200149999Y-103200000D01*
G75*
G02*
X199900000Y-102950001I0J249999D01*
G01*
X199900000Y-102049999D01*
G75*
G02*
X200149999Y-101800000I249999J0D01*
G01*
X200800001Y-101800000D01*
G75*
G02*
X201050000Y-102049999I0J-249999D01*
G01*
G37*
G36*
G01*
X203100000Y-102049999D02*
X203100000Y-102950001D01*
G75*
G02*
X202850001Y-103200000I-249999J0D01*
G01*
X202199999Y-103200000D01*
G75*
G02*
X201950000Y-102950001I0J249999D01*
G01*
X201950000Y-102049999D01*
G75*
G02*
X202199999Y-101800000I249999J0D01*
G01*
X202850001Y-101800000D01*
G75*
G02*
X203100000Y-102049999I0J-249999D01*
G01*
G37*
G36*
G01*
X201050000Y-99549999D02*
X201050000Y-100450001D01*
G75*
G02*
X200800001Y-100700000I-249999J0D01*
G01*
X200149999Y-100700000D01*
G75*
G02*
X199900000Y-100450001I0J249999D01*
G01*
X199900000Y-99549999D01*
G75*
G02*
X200149999Y-99300000I249999J0D01*
G01*
X200800001Y-99300000D01*
G75*
G02*
X201050000Y-99549999I0J-249999D01*
G01*
G37*
G36*
G01*
X203100000Y-99549999D02*
X203100000Y-100450001D01*
G75*
G02*
X202850001Y-100700000I-249999J0D01*
G01*
X202199999Y-100700000D01*
G75*
G02*
X201950000Y-100450001I0J249999D01*
G01*
X201950000Y-99549999D01*
G75*
G02*
X202199999Y-99300000I249999J0D01*
G01*
X202850001Y-99300000D01*
G75*
G02*
X203100000Y-99549999I0J-249999D01*
G01*
G37*
G36*
G01*
X201050000Y-94549999D02*
X201050000Y-95450001D01*
G75*
G02*
X200800001Y-95700000I-249999J0D01*
G01*
X200149999Y-95700000D01*
G75*
G02*
X199900000Y-95450001I0J249999D01*
G01*
X199900000Y-94549999D01*
G75*
G02*
X200149999Y-94300000I249999J0D01*
G01*
X200800001Y-94300000D01*
G75*
G02*
X201050000Y-94549999I0J-249999D01*
G01*
G37*
G36*
G01*
X203100000Y-94549999D02*
X203100000Y-95450001D01*
G75*
G02*
X202850001Y-95700000I-249999J0D01*
G01*
X202199999Y-95700000D01*
G75*
G02*
X201950000Y-95450001I0J249999D01*
G01*
X201950000Y-94549999D01*
G75*
G02*
X202199999Y-94300000I249999J0D01*
G01*
X202850001Y-94300000D01*
G75*
G02*
X203100000Y-94549999I0J-249999D01*
G01*
G37*
G36*
G01*
X201050000Y-89549999D02*
X201050000Y-90450001D01*
G75*
G02*
X200800001Y-90700000I-249999J0D01*
G01*
X200149999Y-90700000D01*
G75*
G02*
X199900000Y-90450001I0J249999D01*
G01*
X199900000Y-89549999D01*
G75*
G02*
X200149999Y-89300000I249999J0D01*
G01*
X200800001Y-89300000D01*
G75*
G02*
X201050000Y-89549999I0J-249999D01*
G01*
G37*
G36*
G01*
X203100000Y-89549999D02*
X203100000Y-90450001D01*
G75*
G02*
X202850001Y-90700000I-249999J0D01*
G01*
X202199999Y-90700000D01*
G75*
G02*
X201950000Y-90450001I0J249999D01*
G01*
X201950000Y-89549999D01*
G75*
G02*
X202199999Y-89300000I249999J0D01*
G01*
X202850001Y-89300000D01*
G75*
G02*
X203100000Y-89549999I0J-249999D01*
G01*
G37*
G36*
G01*
X201050000Y-84549999D02*
X201050000Y-85450001D01*
G75*
G02*
X200800001Y-85700000I-249999J0D01*
G01*
X200149999Y-85700000D01*
G75*
G02*
X199900000Y-85450001I0J249999D01*
G01*
X199900000Y-84549999D01*
G75*
G02*
X200149999Y-84300000I249999J0D01*
G01*
X200800001Y-84300000D01*
G75*
G02*
X201050000Y-84549999I0J-249999D01*
G01*
G37*
G36*
G01*
X203100000Y-84549999D02*
X203100000Y-85450001D01*
G75*
G02*
X202850001Y-85700000I-249999J0D01*
G01*
X202199999Y-85700000D01*
G75*
G02*
X201950000Y-85450001I0J249999D01*
G01*
X201950000Y-84549999D01*
G75*
G02*
X202199999Y-84300000I249999J0D01*
G01*
X202850001Y-84300000D01*
G75*
G02*
X203100000Y-84549999I0J-249999D01*
G01*
G37*
G36*
G01*
X201050000Y-79549999D02*
X201050000Y-80450001D01*
G75*
G02*
X200800001Y-80700000I-249999J0D01*
G01*
X200149999Y-80700000D01*
G75*
G02*
X199900000Y-80450001I0J249999D01*
G01*
X199900000Y-79549999D01*
G75*
G02*
X200149999Y-79300000I249999J0D01*
G01*
X200800001Y-79300000D01*
G75*
G02*
X201050000Y-79549999I0J-249999D01*
G01*
G37*
G36*
G01*
X203100000Y-79549999D02*
X203100000Y-80450001D01*
G75*
G02*
X202850001Y-80700000I-249999J0D01*
G01*
X202199999Y-80700000D01*
G75*
G02*
X201950000Y-80450001I0J249999D01*
G01*
X201950000Y-79549999D01*
G75*
G02*
X202199999Y-79300000I249999J0D01*
G01*
X202850001Y-79300000D01*
G75*
G02*
X203100000Y-79549999I0J-249999D01*
G01*
G37*
G36*
G01*
X201050000Y-74549999D02*
X201050000Y-75450001D01*
G75*
G02*
X200800001Y-75700000I-249999J0D01*
G01*
X200149999Y-75700000D01*
G75*
G02*
X199900000Y-75450001I0J249999D01*
G01*
X199900000Y-74549999D01*
G75*
G02*
X200149999Y-74300000I249999J0D01*
G01*
X200800001Y-74300000D01*
G75*
G02*
X201050000Y-74549999I0J-249999D01*
G01*
G37*
G36*
G01*
X203100000Y-74549999D02*
X203100000Y-75450001D01*
G75*
G02*
X202850001Y-75700000I-249999J0D01*
G01*
X202199999Y-75700000D01*
G75*
G02*
X201950000Y-75450001I0J249999D01*
G01*
X201950000Y-74549999D01*
G75*
G02*
X202199999Y-74300000I249999J0D01*
G01*
X202850001Y-74300000D01*
G75*
G02*
X203100000Y-74549999I0J-249999D01*
G01*
G37*
G36*
G01*
X201050000Y-72049999D02*
X201050000Y-72950001D01*
G75*
G02*
X200800001Y-73200000I-249999J0D01*
G01*
X200149999Y-73200000D01*
G75*
G02*
X199900000Y-72950001I0J249999D01*
G01*
X199900000Y-72049999D01*
G75*
G02*
X200149999Y-71800000I249999J0D01*
G01*
X200800001Y-71800000D01*
G75*
G02*
X201050000Y-72049999I0J-249999D01*
G01*
G37*
G36*
G01*
X203100000Y-72049999D02*
X203100000Y-72950001D01*
G75*
G02*
X202850001Y-73200000I-249999J0D01*
G01*
X202199999Y-73200000D01*
G75*
G02*
X201950000Y-72950001I0J249999D01*
G01*
X201950000Y-72049999D01*
G75*
G02*
X202199999Y-71800000I249999J0D01*
G01*
X202850001Y-71800000D01*
G75*
G02*
X203100000Y-72049999I0J-249999D01*
G01*
G37*
D10*
X95885000Y-87500000D03*
X95885000Y-77600000D03*
G36*
G01*
X122739999Y-55060000D02*
X123640001Y-55060000D01*
G75*
G02*
X123890000Y-55309999I0J-249999D01*
G01*
X123890000Y-55960001D01*
G75*
G02*
X123640001Y-56210000I-249999J0D01*
G01*
X122739999Y-56210000D01*
G75*
G02*
X122490000Y-55960001I0J249999D01*
G01*
X122490000Y-55309999D01*
G75*
G02*
X122739999Y-55060000I249999J0D01*
G01*
G37*
G36*
G01*
X122739999Y-53010000D02*
X123640001Y-53010000D01*
G75*
G02*
X123890000Y-53259999I0J-249999D01*
G01*
X123890000Y-53910001D01*
G75*
G02*
X123640001Y-54160000I-249999J0D01*
G01*
X122739999Y-54160000D01*
G75*
G02*
X122490000Y-53910001I0J249999D01*
G01*
X122490000Y-53259999D01*
G75*
G02*
X122739999Y-53010000I249999J0D01*
G01*
G37*
G36*
G01*
X93523750Y-53790000D02*
X94436250Y-53790000D01*
G75*
G02*
X94680000Y-54033750I0J-243750D01*
G01*
X94680000Y-54521250D01*
G75*
G02*
X94436250Y-54765000I-243750J0D01*
G01*
X93523750Y-54765000D01*
G75*
G02*
X93280000Y-54521250I0J243750D01*
G01*
X93280000Y-54033750D01*
G75*
G02*
X93523750Y-53790000I243750J0D01*
G01*
G37*
G36*
G01*
X93523750Y-51915000D02*
X94436250Y-51915000D01*
G75*
G02*
X94680000Y-52158750I0J-243750D01*
G01*
X94680000Y-52646250D01*
G75*
G02*
X94436250Y-52890000I-243750J0D01*
G01*
X93523750Y-52890000D01*
G75*
G02*
X93280000Y-52646250I0J243750D01*
G01*
X93280000Y-52158750D01*
G75*
G02*
X93523750Y-51915000I243750J0D01*
G01*
G37*
G36*
G01*
X184225250Y-54795000D02*
X183312750Y-54795000D01*
G75*
G02*
X183069000Y-54551250I0J243750D01*
G01*
X183069000Y-54063750D01*
G75*
G02*
X183312750Y-53820000I243750J0D01*
G01*
X184225250Y-53820000D01*
G75*
G02*
X184469000Y-54063750I0J-243750D01*
G01*
X184469000Y-54551250D01*
G75*
G02*
X184225250Y-54795000I-243750J0D01*
G01*
G37*
G36*
G01*
X184225250Y-56670000D02*
X183312750Y-56670000D01*
G75*
G02*
X183069000Y-56426250I0J243750D01*
G01*
X183069000Y-55938750D01*
G75*
G02*
X183312750Y-55695000I243750J0D01*
G01*
X184225250Y-55695000D01*
G75*
G02*
X184469000Y-55938750I0J-243750D01*
G01*
X184469000Y-56426250D01*
G75*
G02*
X184225250Y-56670000I-243750J0D01*
G01*
G37*
G36*
G01*
X98235000Y-104245003D02*
X98235000Y-95144997D01*
G75*
G02*
X98484997Y-94895000I249997J0D01*
G01*
X105785003Y-94895000D01*
G75*
G02*
X106035000Y-95144997I0J-249997D01*
G01*
X106035000Y-104245003D01*
G75*
G02*
X105785003Y-104495000I-249997J0D01*
G01*
X98484997Y-104495000D01*
G75*
G02*
X98235000Y-104245003I0J249997D01*
G01*
G37*
G36*
G01*
X85735000Y-104245003D02*
X85735000Y-95144997D01*
G75*
G02*
X85984997Y-94895000I249997J0D01*
G01*
X93285003Y-94895000D01*
G75*
G02*
X93535000Y-95144997I0J-249997D01*
G01*
X93535000Y-104245003D01*
G75*
G02*
X93285003Y-104495000I-249997J0D01*
G01*
X85984997Y-104495000D01*
G75*
G02*
X85735000Y-104245003I0J249997D01*
G01*
G37*
D11*
X118430000Y-116205000D03*
X108900000Y-121285000D03*
X118430000Y-118745000D03*
X108900000Y-118745000D03*
X118430000Y-121285000D03*
X108900000Y-116205000D03*
X118430000Y-104775000D03*
X108900000Y-109855000D03*
X118430000Y-107315000D03*
X108900000Y-107315000D03*
X118430000Y-109855000D03*
X108900000Y-104775000D03*
X118430000Y-93345000D03*
X108900000Y-98425000D03*
X118430000Y-95885000D03*
X108900000Y-95885000D03*
X118430000Y-98425000D03*
X108900000Y-93345000D03*
X149540000Y-121285000D03*
X159070000Y-116205000D03*
X149540000Y-118745000D03*
X159070000Y-118745000D03*
X149540000Y-116205000D03*
X159070000Y-121285000D03*
X149540000Y-98425000D03*
X159070000Y-93345000D03*
X149540000Y-95885000D03*
X159070000Y-95885000D03*
X149540000Y-93345000D03*
X159070000Y-98425000D03*
X149540000Y-109855000D03*
X159070000Y-104775000D03*
X149540000Y-107315000D03*
X159070000Y-107315000D03*
X149540000Y-104775000D03*
X159070000Y-109855000D03*
X118430000Y-81915000D03*
X108900000Y-86995000D03*
X118430000Y-84455000D03*
X108900000Y-84455000D03*
X118430000Y-86995000D03*
X108900000Y-81915000D03*
X149540000Y-86995000D03*
X159070000Y-81915000D03*
X149540000Y-84455000D03*
X159070000Y-84455000D03*
X149540000Y-81915000D03*
X159070000Y-86995000D03*
D12*
X92965000Y-68155000D03*
X89915000Y-64805000D03*
X89915000Y-68155000D03*
X92965000Y-64805000D03*
D13*
X93720000Y-72780000D03*
X89160000Y-72780000D03*
G36*
G01*
X121470000Y-117024999D02*
X121470000Y-117925001D01*
G75*
G02*
X121220001Y-118175000I-249999J0D01*
G01*
X120569999Y-118175000D01*
G75*
G02*
X120320000Y-117925001I0J249999D01*
G01*
X120320000Y-117024999D01*
G75*
G02*
X120569999Y-116775000I249999J0D01*
G01*
X121220001Y-116775000D01*
G75*
G02*
X121470000Y-117024999I0J-249999D01*
G01*
G37*
G36*
G01*
X123520000Y-117024999D02*
X123520000Y-117925001D01*
G75*
G02*
X123270001Y-118175000I-249999J0D01*
G01*
X122619999Y-118175000D01*
G75*
G02*
X122370000Y-117925001I0J249999D01*
G01*
X122370000Y-117024999D01*
G75*
G02*
X122619999Y-116775000I249999J0D01*
G01*
X123270001Y-116775000D01*
G75*
G02*
X123520000Y-117024999I0J-249999D01*
G01*
G37*
G36*
G01*
X121470000Y-105594999D02*
X121470000Y-106495001D01*
G75*
G02*
X121220001Y-106745000I-249999J0D01*
G01*
X120569999Y-106745000D01*
G75*
G02*
X120320000Y-106495001I0J249999D01*
G01*
X120320000Y-105594999D01*
G75*
G02*
X120569999Y-105345000I249999J0D01*
G01*
X121220001Y-105345000D01*
G75*
G02*
X121470000Y-105594999I0J-249999D01*
G01*
G37*
G36*
G01*
X123520000Y-105594999D02*
X123520000Y-106495001D01*
G75*
G02*
X123270001Y-106745000I-249999J0D01*
G01*
X122619999Y-106745000D01*
G75*
G02*
X122370000Y-106495001I0J249999D01*
G01*
X122370000Y-105594999D01*
G75*
G02*
X122619999Y-105345000I249999J0D01*
G01*
X123270001Y-105345000D01*
G75*
G02*
X123520000Y-105594999I0J-249999D01*
G01*
G37*
G36*
G01*
X121470000Y-94164999D02*
X121470000Y-95065001D01*
G75*
G02*
X121220001Y-95315000I-249999J0D01*
G01*
X120569999Y-95315000D01*
G75*
G02*
X120320000Y-95065001I0J249999D01*
G01*
X120320000Y-94164999D01*
G75*
G02*
X120569999Y-93915000I249999J0D01*
G01*
X121220001Y-93915000D01*
G75*
G02*
X121470000Y-94164999I0J-249999D01*
G01*
G37*
G36*
G01*
X123520000Y-94164999D02*
X123520000Y-95065001D01*
G75*
G02*
X123270001Y-95315000I-249999J0D01*
G01*
X122619999Y-95315000D01*
G75*
G02*
X122370000Y-95065001I0J249999D01*
G01*
X122370000Y-94164999D01*
G75*
G02*
X122619999Y-93915000I249999J0D01*
G01*
X123270001Y-93915000D01*
G75*
G02*
X123520000Y-94164999I0J-249999D01*
G01*
G37*
G36*
G01*
X146500000Y-120465001D02*
X146500000Y-119564999D01*
G75*
G02*
X146749999Y-119315000I249999J0D01*
G01*
X147400001Y-119315000D01*
G75*
G02*
X147650000Y-119564999I0J-249999D01*
G01*
X147650000Y-120465001D01*
G75*
G02*
X147400001Y-120715000I-249999J0D01*
G01*
X146749999Y-120715000D01*
G75*
G02*
X146500000Y-120465001I0J249999D01*
G01*
G37*
G36*
G01*
X144450000Y-120465001D02*
X144450000Y-119564999D01*
G75*
G02*
X144699999Y-119315000I249999J0D01*
G01*
X145350001Y-119315000D01*
G75*
G02*
X145600000Y-119564999I0J-249999D01*
G01*
X145600000Y-120465001D01*
G75*
G02*
X145350001Y-120715000I-249999J0D01*
G01*
X144699999Y-120715000D01*
G75*
G02*
X144450000Y-120465001I0J249999D01*
G01*
G37*
G36*
G01*
X146500000Y-97605001D02*
X146500000Y-96704999D01*
G75*
G02*
X146749999Y-96455000I249999J0D01*
G01*
X147400001Y-96455000D01*
G75*
G02*
X147650000Y-96704999I0J-249999D01*
G01*
X147650000Y-97605001D01*
G75*
G02*
X147400001Y-97855000I-249999J0D01*
G01*
X146749999Y-97855000D01*
G75*
G02*
X146500000Y-97605001I0J249999D01*
G01*
G37*
G36*
G01*
X144450000Y-97605001D02*
X144450000Y-96704999D01*
G75*
G02*
X144699999Y-96455000I249999J0D01*
G01*
X145350001Y-96455000D01*
G75*
G02*
X145600000Y-96704999I0J-249999D01*
G01*
X145600000Y-97605001D01*
G75*
G02*
X145350001Y-97855000I-249999J0D01*
G01*
X144699999Y-97855000D01*
G75*
G02*
X144450000Y-97605001I0J249999D01*
G01*
G37*
G36*
G01*
X146500000Y-109035001D02*
X146500000Y-108134999D01*
G75*
G02*
X146749999Y-107885000I249999J0D01*
G01*
X147400001Y-107885000D01*
G75*
G02*
X147650000Y-108134999I0J-249999D01*
G01*
X147650000Y-109035001D01*
G75*
G02*
X147400001Y-109285000I-249999J0D01*
G01*
X146749999Y-109285000D01*
G75*
G02*
X146500000Y-109035001I0J249999D01*
G01*
G37*
G36*
G01*
X144450000Y-109035001D02*
X144450000Y-108134999D01*
G75*
G02*
X144699999Y-107885000I249999J0D01*
G01*
X145350001Y-107885000D01*
G75*
G02*
X145600000Y-108134999I0J-249999D01*
G01*
X145600000Y-109035001D01*
G75*
G02*
X145350001Y-109285000I-249999J0D01*
G01*
X144699999Y-109285000D01*
G75*
G02*
X144450000Y-109035001I0J249999D01*
G01*
G37*
G36*
G01*
X121470000Y-82734999D02*
X121470000Y-83635001D01*
G75*
G02*
X121220001Y-83885000I-249999J0D01*
G01*
X120569999Y-83885000D01*
G75*
G02*
X120320000Y-83635001I0J249999D01*
G01*
X120320000Y-82734999D01*
G75*
G02*
X120569999Y-82485000I249999J0D01*
G01*
X121220001Y-82485000D01*
G75*
G02*
X121470000Y-82734999I0J-249999D01*
G01*
G37*
G36*
G01*
X123520000Y-82734999D02*
X123520000Y-83635001D01*
G75*
G02*
X123270001Y-83885000I-249999J0D01*
G01*
X122619999Y-83885000D01*
G75*
G02*
X122370000Y-83635001I0J249999D01*
G01*
X122370000Y-82734999D01*
G75*
G02*
X122619999Y-82485000I249999J0D01*
G01*
X123270001Y-82485000D01*
G75*
G02*
X123520000Y-82734999I0J-249999D01*
G01*
G37*
G36*
G01*
X146500000Y-86175001D02*
X146500000Y-85274999D01*
G75*
G02*
X146749999Y-85025000I249999J0D01*
G01*
X147400001Y-85025000D01*
G75*
G02*
X147650000Y-85274999I0J-249999D01*
G01*
X147650000Y-86175001D01*
G75*
G02*
X147400001Y-86425000I-249999J0D01*
G01*
X146749999Y-86425000D01*
G75*
G02*
X146500000Y-86175001I0J249999D01*
G01*
G37*
G36*
G01*
X144450000Y-86175001D02*
X144450000Y-85274999D01*
G75*
G02*
X144699999Y-85025000I249999J0D01*
G01*
X145350001Y-85025000D01*
G75*
G02*
X145600000Y-85274999I0J-249999D01*
G01*
X145600000Y-86175001D01*
G75*
G02*
X145350001Y-86425000I-249999J0D01*
G01*
X144699999Y-86425000D01*
G75*
G02*
X144450000Y-86175001I0J249999D01*
G01*
G37*
G36*
G01*
X122370000Y-123005001D02*
X122370000Y-122104999D01*
G75*
G02*
X122619999Y-121855000I249999J0D01*
G01*
X123270001Y-121855000D01*
G75*
G02*
X123520000Y-122104999I0J-249999D01*
G01*
X123520000Y-123005001D01*
G75*
G02*
X123270001Y-123255000I-249999J0D01*
G01*
X122619999Y-123255000D01*
G75*
G02*
X122370000Y-123005001I0J249999D01*
G01*
G37*
G36*
G01*
X120320000Y-123005001D02*
X120320000Y-122104999D01*
G75*
G02*
X120569999Y-121855000I249999J0D01*
G01*
X121220001Y-121855000D01*
G75*
G02*
X121470000Y-122104999I0J-249999D01*
G01*
X121470000Y-123005001D01*
G75*
G02*
X121220001Y-123255000I-249999J0D01*
G01*
X120569999Y-123255000D01*
G75*
G02*
X120320000Y-123005001I0J249999D01*
G01*
G37*
G36*
G01*
X122370000Y-111575001D02*
X122370000Y-110674999D01*
G75*
G02*
X122619999Y-110425000I249999J0D01*
G01*
X123270001Y-110425000D01*
G75*
G02*
X123520000Y-110674999I0J-249999D01*
G01*
X123520000Y-111575001D01*
G75*
G02*
X123270001Y-111825000I-249999J0D01*
G01*
X122619999Y-111825000D01*
G75*
G02*
X122370000Y-111575001I0J249999D01*
G01*
G37*
G36*
G01*
X120320000Y-111575001D02*
X120320000Y-110674999D01*
G75*
G02*
X120569999Y-110425000I249999J0D01*
G01*
X121220001Y-110425000D01*
G75*
G02*
X121470000Y-110674999I0J-249999D01*
G01*
X121470000Y-111575001D01*
G75*
G02*
X121220001Y-111825000I-249999J0D01*
G01*
X120569999Y-111825000D01*
G75*
G02*
X120320000Y-111575001I0J249999D01*
G01*
G37*
G36*
G01*
X122370000Y-100145001D02*
X122370000Y-99244999D01*
G75*
G02*
X122619999Y-98995000I249999J0D01*
G01*
X123270001Y-98995000D01*
G75*
G02*
X123520000Y-99244999I0J-249999D01*
G01*
X123520000Y-100145001D01*
G75*
G02*
X123270001Y-100395000I-249999J0D01*
G01*
X122619999Y-100395000D01*
G75*
G02*
X122370000Y-100145001I0J249999D01*
G01*
G37*
G36*
G01*
X120320000Y-100145001D02*
X120320000Y-99244999D01*
G75*
G02*
X120569999Y-98995000I249999J0D01*
G01*
X121220001Y-98995000D01*
G75*
G02*
X121470000Y-99244999I0J-249999D01*
G01*
X121470000Y-100145001D01*
G75*
G02*
X121220001Y-100395000I-249999J0D01*
G01*
X120569999Y-100395000D01*
G75*
G02*
X120320000Y-100145001I0J249999D01*
G01*
G37*
G36*
G01*
X145600000Y-114484999D02*
X145600000Y-115385001D01*
G75*
G02*
X145350001Y-115635000I-249999J0D01*
G01*
X144699999Y-115635000D01*
G75*
G02*
X144450000Y-115385001I0J249999D01*
G01*
X144450000Y-114484999D01*
G75*
G02*
X144699999Y-114235000I249999J0D01*
G01*
X145350001Y-114235000D01*
G75*
G02*
X145600000Y-114484999I0J-249999D01*
G01*
G37*
G36*
G01*
X147650000Y-114484999D02*
X147650000Y-115385001D01*
G75*
G02*
X147400001Y-115635000I-249999J0D01*
G01*
X146749999Y-115635000D01*
G75*
G02*
X146500000Y-115385001I0J249999D01*
G01*
X146500000Y-114484999D01*
G75*
G02*
X146749999Y-114235000I249999J0D01*
G01*
X147400001Y-114235000D01*
G75*
G02*
X147650000Y-114484999I0J-249999D01*
G01*
G37*
G36*
G01*
X145600000Y-91624999D02*
X145600000Y-92525001D01*
G75*
G02*
X145350001Y-92775000I-249999J0D01*
G01*
X144699999Y-92775000D01*
G75*
G02*
X144450000Y-92525001I0J249999D01*
G01*
X144450000Y-91624999D01*
G75*
G02*
X144699999Y-91375000I249999J0D01*
G01*
X145350001Y-91375000D01*
G75*
G02*
X145600000Y-91624999I0J-249999D01*
G01*
G37*
G36*
G01*
X147650000Y-91624999D02*
X147650000Y-92525001D01*
G75*
G02*
X147400001Y-92775000I-249999J0D01*
G01*
X146749999Y-92775000D01*
G75*
G02*
X146500000Y-92525001I0J249999D01*
G01*
X146500000Y-91624999D01*
G75*
G02*
X146749999Y-91375000I249999J0D01*
G01*
X147400001Y-91375000D01*
G75*
G02*
X147650000Y-91624999I0J-249999D01*
G01*
G37*
G36*
G01*
X145600000Y-103054999D02*
X145600000Y-103955001D01*
G75*
G02*
X145350001Y-104205000I-249999J0D01*
G01*
X144699999Y-104205000D01*
G75*
G02*
X144450000Y-103955001I0J249999D01*
G01*
X144450000Y-103054999D01*
G75*
G02*
X144699999Y-102805000I249999J0D01*
G01*
X145350001Y-102805000D01*
G75*
G02*
X145600000Y-103054999I0J-249999D01*
G01*
G37*
G36*
G01*
X147650000Y-103054999D02*
X147650000Y-103955001D01*
G75*
G02*
X147400001Y-104205000I-249999J0D01*
G01*
X146749999Y-104205000D01*
G75*
G02*
X146500000Y-103955001I0J249999D01*
G01*
X146500000Y-103054999D01*
G75*
G02*
X146749999Y-102805000I249999J0D01*
G01*
X147400001Y-102805000D01*
G75*
G02*
X147650000Y-103054999I0J-249999D01*
G01*
G37*
G36*
G01*
X122370000Y-88715001D02*
X122370000Y-87814999D01*
G75*
G02*
X122619999Y-87565000I249999J0D01*
G01*
X123270001Y-87565000D01*
G75*
G02*
X123520000Y-87814999I0J-249999D01*
G01*
X123520000Y-88715001D01*
G75*
G02*
X123270001Y-88965000I-249999J0D01*
G01*
X122619999Y-88965000D01*
G75*
G02*
X122370000Y-88715001I0J249999D01*
G01*
G37*
G36*
G01*
X120320000Y-88715001D02*
X120320000Y-87814999D01*
G75*
G02*
X120569999Y-87565000I249999J0D01*
G01*
X121220001Y-87565000D01*
G75*
G02*
X121470000Y-87814999I0J-249999D01*
G01*
X121470000Y-88715001D01*
G75*
G02*
X121220001Y-88965000I-249999J0D01*
G01*
X120569999Y-88965000D01*
G75*
G02*
X120320000Y-88715001I0J249999D01*
G01*
G37*
G36*
G01*
X145600000Y-80194999D02*
X145600000Y-81095001D01*
G75*
G02*
X145350001Y-81345000I-249999J0D01*
G01*
X144699999Y-81345000D01*
G75*
G02*
X144450000Y-81095001I0J249999D01*
G01*
X144450000Y-80194999D01*
G75*
G02*
X144699999Y-79945000I249999J0D01*
G01*
X145350001Y-79945000D01*
G75*
G02*
X145600000Y-80194999I0J-249999D01*
G01*
G37*
G36*
G01*
X147650000Y-80194999D02*
X147650000Y-81095001D01*
G75*
G02*
X147400001Y-81345000I-249999J0D01*
G01*
X146749999Y-81345000D01*
G75*
G02*
X146500000Y-81095001I0J249999D01*
G01*
X146500000Y-80194999D01*
G75*
G02*
X146749999Y-79945000I249999J0D01*
G01*
X147400001Y-79945000D01*
G75*
G02*
X147650000Y-80194999I0J-249999D01*
G01*
G37*
G36*
G01*
X121470000Y-114484999D02*
X121470000Y-115385001D01*
G75*
G02*
X121220001Y-115635000I-249999J0D01*
G01*
X120569999Y-115635000D01*
G75*
G02*
X120320000Y-115385001I0J249999D01*
G01*
X120320000Y-114484999D01*
G75*
G02*
X120569999Y-114235000I249999J0D01*
G01*
X121220001Y-114235000D01*
G75*
G02*
X121470000Y-114484999I0J-249999D01*
G01*
G37*
G36*
G01*
X123520000Y-114484999D02*
X123520000Y-115385001D01*
G75*
G02*
X123270001Y-115635000I-249999J0D01*
G01*
X122619999Y-115635000D01*
G75*
G02*
X122370000Y-115385001I0J249999D01*
G01*
X122370000Y-114484999D01*
G75*
G02*
X122619999Y-114235000I249999J0D01*
G01*
X123270001Y-114235000D01*
G75*
G02*
X123520000Y-114484999I0J-249999D01*
G01*
G37*
G36*
G01*
X121470000Y-103054999D02*
X121470000Y-103955001D01*
G75*
G02*
X121220001Y-104205000I-249999J0D01*
G01*
X120569999Y-104205000D01*
G75*
G02*
X120320000Y-103955001I0J249999D01*
G01*
X120320000Y-103054999D01*
G75*
G02*
X120569999Y-102805000I249999J0D01*
G01*
X121220001Y-102805000D01*
G75*
G02*
X121470000Y-103054999I0J-249999D01*
G01*
G37*
G36*
G01*
X123520000Y-103054999D02*
X123520000Y-103955001D01*
G75*
G02*
X123270001Y-104205000I-249999J0D01*
G01*
X122619999Y-104205000D01*
G75*
G02*
X122370000Y-103955001I0J249999D01*
G01*
X122370000Y-103054999D01*
G75*
G02*
X122619999Y-102805000I249999J0D01*
G01*
X123270001Y-102805000D01*
G75*
G02*
X123520000Y-103054999I0J-249999D01*
G01*
G37*
G36*
G01*
X121470000Y-91624999D02*
X121470000Y-92525001D01*
G75*
G02*
X121220001Y-92775000I-249999J0D01*
G01*
X120569999Y-92775000D01*
G75*
G02*
X120320000Y-92525001I0J249999D01*
G01*
X120320000Y-91624999D01*
G75*
G02*
X120569999Y-91375000I249999J0D01*
G01*
X121220001Y-91375000D01*
G75*
G02*
X121470000Y-91624999I0J-249999D01*
G01*
G37*
G36*
G01*
X123520000Y-91624999D02*
X123520000Y-92525001D01*
G75*
G02*
X123270001Y-92775000I-249999J0D01*
G01*
X122619999Y-92775000D01*
G75*
G02*
X122370000Y-92525001I0J249999D01*
G01*
X122370000Y-91624999D01*
G75*
G02*
X122619999Y-91375000I249999J0D01*
G01*
X123270001Y-91375000D01*
G75*
G02*
X123520000Y-91624999I0J-249999D01*
G01*
G37*
G36*
G01*
X146500000Y-123005001D02*
X146500000Y-122104999D01*
G75*
G02*
X146749999Y-121855000I249999J0D01*
G01*
X147400001Y-121855000D01*
G75*
G02*
X147650000Y-122104999I0J-249999D01*
G01*
X147650000Y-123005001D01*
G75*
G02*
X147400001Y-123255000I-249999J0D01*
G01*
X146749999Y-123255000D01*
G75*
G02*
X146500000Y-123005001I0J249999D01*
G01*
G37*
G36*
G01*
X144450000Y-123005001D02*
X144450000Y-122104999D01*
G75*
G02*
X144699999Y-121855000I249999J0D01*
G01*
X145350001Y-121855000D01*
G75*
G02*
X145600000Y-122104999I0J-249999D01*
G01*
X145600000Y-123005001D01*
G75*
G02*
X145350001Y-123255000I-249999J0D01*
G01*
X144699999Y-123255000D01*
G75*
G02*
X144450000Y-123005001I0J249999D01*
G01*
G37*
G36*
G01*
X146500000Y-100145001D02*
X146500000Y-99244999D01*
G75*
G02*
X146749999Y-98995000I249999J0D01*
G01*
X147400001Y-98995000D01*
G75*
G02*
X147650000Y-99244999I0J-249999D01*
G01*
X147650000Y-100145001D01*
G75*
G02*
X147400001Y-100395000I-249999J0D01*
G01*
X146749999Y-100395000D01*
G75*
G02*
X146500000Y-100145001I0J249999D01*
G01*
G37*
G36*
G01*
X144450000Y-100145001D02*
X144450000Y-99244999D01*
G75*
G02*
X144699999Y-98995000I249999J0D01*
G01*
X145350001Y-98995000D01*
G75*
G02*
X145600000Y-99244999I0J-249999D01*
G01*
X145600000Y-100145001D01*
G75*
G02*
X145350001Y-100395000I-249999J0D01*
G01*
X144699999Y-100395000D01*
G75*
G02*
X144450000Y-100145001I0J249999D01*
G01*
G37*
G36*
G01*
X146500000Y-111575001D02*
X146500000Y-110674999D01*
G75*
G02*
X146749999Y-110425000I249999J0D01*
G01*
X147400001Y-110425000D01*
G75*
G02*
X147650000Y-110674999I0J-249999D01*
G01*
X147650000Y-111575001D01*
G75*
G02*
X147400001Y-111825000I-249999J0D01*
G01*
X146749999Y-111825000D01*
G75*
G02*
X146500000Y-111575001I0J249999D01*
G01*
G37*
G36*
G01*
X144450000Y-111575001D02*
X144450000Y-110674999D01*
G75*
G02*
X144699999Y-110425000I249999J0D01*
G01*
X145350001Y-110425000D01*
G75*
G02*
X145600000Y-110674999I0J-249999D01*
G01*
X145600000Y-111575001D01*
G75*
G02*
X145350001Y-111825000I-249999J0D01*
G01*
X144699999Y-111825000D01*
G75*
G02*
X144450000Y-111575001I0J249999D01*
G01*
G37*
G36*
G01*
X121470000Y-80194999D02*
X121470000Y-81095001D01*
G75*
G02*
X121220001Y-81345000I-249999J0D01*
G01*
X120569999Y-81345000D01*
G75*
G02*
X120320000Y-81095001I0J249999D01*
G01*
X120320000Y-80194999D01*
G75*
G02*
X120569999Y-79945000I249999J0D01*
G01*
X121220001Y-79945000D01*
G75*
G02*
X121470000Y-80194999I0J-249999D01*
G01*
G37*
G36*
G01*
X123520000Y-80194999D02*
X123520000Y-81095001D01*
G75*
G02*
X123270001Y-81345000I-249999J0D01*
G01*
X122619999Y-81345000D01*
G75*
G02*
X122370000Y-81095001I0J249999D01*
G01*
X122370000Y-80194999D01*
G75*
G02*
X122619999Y-79945000I249999J0D01*
G01*
X123270001Y-79945000D01*
G75*
G02*
X123520000Y-80194999I0J-249999D01*
G01*
G37*
G36*
G01*
X146500000Y-88715001D02*
X146500000Y-87814999D01*
G75*
G02*
X146749999Y-87565000I249999J0D01*
G01*
X147400001Y-87565000D01*
G75*
G02*
X147650000Y-87814999I0J-249999D01*
G01*
X147650000Y-88715001D01*
G75*
G02*
X147400001Y-88965000I-249999J0D01*
G01*
X146749999Y-88965000D01*
G75*
G02*
X146500000Y-88715001I0J249999D01*
G01*
G37*
G36*
G01*
X144450000Y-88715001D02*
X144450000Y-87814999D01*
G75*
G02*
X144699999Y-87565000I249999J0D01*
G01*
X145350001Y-87565000D01*
G75*
G02*
X145600000Y-87814999I0J-249999D01*
G01*
X145600000Y-88715001D01*
G75*
G02*
X145350001Y-88965000I-249999J0D01*
G01*
X144699999Y-88965000D01*
G75*
G02*
X144450000Y-88715001I0J249999D01*
G01*
G37*
G36*
G01*
X108770000Y-124009999D02*
X108770000Y-124910001D01*
G75*
G02*
X108520001Y-125160000I-249999J0D01*
G01*
X107869999Y-125160000D01*
G75*
G02*
X107620000Y-124910001I0J249999D01*
G01*
X107620000Y-124009999D01*
G75*
G02*
X107869999Y-123760000I249999J0D01*
G01*
X108520001Y-123760000D01*
G75*
G02*
X108770000Y-124009999I0J-249999D01*
G01*
G37*
G36*
G01*
X110820000Y-124009999D02*
X110820000Y-124910001D01*
G75*
G02*
X110570001Y-125160000I-249999J0D01*
G01*
X109919999Y-125160000D01*
G75*
G02*
X109670000Y-124910001I0J249999D01*
G01*
X109670000Y-124009999D01*
G75*
G02*
X109919999Y-123760000I249999J0D01*
G01*
X110570001Y-123760000D01*
G75*
G02*
X110820000Y-124009999I0J-249999D01*
G01*
G37*
G36*
G01*
X108770000Y-112579999D02*
X108770000Y-113480001D01*
G75*
G02*
X108520001Y-113730000I-249999J0D01*
G01*
X107869999Y-113730000D01*
G75*
G02*
X107620000Y-113480001I0J249999D01*
G01*
X107620000Y-112579999D01*
G75*
G02*
X107869999Y-112330000I249999J0D01*
G01*
X108520001Y-112330000D01*
G75*
G02*
X108770000Y-112579999I0J-249999D01*
G01*
G37*
G36*
G01*
X110820000Y-112579999D02*
X110820000Y-113480001D01*
G75*
G02*
X110570001Y-113730000I-249999J0D01*
G01*
X109919999Y-113730000D01*
G75*
G02*
X109670000Y-113480001I0J249999D01*
G01*
X109670000Y-112579999D01*
G75*
G02*
X109919999Y-112330000I249999J0D01*
G01*
X110570001Y-112330000D01*
G75*
G02*
X110820000Y-112579999I0J-249999D01*
G01*
G37*
G36*
G01*
X108770000Y-101149999D02*
X108770000Y-102050001D01*
G75*
G02*
X108520001Y-102300000I-249999J0D01*
G01*
X107869999Y-102300000D01*
G75*
G02*
X107620000Y-102050001I0J249999D01*
G01*
X107620000Y-101149999D01*
G75*
G02*
X107869999Y-100900000I249999J0D01*
G01*
X108520001Y-100900000D01*
G75*
G02*
X108770000Y-101149999I0J-249999D01*
G01*
G37*
G36*
G01*
X110820000Y-101149999D02*
X110820000Y-102050001D01*
G75*
G02*
X110570001Y-102300000I-249999J0D01*
G01*
X109919999Y-102300000D01*
G75*
G02*
X109670000Y-102050001I0J249999D01*
G01*
X109670000Y-101149999D01*
G75*
G02*
X109919999Y-100900000I249999J0D01*
G01*
X110570001Y-100900000D01*
G75*
G02*
X110820000Y-101149999I0J-249999D01*
G01*
G37*
G36*
G01*
X159200000Y-113480001D02*
X159200000Y-112579999D01*
G75*
G02*
X159449999Y-112330000I249999J0D01*
G01*
X160100001Y-112330000D01*
G75*
G02*
X160350000Y-112579999I0J-249999D01*
G01*
X160350000Y-113480001D01*
G75*
G02*
X160100001Y-113730000I-249999J0D01*
G01*
X159449999Y-113730000D01*
G75*
G02*
X159200000Y-113480001I0J249999D01*
G01*
G37*
G36*
G01*
X157150000Y-113480001D02*
X157150000Y-112579999D01*
G75*
G02*
X157399999Y-112330000I249999J0D01*
G01*
X158050001Y-112330000D01*
G75*
G02*
X158300000Y-112579999I0J-249999D01*
G01*
X158300000Y-113480001D01*
G75*
G02*
X158050001Y-113730000I-249999J0D01*
G01*
X157399999Y-113730000D01*
G75*
G02*
X157150000Y-113480001I0J249999D01*
G01*
G37*
G36*
G01*
X162375001Y-92895000D02*
X161474999Y-92895000D01*
G75*
G02*
X161225000Y-92645001I0J249999D01*
G01*
X161225000Y-91994999D01*
G75*
G02*
X161474999Y-91745000I249999J0D01*
G01*
X162375001Y-91745000D01*
G75*
G02*
X162625000Y-91994999I0J-249999D01*
G01*
X162625000Y-92645001D01*
G75*
G02*
X162375001Y-92895000I-249999J0D01*
G01*
G37*
G36*
G01*
X162375001Y-94945000D02*
X161474999Y-94945000D01*
G75*
G02*
X161225000Y-94695001I0J249999D01*
G01*
X161225000Y-94044999D01*
G75*
G02*
X161474999Y-93795000I249999J0D01*
G01*
X162375001Y-93795000D01*
G75*
G02*
X162625000Y-94044999I0J-249999D01*
G01*
X162625000Y-94695001D01*
G75*
G02*
X162375001Y-94945000I-249999J0D01*
G01*
G37*
G36*
G01*
X159200000Y-102050001D02*
X159200000Y-101149999D01*
G75*
G02*
X159449999Y-100900000I249999J0D01*
G01*
X160100001Y-100900000D01*
G75*
G02*
X160350000Y-101149999I0J-249999D01*
G01*
X160350000Y-102050001D01*
G75*
G02*
X160100001Y-102300000I-249999J0D01*
G01*
X159449999Y-102300000D01*
G75*
G02*
X159200000Y-102050001I0J249999D01*
G01*
G37*
G36*
G01*
X157150000Y-102050001D02*
X157150000Y-101149999D01*
G75*
G02*
X157399999Y-100900000I249999J0D01*
G01*
X158050001Y-100900000D01*
G75*
G02*
X158300000Y-101149999I0J-249999D01*
G01*
X158300000Y-102050001D01*
G75*
G02*
X158050001Y-102300000I-249999J0D01*
G01*
X157399999Y-102300000D01*
G75*
G02*
X157150000Y-102050001I0J249999D01*
G01*
G37*
G36*
G01*
X108770000Y-89719999D02*
X108770000Y-90620001D01*
G75*
G02*
X108520001Y-90870000I-249999J0D01*
G01*
X107869999Y-90870000D01*
G75*
G02*
X107620000Y-90620001I0J249999D01*
G01*
X107620000Y-89719999D01*
G75*
G02*
X107869999Y-89470000I249999J0D01*
G01*
X108520001Y-89470000D01*
G75*
G02*
X108770000Y-89719999I0J-249999D01*
G01*
G37*
G36*
G01*
X110820000Y-89719999D02*
X110820000Y-90620001D01*
G75*
G02*
X110570001Y-90870000I-249999J0D01*
G01*
X109919999Y-90870000D01*
G75*
G02*
X109670000Y-90620001I0J249999D01*
G01*
X109670000Y-89719999D01*
G75*
G02*
X109919999Y-89470000I249999J0D01*
G01*
X110570001Y-89470000D01*
G75*
G02*
X110820000Y-89719999I0J-249999D01*
G01*
G37*
G36*
G01*
X162375001Y-81465000D02*
X161474999Y-81465000D01*
G75*
G02*
X161225000Y-81215001I0J249999D01*
G01*
X161225000Y-80564999D01*
G75*
G02*
X161474999Y-80315000I249999J0D01*
G01*
X162375001Y-80315000D01*
G75*
G02*
X162625000Y-80564999I0J-249999D01*
G01*
X162625000Y-81215001D01*
G75*
G02*
X162375001Y-81465000I-249999J0D01*
G01*
G37*
G36*
G01*
X162375001Y-83515000D02*
X161474999Y-83515000D01*
G75*
G02*
X161225000Y-83265001I0J249999D01*
G01*
X161225000Y-82614999D01*
G75*
G02*
X161474999Y-82365000I249999J0D01*
G01*
X162375001Y-82365000D01*
G75*
G02*
X162625000Y-82614999I0J-249999D01*
G01*
X162625000Y-83265001D01*
G75*
G02*
X162375001Y-83515000I-249999J0D01*
G01*
G37*
G36*
G01*
X210050000Y-109549999D02*
X210050000Y-110450001D01*
G75*
G02*
X209800001Y-110700000I-249999J0D01*
G01*
X209149999Y-110700000D01*
G75*
G02*
X208900000Y-110450001I0J249999D01*
G01*
X208900000Y-109549999D01*
G75*
G02*
X209149999Y-109300000I249999J0D01*
G01*
X209800001Y-109300000D01*
G75*
G02*
X210050000Y-109549999I0J-249999D01*
G01*
G37*
G36*
G01*
X212100000Y-109549999D02*
X212100000Y-110450001D01*
G75*
G02*
X211850001Y-110700000I-249999J0D01*
G01*
X211199999Y-110700000D01*
G75*
G02*
X210950000Y-110450001I0J249999D01*
G01*
X210950000Y-109549999D01*
G75*
G02*
X211199999Y-109300000I249999J0D01*
G01*
X211850001Y-109300000D01*
G75*
G02*
X212100000Y-109549999I0J-249999D01*
G01*
G37*
G36*
G01*
X210050000Y-114549999D02*
X210050000Y-115450001D01*
G75*
G02*
X209800001Y-115700000I-249999J0D01*
G01*
X209149999Y-115700000D01*
G75*
G02*
X208900000Y-115450001I0J249999D01*
G01*
X208900000Y-114549999D01*
G75*
G02*
X209149999Y-114300000I249999J0D01*
G01*
X209800001Y-114300000D01*
G75*
G02*
X210050000Y-114549999I0J-249999D01*
G01*
G37*
G36*
G01*
X212100000Y-114549999D02*
X212100000Y-115450001D01*
G75*
G02*
X211850001Y-115700000I-249999J0D01*
G01*
X211199999Y-115700000D01*
G75*
G02*
X210950000Y-115450001I0J249999D01*
G01*
X210950000Y-114549999D01*
G75*
G02*
X211199999Y-114300000I249999J0D01*
G01*
X211850001Y-114300000D01*
G75*
G02*
X212100000Y-114549999I0J-249999D01*
G01*
G37*
G36*
G01*
X210050000Y-119549999D02*
X210050000Y-120450001D01*
G75*
G02*
X209800001Y-120700000I-249999J0D01*
G01*
X209149999Y-120700000D01*
G75*
G02*
X208900000Y-120450001I0J249999D01*
G01*
X208900000Y-119549999D01*
G75*
G02*
X209149999Y-119300000I249999J0D01*
G01*
X209800001Y-119300000D01*
G75*
G02*
X210050000Y-119549999I0J-249999D01*
G01*
G37*
G36*
G01*
X212100000Y-119549999D02*
X212100000Y-120450001D01*
G75*
G02*
X211850001Y-120700000I-249999J0D01*
G01*
X211199999Y-120700000D01*
G75*
G02*
X210950000Y-120450001I0J249999D01*
G01*
X210950000Y-119549999D01*
G75*
G02*
X211199999Y-119300000I249999J0D01*
G01*
X211850001Y-119300000D01*
G75*
G02*
X212100000Y-119549999I0J-249999D01*
G01*
G37*
G36*
G01*
X190550000Y-84549999D02*
X190550000Y-85450001D01*
G75*
G02*
X190300001Y-85700000I-249999J0D01*
G01*
X189649999Y-85700000D01*
G75*
G02*
X189400000Y-85450001I0J249999D01*
G01*
X189400000Y-84549999D01*
G75*
G02*
X189649999Y-84300000I249999J0D01*
G01*
X190300001Y-84300000D01*
G75*
G02*
X190550000Y-84549999I0J-249999D01*
G01*
G37*
G36*
G01*
X192600000Y-84549999D02*
X192600000Y-85450001D01*
G75*
G02*
X192350001Y-85700000I-249999J0D01*
G01*
X191699999Y-85700000D01*
G75*
G02*
X191450000Y-85450001I0J249999D01*
G01*
X191450000Y-84549999D01*
G75*
G02*
X191699999Y-84300000I249999J0D01*
G01*
X192350001Y-84300000D01*
G75*
G02*
X192600000Y-84549999I0J-249999D01*
G01*
G37*
G36*
G01*
X120199999Y-55060000D02*
X121100001Y-55060000D01*
G75*
G02*
X121350000Y-55309999I0J-249999D01*
G01*
X121350000Y-55960001D01*
G75*
G02*
X121100001Y-56210000I-249999J0D01*
G01*
X120199999Y-56210000D01*
G75*
G02*
X119950000Y-55960001I0J249999D01*
G01*
X119950000Y-55309999D01*
G75*
G02*
X120199999Y-55060000I249999J0D01*
G01*
G37*
G36*
G01*
X120199999Y-53010000D02*
X121100001Y-53010000D01*
G75*
G02*
X121350000Y-53259999I0J-249999D01*
G01*
X121350000Y-53910001D01*
G75*
G02*
X121100001Y-54160000I-249999J0D01*
G01*
X120199999Y-54160000D01*
G75*
G02*
X119950000Y-53910001I0J249999D01*
G01*
X119950000Y-53259999D01*
G75*
G02*
X120199999Y-53010000I249999J0D01*
G01*
G37*
G36*
G01*
X191450000Y-75450001D02*
X191450000Y-74549999D01*
G75*
G02*
X191699999Y-74300000I249999J0D01*
G01*
X192350001Y-74300000D01*
G75*
G02*
X192600000Y-74549999I0J-249999D01*
G01*
X192600000Y-75450001D01*
G75*
G02*
X192350001Y-75700000I-249999J0D01*
G01*
X191699999Y-75700000D01*
G75*
G02*
X191450000Y-75450001I0J249999D01*
G01*
G37*
G36*
G01*
X189400000Y-75450001D02*
X189400000Y-74549999D01*
G75*
G02*
X189649999Y-74300000I249999J0D01*
G01*
X190300001Y-74300000D01*
G75*
G02*
X190550000Y-74549999I0J-249999D01*
G01*
X190550000Y-75450001D01*
G75*
G02*
X190300001Y-75700000I-249999J0D01*
G01*
X189649999Y-75700000D01*
G75*
G02*
X189400000Y-75450001I0J249999D01*
G01*
G37*
G36*
G01*
X117659999Y-55060000D02*
X118560001Y-55060000D01*
G75*
G02*
X118810000Y-55309999I0J-249999D01*
G01*
X118810000Y-55960001D01*
G75*
G02*
X118560001Y-56210000I-249999J0D01*
G01*
X117659999Y-56210000D01*
G75*
G02*
X117410000Y-55960001I0J249999D01*
G01*
X117410000Y-55309999D01*
G75*
G02*
X117659999Y-55060000I249999J0D01*
G01*
G37*
G36*
G01*
X117659999Y-53010000D02*
X118560001Y-53010000D01*
G75*
G02*
X118810000Y-53259999I0J-249999D01*
G01*
X118810000Y-53910001D01*
G75*
G02*
X118560001Y-54160000I-249999J0D01*
G01*
X117659999Y-54160000D01*
G75*
G02*
X117410000Y-53910001I0J249999D01*
G01*
X117410000Y-53259999D01*
G75*
G02*
X117659999Y-53010000I249999J0D01*
G01*
G37*
G36*
G01*
X191425000Y-80450001D02*
X191425000Y-79549999D01*
G75*
G02*
X191674999Y-79300000I249999J0D01*
G01*
X192325001Y-79300000D01*
G75*
G02*
X192575000Y-79549999I0J-249999D01*
G01*
X192575000Y-80450001D01*
G75*
G02*
X192325001Y-80700000I-249999J0D01*
G01*
X191674999Y-80700000D01*
G75*
G02*
X191425000Y-80450001I0J249999D01*
G01*
G37*
G36*
G01*
X189375000Y-80450001D02*
X189375000Y-79549999D01*
G75*
G02*
X189624999Y-79300000I249999J0D01*
G01*
X190275001Y-79300000D01*
G75*
G02*
X190525000Y-79549999I0J-249999D01*
G01*
X190525000Y-80450001D01*
G75*
G02*
X190275001Y-80700000I-249999J0D01*
G01*
X189624999Y-80700000D01*
G75*
G02*
X189375000Y-80450001I0J249999D01*
G01*
G37*
D14*
X195580000Y-100060000D03*
X194630000Y-98060000D03*
X196530000Y-98060000D03*
X182245000Y-100060000D03*
X181295000Y-98060000D03*
X183195000Y-98060000D03*
X168910000Y-100060000D03*
X167960000Y-98060000D03*
X169860000Y-98060000D03*
X180340000Y-54245000D03*
X181290000Y-56245000D03*
X179390000Y-56245000D03*
G36*
G01*
X207075000Y-105685000D02*
X207075000Y-104315000D01*
G75*
G02*
X207265000Y-104125000I190000J0D01*
G01*
X207835000Y-104125000D01*
G75*
G02*
X208025000Y-104315000I0J-190000D01*
G01*
X208025000Y-105685000D01*
G75*
G02*
X207835000Y-105875000I-190000J0D01*
G01*
X207265000Y-105875000D01*
G75*
G02*
X207075000Y-105685000I0J190000D01*
G01*
G37*
G36*
G01*
X203975000Y-105685000D02*
X203975000Y-104315000D01*
G75*
G02*
X204165000Y-104125000I190000J0D01*
G01*
X204735000Y-104125000D01*
G75*
G02*
X204925000Y-104315000I0J-190000D01*
G01*
X204925000Y-105685000D01*
G75*
G02*
X204735000Y-105875000I-190000J0D01*
G01*
X204165000Y-105875000D01*
G75*
G02*
X203975000Y-105685000I0J190000D01*
G01*
G37*
G36*
G01*
X207075000Y-100685000D02*
X207075000Y-99315000D01*
G75*
G02*
X207265000Y-99125000I190000J0D01*
G01*
X207835000Y-99125000D01*
G75*
G02*
X208025000Y-99315000I0J-190000D01*
G01*
X208025000Y-100685000D01*
G75*
G02*
X207835000Y-100875000I-190000J0D01*
G01*
X207265000Y-100875000D01*
G75*
G02*
X207075000Y-100685000I0J190000D01*
G01*
G37*
G36*
G01*
X203975000Y-100685000D02*
X203975000Y-99315000D01*
G75*
G02*
X204165000Y-99125000I190000J0D01*
G01*
X204735000Y-99125000D01*
G75*
G02*
X204925000Y-99315000I0J-190000D01*
G01*
X204925000Y-100685000D01*
G75*
G02*
X204735000Y-100875000I-190000J0D01*
G01*
X204165000Y-100875000D01*
G75*
G02*
X203975000Y-100685000I0J190000D01*
G01*
G37*
G36*
G01*
X207075000Y-95685000D02*
X207075000Y-94315000D01*
G75*
G02*
X207265000Y-94125000I190000J0D01*
G01*
X207835000Y-94125000D01*
G75*
G02*
X208025000Y-94315000I0J-190000D01*
G01*
X208025000Y-95685000D01*
G75*
G02*
X207835000Y-95875000I-190000J0D01*
G01*
X207265000Y-95875000D01*
G75*
G02*
X207075000Y-95685000I0J190000D01*
G01*
G37*
G36*
G01*
X203975000Y-95685000D02*
X203975000Y-94315000D01*
G75*
G02*
X204165000Y-94125000I190000J0D01*
G01*
X204735000Y-94125000D01*
G75*
G02*
X204925000Y-94315000I0J-190000D01*
G01*
X204925000Y-95685000D01*
G75*
G02*
X204735000Y-95875000I-190000J0D01*
G01*
X204165000Y-95875000D01*
G75*
G02*
X203975000Y-95685000I0J190000D01*
G01*
G37*
G36*
G01*
X207075000Y-70685000D02*
X207075000Y-69315000D01*
G75*
G02*
X207265000Y-69125000I190000J0D01*
G01*
X207835000Y-69125000D01*
G75*
G02*
X208025000Y-69315000I0J-190000D01*
G01*
X208025000Y-70685000D01*
G75*
G02*
X207835000Y-70875000I-190000J0D01*
G01*
X207265000Y-70875000D01*
G75*
G02*
X207075000Y-70685000I0J190000D01*
G01*
G37*
G36*
G01*
X203975000Y-70685000D02*
X203975000Y-69315000D01*
G75*
G02*
X204165000Y-69125000I190000J0D01*
G01*
X204735000Y-69125000D01*
G75*
G02*
X204925000Y-69315000I0J-190000D01*
G01*
X204925000Y-70685000D01*
G75*
G02*
X204735000Y-70875000I-190000J0D01*
G01*
X204165000Y-70875000D01*
G75*
G02*
X203975000Y-70685000I0J190000D01*
G01*
G37*
G36*
G01*
X207075000Y-80685000D02*
X207075000Y-79315000D01*
G75*
G02*
X207265000Y-79125000I190000J0D01*
G01*
X207835000Y-79125000D01*
G75*
G02*
X208025000Y-79315000I0J-190000D01*
G01*
X208025000Y-80685000D01*
G75*
G02*
X207835000Y-80875000I-190000J0D01*
G01*
X207265000Y-80875000D01*
G75*
G02*
X207075000Y-80685000I0J190000D01*
G01*
G37*
G36*
G01*
X203975000Y-80685000D02*
X203975000Y-79315000D01*
G75*
G02*
X204165000Y-79125000I190000J0D01*
G01*
X204735000Y-79125000D01*
G75*
G02*
X204925000Y-79315000I0J-190000D01*
G01*
X204925000Y-80685000D01*
G75*
G02*
X204735000Y-80875000I-190000J0D01*
G01*
X204165000Y-80875000D01*
G75*
G02*
X203975000Y-80685000I0J190000D01*
G01*
G37*
G36*
G01*
X207075000Y-75685000D02*
X207075000Y-74315000D01*
G75*
G02*
X207265000Y-74125000I190000J0D01*
G01*
X207835000Y-74125000D01*
G75*
G02*
X208025000Y-74315000I0J-190000D01*
G01*
X208025000Y-75685000D01*
G75*
G02*
X207835000Y-75875000I-190000J0D01*
G01*
X207265000Y-75875000D01*
G75*
G02*
X207075000Y-75685000I0J190000D01*
G01*
G37*
G36*
G01*
X203975000Y-75685000D02*
X203975000Y-74315000D01*
G75*
G02*
X204165000Y-74125000I190000J0D01*
G01*
X204735000Y-74125000D01*
G75*
G02*
X204925000Y-74315000I0J-190000D01*
G01*
X204925000Y-75685000D01*
G75*
G02*
X204735000Y-75875000I-190000J0D01*
G01*
X204165000Y-75875000D01*
G75*
G02*
X203975000Y-75685000I0J190000D01*
G01*
G37*
G36*
G01*
X207075000Y-90685000D02*
X207075000Y-89315000D01*
G75*
G02*
X207265000Y-89125000I190000J0D01*
G01*
X207835000Y-89125000D01*
G75*
G02*
X208025000Y-89315000I0J-190000D01*
G01*
X208025000Y-90685000D01*
G75*
G02*
X207835000Y-90875000I-190000J0D01*
G01*
X207265000Y-90875000D01*
G75*
G02*
X207075000Y-90685000I0J190000D01*
G01*
G37*
G36*
G01*
X203975000Y-90685000D02*
X203975000Y-89315000D01*
G75*
G02*
X204165000Y-89125000I190000J0D01*
G01*
X204735000Y-89125000D01*
G75*
G02*
X204925000Y-89315000I0J-190000D01*
G01*
X204925000Y-90685000D01*
G75*
G02*
X204735000Y-90875000I-190000J0D01*
G01*
X204165000Y-90875000D01*
G75*
G02*
X203975000Y-90685000I0J190000D01*
G01*
G37*
G36*
G01*
X207075000Y-85685000D02*
X207075000Y-84315000D01*
G75*
G02*
X207265000Y-84125000I190000J0D01*
G01*
X207835000Y-84125000D01*
G75*
G02*
X208025000Y-84315000I0J-190000D01*
G01*
X208025000Y-85685000D01*
G75*
G02*
X207835000Y-85875000I-190000J0D01*
G01*
X207265000Y-85875000D01*
G75*
G02*
X207075000Y-85685000I0J190000D01*
G01*
G37*
G36*
G01*
X203975000Y-85685000D02*
X203975000Y-84315000D01*
G75*
G02*
X204165000Y-84125000I190000J0D01*
G01*
X204735000Y-84125000D01*
G75*
G02*
X204925000Y-84315000I0J-190000D01*
G01*
X204925000Y-85685000D01*
G75*
G02*
X204735000Y-85875000I-190000J0D01*
G01*
X204165000Y-85875000D01*
G75*
G02*
X203975000Y-85685000I0J190000D01*
G01*
G37*
G36*
G01*
X204925000Y-109315000D02*
X204925000Y-110685000D01*
G75*
G02*
X204735000Y-110875000I-190000J0D01*
G01*
X204165000Y-110875000D01*
G75*
G02*
X203975000Y-110685000I0J190000D01*
G01*
X203975000Y-109315000D01*
G75*
G02*
X204165000Y-109125000I190000J0D01*
G01*
X204735000Y-109125000D01*
G75*
G02*
X204925000Y-109315000I0J-190000D01*
G01*
G37*
G36*
G01*
X208025000Y-109315000D02*
X208025000Y-110685000D01*
G75*
G02*
X207835000Y-110875000I-190000J0D01*
G01*
X207265000Y-110875000D01*
G75*
G02*
X207075000Y-110685000I0J190000D01*
G01*
X207075000Y-109315000D01*
G75*
G02*
X207265000Y-109125000I190000J0D01*
G01*
X207835000Y-109125000D01*
G75*
G02*
X208025000Y-109315000I0J-190000D01*
G01*
G37*
G36*
G01*
X204925000Y-114315000D02*
X204925000Y-115685000D01*
G75*
G02*
X204735000Y-115875000I-190000J0D01*
G01*
X204165000Y-115875000D01*
G75*
G02*
X203975000Y-115685000I0J190000D01*
G01*
X203975000Y-114315000D01*
G75*
G02*
X204165000Y-114125000I190000J0D01*
G01*
X204735000Y-114125000D01*
G75*
G02*
X204925000Y-114315000I0J-190000D01*
G01*
G37*
G36*
G01*
X208025000Y-114315000D02*
X208025000Y-115685000D01*
G75*
G02*
X207835000Y-115875000I-190000J0D01*
G01*
X207265000Y-115875000D01*
G75*
G02*
X207075000Y-115685000I0J190000D01*
G01*
X207075000Y-114315000D01*
G75*
G02*
X207265000Y-114125000I190000J0D01*
G01*
X207835000Y-114125000D01*
G75*
G02*
X208025000Y-114315000I0J-190000D01*
G01*
G37*
G36*
G01*
X204925000Y-119315000D02*
X204925000Y-120685000D01*
G75*
G02*
X204735000Y-120875000I-190000J0D01*
G01*
X204165000Y-120875000D01*
G75*
G02*
X203975000Y-120685000I0J190000D01*
G01*
X203975000Y-119315000D01*
G75*
G02*
X204165000Y-119125000I190000J0D01*
G01*
X204735000Y-119125000D01*
G75*
G02*
X204925000Y-119315000I0J-190000D01*
G01*
G37*
G36*
G01*
X208025000Y-119315000D02*
X208025000Y-120685000D01*
G75*
G02*
X207835000Y-120875000I-190000J0D01*
G01*
X207265000Y-120875000D01*
G75*
G02*
X207075000Y-120685000I0J190000D01*
G01*
X207075000Y-119315000D01*
G75*
G02*
X207265000Y-119125000I190000J0D01*
G01*
X207835000Y-119125000D01*
G75*
G02*
X208025000Y-119315000I0J-190000D01*
G01*
G37*
D15*
X193930000Y-102235000D03*
X197230000Y-102235000D03*
X180595000Y-102235000D03*
X183895000Y-102235000D03*
X167260000Y-102235000D03*
X170560000Y-102235000D03*
G36*
G01*
X194925000Y-84315000D02*
X194925000Y-85685000D01*
G75*
G02*
X194735000Y-85875000I-190000J0D01*
G01*
X194165000Y-85875000D01*
G75*
G02*
X193975000Y-85685000I0J190000D01*
G01*
X193975000Y-84315000D01*
G75*
G02*
X194165000Y-84125000I190000J0D01*
G01*
X194735000Y-84125000D01*
G75*
G02*
X194925000Y-84315000I0J-190000D01*
G01*
G37*
G36*
G01*
X198025000Y-84315000D02*
X198025000Y-85685000D01*
G75*
G02*
X197835000Y-85875000I-190000J0D01*
G01*
X197265000Y-85875000D01*
G75*
G02*
X197075000Y-85685000I0J190000D01*
G01*
X197075000Y-84315000D01*
G75*
G02*
X197265000Y-84125000I190000J0D01*
G01*
X197835000Y-84125000D01*
G75*
G02*
X198025000Y-84315000I0J-190000D01*
G01*
G37*
G36*
G01*
X194925000Y-74315000D02*
X194925000Y-75685000D01*
G75*
G02*
X194735000Y-75875000I-190000J0D01*
G01*
X194165000Y-75875000D01*
G75*
G02*
X193975000Y-75685000I0J190000D01*
G01*
X193975000Y-74315000D01*
G75*
G02*
X194165000Y-74125000I190000J0D01*
G01*
X194735000Y-74125000D01*
G75*
G02*
X194925000Y-74315000I0J-190000D01*
G01*
G37*
G36*
G01*
X198025000Y-74315000D02*
X198025000Y-75685000D01*
G75*
G02*
X197835000Y-75875000I-190000J0D01*
G01*
X197265000Y-75875000D01*
G75*
G02*
X197075000Y-75685000I0J190000D01*
G01*
X197075000Y-74315000D01*
G75*
G02*
X197265000Y-74125000I190000J0D01*
G01*
X197835000Y-74125000D01*
G75*
G02*
X198025000Y-74315000I0J-190000D01*
G01*
G37*
G36*
G01*
X194925000Y-79315000D02*
X194925000Y-80685000D01*
G75*
G02*
X194735000Y-80875000I-190000J0D01*
G01*
X194165000Y-80875000D01*
G75*
G02*
X193975000Y-80685000I0J190000D01*
G01*
X193975000Y-79315000D01*
G75*
G02*
X194165000Y-79125000I190000J0D01*
G01*
X194735000Y-79125000D01*
G75*
G02*
X194925000Y-79315000I0J-190000D01*
G01*
G37*
G36*
G01*
X198025000Y-79315000D02*
X198025000Y-80685000D01*
G75*
G02*
X197835000Y-80875000I-190000J0D01*
G01*
X197265000Y-80875000D01*
G75*
G02*
X197075000Y-80685000I0J190000D01*
G01*
X197075000Y-79315000D01*
G75*
G02*
X197265000Y-79125000I190000J0D01*
G01*
X197835000Y-79125000D01*
G75*
G02*
X198025000Y-79315000I0J-190000D01*
G01*
G37*
G36*
G01*
X122370000Y-120471250D02*
X122370000Y-119558750D01*
G75*
G02*
X122613750Y-119315000I243750J0D01*
G01*
X123101250Y-119315000D01*
G75*
G02*
X123345000Y-119558750I0J-243750D01*
G01*
X123345000Y-120471250D01*
G75*
G02*
X123101250Y-120715000I-243750J0D01*
G01*
X122613750Y-120715000D01*
G75*
G02*
X122370000Y-120471250I0J243750D01*
G01*
G37*
G36*
G01*
X120495000Y-120471250D02*
X120495000Y-119558750D01*
G75*
G02*
X120738750Y-119315000I243750J0D01*
G01*
X121226250Y-119315000D01*
G75*
G02*
X121470000Y-119558750I0J-243750D01*
G01*
X121470000Y-120471250D01*
G75*
G02*
X121226250Y-120715000I-243750J0D01*
G01*
X120738750Y-120715000D01*
G75*
G02*
X120495000Y-120471250I0J243750D01*
G01*
G37*
G36*
G01*
X122370000Y-109041250D02*
X122370000Y-108128750D01*
G75*
G02*
X122613750Y-107885000I243750J0D01*
G01*
X123101250Y-107885000D01*
G75*
G02*
X123345000Y-108128750I0J-243750D01*
G01*
X123345000Y-109041250D01*
G75*
G02*
X123101250Y-109285000I-243750J0D01*
G01*
X122613750Y-109285000D01*
G75*
G02*
X122370000Y-109041250I0J243750D01*
G01*
G37*
G36*
G01*
X120495000Y-109041250D02*
X120495000Y-108128750D01*
G75*
G02*
X120738750Y-107885000I243750J0D01*
G01*
X121226250Y-107885000D01*
G75*
G02*
X121470000Y-108128750I0J-243750D01*
G01*
X121470000Y-109041250D01*
G75*
G02*
X121226250Y-109285000I-243750J0D01*
G01*
X120738750Y-109285000D01*
G75*
G02*
X120495000Y-109041250I0J243750D01*
G01*
G37*
G36*
G01*
X122370000Y-97611250D02*
X122370000Y-96698750D01*
G75*
G02*
X122613750Y-96455000I243750J0D01*
G01*
X123101250Y-96455000D01*
G75*
G02*
X123345000Y-96698750I0J-243750D01*
G01*
X123345000Y-97611250D01*
G75*
G02*
X123101250Y-97855000I-243750J0D01*
G01*
X122613750Y-97855000D01*
G75*
G02*
X122370000Y-97611250I0J243750D01*
G01*
G37*
G36*
G01*
X120495000Y-97611250D02*
X120495000Y-96698750D01*
G75*
G02*
X120738750Y-96455000I243750J0D01*
G01*
X121226250Y-96455000D01*
G75*
G02*
X121470000Y-96698750I0J-243750D01*
G01*
X121470000Y-97611250D01*
G75*
G02*
X121226250Y-97855000I-243750J0D01*
G01*
X120738750Y-97855000D01*
G75*
G02*
X120495000Y-97611250I0J243750D01*
G01*
G37*
G36*
G01*
X145600000Y-117018750D02*
X145600000Y-117931250D01*
G75*
G02*
X145356250Y-118175000I-243750J0D01*
G01*
X144868750Y-118175000D01*
G75*
G02*
X144625000Y-117931250I0J243750D01*
G01*
X144625000Y-117018750D01*
G75*
G02*
X144868750Y-116775000I243750J0D01*
G01*
X145356250Y-116775000D01*
G75*
G02*
X145600000Y-117018750I0J-243750D01*
G01*
G37*
G36*
G01*
X147475000Y-117018750D02*
X147475000Y-117931250D01*
G75*
G02*
X147231250Y-118175000I-243750J0D01*
G01*
X146743750Y-118175000D01*
G75*
G02*
X146500000Y-117931250I0J243750D01*
G01*
X146500000Y-117018750D01*
G75*
G02*
X146743750Y-116775000I243750J0D01*
G01*
X147231250Y-116775000D01*
G75*
G02*
X147475000Y-117018750I0J-243750D01*
G01*
G37*
G36*
G01*
X145600000Y-94158750D02*
X145600000Y-95071250D01*
G75*
G02*
X145356250Y-95315000I-243750J0D01*
G01*
X144868750Y-95315000D01*
G75*
G02*
X144625000Y-95071250I0J243750D01*
G01*
X144625000Y-94158750D01*
G75*
G02*
X144868750Y-93915000I243750J0D01*
G01*
X145356250Y-93915000D01*
G75*
G02*
X145600000Y-94158750I0J-243750D01*
G01*
G37*
G36*
G01*
X147475000Y-94158750D02*
X147475000Y-95071250D01*
G75*
G02*
X147231250Y-95315000I-243750J0D01*
G01*
X146743750Y-95315000D01*
G75*
G02*
X146500000Y-95071250I0J243750D01*
G01*
X146500000Y-94158750D01*
G75*
G02*
X146743750Y-93915000I243750J0D01*
G01*
X147231250Y-93915000D01*
G75*
G02*
X147475000Y-94158750I0J-243750D01*
G01*
G37*
G36*
G01*
X145600000Y-105588750D02*
X145600000Y-106501250D01*
G75*
G02*
X145356250Y-106745000I-243750J0D01*
G01*
X144868750Y-106745000D01*
G75*
G02*
X144625000Y-106501250I0J243750D01*
G01*
X144625000Y-105588750D01*
G75*
G02*
X144868750Y-105345000I243750J0D01*
G01*
X145356250Y-105345000D01*
G75*
G02*
X145600000Y-105588750I0J-243750D01*
G01*
G37*
G36*
G01*
X147475000Y-105588750D02*
X147475000Y-106501250D01*
G75*
G02*
X147231250Y-106745000I-243750J0D01*
G01*
X146743750Y-106745000D01*
G75*
G02*
X146500000Y-106501250I0J243750D01*
G01*
X146500000Y-105588750D01*
G75*
G02*
X146743750Y-105345000I243750J0D01*
G01*
X147231250Y-105345000D01*
G75*
G02*
X147475000Y-105588750I0J-243750D01*
G01*
G37*
G36*
G01*
X122370000Y-86181250D02*
X122370000Y-85268750D01*
G75*
G02*
X122613750Y-85025000I243750J0D01*
G01*
X123101250Y-85025000D01*
G75*
G02*
X123345000Y-85268750I0J-243750D01*
G01*
X123345000Y-86181250D01*
G75*
G02*
X123101250Y-86425000I-243750J0D01*
G01*
X122613750Y-86425000D01*
G75*
G02*
X122370000Y-86181250I0J243750D01*
G01*
G37*
G36*
G01*
X120495000Y-86181250D02*
X120495000Y-85268750D01*
G75*
G02*
X120738750Y-85025000I243750J0D01*
G01*
X121226250Y-85025000D01*
G75*
G02*
X121470000Y-85268750I0J-243750D01*
G01*
X121470000Y-86181250D01*
G75*
G02*
X121226250Y-86425000I-243750J0D01*
G01*
X120738750Y-86425000D01*
G75*
G02*
X120495000Y-86181250I0J243750D01*
G01*
G37*
G36*
G01*
X145600000Y-82728750D02*
X145600000Y-83641250D01*
G75*
G02*
X145356250Y-83885000I-243750J0D01*
G01*
X144868750Y-83885000D01*
G75*
G02*
X144625000Y-83641250I0J243750D01*
G01*
X144625000Y-82728750D01*
G75*
G02*
X144868750Y-82485000I243750J0D01*
G01*
X145356250Y-82485000D01*
G75*
G02*
X145600000Y-82728750I0J-243750D01*
G01*
G37*
G36*
G01*
X147475000Y-82728750D02*
X147475000Y-83641250D01*
G75*
G02*
X147231250Y-83885000I-243750J0D01*
G01*
X146743750Y-83885000D01*
G75*
G02*
X146500000Y-83641250I0J243750D01*
G01*
X146500000Y-82728750D01*
G75*
G02*
X146743750Y-82485000I243750J0D01*
G01*
X147231250Y-82485000D01*
G75*
G02*
X147475000Y-82728750I0J-243750D01*
G01*
G37*
G36*
G01*
X176125000Y-71485000D02*
X176125000Y-69485000D01*
G75*
G02*
X176375000Y-69235000I250000J0D01*
G01*
X179375000Y-69235000D01*
G75*
G02*
X179625000Y-69485000I0J-250000D01*
G01*
X179625000Y-71485000D01*
G75*
G02*
X179375000Y-71735000I-250000J0D01*
G01*
X176375000Y-71735000D01*
G75*
G02*
X176125000Y-71485000I0J250000D01*
G01*
G37*
G36*
G01*
X169625000Y-71485000D02*
X169625000Y-69485000D01*
G75*
G02*
X169875000Y-69235000I250000J0D01*
G01*
X172875000Y-69235000D01*
G75*
G02*
X173125000Y-69485000I0J-250000D01*
G01*
X173125000Y-71485000D01*
G75*
G02*
X172875000Y-71735000I-250000J0D01*
G01*
X169875000Y-71735000D01*
G75*
G02*
X169625000Y-71485000I0J250000D01*
G01*
G37*
G36*
G01*
X101030000Y-64685000D02*
X101030000Y-63585000D01*
G75*
G02*
X101280000Y-63335000I250000J0D01*
G01*
X103780000Y-63335000D01*
G75*
G02*
X104030000Y-63585000I0J-250000D01*
G01*
X104030000Y-64685000D01*
G75*
G02*
X103780000Y-64935000I-250000J0D01*
G01*
X101280000Y-64935000D01*
G75*
G02*
X101030000Y-64685000I0J250000D01*
G01*
G37*
G36*
G01*
X96630000Y-64685000D02*
X96630000Y-63585000D01*
G75*
G02*
X96880000Y-63335000I250000J0D01*
G01*
X99380000Y-63335000D01*
G75*
G02*
X99630000Y-63585000I0J-250000D01*
G01*
X99630000Y-64685000D01*
G75*
G02*
X99380000Y-64935000I-250000J0D01*
G01*
X96880000Y-64935000D01*
G75*
G02*
X96630000Y-64685000I0J250000D01*
G01*
G37*
G36*
G01*
X101030000Y-72305000D02*
X101030000Y-71205000D01*
G75*
G02*
X101280000Y-70955000I250000J0D01*
G01*
X103780000Y-70955000D01*
G75*
G02*
X104030000Y-71205000I0J-250000D01*
G01*
X104030000Y-72305000D01*
G75*
G02*
X103780000Y-72555000I-250000J0D01*
G01*
X101280000Y-72555000D01*
G75*
G02*
X101030000Y-72305000I0J250000D01*
G01*
G37*
G36*
G01*
X96630000Y-72305000D02*
X96630000Y-71205000D01*
G75*
G02*
X96880000Y-70955000I250000J0D01*
G01*
X99380000Y-70955000D01*
G75*
G02*
X99630000Y-71205000I0J-250000D01*
G01*
X99630000Y-72305000D01*
G75*
G02*
X99380000Y-72555000I-250000J0D01*
G01*
X96880000Y-72555000D01*
G75*
G02*
X96630000Y-72305000I0J250000D01*
G01*
G37*
M02*
