G04 #@! TF.GenerationSoftware,KiCad,Pcbnew,(5.1.5-0-10_14)*
G04 #@! TF.CreationDate,2020-07-10T01:40:19-05:00*
G04 #@! TF.ProjectId,ClimateSprinklerController,436c696d-6174-4655-9370-72696e6b6c65,rev?*
G04 #@! TF.SameCoordinates,Original*
G04 #@! TF.FileFunction,Profile,NP*
%FSLAX46Y46*%
G04 Gerber Fmt 4.6, Leading zero omitted, Abs format (unit mm)*
G04 Created by KiCad (PCBNEW (5.1.5-0-10_14)) date 2020-07-10 01:40:19*
%MOMM*%
%LPD*%
G04 APERTURE LIST*
%ADD10C,0.200000*%
G04 APERTURE END LIST*
D10*
X203500000Y-126900000D02*
G75*
G02X202500000Y-127100000I-500000J-100000D01*
G01*
X191500000Y-113000000D02*
G75*
G02X193500000Y-113605551I0J-3605551D01*
G01*
X200987201Y-118521331D02*
G75*
G02X202086901Y-119919615I-1591536J-2383266D01*
G01*
X200500001Y-119499999D02*
G75*
G02X201184549Y-120524431I-1224852J-1559406D01*
G01*
X191641622Y-114000000D02*
G75*
G02X193000000Y-114497199I-141622J-2491107D01*
G01*
X163000000Y-126365000D02*
G75*
G02X162000000Y-126365000I-500000J0D01*
G01*
X162000000Y-116000000D02*
G75*
G02X165000000Y-113000000I3000000J0D01*
G01*
X163000000Y-116000000D02*
G75*
G02X165000000Y-114000000I2000000J0D01*
G01*
X162000000Y-126365000D02*
X162000000Y-116000000D01*
X163000000Y-116000000D02*
X163000000Y-126365000D01*
X203500000Y-126900000D02*
X202086901Y-119919615D01*
X201184549Y-120524431D02*
X202500000Y-127100000D01*
X191500000Y-113000000D02*
X165000000Y-113000000D01*
X200987201Y-118521331D02*
X193500000Y-113605551D01*
X193000000Y-114501221D02*
X200500000Y-119500000D01*
X165000000Y-114000000D02*
X191641622Y-114000000D01*
X192500000Y-65000000D02*
X189500000Y-65000000D01*
X192500000Y-45000000D02*
X192500000Y-65000000D01*
X204500000Y-65000000D02*
X204500000Y-45000000D01*
X207500000Y-65000000D02*
X204500000Y-65000000D01*
X88399999Y-145000000D02*
X211600000Y-145000000D01*
X82000000Y-51399998D02*
X81999999Y-138600000D01*
X189500000Y-45000000D02*
X88400000Y-45000000D01*
X189500000Y-65000000D02*
X189500000Y-45000000D01*
X204500000Y-45000000D02*
X192500000Y-45000000D01*
X207500000Y-45000000D02*
X207500000Y-65000000D01*
X211600000Y-44999999D02*
X207500000Y-45000000D01*
X218000000Y-138600000D02*
X218000000Y-51399999D01*
X211600000Y-44999999D02*
G75*
G02X218000000Y-51399999I0J-6400000D01*
G01*
X218000000Y-138600000D02*
G75*
G02X211600000Y-145000000I-6400000J0D01*
G01*
X88399999Y-145000000D02*
G75*
G02X81999999Y-138600000I0J6400000D01*
G01*
X82000000Y-51399998D02*
G75*
G02X88400000Y-45000000I6399999J-1D01*
G01*
M02*
