G04 #@! TF.GenerationSoftware,KiCad,Pcbnew,(5.1.9-0-10_14)*
G04 #@! TF.CreationDate,2021-03-25T01:17:32-05:00*
G04 #@! TF.ProjectId,ClimateSprinklerController,436c696d-6174-4655-9370-72696e6b6c65,rev?*
G04 #@! TF.SameCoordinates,Original*
G04 #@! TF.FileFunction,Paste,Bot*
G04 #@! TF.FilePolarity,Positive*
%FSLAX46Y46*%
G04 Gerber Fmt 4.6, Leading zero omitted, Abs format (unit mm)*
G04 Created by KiCad (PCBNEW (5.1.9-0-10_14)) date 2021-03-25 01:17:32*
%MOMM*%
%LPD*%
G01*
G04 APERTURE LIST*
%ADD10R,1.300000X2.400000*%
%ADD11R,4.000000X3.750000*%
%ADD12R,2.500000X3.200000*%
%ADD13R,0.500000X0.350000*%
%ADD14R,0.300000X0.500000*%
%ADD15R,0.800000X0.350000*%
%ADD16R,3.100000X2.600000*%
%ADD17R,0.600000X1.550000*%
%ADD18R,2.000000X0.900000*%
%ADD19R,0.900000X2.000000*%
%ADD20R,5.000000X5.000000*%
%ADD21R,1.100000X1.500000*%
G04 APERTURE END LIST*
G36*
G01*
X104580000Y-84950000D02*
X102430000Y-84950000D01*
G75*
G02*
X102180000Y-84700000I0J250000D01*
G01*
X102180000Y-83950000D01*
G75*
G02*
X102430000Y-83700000I250000J0D01*
G01*
X104580000Y-83700000D01*
G75*
G02*
X104830000Y-83950000I0J-250000D01*
G01*
X104830000Y-84700000D01*
G75*
G02*
X104580000Y-84950000I-250000J0D01*
G01*
G37*
G36*
G01*
X104580000Y-87750000D02*
X102430000Y-87750000D01*
G75*
G02*
X102180000Y-87500000I0J250000D01*
G01*
X102180000Y-86750000D01*
G75*
G02*
X102430000Y-86500000I250000J0D01*
G01*
X104580000Y-86500000D01*
G75*
G02*
X104830000Y-86750000I0J-250000D01*
G01*
X104830000Y-87500000D01*
G75*
G02*
X104580000Y-87750000I-250000J0D01*
G01*
G37*
G36*
G01*
X100135000Y-84950000D02*
X97985000Y-84950000D01*
G75*
G02*
X97735000Y-84700000I0J250000D01*
G01*
X97735000Y-83950000D01*
G75*
G02*
X97985000Y-83700000I250000J0D01*
G01*
X100135000Y-83700000D01*
G75*
G02*
X100385000Y-83950000I0J-250000D01*
G01*
X100385000Y-84700000D01*
G75*
G02*
X100135000Y-84950000I-250000J0D01*
G01*
G37*
G36*
G01*
X100135000Y-87750000D02*
X97985000Y-87750000D01*
G75*
G02*
X97735000Y-87500000I0J250000D01*
G01*
X97735000Y-86750000D01*
G75*
G02*
X97985000Y-86500000I250000J0D01*
G01*
X100135000Y-86500000D01*
G75*
G02*
X100385000Y-86750000I0J-250000D01*
G01*
X100385000Y-87500000D01*
G75*
G02*
X100135000Y-87750000I-250000J0D01*
G01*
G37*
G36*
G01*
X95690000Y-84950000D02*
X93540000Y-84950000D01*
G75*
G02*
X93290000Y-84700000I0J250000D01*
G01*
X93290000Y-83950000D01*
G75*
G02*
X93540000Y-83700000I250000J0D01*
G01*
X95690000Y-83700000D01*
G75*
G02*
X95940000Y-83950000I0J-250000D01*
G01*
X95940000Y-84700000D01*
G75*
G02*
X95690000Y-84950000I-250000J0D01*
G01*
G37*
G36*
G01*
X95690000Y-87750000D02*
X93540000Y-87750000D01*
G75*
G02*
X93290000Y-87500000I0J250000D01*
G01*
X93290000Y-86750000D01*
G75*
G02*
X93540000Y-86500000I250000J0D01*
G01*
X95690000Y-86500000D01*
G75*
G02*
X95940000Y-86750000I0J-250000D01*
G01*
X95940000Y-87500000D01*
G75*
G02*
X95690000Y-87750000I-250000J0D01*
G01*
G37*
G36*
G01*
X128085000Y-55066250D02*
X128085000Y-54153750D01*
G75*
G02*
X128328750Y-53910000I243750J0D01*
G01*
X128816250Y-53910000D01*
G75*
G02*
X129060000Y-54153750I0J-243750D01*
G01*
X129060000Y-55066250D01*
G75*
G02*
X128816250Y-55310000I-243750J0D01*
G01*
X128328750Y-55310000D01*
G75*
G02*
X128085000Y-55066250I0J243750D01*
G01*
G37*
G36*
G01*
X126210000Y-55066250D02*
X126210000Y-54153750D01*
G75*
G02*
X126453750Y-53910000I243750J0D01*
G01*
X126941250Y-53910000D01*
G75*
G02*
X127185000Y-54153750I0J-243750D01*
G01*
X127185000Y-55066250D01*
G75*
G02*
X126941250Y-55310000I-243750J0D01*
G01*
X126453750Y-55310000D01*
G75*
G02*
X126210000Y-55066250I0J243750D01*
G01*
G37*
G36*
G01*
X128085000Y-52526250D02*
X128085000Y-51613750D01*
G75*
G02*
X128328750Y-51370000I243750J0D01*
G01*
X128816250Y-51370000D01*
G75*
G02*
X129060000Y-51613750I0J-243750D01*
G01*
X129060000Y-52526250D01*
G75*
G02*
X128816250Y-52770000I-243750J0D01*
G01*
X128328750Y-52770000D01*
G75*
G02*
X128085000Y-52526250I0J243750D01*
G01*
G37*
G36*
G01*
X126210000Y-52526250D02*
X126210000Y-51613750D01*
G75*
G02*
X126453750Y-51370000I243750J0D01*
G01*
X126941250Y-51370000D01*
G75*
G02*
X127185000Y-51613750I0J-243750D01*
G01*
X127185000Y-52526250D01*
G75*
G02*
X126941250Y-52770000I-243750J0D01*
G01*
X126453750Y-52770000D01*
G75*
G02*
X126210000Y-52526250I0J243750D01*
G01*
G37*
G36*
G01*
X124009999Y-55060000D02*
X124910001Y-55060000D01*
G75*
G02*
X125160000Y-55309999I0J-249999D01*
G01*
X125160000Y-55960001D01*
G75*
G02*
X124910001Y-56210000I-249999J0D01*
G01*
X124009999Y-56210000D01*
G75*
G02*
X123760000Y-55960001I0J249999D01*
G01*
X123760000Y-55309999D01*
G75*
G02*
X124009999Y-55060000I249999J0D01*
G01*
G37*
G36*
G01*
X124009999Y-53010000D02*
X124910001Y-53010000D01*
G75*
G02*
X125160000Y-53259999I0J-249999D01*
G01*
X125160000Y-53910001D01*
G75*
G02*
X124910001Y-54160000I-249999J0D01*
G01*
X124009999Y-54160000D01*
G75*
G02*
X123760000Y-53910001I0J249999D01*
G01*
X123760000Y-53259999D01*
G75*
G02*
X124009999Y-53010000I249999J0D01*
G01*
G37*
G36*
G01*
X211593750Y-60129000D02*
X210681250Y-60129000D01*
G75*
G02*
X210437500Y-59885250I0J243750D01*
G01*
X210437500Y-59397750D01*
G75*
G02*
X210681250Y-59154000I243750J0D01*
G01*
X211593750Y-59154000D01*
G75*
G02*
X211837500Y-59397750I0J-243750D01*
G01*
X211837500Y-59885250D01*
G75*
G02*
X211593750Y-60129000I-243750J0D01*
G01*
G37*
G36*
G01*
X211593750Y-62004000D02*
X210681250Y-62004000D01*
G75*
G02*
X210437500Y-61760250I0J243750D01*
G01*
X210437500Y-61272750D01*
G75*
G02*
X210681250Y-61029000I243750J0D01*
G01*
X211593750Y-61029000D01*
G75*
G02*
X211837500Y-61272750I0J-243750D01*
G01*
X211837500Y-61760250D01*
G75*
G02*
X211593750Y-62004000I-243750J0D01*
G01*
G37*
D10*
X147500000Y-127700000D03*
X150000000Y-127700000D03*
X152500000Y-127700000D03*
D11*
X143625000Y-135000000D03*
D10*
X152500000Y-142000000D03*
X147500000Y-142000000D03*
D11*
X156375000Y-135000000D03*
D12*
X145000000Y-142900000D03*
X155000000Y-142900000D03*
X145000000Y-127100000D03*
X155000000Y-127100000D03*
G36*
G01*
X121463750Y-47694000D02*
X122376250Y-47694000D01*
G75*
G02*
X122620000Y-47937750I0J-243750D01*
G01*
X122620000Y-48425250D01*
G75*
G02*
X122376250Y-48669000I-243750J0D01*
G01*
X121463750Y-48669000D01*
G75*
G02*
X121220000Y-48425250I0J243750D01*
G01*
X121220000Y-47937750D01*
G75*
G02*
X121463750Y-47694000I243750J0D01*
G01*
G37*
G36*
G01*
X121463750Y-45819000D02*
X122376250Y-45819000D01*
G75*
G02*
X122620000Y-46062750I0J-243750D01*
G01*
X122620000Y-46550250D01*
G75*
G02*
X122376250Y-46794000I-243750J0D01*
G01*
X121463750Y-46794000D01*
G75*
G02*
X121220000Y-46550250I0J243750D01*
G01*
X121220000Y-46062750D01*
G75*
G02*
X121463750Y-45819000I243750J0D01*
G01*
G37*
G36*
G01*
X174610000Y-95019000D02*
X174610000Y-94719000D01*
G75*
G02*
X174760000Y-94569000I150000J0D01*
G01*
X176510000Y-94569000D01*
G75*
G02*
X176660000Y-94719000I0J-150000D01*
G01*
X176660000Y-95019000D01*
G75*
G02*
X176510000Y-95169000I-150000J0D01*
G01*
X174760000Y-95169000D01*
G75*
G02*
X174610000Y-95019000I0J150000D01*
G01*
G37*
G36*
G01*
X174610000Y-93749000D02*
X174610000Y-93449000D01*
G75*
G02*
X174760000Y-93299000I150000J0D01*
G01*
X176510000Y-93299000D01*
G75*
G02*
X176660000Y-93449000I0J-150000D01*
G01*
X176660000Y-93749000D01*
G75*
G02*
X176510000Y-93899000I-150000J0D01*
G01*
X174760000Y-93899000D01*
G75*
G02*
X174610000Y-93749000I0J150000D01*
G01*
G37*
G36*
G01*
X174610000Y-92479000D02*
X174610000Y-92179000D01*
G75*
G02*
X174760000Y-92029000I150000J0D01*
G01*
X176510000Y-92029000D01*
G75*
G02*
X176660000Y-92179000I0J-150000D01*
G01*
X176660000Y-92479000D01*
G75*
G02*
X176510000Y-92629000I-150000J0D01*
G01*
X174760000Y-92629000D01*
G75*
G02*
X174610000Y-92479000I0J150000D01*
G01*
G37*
G36*
G01*
X174610000Y-91209000D02*
X174610000Y-90909000D01*
G75*
G02*
X174760000Y-90759000I150000J0D01*
G01*
X176510000Y-90759000D01*
G75*
G02*
X176660000Y-90909000I0J-150000D01*
G01*
X176660000Y-91209000D01*
G75*
G02*
X176510000Y-91359000I-150000J0D01*
G01*
X174760000Y-91359000D01*
G75*
G02*
X174610000Y-91209000I0J150000D01*
G01*
G37*
G36*
G01*
X174610000Y-89939000D02*
X174610000Y-89639000D01*
G75*
G02*
X174760000Y-89489000I150000J0D01*
G01*
X176510000Y-89489000D01*
G75*
G02*
X176660000Y-89639000I0J-150000D01*
G01*
X176660000Y-89939000D01*
G75*
G02*
X176510000Y-90089000I-150000J0D01*
G01*
X174760000Y-90089000D01*
G75*
G02*
X174610000Y-89939000I0J150000D01*
G01*
G37*
G36*
G01*
X174610000Y-88669000D02*
X174610000Y-88369000D01*
G75*
G02*
X174760000Y-88219000I150000J0D01*
G01*
X176510000Y-88219000D01*
G75*
G02*
X176660000Y-88369000I0J-150000D01*
G01*
X176660000Y-88669000D01*
G75*
G02*
X176510000Y-88819000I-150000J0D01*
G01*
X174760000Y-88819000D01*
G75*
G02*
X174610000Y-88669000I0J150000D01*
G01*
G37*
G36*
G01*
X174610000Y-87399000D02*
X174610000Y-87099000D01*
G75*
G02*
X174760000Y-86949000I150000J0D01*
G01*
X176510000Y-86949000D01*
G75*
G02*
X176660000Y-87099000I0J-150000D01*
G01*
X176660000Y-87399000D01*
G75*
G02*
X176510000Y-87549000I-150000J0D01*
G01*
X174760000Y-87549000D01*
G75*
G02*
X174610000Y-87399000I0J150000D01*
G01*
G37*
G36*
G01*
X174610000Y-86129000D02*
X174610000Y-85829000D01*
G75*
G02*
X174760000Y-85679000I150000J0D01*
G01*
X176510000Y-85679000D01*
G75*
G02*
X176660000Y-85829000I0J-150000D01*
G01*
X176660000Y-86129000D01*
G75*
G02*
X176510000Y-86279000I-150000J0D01*
G01*
X174760000Y-86279000D01*
G75*
G02*
X174610000Y-86129000I0J150000D01*
G01*
G37*
G36*
G01*
X174610000Y-84859000D02*
X174610000Y-84559000D01*
G75*
G02*
X174760000Y-84409000I150000J0D01*
G01*
X176510000Y-84409000D01*
G75*
G02*
X176660000Y-84559000I0J-150000D01*
G01*
X176660000Y-84859000D01*
G75*
G02*
X176510000Y-85009000I-150000J0D01*
G01*
X174760000Y-85009000D01*
G75*
G02*
X174610000Y-84859000I0J150000D01*
G01*
G37*
G36*
G01*
X174610000Y-83589000D02*
X174610000Y-83289000D01*
G75*
G02*
X174760000Y-83139000I150000J0D01*
G01*
X176510000Y-83139000D01*
G75*
G02*
X176660000Y-83289000I0J-150000D01*
G01*
X176660000Y-83589000D01*
G75*
G02*
X176510000Y-83739000I-150000J0D01*
G01*
X174760000Y-83739000D01*
G75*
G02*
X174610000Y-83589000I0J150000D01*
G01*
G37*
G36*
G01*
X174610000Y-82319000D02*
X174610000Y-82019000D01*
G75*
G02*
X174760000Y-81869000I150000J0D01*
G01*
X176510000Y-81869000D01*
G75*
G02*
X176660000Y-82019000I0J-150000D01*
G01*
X176660000Y-82319000D01*
G75*
G02*
X176510000Y-82469000I-150000J0D01*
G01*
X174760000Y-82469000D01*
G75*
G02*
X174610000Y-82319000I0J150000D01*
G01*
G37*
G36*
G01*
X174610000Y-81049000D02*
X174610000Y-80749000D01*
G75*
G02*
X174760000Y-80599000I150000J0D01*
G01*
X176510000Y-80599000D01*
G75*
G02*
X176660000Y-80749000I0J-150000D01*
G01*
X176660000Y-81049000D01*
G75*
G02*
X176510000Y-81199000I-150000J0D01*
G01*
X174760000Y-81199000D01*
G75*
G02*
X174610000Y-81049000I0J150000D01*
G01*
G37*
G36*
G01*
X174610000Y-79779000D02*
X174610000Y-79479000D01*
G75*
G02*
X174760000Y-79329000I150000J0D01*
G01*
X176510000Y-79329000D01*
G75*
G02*
X176660000Y-79479000I0J-150000D01*
G01*
X176660000Y-79779000D01*
G75*
G02*
X176510000Y-79929000I-150000J0D01*
G01*
X174760000Y-79929000D01*
G75*
G02*
X174610000Y-79779000I0J150000D01*
G01*
G37*
G36*
G01*
X174610000Y-78509000D02*
X174610000Y-78209000D01*
G75*
G02*
X174760000Y-78059000I150000J0D01*
G01*
X176510000Y-78059000D01*
G75*
G02*
X176660000Y-78209000I0J-150000D01*
G01*
X176660000Y-78509000D01*
G75*
G02*
X176510000Y-78659000I-150000J0D01*
G01*
X174760000Y-78659000D01*
G75*
G02*
X174610000Y-78509000I0J150000D01*
G01*
G37*
G36*
G01*
X165310000Y-78509000D02*
X165310000Y-78209000D01*
G75*
G02*
X165460000Y-78059000I150000J0D01*
G01*
X167210000Y-78059000D01*
G75*
G02*
X167360000Y-78209000I0J-150000D01*
G01*
X167360000Y-78509000D01*
G75*
G02*
X167210000Y-78659000I-150000J0D01*
G01*
X165460000Y-78659000D01*
G75*
G02*
X165310000Y-78509000I0J150000D01*
G01*
G37*
G36*
G01*
X165310000Y-79779000D02*
X165310000Y-79479000D01*
G75*
G02*
X165460000Y-79329000I150000J0D01*
G01*
X167210000Y-79329000D01*
G75*
G02*
X167360000Y-79479000I0J-150000D01*
G01*
X167360000Y-79779000D01*
G75*
G02*
X167210000Y-79929000I-150000J0D01*
G01*
X165460000Y-79929000D01*
G75*
G02*
X165310000Y-79779000I0J150000D01*
G01*
G37*
G36*
G01*
X165310000Y-81049000D02*
X165310000Y-80749000D01*
G75*
G02*
X165460000Y-80599000I150000J0D01*
G01*
X167210000Y-80599000D01*
G75*
G02*
X167360000Y-80749000I0J-150000D01*
G01*
X167360000Y-81049000D01*
G75*
G02*
X167210000Y-81199000I-150000J0D01*
G01*
X165460000Y-81199000D01*
G75*
G02*
X165310000Y-81049000I0J150000D01*
G01*
G37*
G36*
G01*
X165310000Y-82319000D02*
X165310000Y-82019000D01*
G75*
G02*
X165460000Y-81869000I150000J0D01*
G01*
X167210000Y-81869000D01*
G75*
G02*
X167360000Y-82019000I0J-150000D01*
G01*
X167360000Y-82319000D01*
G75*
G02*
X167210000Y-82469000I-150000J0D01*
G01*
X165460000Y-82469000D01*
G75*
G02*
X165310000Y-82319000I0J150000D01*
G01*
G37*
G36*
G01*
X165310000Y-83589000D02*
X165310000Y-83289000D01*
G75*
G02*
X165460000Y-83139000I150000J0D01*
G01*
X167210000Y-83139000D01*
G75*
G02*
X167360000Y-83289000I0J-150000D01*
G01*
X167360000Y-83589000D01*
G75*
G02*
X167210000Y-83739000I-150000J0D01*
G01*
X165460000Y-83739000D01*
G75*
G02*
X165310000Y-83589000I0J150000D01*
G01*
G37*
G36*
G01*
X165310000Y-84859000D02*
X165310000Y-84559000D01*
G75*
G02*
X165460000Y-84409000I150000J0D01*
G01*
X167210000Y-84409000D01*
G75*
G02*
X167360000Y-84559000I0J-150000D01*
G01*
X167360000Y-84859000D01*
G75*
G02*
X167210000Y-85009000I-150000J0D01*
G01*
X165460000Y-85009000D01*
G75*
G02*
X165310000Y-84859000I0J150000D01*
G01*
G37*
G36*
G01*
X165310000Y-86129000D02*
X165310000Y-85829000D01*
G75*
G02*
X165460000Y-85679000I150000J0D01*
G01*
X167210000Y-85679000D01*
G75*
G02*
X167360000Y-85829000I0J-150000D01*
G01*
X167360000Y-86129000D01*
G75*
G02*
X167210000Y-86279000I-150000J0D01*
G01*
X165460000Y-86279000D01*
G75*
G02*
X165310000Y-86129000I0J150000D01*
G01*
G37*
G36*
G01*
X165310000Y-87399000D02*
X165310000Y-87099000D01*
G75*
G02*
X165460000Y-86949000I150000J0D01*
G01*
X167210000Y-86949000D01*
G75*
G02*
X167360000Y-87099000I0J-150000D01*
G01*
X167360000Y-87399000D01*
G75*
G02*
X167210000Y-87549000I-150000J0D01*
G01*
X165460000Y-87549000D01*
G75*
G02*
X165310000Y-87399000I0J150000D01*
G01*
G37*
G36*
G01*
X165310000Y-88669000D02*
X165310000Y-88369000D01*
G75*
G02*
X165460000Y-88219000I150000J0D01*
G01*
X167210000Y-88219000D01*
G75*
G02*
X167360000Y-88369000I0J-150000D01*
G01*
X167360000Y-88669000D01*
G75*
G02*
X167210000Y-88819000I-150000J0D01*
G01*
X165460000Y-88819000D01*
G75*
G02*
X165310000Y-88669000I0J150000D01*
G01*
G37*
G36*
G01*
X165310000Y-89939000D02*
X165310000Y-89639000D01*
G75*
G02*
X165460000Y-89489000I150000J0D01*
G01*
X167210000Y-89489000D01*
G75*
G02*
X167360000Y-89639000I0J-150000D01*
G01*
X167360000Y-89939000D01*
G75*
G02*
X167210000Y-90089000I-150000J0D01*
G01*
X165460000Y-90089000D01*
G75*
G02*
X165310000Y-89939000I0J150000D01*
G01*
G37*
G36*
G01*
X165310000Y-91209000D02*
X165310000Y-90909000D01*
G75*
G02*
X165460000Y-90759000I150000J0D01*
G01*
X167210000Y-90759000D01*
G75*
G02*
X167360000Y-90909000I0J-150000D01*
G01*
X167360000Y-91209000D01*
G75*
G02*
X167210000Y-91359000I-150000J0D01*
G01*
X165460000Y-91359000D01*
G75*
G02*
X165310000Y-91209000I0J150000D01*
G01*
G37*
G36*
G01*
X165310000Y-92479000D02*
X165310000Y-92179000D01*
G75*
G02*
X165460000Y-92029000I150000J0D01*
G01*
X167210000Y-92029000D01*
G75*
G02*
X167360000Y-92179000I0J-150000D01*
G01*
X167360000Y-92479000D01*
G75*
G02*
X167210000Y-92629000I-150000J0D01*
G01*
X165460000Y-92629000D01*
G75*
G02*
X165310000Y-92479000I0J150000D01*
G01*
G37*
G36*
G01*
X165310000Y-93749000D02*
X165310000Y-93449000D01*
G75*
G02*
X165460000Y-93299000I150000J0D01*
G01*
X167210000Y-93299000D01*
G75*
G02*
X167360000Y-93449000I0J-150000D01*
G01*
X167360000Y-93749000D01*
G75*
G02*
X167210000Y-93899000I-150000J0D01*
G01*
X165460000Y-93899000D01*
G75*
G02*
X165310000Y-93749000I0J150000D01*
G01*
G37*
G36*
G01*
X165310000Y-95019000D02*
X165310000Y-94719000D01*
G75*
G02*
X165460000Y-94569000I150000J0D01*
G01*
X167210000Y-94569000D01*
G75*
G02*
X167360000Y-94719000I0J-150000D01*
G01*
X167360000Y-95019000D01*
G75*
G02*
X167210000Y-95169000I-150000J0D01*
G01*
X165460000Y-95169000D01*
G75*
G02*
X165310000Y-95019000I0J150000D01*
G01*
G37*
D13*
X199525000Y-49475000D03*
X199525000Y-48825000D03*
X199525000Y-48175000D03*
X199525000Y-47525000D03*
X197475000Y-47525000D03*
X197475000Y-48175000D03*
X197475000Y-48825000D03*
X197475000Y-49475000D03*
D14*
X198025000Y-52550000D03*
X198975000Y-54450000D03*
X198025000Y-54450000D03*
X198975000Y-52550000D03*
D15*
X198500000Y-53500000D03*
G36*
G01*
X198740000Y-58095000D02*
X199060000Y-58095000D01*
G75*
G02*
X199220000Y-58255000I0J-160000D01*
G01*
X199220000Y-58745000D01*
G75*
G02*
X199060000Y-58905000I-160000J0D01*
G01*
X198740000Y-58905000D01*
G75*
G02*
X198580000Y-58745000I0J160000D01*
G01*
X198580000Y-58255000D01*
G75*
G02*
X198740000Y-58095000I160000J0D01*
G01*
G37*
G36*
G01*
X197940000Y-58095000D02*
X198260000Y-58095000D01*
G75*
G02*
X198420000Y-58255000I0J-160000D01*
G01*
X198420000Y-58745000D01*
G75*
G02*
X198260000Y-58905000I-160000J0D01*
G01*
X197940000Y-58905000D01*
G75*
G02*
X197780000Y-58745000I0J160000D01*
G01*
X197780000Y-58255000D01*
G75*
G02*
X197940000Y-58095000I160000J0D01*
G01*
G37*
G36*
G01*
X197743750Y-59200000D02*
X197956250Y-59200000D01*
G75*
G02*
X198050000Y-59293750I0J-93750D01*
G01*
X198050000Y-59481250D01*
G75*
G02*
X197956250Y-59575000I-93750J0D01*
G01*
X197743750Y-59575000D01*
G75*
G02*
X197650000Y-59481250I0J93750D01*
G01*
X197650000Y-59293750D01*
G75*
G02*
X197743750Y-59200000I93750J0D01*
G01*
G37*
G36*
G01*
X198393750Y-59200000D02*
X198606250Y-59200000D01*
G75*
G02*
X198700000Y-59293750I0J-93750D01*
G01*
X198700000Y-59481250D01*
G75*
G02*
X198606250Y-59575000I-93750J0D01*
G01*
X198393750Y-59575000D01*
G75*
G02*
X198300000Y-59481250I0J93750D01*
G01*
X198300000Y-59293750D01*
G75*
G02*
X198393750Y-59200000I93750J0D01*
G01*
G37*
G36*
G01*
X199043750Y-59200000D02*
X199256250Y-59200000D01*
G75*
G02*
X199350000Y-59293750I0J-93750D01*
G01*
X199350000Y-59481250D01*
G75*
G02*
X199256250Y-59575000I-93750J0D01*
G01*
X199043750Y-59575000D01*
G75*
G02*
X198950000Y-59481250I0J93750D01*
G01*
X198950000Y-59293750D01*
G75*
G02*
X199043750Y-59200000I93750J0D01*
G01*
G37*
G36*
G01*
X199043750Y-57425000D02*
X199256250Y-57425000D01*
G75*
G02*
X199350000Y-57518750I0J-93750D01*
G01*
X199350000Y-57706250D01*
G75*
G02*
X199256250Y-57800000I-93750J0D01*
G01*
X199043750Y-57800000D01*
G75*
G02*
X198950000Y-57706250I0J93750D01*
G01*
X198950000Y-57518750D01*
G75*
G02*
X199043750Y-57425000I93750J0D01*
G01*
G37*
G36*
G01*
X198393750Y-57425000D02*
X198606250Y-57425000D01*
G75*
G02*
X198700000Y-57518750I0J-93750D01*
G01*
X198700000Y-57706250D01*
G75*
G02*
X198606250Y-57800000I-93750J0D01*
G01*
X198393750Y-57800000D01*
G75*
G02*
X198300000Y-57706250I0J93750D01*
G01*
X198300000Y-57518750D01*
G75*
G02*
X198393750Y-57425000I93750J0D01*
G01*
G37*
G36*
G01*
X197743750Y-57425000D02*
X197956250Y-57425000D01*
G75*
G02*
X198050000Y-57518750I0J-93750D01*
G01*
X198050000Y-57706250D01*
G75*
G02*
X197956250Y-57800000I-93750J0D01*
G01*
X197743750Y-57800000D01*
G75*
G02*
X197650000Y-57706250I0J93750D01*
G01*
X197650000Y-57518750D01*
G75*
G02*
X197743750Y-57425000I93750J0D01*
G01*
G37*
G36*
G01*
X91255000Y-91261250D02*
X91255000Y-90348750D01*
G75*
G02*
X91498750Y-90105000I243750J0D01*
G01*
X91986250Y-90105000D01*
G75*
G02*
X92230000Y-90348750I0J-243750D01*
G01*
X92230000Y-91261250D01*
G75*
G02*
X91986250Y-91505000I-243750J0D01*
G01*
X91498750Y-91505000D01*
G75*
G02*
X91255000Y-91261250I0J243750D01*
G01*
G37*
G36*
G01*
X89380000Y-91261250D02*
X89380000Y-90348750D01*
G75*
G02*
X89623750Y-90105000I243750J0D01*
G01*
X90111250Y-90105000D01*
G75*
G02*
X90355000Y-90348750I0J-243750D01*
G01*
X90355000Y-91261250D01*
G75*
G02*
X90111250Y-91505000I-243750J0D01*
G01*
X89623750Y-91505000D01*
G75*
G02*
X89380000Y-91261250I0J243750D01*
G01*
G37*
G36*
G01*
X122370001Y-54160000D02*
X121469999Y-54160000D01*
G75*
G02*
X121220000Y-53910001I0J249999D01*
G01*
X121220000Y-53259999D01*
G75*
G02*
X121469999Y-53010000I249999J0D01*
G01*
X122370001Y-53010000D01*
G75*
G02*
X122620000Y-53259999I0J-249999D01*
G01*
X122620000Y-53910001D01*
G75*
G02*
X122370001Y-54160000I-249999J0D01*
G01*
G37*
G36*
G01*
X122370001Y-56210000D02*
X121469999Y-56210000D01*
G75*
G02*
X121220000Y-55960001I0J249999D01*
G01*
X121220000Y-55309999D01*
G75*
G02*
X121469999Y-55060000I249999J0D01*
G01*
X122370001Y-55060000D01*
G75*
G02*
X122620000Y-55309999I0J-249999D01*
G01*
X122620000Y-55960001D01*
G75*
G02*
X122370001Y-56210000I-249999J0D01*
G01*
G37*
D16*
X89535000Y-82550000D03*
D17*
X91440000Y-79850000D03*
X90170000Y-79850000D03*
X88900000Y-79850000D03*
X87630000Y-79850000D03*
X87630000Y-85250000D03*
X88900000Y-85250000D03*
X90170000Y-85250000D03*
X91440000Y-85250000D03*
D18*
X101355000Y-46355000D03*
X101355000Y-47625000D03*
X101355000Y-48895000D03*
X101355000Y-50165000D03*
X101355000Y-51435000D03*
X101355000Y-52705000D03*
X101355000Y-53975000D03*
X101355000Y-55245000D03*
X101355000Y-56515000D03*
X101355000Y-57785000D03*
X101355000Y-59055000D03*
X101355000Y-60325000D03*
X101355000Y-61595000D03*
X101355000Y-62865000D03*
D19*
X104140000Y-63865000D03*
X105410000Y-63865000D03*
X106680000Y-63865000D03*
X107950000Y-63865000D03*
X109220000Y-63865000D03*
X110490000Y-63865000D03*
X111760000Y-63865000D03*
X113030000Y-63865000D03*
X114300000Y-63865000D03*
X115570000Y-63865000D03*
D18*
X118355000Y-62865000D03*
X118355000Y-61595000D03*
X118355000Y-60325000D03*
X118355000Y-59055000D03*
X118355000Y-57785000D03*
X118355000Y-56515000D03*
X118355000Y-55245000D03*
X118355000Y-53975000D03*
X118355000Y-52705000D03*
X118355000Y-51435000D03*
X118355000Y-50165000D03*
X118355000Y-48895000D03*
X118355000Y-47625000D03*
X118355000Y-46355000D03*
D20*
X110855000Y-53855000D03*
G36*
G01*
X96705000Y-52254999D02*
X96705000Y-53155001D01*
G75*
G02*
X96455001Y-53405000I-249999J0D01*
G01*
X95804999Y-53405000D01*
G75*
G02*
X95555000Y-53155001I0J249999D01*
G01*
X95555000Y-52254999D01*
G75*
G02*
X95804999Y-52005000I249999J0D01*
G01*
X96455001Y-52005000D01*
G75*
G02*
X96705000Y-52254999I0J-249999D01*
G01*
G37*
G36*
G01*
X98755000Y-52254999D02*
X98755000Y-53155001D01*
G75*
G02*
X98505001Y-53405000I-249999J0D01*
G01*
X97854999Y-53405000D01*
G75*
G02*
X97605000Y-53155001I0J249999D01*
G01*
X97605000Y-52254999D01*
G75*
G02*
X97854999Y-52005000I249999J0D01*
G01*
X98505001Y-52005000D01*
G75*
G02*
X98755000Y-52254999I0J-249999D01*
G01*
G37*
G36*
G01*
X84004999Y-80460000D02*
X84905001Y-80460000D01*
G75*
G02*
X85155000Y-80709999I0J-249999D01*
G01*
X85155000Y-81360001D01*
G75*
G02*
X84905001Y-81610000I-249999J0D01*
G01*
X84004999Y-81610000D01*
G75*
G02*
X83755000Y-81360001I0J249999D01*
G01*
X83755000Y-80709999D01*
G75*
G02*
X84004999Y-80460000I249999J0D01*
G01*
G37*
G36*
G01*
X84004999Y-78410000D02*
X84905001Y-78410000D01*
G75*
G02*
X85155000Y-78659999I0J-249999D01*
G01*
X85155000Y-79310001D01*
G75*
G02*
X84905001Y-79560000I-249999J0D01*
G01*
X84004999Y-79560000D01*
G75*
G02*
X83755000Y-79310001I0J249999D01*
G01*
X83755000Y-78659999D01*
G75*
G02*
X84004999Y-78410000I249999J0D01*
G01*
G37*
G36*
G01*
X84004999Y-76015000D02*
X84905001Y-76015000D01*
G75*
G02*
X85155000Y-76264999I0J-249999D01*
G01*
X85155000Y-76915001D01*
G75*
G02*
X84905001Y-77165000I-249999J0D01*
G01*
X84004999Y-77165000D01*
G75*
G02*
X83755000Y-76915001I0J249999D01*
G01*
X83755000Y-76264999D01*
G75*
G02*
X84004999Y-76015000I249999J0D01*
G01*
G37*
G36*
G01*
X84004999Y-73965000D02*
X84905001Y-73965000D01*
G75*
G02*
X85155000Y-74214999I0J-249999D01*
G01*
X85155000Y-74865001D01*
G75*
G02*
X84905001Y-75115000I-249999J0D01*
G01*
X84004999Y-75115000D01*
G75*
G02*
X83755000Y-74865001I0J249999D01*
G01*
X83755000Y-74214999D01*
G75*
G02*
X84004999Y-73965000I249999J0D01*
G01*
G37*
G36*
G01*
X164280000Y-53790001D02*
X164280000Y-52889999D01*
G75*
G02*
X164529999Y-52640000I249999J0D01*
G01*
X165180001Y-52640000D01*
G75*
G02*
X165430000Y-52889999I0J-249999D01*
G01*
X165430000Y-53790001D01*
G75*
G02*
X165180001Y-54040000I-249999J0D01*
G01*
X164529999Y-54040000D01*
G75*
G02*
X164280000Y-53790001I0J249999D01*
G01*
G37*
G36*
G01*
X162230000Y-53790001D02*
X162230000Y-52889999D01*
G75*
G02*
X162479999Y-52640000I249999J0D01*
G01*
X163130001Y-52640000D01*
G75*
G02*
X163380000Y-52889999I0J-249999D01*
G01*
X163380000Y-53790001D01*
G75*
G02*
X163130001Y-54040000I-249999J0D01*
G01*
X162479999Y-54040000D01*
G75*
G02*
X162230000Y-53790001I0J249999D01*
G01*
G37*
G36*
G01*
X164280000Y-51250001D02*
X164280000Y-50349999D01*
G75*
G02*
X164529999Y-50100000I249999J0D01*
G01*
X165180001Y-50100000D01*
G75*
G02*
X165430000Y-50349999I0J-249999D01*
G01*
X165430000Y-51250001D01*
G75*
G02*
X165180001Y-51500000I-249999J0D01*
G01*
X164529999Y-51500000D01*
G75*
G02*
X164280000Y-51250001I0J249999D01*
G01*
G37*
G36*
G01*
X162230000Y-51250001D02*
X162230000Y-50349999D01*
G75*
G02*
X162479999Y-50100000I249999J0D01*
G01*
X163130001Y-50100000D01*
G75*
G02*
X163380000Y-50349999I0J-249999D01*
G01*
X163380000Y-51250001D01*
G75*
G02*
X163130001Y-51500000I-249999J0D01*
G01*
X162479999Y-51500000D01*
G75*
G02*
X162230000Y-51250001I0J249999D01*
G01*
G37*
G36*
G01*
X97605000Y-65855001D02*
X97605000Y-64954999D01*
G75*
G02*
X97854999Y-64705000I249999J0D01*
G01*
X98505001Y-64705000D01*
G75*
G02*
X98755000Y-64954999I0J-249999D01*
G01*
X98755000Y-65855001D01*
G75*
G02*
X98505001Y-66105000I-249999J0D01*
G01*
X97854999Y-66105000D01*
G75*
G02*
X97605000Y-65855001I0J249999D01*
G01*
G37*
G36*
G01*
X95555000Y-65855001D02*
X95555000Y-64954999D01*
G75*
G02*
X95804999Y-64705000I249999J0D01*
G01*
X96455001Y-64705000D01*
G75*
G02*
X96705000Y-64954999I0J-249999D01*
G01*
X96705000Y-65855001D01*
G75*
G02*
X96455001Y-66105000I-249999J0D01*
G01*
X95804999Y-66105000D01*
G75*
G02*
X95555000Y-65855001I0J249999D01*
G01*
G37*
G36*
G01*
X97605000Y-60775001D02*
X97605000Y-59874999D01*
G75*
G02*
X97854999Y-59625000I249999J0D01*
G01*
X98505001Y-59625000D01*
G75*
G02*
X98755000Y-59874999I0J-249999D01*
G01*
X98755000Y-60775001D01*
G75*
G02*
X98505001Y-61025000I-249999J0D01*
G01*
X97854999Y-61025000D01*
G75*
G02*
X97605000Y-60775001I0J249999D01*
G01*
G37*
G36*
G01*
X95555000Y-60775001D02*
X95555000Y-59874999D01*
G75*
G02*
X95804999Y-59625000I249999J0D01*
G01*
X96455001Y-59625000D01*
G75*
G02*
X96705000Y-59874999I0J-249999D01*
G01*
X96705000Y-60775001D01*
G75*
G02*
X96455001Y-61025000I-249999J0D01*
G01*
X95804999Y-61025000D01*
G75*
G02*
X95555000Y-60775001I0J249999D01*
G01*
G37*
G36*
G01*
X97605000Y-55695001D02*
X97605000Y-54794999D01*
G75*
G02*
X97854999Y-54545000I249999J0D01*
G01*
X98505001Y-54545000D01*
G75*
G02*
X98755000Y-54794999I0J-249999D01*
G01*
X98755000Y-55695001D01*
G75*
G02*
X98505001Y-55945000I-249999J0D01*
G01*
X97854999Y-55945000D01*
G75*
G02*
X97605000Y-55695001I0J249999D01*
G01*
G37*
G36*
G01*
X95555000Y-55695001D02*
X95555000Y-54794999D01*
G75*
G02*
X95804999Y-54545000I249999J0D01*
G01*
X96455001Y-54545000D01*
G75*
G02*
X96705000Y-54794999I0J-249999D01*
G01*
X96705000Y-55695001D01*
G75*
G02*
X96455001Y-55945000I-249999J0D01*
G01*
X95804999Y-55945000D01*
G75*
G02*
X95555000Y-55695001I0J249999D01*
G01*
G37*
G36*
G01*
X97605000Y-58235001D02*
X97605000Y-57334999D01*
G75*
G02*
X97854999Y-57085000I249999J0D01*
G01*
X98505001Y-57085000D01*
G75*
G02*
X98755000Y-57334999I0J-249999D01*
G01*
X98755000Y-58235001D01*
G75*
G02*
X98505001Y-58485000I-249999J0D01*
G01*
X97854999Y-58485000D01*
G75*
G02*
X97605000Y-58235001I0J249999D01*
G01*
G37*
G36*
G01*
X95555000Y-58235001D02*
X95555000Y-57334999D01*
G75*
G02*
X95804999Y-57085000I249999J0D01*
G01*
X96455001Y-57085000D01*
G75*
G02*
X96705000Y-57334999I0J-249999D01*
G01*
X96705000Y-58235001D01*
G75*
G02*
X96455001Y-58485000I-249999J0D01*
G01*
X95804999Y-58485000D01*
G75*
G02*
X95555000Y-58235001I0J249999D01*
G01*
G37*
G36*
G01*
X96705000Y-62414999D02*
X96705000Y-63315001D01*
G75*
G02*
X96455001Y-63565000I-249999J0D01*
G01*
X95804999Y-63565000D01*
G75*
G02*
X95555000Y-63315001I0J249999D01*
G01*
X95555000Y-62414999D01*
G75*
G02*
X95804999Y-62165000I249999J0D01*
G01*
X96455001Y-62165000D01*
G75*
G02*
X96705000Y-62414999I0J-249999D01*
G01*
G37*
G36*
G01*
X98755000Y-62414999D02*
X98755000Y-63315001D01*
G75*
G02*
X98505001Y-63565000I-249999J0D01*
G01*
X97854999Y-63565000D01*
G75*
G02*
X97605000Y-63315001I0J249999D01*
G01*
X97605000Y-62414999D01*
G75*
G02*
X97854999Y-62165000I249999J0D01*
G01*
X98505001Y-62165000D01*
G75*
G02*
X98755000Y-62414999I0J-249999D01*
G01*
G37*
G36*
G01*
X124910001Y-48200000D02*
X124009999Y-48200000D01*
G75*
G02*
X123760000Y-47950001I0J249999D01*
G01*
X123760000Y-47299999D01*
G75*
G02*
X124009999Y-47050000I249999J0D01*
G01*
X124910001Y-47050000D01*
G75*
G02*
X125160000Y-47299999I0J-249999D01*
G01*
X125160000Y-47950001D01*
G75*
G02*
X124910001Y-48200000I-249999J0D01*
G01*
G37*
G36*
G01*
X124910001Y-50250000D02*
X124009999Y-50250000D01*
G75*
G02*
X123760000Y-50000001I0J249999D01*
G01*
X123760000Y-49349999D01*
G75*
G02*
X124009999Y-49100000I249999J0D01*
G01*
X124910001Y-49100000D01*
G75*
G02*
X125160000Y-49349999I0J-249999D01*
G01*
X125160000Y-50000001D01*
G75*
G02*
X124910001Y-50250000I-249999J0D01*
G01*
G37*
G36*
G01*
X104075001Y-107430000D02*
X99124999Y-107430000D01*
G75*
G02*
X98875000Y-107180001I0J249999D01*
G01*
X98875000Y-105754999D01*
G75*
G02*
X99124999Y-105505000I249999J0D01*
G01*
X104075001Y-105505000D01*
G75*
G02*
X104325000Y-105754999I0J-249999D01*
G01*
X104325000Y-107180001D01*
G75*
G02*
X104075001Y-107430000I-249999J0D01*
G01*
G37*
G36*
G01*
X104075001Y-114205000D02*
X99124999Y-114205000D01*
G75*
G02*
X98875000Y-113955001I0J249999D01*
G01*
X98875000Y-112529999D01*
G75*
G02*
X99124999Y-112280000I249999J0D01*
G01*
X104075001Y-112280000D01*
G75*
G02*
X104325000Y-112529999I0J-249999D01*
G01*
X104325000Y-113955001D01*
G75*
G02*
X104075001Y-114205000I-249999J0D01*
G01*
G37*
D21*
X92515000Y-106305000D03*
X96615000Y-106305000D03*
X96615000Y-100605000D03*
X92515000Y-100605000D03*
G36*
G01*
X202456250Y-53050000D02*
X201543750Y-53050000D01*
G75*
G02*
X201300000Y-52806250I0J243750D01*
G01*
X201300000Y-52318750D01*
G75*
G02*
X201543750Y-52075000I243750J0D01*
G01*
X202456250Y-52075000D01*
G75*
G02*
X202700000Y-52318750I0J-243750D01*
G01*
X202700000Y-52806250D01*
G75*
G02*
X202456250Y-53050000I-243750J0D01*
G01*
G37*
G36*
G01*
X202456250Y-54925000D02*
X201543750Y-54925000D01*
G75*
G02*
X201300000Y-54681250I0J243750D01*
G01*
X201300000Y-54193750D01*
G75*
G02*
X201543750Y-53950000I243750J0D01*
G01*
X202456250Y-53950000D01*
G75*
G02*
X202700000Y-54193750I0J-243750D01*
G01*
X202700000Y-54681250D01*
G75*
G02*
X202456250Y-54925000I-243750J0D01*
G01*
G37*
G36*
G01*
X195456250Y-48050000D02*
X194543750Y-48050000D01*
G75*
G02*
X194300000Y-47806250I0J243750D01*
G01*
X194300000Y-47318750D01*
G75*
G02*
X194543750Y-47075000I243750J0D01*
G01*
X195456250Y-47075000D01*
G75*
G02*
X195700000Y-47318750I0J-243750D01*
G01*
X195700000Y-47806250D01*
G75*
G02*
X195456250Y-48050000I-243750J0D01*
G01*
G37*
G36*
G01*
X195456250Y-49925000D02*
X194543750Y-49925000D01*
G75*
G02*
X194300000Y-49681250I0J243750D01*
G01*
X194300000Y-49193750D01*
G75*
G02*
X194543750Y-48950000I243750J0D01*
G01*
X195456250Y-48950000D01*
G75*
G02*
X195700000Y-49193750I0J-243750D01*
G01*
X195700000Y-49681250D01*
G75*
G02*
X195456250Y-49925000I-243750J0D01*
G01*
G37*
G36*
G01*
X202456250Y-48050000D02*
X201543750Y-48050000D01*
G75*
G02*
X201300000Y-47806250I0J243750D01*
G01*
X201300000Y-47318750D01*
G75*
G02*
X201543750Y-47075000I243750J0D01*
G01*
X202456250Y-47075000D01*
G75*
G02*
X202700000Y-47318750I0J-243750D01*
G01*
X202700000Y-47806250D01*
G75*
G02*
X202456250Y-48050000I-243750J0D01*
G01*
G37*
G36*
G01*
X202456250Y-49925000D02*
X201543750Y-49925000D01*
G75*
G02*
X201300000Y-49681250I0J243750D01*
G01*
X201300000Y-49193750D01*
G75*
G02*
X201543750Y-48950000I243750J0D01*
G01*
X202456250Y-48950000D01*
G75*
G02*
X202700000Y-49193750I0J-243750D01*
G01*
X202700000Y-49681250D01*
G75*
G02*
X202456250Y-49925000I-243750J0D01*
G01*
G37*
G36*
G01*
X202456250Y-58050000D02*
X201543750Y-58050000D01*
G75*
G02*
X201300000Y-57806250I0J243750D01*
G01*
X201300000Y-57318750D01*
G75*
G02*
X201543750Y-57075000I243750J0D01*
G01*
X202456250Y-57075000D01*
G75*
G02*
X202700000Y-57318750I0J-243750D01*
G01*
X202700000Y-57806250D01*
G75*
G02*
X202456250Y-58050000I-243750J0D01*
G01*
G37*
G36*
G01*
X202456250Y-59925000D02*
X201543750Y-59925000D01*
G75*
G02*
X201300000Y-59681250I0J243750D01*
G01*
X201300000Y-59193750D01*
G75*
G02*
X201543750Y-58950000I243750J0D01*
G01*
X202456250Y-58950000D01*
G75*
G02*
X202700000Y-59193750I0J-243750D01*
G01*
X202700000Y-59681250D01*
G75*
G02*
X202456250Y-59925000I-243750J0D01*
G01*
G37*
G36*
G01*
X91255000Y-93801250D02*
X91255000Y-92888750D01*
G75*
G02*
X91498750Y-92645000I243750J0D01*
G01*
X91986250Y-92645000D01*
G75*
G02*
X92230000Y-92888750I0J-243750D01*
G01*
X92230000Y-93801250D01*
G75*
G02*
X91986250Y-94045000I-243750J0D01*
G01*
X91498750Y-94045000D01*
G75*
G02*
X91255000Y-93801250I0J243750D01*
G01*
G37*
G36*
G01*
X89380000Y-93801250D02*
X89380000Y-92888750D01*
G75*
G02*
X89623750Y-92645000I243750J0D01*
G01*
X90111250Y-92645000D01*
G75*
G02*
X90355000Y-92888750I0J-243750D01*
G01*
X90355000Y-93801250D01*
G75*
G02*
X90111250Y-94045000I-243750J0D01*
G01*
X89623750Y-94045000D01*
G75*
G02*
X89380000Y-93801250I0J243750D01*
G01*
G37*
G36*
G01*
X163905250Y-83497000D02*
X162992750Y-83497000D01*
G75*
G02*
X162749000Y-83253250I0J243750D01*
G01*
X162749000Y-82765750D01*
G75*
G02*
X162992750Y-82522000I243750J0D01*
G01*
X163905250Y-82522000D01*
G75*
G02*
X164149000Y-82765750I0J-243750D01*
G01*
X164149000Y-83253250D01*
G75*
G02*
X163905250Y-83497000I-243750J0D01*
G01*
G37*
G36*
G01*
X163905250Y-85372000D02*
X162992750Y-85372000D01*
G75*
G02*
X162749000Y-85128250I0J243750D01*
G01*
X162749000Y-84640750D01*
G75*
G02*
X162992750Y-84397000I243750J0D01*
G01*
X163905250Y-84397000D01*
G75*
G02*
X164149000Y-84640750I0J-243750D01*
G01*
X164149000Y-85128250D01*
G75*
G02*
X163905250Y-85372000I-243750J0D01*
G01*
G37*
G36*
G01*
X91890000Y-77291250D02*
X91890000Y-76378750D01*
G75*
G02*
X92133750Y-76135000I243750J0D01*
G01*
X92621250Y-76135000D01*
G75*
G02*
X92865000Y-76378750I0J-243750D01*
G01*
X92865000Y-77291250D01*
G75*
G02*
X92621250Y-77535000I-243750J0D01*
G01*
X92133750Y-77535000D01*
G75*
G02*
X91890000Y-77291250I0J243750D01*
G01*
G37*
G36*
G01*
X90015000Y-77291250D02*
X90015000Y-76378750D01*
G75*
G02*
X90258750Y-76135000I243750J0D01*
G01*
X90746250Y-76135000D01*
G75*
G02*
X90990000Y-76378750I0J-243750D01*
G01*
X90990000Y-77291250D01*
G75*
G02*
X90746250Y-77535000I-243750J0D01*
G01*
X90258750Y-77535000D01*
G75*
G02*
X90015000Y-77291250I0J243750D01*
G01*
G37*
G36*
G01*
X87180000Y-76378750D02*
X87180000Y-77291250D01*
G75*
G02*
X86936250Y-77535000I-243750J0D01*
G01*
X86448750Y-77535000D01*
G75*
G02*
X86205000Y-77291250I0J243750D01*
G01*
X86205000Y-76378750D01*
G75*
G02*
X86448750Y-76135000I243750J0D01*
G01*
X86936250Y-76135000D01*
G75*
G02*
X87180000Y-76378750I0J-243750D01*
G01*
G37*
G36*
G01*
X89055000Y-76378750D02*
X89055000Y-77291250D01*
G75*
G02*
X88811250Y-77535000I-243750J0D01*
G01*
X88323750Y-77535000D01*
G75*
G02*
X88080000Y-77291250I0J243750D01*
G01*
X88080000Y-76378750D01*
G75*
G02*
X88323750Y-76135000I243750J0D01*
G01*
X88811250Y-76135000D01*
G75*
G02*
X89055000Y-76378750I0J-243750D01*
G01*
G37*
G36*
G01*
X91255000Y-88721250D02*
X91255000Y-87808750D01*
G75*
G02*
X91498750Y-87565000I243750J0D01*
G01*
X91986250Y-87565000D01*
G75*
G02*
X92230000Y-87808750I0J-243750D01*
G01*
X92230000Y-88721250D01*
G75*
G02*
X91986250Y-88965000I-243750J0D01*
G01*
X91498750Y-88965000D01*
G75*
G02*
X91255000Y-88721250I0J243750D01*
G01*
G37*
G36*
G01*
X89380000Y-88721250D02*
X89380000Y-87808750D01*
G75*
G02*
X89623750Y-87565000I243750J0D01*
G01*
X90111250Y-87565000D01*
G75*
G02*
X90355000Y-87808750I0J-243750D01*
G01*
X90355000Y-88721250D01*
G75*
G02*
X90111250Y-88965000I-243750J0D01*
G01*
X89623750Y-88965000D01*
G75*
G02*
X89380000Y-88721250I0J243750D01*
G01*
G37*
M02*
