G04 #@! TF.GenerationSoftware,KiCad,Pcbnew,(5.1.5-0-10_14)*
G04 #@! TF.CreationDate,2020-07-10T01:40:19-05:00*
G04 #@! TF.ProjectId,ClimateSprinklerController,436c696d-6174-4655-9370-72696e6b6c65,rev?*
G04 #@! TF.SameCoordinates,Original*
G04 #@! TF.FileFunction,Paste,Bot*
G04 #@! TF.FilePolarity,Positive*
%FSLAX46Y46*%
G04 Gerber Fmt 4.6, Leading zero omitted, Abs format (unit mm)*
G04 Created by KiCad (PCBNEW (5.1.5-0-10_14)) date 2020-07-10 01:40:19*
%MOMM*%
%LPD*%
G04 APERTURE LIST*
%ADD10C,0.100000*%
%ADD11R,1.300000X2.400000*%
%ADD12R,4.000000X3.750000*%
%ADD13R,2.500000X3.200000*%
%ADD14R,0.500000X0.350000*%
%ADD15R,0.300000X0.500000*%
%ADD16R,0.800000X0.350000*%
%ADD17R,3.100000X2.600000*%
%ADD18R,0.600000X1.550000*%
%ADD19R,2.000000X0.900000*%
%ADD20R,0.900000X2.000000*%
%ADD21R,5.000000X5.000000*%
%ADD22R,1.100000X1.500000*%
G04 APERTURE END LIST*
D10*
G36*
X104604504Y-83701204D02*
G01*
X104628773Y-83704804D01*
X104652571Y-83710765D01*
X104675671Y-83719030D01*
X104697849Y-83729520D01*
X104718893Y-83742133D01*
X104738598Y-83756747D01*
X104756777Y-83773223D01*
X104773253Y-83791402D01*
X104787867Y-83811107D01*
X104800480Y-83832151D01*
X104810970Y-83854329D01*
X104819235Y-83877429D01*
X104825196Y-83901227D01*
X104828796Y-83925496D01*
X104830000Y-83950000D01*
X104830000Y-84700000D01*
X104828796Y-84724504D01*
X104825196Y-84748773D01*
X104819235Y-84772571D01*
X104810970Y-84795671D01*
X104800480Y-84817849D01*
X104787867Y-84838893D01*
X104773253Y-84858598D01*
X104756777Y-84876777D01*
X104738598Y-84893253D01*
X104718893Y-84907867D01*
X104697849Y-84920480D01*
X104675671Y-84930970D01*
X104652571Y-84939235D01*
X104628773Y-84945196D01*
X104604504Y-84948796D01*
X104580000Y-84950000D01*
X102430000Y-84950000D01*
X102405496Y-84948796D01*
X102381227Y-84945196D01*
X102357429Y-84939235D01*
X102334329Y-84930970D01*
X102312151Y-84920480D01*
X102291107Y-84907867D01*
X102271402Y-84893253D01*
X102253223Y-84876777D01*
X102236747Y-84858598D01*
X102222133Y-84838893D01*
X102209520Y-84817849D01*
X102199030Y-84795671D01*
X102190765Y-84772571D01*
X102184804Y-84748773D01*
X102181204Y-84724504D01*
X102180000Y-84700000D01*
X102180000Y-83950000D01*
X102181204Y-83925496D01*
X102184804Y-83901227D01*
X102190765Y-83877429D01*
X102199030Y-83854329D01*
X102209520Y-83832151D01*
X102222133Y-83811107D01*
X102236747Y-83791402D01*
X102253223Y-83773223D01*
X102271402Y-83756747D01*
X102291107Y-83742133D01*
X102312151Y-83729520D01*
X102334329Y-83719030D01*
X102357429Y-83710765D01*
X102381227Y-83704804D01*
X102405496Y-83701204D01*
X102430000Y-83700000D01*
X104580000Y-83700000D01*
X104604504Y-83701204D01*
G37*
G36*
X104604504Y-86501204D02*
G01*
X104628773Y-86504804D01*
X104652571Y-86510765D01*
X104675671Y-86519030D01*
X104697849Y-86529520D01*
X104718893Y-86542133D01*
X104738598Y-86556747D01*
X104756777Y-86573223D01*
X104773253Y-86591402D01*
X104787867Y-86611107D01*
X104800480Y-86632151D01*
X104810970Y-86654329D01*
X104819235Y-86677429D01*
X104825196Y-86701227D01*
X104828796Y-86725496D01*
X104830000Y-86750000D01*
X104830000Y-87500000D01*
X104828796Y-87524504D01*
X104825196Y-87548773D01*
X104819235Y-87572571D01*
X104810970Y-87595671D01*
X104800480Y-87617849D01*
X104787867Y-87638893D01*
X104773253Y-87658598D01*
X104756777Y-87676777D01*
X104738598Y-87693253D01*
X104718893Y-87707867D01*
X104697849Y-87720480D01*
X104675671Y-87730970D01*
X104652571Y-87739235D01*
X104628773Y-87745196D01*
X104604504Y-87748796D01*
X104580000Y-87750000D01*
X102430000Y-87750000D01*
X102405496Y-87748796D01*
X102381227Y-87745196D01*
X102357429Y-87739235D01*
X102334329Y-87730970D01*
X102312151Y-87720480D01*
X102291107Y-87707867D01*
X102271402Y-87693253D01*
X102253223Y-87676777D01*
X102236747Y-87658598D01*
X102222133Y-87638893D01*
X102209520Y-87617849D01*
X102199030Y-87595671D01*
X102190765Y-87572571D01*
X102184804Y-87548773D01*
X102181204Y-87524504D01*
X102180000Y-87500000D01*
X102180000Y-86750000D01*
X102181204Y-86725496D01*
X102184804Y-86701227D01*
X102190765Y-86677429D01*
X102199030Y-86654329D01*
X102209520Y-86632151D01*
X102222133Y-86611107D01*
X102236747Y-86591402D01*
X102253223Y-86573223D01*
X102271402Y-86556747D01*
X102291107Y-86542133D01*
X102312151Y-86529520D01*
X102334329Y-86519030D01*
X102357429Y-86510765D01*
X102381227Y-86504804D01*
X102405496Y-86501204D01*
X102430000Y-86500000D01*
X104580000Y-86500000D01*
X104604504Y-86501204D01*
G37*
G36*
X100159504Y-83701204D02*
G01*
X100183773Y-83704804D01*
X100207571Y-83710765D01*
X100230671Y-83719030D01*
X100252849Y-83729520D01*
X100273893Y-83742133D01*
X100293598Y-83756747D01*
X100311777Y-83773223D01*
X100328253Y-83791402D01*
X100342867Y-83811107D01*
X100355480Y-83832151D01*
X100365970Y-83854329D01*
X100374235Y-83877429D01*
X100380196Y-83901227D01*
X100383796Y-83925496D01*
X100385000Y-83950000D01*
X100385000Y-84700000D01*
X100383796Y-84724504D01*
X100380196Y-84748773D01*
X100374235Y-84772571D01*
X100365970Y-84795671D01*
X100355480Y-84817849D01*
X100342867Y-84838893D01*
X100328253Y-84858598D01*
X100311777Y-84876777D01*
X100293598Y-84893253D01*
X100273893Y-84907867D01*
X100252849Y-84920480D01*
X100230671Y-84930970D01*
X100207571Y-84939235D01*
X100183773Y-84945196D01*
X100159504Y-84948796D01*
X100135000Y-84950000D01*
X97985000Y-84950000D01*
X97960496Y-84948796D01*
X97936227Y-84945196D01*
X97912429Y-84939235D01*
X97889329Y-84930970D01*
X97867151Y-84920480D01*
X97846107Y-84907867D01*
X97826402Y-84893253D01*
X97808223Y-84876777D01*
X97791747Y-84858598D01*
X97777133Y-84838893D01*
X97764520Y-84817849D01*
X97754030Y-84795671D01*
X97745765Y-84772571D01*
X97739804Y-84748773D01*
X97736204Y-84724504D01*
X97735000Y-84700000D01*
X97735000Y-83950000D01*
X97736204Y-83925496D01*
X97739804Y-83901227D01*
X97745765Y-83877429D01*
X97754030Y-83854329D01*
X97764520Y-83832151D01*
X97777133Y-83811107D01*
X97791747Y-83791402D01*
X97808223Y-83773223D01*
X97826402Y-83756747D01*
X97846107Y-83742133D01*
X97867151Y-83729520D01*
X97889329Y-83719030D01*
X97912429Y-83710765D01*
X97936227Y-83704804D01*
X97960496Y-83701204D01*
X97985000Y-83700000D01*
X100135000Y-83700000D01*
X100159504Y-83701204D01*
G37*
G36*
X100159504Y-86501204D02*
G01*
X100183773Y-86504804D01*
X100207571Y-86510765D01*
X100230671Y-86519030D01*
X100252849Y-86529520D01*
X100273893Y-86542133D01*
X100293598Y-86556747D01*
X100311777Y-86573223D01*
X100328253Y-86591402D01*
X100342867Y-86611107D01*
X100355480Y-86632151D01*
X100365970Y-86654329D01*
X100374235Y-86677429D01*
X100380196Y-86701227D01*
X100383796Y-86725496D01*
X100385000Y-86750000D01*
X100385000Y-87500000D01*
X100383796Y-87524504D01*
X100380196Y-87548773D01*
X100374235Y-87572571D01*
X100365970Y-87595671D01*
X100355480Y-87617849D01*
X100342867Y-87638893D01*
X100328253Y-87658598D01*
X100311777Y-87676777D01*
X100293598Y-87693253D01*
X100273893Y-87707867D01*
X100252849Y-87720480D01*
X100230671Y-87730970D01*
X100207571Y-87739235D01*
X100183773Y-87745196D01*
X100159504Y-87748796D01*
X100135000Y-87750000D01*
X97985000Y-87750000D01*
X97960496Y-87748796D01*
X97936227Y-87745196D01*
X97912429Y-87739235D01*
X97889329Y-87730970D01*
X97867151Y-87720480D01*
X97846107Y-87707867D01*
X97826402Y-87693253D01*
X97808223Y-87676777D01*
X97791747Y-87658598D01*
X97777133Y-87638893D01*
X97764520Y-87617849D01*
X97754030Y-87595671D01*
X97745765Y-87572571D01*
X97739804Y-87548773D01*
X97736204Y-87524504D01*
X97735000Y-87500000D01*
X97735000Y-86750000D01*
X97736204Y-86725496D01*
X97739804Y-86701227D01*
X97745765Y-86677429D01*
X97754030Y-86654329D01*
X97764520Y-86632151D01*
X97777133Y-86611107D01*
X97791747Y-86591402D01*
X97808223Y-86573223D01*
X97826402Y-86556747D01*
X97846107Y-86542133D01*
X97867151Y-86529520D01*
X97889329Y-86519030D01*
X97912429Y-86510765D01*
X97936227Y-86504804D01*
X97960496Y-86501204D01*
X97985000Y-86500000D01*
X100135000Y-86500000D01*
X100159504Y-86501204D01*
G37*
G36*
X95714504Y-83701204D02*
G01*
X95738773Y-83704804D01*
X95762571Y-83710765D01*
X95785671Y-83719030D01*
X95807849Y-83729520D01*
X95828893Y-83742133D01*
X95848598Y-83756747D01*
X95866777Y-83773223D01*
X95883253Y-83791402D01*
X95897867Y-83811107D01*
X95910480Y-83832151D01*
X95920970Y-83854329D01*
X95929235Y-83877429D01*
X95935196Y-83901227D01*
X95938796Y-83925496D01*
X95940000Y-83950000D01*
X95940000Y-84700000D01*
X95938796Y-84724504D01*
X95935196Y-84748773D01*
X95929235Y-84772571D01*
X95920970Y-84795671D01*
X95910480Y-84817849D01*
X95897867Y-84838893D01*
X95883253Y-84858598D01*
X95866777Y-84876777D01*
X95848598Y-84893253D01*
X95828893Y-84907867D01*
X95807849Y-84920480D01*
X95785671Y-84930970D01*
X95762571Y-84939235D01*
X95738773Y-84945196D01*
X95714504Y-84948796D01*
X95690000Y-84950000D01*
X93540000Y-84950000D01*
X93515496Y-84948796D01*
X93491227Y-84945196D01*
X93467429Y-84939235D01*
X93444329Y-84930970D01*
X93422151Y-84920480D01*
X93401107Y-84907867D01*
X93381402Y-84893253D01*
X93363223Y-84876777D01*
X93346747Y-84858598D01*
X93332133Y-84838893D01*
X93319520Y-84817849D01*
X93309030Y-84795671D01*
X93300765Y-84772571D01*
X93294804Y-84748773D01*
X93291204Y-84724504D01*
X93290000Y-84700000D01*
X93290000Y-83950000D01*
X93291204Y-83925496D01*
X93294804Y-83901227D01*
X93300765Y-83877429D01*
X93309030Y-83854329D01*
X93319520Y-83832151D01*
X93332133Y-83811107D01*
X93346747Y-83791402D01*
X93363223Y-83773223D01*
X93381402Y-83756747D01*
X93401107Y-83742133D01*
X93422151Y-83729520D01*
X93444329Y-83719030D01*
X93467429Y-83710765D01*
X93491227Y-83704804D01*
X93515496Y-83701204D01*
X93540000Y-83700000D01*
X95690000Y-83700000D01*
X95714504Y-83701204D01*
G37*
G36*
X95714504Y-86501204D02*
G01*
X95738773Y-86504804D01*
X95762571Y-86510765D01*
X95785671Y-86519030D01*
X95807849Y-86529520D01*
X95828893Y-86542133D01*
X95848598Y-86556747D01*
X95866777Y-86573223D01*
X95883253Y-86591402D01*
X95897867Y-86611107D01*
X95910480Y-86632151D01*
X95920970Y-86654329D01*
X95929235Y-86677429D01*
X95935196Y-86701227D01*
X95938796Y-86725496D01*
X95940000Y-86750000D01*
X95940000Y-87500000D01*
X95938796Y-87524504D01*
X95935196Y-87548773D01*
X95929235Y-87572571D01*
X95920970Y-87595671D01*
X95910480Y-87617849D01*
X95897867Y-87638893D01*
X95883253Y-87658598D01*
X95866777Y-87676777D01*
X95848598Y-87693253D01*
X95828893Y-87707867D01*
X95807849Y-87720480D01*
X95785671Y-87730970D01*
X95762571Y-87739235D01*
X95738773Y-87745196D01*
X95714504Y-87748796D01*
X95690000Y-87750000D01*
X93540000Y-87750000D01*
X93515496Y-87748796D01*
X93491227Y-87745196D01*
X93467429Y-87739235D01*
X93444329Y-87730970D01*
X93422151Y-87720480D01*
X93401107Y-87707867D01*
X93381402Y-87693253D01*
X93363223Y-87676777D01*
X93346747Y-87658598D01*
X93332133Y-87638893D01*
X93319520Y-87617849D01*
X93309030Y-87595671D01*
X93300765Y-87572571D01*
X93294804Y-87548773D01*
X93291204Y-87524504D01*
X93290000Y-87500000D01*
X93290000Y-86750000D01*
X93291204Y-86725496D01*
X93294804Y-86701227D01*
X93300765Y-86677429D01*
X93309030Y-86654329D01*
X93319520Y-86632151D01*
X93332133Y-86611107D01*
X93346747Y-86591402D01*
X93363223Y-86573223D01*
X93381402Y-86556747D01*
X93401107Y-86542133D01*
X93422151Y-86529520D01*
X93444329Y-86519030D01*
X93467429Y-86510765D01*
X93491227Y-86504804D01*
X93515496Y-86501204D01*
X93540000Y-86500000D01*
X95690000Y-86500000D01*
X95714504Y-86501204D01*
G37*
G36*
X128840142Y-53911174D02*
G01*
X128863803Y-53914684D01*
X128887007Y-53920496D01*
X128909529Y-53928554D01*
X128931153Y-53938782D01*
X128951670Y-53951079D01*
X128970883Y-53965329D01*
X128988607Y-53981393D01*
X129004671Y-53999117D01*
X129018921Y-54018330D01*
X129031218Y-54038847D01*
X129041446Y-54060471D01*
X129049504Y-54082993D01*
X129055316Y-54106197D01*
X129058826Y-54129858D01*
X129060000Y-54153750D01*
X129060000Y-55066250D01*
X129058826Y-55090142D01*
X129055316Y-55113803D01*
X129049504Y-55137007D01*
X129041446Y-55159529D01*
X129031218Y-55181153D01*
X129018921Y-55201670D01*
X129004671Y-55220883D01*
X128988607Y-55238607D01*
X128970883Y-55254671D01*
X128951670Y-55268921D01*
X128931153Y-55281218D01*
X128909529Y-55291446D01*
X128887007Y-55299504D01*
X128863803Y-55305316D01*
X128840142Y-55308826D01*
X128816250Y-55310000D01*
X128328750Y-55310000D01*
X128304858Y-55308826D01*
X128281197Y-55305316D01*
X128257993Y-55299504D01*
X128235471Y-55291446D01*
X128213847Y-55281218D01*
X128193330Y-55268921D01*
X128174117Y-55254671D01*
X128156393Y-55238607D01*
X128140329Y-55220883D01*
X128126079Y-55201670D01*
X128113782Y-55181153D01*
X128103554Y-55159529D01*
X128095496Y-55137007D01*
X128089684Y-55113803D01*
X128086174Y-55090142D01*
X128085000Y-55066250D01*
X128085000Y-54153750D01*
X128086174Y-54129858D01*
X128089684Y-54106197D01*
X128095496Y-54082993D01*
X128103554Y-54060471D01*
X128113782Y-54038847D01*
X128126079Y-54018330D01*
X128140329Y-53999117D01*
X128156393Y-53981393D01*
X128174117Y-53965329D01*
X128193330Y-53951079D01*
X128213847Y-53938782D01*
X128235471Y-53928554D01*
X128257993Y-53920496D01*
X128281197Y-53914684D01*
X128304858Y-53911174D01*
X128328750Y-53910000D01*
X128816250Y-53910000D01*
X128840142Y-53911174D01*
G37*
G36*
X126965142Y-53911174D02*
G01*
X126988803Y-53914684D01*
X127012007Y-53920496D01*
X127034529Y-53928554D01*
X127056153Y-53938782D01*
X127076670Y-53951079D01*
X127095883Y-53965329D01*
X127113607Y-53981393D01*
X127129671Y-53999117D01*
X127143921Y-54018330D01*
X127156218Y-54038847D01*
X127166446Y-54060471D01*
X127174504Y-54082993D01*
X127180316Y-54106197D01*
X127183826Y-54129858D01*
X127185000Y-54153750D01*
X127185000Y-55066250D01*
X127183826Y-55090142D01*
X127180316Y-55113803D01*
X127174504Y-55137007D01*
X127166446Y-55159529D01*
X127156218Y-55181153D01*
X127143921Y-55201670D01*
X127129671Y-55220883D01*
X127113607Y-55238607D01*
X127095883Y-55254671D01*
X127076670Y-55268921D01*
X127056153Y-55281218D01*
X127034529Y-55291446D01*
X127012007Y-55299504D01*
X126988803Y-55305316D01*
X126965142Y-55308826D01*
X126941250Y-55310000D01*
X126453750Y-55310000D01*
X126429858Y-55308826D01*
X126406197Y-55305316D01*
X126382993Y-55299504D01*
X126360471Y-55291446D01*
X126338847Y-55281218D01*
X126318330Y-55268921D01*
X126299117Y-55254671D01*
X126281393Y-55238607D01*
X126265329Y-55220883D01*
X126251079Y-55201670D01*
X126238782Y-55181153D01*
X126228554Y-55159529D01*
X126220496Y-55137007D01*
X126214684Y-55113803D01*
X126211174Y-55090142D01*
X126210000Y-55066250D01*
X126210000Y-54153750D01*
X126211174Y-54129858D01*
X126214684Y-54106197D01*
X126220496Y-54082993D01*
X126228554Y-54060471D01*
X126238782Y-54038847D01*
X126251079Y-54018330D01*
X126265329Y-53999117D01*
X126281393Y-53981393D01*
X126299117Y-53965329D01*
X126318330Y-53951079D01*
X126338847Y-53938782D01*
X126360471Y-53928554D01*
X126382993Y-53920496D01*
X126406197Y-53914684D01*
X126429858Y-53911174D01*
X126453750Y-53910000D01*
X126941250Y-53910000D01*
X126965142Y-53911174D01*
G37*
G36*
X128840142Y-51371174D02*
G01*
X128863803Y-51374684D01*
X128887007Y-51380496D01*
X128909529Y-51388554D01*
X128931153Y-51398782D01*
X128951670Y-51411079D01*
X128970883Y-51425329D01*
X128988607Y-51441393D01*
X129004671Y-51459117D01*
X129018921Y-51478330D01*
X129031218Y-51498847D01*
X129041446Y-51520471D01*
X129049504Y-51542993D01*
X129055316Y-51566197D01*
X129058826Y-51589858D01*
X129060000Y-51613750D01*
X129060000Y-52526250D01*
X129058826Y-52550142D01*
X129055316Y-52573803D01*
X129049504Y-52597007D01*
X129041446Y-52619529D01*
X129031218Y-52641153D01*
X129018921Y-52661670D01*
X129004671Y-52680883D01*
X128988607Y-52698607D01*
X128970883Y-52714671D01*
X128951670Y-52728921D01*
X128931153Y-52741218D01*
X128909529Y-52751446D01*
X128887007Y-52759504D01*
X128863803Y-52765316D01*
X128840142Y-52768826D01*
X128816250Y-52770000D01*
X128328750Y-52770000D01*
X128304858Y-52768826D01*
X128281197Y-52765316D01*
X128257993Y-52759504D01*
X128235471Y-52751446D01*
X128213847Y-52741218D01*
X128193330Y-52728921D01*
X128174117Y-52714671D01*
X128156393Y-52698607D01*
X128140329Y-52680883D01*
X128126079Y-52661670D01*
X128113782Y-52641153D01*
X128103554Y-52619529D01*
X128095496Y-52597007D01*
X128089684Y-52573803D01*
X128086174Y-52550142D01*
X128085000Y-52526250D01*
X128085000Y-51613750D01*
X128086174Y-51589858D01*
X128089684Y-51566197D01*
X128095496Y-51542993D01*
X128103554Y-51520471D01*
X128113782Y-51498847D01*
X128126079Y-51478330D01*
X128140329Y-51459117D01*
X128156393Y-51441393D01*
X128174117Y-51425329D01*
X128193330Y-51411079D01*
X128213847Y-51398782D01*
X128235471Y-51388554D01*
X128257993Y-51380496D01*
X128281197Y-51374684D01*
X128304858Y-51371174D01*
X128328750Y-51370000D01*
X128816250Y-51370000D01*
X128840142Y-51371174D01*
G37*
G36*
X126965142Y-51371174D02*
G01*
X126988803Y-51374684D01*
X127012007Y-51380496D01*
X127034529Y-51388554D01*
X127056153Y-51398782D01*
X127076670Y-51411079D01*
X127095883Y-51425329D01*
X127113607Y-51441393D01*
X127129671Y-51459117D01*
X127143921Y-51478330D01*
X127156218Y-51498847D01*
X127166446Y-51520471D01*
X127174504Y-51542993D01*
X127180316Y-51566197D01*
X127183826Y-51589858D01*
X127185000Y-51613750D01*
X127185000Y-52526250D01*
X127183826Y-52550142D01*
X127180316Y-52573803D01*
X127174504Y-52597007D01*
X127166446Y-52619529D01*
X127156218Y-52641153D01*
X127143921Y-52661670D01*
X127129671Y-52680883D01*
X127113607Y-52698607D01*
X127095883Y-52714671D01*
X127076670Y-52728921D01*
X127056153Y-52741218D01*
X127034529Y-52751446D01*
X127012007Y-52759504D01*
X126988803Y-52765316D01*
X126965142Y-52768826D01*
X126941250Y-52770000D01*
X126453750Y-52770000D01*
X126429858Y-52768826D01*
X126406197Y-52765316D01*
X126382993Y-52759504D01*
X126360471Y-52751446D01*
X126338847Y-52741218D01*
X126318330Y-52728921D01*
X126299117Y-52714671D01*
X126281393Y-52698607D01*
X126265329Y-52680883D01*
X126251079Y-52661670D01*
X126238782Y-52641153D01*
X126228554Y-52619529D01*
X126220496Y-52597007D01*
X126214684Y-52573803D01*
X126211174Y-52550142D01*
X126210000Y-52526250D01*
X126210000Y-51613750D01*
X126211174Y-51589858D01*
X126214684Y-51566197D01*
X126220496Y-51542993D01*
X126228554Y-51520471D01*
X126238782Y-51498847D01*
X126251079Y-51478330D01*
X126265329Y-51459117D01*
X126281393Y-51441393D01*
X126299117Y-51425329D01*
X126318330Y-51411079D01*
X126338847Y-51398782D01*
X126360471Y-51388554D01*
X126382993Y-51380496D01*
X126406197Y-51374684D01*
X126429858Y-51371174D01*
X126453750Y-51370000D01*
X126941250Y-51370000D01*
X126965142Y-51371174D01*
G37*
G36*
X124934505Y-55061204D02*
G01*
X124958773Y-55064804D01*
X124982572Y-55070765D01*
X125005671Y-55079030D01*
X125027850Y-55089520D01*
X125048893Y-55102132D01*
X125068599Y-55116747D01*
X125086777Y-55133223D01*
X125103253Y-55151401D01*
X125117868Y-55171107D01*
X125130480Y-55192150D01*
X125140970Y-55214329D01*
X125149235Y-55237428D01*
X125155196Y-55261227D01*
X125158796Y-55285495D01*
X125160000Y-55309999D01*
X125160000Y-55960001D01*
X125158796Y-55984505D01*
X125155196Y-56008773D01*
X125149235Y-56032572D01*
X125140970Y-56055671D01*
X125130480Y-56077850D01*
X125117868Y-56098893D01*
X125103253Y-56118599D01*
X125086777Y-56136777D01*
X125068599Y-56153253D01*
X125048893Y-56167868D01*
X125027850Y-56180480D01*
X125005671Y-56190970D01*
X124982572Y-56199235D01*
X124958773Y-56205196D01*
X124934505Y-56208796D01*
X124910001Y-56210000D01*
X124009999Y-56210000D01*
X123985495Y-56208796D01*
X123961227Y-56205196D01*
X123937428Y-56199235D01*
X123914329Y-56190970D01*
X123892150Y-56180480D01*
X123871107Y-56167868D01*
X123851401Y-56153253D01*
X123833223Y-56136777D01*
X123816747Y-56118599D01*
X123802132Y-56098893D01*
X123789520Y-56077850D01*
X123779030Y-56055671D01*
X123770765Y-56032572D01*
X123764804Y-56008773D01*
X123761204Y-55984505D01*
X123760000Y-55960001D01*
X123760000Y-55309999D01*
X123761204Y-55285495D01*
X123764804Y-55261227D01*
X123770765Y-55237428D01*
X123779030Y-55214329D01*
X123789520Y-55192150D01*
X123802132Y-55171107D01*
X123816747Y-55151401D01*
X123833223Y-55133223D01*
X123851401Y-55116747D01*
X123871107Y-55102132D01*
X123892150Y-55089520D01*
X123914329Y-55079030D01*
X123937428Y-55070765D01*
X123961227Y-55064804D01*
X123985495Y-55061204D01*
X124009999Y-55060000D01*
X124910001Y-55060000D01*
X124934505Y-55061204D01*
G37*
G36*
X124934505Y-53011204D02*
G01*
X124958773Y-53014804D01*
X124982572Y-53020765D01*
X125005671Y-53029030D01*
X125027850Y-53039520D01*
X125048893Y-53052132D01*
X125068599Y-53066747D01*
X125086777Y-53083223D01*
X125103253Y-53101401D01*
X125117868Y-53121107D01*
X125130480Y-53142150D01*
X125140970Y-53164329D01*
X125149235Y-53187428D01*
X125155196Y-53211227D01*
X125158796Y-53235495D01*
X125160000Y-53259999D01*
X125160000Y-53910001D01*
X125158796Y-53934505D01*
X125155196Y-53958773D01*
X125149235Y-53982572D01*
X125140970Y-54005671D01*
X125130480Y-54027850D01*
X125117868Y-54048893D01*
X125103253Y-54068599D01*
X125086777Y-54086777D01*
X125068599Y-54103253D01*
X125048893Y-54117868D01*
X125027850Y-54130480D01*
X125005671Y-54140970D01*
X124982572Y-54149235D01*
X124958773Y-54155196D01*
X124934505Y-54158796D01*
X124910001Y-54160000D01*
X124009999Y-54160000D01*
X123985495Y-54158796D01*
X123961227Y-54155196D01*
X123937428Y-54149235D01*
X123914329Y-54140970D01*
X123892150Y-54130480D01*
X123871107Y-54117868D01*
X123851401Y-54103253D01*
X123833223Y-54086777D01*
X123816747Y-54068599D01*
X123802132Y-54048893D01*
X123789520Y-54027850D01*
X123779030Y-54005671D01*
X123770765Y-53982572D01*
X123764804Y-53958773D01*
X123761204Y-53934505D01*
X123760000Y-53910001D01*
X123760000Y-53259999D01*
X123761204Y-53235495D01*
X123764804Y-53211227D01*
X123770765Y-53187428D01*
X123779030Y-53164329D01*
X123789520Y-53142150D01*
X123802132Y-53121107D01*
X123816747Y-53101401D01*
X123833223Y-53083223D01*
X123851401Y-53066747D01*
X123871107Y-53052132D01*
X123892150Y-53039520D01*
X123914329Y-53029030D01*
X123937428Y-53020765D01*
X123961227Y-53014804D01*
X123985495Y-53011204D01*
X124009999Y-53010000D01*
X124910001Y-53010000D01*
X124934505Y-53011204D01*
G37*
G36*
X211617642Y-59155174D02*
G01*
X211641303Y-59158684D01*
X211664507Y-59164496D01*
X211687029Y-59172554D01*
X211708653Y-59182782D01*
X211729170Y-59195079D01*
X211748383Y-59209329D01*
X211766107Y-59225393D01*
X211782171Y-59243117D01*
X211796421Y-59262330D01*
X211808718Y-59282847D01*
X211818946Y-59304471D01*
X211827004Y-59326993D01*
X211832816Y-59350197D01*
X211836326Y-59373858D01*
X211837500Y-59397750D01*
X211837500Y-59885250D01*
X211836326Y-59909142D01*
X211832816Y-59932803D01*
X211827004Y-59956007D01*
X211818946Y-59978529D01*
X211808718Y-60000153D01*
X211796421Y-60020670D01*
X211782171Y-60039883D01*
X211766107Y-60057607D01*
X211748383Y-60073671D01*
X211729170Y-60087921D01*
X211708653Y-60100218D01*
X211687029Y-60110446D01*
X211664507Y-60118504D01*
X211641303Y-60124316D01*
X211617642Y-60127826D01*
X211593750Y-60129000D01*
X210681250Y-60129000D01*
X210657358Y-60127826D01*
X210633697Y-60124316D01*
X210610493Y-60118504D01*
X210587971Y-60110446D01*
X210566347Y-60100218D01*
X210545830Y-60087921D01*
X210526617Y-60073671D01*
X210508893Y-60057607D01*
X210492829Y-60039883D01*
X210478579Y-60020670D01*
X210466282Y-60000153D01*
X210456054Y-59978529D01*
X210447996Y-59956007D01*
X210442184Y-59932803D01*
X210438674Y-59909142D01*
X210437500Y-59885250D01*
X210437500Y-59397750D01*
X210438674Y-59373858D01*
X210442184Y-59350197D01*
X210447996Y-59326993D01*
X210456054Y-59304471D01*
X210466282Y-59282847D01*
X210478579Y-59262330D01*
X210492829Y-59243117D01*
X210508893Y-59225393D01*
X210526617Y-59209329D01*
X210545830Y-59195079D01*
X210566347Y-59182782D01*
X210587971Y-59172554D01*
X210610493Y-59164496D01*
X210633697Y-59158684D01*
X210657358Y-59155174D01*
X210681250Y-59154000D01*
X211593750Y-59154000D01*
X211617642Y-59155174D01*
G37*
G36*
X211617642Y-61030174D02*
G01*
X211641303Y-61033684D01*
X211664507Y-61039496D01*
X211687029Y-61047554D01*
X211708653Y-61057782D01*
X211729170Y-61070079D01*
X211748383Y-61084329D01*
X211766107Y-61100393D01*
X211782171Y-61118117D01*
X211796421Y-61137330D01*
X211808718Y-61157847D01*
X211818946Y-61179471D01*
X211827004Y-61201993D01*
X211832816Y-61225197D01*
X211836326Y-61248858D01*
X211837500Y-61272750D01*
X211837500Y-61760250D01*
X211836326Y-61784142D01*
X211832816Y-61807803D01*
X211827004Y-61831007D01*
X211818946Y-61853529D01*
X211808718Y-61875153D01*
X211796421Y-61895670D01*
X211782171Y-61914883D01*
X211766107Y-61932607D01*
X211748383Y-61948671D01*
X211729170Y-61962921D01*
X211708653Y-61975218D01*
X211687029Y-61985446D01*
X211664507Y-61993504D01*
X211641303Y-61999316D01*
X211617642Y-62002826D01*
X211593750Y-62004000D01*
X210681250Y-62004000D01*
X210657358Y-62002826D01*
X210633697Y-61999316D01*
X210610493Y-61993504D01*
X210587971Y-61985446D01*
X210566347Y-61975218D01*
X210545830Y-61962921D01*
X210526617Y-61948671D01*
X210508893Y-61932607D01*
X210492829Y-61914883D01*
X210478579Y-61895670D01*
X210466282Y-61875153D01*
X210456054Y-61853529D01*
X210447996Y-61831007D01*
X210442184Y-61807803D01*
X210438674Y-61784142D01*
X210437500Y-61760250D01*
X210437500Y-61272750D01*
X210438674Y-61248858D01*
X210442184Y-61225197D01*
X210447996Y-61201993D01*
X210456054Y-61179471D01*
X210466282Y-61157847D01*
X210478579Y-61137330D01*
X210492829Y-61118117D01*
X210508893Y-61100393D01*
X210526617Y-61084329D01*
X210545830Y-61070079D01*
X210566347Y-61057782D01*
X210587971Y-61047554D01*
X210610493Y-61039496D01*
X210633697Y-61033684D01*
X210657358Y-61030174D01*
X210681250Y-61029000D01*
X211593750Y-61029000D01*
X211617642Y-61030174D01*
G37*
D11*
X147500000Y-127700000D03*
X150000000Y-127700000D03*
X152500000Y-127700000D03*
D12*
X143625000Y-135000000D03*
D11*
X152500000Y-142000000D03*
X147500000Y-142000000D03*
D12*
X156375000Y-135000000D03*
D13*
X145000000Y-142900000D03*
X155000000Y-142900000D03*
X145000000Y-127100000D03*
X155000000Y-127100000D03*
D10*
G36*
X122400142Y-47695174D02*
G01*
X122423803Y-47698684D01*
X122447007Y-47704496D01*
X122469529Y-47712554D01*
X122491153Y-47722782D01*
X122511670Y-47735079D01*
X122530883Y-47749329D01*
X122548607Y-47765393D01*
X122564671Y-47783117D01*
X122578921Y-47802330D01*
X122591218Y-47822847D01*
X122601446Y-47844471D01*
X122609504Y-47866993D01*
X122615316Y-47890197D01*
X122618826Y-47913858D01*
X122620000Y-47937750D01*
X122620000Y-48425250D01*
X122618826Y-48449142D01*
X122615316Y-48472803D01*
X122609504Y-48496007D01*
X122601446Y-48518529D01*
X122591218Y-48540153D01*
X122578921Y-48560670D01*
X122564671Y-48579883D01*
X122548607Y-48597607D01*
X122530883Y-48613671D01*
X122511670Y-48627921D01*
X122491153Y-48640218D01*
X122469529Y-48650446D01*
X122447007Y-48658504D01*
X122423803Y-48664316D01*
X122400142Y-48667826D01*
X122376250Y-48669000D01*
X121463750Y-48669000D01*
X121439858Y-48667826D01*
X121416197Y-48664316D01*
X121392993Y-48658504D01*
X121370471Y-48650446D01*
X121348847Y-48640218D01*
X121328330Y-48627921D01*
X121309117Y-48613671D01*
X121291393Y-48597607D01*
X121275329Y-48579883D01*
X121261079Y-48560670D01*
X121248782Y-48540153D01*
X121238554Y-48518529D01*
X121230496Y-48496007D01*
X121224684Y-48472803D01*
X121221174Y-48449142D01*
X121220000Y-48425250D01*
X121220000Y-47937750D01*
X121221174Y-47913858D01*
X121224684Y-47890197D01*
X121230496Y-47866993D01*
X121238554Y-47844471D01*
X121248782Y-47822847D01*
X121261079Y-47802330D01*
X121275329Y-47783117D01*
X121291393Y-47765393D01*
X121309117Y-47749329D01*
X121328330Y-47735079D01*
X121348847Y-47722782D01*
X121370471Y-47712554D01*
X121392993Y-47704496D01*
X121416197Y-47698684D01*
X121439858Y-47695174D01*
X121463750Y-47694000D01*
X122376250Y-47694000D01*
X122400142Y-47695174D01*
G37*
G36*
X122400142Y-45820174D02*
G01*
X122423803Y-45823684D01*
X122447007Y-45829496D01*
X122469529Y-45837554D01*
X122491153Y-45847782D01*
X122511670Y-45860079D01*
X122530883Y-45874329D01*
X122548607Y-45890393D01*
X122564671Y-45908117D01*
X122578921Y-45927330D01*
X122591218Y-45947847D01*
X122601446Y-45969471D01*
X122609504Y-45991993D01*
X122615316Y-46015197D01*
X122618826Y-46038858D01*
X122620000Y-46062750D01*
X122620000Y-46550250D01*
X122618826Y-46574142D01*
X122615316Y-46597803D01*
X122609504Y-46621007D01*
X122601446Y-46643529D01*
X122591218Y-46665153D01*
X122578921Y-46685670D01*
X122564671Y-46704883D01*
X122548607Y-46722607D01*
X122530883Y-46738671D01*
X122511670Y-46752921D01*
X122491153Y-46765218D01*
X122469529Y-46775446D01*
X122447007Y-46783504D01*
X122423803Y-46789316D01*
X122400142Y-46792826D01*
X122376250Y-46794000D01*
X121463750Y-46794000D01*
X121439858Y-46792826D01*
X121416197Y-46789316D01*
X121392993Y-46783504D01*
X121370471Y-46775446D01*
X121348847Y-46765218D01*
X121328330Y-46752921D01*
X121309117Y-46738671D01*
X121291393Y-46722607D01*
X121275329Y-46704883D01*
X121261079Y-46685670D01*
X121248782Y-46665153D01*
X121238554Y-46643529D01*
X121230496Y-46621007D01*
X121224684Y-46597803D01*
X121221174Y-46574142D01*
X121220000Y-46550250D01*
X121220000Y-46062750D01*
X121221174Y-46038858D01*
X121224684Y-46015197D01*
X121230496Y-45991993D01*
X121238554Y-45969471D01*
X121248782Y-45947847D01*
X121261079Y-45927330D01*
X121275329Y-45908117D01*
X121291393Y-45890393D01*
X121309117Y-45874329D01*
X121328330Y-45860079D01*
X121348847Y-45847782D01*
X121370471Y-45837554D01*
X121392993Y-45829496D01*
X121416197Y-45823684D01*
X121439858Y-45820174D01*
X121463750Y-45819000D01*
X122376250Y-45819000D01*
X122400142Y-45820174D01*
G37*
G36*
X176524703Y-94569722D02*
G01*
X176539264Y-94571882D01*
X176553543Y-94575459D01*
X176567403Y-94580418D01*
X176580710Y-94586712D01*
X176593336Y-94594280D01*
X176605159Y-94603048D01*
X176616066Y-94612934D01*
X176625952Y-94623841D01*
X176634720Y-94635664D01*
X176642288Y-94648290D01*
X176648582Y-94661597D01*
X176653541Y-94675457D01*
X176657118Y-94689736D01*
X176659278Y-94704297D01*
X176660000Y-94719000D01*
X176660000Y-95019000D01*
X176659278Y-95033703D01*
X176657118Y-95048264D01*
X176653541Y-95062543D01*
X176648582Y-95076403D01*
X176642288Y-95089710D01*
X176634720Y-95102336D01*
X176625952Y-95114159D01*
X176616066Y-95125066D01*
X176605159Y-95134952D01*
X176593336Y-95143720D01*
X176580710Y-95151288D01*
X176567403Y-95157582D01*
X176553543Y-95162541D01*
X176539264Y-95166118D01*
X176524703Y-95168278D01*
X176510000Y-95169000D01*
X174760000Y-95169000D01*
X174745297Y-95168278D01*
X174730736Y-95166118D01*
X174716457Y-95162541D01*
X174702597Y-95157582D01*
X174689290Y-95151288D01*
X174676664Y-95143720D01*
X174664841Y-95134952D01*
X174653934Y-95125066D01*
X174644048Y-95114159D01*
X174635280Y-95102336D01*
X174627712Y-95089710D01*
X174621418Y-95076403D01*
X174616459Y-95062543D01*
X174612882Y-95048264D01*
X174610722Y-95033703D01*
X174610000Y-95019000D01*
X174610000Y-94719000D01*
X174610722Y-94704297D01*
X174612882Y-94689736D01*
X174616459Y-94675457D01*
X174621418Y-94661597D01*
X174627712Y-94648290D01*
X174635280Y-94635664D01*
X174644048Y-94623841D01*
X174653934Y-94612934D01*
X174664841Y-94603048D01*
X174676664Y-94594280D01*
X174689290Y-94586712D01*
X174702597Y-94580418D01*
X174716457Y-94575459D01*
X174730736Y-94571882D01*
X174745297Y-94569722D01*
X174760000Y-94569000D01*
X176510000Y-94569000D01*
X176524703Y-94569722D01*
G37*
G36*
X176524703Y-93299722D02*
G01*
X176539264Y-93301882D01*
X176553543Y-93305459D01*
X176567403Y-93310418D01*
X176580710Y-93316712D01*
X176593336Y-93324280D01*
X176605159Y-93333048D01*
X176616066Y-93342934D01*
X176625952Y-93353841D01*
X176634720Y-93365664D01*
X176642288Y-93378290D01*
X176648582Y-93391597D01*
X176653541Y-93405457D01*
X176657118Y-93419736D01*
X176659278Y-93434297D01*
X176660000Y-93449000D01*
X176660000Y-93749000D01*
X176659278Y-93763703D01*
X176657118Y-93778264D01*
X176653541Y-93792543D01*
X176648582Y-93806403D01*
X176642288Y-93819710D01*
X176634720Y-93832336D01*
X176625952Y-93844159D01*
X176616066Y-93855066D01*
X176605159Y-93864952D01*
X176593336Y-93873720D01*
X176580710Y-93881288D01*
X176567403Y-93887582D01*
X176553543Y-93892541D01*
X176539264Y-93896118D01*
X176524703Y-93898278D01*
X176510000Y-93899000D01*
X174760000Y-93899000D01*
X174745297Y-93898278D01*
X174730736Y-93896118D01*
X174716457Y-93892541D01*
X174702597Y-93887582D01*
X174689290Y-93881288D01*
X174676664Y-93873720D01*
X174664841Y-93864952D01*
X174653934Y-93855066D01*
X174644048Y-93844159D01*
X174635280Y-93832336D01*
X174627712Y-93819710D01*
X174621418Y-93806403D01*
X174616459Y-93792543D01*
X174612882Y-93778264D01*
X174610722Y-93763703D01*
X174610000Y-93749000D01*
X174610000Y-93449000D01*
X174610722Y-93434297D01*
X174612882Y-93419736D01*
X174616459Y-93405457D01*
X174621418Y-93391597D01*
X174627712Y-93378290D01*
X174635280Y-93365664D01*
X174644048Y-93353841D01*
X174653934Y-93342934D01*
X174664841Y-93333048D01*
X174676664Y-93324280D01*
X174689290Y-93316712D01*
X174702597Y-93310418D01*
X174716457Y-93305459D01*
X174730736Y-93301882D01*
X174745297Y-93299722D01*
X174760000Y-93299000D01*
X176510000Y-93299000D01*
X176524703Y-93299722D01*
G37*
G36*
X176524703Y-92029722D02*
G01*
X176539264Y-92031882D01*
X176553543Y-92035459D01*
X176567403Y-92040418D01*
X176580710Y-92046712D01*
X176593336Y-92054280D01*
X176605159Y-92063048D01*
X176616066Y-92072934D01*
X176625952Y-92083841D01*
X176634720Y-92095664D01*
X176642288Y-92108290D01*
X176648582Y-92121597D01*
X176653541Y-92135457D01*
X176657118Y-92149736D01*
X176659278Y-92164297D01*
X176660000Y-92179000D01*
X176660000Y-92479000D01*
X176659278Y-92493703D01*
X176657118Y-92508264D01*
X176653541Y-92522543D01*
X176648582Y-92536403D01*
X176642288Y-92549710D01*
X176634720Y-92562336D01*
X176625952Y-92574159D01*
X176616066Y-92585066D01*
X176605159Y-92594952D01*
X176593336Y-92603720D01*
X176580710Y-92611288D01*
X176567403Y-92617582D01*
X176553543Y-92622541D01*
X176539264Y-92626118D01*
X176524703Y-92628278D01*
X176510000Y-92629000D01*
X174760000Y-92629000D01*
X174745297Y-92628278D01*
X174730736Y-92626118D01*
X174716457Y-92622541D01*
X174702597Y-92617582D01*
X174689290Y-92611288D01*
X174676664Y-92603720D01*
X174664841Y-92594952D01*
X174653934Y-92585066D01*
X174644048Y-92574159D01*
X174635280Y-92562336D01*
X174627712Y-92549710D01*
X174621418Y-92536403D01*
X174616459Y-92522543D01*
X174612882Y-92508264D01*
X174610722Y-92493703D01*
X174610000Y-92479000D01*
X174610000Y-92179000D01*
X174610722Y-92164297D01*
X174612882Y-92149736D01*
X174616459Y-92135457D01*
X174621418Y-92121597D01*
X174627712Y-92108290D01*
X174635280Y-92095664D01*
X174644048Y-92083841D01*
X174653934Y-92072934D01*
X174664841Y-92063048D01*
X174676664Y-92054280D01*
X174689290Y-92046712D01*
X174702597Y-92040418D01*
X174716457Y-92035459D01*
X174730736Y-92031882D01*
X174745297Y-92029722D01*
X174760000Y-92029000D01*
X176510000Y-92029000D01*
X176524703Y-92029722D01*
G37*
G36*
X176524703Y-90759722D02*
G01*
X176539264Y-90761882D01*
X176553543Y-90765459D01*
X176567403Y-90770418D01*
X176580710Y-90776712D01*
X176593336Y-90784280D01*
X176605159Y-90793048D01*
X176616066Y-90802934D01*
X176625952Y-90813841D01*
X176634720Y-90825664D01*
X176642288Y-90838290D01*
X176648582Y-90851597D01*
X176653541Y-90865457D01*
X176657118Y-90879736D01*
X176659278Y-90894297D01*
X176660000Y-90909000D01*
X176660000Y-91209000D01*
X176659278Y-91223703D01*
X176657118Y-91238264D01*
X176653541Y-91252543D01*
X176648582Y-91266403D01*
X176642288Y-91279710D01*
X176634720Y-91292336D01*
X176625952Y-91304159D01*
X176616066Y-91315066D01*
X176605159Y-91324952D01*
X176593336Y-91333720D01*
X176580710Y-91341288D01*
X176567403Y-91347582D01*
X176553543Y-91352541D01*
X176539264Y-91356118D01*
X176524703Y-91358278D01*
X176510000Y-91359000D01*
X174760000Y-91359000D01*
X174745297Y-91358278D01*
X174730736Y-91356118D01*
X174716457Y-91352541D01*
X174702597Y-91347582D01*
X174689290Y-91341288D01*
X174676664Y-91333720D01*
X174664841Y-91324952D01*
X174653934Y-91315066D01*
X174644048Y-91304159D01*
X174635280Y-91292336D01*
X174627712Y-91279710D01*
X174621418Y-91266403D01*
X174616459Y-91252543D01*
X174612882Y-91238264D01*
X174610722Y-91223703D01*
X174610000Y-91209000D01*
X174610000Y-90909000D01*
X174610722Y-90894297D01*
X174612882Y-90879736D01*
X174616459Y-90865457D01*
X174621418Y-90851597D01*
X174627712Y-90838290D01*
X174635280Y-90825664D01*
X174644048Y-90813841D01*
X174653934Y-90802934D01*
X174664841Y-90793048D01*
X174676664Y-90784280D01*
X174689290Y-90776712D01*
X174702597Y-90770418D01*
X174716457Y-90765459D01*
X174730736Y-90761882D01*
X174745297Y-90759722D01*
X174760000Y-90759000D01*
X176510000Y-90759000D01*
X176524703Y-90759722D01*
G37*
G36*
X176524703Y-89489722D02*
G01*
X176539264Y-89491882D01*
X176553543Y-89495459D01*
X176567403Y-89500418D01*
X176580710Y-89506712D01*
X176593336Y-89514280D01*
X176605159Y-89523048D01*
X176616066Y-89532934D01*
X176625952Y-89543841D01*
X176634720Y-89555664D01*
X176642288Y-89568290D01*
X176648582Y-89581597D01*
X176653541Y-89595457D01*
X176657118Y-89609736D01*
X176659278Y-89624297D01*
X176660000Y-89639000D01*
X176660000Y-89939000D01*
X176659278Y-89953703D01*
X176657118Y-89968264D01*
X176653541Y-89982543D01*
X176648582Y-89996403D01*
X176642288Y-90009710D01*
X176634720Y-90022336D01*
X176625952Y-90034159D01*
X176616066Y-90045066D01*
X176605159Y-90054952D01*
X176593336Y-90063720D01*
X176580710Y-90071288D01*
X176567403Y-90077582D01*
X176553543Y-90082541D01*
X176539264Y-90086118D01*
X176524703Y-90088278D01*
X176510000Y-90089000D01*
X174760000Y-90089000D01*
X174745297Y-90088278D01*
X174730736Y-90086118D01*
X174716457Y-90082541D01*
X174702597Y-90077582D01*
X174689290Y-90071288D01*
X174676664Y-90063720D01*
X174664841Y-90054952D01*
X174653934Y-90045066D01*
X174644048Y-90034159D01*
X174635280Y-90022336D01*
X174627712Y-90009710D01*
X174621418Y-89996403D01*
X174616459Y-89982543D01*
X174612882Y-89968264D01*
X174610722Y-89953703D01*
X174610000Y-89939000D01*
X174610000Y-89639000D01*
X174610722Y-89624297D01*
X174612882Y-89609736D01*
X174616459Y-89595457D01*
X174621418Y-89581597D01*
X174627712Y-89568290D01*
X174635280Y-89555664D01*
X174644048Y-89543841D01*
X174653934Y-89532934D01*
X174664841Y-89523048D01*
X174676664Y-89514280D01*
X174689290Y-89506712D01*
X174702597Y-89500418D01*
X174716457Y-89495459D01*
X174730736Y-89491882D01*
X174745297Y-89489722D01*
X174760000Y-89489000D01*
X176510000Y-89489000D01*
X176524703Y-89489722D01*
G37*
G36*
X176524703Y-88219722D02*
G01*
X176539264Y-88221882D01*
X176553543Y-88225459D01*
X176567403Y-88230418D01*
X176580710Y-88236712D01*
X176593336Y-88244280D01*
X176605159Y-88253048D01*
X176616066Y-88262934D01*
X176625952Y-88273841D01*
X176634720Y-88285664D01*
X176642288Y-88298290D01*
X176648582Y-88311597D01*
X176653541Y-88325457D01*
X176657118Y-88339736D01*
X176659278Y-88354297D01*
X176660000Y-88369000D01*
X176660000Y-88669000D01*
X176659278Y-88683703D01*
X176657118Y-88698264D01*
X176653541Y-88712543D01*
X176648582Y-88726403D01*
X176642288Y-88739710D01*
X176634720Y-88752336D01*
X176625952Y-88764159D01*
X176616066Y-88775066D01*
X176605159Y-88784952D01*
X176593336Y-88793720D01*
X176580710Y-88801288D01*
X176567403Y-88807582D01*
X176553543Y-88812541D01*
X176539264Y-88816118D01*
X176524703Y-88818278D01*
X176510000Y-88819000D01*
X174760000Y-88819000D01*
X174745297Y-88818278D01*
X174730736Y-88816118D01*
X174716457Y-88812541D01*
X174702597Y-88807582D01*
X174689290Y-88801288D01*
X174676664Y-88793720D01*
X174664841Y-88784952D01*
X174653934Y-88775066D01*
X174644048Y-88764159D01*
X174635280Y-88752336D01*
X174627712Y-88739710D01*
X174621418Y-88726403D01*
X174616459Y-88712543D01*
X174612882Y-88698264D01*
X174610722Y-88683703D01*
X174610000Y-88669000D01*
X174610000Y-88369000D01*
X174610722Y-88354297D01*
X174612882Y-88339736D01*
X174616459Y-88325457D01*
X174621418Y-88311597D01*
X174627712Y-88298290D01*
X174635280Y-88285664D01*
X174644048Y-88273841D01*
X174653934Y-88262934D01*
X174664841Y-88253048D01*
X174676664Y-88244280D01*
X174689290Y-88236712D01*
X174702597Y-88230418D01*
X174716457Y-88225459D01*
X174730736Y-88221882D01*
X174745297Y-88219722D01*
X174760000Y-88219000D01*
X176510000Y-88219000D01*
X176524703Y-88219722D01*
G37*
G36*
X176524703Y-86949722D02*
G01*
X176539264Y-86951882D01*
X176553543Y-86955459D01*
X176567403Y-86960418D01*
X176580710Y-86966712D01*
X176593336Y-86974280D01*
X176605159Y-86983048D01*
X176616066Y-86992934D01*
X176625952Y-87003841D01*
X176634720Y-87015664D01*
X176642288Y-87028290D01*
X176648582Y-87041597D01*
X176653541Y-87055457D01*
X176657118Y-87069736D01*
X176659278Y-87084297D01*
X176660000Y-87099000D01*
X176660000Y-87399000D01*
X176659278Y-87413703D01*
X176657118Y-87428264D01*
X176653541Y-87442543D01*
X176648582Y-87456403D01*
X176642288Y-87469710D01*
X176634720Y-87482336D01*
X176625952Y-87494159D01*
X176616066Y-87505066D01*
X176605159Y-87514952D01*
X176593336Y-87523720D01*
X176580710Y-87531288D01*
X176567403Y-87537582D01*
X176553543Y-87542541D01*
X176539264Y-87546118D01*
X176524703Y-87548278D01*
X176510000Y-87549000D01*
X174760000Y-87549000D01*
X174745297Y-87548278D01*
X174730736Y-87546118D01*
X174716457Y-87542541D01*
X174702597Y-87537582D01*
X174689290Y-87531288D01*
X174676664Y-87523720D01*
X174664841Y-87514952D01*
X174653934Y-87505066D01*
X174644048Y-87494159D01*
X174635280Y-87482336D01*
X174627712Y-87469710D01*
X174621418Y-87456403D01*
X174616459Y-87442543D01*
X174612882Y-87428264D01*
X174610722Y-87413703D01*
X174610000Y-87399000D01*
X174610000Y-87099000D01*
X174610722Y-87084297D01*
X174612882Y-87069736D01*
X174616459Y-87055457D01*
X174621418Y-87041597D01*
X174627712Y-87028290D01*
X174635280Y-87015664D01*
X174644048Y-87003841D01*
X174653934Y-86992934D01*
X174664841Y-86983048D01*
X174676664Y-86974280D01*
X174689290Y-86966712D01*
X174702597Y-86960418D01*
X174716457Y-86955459D01*
X174730736Y-86951882D01*
X174745297Y-86949722D01*
X174760000Y-86949000D01*
X176510000Y-86949000D01*
X176524703Y-86949722D01*
G37*
G36*
X176524703Y-85679722D02*
G01*
X176539264Y-85681882D01*
X176553543Y-85685459D01*
X176567403Y-85690418D01*
X176580710Y-85696712D01*
X176593336Y-85704280D01*
X176605159Y-85713048D01*
X176616066Y-85722934D01*
X176625952Y-85733841D01*
X176634720Y-85745664D01*
X176642288Y-85758290D01*
X176648582Y-85771597D01*
X176653541Y-85785457D01*
X176657118Y-85799736D01*
X176659278Y-85814297D01*
X176660000Y-85829000D01*
X176660000Y-86129000D01*
X176659278Y-86143703D01*
X176657118Y-86158264D01*
X176653541Y-86172543D01*
X176648582Y-86186403D01*
X176642288Y-86199710D01*
X176634720Y-86212336D01*
X176625952Y-86224159D01*
X176616066Y-86235066D01*
X176605159Y-86244952D01*
X176593336Y-86253720D01*
X176580710Y-86261288D01*
X176567403Y-86267582D01*
X176553543Y-86272541D01*
X176539264Y-86276118D01*
X176524703Y-86278278D01*
X176510000Y-86279000D01*
X174760000Y-86279000D01*
X174745297Y-86278278D01*
X174730736Y-86276118D01*
X174716457Y-86272541D01*
X174702597Y-86267582D01*
X174689290Y-86261288D01*
X174676664Y-86253720D01*
X174664841Y-86244952D01*
X174653934Y-86235066D01*
X174644048Y-86224159D01*
X174635280Y-86212336D01*
X174627712Y-86199710D01*
X174621418Y-86186403D01*
X174616459Y-86172543D01*
X174612882Y-86158264D01*
X174610722Y-86143703D01*
X174610000Y-86129000D01*
X174610000Y-85829000D01*
X174610722Y-85814297D01*
X174612882Y-85799736D01*
X174616459Y-85785457D01*
X174621418Y-85771597D01*
X174627712Y-85758290D01*
X174635280Y-85745664D01*
X174644048Y-85733841D01*
X174653934Y-85722934D01*
X174664841Y-85713048D01*
X174676664Y-85704280D01*
X174689290Y-85696712D01*
X174702597Y-85690418D01*
X174716457Y-85685459D01*
X174730736Y-85681882D01*
X174745297Y-85679722D01*
X174760000Y-85679000D01*
X176510000Y-85679000D01*
X176524703Y-85679722D01*
G37*
G36*
X176524703Y-84409722D02*
G01*
X176539264Y-84411882D01*
X176553543Y-84415459D01*
X176567403Y-84420418D01*
X176580710Y-84426712D01*
X176593336Y-84434280D01*
X176605159Y-84443048D01*
X176616066Y-84452934D01*
X176625952Y-84463841D01*
X176634720Y-84475664D01*
X176642288Y-84488290D01*
X176648582Y-84501597D01*
X176653541Y-84515457D01*
X176657118Y-84529736D01*
X176659278Y-84544297D01*
X176660000Y-84559000D01*
X176660000Y-84859000D01*
X176659278Y-84873703D01*
X176657118Y-84888264D01*
X176653541Y-84902543D01*
X176648582Y-84916403D01*
X176642288Y-84929710D01*
X176634720Y-84942336D01*
X176625952Y-84954159D01*
X176616066Y-84965066D01*
X176605159Y-84974952D01*
X176593336Y-84983720D01*
X176580710Y-84991288D01*
X176567403Y-84997582D01*
X176553543Y-85002541D01*
X176539264Y-85006118D01*
X176524703Y-85008278D01*
X176510000Y-85009000D01*
X174760000Y-85009000D01*
X174745297Y-85008278D01*
X174730736Y-85006118D01*
X174716457Y-85002541D01*
X174702597Y-84997582D01*
X174689290Y-84991288D01*
X174676664Y-84983720D01*
X174664841Y-84974952D01*
X174653934Y-84965066D01*
X174644048Y-84954159D01*
X174635280Y-84942336D01*
X174627712Y-84929710D01*
X174621418Y-84916403D01*
X174616459Y-84902543D01*
X174612882Y-84888264D01*
X174610722Y-84873703D01*
X174610000Y-84859000D01*
X174610000Y-84559000D01*
X174610722Y-84544297D01*
X174612882Y-84529736D01*
X174616459Y-84515457D01*
X174621418Y-84501597D01*
X174627712Y-84488290D01*
X174635280Y-84475664D01*
X174644048Y-84463841D01*
X174653934Y-84452934D01*
X174664841Y-84443048D01*
X174676664Y-84434280D01*
X174689290Y-84426712D01*
X174702597Y-84420418D01*
X174716457Y-84415459D01*
X174730736Y-84411882D01*
X174745297Y-84409722D01*
X174760000Y-84409000D01*
X176510000Y-84409000D01*
X176524703Y-84409722D01*
G37*
G36*
X176524703Y-83139722D02*
G01*
X176539264Y-83141882D01*
X176553543Y-83145459D01*
X176567403Y-83150418D01*
X176580710Y-83156712D01*
X176593336Y-83164280D01*
X176605159Y-83173048D01*
X176616066Y-83182934D01*
X176625952Y-83193841D01*
X176634720Y-83205664D01*
X176642288Y-83218290D01*
X176648582Y-83231597D01*
X176653541Y-83245457D01*
X176657118Y-83259736D01*
X176659278Y-83274297D01*
X176660000Y-83289000D01*
X176660000Y-83589000D01*
X176659278Y-83603703D01*
X176657118Y-83618264D01*
X176653541Y-83632543D01*
X176648582Y-83646403D01*
X176642288Y-83659710D01*
X176634720Y-83672336D01*
X176625952Y-83684159D01*
X176616066Y-83695066D01*
X176605159Y-83704952D01*
X176593336Y-83713720D01*
X176580710Y-83721288D01*
X176567403Y-83727582D01*
X176553543Y-83732541D01*
X176539264Y-83736118D01*
X176524703Y-83738278D01*
X176510000Y-83739000D01*
X174760000Y-83739000D01*
X174745297Y-83738278D01*
X174730736Y-83736118D01*
X174716457Y-83732541D01*
X174702597Y-83727582D01*
X174689290Y-83721288D01*
X174676664Y-83713720D01*
X174664841Y-83704952D01*
X174653934Y-83695066D01*
X174644048Y-83684159D01*
X174635280Y-83672336D01*
X174627712Y-83659710D01*
X174621418Y-83646403D01*
X174616459Y-83632543D01*
X174612882Y-83618264D01*
X174610722Y-83603703D01*
X174610000Y-83589000D01*
X174610000Y-83289000D01*
X174610722Y-83274297D01*
X174612882Y-83259736D01*
X174616459Y-83245457D01*
X174621418Y-83231597D01*
X174627712Y-83218290D01*
X174635280Y-83205664D01*
X174644048Y-83193841D01*
X174653934Y-83182934D01*
X174664841Y-83173048D01*
X174676664Y-83164280D01*
X174689290Y-83156712D01*
X174702597Y-83150418D01*
X174716457Y-83145459D01*
X174730736Y-83141882D01*
X174745297Y-83139722D01*
X174760000Y-83139000D01*
X176510000Y-83139000D01*
X176524703Y-83139722D01*
G37*
G36*
X176524703Y-81869722D02*
G01*
X176539264Y-81871882D01*
X176553543Y-81875459D01*
X176567403Y-81880418D01*
X176580710Y-81886712D01*
X176593336Y-81894280D01*
X176605159Y-81903048D01*
X176616066Y-81912934D01*
X176625952Y-81923841D01*
X176634720Y-81935664D01*
X176642288Y-81948290D01*
X176648582Y-81961597D01*
X176653541Y-81975457D01*
X176657118Y-81989736D01*
X176659278Y-82004297D01*
X176660000Y-82019000D01*
X176660000Y-82319000D01*
X176659278Y-82333703D01*
X176657118Y-82348264D01*
X176653541Y-82362543D01*
X176648582Y-82376403D01*
X176642288Y-82389710D01*
X176634720Y-82402336D01*
X176625952Y-82414159D01*
X176616066Y-82425066D01*
X176605159Y-82434952D01*
X176593336Y-82443720D01*
X176580710Y-82451288D01*
X176567403Y-82457582D01*
X176553543Y-82462541D01*
X176539264Y-82466118D01*
X176524703Y-82468278D01*
X176510000Y-82469000D01*
X174760000Y-82469000D01*
X174745297Y-82468278D01*
X174730736Y-82466118D01*
X174716457Y-82462541D01*
X174702597Y-82457582D01*
X174689290Y-82451288D01*
X174676664Y-82443720D01*
X174664841Y-82434952D01*
X174653934Y-82425066D01*
X174644048Y-82414159D01*
X174635280Y-82402336D01*
X174627712Y-82389710D01*
X174621418Y-82376403D01*
X174616459Y-82362543D01*
X174612882Y-82348264D01*
X174610722Y-82333703D01*
X174610000Y-82319000D01*
X174610000Y-82019000D01*
X174610722Y-82004297D01*
X174612882Y-81989736D01*
X174616459Y-81975457D01*
X174621418Y-81961597D01*
X174627712Y-81948290D01*
X174635280Y-81935664D01*
X174644048Y-81923841D01*
X174653934Y-81912934D01*
X174664841Y-81903048D01*
X174676664Y-81894280D01*
X174689290Y-81886712D01*
X174702597Y-81880418D01*
X174716457Y-81875459D01*
X174730736Y-81871882D01*
X174745297Y-81869722D01*
X174760000Y-81869000D01*
X176510000Y-81869000D01*
X176524703Y-81869722D01*
G37*
G36*
X176524703Y-80599722D02*
G01*
X176539264Y-80601882D01*
X176553543Y-80605459D01*
X176567403Y-80610418D01*
X176580710Y-80616712D01*
X176593336Y-80624280D01*
X176605159Y-80633048D01*
X176616066Y-80642934D01*
X176625952Y-80653841D01*
X176634720Y-80665664D01*
X176642288Y-80678290D01*
X176648582Y-80691597D01*
X176653541Y-80705457D01*
X176657118Y-80719736D01*
X176659278Y-80734297D01*
X176660000Y-80749000D01*
X176660000Y-81049000D01*
X176659278Y-81063703D01*
X176657118Y-81078264D01*
X176653541Y-81092543D01*
X176648582Y-81106403D01*
X176642288Y-81119710D01*
X176634720Y-81132336D01*
X176625952Y-81144159D01*
X176616066Y-81155066D01*
X176605159Y-81164952D01*
X176593336Y-81173720D01*
X176580710Y-81181288D01*
X176567403Y-81187582D01*
X176553543Y-81192541D01*
X176539264Y-81196118D01*
X176524703Y-81198278D01*
X176510000Y-81199000D01*
X174760000Y-81199000D01*
X174745297Y-81198278D01*
X174730736Y-81196118D01*
X174716457Y-81192541D01*
X174702597Y-81187582D01*
X174689290Y-81181288D01*
X174676664Y-81173720D01*
X174664841Y-81164952D01*
X174653934Y-81155066D01*
X174644048Y-81144159D01*
X174635280Y-81132336D01*
X174627712Y-81119710D01*
X174621418Y-81106403D01*
X174616459Y-81092543D01*
X174612882Y-81078264D01*
X174610722Y-81063703D01*
X174610000Y-81049000D01*
X174610000Y-80749000D01*
X174610722Y-80734297D01*
X174612882Y-80719736D01*
X174616459Y-80705457D01*
X174621418Y-80691597D01*
X174627712Y-80678290D01*
X174635280Y-80665664D01*
X174644048Y-80653841D01*
X174653934Y-80642934D01*
X174664841Y-80633048D01*
X174676664Y-80624280D01*
X174689290Y-80616712D01*
X174702597Y-80610418D01*
X174716457Y-80605459D01*
X174730736Y-80601882D01*
X174745297Y-80599722D01*
X174760000Y-80599000D01*
X176510000Y-80599000D01*
X176524703Y-80599722D01*
G37*
G36*
X176524703Y-79329722D02*
G01*
X176539264Y-79331882D01*
X176553543Y-79335459D01*
X176567403Y-79340418D01*
X176580710Y-79346712D01*
X176593336Y-79354280D01*
X176605159Y-79363048D01*
X176616066Y-79372934D01*
X176625952Y-79383841D01*
X176634720Y-79395664D01*
X176642288Y-79408290D01*
X176648582Y-79421597D01*
X176653541Y-79435457D01*
X176657118Y-79449736D01*
X176659278Y-79464297D01*
X176660000Y-79479000D01*
X176660000Y-79779000D01*
X176659278Y-79793703D01*
X176657118Y-79808264D01*
X176653541Y-79822543D01*
X176648582Y-79836403D01*
X176642288Y-79849710D01*
X176634720Y-79862336D01*
X176625952Y-79874159D01*
X176616066Y-79885066D01*
X176605159Y-79894952D01*
X176593336Y-79903720D01*
X176580710Y-79911288D01*
X176567403Y-79917582D01*
X176553543Y-79922541D01*
X176539264Y-79926118D01*
X176524703Y-79928278D01*
X176510000Y-79929000D01*
X174760000Y-79929000D01*
X174745297Y-79928278D01*
X174730736Y-79926118D01*
X174716457Y-79922541D01*
X174702597Y-79917582D01*
X174689290Y-79911288D01*
X174676664Y-79903720D01*
X174664841Y-79894952D01*
X174653934Y-79885066D01*
X174644048Y-79874159D01*
X174635280Y-79862336D01*
X174627712Y-79849710D01*
X174621418Y-79836403D01*
X174616459Y-79822543D01*
X174612882Y-79808264D01*
X174610722Y-79793703D01*
X174610000Y-79779000D01*
X174610000Y-79479000D01*
X174610722Y-79464297D01*
X174612882Y-79449736D01*
X174616459Y-79435457D01*
X174621418Y-79421597D01*
X174627712Y-79408290D01*
X174635280Y-79395664D01*
X174644048Y-79383841D01*
X174653934Y-79372934D01*
X174664841Y-79363048D01*
X174676664Y-79354280D01*
X174689290Y-79346712D01*
X174702597Y-79340418D01*
X174716457Y-79335459D01*
X174730736Y-79331882D01*
X174745297Y-79329722D01*
X174760000Y-79329000D01*
X176510000Y-79329000D01*
X176524703Y-79329722D01*
G37*
G36*
X176524703Y-78059722D02*
G01*
X176539264Y-78061882D01*
X176553543Y-78065459D01*
X176567403Y-78070418D01*
X176580710Y-78076712D01*
X176593336Y-78084280D01*
X176605159Y-78093048D01*
X176616066Y-78102934D01*
X176625952Y-78113841D01*
X176634720Y-78125664D01*
X176642288Y-78138290D01*
X176648582Y-78151597D01*
X176653541Y-78165457D01*
X176657118Y-78179736D01*
X176659278Y-78194297D01*
X176660000Y-78209000D01*
X176660000Y-78509000D01*
X176659278Y-78523703D01*
X176657118Y-78538264D01*
X176653541Y-78552543D01*
X176648582Y-78566403D01*
X176642288Y-78579710D01*
X176634720Y-78592336D01*
X176625952Y-78604159D01*
X176616066Y-78615066D01*
X176605159Y-78624952D01*
X176593336Y-78633720D01*
X176580710Y-78641288D01*
X176567403Y-78647582D01*
X176553543Y-78652541D01*
X176539264Y-78656118D01*
X176524703Y-78658278D01*
X176510000Y-78659000D01*
X174760000Y-78659000D01*
X174745297Y-78658278D01*
X174730736Y-78656118D01*
X174716457Y-78652541D01*
X174702597Y-78647582D01*
X174689290Y-78641288D01*
X174676664Y-78633720D01*
X174664841Y-78624952D01*
X174653934Y-78615066D01*
X174644048Y-78604159D01*
X174635280Y-78592336D01*
X174627712Y-78579710D01*
X174621418Y-78566403D01*
X174616459Y-78552543D01*
X174612882Y-78538264D01*
X174610722Y-78523703D01*
X174610000Y-78509000D01*
X174610000Y-78209000D01*
X174610722Y-78194297D01*
X174612882Y-78179736D01*
X174616459Y-78165457D01*
X174621418Y-78151597D01*
X174627712Y-78138290D01*
X174635280Y-78125664D01*
X174644048Y-78113841D01*
X174653934Y-78102934D01*
X174664841Y-78093048D01*
X174676664Y-78084280D01*
X174689290Y-78076712D01*
X174702597Y-78070418D01*
X174716457Y-78065459D01*
X174730736Y-78061882D01*
X174745297Y-78059722D01*
X174760000Y-78059000D01*
X176510000Y-78059000D01*
X176524703Y-78059722D01*
G37*
G36*
X167224703Y-78059722D02*
G01*
X167239264Y-78061882D01*
X167253543Y-78065459D01*
X167267403Y-78070418D01*
X167280710Y-78076712D01*
X167293336Y-78084280D01*
X167305159Y-78093048D01*
X167316066Y-78102934D01*
X167325952Y-78113841D01*
X167334720Y-78125664D01*
X167342288Y-78138290D01*
X167348582Y-78151597D01*
X167353541Y-78165457D01*
X167357118Y-78179736D01*
X167359278Y-78194297D01*
X167360000Y-78209000D01*
X167360000Y-78509000D01*
X167359278Y-78523703D01*
X167357118Y-78538264D01*
X167353541Y-78552543D01*
X167348582Y-78566403D01*
X167342288Y-78579710D01*
X167334720Y-78592336D01*
X167325952Y-78604159D01*
X167316066Y-78615066D01*
X167305159Y-78624952D01*
X167293336Y-78633720D01*
X167280710Y-78641288D01*
X167267403Y-78647582D01*
X167253543Y-78652541D01*
X167239264Y-78656118D01*
X167224703Y-78658278D01*
X167210000Y-78659000D01*
X165460000Y-78659000D01*
X165445297Y-78658278D01*
X165430736Y-78656118D01*
X165416457Y-78652541D01*
X165402597Y-78647582D01*
X165389290Y-78641288D01*
X165376664Y-78633720D01*
X165364841Y-78624952D01*
X165353934Y-78615066D01*
X165344048Y-78604159D01*
X165335280Y-78592336D01*
X165327712Y-78579710D01*
X165321418Y-78566403D01*
X165316459Y-78552543D01*
X165312882Y-78538264D01*
X165310722Y-78523703D01*
X165310000Y-78509000D01*
X165310000Y-78209000D01*
X165310722Y-78194297D01*
X165312882Y-78179736D01*
X165316459Y-78165457D01*
X165321418Y-78151597D01*
X165327712Y-78138290D01*
X165335280Y-78125664D01*
X165344048Y-78113841D01*
X165353934Y-78102934D01*
X165364841Y-78093048D01*
X165376664Y-78084280D01*
X165389290Y-78076712D01*
X165402597Y-78070418D01*
X165416457Y-78065459D01*
X165430736Y-78061882D01*
X165445297Y-78059722D01*
X165460000Y-78059000D01*
X167210000Y-78059000D01*
X167224703Y-78059722D01*
G37*
G36*
X167224703Y-79329722D02*
G01*
X167239264Y-79331882D01*
X167253543Y-79335459D01*
X167267403Y-79340418D01*
X167280710Y-79346712D01*
X167293336Y-79354280D01*
X167305159Y-79363048D01*
X167316066Y-79372934D01*
X167325952Y-79383841D01*
X167334720Y-79395664D01*
X167342288Y-79408290D01*
X167348582Y-79421597D01*
X167353541Y-79435457D01*
X167357118Y-79449736D01*
X167359278Y-79464297D01*
X167360000Y-79479000D01*
X167360000Y-79779000D01*
X167359278Y-79793703D01*
X167357118Y-79808264D01*
X167353541Y-79822543D01*
X167348582Y-79836403D01*
X167342288Y-79849710D01*
X167334720Y-79862336D01*
X167325952Y-79874159D01*
X167316066Y-79885066D01*
X167305159Y-79894952D01*
X167293336Y-79903720D01*
X167280710Y-79911288D01*
X167267403Y-79917582D01*
X167253543Y-79922541D01*
X167239264Y-79926118D01*
X167224703Y-79928278D01*
X167210000Y-79929000D01*
X165460000Y-79929000D01*
X165445297Y-79928278D01*
X165430736Y-79926118D01*
X165416457Y-79922541D01*
X165402597Y-79917582D01*
X165389290Y-79911288D01*
X165376664Y-79903720D01*
X165364841Y-79894952D01*
X165353934Y-79885066D01*
X165344048Y-79874159D01*
X165335280Y-79862336D01*
X165327712Y-79849710D01*
X165321418Y-79836403D01*
X165316459Y-79822543D01*
X165312882Y-79808264D01*
X165310722Y-79793703D01*
X165310000Y-79779000D01*
X165310000Y-79479000D01*
X165310722Y-79464297D01*
X165312882Y-79449736D01*
X165316459Y-79435457D01*
X165321418Y-79421597D01*
X165327712Y-79408290D01*
X165335280Y-79395664D01*
X165344048Y-79383841D01*
X165353934Y-79372934D01*
X165364841Y-79363048D01*
X165376664Y-79354280D01*
X165389290Y-79346712D01*
X165402597Y-79340418D01*
X165416457Y-79335459D01*
X165430736Y-79331882D01*
X165445297Y-79329722D01*
X165460000Y-79329000D01*
X167210000Y-79329000D01*
X167224703Y-79329722D01*
G37*
G36*
X167224703Y-80599722D02*
G01*
X167239264Y-80601882D01*
X167253543Y-80605459D01*
X167267403Y-80610418D01*
X167280710Y-80616712D01*
X167293336Y-80624280D01*
X167305159Y-80633048D01*
X167316066Y-80642934D01*
X167325952Y-80653841D01*
X167334720Y-80665664D01*
X167342288Y-80678290D01*
X167348582Y-80691597D01*
X167353541Y-80705457D01*
X167357118Y-80719736D01*
X167359278Y-80734297D01*
X167360000Y-80749000D01*
X167360000Y-81049000D01*
X167359278Y-81063703D01*
X167357118Y-81078264D01*
X167353541Y-81092543D01*
X167348582Y-81106403D01*
X167342288Y-81119710D01*
X167334720Y-81132336D01*
X167325952Y-81144159D01*
X167316066Y-81155066D01*
X167305159Y-81164952D01*
X167293336Y-81173720D01*
X167280710Y-81181288D01*
X167267403Y-81187582D01*
X167253543Y-81192541D01*
X167239264Y-81196118D01*
X167224703Y-81198278D01*
X167210000Y-81199000D01*
X165460000Y-81199000D01*
X165445297Y-81198278D01*
X165430736Y-81196118D01*
X165416457Y-81192541D01*
X165402597Y-81187582D01*
X165389290Y-81181288D01*
X165376664Y-81173720D01*
X165364841Y-81164952D01*
X165353934Y-81155066D01*
X165344048Y-81144159D01*
X165335280Y-81132336D01*
X165327712Y-81119710D01*
X165321418Y-81106403D01*
X165316459Y-81092543D01*
X165312882Y-81078264D01*
X165310722Y-81063703D01*
X165310000Y-81049000D01*
X165310000Y-80749000D01*
X165310722Y-80734297D01*
X165312882Y-80719736D01*
X165316459Y-80705457D01*
X165321418Y-80691597D01*
X165327712Y-80678290D01*
X165335280Y-80665664D01*
X165344048Y-80653841D01*
X165353934Y-80642934D01*
X165364841Y-80633048D01*
X165376664Y-80624280D01*
X165389290Y-80616712D01*
X165402597Y-80610418D01*
X165416457Y-80605459D01*
X165430736Y-80601882D01*
X165445297Y-80599722D01*
X165460000Y-80599000D01*
X167210000Y-80599000D01*
X167224703Y-80599722D01*
G37*
G36*
X167224703Y-81869722D02*
G01*
X167239264Y-81871882D01*
X167253543Y-81875459D01*
X167267403Y-81880418D01*
X167280710Y-81886712D01*
X167293336Y-81894280D01*
X167305159Y-81903048D01*
X167316066Y-81912934D01*
X167325952Y-81923841D01*
X167334720Y-81935664D01*
X167342288Y-81948290D01*
X167348582Y-81961597D01*
X167353541Y-81975457D01*
X167357118Y-81989736D01*
X167359278Y-82004297D01*
X167360000Y-82019000D01*
X167360000Y-82319000D01*
X167359278Y-82333703D01*
X167357118Y-82348264D01*
X167353541Y-82362543D01*
X167348582Y-82376403D01*
X167342288Y-82389710D01*
X167334720Y-82402336D01*
X167325952Y-82414159D01*
X167316066Y-82425066D01*
X167305159Y-82434952D01*
X167293336Y-82443720D01*
X167280710Y-82451288D01*
X167267403Y-82457582D01*
X167253543Y-82462541D01*
X167239264Y-82466118D01*
X167224703Y-82468278D01*
X167210000Y-82469000D01*
X165460000Y-82469000D01*
X165445297Y-82468278D01*
X165430736Y-82466118D01*
X165416457Y-82462541D01*
X165402597Y-82457582D01*
X165389290Y-82451288D01*
X165376664Y-82443720D01*
X165364841Y-82434952D01*
X165353934Y-82425066D01*
X165344048Y-82414159D01*
X165335280Y-82402336D01*
X165327712Y-82389710D01*
X165321418Y-82376403D01*
X165316459Y-82362543D01*
X165312882Y-82348264D01*
X165310722Y-82333703D01*
X165310000Y-82319000D01*
X165310000Y-82019000D01*
X165310722Y-82004297D01*
X165312882Y-81989736D01*
X165316459Y-81975457D01*
X165321418Y-81961597D01*
X165327712Y-81948290D01*
X165335280Y-81935664D01*
X165344048Y-81923841D01*
X165353934Y-81912934D01*
X165364841Y-81903048D01*
X165376664Y-81894280D01*
X165389290Y-81886712D01*
X165402597Y-81880418D01*
X165416457Y-81875459D01*
X165430736Y-81871882D01*
X165445297Y-81869722D01*
X165460000Y-81869000D01*
X167210000Y-81869000D01*
X167224703Y-81869722D01*
G37*
G36*
X167224703Y-83139722D02*
G01*
X167239264Y-83141882D01*
X167253543Y-83145459D01*
X167267403Y-83150418D01*
X167280710Y-83156712D01*
X167293336Y-83164280D01*
X167305159Y-83173048D01*
X167316066Y-83182934D01*
X167325952Y-83193841D01*
X167334720Y-83205664D01*
X167342288Y-83218290D01*
X167348582Y-83231597D01*
X167353541Y-83245457D01*
X167357118Y-83259736D01*
X167359278Y-83274297D01*
X167360000Y-83289000D01*
X167360000Y-83589000D01*
X167359278Y-83603703D01*
X167357118Y-83618264D01*
X167353541Y-83632543D01*
X167348582Y-83646403D01*
X167342288Y-83659710D01*
X167334720Y-83672336D01*
X167325952Y-83684159D01*
X167316066Y-83695066D01*
X167305159Y-83704952D01*
X167293336Y-83713720D01*
X167280710Y-83721288D01*
X167267403Y-83727582D01*
X167253543Y-83732541D01*
X167239264Y-83736118D01*
X167224703Y-83738278D01*
X167210000Y-83739000D01*
X165460000Y-83739000D01*
X165445297Y-83738278D01*
X165430736Y-83736118D01*
X165416457Y-83732541D01*
X165402597Y-83727582D01*
X165389290Y-83721288D01*
X165376664Y-83713720D01*
X165364841Y-83704952D01*
X165353934Y-83695066D01*
X165344048Y-83684159D01*
X165335280Y-83672336D01*
X165327712Y-83659710D01*
X165321418Y-83646403D01*
X165316459Y-83632543D01*
X165312882Y-83618264D01*
X165310722Y-83603703D01*
X165310000Y-83589000D01*
X165310000Y-83289000D01*
X165310722Y-83274297D01*
X165312882Y-83259736D01*
X165316459Y-83245457D01*
X165321418Y-83231597D01*
X165327712Y-83218290D01*
X165335280Y-83205664D01*
X165344048Y-83193841D01*
X165353934Y-83182934D01*
X165364841Y-83173048D01*
X165376664Y-83164280D01*
X165389290Y-83156712D01*
X165402597Y-83150418D01*
X165416457Y-83145459D01*
X165430736Y-83141882D01*
X165445297Y-83139722D01*
X165460000Y-83139000D01*
X167210000Y-83139000D01*
X167224703Y-83139722D01*
G37*
G36*
X167224703Y-84409722D02*
G01*
X167239264Y-84411882D01*
X167253543Y-84415459D01*
X167267403Y-84420418D01*
X167280710Y-84426712D01*
X167293336Y-84434280D01*
X167305159Y-84443048D01*
X167316066Y-84452934D01*
X167325952Y-84463841D01*
X167334720Y-84475664D01*
X167342288Y-84488290D01*
X167348582Y-84501597D01*
X167353541Y-84515457D01*
X167357118Y-84529736D01*
X167359278Y-84544297D01*
X167360000Y-84559000D01*
X167360000Y-84859000D01*
X167359278Y-84873703D01*
X167357118Y-84888264D01*
X167353541Y-84902543D01*
X167348582Y-84916403D01*
X167342288Y-84929710D01*
X167334720Y-84942336D01*
X167325952Y-84954159D01*
X167316066Y-84965066D01*
X167305159Y-84974952D01*
X167293336Y-84983720D01*
X167280710Y-84991288D01*
X167267403Y-84997582D01*
X167253543Y-85002541D01*
X167239264Y-85006118D01*
X167224703Y-85008278D01*
X167210000Y-85009000D01*
X165460000Y-85009000D01*
X165445297Y-85008278D01*
X165430736Y-85006118D01*
X165416457Y-85002541D01*
X165402597Y-84997582D01*
X165389290Y-84991288D01*
X165376664Y-84983720D01*
X165364841Y-84974952D01*
X165353934Y-84965066D01*
X165344048Y-84954159D01*
X165335280Y-84942336D01*
X165327712Y-84929710D01*
X165321418Y-84916403D01*
X165316459Y-84902543D01*
X165312882Y-84888264D01*
X165310722Y-84873703D01*
X165310000Y-84859000D01*
X165310000Y-84559000D01*
X165310722Y-84544297D01*
X165312882Y-84529736D01*
X165316459Y-84515457D01*
X165321418Y-84501597D01*
X165327712Y-84488290D01*
X165335280Y-84475664D01*
X165344048Y-84463841D01*
X165353934Y-84452934D01*
X165364841Y-84443048D01*
X165376664Y-84434280D01*
X165389290Y-84426712D01*
X165402597Y-84420418D01*
X165416457Y-84415459D01*
X165430736Y-84411882D01*
X165445297Y-84409722D01*
X165460000Y-84409000D01*
X167210000Y-84409000D01*
X167224703Y-84409722D01*
G37*
G36*
X167224703Y-85679722D02*
G01*
X167239264Y-85681882D01*
X167253543Y-85685459D01*
X167267403Y-85690418D01*
X167280710Y-85696712D01*
X167293336Y-85704280D01*
X167305159Y-85713048D01*
X167316066Y-85722934D01*
X167325952Y-85733841D01*
X167334720Y-85745664D01*
X167342288Y-85758290D01*
X167348582Y-85771597D01*
X167353541Y-85785457D01*
X167357118Y-85799736D01*
X167359278Y-85814297D01*
X167360000Y-85829000D01*
X167360000Y-86129000D01*
X167359278Y-86143703D01*
X167357118Y-86158264D01*
X167353541Y-86172543D01*
X167348582Y-86186403D01*
X167342288Y-86199710D01*
X167334720Y-86212336D01*
X167325952Y-86224159D01*
X167316066Y-86235066D01*
X167305159Y-86244952D01*
X167293336Y-86253720D01*
X167280710Y-86261288D01*
X167267403Y-86267582D01*
X167253543Y-86272541D01*
X167239264Y-86276118D01*
X167224703Y-86278278D01*
X167210000Y-86279000D01*
X165460000Y-86279000D01*
X165445297Y-86278278D01*
X165430736Y-86276118D01*
X165416457Y-86272541D01*
X165402597Y-86267582D01*
X165389290Y-86261288D01*
X165376664Y-86253720D01*
X165364841Y-86244952D01*
X165353934Y-86235066D01*
X165344048Y-86224159D01*
X165335280Y-86212336D01*
X165327712Y-86199710D01*
X165321418Y-86186403D01*
X165316459Y-86172543D01*
X165312882Y-86158264D01*
X165310722Y-86143703D01*
X165310000Y-86129000D01*
X165310000Y-85829000D01*
X165310722Y-85814297D01*
X165312882Y-85799736D01*
X165316459Y-85785457D01*
X165321418Y-85771597D01*
X165327712Y-85758290D01*
X165335280Y-85745664D01*
X165344048Y-85733841D01*
X165353934Y-85722934D01*
X165364841Y-85713048D01*
X165376664Y-85704280D01*
X165389290Y-85696712D01*
X165402597Y-85690418D01*
X165416457Y-85685459D01*
X165430736Y-85681882D01*
X165445297Y-85679722D01*
X165460000Y-85679000D01*
X167210000Y-85679000D01*
X167224703Y-85679722D01*
G37*
G36*
X167224703Y-86949722D02*
G01*
X167239264Y-86951882D01*
X167253543Y-86955459D01*
X167267403Y-86960418D01*
X167280710Y-86966712D01*
X167293336Y-86974280D01*
X167305159Y-86983048D01*
X167316066Y-86992934D01*
X167325952Y-87003841D01*
X167334720Y-87015664D01*
X167342288Y-87028290D01*
X167348582Y-87041597D01*
X167353541Y-87055457D01*
X167357118Y-87069736D01*
X167359278Y-87084297D01*
X167360000Y-87099000D01*
X167360000Y-87399000D01*
X167359278Y-87413703D01*
X167357118Y-87428264D01*
X167353541Y-87442543D01*
X167348582Y-87456403D01*
X167342288Y-87469710D01*
X167334720Y-87482336D01*
X167325952Y-87494159D01*
X167316066Y-87505066D01*
X167305159Y-87514952D01*
X167293336Y-87523720D01*
X167280710Y-87531288D01*
X167267403Y-87537582D01*
X167253543Y-87542541D01*
X167239264Y-87546118D01*
X167224703Y-87548278D01*
X167210000Y-87549000D01*
X165460000Y-87549000D01*
X165445297Y-87548278D01*
X165430736Y-87546118D01*
X165416457Y-87542541D01*
X165402597Y-87537582D01*
X165389290Y-87531288D01*
X165376664Y-87523720D01*
X165364841Y-87514952D01*
X165353934Y-87505066D01*
X165344048Y-87494159D01*
X165335280Y-87482336D01*
X165327712Y-87469710D01*
X165321418Y-87456403D01*
X165316459Y-87442543D01*
X165312882Y-87428264D01*
X165310722Y-87413703D01*
X165310000Y-87399000D01*
X165310000Y-87099000D01*
X165310722Y-87084297D01*
X165312882Y-87069736D01*
X165316459Y-87055457D01*
X165321418Y-87041597D01*
X165327712Y-87028290D01*
X165335280Y-87015664D01*
X165344048Y-87003841D01*
X165353934Y-86992934D01*
X165364841Y-86983048D01*
X165376664Y-86974280D01*
X165389290Y-86966712D01*
X165402597Y-86960418D01*
X165416457Y-86955459D01*
X165430736Y-86951882D01*
X165445297Y-86949722D01*
X165460000Y-86949000D01*
X167210000Y-86949000D01*
X167224703Y-86949722D01*
G37*
G36*
X167224703Y-88219722D02*
G01*
X167239264Y-88221882D01*
X167253543Y-88225459D01*
X167267403Y-88230418D01*
X167280710Y-88236712D01*
X167293336Y-88244280D01*
X167305159Y-88253048D01*
X167316066Y-88262934D01*
X167325952Y-88273841D01*
X167334720Y-88285664D01*
X167342288Y-88298290D01*
X167348582Y-88311597D01*
X167353541Y-88325457D01*
X167357118Y-88339736D01*
X167359278Y-88354297D01*
X167360000Y-88369000D01*
X167360000Y-88669000D01*
X167359278Y-88683703D01*
X167357118Y-88698264D01*
X167353541Y-88712543D01*
X167348582Y-88726403D01*
X167342288Y-88739710D01*
X167334720Y-88752336D01*
X167325952Y-88764159D01*
X167316066Y-88775066D01*
X167305159Y-88784952D01*
X167293336Y-88793720D01*
X167280710Y-88801288D01*
X167267403Y-88807582D01*
X167253543Y-88812541D01*
X167239264Y-88816118D01*
X167224703Y-88818278D01*
X167210000Y-88819000D01*
X165460000Y-88819000D01*
X165445297Y-88818278D01*
X165430736Y-88816118D01*
X165416457Y-88812541D01*
X165402597Y-88807582D01*
X165389290Y-88801288D01*
X165376664Y-88793720D01*
X165364841Y-88784952D01*
X165353934Y-88775066D01*
X165344048Y-88764159D01*
X165335280Y-88752336D01*
X165327712Y-88739710D01*
X165321418Y-88726403D01*
X165316459Y-88712543D01*
X165312882Y-88698264D01*
X165310722Y-88683703D01*
X165310000Y-88669000D01*
X165310000Y-88369000D01*
X165310722Y-88354297D01*
X165312882Y-88339736D01*
X165316459Y-88325457D01*
X165321418Y-88311597D01*
X165327712Y-88298290D01*
X165335280Y-88285664D01*
X165344048Y-88273841D01*
X165353934Y-88262934D01*
X165364841Y-88253048D01*
X165376664Y-88244280D01*
X165389290Y-88236712D01*
X165402597Y-88230418D01*
X165416457Y-88225459D01*
X165430736Y-88221882D01*
X165445297Y-88219722D01*
X165460000Y-88219000D01*
X167210000Y-88219000D01*
X167224703Y-88219722D01*
G37*
G36*
X167224703Y-89489722D02*
G01*
X167239264Y-89491882D01*
X167253543Y-89495459D01*
X167267403Y-89500418D01*
X167280710Y-89506712D01*
X167293336Y-89514280D01*
X167305159Y-89523048D01*
X167316066Y-89532934D01*
X167325952Y-89543841D01*
X167334720Y-89555664D01*
X167342288Y-89568290D01*
X167348582Y-89581597D01*
X167353541Y-89595457D01*
X167357118Y-89609736D01*
X167359278Y-89624297D01*
X167360000Y-89639000D01*
X167360000Y-89939000D01*
X167359278Y-89953703D01*
X167357118Y-89968264D01*
X167353541Y-89982543D01*
X167348582Y-89996403D01*
X167342288Y-90009710D01*
X167334720Y-90022336D01*
X167325952Y-90034159D01*
X167316066Y-90045066D01*
X167305159Y-90054952D01*
X167293336Y-90063720D01*
X167280710Y-90071288D01*
X167267403Y-90077582D01*
X167253543Y-90082541D01*
X167239264Y-90086118D01*
X167224703Y-90088278D01*
X167210000Y-90089000D01*
X165460000Y-90089000D01*
X165445297Y-90088278D01*
X165430736Y-90086118D01*
X165416457Y-90082541D01*
X165402597Y-90077582D01*
X165389290Y-90071288D01*
X165376664Y-90063720D01*
X165364841Y-90054952D01*
X165353934Y-90045066D01*
X165344048Y-90034159D01*
X165335280Y-90022336D01*
X165327712Y-90009710D01*
X165321418Y-89996403D01*
X165316459Y-89982543D01*
X165312882Y-89968264D01*
X165310722Y-89953703D01*
X165310000Y-89939000D01*
X165310000Y-89639000D01*
X165310722Y-89624297D01*
X165312882Y-89609736D01*
X165316459Y-89595457D01*
X165321418Y-89581597D01*
X165327712Y-89568290D01*
X165335280Y-89555664D01*
X165344048Y-89543841D01*
X165353934Y-89532934D01*
X165364841Y-89523048D01*
X165376664Y-89514280D01*
X165389290Y-89506712D01*
X165402597Y-89500418D01*
X165416457Y-89495459D01*
X165430736Y-89491882D01*
X165445297Y-89489722D01*
X165460000Y-89489000D01*
X167210000Y-89489000D01*
X167224703Y-89489722D01*
G37*
G36*
X167224703Y-90759722D02*
G01*
X167239264Y-90761882D01*
X167253543Y-90765459D01*
X167267403Y-90770418D01*
X167280710Y-90776712D01*
X167293336Y-90784280D01*
X167305159Y-90793048D01*
X167316066Y-90802934D01*
X167325952Y-90813841D01*
X167334720Y-90825664D01*
X167342288Y-90838290D01*
X167348582Y-90851597D01*
X167353541Y-90865457D01*
X167357118Y-90879736D01*
X167359278Y-90894297D01*
X167360000Y-90909000D01*
X167360000Y-91209000D01*
X167359278Y-91223703D01*
X167357118Y-91238264D01*
X167353541Y-91252543D01*
X167348582Y-91266403D01*
X167342288Y-91279710D01*
X167334720Y-91292336D01*
X167325952Y-91304159D01*
X167316066Y-91315066D01*
X167305159Y-91324952D01*
X167293336Y-91333720D01*
X167280710Y-91341288D01*
X167267403Y-91347582D01*
X167253543Y-91352541D01*
X167239264Y-91356118D01*
X167224703Y-91358278D01*
X167210000Y-91359000D01*
X165460000Y-91359000D01*
X165445297Y-91358278D01*
X165430736Y-91356118D01*
X165416457Y-91352541D01*
X165402597Y-91347582D01*
X165389290Y-91341288D01*
X165376664Y-91333720D01*
X165364841Y-91324952D01*
X165353934Y-91315066D01*
X165344048Y-91304159D01*
X165335280Y-91292336D01*
X165327712Y-91279710D01*
X165321418Y-91266403D01*
X165316459Y-91252543D01*
X165312882Y-91238264D01*
X165310722Y-91223703D01*
X165310000Y-91209000D01*
X165310000Y-90909000D01*
X165310722Y-90894297D01*
X165312882Y-90879736D01*
X165316459Y-90865457D01*
X165321418Y-90851597D01*
X165327712Y-90838290D01*
X165335280Y-90825664D01*
X165344048Y-90813841D01*
X165353934Y-90802934D01*
X165364841Y-90793048D01*
X165376664Y-90784280D01*
X165389290Y-90776712D01*
X165402597Y-90770418D01*
X165416457Y-90765459D01*
X165430736Y-90761882D01*
X165445297Y-90759722D01*
X165460000Y-90759000D01*
X167210000Y-90759000D01*
X167224703Y-90759722D01*
G37*
G36*
X167224703Y-92029722D02*
G01*
X167239264Y-92031882D01*
X167253543Y-92035459D01*
X167267403Y-92040418D01*
X167280710Y-92046712D01*
X167293336Y-92054280D01*
X167305159Y-92063048D01*
X167316066Y-92072934D01*
X167325952Y-92083841D01*
X167334720Y-92095664D01*
X167342288Y-92108290D01*
X167348582Y-92121597D01*
X167353541Y-92135457D01*
X167357118Y-92149736D01*
X167359278Y-92164297D01*
X167360000Y-92179000D01*
X167360000Y-92479000D01*
X167359278Y-92493703D01*
X167357118Y-92508264D01*
X167353541Y-92522543D01*
X167348582Y-92536403D01*
X167342288Y-92549710D01*
X167334720Y-92562336D01*
X167325952Y-92574159D01*
X167316066Y-92585066D01*
X167305159Y-92594952D01*
X167293336Y-92603720D01*
X167280710Y-92611288D01*
X167267403Y-92617582D01*
X167253543Y-92622541D01*
X167239264Y-92626118D01*
X167224703Y-92628278D01*
X167210000Y-92629000D01*
X165460000Y-92629000D01*
X165445297Y-92628278D01*
X165430736Y-92626118D01*
X165416457Y-92622541D01*
X165402597Y-92617582D01*
X165389290Y-92611288D01*
X165376664Y-92603720D01*
X165364841Y-92594952D01*
X165353934Y-92585066D01*
X165344048Y-92574159D01*
X165335280Y-92562336D01*
X165327712Y-92549710D01*
X165321418Y-92536403D01*
X165316459Y-92522543D01*
X165312882Y-92508264D01*
X165310722Y-92493703D01*
X165310000Y-92479000D01*
X165310000Y-92179000D01*
X165310722Y-92164297D01*
X165312882Y-92149736D01*
X165316459Y-92135457D01*
X165321418Y-92121597D01*
X165327712Y-92108290D01*
X165335280Y-92095664D01*
X165344048Y-92083841D01*
X165353934Y-92072934D01*
X165364841Y-92063048D01*
X165376664Y-92054280D01*
X165389290Y-92046712D01*
X165402597Y-92040418D01*
X165416457Y-92035459D01*
X165430736Y-92031882D01*
X165445297Y-92029722D01*
X165460000Y-92029000D01*
X167210000Y-92029000D01*
X167224703Y-92029722D01*
G37*
G36*
X167224703Y-93299722D02*
G01*
X167239264Y-93301882D01*
X167253543Y-93305459D01*
X167267403Y-93310418D01*
X167280710Y-93316712D01*
X167293336Y-93324280D01*
X167305159Y-93333048D01*
X167316066Y-93342934D01*
X167325952Y-93353841D01*
X167334720Y-93365664D01*
X167342288Y-93378290D01*
X167348582Y-93391597D01*
X167353541Y-93405457D01*
X167357118Y-93419736D01*
X167359278Y-93434297D01*
X167360000Y-93449000D01*
X167360000Y-93749000D01*
X167359278Y-93763703D01*
X167357118Y-93778264D01*
X167353541Y-93792543D01*
X167348582Y-93806403D01*
X167342288Y-93819710D01*
X167334720Y-93832336D01*
X167325952Y-93844159D01*
X167316066Y-93855066D01*
X167305159Y-93864952D01*
X167293336Y-93873720D01*
X167280710Y-93881288D01*
X167267403Y-93887582D01*
X167253543Y-93892541D01*
X167239264Y-93896118D01*
X167224703Y-93898278D01*
X167210000Y-93899000D01*
X165460000Y-93899000D01*
X165445297Y-93898278D01*
X165430736Y-93896118D01*
X165416457Y-93892541D01*
X165402597Y-93887582D01*
X165389290Y-93881288D01*
X165376664Y-93873720D01*
X165364841Y-93864952D01*
X165353934Y-93855066D01*
X165344048Y-93844159D01*
X165335280Y-93832336D01*
X165327712Y-93819710D01*
X165321418Y-93806403D01*
X165316459Y-93792543D01*
X165312882Y-93778264D01*
X165310722Y-93763703D01*
X165310000Y-93749000D01*
X165310000Y-93449000D01*
X165310722Y-93434297D01*
X165312882Y-93419736D01*
X165316459Y-93405457D01*
X165321418Y-93391597D01*
X165327712Y-93378290D01*
X165335280Y-93365664D01*
X165344048Y-93353841D01*
X165353934Y-93342934D01*
X165364841Y-93333048D01*
X165376664Y-93324280D01*
X165389290Y-93316712D01*
X165402597Y-93310418D01*
X165416457Y-93305459D01*
X165430736Y-93301882D01*
X165445297Y-93299722D01*
X165460000Y-93299000D01*
X167210000Y-93299000D01*
X167224703Y-93299722D01*
G37*
G36*
X167224703Y-94569722D02*
G01*
X167239264Y-94571882D01*
X167253543Y-94575459D01*
X167267403Y-94580418D01*
X167280710Y-94586712D01*
X167293336Y-94594280D01*
X167305159Y-94603048D01*
X167316066Y-94612934D01*
X167325952Y-94623841D01*
X167334720Y-94635664D01*
X167342288Y-94648290D01*
X167348582Y-94661597D01*
X167353541Y-94675457D01*
X167357118Y-94689736D01*
X167359278Y-94704297D01*
X167360000Y-94719000D01*
X167360000Y-95019000D01*
X167359278Y-95033703D01*
X167357118Y-95048264D01*
X167353541Y-95062543D01*
X167348582Y-95076403D01*
X167342288Y-95089710D01*
X167334720Y-95102336D01*
X167325952Y-95114159D01*
X167316066Y-95125066D01*
X167305159Y-95134952D01*
X167293336Y-95143720D01*
X167280710Y-95151288D01*
X167267403Y-95157582D01*
X167253543Y-95162541D01*
X167239264Y-95166118D01*
X167224703Y-95168278D01*
X167210000Y-95169000D01*
X165460000Y-95169000D01*
X165445297Y-95168278D01*
X165430736Y-95166118D01*
X165416457Y-95162541D01*
X165402597Y-95157582D01*
X165389290Y-95151288D01*
X165376664Y-95143720D01*
X165364841Y-95134952D01*
X165353934Y-95125066D01*
X165344048Y-95114159D01*
X165335280Y-95102336D01*
X165327712Y-95089710D01*
X165321418Y-95076403D01*
X165316459Y-95062543D01*
X165312882Y-95048264D01*
X165310722Y-95033703D01*
X165310000Y-95019000D01*
X165310000Y-94719000D01*
X165310722Y-94704297D01*
X165312882Y-94689736D01*
X165316459Y-94675457D01*
X165321418Y-94661597D01*
X165327712Y-94648290D01*
X165335280Y-94635664D01*
X165344048Y-94623841D01*
X165353934Y-94612934D01*
X165364841Y-94603048D01*
X165376664Y-94594280D01*
X165389290Y-94586712D01*
X165402597Y-94580418D01*
X165416457Y-94575459D01*
X165430736Y-94571882D01*
X165445297Y-94569722D01*
X165460000Y-94569000D01*
X167210000Y-94569000D01*
X167224703Y-94569722D01*
G37*
D14*
X199525000Y-49475000D03*
X199525000Y-48825000D03*
X199525000Y-48175000D03*
X199525000Y-47525000D03*
X197475000Y-47525000D03*
X197475000Y-48175000D03*
X197475000Y-48825000D03*
X197475000Y-49475000D03*
D15*
X198025000Y-52550000D03*
X198975000Y-54450000D03*
X198025000Y-54450000D03*
X198975000Y-52550000D03*
D16*
X198500000Y-53500000D03*
D10*
G36*
X199075683Y-58095770D02*
G01*
X199091214Y-58098074D01*
X199106446Y-58101890D01*
X199121229Y-58107179D01*
X199135423Y-58113893D01*
X199148891Y-58121965D01*
X199161503Y-58131318D01*
X199173137Y-58141863D01*
X199183682Y-58153497D01*
X199193035Y-58166109D01*
X199201107Y-58179577D01*
X199207821Y-58193771D01*
X199213110Y-58208554D01*
X199216926Y-58223786D01*
X199219230Y-58239317D01*
X199220000Y-58255000D01*
X199220000Y-58745000D01*
X199219230Y-58760683D01*
X199216926Y-58776214D01*
X199213110Y-58791446D01*
X199207821Y-58806229D01*
X199201107Y-58820423D01*
X199193035Y-58833891D01*
X199183682Y-58846503D01*
X199173137Y-58858137D01*
X199161503Y-58868682D01*
X199148891Y-58878035D01*
X199135423Y-58886107D01*
X199121229Y-58892821D01*
X199106446Y-58898110D01*
X199091214Y-58901926D01*
X199075683Y-58904230D01*
X199060000Y-58905000D01*
X198740000Y-58905000D01*
X198724317Y-58904230D01*
X198708786Y-58901926D01*
X198693554Y-58898110D01*
X198678771Y-58892821D01*
X198664577Y-58886107D01*
X198651109Y-58878035D01*
X198638497Y-58868682D01*
X198626863Y-58858137D01*
X198616318Y-58846503D01*
X198606965Y-58833891D01*
X198598893Y-58820423D01*
X198592179Y-58806229D01*
X198586890Y-58791446D01*
X198583074Y-58776214D01*
X198580770Y-58760683D01*
X198580000Y-58745000D01*
X198580000Y-58255000D01*
X198580770Y-58239317D01*
X198583074Y-58223786D01*
X198586890Y-58208554D01*
X198592179Y-58193771D01*
X198598893Y-58179577D01*
X198606965Y-58166109D01*
X198616318Y-58153497D01*
X198626863Y-58141863D01*
X198638497Y-58131318D01*
X198651109Y-58121965D01*
X198664577Y-58113893D01*
X198678771Y-58107179D01*
X198693554Y-58101890D01*
X198708786Y-58098074D01*
X198724317Y-58095770D01*
X198740000Y-58095000D01*
X199060000Y-58095000D01*
X199075683Y-58095770D01*
G37*
G36*
X198275683Y-58095770D02*
G01*
X198291214Y-58098074D01*
X198306446Y-58101890D01*
X198321229Y-58107179D01*
X198335423Y-58113893D01*
X198348891Y-58121965D01*
X198361503Y-58131318D01*
X198373137Y-58141863D01*
X198383682Y-58153497D01*
X198393035Y-58166109D01*
X198401107Y-58179577D01*
X198407821Y-58193771D01*
X198413110Y-58208554D01*
X198416926Y-58223786D01*
X198419230Y-58239317D01*
X198420000Y-58255000D01*
X198420000Y-58745000D01*
X198419230Y-58760683D01*
X198416926Y-58776214D01*
X198413110Y-58791446D01*
X198407821Y-58806229D01*
X198401107Y-58820423D01*
X198393035Y-58833891D01*
X198383682Y-58846503D01*
X198373137Y-58858137D01*
X198361503Y-58868682D01*
X198348891Y-58878035D01*
X198335423Y-58886107D01*
X198321229Y-58892821D01*
X198306446Y-58898110D01*
X198291214Y-58901926D01*
X198275683Y-58904230D01*
X198260000Y-58905000D01*
X197940000Y-58905000D01*
X197924317Y-58904230D01*
X197908786Y-58901926D01*
X197893554Y-58898110D01*
X197878771Y-58892821D01*
X197864577Y-58886107D01*
X197851109Y-58878035D01*
X197838497Y-58868682D01*
X197826863Y-58858137D01*
X197816318Y-58846503D01*
X197806965Y-58833891D01*
X197798893Y-58820423D01*
X197792179Y-58806229D01*
X197786890Y-58791446D01*
X197783074Y-58776214D01*
X197780770Y-58760683D01*
X197780000Y-58745000D01*
X197780000Y-58255000D01*
X197780770Y-58239317D01*
X197783074Y-58223786D01*
X197786890Y-58208554D01*
X197792179Y-58193771D01*
X197798893Y-58179577D01*
X197806965Y-58166109D01*
X197816318Y-58153497D01*
X197826863Y-58141863D01*
X197838497Y-58131318D01*
X197851109Y-58121965D01*
X197864577Y-58113893D01*
X197878771Y-58107179D01*
X197893554Y-58101890D01*
X197908786Y-58098074D01*
X197924317Y-58095770D01*
X197940000Y-58095000D01*
X198260000Y-58095000D01*
X198275683Y-58095770D01*
G37*
G36*
X197965439Y-59200451D02*
G01*
X197974540Y-59201801D01*
X197983464Y-59204037D01*
X197992127Y-59207136D01*
X198000443Y-59211070D01*
X198008335Y-59215800D01*
X198015724Y-59221280D01*
X198022541Y-59227459D01*
X198028720Y-59234276D01*
X198034200Y-59241665D01*
X198038930Y-59249557D01*
X198042864Y-59257873D01*
X198045963Y-59266536D01*
X198048199Y-59275460D01*
X198049549Y-59284561D01*
X198050000Y-59293750D01*
X198050000Y-59481250D01*
X198049549Y-59490439D01*
X198048199Y-59499540D01*
X198045963Y-59508464D01*
X198042864Y-59517127D01*
X198038930Y-59525443D01*
X198034200Y-59533335D01*
X198028720Y-59540724D01*
X198022541Y-59547541D01*
X198015724Y-59553720D01*
X198008335Y-59559200D01*
X198000443Y-59563930D01*
X197992127Y-59567864D01*
X197983464Y-59570963D01*
X197974540Y-59573199D01*
X197965439Y-59574549D01*
X197956250Y-59575000D01*
X197743750Y-59575000D01*
X197734561Y-59574549D01*
X197725460Y-59573199D01*
X197716536Y-59570963D01*
X197707873Y-59567864D01*
X197699557Y-59563930D01*
X197691665Y-59559200D01*
X197684276Y-59553720D01*
X197677459Y-59547541D01*
X197671280Y-59540724D01*
X197665800Y-59533335D01*
X197661070Y-59525443D01*
X197657136Y-59517127D01*
X197654037Y-59508464D01*
X197651801Y-59499540D01*
X197650451Y-59490439D01*
X197650000Y-59481250D01*
X197650000Y-59293750D01*
X197650451Y-59284561D01*
X197651801Y-59275460D01*
X197654037Y-59266536D01*
X197657136Y-59257873D01*
X197661070Y-59249557D01*
X197665800Y-59241665D01*
X197671280Y-59234276D01*
X197677459Y-59227459D01*
X197684276Y-59221280D01*
X197691665Y-59215800D01*
X197699557Y-59211070D01*
X197707873Y-59207136D01*
X197716536Y-59204037D01*
X197725460Y-59201801D01*
X197734561Y-59200451D01*
X197743750Y-59200000D01*
X197956250Y-59200000D01*
X197965439Y-59200451D01*
G37*
G36*
X198615439Y-59200451D02*
G01*
X198624540Y-59201801D01*
X198633464Y-59204037D01*
X198642127Y-59207136D01*
X198650443Y-59211070D01*
X198658335Y-59215800D01*
X198665724Y-59221280D01*
X198672541Y-59227459D01*
X198678720Y-59234276D01*
X198684200Y-59241665D01*
X198688930Y-59249557D01*
X198692864Y-59257873D01*
X198695963Y-59266536D01*
X198698199Y-59275460D01*
X198699549Y-59284561D01*
X198700000Y-59293750D01*
X198700000Y-59481250D01*
X198699549Y-59490439D01*
X198698199Y-59499540D01*
X198695963Y-59508464D01*
X198692864Y-59517127D01*
X198688930Y-59525443D01*
X198684200Y-59533335D01*
X198678720Y-59540724D01*
X198672541Y-59547541D01*
X198665724Y-59553720D01*
X198658335Y-59559200D01*
X198650443Y-59563930D01*
X198642127Y-59567864D01*
X198633464Y-59570963D01*
X198624540Y-59573199D01*
X198615439Y-59574549D01*
X198606250Y-59575000D01*
X198393750Y-59575000D01*
X198384561Y-59574549D01*
X198375460Y-59573199D01*
X198366536Y-59570963D01*
X198357873Y-59567864D01*
X198349557Y-59563930D01*
X198341665Y-59559200D01*
X198334276Y-59553720D01*
X198327459Y-59547541D01*
X198321280Y-59540724D01*
X198315800Y-59533335D01*
X198311070Y-59525443D01*
X198307136Y-59517127D01*
X198304037Y-59508464D01*
X198301801Y-59499540D01*
X198300451Y-59490439D01*
X198300000Y-59481250D01*
X198300000Y-59293750D01*
X198300451Y-59284561D01*
X198301801Y-59275460D01*
X198304037Y-59266536D01*
X198307136Y-59257873D01*
X198311070Y-59249557D01*
X198315800Y-59241665D01*
X198321280Y-59234276D01*
X198327459Y-59227459D01*
X198334276Y-59221280D01*
X198341665Y-59215800D01*
X198349557Y-59211070D01*
X198357873Y-59207136D01*
X198366536Y-59204037D01*
X198375460Y-59201801D01*
X198384561Y-59200451D01*
X198393750Y-59200000D01*
X198606250Y-59200000D01*
X198615439Y-59200451D01*
G37*
G36*
X199265439Y-59200451D02*
G01*
X199274540Y-59201801D01*
X199283464Y-59204037D01*
X199292127Y-59207136D01*
X199300443Y-59211070D01*
X199308335Y-59215800D01*
X199315724Y-59221280D01*
X199322541Y-59227459D01*
X199328720Y-59234276D01*
X199334200Y-59241665D01*
X199338930Y-59249557D01*
X199342864Y-59257873D01*
X199345963Y-59266536D01*
X199348199Y-59275460D01*
X199349549Y-59284561D01*
X199350000Y-59293750D01*
X199350000Y-59481250D01*
X199349549Y-59490439D01*
X199348199Y-59499540D01*
X199345963Y-59508464D01*
X199342864Y-59517127D01*
X199338930Y-59525443D01*
X199334200Y-59533335D01*
X199328720Y-59540724D01*
X199322541Y-59547541D01*
X199315724Y-59553720D01*
X199308335Y-59559200D01*
X199300443Y-59563930D01*
X199292127Y-59567864D01*
X199283464Y-59570963D01*
X199274540Y-59573199D01*
X199265439Y-59574549D01*
X199256250Y-59575000D01*
X199043750Y-59575000D01*
X199034561Y-59574549D01*
X199025460Y-59573199D01*
X199016536Y-59570963D01*
X199007873Y-59567864D01*
X198999557Y-59563930D01*
X198991665Y-59559200D01*
X198984276Y-59553720D01*
X198977459Y-59547541D01*
X198971280Y-59540724D01*
X198965800Y-59533335D01*
X198961070Y-59525443D01*
X198957136Y-59517127D01*
X198954037Y-59508464D01*
X198951801Y-59499540D01*
X198950451Y-59490439D01*
X198950000Y-59481250D01*
X198950000Y-59293750D01*
X198950451Y-59284561D01*
X198951801Y-59275460D01*
X198954037Y-59266536D01*
X198957136Y-59257873D01*
X198961070Y-59249557D01*
X198965800Y-59241665D01*
X198971280Y-59234276D01*
X198977459Y-59227459D01*
X198984276Y-59221280D01*
X198991665Y-59215800D01*
X198999557Y-59211070D01*
X199007873Y-59207136D01*
X199016536Y-59204037D01*
X199025460Y-59201801D01*
X199034561Y-59200451D01*
X199043750Y-59200000D01*
X199256250Y-59200000D01*
X199265439Y-59200451D01*
G37*
G36*
X199265439Y-57425451D02*
G01*
X199274540Y-57426801D01*
X199283464Y-57429037D01*
X199292127Y-57432136D01*
X199300443Y-57436070D01*
X199308335Y-57440800D01*
X199315724Y-57446280D01*
X199322541Y-57452459D01*
X199328720Y-57459276D01*
X199334200Y-57466665D01*
X199338930Y-57474557D01*
X199342864Y-57482873D01*
X199345963Y-57491536D01*
X199348199Y-57500460D01*
X199349549Y-57509561D01*
X199350000Y-57518750D01*
X199350000Y-57706250D01*
X199349549Y-57715439D01*
X199348199Y-57724540D01*
X199345963Y-57733464D01*
X199342864Y-57742127D01*
X199338930Y-57750443D01*
X199334200Y-57758335D01*
X199328720Y-57765724D01*
X199322541Y-57772541D01*
X199315724Y-57778720D01*
X199308335Y-57784200D01*
X199300443Y-57788930D01*
X199292127Y-57792864D01*
X199283464Y-57795963D01*
X199274540Y-57798199D01*
X199265439Y-57799549D01*
X199256250Y-57800000D01*
X199043750Y-57800000D01*
X199034561Y-57799549D01*
X199025460Y-57798199D01*
X199016536Y-57795963D01*
X199007873Y-57792864D01*
X198999557Y-57788930D01*
X198991665Y-57784200D01*
X198984276Y-57778720D01*
X198977459Y-57772541D01*
X198971280Y-57765724D01*
X198965800Y-57758335D01*
X198961070Y-57750443D01*
X198957136Y-57742127D01*
X198954037Y-57733464D01*
X198951801Y-57724540D01*
X198950451Y-57715439D01*
X198950000Y-57706250D01*
X198950000Y-57518750D01*
X198950451Y-57509561D01*
X198951801Y-57500460D01*
X198954037Y-57491536D01*
X198957136Y-57482873D01*
X198961070Y-57474557D01*
X198965800Y-57466665D01*
X198971280Y-57459276D01*
X198977459Y-57452459D01*
X198984276Y-57446280D01*
X198991665Y-57440800D01*
X198999557Y-57436070D01*
X199007873Y-57432136D01*
X199016536Y-57429037D01*
X199025460Y-57426801D01*
X199034561Y-57425451D01*
X199043750Y-57425000D01*
X199256250Y-57425000D01*
X199265439Y-57425451D01*
G37*
G36*
X198615439Y-57425451D02*
G01*
X198624540Y-57426801D01*
X198633464Y-57429037D01*
X198642127Y-57432136D01*
X198650443Y-57436070D01*
X198658335Y-57440800D01*
X198665724Y-57446280D01*
X198672541Y-57452459D01*
X198678720Y-57459276D01*
X198684200Y-57466665D01*
X198688930Y-57474557D01*
X198692864Y-57482873D01*
X198695963Y-57491536D01*
X198698199Y-57500460D01*
X198699549Y-57509561D01*
X198700000Y-57518750D01*
X198700000Y-57706250D01*
X198699549Y-57715439D01*
X198698199Y-57724540D01*
X198695963Y-57733464D01*
X198692864Y-57742127D01*
X198688930Y-57750443D01*
X198684200Y-57758335D01*
X198678720Y-57765724D01*
X198672541Y-57772541D01*
X198665724Y-57778720D01*
X198658335Y-57784200D01*
X198650443Y-57788930D01*
X198642127Y-57792864D01*
X198633464Y-57795963D01*
X198624540Y-57798199D01*
X198615439Y-57799549D01*
X198606250Y-57800000D01*
X198393750Y-57800000D01*
X198384561Y-57799549D01*
X198375460Y-57798199D01*
X198366536Y-57795963D01*
X198357873Y-57792864D01*
X198349557Y-57788930D01*
X198341665Y-57784200D01*
X198334276Y-57778720D01*
X198327459Y-57772541D01*
X198321280Y-57765724D01*
X198315800Y-57758335D01*
X198311070Y-57750443D01*
X198307136Y-57742127D01*
X198304037Y-57733464D01*
X198301801Y-57724540D01*
X198300451Y-57715439D01*
X198300000Y-57706250D01*
X198300000Y-57518750D01*
X198300451Y-57509561D01*
X198301801Y-57500460D01*
X198304037Y-57491536D01*
X198307136Y-57482873D01*
X198311070Y-57474557D01*
X198315800Y-57466665D01*
X198321280Y-57459276D01*
X198327459Y-57452459D01*
X198334276Y-57446280D01*
X198341665Y-57440800D01*
X198349557Y-57436070D01*
X198357873Y-57432136D01*
X198366536Y-57429037D01*
X198375460Y-57426801D01*
X198384561Y-57425451D01*
X198393750Y-57425000D01*
X198606250Y-57425000D01*
X198615439Y-57425451D01*
G37*
G36*
X197965439Y-57425451D02*
G01*
X197974540Y-57426801D01*
X197983464Y-57429037D01*
X197992127Y-57432136D01*
X198000443Y-57436070D01*
X198008335Y-57440800D01*
X198015724Y-57446280D01*
X198022541Y-57452459D01*
X198028720Y-57459276D01*
X198034200Y-57466665D01*
X198038930Y-57474557D01*
X198042864Y-57482873D01*
X198045963Y-57491536D01*
X198048199Y-57500460D01*
X198049549Y-57509561D01*
X198050000Y-57518750D01*
X198050000Y-57706250D01*
X198049549Y-57715439D01*
X198048199Y-57724540D01*
X198045963Y-57733464D01*
X198042864Y-57742127D01*
X198038930Y-57750443D01*
X198034200Y-57758335D01*
X198028720Y-57765724D01*
X198022541Y-57772541D01*
X198015724Y-57778720D01*
X198008335Y-57784200D01*
X198000443Y-57788930D01*
X197992127Y-57792864D01*
X197983464Y-57795963D01*
X197974540Y-57798199D01*
X197965439Y-57799549D01*
X197956250Y-57800000D01*
X197743750Y-57800000D01*
X197734561Y-57799549D01*
X197725460Y-57798199D01*
X197716536Y-57795963D01*
X197707873Y-57792864D01*
X197699557Y-57788930D01*
X197691665Y-57784200D01*
X197684276Y-57778720D01*
X197677459Y-57772541D01*
X197671280Y-57765724D01*
X197665800Y-57758335D01*
X197661070Y-57750443D01*
X197657136Y-57742127D01*
X197654037Y-57733464D01*
X197651801Y-57724540D01*
X197650451Y-57715439D01*
X197650000Y-57706250D01*
X197650000Y-57518750D01*
X197650451Y-57509561D01*
X197651801Y-57500460D01*
X197654037Y-57491536D01*
X197657136Y-57482873D01*
X197661070Y-57474557D01*
X197665800Y-57466665D01*
X197671280Y-57459276D01*
X197677459Y-57452459D01*
X197684276Y-57446280D01*
X197691665Y-57440800D01*
X197699557Y-57436070D01*
X197707873Y-57432136D01*
X197716536Y-57429037D01*
X197725460Y-57426801D01*
X197734561Y-57425451D01*
X197743750Y-57425000D01*
X197956250Y-57425000D01*
X197965439Y-57425451D01*
G37*
G36*
X92010142Y-90106174D02*
G01*
X92033803Y-90109684D01*
X92057007Y-90115496D01*
X92079529Y-90123554D01*
X92101153Y-90133782D01*
X92121670Y-90146079D01*
X92140883Y-90160329D01*
X92158607Y-90176393D01*
X92174671Y-90194117D01*
X92188921Y-90213330D01*
X92201218Y-90233847D01*
X92211446Y-90255471D01*
X92219504Y-90277993D01*
X92225316Y-90301197D01*
X92228826Y-90324858D01*
X92230000Y-90348750D01*
X92230000Y-91261250D01*
X92228826Y-91285142D01*
X92225316Y-91308803D01*
X92219504Y-91332007D01*
X92211446Y-91354529D01*
X92201218Y-91376153D01*
X92188921Y-91396670D01*
X92174671Y-91415883D01*
X92158607Y-91433607D01*
X92140883Y-91449671D01*
X92121670Y-91463921D01*
X92101153Y-91476218D01*
X92079529Y-91486446D01*
X92057007Y-91494504D01*
X92033803Y-91500316D01*
X92010142Y-91503826D01*
X91986250Y-91505000D01*
X91498750Y-91505000D01*
X91474858Y-91503826D01*
X91451197Y-91500316D01*
X91427993Y-91494504D01*
X91405471Y-91486446D01*
X91383847Y-91476218D01*
X91363330Y-91463921D01*
X91344117Y-91449671D01*
X91326393Y-91433607D01*
X91310329Y-91415883D01*
X91296079Y-91396670D01*
X91283782Y-91376153D01*
X91273554Y-91354529D01*
X91265496Y-91332007D01*
X91259684Y-91308803D01*
X91256174Y-91285142D01*
X91255000Y-91261250D01*
X91255000Y-90348750D01*
X91256174Y-90324858D01*
X91259684Y-90301197D01*
X91265496Y-90277993D01*
X91273554Y-90255471D01*
X91283782Y-90233847D01*
X91296079Y-90213330D01*
X91310329Y-90194117D01*
X91326393Y-90176393D01*
X91344117Y-90160329D01*
X91363330Y-90146079D01*
X91383847Y-90133782D01*
X91405471Y-90123554D01*
X91427993Y-90115496D01*
X91451197Y-90109684D01*
X91474858Y-90106174D01*
X91498750Y-90105000D01*
X91986250Y-90105000D01*
X92010142Y-90106174D01*
G37*
G36*
X90135142Y-90106174D02*
G01*
X90158803Y-90109684D01*
X90182007Y-90115496D01*
X90204529Y-90123554D01*
X90226153Y-90133782D01*
X90246670Y-90146079D01*
X90265883Y-90160329D01*
X90283607Y-90176393D01*
X90299671Y-90194117D01*
X90313921Y-90213330D01*
X90326218Y-90233847D01*
X90336446Y-90255471D01*
X90344504Y-90277993D01*
X90350316Y-90301197D01*
X90353826Y-90324858D01*
X90355000Y-90348750D01*
X90355000Y-91261250D01*
X90353826Y-91285142D01*
X90350316Y-91308803D01*
X90344504Y-91332007D01*
X90336446Y-91354529D01*
X90326218Y-91376153D01*
X90313921Y-91396670D01*
X90299671Y-91415883D01*
X90283607Y-91433607D01*
X90265883Y-91449671D01*
X90246670Y-91463921D01*
X90226153Y-91476218D01*
X90204529Y-91486446D01*
X90182007Y-91494504D01*
X90158803Y-91500316D01*
X90135142Y-91503826D01*
X90111250Y-91505000D01*
X89623750Y-91505000D01*
X89599858Y-91503826D01*
X89576197Y-91500316D01*
X89552993Y-91494504D01*
X89530471Y-91486446D01*
X89508847Y-91476218D01*
X89488330Y-91463921D01*
X89469117Y-91449671D01*
X89451393Y-91433607D01*
X89435329Y-91415883D01*
X89421079Y-91396670D01*
X89408782Y-91376153D01*
X89398554Y-91354529D01*
X89390496Y-91332007D01*
X89384684Y-91308803D01*
X89381174Y-91285142D01*
X89380000Y-91261250D01*
X89380000Y-90348750D01*
X89381174Y-90324858D01*
X89384684Y-90301197D01*
X89390496Y-90277993D01*
X89398554Y-90255471D01*
X89408782Y-90233847D01*
X89421079Y-90213330D01*
X89435329Y-90194117D01*
X89451393Y-90176393D01*
X89469117Y-90160329D01*
X89488330Y-90146079D01*
X89508847Y-90133782D01*
X89530471Y-90123554D01*
X89552993Y-90115496D01*
X89576197Y-90109684D01*
X89599858Y-90106174D01*
X89623750Y-90105000D01*
X90111250Y-90105000D01*
X90135142Y-90106174D01*
G37*
G36*
X122394505Y-53011204D02*
G01*
X122418773Y-53014804D01*
X122442572Y-53020765D01*
X122465671Y-53029030D01*
X122487850Y-53039520D01*
X122508893Y-53052132D01*
X122528599Y-53066747D01*
X122546777Y-53083223D01*
X122563253Y-53101401D01*
X122577868Y-53121107D01*
X122590480Y-53142150D01*
X122600970Y-53164329D01*
X122609235Y-53187428D01*
X122615196Y-53211227D01*
X122618796Y-53235495D01*
X122620000Y-53259999D01*
X122620000Y-53910001D01*
X122618796Y-53934505D01*
X122615196Y-53958773D01*
X122609235Y-53982572D01*
X122600970Y-54005671D01*
X122590480Y-54027850D01*
X122577868Y-54048893D01*
X122563253Y-54068599D01*
X122546777Y-54086777D01*
X122528599Y-54103253D01*
X122508893Y-54117868D01*
X122487850Y-54130480D01*
X122465671Y-54140970D01*
X122442572Y-54149235D01*
X122418773Y-54155196D01*
X122394505Y-54158796D01*
X122370001Y-54160000D01*
X121469999Y-54160000D01*
X121445495Y-54158796D01*
X121421227Y-54155196D01*
X121397428Y-54149235D01*
X121374329Y-54140970D01*
X121352150Y-54130480D01*
X121331107Y-54117868D01*
X121311401Y-54103253D01*
X121293223Y-54086777D01*
X121276747Y-54068599D01*
X121262132Y-54048893D01*
X121249520Y-54027850D01*
X121239030Y-54005671D01*
X121230765Y-53982572D01*
X121224804Y-53958773D01*
X121221204Y-53934505D01*
X121220000Y-53910001D01*
X121220000Y-53259999D01*
X121221204Y-53235495D01*
X121224804Y-53211227D01*
X121230765Y-53187428D01*
X121239030Y-53164329D01*
X121249520Y-53142150D01*
X121262132Y-53121107D01*
X121276747Y-53101401D01*
X121293223Y-53083223D01*
X121311401Y-53066747D01*
X121331107Y-53052132D01*
X121352150Y-53039520D01*
X121374329Y-53029030D01*
X121397428Y-53020765D01*
X121421227Y-53014804D01*
X121445495Y-53011204D01*
X121469999Y-53010000D01*
X122370001Y-53010000D01*
X122394505Y-53011204D01*
G37*
G36*
X122394505Y-55061204D02*
G01*
X122418773Y-55064804D01*
X122442572Y-55070765D01*
X122465671Y-55079030D01*
X122487850Y-55089520D01*
X122508893Y-55102132D01*
X122528599Y-55116747D01*
X122546777Y-55133223D01*
X122563253Y-55151401D01*
X122577868Y-55171107D01*
X122590480Y-55192150D01*
X122600970Y-55214329D01*
X122609235Y-55237428D01*
X122615196Y-55261227D01*
X122618796Y-55285495D01*
X122620000Y-55309999D01*
X122620000Y-55960001D01*
X122618796Y-55984505D01*
X122615196Y-56008773D01*
X122609235Y-56032572D01*
X122600970Y-56055671D01*
X122590480Y-56077850D01*
X122577868Y-56098893D01*
X122563253Y-56118599D01*
X122546777Y-56136777D01*
X122528599Y-56153253D01*
X122508893Y-56167868D01*
X122487850Y-56180480D01*
X122465671Y-56190970D01*
X122442572Y-56199235D01*
X122418773Y-56205196D01*
X122394505Y-56208796D01*
X122370001Y-56210000D01*
X121469999Y-56210000D01*
X121445495Y-56208796D01*
X121421227Y-56205196D01*
X121397428Y-56199235D01*
X121374329Y-56190970D01*
X121352150Y-56180480D01*
X121331107Y-56167868D01*
X121311401Y-56153253D01*
X121293223Y-56136777D01*
X121276747Y-56118599D01*
X121262132Y-56098893D01*
X121249520Y-56077850D01*
X121239030Y-56055671D01*
X121230765Y-56032572D01*
X121224804Y-56008773D01*
X121221204Y-55984505D01*
X121220000Y-55960001D01*
X121220000Y-55309999D01*
X121221204Y-55285495D01*
X121224804Y-55261227D01*
X121230765Y-55237428D01*
X121239030Y-55214329D01*
X121249520Y-55192150D01*
X121262132Y-55171107D01*
X121276747Y-55151401D01*
X121293223Y-55133223D01*
X121311401Y-55116747D01*
X121331107Y-55102132D01*
X121352150Y-55089520D01*
X121374329Y-55079030D01*
X121397428Y-55070765D01*
X121421227Y-55064804D01*
X121445495Y-55061204D01*
X121469999Y-55060000D01*
X122370001Y-55060000D01*
X122394505Y-55061204D01*
G37*
D17*
X89535000Y-82550000D03*
D18*
X91440000Y-79850000D03*
X90170000Y-79850000D03*
X88900000Y-79850000D03*
X87630000Y-79850000D03*
X87630000Y-85250000D03*
X88900000Y-85250000D03*
X90170000Y-85250000D03*
X91440000Y-85250000D03*
D19*
X101355000Y-46355000D03*
X101355000Y-47625000D03*
X101355000Y-48895000D03*
X101355000Y-50165000D03*
X101355000Y-51435000D03*
X101355000Y-52705000D03*
X101355000Y-53975000D03*
X101355000Y-55245000D03*
X101355000Y-56515000D03*
X101355000Y-57785000D03*
X101355000Y-59055000D03*
X101355000Y-60325000D03*
X101355000Y-61595000D03*
X101355000Y-62865000D03*
D20*
X104140000Y-63865000D03*
X105410000Y-63865000D03*
X106680000Y-63865000D03*
X107950000Y-63865000D03*
X109220000Y-63865000D03*
X110490000Y-63865000D03*
X111760000Y-63865000D03*
X113030000Y-63865000D03*
X114300000Y-63865000D03*
X115570000Y-63865000D03*
D19*
X118355000Y-62865000D03*
X118355000Y-61595000D03*
X118355000Y-60325000D03*
X118355000Y-59055000D03*
X118355000Y-57785000D03*
X118355000Y-56515000D03*
X118355000Y-55245000D03*
X118355000Y-53975000D03*
X118355000Y-52705000D03*
X118355000Y-51435000D03*
X118355000Y-50165000D03*
X118355000Y-48895000D03*
X118355000Y-47625000D03*
X118355000Y-46355000D03*
D21*
X110855000Y-53855000D03*
D10*
G36*
X96479505Y-52006204D02*
G01*
X96503773Y-52009804D01*
X96527572Y-52015765D01*
X96550671Y-52024030D01*
X96572850Y-52034520D01*
X96593893Y-52047132D01*
X96613599Y-52061747D01*
X96631777Y-52078223D01*
X96648253Y-52096401D01*
X96662868Y-52116107D01*
X96675480Y-52137150D01*
X96685970Y-52159329D01*
X96694235Y-52182428D01*
X96700196Y-52206227D01*
X96703796Y-52230495D01*
X96705000Y-52254999D01*
X96705000Y-53155001D01*
X96703796Y-53179505D01*
X96700196Y-53203773D01*
X96694235Y-53227572D01*
X96685970Y-53250671D01*
X96675480Y-53272850D01*
X96662868Y-53293893D01*
X96648253Y-53313599D01*
X96631777Y-53331777D01*
X96613599Y-53348253D01*
X96593893Y-53362868D01*
X96572850Y-53375480D01*
X96550671Y-53385970D01*
X96527572Y-53394235D01*
X96503773Y-53400196D01*
X96479505Y-53403796D01*
X96455001Y-53405000D01*
X95804999Y-53405000D01*
X95780495Y-53403796D01*
X95756227Y-53400196D01*
X95732428Y-53394235D01*
X95709329Y-53385970D01*
X95687150Y-53375480D01*
X95666107Y-53362868D01*
X95646401Y-53348253D01*
X95628223Y-53331777D01*
X95611747Y-53313599D01*
X95597132Y-53293893D01*
X95584520Y-53272850D01*
X95574030Y-53250671D01*
X95565765Y-53227572D01*
X95559804Y-53203773D01*
X95556204Y-53179505D01*
X95555000Y-53155001D01*
X95555000Y-52254999D01*
X95556204Y-52230495D01*
X95559804Y-52206227D01*
X95565765Y-52182428D01*
X95574030Y-52159329D01*
X95584520Y-52137150D01*
X95597132Y-52116107D01*
X95611747Y-52096401D01*
X95628223Y-52078223D01*
X95646401Y-52061747D01*
X95666107Y-52047132D01*
X95687150Y-52034520D01*
X95709329Y-52024030D01*
X95732428Y-52015765D01*
X95756227Y-52009804D01*
X95780495Y-52006204D01*
X95804999Y-52005000D01*
X96455001Y-52005000D01*
X96479505Y-52006204D01*
G37*
G36*
X98529505Y-52006204D02*
G01*
X98553773Y-52009804D01*
X98577572Y-52015765D01*
X98600671Y-52024030D01*
X98622850Y-52034520D01*
X98643893Y-52047132D01*
X98663599Y-52061747D01*
X98681777Y-52078223D01*
X98698253Y-52096401D01*
X98712868Y-52116107D01*
X98725480Y-52137150D01*
X98735970Y-52159329D01*
X98744235Y-52182428D01*
X98750196Y-52206227D01*
X98753796Y-52230495D01*
X98755000Y-52254999D01*
X98755000Y-53155001D01*
X98753796Y-53179505D01*
X98750196Y-53203773D01*
X98744235Y-53227572D01*
X98735970Y-53250671D01*
X98725480Y-53272850D01*
X98712868Y-53293893D01*
X98698253Y-53313599D01*
X98681777Y-53331777D01*
X98663599Y-53348253D01*
X98643893Y-53362868D01*
X98622850Y-53375480D01*
X98600671Y-53385970D01*
X98577572Y-53394235D01*
X98553773Y-53400196D01*
X98529505Y-53403796D01*
X98505001Y-53405000D01*
X97854999Y-53405000D01*
X97830495Y-53403796D01*
X97806227Y-53400196D01*
X97782428Y-53394235D01*
X97759329Y-53385970D01*
X97737150Y-53375480D01*
X97716107Y-53362868D01*
X97696401Y-53348253D01*
X97678223Y-53331777D01*
X97661747Y-53313599D01*
X97647132Y-53293893D01*
X97634520Y-53272850D01*
X97624030Y-53250671D01*
X97615765Y-53227572D01*
X97609804Y-53203773D01*
X97606204Y-53179505D01*
X97605000Y-53155001D01*
X97605000Y-52254999D01*
X97606204Y-52230495D01*
X97609804Y-52206227D01*
X97615765Y-52182428D01*
X97624030Y-52159329D01*
X97634520Y-52137150D01*
X97647132Y-52116107D01*
X97661747Y-52096401D01*
X97678223Y-52078223D01*
X97696401Y-52061747D01*
X97716107Y-52047132D01*
X97737150Y-52034520D01*
X97759329Y-52024030D01*
X97782428Y-52015765D01*
X97806227Y-52009804D01*
X97830495Y-52006204D01*
X97854999Y-52005000D01*
X98505001Y-52005000D01*
X98529505Y-52006204D01*
G37*
G36*
X84929505Y-80461204D02*
G01*
X84953773Y-80464804D01*
X84977572Y-80470765D01*
X85000671Y-80479030D01*
X85022850Y-80489520D01*
X85043893Y-80502132D01*
X85063599Y-80516747D01*
X85081777Y-80533223D01*
X85098253Y-80551401D01*
X85112868Y-80571107D01*
X85125480Y-80592150D01*
X85135970Y-80614329D01*
X85144235Y-80637428D01*
X85150196Y-80661227D01*
X85153796Y-80685495D01*
X85155000Y-80709999D01*
X85155000Y-81360001D01*
X85153796Y-81384505D01*
X85150196Y-81408773D01*
X85144235Y-81432572D01*
X85135970Y-81455671D01*
X85125480Y-81477850D01*
X85112868Y-81498893D01*
X85098253Y-81518599D01*
X85081777Y-81536777D01*
X85063599Y-81553253D01*
X85043893Y-81567868D01*
X85022850Y-81580480D01*
X85000671Y-81590970D01*
X84977572Y-81599235D01*
X84953773Y-81605196D01*
X84929505Y-81608796D01*
X84905001Y-81610000D01*
X84004999Y-81610000D01*
X83980495Y-81608796D01*
X83956227Y-81605196D01*
X83932428Y-81599235D01*
X83909329Y-81590970D01*
X83887150Y-81580480D01*
X83866107Y-81567868D01*
X83846401Y-81553253D01*
X83828223Y-81536777D01*
X83811747Y-81518599D01*
X83797132Y-81498893D01*
X83784520Y-81477850D01*
X83774030Y-81455671D01*
X83765765Y-81432572D01*
X83759804Y-81408773D01*
X83756204Y-81384505D01*
X83755000Y-81360001D01*
X83755000Y-80709999D01*
X83756204Y-80685495D01*
X83759804Y-80661227D01*
X83765765Y-80637428D01*
X83774030Y-80614329D01*
X83784520Y-80592150D01*
X83797132Y-80571107D01*
X83811747Y-80551401D01*
X83828223Y-80533223D01*
X83846401Y-80516747D01*
X83866107Y-80502132D01*
X83887150Y-80489520D01*
X83909329Y-80479030D01*
X83932428Y-80470765D01*
X83956227Y-80464804D01*
X83980495Y-80461204D01*
X84004999Y-80460000D01*
X84905001Y-80460000D01*
X84929505Y-80461204D01*
G37*
G36*
X84929505Y-78411204D02*
G01*
X84953773Y-78414804D01*
X84977572Y-78420765D01*
X85000671Y-78429030D01*
X85022850Y-78439520D01*
X85043893Y-78452132D01*
X85063599Y-78466747D01*
X85081777Y-78483223D01*
X85098253Y-78501401D01*
X85112868Y-78521107D01*
X85125480Y-78542150D01*
X85135970Y-78564329D01*
X85144235Y-78587428D01*
X85150196Y-78611227D01*
X85153796Y-78635495D01*
X85155000Y-78659999D01*
X85155000Y-79310001D01*
X85153796Y-79334505D01*
X85150196Y-79358773D01*
X85144235Y-79382572D01*
X85135970Y-79405671D01*
X85125480Y-79427850D01*
X85112868Y-79448893D01*
X85098253Y-79468599D01*
X85081777Y-79486777D01*
X85063599Y-79503253D01*
X85043893Y-79517868D01*
X85022850Y-79530480D01*
X85000671Y-79540970D01*
X84977572Y-79549235D01*
X84953773Y-79555196D01*
X84929505Y-79558796D01*
X84905001Y-79560000D01*
X84004999Y-79560000D01*
X83980495Y-79558796D01*
X83956227Y-79555196D01*
X83932428Y-79549235D01*
X83909329Y-79540970D01*
X83887150Y-79530480D01*
X83866107Y-79517868D01*
X83846401Y-79503253D01*
X83828223Y-79486777D01*
X83811747Y-79468599D01*
X83797132Y-79448893D01*
X83784520Y-79427850D01*
X83774030Y-79405671D01*
X83765765Y-79382572D01*
X83759804Y-79358773D01*
X83756204Y-79334505D01*
X83755000Y-79310001D01*
X83755000Y-78659999D01*
X83756204Y-78635495D01*
X83759804Y-78611227D01*
X83765765Y-78587428D01*
X83774030Y-78564329D01*
X83784520Y-78542150D01*
X83797132Y-78521107D01*
X83811747Y-78501401D01*
X83828223Y-78483223D01*
X83846401Y-78466747D01*
X83866107Y-78452132D01*
X83887150Y-78439520D01*
X83909329Y-78429030D01*
X83932428Y-78420765D01*
X83956227Y-78414804D01*
X83980495Y-78411204D01*
X84004999Y-78410000D01*
X84905001Y-78410000D01*
X84929505Y-78411204D01*
G37*
G36*
X84929505Y-76016204D02*
G01*
X84953773Y-76019804D01*
X84977572Y-76025765D01*
X85000671Y-76034030D01*
X85022850Y-76044520D01*
X85043893Y-76057132D01*
X85063599Y-76071747D01*
X85081777Y-76088223D01*
X85098253Y-76106401D01*
X85112868Y-76126107D01*
X85125480Y-76147150D01*
X85135970Y-76169329D01*
X85144235Y-76192428D01*
X85150196Y-76216227D01*
X85153796Y-76240495D01*
X85155000Y-76264999D01*
X85155000Y-76915001D01*
X85153796Y-76939505D01*
X85150196Y-76963773D01*
X85144235Y-76987572D01*
X85135970Y-77010671D01*
X85125480Y-77032850D01*
X85112868Y-77053893D01*
X85098253Y-77073599D01*
X85081777Y-77091777D01*
X85063599Y-77108253D01*
X85043893Y-77122868D01*
X85022850Y-77135480D01*
X85000671Y-77145970D01*
X84977572Y-77154235D01*
X84953773Y-77160196D01*
X84929505Y-77163796D01*
X84905001Y-77165000D01*
X84004999Y-77165000D01*
X83980495Y-77163796D01*
X83956227Y-77160196D01*
X83932428Y-77154235D01*
X83909329Y-77145970D01*
X83887150Y-77135480D01*
X83866107Y-77122868D01*
X83846401Y-77108253D01*
X83828223Y-77091777D01*
X83811747Y-77073599D01*
X83797132Y-77053893D01*
X83784520Y-77032850D01*
X83774030Y-77010671D01*
X83765765Y-76987572D01*
X83759804Y-76963773D01*
X83756204Y-76939505D01*
X83755000Y-76915001D01*
X83755000Y-76264999D01*
X83756204Y-76240495D01*
X83759804Y-76216227D01*
X83765765Y-76192428D01*
X83774030Y-76169329D01*
X83784520Y-76147150D01*
X83797132Y-76126107D01*
X83811747Y-76106401D01*
X83828223Y-76088223D01*
X83846401Y-76071747D01*
X83866107Y-76057132D01*
X83887150Y-76044520D01*
X83909329Y-76034030D01*
X83932428Y-76025765D01*
X83956227Y-76019804D01*
X83980495Y-76016204D01*
X84004999Y-76015000D01*
X84905001Y-76015000D01*
X84929505Y-76016204D01*
G37*
G36*
X84929505Y-73966204D02*
G01*
X84953773Y-73969804D01*
X84977572Y-73975765D01*
X85000671Y-73984030D01*
X85022850Y-73994520D01*
X85043893Y-74007132D01*
X85063599Y-74021747D01*
X85081777Y-74038223D01*
X85098253Y-74056401D01*
X85112868Y-74076107D01*
X85125480Y-74097150D01*
X85135970Y-74119329D01*
X85144235Y-74142428D01*
X85150196Y-74166227D01*
X85153796Y-74190495D01*
X85155000Y-74214999D01*
X85155000Y-74865001D01*
X85153796Y-74889505D01*
X85150196Y-74913773D01*
X85144235Y-74937572D01*
X85135970Y-74960671D01*
X85125480Y-74982850D01*
X85112868Y-75003893D01*
X85098253Y-75023599D01*
X85081777Y-75041777D01*
X85063599Y-75058253D01*
X85043893Y-75072868D01*
X85022850Y-75085480D01*
X85000671Y-75095970D01*
X84977572Y-75104235D01*
X84953773Y-75110196D01*
X84929505Y-75113796D01*
X84905001Y-75115000D01*
X84004999Y-75115000D01*
X83980495Y-75113796D01*
X83956227Y-75110196D01*
X83932428Y-75104235D01*
X83909329Y-75095970D01*
X83887150Y-75085480D01*
X83866107Y-75072868D01*
X83846401Y-75058253D01*
X83828223Y-75041777D01*
X83811747Y-75023599D01*
X83797132Y-75003893D01*
X83784520Y-74982850D01*
X83774030Y-74960671D01*
X83765765Y-74937572D01*
X83759804Y-74913773D01*
X83756204Y-74889505D01*
X83755000Y-74865001D01*
X83755000Y-74214999D01*
X83756204Y-74190495D01*
X83759804Y-74166227D01*
X83765765Y-74142428D01*
X83774030Y-74119329D01*
X83784520Y-74097150D01*
X83797132Y-74076107D01*
X83811747Y-74056401D01*
X83828223Y-74038223D01*
X83846401Y-74021747D01*
X83866107Y-74007132D01*
X83887150Y-73994520D01*
X83909329Y-73984030D01*
X83932428Y-73975765D01*
X83956227Y-73969804D01*
X83980495Y-73966204D01*
X84004999Y-73965000D01*
X84905001Y-73965000D01*
X84929505Y-73966204D01*
G37*
G36*
X165204505Y-52641204D02*
G01*
X165228773Y-52644804D01*
X165252572Y-52650765D01*
X165275671Y-52659030D01*
X165297850Y-52669520D01*
X165318893Y-52682132D01*
X165338599Y-52696747D01*
X165356777Y-52713223D01*
X165373253Y-52731401D01*
X165387868Y-52751107D01*
X165400480Y-52772150D01*
X165410970Y-52794329D01*
X165419235Y-52817428D01*
X165425196Y-52841227D01*
X165428796Y-52865495D01*
X165430000Y-52889999D01*
X165430000Y-53790001D01*
X165428796Y-53814505D01*
X165425196Y-53838773D01*
X165419235Y-53862572D01*
X165410970Y-53885671D01*
X165400480Y-53907850D01*
X165387868Y-53928893D01*
X165373253Y-53948599D01*
X165356777Y-53966777D01*
X165338599Y-53983253D01*
X165318893Y-53997868D01*
X165297850Y-54010480D01*
X165275671Y-54020970D01*
X165252572Y-54029235D01*
X165228773Y-54035196D01*
X165204505Y-54038796D01*
X165180001Y-54040000D01*
X164529999Y-54040000D01*
X164505495Y-54038796D01*
X164481227Y-54035196D01*
X164457428Y-54029235D01*
X164434329Y-54020970D01*
X164412150Y-54010480D01*
X164391107Y-53997868D01*
X164371401Y-53983253D01*
X164353223Y-53966777D01*
X164336747Y-53948599D01*
X164322132Y-53928893D01*
X164309520Y-53907850D01*
X164299030Y-53885671D01*
X164290765Y-53862572D01*
X164284804Y-53838773D01*
X164281204Y-53814505D01*
X164280000Y-53790001D01*
X164280000Y-52889999D01*
X164281204Y-52865495D01*
X164284804Y-52841227D01*
X164290765Y-52817428D01*
X164299030Y-52794329D01*
X164309520Y-52772150D01*
X164322132Y-52751107D01*
X164336747Y-52731401D01*
X164353223Y-52713223D01*
X164371401Y-52696747D01*
X164391107Y-52682132D01*
X164412150Y-52669520D01*
X164434329Y-52659030D01*
X164457428Y-52650765D01*
X164481227Y-52644804D01*
X164505495Y-52641204D01*
X164529999Y-52640000D01*
X165180001Y-52640000D01*
X165204505Y-52641204D01*
G37*
G36*
X163154505Y-52641204D02*
G01*
X163178773Y-52644804D01*
X163202572Y-52650765D01*
X163225671Y-52659030D01*
X163247850Y-52669520D01*
X163268893Y-52682132D01*
X163288599Y-52696747D01*
X163306777Y-52713223D01*
X163323253Y-52731401D01*
X163337868Y-52751107D01*
X163350480Y-52772150D01*
X163360970Y-52794329D01*
X163369235Y-52817428D01*
X163375196Y-52841227D01*
X163378796Y-52865495D01*
X163380000Y-52889999D01*
X163380000Y-53790001D01*
X163378796Y-53814505D01*
X163375196Y-53838773D01*
X163369235Y-53862572D01*
X163360970Y-53885671D01*
X163350480Y-53907850D01*
X163337868Y-53928893D01*
X163323253Y-53948599D01*
X163306777Y-53966777D01*
X163288599Y-53983253D01*
X163268893Y-53997868D01*
X163247850Y-54010480D01*
X163225671Y-54020970D01*
X163202572Y-54029235D01*
X163178773Y-54035196D01*
X163154505Y-54038796D01*
X163130001Y-54040000D01*
X162479999Y-54040000D01*
X162455495Y-54038796D01*
X162431227Y-54035196D01*
X162407428Y-54029235D01*
X162384329Y-54020970D01*
X162362150Y-54010480D01*
X162341107Y-53997868D01*
X162321401Y-53983253D01*
X162303223Y-53966777D01*
X162286747Y-53948599D01*
X162272132Y-53928893D01*
X162259520Y-53907850D01*
X162249030Y-53885671D01*
X162240765Y-53862572D01*
X162234804Y-53838773D01*
X162231204Y-53814505D01*
X162230000Y-53790001D01*
X162230000Y-52889999D01*
X162231204Y-52865495D01*
X162234804Y-52841227D01*
X162240765Y-52817428D01*
X162249030Y-52794329D01*
X162259520Y-52772150D01*
X162272132Y-52751107D01*
X162286747Y-52731401D01*
X162303223Y-52713223D01*
X162321401Y-52696747D01*
X162341107Y-52682132D01*
X162362150Y-52669520D01*
X162384329Y-52659030D01*
X162407428Y-52650765D01*
X162431227Y-52644804D01*
X162455495Y-52641204D01*
X162479999Y-52640000D01*
X163130001Y-52640000D01*
X163154505Y-52641204D01*
G37*
G36*
X165204505Y-50101204D02*
G01*
X165228773Y-50104804D01*
X165252572Y-50110765D01*
X165275671Y-50119030D01*
X165297850Y-50129520D01*
X165318893Y-50142132D01*
X165338599Y-50156747D01*
X165356777Y-50173223D01*
X165373253Y-50191401D01*
X165387868Y-50211107D01*
X165400480Y-50232150D01*
X165410970Y-50254329D01*
X165419235Y-50277428D01*
X165425196Y-50301227D01*
X165428796Y-50325495D01*
X165430000Y-50349999D01*
X165430000Y-51250001D01*
X165428796Y-51274505D01*
X165425196Y-51298773D01*
X165419235Y-51322572D01*
X165410970Y-51345671D01*
X165400480Y-51367850D01*
X165387868Y-51388893D01*
X165373253Y-51408599D01*
X165356777Y-51426777D01*
X165338599Y-51443253D01*
X165318893Y-51457868D01*
X165297850Y-51470480D01*
X165275671Y-51480970D01*
X165252572Y-51489235D01*
X165228773Y-51495196D01*
X165204505Y-51498796D01*
X165180001Y-51500000D01*
X164529999Y-51500000D01*
X164505495Y-51498796D01*
X164481227Y-51495196D01*
X164457428Y-51489235D01*
X164434329Y-51480970D01*
X164412150Y-51470480D01*
X164391107Y-51457868D01*
X164371401Y-51443253D01*
X164353223Y-51426777D01*
X164336747Y-51408599D01*
X164322132Y-51388893D01*
X164309520Y-51367850D01*
X164299030Y-51345671D01*
X164290765Y-51322572D01*
X164284804Y-51298773D01*
X164281204Y-51274505D01*
X164280000Y-51250001D01*
X164280000Y-50349999D01*
X164281204Y-50325495D01*
X164284804Y-50301227D01*
X164290765Y-50277428D01*
X164299030Y-50254329D01*
X164309520Y-50232150D01*
X164322132Y-50211107D01*
X164336747Y-50191401D01*
X164353223Y-50173223D01*
X164371401Y-50156747D01*
X164391107Y-50142132D01*
X164412150Y-50129520D01*
X164434329Y-50119030D01*
X164457428Y-50110765D01*
X164481227Y-50104804D01*
X164505495Y-50101204D01*
X164529999Y-50100000D01*
X165180001Y-50100000D01*
X165204505Y-50101204D01*
G37*
G36*
X163154505Y-50101204D02*
G01*
X163178773Y-50104804D01*
X163202572Y-50110765D01*
X163225671Y-50119030D01*
X163247850Y-50129520D01*
X163268893Y-50142132D01*
X163288599Y-50156747D01*
X163306777Y-50173223D01*
X163323253Y-50191401D01*
X163337868Y-50211107D01*
X163350480Y-50232150D01*
X163360970Y-50254329D01*
X163369235Y-50277428D01*
X163375196Y-50301227D01*
X163378796Y-50325495D01*
X163380000Y-50349999D01*
X163380000Y-51250001D01*
X163378796Y-51274505D01*
X163375196Y-51298773D01*
X163369235Y-51322572D01*
X163360970Y-51345671D01*
X163350480Y-51367850D01*
X163337868Y-51388893D01*
X163323253Y-51408599D01*
X163306777Y-51426777D01*
X163288599Y-51443253D01*
X163268893Y-51457868D01*
X163247850Y-51470480D01*
X163225671Y-51480970D01*
X163202572Y-51489235D01*
X163178773Y-51495196D01*
X163154505Y-51498796D01*
X163130001Y-51500000D01*
X162479999Y-51500000D01*
X162455495Y-51498796D01*
X162431227Y-51495196D01*
X162407428Y-51489235D01*
X162384329Y-51480970D01*
X162362150Y-51470480D01*
X162341107Y-51457868D01*
X162321401Y-51443253D01*
X162303223Y-51426777D01*
X162286747Y-51408599D01*
X162272132Y-51388893D01*
X162259520Y-51367850D01*
X162249030Y-51345671D01*
X162240765Y-51322572D01*
X162234804Y-51298773D01*
X162231204Y-51274505D01*
X162230000Y-51250001D01*
X162230000Y-50349999D01*
X162231204Y-50325495D01*
X162234804Y-50301227D01*
X162240765Y-50277428D01*
X162249030Y-50254329D01*
X162259520Y-50232150D01*
X162272132Y-50211107D01*
X162286747Y-50191401D01*
X162303223Y-50173223D01*
X162321401Y-50156747D01*
X162341107Y-50142132D01*
X162362150Y-50129520D01*
X162384329Y-50119030D01*
X162407428Y-50110765D01*
X162431227Y-50104804D01*
X162455495Y-50101204D01*
X162479999Y-50100000D01*
X163130001Y-50100000D01*
X163154505Y-50101204D01*
G37*
G36*
X98529505Y-64706204D02*
G01*
X98553773Y-64709804D01*
X98577572Y-64715765D01*
X98600671Y-64724030D01*
X98622850Y-64734520D01*
X98643893Y-64747132D01*
X98663599Y-64761747D01*
X98681777Y-64778223D01*
X98698253Y-64796401D01*
X98712868Y-64816107D01*
X98725480Y-64837150D01*
X98735970Y-64859329D01*
X98744235Y-64882428D01*
X98750196Y-64906227D01*
X98753796Y-64930495D01*
X98755000Y-64954999D01*
X98755000Y-65855001D01*
X98753796Y-65879505D01*
X98750196Y-65903773D01*
X98744235Y-65927572D01*
X98735970Y-65950671D01*
X98725480Y-65972850D01*
X98712868Y-65993893D01*
X98698253Y-66013599D01*
X98681777Y-66031777D01*
X98663599Y-66048253D01*
X98643893Y-66062868D01*
X98622850Y-66075480D01*
X98600671Y-66085970D01*
X98577572Y-66094235D01*
X98553773Y-66100196D01*
X98529505Y-66103796D01*
X98505001Y-66105000D01*
X97854999Y-66105000D01*
X97830495Y-66103796D01*
X97806227Y-66100196D01*
X97782428Y-66094235D01*
X97759329Y-66085970D01*
X97737150Y-66075480D01*
X97716107Y-66062868D01*
X97696401Y-66048253D01*
X97678223Y-66031777D01*
X97661747Y-66013599D01*
X97647132Y-65993893D01*
X97634520Y-65972850D01*
X97624030Y-65950671D01*
X97615765Y-65927572D01*
X97609804Y-65903773D01*
X97606204Y-65879505D01*
X97605000Y-65855001D01*
X97605000Y-64954999D01*
X97606204Y-64930495D01*
X97609804Y-64906227D01*
X97615765Y-64882428D01*
X97624030Y-64859329D01*
X97634520Y-64837150D01*
X97647132Y-64816107D01*
X97661747Y-64796401D01*
X97678223Y-64778223D01*
X97696401Y-64761747D01*
X97716107Y-64747132D01*
X97737150Y-64734520D01*
X97759329Y-64724030D01*
X97782428Y-64715765D01*
X97806227Y-64709804D01*
X97830495Y-64706204D01*
X97854999Y-64705000D01*
X98505001Y-64705000D01*
X98529505Y-64706204D01*
G37*
G36*
X96479505Y-64706204D02*
G01*
X96503773Y-64709804D01*
X96527572Y-64715765D01*
X96550671Y-64724030D01*
X96572850Y-64734520D01*
X96593893Y-64747132D01*
X96613599Y-64761747D01*
X96631777Y-64778223D01*
X96648253Y-64796401D01*
X96662868Y-64816107D01*
X96675480Y-64837150D01*
X96685970Y-64859329D01*
X96694235Y-64882428D01*
X96700196Y-64906227D01*
X96703796Y-64930495D01*
X96705000Y-64954999D01*
X96705000Y-65855001D01*
X96703796Y-65879505D01*
X96700196Y-65903773D01*
X96694235Y-65927572D01*
X96685970Y-65950671D01*
X96675480Y-65972850D01*
X96662868Y-65993893D01*
X96648253Y-66013599D01*
X96631777Y-66031777D01*
X96613599Y-66048253D01*
X96593893Y-66062868D01*
X96572850Y-66075480D01*
X96550671Y-66085970D01*
X96527572Y-66094235D01*
X96503773Y-66100196D01*
X96479505Y-66103796D01*
X96455001Y-66105000D01*
X95804999Y-66105000D01*
X95780495Y-66103796D01*
X95756227Y-66100196D01*
X95732428Y-66094235D01*
X95709329Y-66085970D01*
X95687150Y-66075480D01*
X95666107Y-66062868D01*
X95646401Y-66048253D01*
X95628223Y-66031777D01*
X95611747Y-66013599D01*
X95597132Y-65993893D01*
X95584520Y-65972850D01*
X95574030Y-65950671D01*
X95565765Y-65927572D01*
X95559804Y-65903773D01*
X95556204Y-65879505D01*
X95555000Y-65855001D01*
X95555000Y-64954999D01*
X95556204Y-64930495D01*
X95559804Y-64906227D01*
X95565765Y-64882428D01*
X95574030Y-64859329D01*
X95584520Y-64837150D01*
X95597132Y-64816107D01*
X95611747Y-64796401D01*
X95628223Y-64778223D01*
X95646401Y-64761747D01*
X95666107Y-64747132D01*
X95687150Y-64734520D01*
X95709329Y-64724030D01*
X95732428Y-64715765D01*
X95756227Y-64709804D01*
X95780495Y-64706204D01*
X95804999Y-64705000D01*
X96455001Y-64705000D01*
X96479505Y-64706204D01*
G37*
G36*
X98529505Y-59626204D02*
G01*
X98553773Y-59629804D01*
X98577572Y-59635765D01*
X98600671Y-59644030D01*
X98622850Y-59654520D01*
X98643893Y-59667132D01*
X98663599Y-59681747D01*
X98681777Y-59698223D01*
X98698253Y-59716401D01*
X98712868Y-59736107D01*
X98725480Y-59757150D01*
X98735970Y-59779329D01*
X98744235Y-59802428D01*
X98750196Y-59826227D01*
X98753796Y-59850495D01*
X98755000Y-59874999D01*
X98755000Y-60775001D01*
X98753796Y-60799505D01*
X98750196Y-60823773D01*
X98744235Y-60847572D01*
X98735970Y-60870671D01*
X98725480Y-60892850D01*
X98712868Y-60913893D01*
X98698253Y-60933599D01*
X98681777Y-60951777D01*
X98663599Y-60968253D01*
X98643893Y-60982868D01*
X98622850Y-60995480D01*
X98600671Y-61005970D01*
X98577572Y-61014235D01*
X98553773Y-61020196D01*
X98529505Y-61023796D01*
X98505001Y-61025000D01*
X97854999Y-61025000D01*
X97830495Y-61023796D01*
X97806227Y-61020196D01*
X97782428Y-61014235D01*
X97759329Y-61005970D01*
X97737150Y-60995480D01*
X97716107Y-60982868D01*
X97696401Y-60968253D01*
X97678223Y-60951777D01*
X97661747Y-60933599D01*
X97647132Y-60913893D01*
X97634520Y-60892850D01*
X97624030Y-60870671D01*
X97615765Y-60847572D01*
X97609804Y-60823773D01*
X97606204Y-60799505D01*
X97605000Y-60775001D01*
X97605000Y-59874999D01*
X97606204Y-59850495D01*
X97609804Y-59826227D01*
X97615765Y-59802428D01*
X97624030Y-59779329D01*
X97634520Y-59757150D01*
X97647132Y-59736107D01*
X97661747Y-59716401D01*
X97678223Y-59698223D01*
X97696401Y-59681747D01*
X97716107Y-59667132D01*
X97737150Y-59654520D01*
X97759329Y-59644030D01*
X97782428Y-59635765D01*
X97806227Y-59629804D01*
X97830495Y-59626204D01*
X97854999Y-59625000D01*
X98505001Y-59625000D01*
X98529505Y-59626204D01*
G37*
G36*
X96479505Y-59626204D02*
G01*
X96503773Y-59629804D01*
X96527572Y-59635765D01*
X96550671Y-59644030D01*
X96572850Y-59654520D01*
X96593893Y-59667132D01*
X96613599Y-59681747D01*
X96631777Y-59698223D01*
X96648253Y-59716401D01*
X96662868Y-59736107D01*
X96675480Y-59757150D01*
X96685970Y-59779329D01*
X96694235Y-59802428D01*
X96700196Y-59826227D01*
X96703796Y-59850495D01*
X96705000Y-59874999D01*
X96705000Y-60775001D01*
X96703796Y-60799505D01*
X96700196Y-60823773D01*
X96694235Y-60847572D01*
X96685970Y-60870671D01*
X96675480Y-60892850D01*
X96662868Y-60913893D01*
X96648253Y-60933599D01*
X96631777Y-60951777D01*
X96613599Y-60968253D01*
X96593893Y-60982868D01*
X96572850Y-60995480D01*
X96550671Y-61005970D01*
X96527572Y-61014235D01*
X96503773Y-61020196D01*
X96479505Y-61023796D01*
X96455001Y-61025000D01*
X95804999Y-61025000D01*
X95780495Y-61023796D01*
X95756227Y-61020196D01*
X95732428Y-61014235D01*
X95709329Y-61005970D01*
X95687150Y-60995480D01*
X95666107Y-60982868D01*
X95646401Y-60968253D01*
X95628223Y-60951777D01*
X95611747Y-60933599D01*
X95597132Y-60913893D01*
X95584520Y-60892850D01*
X95574030Y-60870671D01*
X95565765Y-60847572D01*
X95559804Y-60823773D01*
X95556204Y-60799505D01*
X95555000Y-60775001D01*
X95555000Y-59874999D01*
X95556204Y-59850495D01*
X95559804Y-59826227D01*
X95565765Y-59802428D01*
X95574030Y-59779329D01*
X95584520Y-59757150D01*
X95597132Y-59736107D01*
X95611747Y-59716401D01*
X95628223Y-59698223D01*
X95646401Y-59681747D01*
X95666107Y-59667132D01*
X95687150Y-59654520D01*
X95709329Y-59644030D01*
X95732428Y-59635765D01*
X95756227Y-59629804D01*
X95780495Y-59626204D01*
X95804999Y-59625000D01*
X96455001Y-59625000D01*
X96479505Y-59626204D01*
G37*
G36*
X98529505Y-54546204D02*
G01*
X98553773Y-54549804D01*
X98577572Y-54555765D01*
X98600671Y-54564030D01*
X98622850Y-54574520D01*
X98643893Y-54587132D01*
X98663599Y-54601747D01*
X98681777Y-54618223D01*
X98698253Y-54636401D01*
X98712868Y-54656107D01*
X98725480Y-54677150D01*
X98735970Y-54699329D01*
X98744235Y-54722428D01*
X98750196Y-54746227D01*
X98753796Y-54770495D01*
X98755000Y-54794999D01*
X98755000Y-55695001D01*
X98753796Y-55719505D01*
X98750196Y-55743773D01*
X98744235Y-55767572D01*
X98735970Y-55790671D01*
X98725480Y-55812850D01*
X98712868Y-55833893D01*
X98698253Y-55853599D01*
X98681777Y-55871777D01*
X98663599Y-55888253D01*
X98643893Y-55902868D01*
X98622850Y-55915480D01*
X98600671Y-55925970D01*
X98577572Y-55934235D01*
X98553773Y-55940196D01*
X98529505Y-55943796D01*
X98505001Y-55945000D01*
X97854999Y-55945000D01*
X97830495Y-55943796D01*
X97806227Y-55940196D01*
X97782428Y-55934235D01*
X97759329Y-55925970D01*
X97737150Y-55915480D01*
X97716107Y-55902868D01*
X97696401Y-55888253D01*
X97678223Y-55871777D01*
X97661747Y-55853599D01*
X97647132Y-55833893D01*
X97634520Y-55812850D01*
X97624030Y-55790671D01*
X97615765Y-55767572D01*
X97609804Y-55743773D01*
X97606204Y-55719505D01*
X97605000Y-55695001D01*
X97605000Y-54794999D01*
X97606204Y-54770495D01*
X97609804Y-54746227D01*
X97615765Y-54722428D01*
X97624030Y-54699329D01*
X97634520Y-54677150D01*
X97647132Y-54656107D01*
X97661747Y-54636401D01*
X97678223Y-54618223D01*
X97696401Y-54601747D01*
X97716107Y-54587132D01*
X97737150Y-54574520D01*
X97759329Y-54564030D01*
X97782428Y-54555765D01*
X97806227Y-54549804D01*
X97830495Y-54546204D01*
X97854999Y-54545000D01*
X98505001Y-54545000D01*
X98529505Y-54546204D01*
G37*
G36*
X96479505Y-54546204D02*
G01*
X96503773Y-54549804D01*
X96527572Y-54555765D01*
X96550671Y-54564030D01*
X96572850Y-54574520D01*
X96593893Y-54587132D01*
X96613599Y-54601747D01*
X96631777Y-54618223D01*
X96648253Y-54636401D01*
X96662868Y-54656107D01*
X96675480Y-54677150D01*
X96685970Y-54699329D01*
X96694235Y-54722428D01*
X96700196Y-54746227D01*
X96703796Y-54770495D01*
X96705000Y-54794999D01*
X96705000Y-55695001D01*
X96703796Y-55719505D01*
X96700196Y-55743773D01*
X96694235Y-55767572D01*
X96685970Y-55790671D01*
X96675480Y-55812850D01*
X96662868Y-55833893D01*
X96648253Y-55853599D01*
X96631777Y-55871777D01*
X96613599Y-55888253D01*
X96593893Y-55902868D01*
X96572850Y-55915480D01*
X96550671Y-55925970D01*
X96527572Y-55934235D01*
X96503773Y-55940196D01*
X96479505Y-55943796D01*
X96455001Y-55945000D01*
X95804999Y-55945000D01*
X95780495Y-55943796D01*
X95756227Y-55940196D01*
X95732428Y-55934235D01*
X95709329Y-55925970D01*
X95687150Y-55915480D01*
X95666107Y-55902868D01*
X95646401Y-55888253D01*
X95628223Y-55871777D01*
X95611747Y-55853599D01*
X95597132Y-55833893D01*
X95584520Y-55812850D01*
X95574030Y-55790671D01*
X95565765Y-55767572D01*
X95559804Y-55743773D01*
X95556204Y-55719505D01*
X95555000Y-55695001D01*
X95555000Y-54794999D01*
X95556204Y-54770495D01*
X95559804Y-54746227D01*
X95565765Y-54722428D01*
X95574030Y-54699329D01*
X95584520Y-54677150D01*
X95597132Y-54656107D01*
X95611747Y-54636401D01*
X95628223Y-54618223D01*
X95646401Y-54601747D01*
X95666107Y-54587132D01*
X95687150Y-54574520D01*
X95709329Y-54564030D01*
X95732428Y-54555765D01*
X95756227Y-54549804D01*
X95780495Y-54546204D01*
X95804999Y-54545000D01*
X96455001Y-54545000D01*
X96479505Y-54546204D01*
G37*
G36*
X98529505Y-57086204D02*
G01*
X98553773Y-57089804D01*
X98577572Y-57095765D01*
X98600671Y-57104030D01*
X98622850Y-57114520D01*
X98643893Y-57127132D01*
X98663599Y-57141747D01*
X98681777Y-57158223D01*
X98698253Y-57176401D01*
X98712868Y-57196107D01*
X98725480Y-57217150D01*
X98735970Y-57239329D01*
X98744235Y-57262428D01*
X98750196Y-57286227D01*
X98753796Y-57310495D01*
X98755000Y-57334999D01*
X98755000Y-58235001D01*
X98753796Y-58259505D01*
X98750196Y-58283773D01*
X98744235Y-58307572D01*
X98735970Y-58330671D01*
X98725480Y-58352850D01*
X98712868Y-58373893D01*
X98698253Y-58393599D01*
X98681777Y-58411777D01*
X98663599Y-58428253D01*
X98643893Y-58442868D01*
X98622850Y-58455480D01*
X98600671Y-58465970D01*
X98577572Y-58474235D01*
X98553773Y-58480196D01*
X98529505Y-58483796D01*
X98505001Y-58485000D01*
X97854999Y-58485000D01*
X97830495Y-58483796D01*
X97806227Y-58480196D01*
X97782428Y-58474235D01*
X97759329Y-58465970D01*
X97737150Y-58455480D01*
X97716107Y-58442868D01*
X97696401Y-58428253D01*
X97678223Y-58411777D01*
X97661747Y-58393599D01*
X97647132Y-58373893D01*
X97634520Y-58352850D01*
X97624030Y-58330671D01*
X97615765Y-58307572D01*
X97609804Y-58283773D01*
X97606204Y-58259505D01*
X97605000Y-58235001D01*
X97605000Y-57334999D01*
X97606204Y-57310495D01*
X97609804Y-57286227D01*
X97615765Y-57262428D01*
X97624030Y-57239329D01*
X97634520Y-57217150D01*
X97647132Y-57196107D01*
X97661747Y-57176401D01*
X97678223Y-57158223D01*
X97696401Y-57141747D01*
X97716107Y-57127132D01*
X97737150Y-57114520D01*
X97759329Y-57104030D01*
X97782428Y-57095765D01*
X97806227Y-57089804D01*
X97830495Y-57086204D01*
X97854999Y-57085000D01*
X98505001Y-57085000D01*
X98529505Y-57086204D01*
G37*
G36*
X96479505Y-57086204D02*
G01*
X96503773Y-57089804D01*
X96527572Y-57095765D01*
X96550671Y-57104030D01*
X96572850Y-57114520D01*
X96593893Y-57127132D01*
X96613599Y-57141747D01*
X96631777Y-57158223D01*
X96648253Y-57176401D01*
X96662868Y-57196107D01*
X96675480Y-57217150D01*
X96685970Y-57239329D01*
X96694235Y-57262428D01*
X96700196Y-57286227D01*
X96703796Y-57310495D01*
X96705000Y-57334999D01*
X96705000Y-58235001D01*
X96703796Y-58259505D01*
X96700196Y-58283773D01*
X96694235Y-58307572D01*
X96685970Y-58330671D01*
X96675480Y-58352850D01*
X96662868Y-58373893D01*
X96648253Y-58393599D01*
X96631777Y-58411777D01*
X96613599Y-58428253D01*
X96593893Y-58442868D01*
X96572850Y-58455480D01*
X96550671Y-58465970D01*
X96527572Y-58474235D01*
X96503773Y-58480196D01*
X96479505Y-58483796D01*
X96455001Y-58485000D01*
X95804999Y-58485000D01*
X95780495Y-58483796D01*
X95756227Y-58480196D01*
X95732428Y-58474235D01*
X95709329Y-58465970D01*
X95687150Y-58455480D01*
X95666107Y-58442868D01*
X95646401Y-58428253D01*
X95628223Y-58411777D01*
X95611747Y-58393599D01*
X95597132Y-58373893D01*
X95584520Y-58352850D01*
X95574030Y-58330671D01*
X95565765Y-58307572D01*
X95559804Y-58283773D01*
X95556204Y-58259505D01*
X95555000Y-58235001D01*
X95555000Y-57334999D01*
X95556204Y-57310495D01*
X95559804Y-57286227D01*
X95565765Y-57262428D01*
X95574030Y-57239329D01*
X95584520Y-57217150D01*
X95597132Y-57196107D01*
X95611747Y-57176401D01*
X95628223Y-57158223D01*
X95646401Y-57141747D01*
X95666107Y-57127132D01*
X95687150Y-57114520D01*
X95709329Y-57104030D01*
X95732428Y-57095765D01*
X95756227Y-57089804D01*
X95780495Y-57086204D01*
X95804999Y-57085000D01*
X96455001Y-57085000D01*
X96479505Y-57086204D01*
G37*
G36*
X96479505Y-62166204D02*
G01*
X96503773Y-62169804D01*
X96527572Y-62175765D01*
X96550671Y-62184030D01*
X96572850Y-62194520D01*
X96593893Y-62207132D01*
X96613599Y-62221747D01*
X96631777Y-62238223D01*
X96648253Y-62256401D01*
X96662868Y-62276107D01*
X96675480Y-62297150D01*
X96685970Y-62319329D01*
X96694235Y-62342428D01*
X96700196Y-62366227D01*
X96703796Y-62390495D01*
X96705000Y-62414999D01*
X96705000Y-63315001D01*
X96703796Y-63339505D01*
X96700196Y-63363773D01*
X96694235Y-63387572D01*
X96685970Y-63410671D01*
X96675480Y-63432850D01*
X96662868Y-63453893D01*
X96648253Y-63473599D01*
X96631777Y-63491777D01*
X96613599Y-63508253D01*
X96593893Y-63522868D01*
X96572850Y-63535480D01*
X96550671Y-63545970D01*
X96527572Y-63554235D01*
X96503773Y-63560196D01*
X96479505Y-63563796D01*
X96455001Y-63565000D01*
X95804999Y-63565000D01*
X95780495Y-63563796D01*
X95756227Y-63560196D01*
X95732428Y-63554235D01*
X95709329Y-63545970D01*
X95687150Y-63535480D01*
X95666107Y-63522868D01*
X95646401Y-63508253D01*
X95628223Y-63491777D01*
X95611747Y-63473599D01*
X95597132Y-63453893D01*
X95584520Y-63432850D01*
X95574030Y-63410671D01*
X95565765Y-63387572D01*
X95559804Y-63363773D01*
X95556204Y-63339505D01*
X95555000Y-63315001D01*
X95555000Y-62414999D01*
X95556204Y-62390495D01*
X95559804Y-62366227D01*
X95565765Y-62342428D01*
X95574030Y-62319329D01*
X95584520Y-62297150D01*
X95597132Y-62276107D01*
X95611747Y-62256401D01*
X95628223Y-62238223D01*
X95646401Y-62221747D01*
X95666107Y-62207132D01*
X95687150Y-62194520D01*
X95709329Y-62184030D01*
X95732428Y-62175765D01*
X95756227Y-62169804D01*
X95780495Y-62166204D01*
X95804999Y-62165000D01*
X96455001Y-62165000D01*
X96479505Y-62166204D01*
G37*
G36*
X98529505Y-62166204D02*
G01*
X98553773Y-62169804D01*
X98577572Y-62175765D01*
X98600671Y-62184030D01*
X98622850Y-62194520D01*
X98643893Y-62207132D01*
X98663599Y-62221747D01*
X98681777Y-62238223D01*
X98698253Y-62256401D01*
X98712868Y-62276107D01*
X98725480Y-62297150D01*
X98735970Y-62319329D01*
X98744235Y-62342428D01*
X98750196Y-62366227D01*
X98753796Y-62390495D01*
X98755000Y-62414999D01*
X98755000Y-63315001D01*
X98753796Y-63339505D01*
X98750196Y-63363773D01*
X98744235Y-63387572D01*
X98735970Y-63410671D01*
X98725480Y-63432850D01*
X98712868Y-63453893D01*
X98698253Y-63473599D01*
X98681777Y-63491777D01*
X98663599Y-63508253D01*
X98643893Y-63522868D01*
X98622850Y-63535480D01*
X98600671Y-63545970D01*
X98577572Y-63554235D01*
X98553773Y-63560196D01*
X98529505Y-63563796D01*
X98505001Y-63565000D01*
X97854999Y-63565000D01*
X97830495Y-63563796D01*
X97806227Y-63560196D01*
X97782428Y-63554235D01*
X97759329Y-63545970D01*
X97737150Y-63535480D01*
X97716107Y-63522868D01*
X97696401Y-63508253D01*
X97678223Y-63491777D01*
X97661747Y-63473599D01*
X97647132Y-63453893D01*
X97634520Y-63432850D01*
X97624030Y-63410671D01*
X97615765Y-63387572D01*
X97609804Y-63363773D01*
X97606204Y-63339505D01*
X97605000Y-63315001D01*
X97605000Y-62414999D01*
X97606204Y-62390495D01*
X97609804Y-62366227D01*
X97615765Y-62342428D01*
X97624030Y-62319329D01*
X97634520Y-62297150D01*
X97647132Y-62276107D01*
X97661747Y-62256401D01*
X97678223Y-62238223D01*
X97696401Y-62221747D01*
X97716107Y-62207132D01*
X97737150Y-62194520D01*
X97759329Y-62184030D01*
X97782428Y-62175765D01*
X97806227Y-62169804D01*
X97830495Y-62166204D01*
X97854999Y-62165000D01*
X98505001Y-62165000D01*
X98529505Y-62166204D01*
G37*
G36*
X124934505Y-47051204D02*
G01*
X124958773Y-47054804D01*
X124982572Y-47060765D01*
X125005671Y-47069030D01*
X125027850Y-47079520D01*
X125048893Y-47092132D01*
X125068599Y-47106747D01*
X125086777Y-47123223D01*
X125103253Y-47141401D01*
X125117868Y-47161107D01*
X125130480Y-47182150D01*
X125140970Y-47204329D01*
X125149235Y-47227428D01*
X125155196Y-47251227D01*
X125158796Y-47275495D01*
X125160000Y-47299999D01*
X125160000Y-47950001D01*
X125158796Y-47974505D01*
X125155196Y-47998773D01*
X125149235Y-48022572D01*
X125140970Y-48045671D01*
X125130480Y-48067850D01*
X125117868Y-48088893D01*
X125103253Y-48108599D01*
X125086777Y-48126777D01*
X125068599Y-48143253D01*
X125048893Y-48157868D01*
X125027850Y-48170480D01*
X125005671Y-48180970D01*
X124982572Y-48189235D01*
X124958773Y-48195196D01*
X124934505Y-48198796D01*
X124910001Y-48200000D01*
X124009999Y-48200000D01*
X123985495Y-48198796D01*
X123961227Y-48195196D01*
X123937428Y-48189235D01*
X123914329Y-48180970D01*
X123892150Y-48170480D01*
X123871107Y-48157868D01*
X123851401Y-48143253D01*
X123833223Y-48126777D01*
X123816747Y-48108599D01*
X123802132Y-48088893D01*
X123789520Y-48067850D01*
X123779030Y-48045671D01*
X123770765Y-48022572D01*
X123764804Y-47998773D01*
X123761204Y-47974505D01*
X123760000Y-47950001D01*
X123760000Y-47299999D01*
X123761204Y-47275495D01*
X123764804Y-47251227D01*
X123770765Y-47227428D01*
X123779030Y-47204329D01*
X123789520Y-47182150D01*
X123802132Y-47161107D01*
X123816747Y-47141401D01*
X123833223Y-47123223D01*
X123851401Y-47106747D01*
X123871107Y-47092132D01*
X123892150Y-47079520D01*
X123914329Y-47069030D01*
X123937428Y-47060765D01*
X123961227Y-47054804D01*
X123985495Y-47051204D01*
X124009999Y-47050000D01*
X124910001Y-47050000D01*
X124934505Y-47051204D01*
G37*
G36*
X124934505Y-49101204D02*
G01*
X124958773Y-49104804D01*
X124982572Y-49110765D01*
X125005671Y-49119030D01*
X125027850Y-49129520D01*
X125048893Y-49142132D01*
X125068599Y-49156747D01*
X125086777Y-49173223D01*
X125103253Y-49191401D01*
X125117868Y-49211107D01*
X125130480Y-49232150D01*
X125140970Y-49254329D01*
X125149235Y-49277428D01*
X125155196Y-49301227D01*
X125158796Y-49325495D01*
X125160000Y-49349999D01*
X125160000Y-50000001D01*
X125158796Y-50024505D01*
X125155196Y-50048773D01*
X125149235Y-50072572D01*
X125140970Y-50095671D01*
X125130480Y-50117850D01*
X125117868Y-50138893D01*
X125103253Y-50158599D01*
X125086777Y-50176777D01*
X125068599Y-50193253D01*
X125048893Y-50207868D01*
X125027850Y-50220480D01*
X125005671Y-50230970D01*
X124982572Y-50239235D01*
X124958773Y-50245196D01*
X124934505Y-50248796D01*
X124910001Y-50250000D01*
X124009999Y-50250000D01*
X123985495Y-50248796D01*
X123961227Y-50245196D01*
X123937428Y-50239235D01*
X123914329Y-50230970D01*
X123892150Y-50220480D01*
X123871107Y-50207868D01*
X123851401Y-50193253D01*
X123833223Y-50176777D01*
X123816747Y-50158599D01*
X123802132Y-50138893D01*
X123789520Y-50117850D01*
X123779030Y-50095671D01*
X123770765Y-50072572D01*
X123764804Y-50048773D01*
X123761204Y-50024505D01*
X123760000Y-50000001D01*
X123760000Y-49349999D01*
X123761204Y-49325495D01*
X123764804Y-49301227D01*
X123770765Y-49277428D01*
X123779030Y-49254329D01*
X123789520Y-49232150D01*
X123802132Y-49211107D01*
X123816747Y-49191401D01*
X123833223Y-49173223D01*
X123851401Y-49156747D01*
X123871107Y-49142132D01*
X123892150Y-49129520D01*
X123914329Y-49119030D01*
X123937428Y-49110765D01*
X123961227Y-49104804D01*
X123985495Y-49101204D01*
X124009999Y-49100000D01*
X124910001Y-49100000D01*
X124934505Y-49101204D01*
G37*
G36*
X104099505Y-105506204D02*
G01*
X104123773Y-105509804D01*
X104147572Y-105515765D01*
X104170671Y-105524030D01*
X104192850Y-105534520D01*
X104213893Y-105547132D01*
X104233599Y-105561747D01*
X104251777Y-105578223D01*
X104268253Y-105596401D01*
X104282868Y-105616107D01*
X104295480Y-105637150D01*
X104305970Y-105659329D01*
X104314235Y-105682428D01*
X104320196Y-105706227D01*
X104323796Y-105730495D01*
X104325000Y-105754999D01*
X104325000Y-107180001D01*
X104323796Y-107204505D01*
X104320196Y-107228773D01*
X104314235Y-107252572D01*
X104305970Y-107275671D01*
X104295480Y-107297850D01*
X104282868Y-107318893D01*
X104268253Y-107338599D01*
X104251777Y-107356777D01*
X104233599Y-107373253D01*
X104213893Y-107387868D01*
X104192850Y-107400480D01*
X104170671Y-107410970D01*
X104147572Y-107419235D01*
X104123773Y-107425196D01*
X104099505Y-107428796D01*
X104075001Y-107430000D01*
X99124999Y-107430000D01*
X99100495Y-107428796D01*
X99076227Y-107425196D01*
X99052428Y-107419235D01*
X99029329Y-107410970D01*
X99007150Y-107400480D01*
X98986107Y-107387868D01*
X98966401Y-107373253D01*
X98948223Y-107356777D01*
X98931747Y-107338599D01*
X98917132Y-107318893D01*
X98904520Y-107297850D01*
X98894030Y-107275671D01*
X98885765Y-107252572D01*
X98879804Y-107228773D01*
X98876204Y-107204505D01*
X98875000Y-107180001D01*
X98875000Y-105754999D01*
X98876204Y-105730495D01*
X98879804Y-105706227D01*
X98885765Y-105682428D01*
X98894030Y-105659329D01*
X98904520Y-105637150D01*
X98917132Y-105616107D01*
X98931747Y-105596401D01*
X98948223Y-105578223D01*
X98966401Y-105561747D01*
X98986107Y-105547132D01*
X99007150Y-105534520D01*
X99029329Y-105524030D01*
X99052428Y-105515765D01*
X99076227Y-105509804D01*
X99100495Y-105506204D01*
X99124999Y-105505000D01*
X104075001Y-105505000D01*
X104099505Y-105506204D01*
G37*
G36*
X104099505Y-112281204D02*
G01*
X104123773Y-112284804D01*
X104147572Y-112290765D01*
X104170671Y-112299030D01*
X104192850Y-112309520D01*
X104213893Y-112322132D01*
X104233599Y-112336747D01*
X104251777Y-112353223D01*
X104268253Y-112371401D01*
X104282868Y-112391107D01*
X104295480Y-112412150D01*
X104305970Y-112434329D01*
X104314235Y-112457428D01*
X104320196Y-112481227D01*
X104323796Y-112505495D01*
X104325000Y-112529999D01*
X104325000Y-113955001D01*
X104323796Y-113979505D01*
X104320196Y-114003773D01*
X104314235Y-114027572D01*
X104305970Y-114050671D01*
X104295480Y-114072850D01*
X104282868Y-114093893D01*
X104268253Y-114113599D01*
X104251777Y-114131777D01*
X104233599Y-114148253D01*
X104213893Y-114162868D01*
X104192850Y-114175480D01*
X104170671Y-114185970D01*
X104147572Y-114194235D01*
X104123773Y-114200196D01*
X104099505Y-114203796D01*
X104075001Y-114205000D01*
X99124999Y-114205000D01*
X99100495Y-114203796D01*
X99076227Y-114200196D01*
X99052428Y-114194235D01*
X99029329Y-114185970D01*
X99007150Y-114175480D01*
X98986107Y-114162868D01*
X98966401Y-114148253D01*
X98948223Y-114131777D01*
X98931747Y-114113599D01*
X98917132Y-114093893D01*
X98904520Y-114072850D01*
X98894030Y-114050671D01*
X98885765Y-114027572D01*
X98879804Y-114003773D01*
X98876204Y-113979505D01*
X98875000Y-113955001D01*
X98875000Y-112529999D01*
X98876204Y-112505495D01*
X98879804Y-112481227D01*
X98885765Y-112457428D01*
X98894030Y-112434329D01*
X98904520Y-112412150D01*
X98917132Y-112391107D01*
X98931747Y-112371401D01*
X98948223Y-112353223D01*
X98966401Y-112336747D01*
X98986107Y-112322132D01*
X99007150Y-112309520D01*
X99029329Y-112299030D01*
X99052428Y-112290765D01*
X99076227Y-112284804D01*
X99100495Y-112281204D01*
X99124999Y-112280000D01*
X104075001Y-112280000D01*
X104099505Y-112281204D01*
G37*
D22*
X92515000Y-106305000D03*
X96615000Y-106305000D03*
X96615000Y-100605000D03*
X92515000Y-100605000D03*
D10*
G36*
X202480142Y-52076174D02*
G01*
X202503803Y-52079684D01*
X202527007Y-52085496D01*
X202549529Y-52093554D01*
X202571153Y-52103782D01*
X202591670Y-52116079D01*
X202610883Y-52130329D01*
X202628607Y-52146393D01*
X202644671Y-52164117D01*
X202658921Y-52183330D01*
X202671218Y-52203847D01*
X202681446Y-52225471D01*
X202689504Y-52247993D01*
X202695316Y-52271197D01*
X202698826Y-52294858D01*
X202700000Y-52318750D01*
X202700000Y-52806250D01*
X202698826Y-52830142D01*
X202695316Y-52853803D01*
X202689504Y-52877007D01*
X202681446Y-52899529D01*
X202671218Y-52921153D01*
X202658921Y-52941670D01*
X202644671Y-52960883D01*
X202628607Y-52978607D01*
X202610883Y-52994671D01*
X202591670Y-53008921D01*
X202571153Y-53021218D01*
X202549529Y-53031446D01*
X202527007Y-53039504D01*
X202503803Y-53045316D01*
X202480142Y-53048826D01*
X202456250Y-53050000D01*
X201543750Y-53050000D01*
X201519858Y-53048826D01*
X201496197Y-53045316D01*
X201472993Y-53039504D01*
X201450471Y-53031446D01*
X201428847Y-53021218D01*
X201408330Y-53008921D01*
X201389117Y-52994671D01*
X201371393Y-52978607D01*
X201355329Y-52960883D01*
X201341079Y-52941670D01*
X201328782Y-52921153D01*
X201318554Y-52899529D01*
X201310496Y-52877007D01*
X201304684Y-52853803D01*
X201301174Y-52830142D01*
X201300000Y-52806250D01*
X201300000Y-52318750D01*
X201301174Y-52294858D01*
X201304684Y-52271197D01*
X201310496Y-52247993D01*
X201318554Y-52225471D01*
X201328782Y-52203847D01*
X201341079Y-52183330D01*
X201355329Y-52164117D01*
X201371393Y-52146393D01*
X201389117Y-52130329D01*
X201408330Y-52116079D01*
X201428847Y-52103782D01*
X201450471Y-52093554D01*
X201472993Y-52085496D01*
X201496197Y-52079684D01*
X201519858Y-52076174D01*
X201543750Y-52075000D01*
X202456250Y-52075000D01*
X202480142Y-52076174D01*
G37*
G36*
X202480142Y-53951174D02*
G01*
X202503803Y-53954684D01*
X202527007Y-53960496D01*
X202549529Y-53968554D01*
X202571153Y-53978782D01*
X202591670Y-53991079D01*
X202610883Y-54005329D01*
X202628607Y-54021393D01*
X202644671Y-54039117D01*
X202658921Y-54058330D01*
X202671218Y-54078847D01*
X202681446Y-54100471D01*
X202689504Y-54122993D01*
X202695316Y-54146197D01*
X202698826Y-54169858D01*
X202700000Y-54193750D01*
X202700000Y-54681250D01*
X202698826Y-54705142D01*
X202695316Y-54728803D01*
X202689504Y-54752007D01*
X202681446Y-54774529D01*
X202671218Y-54796153D01*
X202658921Y-54816670D01*
X202644671Y-54835883D01*
X202628607Y-54853607D01*
X202610883Y-54869671D01*
X202591670Y-54883921D01*
X202571153Y-54896218D01*
X202549529Y-54906446D01*
X202527007Y-54914504D01*
X202503803Y-54920316D01*
X202480142Y-54923826D01*
X202456250Y-54925000D01*
X201543750Y-54925000D01*
X201519858Y-54923826D01*
X201496197Y-54920316D01*
X201472993Y-54914504D01*
X201450471Y-54906446D01*
X201428847Y-54896218D01*
X201408330Y-54883921D01*
X201389117Y-54869671D01*
X201371393Y-54853607D01*
X201355329Y-54835883D01*
X201341079Y-54816670D01*
X201328782Y-54796153D01*
X201318554Y-54774529D01*
X201310496Y-54752007D01*
X201304684Y-54728803D01*
X201301174Y-54705142D01*
X201300000Y-54681250D01*
X201300000Y-54193750D01*
X201301174Y-54169858D01*
X201304684Y-54146197D01*
X201310496Y-54122993D01*
X201318554Y-54100471D01*
X201328782Y-54078847D01*
X201341079Y-54058330D01*
X201355329Y-54039117D01*
X201371393Y-54021393D01*
X201389117Y-54005329D01*
X201408330Y-53991079D01*
X201428847Y-53978782D01*
X201450471Y-53968554D01*
X201472993Y-53960496D01*
X201496197Y-53954684D01*
X201519858Y-53951174D01*
X201543750Y-53950000D01*
X202456250Y-53950000D01*
X202480142Y-53951174D01*
G37*
G36*
X195480142Y-47076174D02*
G01*
X195503803Y-47079684D01*
X195527007Y-47085496D01*
X195549529Y-47093554D01*
X195571153Y-47103782D01*
X195591670Y-47116079D01*
X195610883Y-47130329D01*
X195628607Y-47146393D01*
X195644671Y-47164117D01*
X195658921Y-47183330D01*
X195671218Y-47203847D01*
X195681446Y-47225471D01*
X195689504Y-47247993D01*
X195695316Y-47271197D01*
X195698826Y-47294858D01*
X195700000Y-47318750D01*
X195700000Y-47806250D01*
X195698826Y-47830142D01*
X195695316Y-47853803D01*
X195689504Y-47877007D01*
X195681446Y-47899529D01*
X195671218Y-47921153D01*
X195658921Y-47941670D01*
X195644671Y-47960883D01*
X195628607Y-47978607D01*
X195610883Y-47994671D01*
X195591670Y-48008921D01*
X195571153Y-48021218D01*
X195549529Y-48031446D01*
X195527007Y-48039504D01*
X195503803Y-48045316D01*
X195480142Y-48048826D01*
X195456250Y-48050000D01*
X194543750Y-48050000D01*
X194519858Y-48048826D01*
X194496197Y-48045316D01*
X194472993Y-48039504D01*
X194450471Y-48031446D01*
X194428847Y-48021218D01*
X194408330Y-48008921D01*
X194389117Y-47994671D01*
X194371393Y-47978607D01*
X194355329Y-47960883D01*
X194341079Y-47941670D01*
X194328782Y-47921153D01*
X194318554Y-47899529D01*
X194310496Y-47877007D01*
X194304684Y-47853803D01*
X194301174Y-47830142D01*
X194300000Y-47806250D01*
X194300000Y-47318750D01*
X194301174Y-47294858D01*
X194304684Y-47271197D01*
X194310496Y-47247993D01*
X194318554Y-47225471D01*
X194328782Y-47203847D01*
X194341079Y-47183330D01*
X194355329Y-47164117D01*
X194371393Y-47146393D01*
X194389117Y-47130329D01*
X194408330Y-47116079D01*
X194428847Y-47103782D01*
X194450471Y-47093554D01*
X194472993Y-47085496D01*
X194496197Y-47079684D01*
X194519858Y-47076174D01*
X194543750Y-47075000D01*
X195456250Y-47075000D01*
X195480142Y-47076174D01*
G37*
G36*
X195480142Y-48951174D02*
G01*
X195503803Y-48954684D01*
X195527007Y-48960496D01*
X195549529Y-48968554D01*
X195571153Y-48978782D01*
X195591670Y-48991079D01*
X195610883Y-49005329D01*
X195628607Y-49021393D01*
X195644671Y-49039117D01*
X195658921Y-49058330D01*
X195671218Y-49078847D01*
X195681446Y-49100471D01*
X195689504Y-49122993D01*
X195695316Y-49146197D01*
X195698826Y-49169858D01*
X195700000Y-49193750D01*
X195700000Y-49681250D01*
X195698826Y-49705142D01*
X195695316Y-49728803D01*
X195689504Y-49752007D01*
X195681446Y-49774529D01*
X195671218Y-49796153D01*
X195658921Y-49816670D01*
X195644671Y-49835883D01*
X195628607Y-49853607D01*
X195610883Y-49869671D01*
X195591670Y-49883921D01*
X195571153Y-49896218D01*
X195549529Y-49906446D01*
X195527007Y-49914504D01*
X195503803Y-49920316D01*
X195480142Y-49923826D01*
X195456250Y-49925000D01*
X194543750Y-49925000D01*
X194519858Y-49923826D01*
X194496197Y-49920316D01*
X194472993Y-49914504D01*
X194450471Y-49906446D01*
X194428847Y-49896218D01*
X194408330Y-49883921D01*
X194389117Y-49869671D01*
X194371393Y-49853607D01*
X194355329Y-49835883D01*
X194341079Y-49816670D01*
X194328782Y-49796153D01*
X194318554Y-49774529D01*
X194310496Y-49752007D01*
X194304684Y-49728803D01*
X194301174Y-49705142D01*
X194300000Y-49681250D01*
X194300000Y-49193750D01*
X194301174Y-49169858D01*
X194304684Y-49146197D01*
X194310496Y-49122993D01*
X194318554Y-49100471D01*
X194328782Y-49078847D01*
X194341079Y-49058330D01*
X194355329Y-49039117D01*
X194371393Y-49021393D01*
X194389117Y-49005329D01*
X194408330Y-48991079D01*
X194428847Y-48978782D01*
X194450471Y-48968554D01*
X194472993Y-48960496D01*
X194496197Y-48954684D01*
X194519858Y-48951174D01*
X194543750Y-48950000D01*
X195456250Y-48950000D01*
X195480142Y-48951174D01*
G37*
G36*
X202480142Y-47076174D02*
G01*
X202503803Y-47079684D01*
X202527007Y-47085496D01*
X202549529Y-47093554D01*
X202571153Y-47103782D01*
X202591670Y-47116079D01*
X202610883Y-47130329D01*
X202628607Y-47146393D01*
X202644671Y-47164117D01*
X202658921Y-47183330D01*
X202671218Y-47203847D01*
X202681446Y-47225471D01*
X202689504Y-47247993D01*
X202695316Y-47271197D01*
X202698826Y-47294858D01*
X202700000Y-47318750D01*
X202700000Y-47806250D01*
X202698826Y-47830142D01*
X202695316Y-47853803D01*
X202689504Y-47877007D01*
X202681446Y-47899529D01*
X202671218Y-47921153D01*
X202658921Y-47941670D01*
X202644671Y-47960883D01*
X202628607Y-47978607D01*
X202610883Y-47994671D01*
X202591670Y-48008921D01*
X202571153Y-48021218D01*
X202549529Y-48031446D01*
X202527007Y-48039504D01*
X202503803Y-48045316D01*
X202480142Y-48048826D01*
X202456250Y-48050000D01*
X201543750Y-48050000D01*
X201519858Y-48048826D01*
X201496197Y-48045316D01*
X201472993Y-48039504D01*
X201450471Y-48031446D01*
X201428847Y-48021218D01*
X201408330Y-48008921D01*
X201389117Y-47994671D01*
X201371393Y-47978607D01*
X201355329Y-47960883D01*
X201341079Y-47941670D01*
X201328782Y-47921153D01*
X201318554Y-47899529D01*
X201310496Y-47877007D01*
X201304684Y-47853803D01*
X201301174Y-47830142D01*
X201300000Y-47806250D01*
X201300000Y-47318750D01*
X201301174Y-47294858D01*
X201304684Y-47271197D01*
X201310496Y-47247993D01*
X201318554Y-47225471D01*
X201328782Y-47203847D01*
X201341079Y-47183330D01*
X201355329Y-47164117D01*
X201371393Y-47146393D01*
X201389117Y-47130329D01*
X201408330Y-47116079D01*
X201428847Y-47103782D01*
X201450471Y-47093554D01*
X201472993Y-47085496D01*
X201496197Y-47079684D01*
X201519858Y-47076174D01*
X201543750Y-47075000D01*
X202456250Y-47075000D01*
X202480142Y-47076174D01*
G37*
G36*
X202480142Y-48951174D02*
G01*
X202503803Y-48954684D01*
X202527007Y-48960496D01*
X202549529Y-48968554D01*
X202571153Y-48978782D01*
X202591670Y-48991079D01*
X202610883Y-49005329D01*
X202628607Y-49021393D01*
X202644671Y-49039117D01*
X202658921Y-49058330D01*
X202671218Y-49078847D01*
X202681446Y-49100471D01*
X202689504Y-49122993D01*
X202695316Y-49146197D01*
X202698826Y-49169858D01*
X202700000Y-49193750D01*
X202700000Y-49681250D01*
X202698826Y-49705142D01*
X202695316Y-49728803D01*
X202689504Y-49752007D01*
X202681446Y-49774529D01*
X202671218Y-49796153D01*
X202658921Y-49816670D01*
X202644671Y-49835883D01*
X202628607Y-49853607D01*
X202610883Y-49869671D01*
X202591670Y-49883921D01*
X202571153Y-49896218D01*
X202549529Y-49906446D01*
X202527007Y-49914504D01*
X202503803Y-49920316D01*
X202480142Y-49923826D01*
X202456250Y-49925000D01*
X201543750Y-49925000D01*
X201519858Y-49923826D01*
X201496197Y-49920316D01*
X201472993Y-49914504D01*
X201450471Y-49906446D01*
X201428847Y-49896218D01*
X201408330Y-49883921D01*
X201389117Y-49869671D01*
X201371393Y-49853607D01*
X201355329Y-49835883D01*
X201341079Y-49816670D01*
X201328782Y-49796153D01*
X201318554Y-49774529D01*
X201310496Y-49752007D01*
X201304684Y-49728803D01*
X201301174Y-49705142D01*
X201300000Y-49681250D01*
X201300000Y-49193750D01*
X201301174Y-49169858D01*
X201304684Y-49146197D01*
X201310496Y-49122993D01*
X201318554Y-49100471D01*
X201328782Y-49078847D01*
X201341079Y-49058330D01*
X201355329Y-49039117D01*
X201371393Y-49021393D01*
X201389117Y-49005329D01*
X201408330Y-48991079D01*
X201428847Y-48978782D01*
X201450471Y-48968554D01*
X201472993Y-48960496D01*
X201496197Y-48954684D01*
X201519858Y-48951174D01*
X201543750Y-48950000D01*
X202456250Y-48950000D01*
X202480142Y-48951174D01*
G37*
G36*
X202480142Y-57076174D02*
G01*
X202503803Y-57079684D01*
X202527007Y-57085496D01*
X202549529Y-57093554D01*
X202571153Y-57103782D01*
X202591670Y-57116079D01*
X202610883Y-57130329D01*
X202628607Y-57146393D01*
X202644671Y-57164117D01*
X202658921Y-57183330D01*
X202671218Y-57203847D01*
X202681446Y-57225471D01*
X202689504Y-57247993D01*
X202695316Y-57271197D01*
X202698826Y-57294858D01*
X202700000Y-57318750D01*
X202700000Y-57806250D01*
X202698826Y-57830142D01*
X202695316Y-57853803D01*
X202689504Y-57877007D01*
X202681446Y-57899529D01*
X202671218Y-57921153D01*
X202658921Y-57941670D01*
X202644671Y-57960883D01*
X202628607Y-57978607D01*
X202610883Y-57994671D01*
X202591670Y-58008921D01*
X202571153Y-58021218D01*
X202549529Y-58031446D01*
X202527007Y-58039504D01*
X202503803Y-58045316D01*
X202480142Y-58048826D01*
X202456250Y-58050000D01*
X201543750Y-58050000D01*
X201519858Y-58048826D01*
X201496197Y-58045316D01*
X201472993Y-58039504D01*
X201450471Y-58031446D01*
X201428847Y-58021218D01*
X201408330Y-58008921D01*
X201389117Y-57994671D01*
X201371393Y-57978607D01*
X201355329Y-57960883D01*
X201341079Y-57941670D01*
X201328782Y-57921153D01*
X201318554Y-57899529D01*
X201310496Y-57877007D01*
X201304684Y-57853803D01*
X201301174Y-57830142D01*
X201300000Y-57806250D01*
X201300000Y-57318750D01*
X201301174Y-57294858D01*
X201304684Y-57271197D01*
X201310496Y-57247993D01*
X201318554Y-57225471D01*
X201328782Y-57203847D01*
X201341079Y-57183330D01*
X201355329Y-57164117D01*
X201371393Y-57146393D01*
X201389117Y-57130329D01*
X201408330Y-57116079D01*
X201428847Y-57103782D01*
X201450471Y-57093554D01*
X201472993Y-57085496D01*
X201496197Y-57079684D01*
X201519858Y-57076174D01*
X201543750Y-57075000D01*
X202456250Y-57075000D01*
X202480142Y-57076174D01*
G37*
G36*
X202480142Y-58951174D02*
G01*
X202503803Y-58954684D01*
X202527007Y-58960496D01*
X202549529Y-58968554D01*
X202571153Y-58978782D01*
X202591670Y-58991079D01*
X202610883Y-59005329D01*
X202628607Y-59021393D01*
X202644671Y-59039117D01*
X202658921Y-59058330D01*
X202671218Y-59078847D01*
X202681446Y-59100471D01*
X202689504Y-59122993D01*
X202695316Y-59146197D01*
X202698826Y-59169858D01*
X202700000Y-59193750D01*
X202700000Y-59681250D01*
X202698826Y-59705142D01*
X202695316Y-59728803D01*
X202689504Y-59752007D01*
X202681446Y-59774529D01*
X202671218Y-59796153D01*
X202658921Y-59816670D01*
X202644671Y-59835883D01*
X202628607Y-59853607D01*
X202610883Y-59869671D01*
X202591670Y-59883921D01*
X202571153Y-59896218D01*
X202549529Y-59906446D01*
X202527007Y-59914504D01*
X202503803Y-59920316D01*
X202480142Y-59923826D01*
X202456250Y-59925000D01*
X201543750Y-59925000D01*
X201519858Y-59923826D01*
X201496197Y-59920316D01*
X201472993Y-59914504D01*
X201450471Y-59906446D01*
X201428847Y-59896218D01*
X201408330Y-59883921D01*
X201389117Y-59869671D01*
X201371393Y-59853607D01*
X201355329Y-59835883D01*
X201341079Y-59816670D01*
X201328782Y-59796153D01*
X201318554Y-59774529D01*
X201310496Y-59752007D01*
X201304684Y-59728803D01*
X201301174Y-59705142D01*
X201300000Y-59681250D01*
X201300000Y-59193750D01*
X201301174Y-59169858D01*
X201304684Y-59146197D01*
X201310496Y-59122993D01*
X201318554Y-59100471D01*
X201328782Y-59078847D01*
X201341079Y-59058330D01*
X201355329Y-59039117D01*
X201371393Y-59021393D01*
X201389117Y-59005329D01*
X201408330Y-58991079D01*
X201428847Y-58978782D01*
X201450471Y-58968554D01*
X201472993Y-58960496D01*
X201496197Y-58954684D01*
X201519858Y-58951174D01*
X201543750Y-58950000D01*
X202456250Y-58950000D01*
X202480142Y-58951174D01*
G37*
G36*
X92010142Y-92646174D02*
G01*
X92033803Y-92649684D01*
X92057007Y-92655496D01*
X92079529Y-92663554D01*
X92101153Y-92673782D01*
X92121670Y-92686079D01*
X92140883Y-92700329D01*
X92158607Y-92716393D01*
X92174671Y-92734117D01*
X92188921Y-92753330D01*
X92201218Y-92773847D01*
X92211446Y-92795471D01*
X92219504Y-92817993D01*
X92225316Y-92841197D01*
X92228826Y-92864858D01*
X92230000Y-92888750D01*
X92230000Y-93801250D01*
X92228826Y-93825142D01*
X92225316Y-93848803D01*
X92219504Y-93872007D01*
X92211446Y-93894529D01*
X92201218Y-93916153D01*
X92188921Y-93936670D01*
X92174671Y-93955883D01*
X92158607Y-93973607D01*
X92140883Y-93989671D01*
X92121670Y-94003921D01*
X92101153Y-94016218D01*
X92079529Y-94026446D01*
X92057007Y-94034504D01*
X92033803Y-94040316D01*
X92010142Y-94043826D01*
X91986250Y-94045000D01*
X91498750Y-94045000D01*
X91474858Y-94043826D01*
X91451197Y-94040316D01*
X91427993Y-94034504D01*
X91405471Y-94026446D01*
X91383847Y-94016218D01*
X91363330Y-94003921D01*
X91344117Y-93989671D01*
X91326393Y-93973607D01*
X91310329Y-93955883D01*
X91296079Y-93936670D01*
X91283782Y-93916153D01*
X91273554Y-93894529D01*
X91265496Y-93872007D01*
X91259684Y-93848803D01*
X91256174Y-93825142D01*
X91255000Y-93801250D01*
X91255000Y-92888750D01*
X91256174Y-92864858D01*
X91259684Y-92841197D01*
X91265496Y-92817993D01*
X91273554Y-92795471D01*
X91283782Y-92773847D01*
X91296079Y-92753330D01*
X91310329Y-92734117D01*
X91326393Y-92716393D01*
X91344117Y-92700329D01*
X91363330Y-92686079D01*
X91383847Y-92673782D01*
X91405471Y-92663554D01*
X91427993Y-92655496D01*
X91451197Y-92649684D01*
X91474858Y-92646174D01*
X91498750Y-92645000D01*
X91986250Y-92645000D01*
X92010142Y-92646174D01*
G37*
G36*
X90135142Y-92646174D02*
G01*
X90158803Y-92649684D01*
X90182007Y-92655496D01*
X90204529Y-92663554D01*
X90226153Y-92673782D01*
X90246670Y-92686079D01*
X90265883Y-92700329D01*
X90283607Y-92716393D01*
X90299671Y-92734117D01*
X90313921Y-92753330D01*
X90326218Y-92773847D01*
X90336446Y-92795471D01*
X90344504Y-92817993D01*
X90350316Y-92841197D01*
X90353826Y-92864858D01*
X90355000Y-92888750D01*
X90355000Y-93801250D01*
X90353826Y-93825142D01*
X90350316Y-93848803D01*
X90344504Y-93872007D01*
X90336446Y-93894529D01*
X90326218Y-93916153D01*
X90313921Y-93936670D01*
X90299671Y-93955883D01*
X90283607Y-93973607D01*
X90265883Y-93989671D01*
X90246670Y-94003921D01*
X90226153Y-94016218D01*
X90204529Y-94026446D01*
X90182007Y-94034504D01*
X90158803Y-94040316D01*
X90135142Y-94043826D01*
X90111250Y-94045000D01*
X89623750Y-94045000D01*
X89599858Y-94043826D01*
X89576197Y-94040316D01*
X89552993Y-94034504D01*
X89530471Y-94026446D01*
X89508847Y-94016218D01*
X89488330Y-94003921D01*
X89469117Y-93989671D01*
X89451393Y-93973607D01*
X89435329Y-93955883D01*
X89421079Y-93936670D01*
X89408782Y-93916153D01*
X89398554Y-93894529D01*
X89390496Y-93872007D01*
X89384684Y-93848803D01*
X89381174Y-93825142D01*
X89380000Y-93801250D01*
X89380000Y-92888750D01*
X89381174Y-92864858D01*
X89384684Y-92841197D01*
X89390496Y-92817993D01*
X89398554Y-92795471D01*
X89408782Y-92773847D01*
X89421079Y-92753330D01*
X89435329Y-92734117D01*
X89451393Y-92716393D01*
X89469117Y-92700329D01*
X89488330Y-92686079D01*
X89508847Y-92673782D01*
X89530471Y-92663554D01*
X89552993Y-92655496D01*
X89576197Y-92649684D01*
X89599858Y-92646174D01*
X89623750Y-92645000D01*
X90111250Y-92645000D01*
X90135142Y-92646174D01*
G37*
G36*
X163929142Y-82523174D02*
G01*
X163952803Y-82526684D01*
X163976007Y-82532496D01*
X163998529Y-82540554D01*
X164020153Y-82550782D01*
X164040670Y-82563079D01*
X164059883Y-82577329D01*
X164077607Y-82593393D01*
X164093671Y-82611117D01*
X164107921Y-82630330D01*
X164120218Y-82650847D01*
X164130446Y-82672471D01*
X164138504Y-82694993D01*
X164144316Y-82718197D01*
X164147826Y-82741858D01*
X164149000Y-82765750D01*
X164149000Y-83253250D01*
X164147826Y-83277142D01*
X164144316Y-83300803D01*
X164138504Y-83324007D01*
X164130446Y-83346529D01*
X164120218Y-83368153D01*
X164107921Y-83388670D01*
X164093671Y-83407883D01*
X164077607Y-83425607D01*
X164059883Y-83441671D01*
X164040670Y-83455921D01*
X164020153Y-83468218D01*
X163998529Y-83478446D01*
X163976007Y-83486504D01*
X163952803Y-83492316D01*
X163929142Y-83495826D01*
X163905250Y-83497000D01*
X162992750Y-83497000D01*
X162968858Y-83495826D01*
X162945197Y-83492316D01*
X162921993Y-83486504D01*
X162899471Y-83478446D01*
X162877847Y-83468218D01*
X162857330Y-83455921D01*
X162838117Y-83441671D01*
X162820393Y-83425607D01*
X162804329Y-83407883D01*
X162790079Y-83388670D01*
X162777782Y-83368153D01*
X162767554Y-83346529D01*
X162759496Y-83324007D01*
X162753684Y-83300803D01*
X162750174Y-83277142D01*
X162749000Y-83253250D01*
X162749000Y-82765750D01*
X162750174Y-82741858D01*
X162753684Y-82718197D01*
X162759496Y-82694993D01*
X162767554Y-82672471D01*
X162777782Y-82650847D01*
X162790079Y-82630330D01*
X162804329Y-82611117D01*
X162820393Y-82593393D01*
X162838117Y-82577329D01*
X162857330Y-82563079D01*
X162877847Y-82550782D01*
X162899471Y-82540554D01*
X162921993Y-82532496D01*
X162945197Y-82526684D01*
X162968858Y-82523174D01*
X162992750Y-82522000D01*
X163905250Y-82522000D01*
X163929142Y-82523174D01*
G37*
G36*
X163929142Y-84398174D02*
G01*
X163952803Y-84401684D01*
X163976007Y-84407496D01*
X163998529Y-84415554D01*
X164020153Y-84425782D01*
X164040670Y-84438079D01*
X164059883Y-84452329D01*
X164077607Y-84468393D01*
X164093671Y-84486117D01*
X164107921Y-84505330D01*
X164120218Y-84525847D01*
X164130446Y-84547471D01*
X164138504Y-84569993D01*
X164144316Y-84593197D01*
X164147826Y-84616858D01*
X164149000Y-84640750D01*
X164149000Y-85128250D01*
X164147826Y-85152142D01*
X164144316Y-85175803D01*
X164138504Y-85199007D01*
X164130446Y-85221529D01*
X164120218Y-85243153D01*
X164107921Y-85263670D01*
X164093671Y-85282883D01*
X164077607Y-85300607D01*
X164059883Y-85316671D01*
X164040670Y-85330921D01*
X164020153Y-85343218D01*
X163998529Y-85353446D01*
X163976007Y-85361504D01*
X163952803Y-85367316D01*
X163929142Y-85370826D01*
X163905250Y-85372000D01*
X162992750Y-85372000D01*
X162968858Y-85370826D01*
X162945197Y-85367316D01*
X162921993Y-85361504D01*
X162899471Y-85353446D01*
X162877847Y-85343218D01*
X162857330Y-85330921D01*
X162838117Y-85316671D01*
X162820393Y-85300607D01*
X162804329Y-85282883D01*
X162790079Y-85263670D01*
X162777782Y-85243153D01*
X162767554Y-85221529D01*
X162759496Y-85199007D01*
X162753684Y-85175803D01*
X162750174Y-85152142D01*
X162749000Y-85128250D01*
X162749000Y-84640750D01*
X162750174Y-84616858D01*
X162753684Y-84593197D01*
X162759496Y-84569993D01*
X162767554Y-84547471D01*
X162777782Y-84525847D01*
X162790079Y-84505330D01*
X162804329Y-84486117D01*
X162820393Y-84468393D01*
X162838117Y-84452329D01*
X162857330Y-84438079D01*
X162877847Y-84425782D01*
X162899471Y-84415554D01*
X162921993Y-84407496D01*
X162945197Y-84401684D01*
X162968858Y-84398174D01*
X162992750Y-84397000D01*
X163905250Y-84397000D01*
X163929142Y-84398174D01*
G37*
G36*
X92645142Y-76136174D02*
G01*
X92668803Y-76139684D01*
X92692007Y-76145496D01*
X92714529Y-76153554D01*
X92736153Y-76163782D01*
X92756670Y-76176079D01*
X92775883Y-76190329D01*
X92793607Y-76206393D01*
X92809671Y-76224117D01*
X92823921Y-76243330D01*
X92836218Y-76263847D01*
X92846446Y-76285471D01*
X92854504Y-76307993D01*
X92860316Y-76331197D01*
X92863826Y-76354858D01*
X92865000Y-76378750D01*
X92865000Y-77291250D01*
X92863826Y-77315142D01*
X92860316Y-77338803D01*
X92854504Y-77362007D01*
X92846446Y-77384529D01*
X92836218Y-77406153D01*
X92823921Y-77426670D01*
X92809671Y-77445883D01*
X92793607Y-77463607D01*
X92775883Y-77479671D01*
X92756670Y-77493921D01*
X92736153Y-77506218D01*
X92714529Y-77516446D01*
X92692007Y-77524504D01*
X92668803Y-77530316D01*
X92645142Y-77533826D01*
X92621250Y-77535000D01*
X92133750Y-77535000D01*
X92109858Y-77533826D01*
X92086197Y-77530316D01*
X92062993Y-77524504D01*
X92040471Y-77516446D01*
X92018847Y-77506218D01*
X91998330Y-77493921D01*
X91979117Y-77479671D01*
X91961393Y-77463607D01*
X91945329Y-77445883D01*
X91931079Y-77426670D01*
X91918782Y-77406153D01*
X91908554Y-77384529D01*
X91900496Y-77362007D01*
X91894684Y-77338803D01*
X91891174Y-77315142D01*
X91890000Y-77291250D01*
X91890000Y-76378750D01*
X91891174Y-76354858D01*
X91894684Y-76331197D01*
X91900496Y-76307993D01*
X91908554Y-76285471D01*
X91918782Y-76263847D01*
X91931079Y-76243330D01*
X91945329Y-76224117D01*
X91961393Y-76206393D01*
X91979117Y-76190329D01*
X91998330Y-76176079D01*
X92018847Y-76163782D01*
X92040471Y-76153554D01*
X92062993Y-76145496D01*
X92086197Y-76139684D01*
X92109858Y-76136174D01*
X92133750Y-76135000D01*
X92621250Y-76135000D01*
X92645142Y-76136174D01*
G37*
G36*
X90770142Y-76136174D02*
G01*
X90793803Y-76139684D01*
X90817007Y-76145496D01*
X90839529Y-76153554D01*
X90861153Y-76163782D01*
X90881670Y-76176079D01*
X90900883Y-76190329D01*
X90918607Y-76206393D01*
X90934671Y-76224117D01*
X90948921Y-76243330D01*
X90961218Y-76263847D01*
X90971446Y-76285471D01*
X90979504Y-76307993D01*
X90985316Y-76331197D01*
X90988826Y-76354858D01*
X90990000Y-76378750D01*
X90990000Y-77291250D01*
X90988826Y-77315142D01*
X90985316Y-77338803D01*
X90979504Y-77362007D01*
X90971446Y-77384529D01*
X90961218Y-77406153D01*
X90948921Y-77426670D01*
X90934671Y-77445883D01*
X90918607Y-77463607D01*
X90900883Y-77479671D01*
X90881670Y-77493921D01*
X90861153Y-77506218D01*
X90839529Y-77516446D01*
X90817007Y-77524504D01*
X90793803Y-77530316D01*
X90770142Y-77533826D01*
X90746250Y-77535000D01*
X90258750Y-77535000D01*
X90234858Y-77533826D01*
X90211197Y-77530316D01*
X90187993Y-77524504D01*
X90165471Y-77516446D01*
X90143847Y-77506218D01*
X90123330Y-77493921D01*
X90104117Y-77479671D01*
X90086393Y-77463607D01*
X90070329Y-77445883D01*
X90056079Y-77426670D01*
X90043782Y-77406153D01*
X90033554Y-77384529D01*
X90025496Y-77362007D01*
X90019684Y-77338803D01*
X90016174Y-77315142D01*
X90015000Y-77291250D01*
X90015000Y-76378750D01*
X90016174Y-76354858D01*
X90019684Y-76331197D01*
X90025496Y-76307993D01*
X90033554Y-76285471D01*
X90043782Y-76263847D01*
X90056079Y-76243330D01*
X90070329Y-76224117D01*
X90086393Y-76206393D01*
X90104117Y-76190329D01*
X90123330Y-76176079D01*
X90143847Y-76163782D01*
X90165471Y-76153554D01*
X90187993Y-76145496D01*
X90211197Y-76139684D01*
X90234858Y-76136174D01*
X90258750Y-76135000D01*
X90746250Y-76135000D01*
X90770142Y-76136174D01*
G37*
G36*
X86960142Y-76136174D02*
G01*
X86983803Y-76139684D01*
X87007007Y-76145496D01*
X87029529Y-76153554D01*
X87051153Y-76163782D01*
X87071670Y-76176079D01*
X87090883Y-76190329D01*
X87108607Y-76206393D01*
X87124671Y-76224117D01*
X87138921Y-76243330D01*
X87151218Y-76263847D01*
X87161446Y-76285471D01*
X87169504Y-76307993D01*
X87175316Y-76331197D01*
X87178826Y-76354858D01*
X87180000Y-76378750D01*
X87180000Y-77291250D01*
X87178826Y-77315142D01*
X87175316Y-77338803D01*
X87169504Y-77362007D01*
X87161446Y-77384529D01*
X87151218Y-77406153D01*
X87138921Y-77426670D01*
X87124671Y-77445883D01*
X87108607Y-77463607D01*
X87090883Y-77479671D01*
X87071670Y-77493921D01*
X87051153Y-77506218D01*
X87029529Y-77516446D01*
X87007007Y-77524504D01*
X86983803Y-77530316D01*
X86960142Y-77533826D01*
X86936250Y-77535000D01*
X86448750Y-77535000D01*
X86424858Y-77533826D01*
X86401197Y-77530316D01*
X86377993Y-77524504D01*
X86355471Y-77516446D01*
X86333847Y-77506218D01*
X86313330Y-77493921D01*
X86294117Y-77479671D01*
X86276393Y-77463607D01*
X86260329Y-77445883D01*
X86246079Y-77426670D01*
X86233782Y-77406153D01*
X86223554Y-77384529D01*
X86215496Y-77362007D01*
X86209684Y-77338803D01*
X86206174Y-77315142D01*
X86205000Y-77291250D01*
X86205000Y-76378750D01*
X86206174Y-76354858D01*
X86209684Y-76331197D01*
X86215496Y-76307993D01*
X86223554Y-76285471D01*
X86233782Y-76263847D01*
X86246079Y-76243330D01*
X86260329Y-76224117D01*
X86276393Y-76206393D01*
X86294117Y-76190329D01*
X86313330Y-76176079D01*
X86333847Y-76163782D01*
X86355471Y-76153554D01*
X86377993Y-76145496D01*
X86401197Y-76139684D01*
X86424858Y-76136174D01*
X86448750Y-76135000D01*
X86936250Y-76135000D01*
X86960142Y-76136174D01*
G37*
G36*
X88835142Y-76136174D02*
G01*
X88858803Y-76139684D01*
X88882007Y-76145496D01*
X88904529Y-76153554D01*
X88926153Y-76163782D01*
X88946670Y-76176079D01*
X88965883Y-76190329D01*
X88983607Y-76206393D01*
X88999671Y-76224117D01*
X89013921Y-76243330D01*
X89026218Y-76263847D01*
X89036446Y-76285471D01*
X89044504Y-76307993D01*
X89050316Y-76331197D01*
X89053826Y-76354858D01*
X89055000Y-76378750D01*
X89055000Y-77291250D01*
X89053826Y-77315142D01*
X89050316Y-77338803D01*
X89044504Y-77362007D01*
X89036446Y-77384529D01*
X89026218Y-77406153D01*
X89013921Y-77426670D01*
X88999671Y-77445883D01*
X88983607Y-77463607D01*
X88965883Y-77479671D01*
X88946670Y-77493921D01*
X88926153Y-77506218D01*
X88904529Y-77516446D01*
X88882007Y-77524504D01*
X88858803Y-77530316D01*
X88835142Y-77533826D01*
X88811250Y-77535000D01*
X88323750Y-77535000D01*
X88299858Y-77533826D01*
X88276197Y-77530316D01*
X88252993Y-77524504D01*
X88230471Y-77516446D01*
X88208847Y-77506218D01*
X88188330Y-77493921D01*
X88169117Y-77479671D01*
X88151393Y-77463607D01*
X88135329Y-77445883D01*
X88121079Y-77426670D01*
X88108782Y-77406153D01*
X88098554Y-77384529D01*
X88090496Y-77362007D01*
X88084684Y-77338803D01*
X88081174Y-77315142D01*
X88080000Y-77291250D01*
X88080000Y-76378750D01*
X88081174Y-76354858D01*
X88084684Y-76331197D01*
X88090496Y-76307993D01*
X88098554Y-76285471D01*
X88108782Y-76263847D01*
X88121079Y-76243330D01*
X88135329Y-76224117D01*
X88151393Y-76206393D01*
X88169117Y-76190329D01*
X88188330Y-76176079D01*
X88208847Y-76163782D01*
X88230471Y-76153554D01*
X88252993Y-76145496D01*
X88276197Y-76139684D01*
X88299858Y-76136174D01*
X88323750Y-76135000D01*
X88811250Y-76135000D01*
X88835142Y-76136174D01*
G37*
G36*
X92010142Y-87566174D02*
G01*
X92033803Y-87569684D01*
X92057007Y-87575496D01*
X92079529Y-87583554D01*
X92101153Y-87593782D01*
X92121670Y-87606079D01*
X92140883Y-87620329D01*
X92158607Y-87636393D01*
X92174671Y-87654117D01*
X92188921Y-87673330D01*
X92201218Y-87693847D01*
X92211446Y-87715471D01*
X92219504Y-87737993D01*
X92225316Y-87761197D01*
X92228826Y-87784858D01*
X92230000Y-87808750D01*
X92230000Y-88721250D01*
X92228826Y-88745142D01*
X92225316Y-88768803D01*
X92219504Y-88792007D01*
X92211446Y-88814529D01*
X92201218Y-88836153D01*
X92188921Y-88856670D01*
X92174671Y-88875883D01*
X92158607Y-88893607D01*
X92140883Y-88909671D01*
X92121670Y-88923921D01*
X92101153Y-88936218D01*
X92079529Y-88946446D01*
X92057007Y-88954504D01*
X92033803Y-88960316D01*
X92010142Y-88963826D01*
X91986250Y-88965000D01*
X91498750Y-88965000D01*
X91474858Y-88963826D01*
X91451197Y-88960316D01*
X91427993Y-88954504D01*
X91405471Y-88946446D01*
X91383847Y-88936218D01*
X91363330Y-88923921D01*
X91344117Y-88909671D01*
X91326393Y-88893607D01*
X91310329Y-88875883D01*
X91296079Y-88856670D01*
X91283782Y-88836153D01*
X91273554Y-88814529D01*
X91265496Y-88792007D01*
X91259684Y-88768803D01*
X91256174Y-88745142D01*
X91255000Y-88721250D01*
X91255000Y-87808750D01*
X91256174Y-87784858D01*
X91259684Y-87761197D01*
X91265496Y-87737993D01*
X91273554Y-87715471D01*
X91283782Y-87693847D01*
X91296079Y-87673330D01*
X91310329Y-87654117D01*
X91326393Y-87636393D01*
X91344117Y-87620329D01*
X91363330Y-87606079D01*
X91383847Y-87593782D01*
X91405471Y-87583554D01*
X91427993Y-87575496D01*
X91451197Y-87569684D01*
X91474858Y-87566174D01*
X91498750Y-87565000D01*
X91986250Y-87565000D01*
X92010142Y-87566174D01*
G37*
G36*
X90135142Y-87566174D02*
G01*
X90158803Y-87569684D01*
X90182007Y-87575496D01*
X90204529Y-87583554D01*
X90226153Y-87593782D01*
X90246670Y-87606079D01*
X90265883Y-87620329D01*
X90283607Y-87636393D01*
X90299671Y-87654117D01*
X90313921Y-87673330D01*
X90326218Y-87693847D01*
X90336446Y-87715471D01*
X90344504Y-87737993D01*
X90350316Y-87761197D01*
X90353826Y-87784858D01*
X90355000Y-87808750D01*
X90355000Y-88721250D01*
X90353826Y-88745142D01*
X90350316Y-88768803D01*
X90344504Y-88792007D01*
X90336446Y-88814529D01*
X90326218Y-88836153D01*
X90313921Y-88856670D01*
X90299671Y-88875883D01*
X90283607Y-88893607D01*
X90265883Y-88909671D01*
X90246670Y-88923921D01*
X90226153Y-88936218D01*
X90204529Y-88946446D01*
X90182007Y-88954504D01*
X90158803Y-88960316D01*
X90135142Y-88963826D01*
X90111250Y-88965000D01*
X89623750Y-88965000D01*
X89599858Y-88963826D01*
X89576197Y-88960316D01*
X89552993Y-88954504D01*
X89530471Y-88946446D01*
X89508847Y-88936218D01*
X89488330Y-88923921D01*
X89469117Y-88909671D01*
X89451393Y-88893607D01*
X89435329Y-88875883D01*
X89421079Y-88856670D01*
X89408782Y-88836153D01*
X89398554Y-88814529D01*
X89390496Y-88792007D01*
X89384684Y-88768803D01*
X89381174Y-88745142D01*
X89380000Y-88721250D01*
X89380000Y-87808750D01*
X89381174Y-87784858D01*
X89384684Y-87761197D01*
X89390496Y-87737993D01*
X89398554Y-87715471D01*
X89408782Y-87693847D01*
X89421079Y-87673330D01*
X89435329Y-87654117D01*
X89451393Y-87636393D01*
X89469117Y-87620329D01*
X89488330Y-87606079D01*
X89508847Y-87593782D01*
X89530471Y-87583554D01*
X89552993Y-87575496D01*
X89576197Y-87569684D01*
X89599858Y-87566174D01*
X89623750Y-87565000D01*
X90111250Y-87565000D01*
X90135142Y-87566174D01*
G37*
M02*
