0
SECTION
2
HEADER
9
$INSUNITS
70
4
9
$ACADVER
1
AC1014
9
$HANDSEED
5
FFFF
0
ENDSEC
0
SECTION
2
TABLES
0
TABLE
2
VPORT
5
8
100
AcDbSymbolTable
0
ENDTAB
0
TABLE
2
LTYPE
5
5
100
AcDbSymbolTable
0
LTYPE
5
14
100
AcDbSymbolTableRecord
100
AcDbLinetypeTableRecord
2
BYBLOCK
70
0
0
LTYPE
5
15
100
AcDbSymbolTableRecord
100
AcDbLinetypeTableRecord
2
BYLAYER
70
0
0
ENDTAB
0
TABLE
2
LAYER
5
2
100
AcDbSymbolTable
70
2
0
LAYER
5
50
100
AcDbSymbolTableRecord
100
AcDbLayerTableRecord
2
0
70
0
6
CONTINUOUS
0
ENDTAB
0
TABLE
2
STYLE
5
3
100
AcDbSymbolTable
70
1
0
STYLE
5
11
100
AcDbSymbolTableRecord
100
AcDbTextStyleTableRecord
2
STANDARD
70
0
0
ENDTAB
0
TABLE
2
VIEW
5
6
100
AcDbSymbolTable
70
0
0
ENDTAB
0
TABLE
2
UCS
5
7
100
AcDbSymbolTable
70
0
0
ENDTAB
0
TABLE
2
APPID
5
9
100
AcDbSymbolTable
70
2
0
APPID
5
12
100
AcDbSymbolTableRecord
100
AcDbRegAppTableRecord
2
ACAD
70
0
0
ENDTAB
0
TABLE
2
DIMSTYLE
5
A
100
AcDbSymbolTable
70
1
0
ENDTAB
0
TABLE
2
BLOCK_RECORD
5
1
100
AcDbSymbolTable
70
1
0
BLOCK_RECORD
5
1F
100
AcDbSymbolTableRecord
100
AcDbBlockTableRecord
2
*MODEL_SPACE
0
BLOCK_RECORD
5
1B
100
AcDbSymbolTableRecord
100
AcDbBlockTableRecord
2
*PAPER_SPACE
0
ENDTAB
0
ENDSEC
0
SECTION
2
BLOCKS
0
BLOCK
5
20
100
AcDbEntity
100
AcDbBlockBegin
2
*MODEL_SPACE
0
ENDBLK
5
21
100
AcDbEntity
100
AcDbBlockEnd
0
BLOCK
5
1C
100
AcDbEntity
100
AcDbBlockBegin
2
*PAPER_SPACE
0
ENDBLK
5
1D
100
AcDbEntity
100
AcDbBlockEnd
0
ENDSEC
0
SECTION
2
ENTITIES
0
CIRCLE
5
100
100
AcDbEntity
8
0
100
AcDbCircle
10
-47.04999999999999
20
-24.269999999999996
30
0
40
1.6000000000000014
210
0
220
-0
230
1
0
CIRCLE
5
101
100
AcDbEntity
8
0
100
AcDbCircle
10
-47.04999999999999
20
24.269999999999989
30
0
40
1.5999999999999965
210
0
220
-0
230
1
0
CIRCLE
5
102
100
AcDbEntity
8
0
100
AcDbCircle
10
47.049999999999997
20
24.269999999999989
30
0
40
1.6000000000000014
210
0
220
-0
230
1
0
CIRCLE
5
103
100
AcDbEntity
8
0
100
AcDbCircle
10
47.049999999999997
20
-24.269999999999992
30
0
40
1.6000000000000025
210
0
220
-0
230
1
0
LINE
5
104
100
AcDbEntity
8
0
100
AcDbLine
10
50.25
20
-27.469999999999995
30
0
11
50.25
21
27.470000000000002
31
0
0
LINE
5
105
100
AcDbEntity
8
0
100
AcDbLine
10
-50.250000000000014
20
-27.469999999999995
30
0
11
50.249999999999993
21
-27.469999999999995
31
0
0
LINE
5
106
100
AcDbEntity
8
0
100
AcDbLine
10
50.25
20
27.469999999999999
30
0
11
-50.25
21
27.469999999999992
31
0
0
LINE
5
107
100
AcDbEntity
8
0
100
AcDbLine
10
-50.25
20
27.469999999999992
30
0
11
-50.250000000000014
21
-27.469999999999992
31
0
0
LWPOLYLINE
5
108
100
AcDbEntity
8
0
100
AcDbPolyline
90
8
70
1
43
0.0
10
-61.849999999946228
20
27.469999999999985
10
61.849999999999923
20
27.470000000000013
42
-0.41421356237309465
10
68.25
20
21.069999999999943
10
68.249999999993037
20
-21.070000000000007
42
-0.41421356237347545
10
61.849999999991979
20
-27.469999999992773
10
-61.849999999999724
20
-27.46999999999997
42
-0.41421356237309787
10
-68.249999999999986
20
-21.069999999999713
10
-68.249999999999972
20
21.069999999946219
42
-0.41421356237309603
0
LINE
5
109
100
AcDbEntity
8
0
100
AcDbLine
10
68.25
20
27.469999999999992
30
0
11
-68.250000000000014
21
-27.469999999999992
31
0
0
LINE
5
110
100
AcDbEntity
8
0
100
AcDbLine
10
-68.25
20
27.470000000000006
30
0
11
68.25
21
-27.469999999999981
31
0
0
CIRCLE
5
111
100
AcDbEntity
8
0
100
AcDbCircle
10
-61.849999999946235
20
21.069999999946269
30
0
40
1.600000000000001
210
0
220
0
230
1
0
CIRCLE
5
112
100
AcDbEntity
8
0
100
AcDbCircle
10
-61.849999999999753
20
-21.069999999999744
30
0
40
1.6000000000000036
210
0
220
0
230
1
0
CIRCLE
5
113
100
AcDbEntity
8
0
100
AcDbCircle
10
61.850000000000378
20
-21.070000000000032
30
0
40
1.600000000000005
210
0
220
0
230
1
0
CIRCLE
5
114
100
AcDbEntity
8
0
100
AcDbCircle
10
61.850000000011647
20
21.069999999999929
30
0
40
1.6000000000000045
210
0
220
0
230
1
0
LWPOLYLINE
5
115
100
AcDbEntity
8
0
100
AcDbPolyline
90
4
70
1
43
0.0
10
43.25
20
3.5300000000000087
10
68.25
20
3.5300000000000109
10
68.250000000000014
20
-14.469999999999992
10
43.249999999999922
20
-14.469999999999992
0
LINE
5
116
100
AcDbEntity
8
0
100
AcDbLine
10
43.249999999999957
20
-5.4699999999999926
30
0
11
68.250000000000014
21
-5.4699999999999926
31
0
0
LINE
5
117
100
AcDbEntity
8
0
100
AcDbLine
10
68.25
20
0.53000000000001046
30
0
11
43.25
21
0.53000000000000824
31
0
0
LINE
5
118
100
AcDbEntity
8
0
100
AcDbLine
10
43.249999999999922
20
-11.469999999999992
30
0
11
68.250000000000014
21
-11.469999999999992
31
0
0
LINE
5
119
100
AcDbEntity
8
0
100
AcDbLine
10
0
20
27.469999999999995
30
0
11
-3.8661255091234254e-12
21
-27.469999999999985
31
0
0
CIRCLE
5
120
100
AcDbEntity
8
0
100
AcDbCircle
10
0
20
0
30
0
40
7.5
210
0
220
0
230
1
0
LINE
5
121
100
AcDbEntity
8
0
100
AcDbLine
10
15.000000000000002
20
15.000000000000002
30
0
11
-15.000000000000002
21
15.000000000000002
31
0
0
LINE
5
122
100
AcDbEntity
8
0
100
AcDbLine
10
-15.000000000000002
20
15.000000000000002
30
0
11
-15.000000000000002
21
-15
31
0
0
LINE
5
123
100
AcDbEntity
8
0
100
AcDbLine
10
-15.000000000000002
20
-15
30
0
11
15.000000000000002
21
-15
31
0
0
LINE
5
124
100
AcDbEntity
8
0
100
AcDbLine
10
15.000000000000002
20
-15
30
0
11
15.000000000000002
21
15.000000000000002
31
0
0
LINE
5
125
100
AcDbEntity
8
0
100
AcDbLine
10
15.000000000000002
20
15.000000000000002
30
0
11
-15.000000000000002
21
-15
31
0
0
LINE
5
126
100
AcDbEntity
8
0
100
AcDbLine
10
-15.000000000000002
20
15.000000000000002
30
0
11
15.000000000000002
21
-15
31
0
0
ENDSEC
0
SECTION
2
OBJECTS
0
DICTIONARY
5
C
100
AcDbDictionary
3
ACAD_GROUP
350
D
3
ACAD_MLINESTYLE
350
17
0
DICTIONARY
5
D
100
AcDbDictionary
0
DICTIONARY
5
1A
330
C
100
AcDbDictionary
0
DICTIONARY
5
17
100
AcDbDictionary
0
ENDSEC
0
EOF
