G04 #@! TF.GenerationSoftware,KiCad,Pcbnew,(5.1.8-0-10_14)*
G04 #@! TF.CreationDate,2021-01-31T17:08:48-06:00*
G04 #@! TF.ProjectId,ClimateSprinklerController,436c696d-6174-4655-9370-72696e6b6c65,rev?*
G04 #@! TF.SameCoordinates,Original*
G04 #@! TF.FileFunction,Soldermask,Bot*
G04 #@! TF.FilePolarity,Negative*
%FSLAX46Y46*%
G04 Gerber Fmt 4.6, Leading zero omitted, Abs format (unit mm)*
G04 Created by KiCad (PCBNEW (5.1.8-0-10_14)) date 2021-01-31 17:08:48*
%MOMM*%
%LPD*%
G01*
G04 APERTURE LIST*
%ADD10O,1.802000X1.802000*%
%ADD11C,5.702000*%
%ADD12C,0.100000*%
%ADD13O,1.902000X2.502000*%
%ADD14C,1.702000*%
%ADD15C,1.552000*%
%ADD16O,1.302000X2.002000*%
%ADD17C,2.202000*%
%ADD18C,1.852000*%
%ADD19C,0.902000*%
%ADD20C,6.502000*%
%ADD21C,1.902000*%
G04 APERTURE END LIST*
D10*
X179280000Y-67050000D03*
X181820000Y-67050000D03*
X184360000Y-67050000D03*
X186900000Y-67050000D03*
X189440000Y-67050000D03*
G36*
G01*
X191130000Y-66149000D02*
X192830000Y-66149000D01*
G75*
G02*
X192881000Y-66200000I0J-51000D01*
G01*
X192881000Y-67900000D01*
G75*
G02*
X192830000Y-67951000I-51000J0D01*
G01*
X191130000Y-67951000D01*
G75*
G02*
X191079000Y-67900000I0J51000D01*
G01*
X191079000Y-66200000D01*
G75*
G02*
X191130000Y-66149000I51000J0D01*
G01*
G37*
D11*
X197050000Y-114270000D03*
X102950000Y-114270000D03*
X197050000Y-65730000D03*
X102950000Y-65730000D03*
G36*
G01*
X147151000Y-97900000D02*
X147151000Y-99600000D01*
G75*
G02*
X147100000Y-99651000I-51000J0D01*
G01*
X145400000Y-99651000D01*
G75*
G02*
X145349000Y-99600000I0J51000D01*
G01*
X145349000Y-97900000D01*
G75*
G02*
X145400000Y-97849000I51000J0D01*
G01*
X147100000Y-97849000D01*
G75*
G02*
X147151000Y-97900000I0J-51000D01*
G01*
G37*
D10*
X146250000Y-96210000D03*
G36*
G01*
X140151000Y-70770248D02*
X140151000Y-71729752D01*
G75*
G02*
X139879752Y-72001000I-271248J0D01*
G01*
X139120248Y-72001000D01*
G75*
G02*
X138849000Y-71729752I0J271248D01*
G01*
X138849000Y-70770248D01*
G75*
G02*
X139120248Y-70499000I271248J0D01*
G01*
X139879752Y-70499000D01*
G75*
G02*
X140151000Y-70770248I0J-271248D01*
G01*
G37*
G36*
G01*
X142151000Y-70770248D02*
X142151000Y-71729752D01*
G75*
G02*
X141879752Y-72001000I-271248J0D01*
G01*
X141120248Y-72001000D01*
G75*
G02*
X140849000Y-71729752I0J271248D01*
G01*
X140849000Y-70770248D01*
G75*
G02*
X141120248Y-70499000I271248J0D01*
G01*
X141879752Y-70499000D01*
G75*
G02*
X142151000Y-70770248I0J-271248D01*
G01*
G37*
D12*
G36*
X109335020Y-76679950D02*
G01*
X109332118Y-76689517D01*
X109327405Y-76698334D01*
X109321062Y-76706062D01*
X109313334Y-76712405D01*
X109304517Y-76717118D01*
X109294950Y-76720020D01*
X109285000Y-76721000D01*
X107785000Y-76721000D01*
X107775050Y-76720020D01*
X107765483Y-76717118D01*
X107756666Y-76712405D01*
X107748938Y-76706062D01*
X107742595Y-76698334D01*
X107737882Y-76689517D01*
X107734980Y-76679950D01*
X107734000Y-76670000D01*
X107734000Y-76120000D01*
X107734602Y-76113888D01*
X107734602Y-76095466D01*
X107734848Y-76090467D01*
X107739658Y-76041636D01*
X107740392Y-76036686D01*
X107749964Y-75988561D01*
X107751180Y-75983705D01*
X107765424Y-75936750D01*
X107767110Y-75932039D01*
X107785887Y-75886706D01*
X107788027Y-75882180D01*
X107811158Y-75838907D01*
X107813731Y-75834616D01*
X107840991Y-75793817D01*
X107843973Y-75789796D01*
X107875101Y-75751867D01*
X107878462Y-75748159D01*
X107913159Y-75713462D01*
X107916867Y-75710101D01*
X107954796Y-75678973D01*
X107958817Y-75675991D01*
X107999616Y-75648731D01*
X108003907Y-75646158D01*
X108047180Y-75623027D01*
X108051706Y-75620887D01*
X108097039Y-75602110D01*
X108101750Y-75600424D01*
X108148705Y-75586180D01*
X108153561Y-75584964D01*
X108201686Y-75575392D01*
X108206636Y-75574658D01*
X108255467Y-75569848D01*
X108260466Y-75569602D01*
X108278888Y-75569602D01*
X108285000Y-75569000D01*
X108785000Y-75569000D01*
X108791112Y-75569602D01*
X108809534Y-75569602D01*
X108814533Y-75569848D01*
X108863364Y-75574658D01*
X108868314Y-75575392D01*
X108916439Y-75584964D01*
X108921295Y-75586180D01*
X108968250Y-75600424D01*
X108972961Y-75602110D01*
X109018294Y-75620887D01*
X109022820Y-75623027D01*
X109066093Y-75646158D01*
X109070384Y-75648731D01*
X109111183Y-75675991D01*
X109115204Y-75678973D01*
X109153133Y-75710101D01*
X109156841Y-75713462D01*
X109191538Y-75748159D01*
X109194899Y-75751867D01*
X109226027Y-75789796D01*
X109229009Y-75793817D01*
X109256269Y-75834616D01*
X109258842Y-75838907D01*
X109281973Y-75882180D01*
X109284113Y-75886706D01*
X109302890Y-75932039D01*
X109304576Y-75936750D01*
X109318820Y-75983705D01*
X109320036Y-75988561D01*
X109329608Y-76036686D01*
X109330342Y-76041636D01*
X109335152Y-76090467D01*
X109335398Y-76095466D01*
X109335398Y-76113888D01*
X109336000Y-76120000D01*
X109336000Y-76670000D01*
X109335020Y-76679950D01*
G37*
G36*
X109335398Y-78726112D02*
G01*
X109335398Y-78744534D01*
X109335152Y-78749533D01*
X109330342Y-78798364D01*
X109329608Y-78803314D01*
X109320036Y-78851439D01*
X109318820Y-78856295D01*
X109304576Y-78903250D01*
X109302890Y-78907961D01*
X109284113Y-78953294D01*
X109281973Y-78957820D01*
X109258842Y-79001093D01*
X109256269Y-79005384D01*
X109229009Y-79046183D01*
X109226027Y-79050204D01*
X109194899Y-79088133D01*
X109191538Y-79091841D01*
X109156841Y-79126538D01*
X109153133Y-79129899D01*
X109115204Y-79161027D01*
X109111183Y-79164009D01*
X109070384Y-79191269D01*
X109066093Y-79193842D01*
X109022820Y-79216973D01*
X109018294Y-79219113D01*
X108972961Y-79237890D01*
X108968250Y-79239576D01*
X108921295Y-79253820D01*
X108916439Y-79255036D01*
X108868314Y-79264608D01*
X108863364Y-79265342D01*
X108814533Y-79270152D01*
X108809534Y-79270398D01*
X108791112Y-79270398D01*
X108785000Y-79271000D01*
X108285000Y-79271000D01*
X108278888Y-79270398D01*
X108260466Y-79270398D01*
X108255467Y-79270152D01*
X108206636Y-79265342D01*
X108201686Y-79264608D01*
X108153561Y-79255036D01*
X108148705Y-79253820D01*
X108101750Y-79239576D01*
X108097039Y-79237890D01*
X108051706Y-79219113D01*
X108047180Y-79216973D01*
X108003907Y-79193842D01*
X107999616Y-79191269D01*
X107958817Y-79164009D01*
X107954796Y-79161027D01*
X107916867Y-79129899D01*
X107913159Y-79126538D01*
X107878462Y-79091841D01*
X107875101Y-79088133D01*
X107843973Y-79050204D01*
X107840991Y-79046183D01*
X107813731Y-79005384D01*
X107811158Y-79001093D01*
X107788027Y-78957820D01*
X107785887Y-78953294D01*
X107767110Y-78907961D01*
X107765424Y-78903250D01*
X107751180Y-78856295D01*
X107749964Y-78851439D01*
X107740392Y-78803314D01*
X107739658Y-78798364D01*
X107734848Y-78749533D01*
X107734602Y-78744534D01*
X107734602Y-78726112D01*
X107734000Y-78720000D01*
X107734000Y-78170000D01*
X107734980Y-78160050D01*
X107737882Y-78150483D01*
X107742595Y-78141666D01*
X107748938Y-78133938D01*
X107756666Y-78127595D01*
X107765483Y-78122882D01*
X107775050Y-78119980D01*
X107785000Y-78119000D01*
X109285000Y-78119000D01*
X109294950Y-78119980D01*
X109304517Y-78122882D01*
X109313334Y-78127595D01*
X109321062Y-78133938D01*
X109327405Y-78141666D01*
X109332118Y-78150483D01*
X109335020Y-78160050D01*
X109336000Y-78170000D01*
X109336000Y-78720000D01*
X109335398Y-78726112D01*
G37*
G36*
G01*
X107785000Y-76869000D02*
X109285000Y-76869000D01*
G75*
G02*
X109336000Y-76920000I0J-51000D01*
G01*
X109336000Y-77920000D01*
G75*
G02*
X109285000Y-77971000I-51000J0D01*
G01*
X107785000Y-77971000D01*
G75*
G02*
X107734000Y-77920000I0J51000D01*
G01*
X107734000Y-76920000D01*
G75*
G02*
X107785000Y-76869000I51000J0D01*
G01*
G37*
G36*
G01*
X159520248Y-77099000D02*
X160479752Y-77099000D01*
G75*
G02*
X160751000Y-77370248I0J-271248D01*
G01*
X160751000Y-78129752D01*
G75*
G02*
X160479752Y-78401000I-271248J0D01*
G01*
X159520248Y-78401000D01*
G75*
G02*
X159249000Y-78129752I0J271248D01*
G01*
X159249000Y-77370248D01*
G75*
G02*
X159520248Y-77099000I271248J0D01*
G01*
G37*
G36*
G01*
X159520248Y-75099000D02*
X160479752Y-75099000D01*
G75*
G02*
X160751000Y-75370248I0J-271248D01*
G01*
X160751000Y-76129752D01*
G75*
G02*
X160479752Y-76401000I-271248J0D01*
G01*
X159520248Y-76401000D01*
G75*
G02*
X159249000Y-76129752I0J271248D01*
G01*
X159249000Y-75370248D01*
G75*
G02*
X159520248Y-75099000I271248J0D01*
G01*
G37*
G36*
G01*
X170700000Y-107799000D02*
X171800000Y-107799000D01*
G75*
G02*
X171851000Y-107850000I0J-51000D01*
G01*
X171851000Y-108950000D01*
G75*
G02*
X171800000Y-109001000I-51000J0D01*
G01*
X170700000Y-109001000D01*
G75*
G02*
X170649000Y-108950000I0J51000D01*
G01*
X170649000Y-107850000D01*
G75*
G02*
X170700000Y-107799000I51000J0D01*
G01*
G37*
G36*
G01*
X170700000Y-104999000D02*
X171800000Y-104999000D01*
G75*
G02*
X171851000Y-105050000I0J-51000D01*
G01*
X171851000Y-106150000D01*
G75*
G02*
X171800000Y-106201000I-51000J0D01*
G01*
X170700000Y-106201000D01*
G75*
G02*
X170649000Y-106150000I0J51000D01*
G01*
X170649000Y-105050000D01*
G75*
G02*
X170700000Y-104999000I51000J0D01*
G01*
G37*
G36*
G01*
X174901000Y-85770248D02*
X174901000Y-86729752D01*
G75*
G02*
X174629752Y-87001000I-271248J0D01*
G01*
X173870248Y-87001000D01*
G75*
G02*
X173599000Y-86729752I0J271248D01*
G01*
X173599000Y-85770248D01*
G75*
G02*
X173870248Y-85499000I271248J0D01*
G01*
X174629752Y-85499000D01*
G75*
G02*
X174901000Y-85770248I0J-271248D01*
G01*
G37*
G36*
G01*
X176901000Y-85770248D02*
X176901000Y-86729752D01*
G75*
G02*
X176629752Y-87001000I-271248J0D01*
G01*
X175870248Y-87001000D01*
G75*
G02*
X175599000Y-86729752I0J271248D01*
G01*
X175599000Y-85770248D01*
G75*
G02*
X175870248Y-85499000I271248J0D01*
G01*
X176629752Y-85499000D01*
G75*
G02*
X176901000Y-85770248I0J-271248D01*
G01*
G37*
D13*
X180500000Y-86250000D03*
G36*
G01*
X181524000Y-86965600D02*
X181524000Y-85534400D01*
G75*
G02*
X181734400Y-85324000I210400J0D01*
G01*
X182365600Y-85324000D01*
G75*
G02*
X182576000Y-85534400I0J-210400D01*
G01*
X182576000Y-86965600D01*
G75*
G02*
X182365600Y-87176000I-210400J0D01*
G01*
X181734400Y-87176000D01*
G75*
G02*
X181524000Y-86965600I0J210400D01*
G01*
G37*
G36*
G01*
X178424000Y-86965600D02*
X178424000Y-85534400D01*
G75*
G02*
X178634400Y-85324000I210400J0D01*
G01*
X179265600Y-85324000D01*
G75*
G02*
X179476000Y-85534400I0J-210400D01*
G01*
X179476000Y-86965600D01*
G75*
G02*
X179265600Y-87176000I-210400J0D01*
G01*
X178634400Y-87176000D01*
G75*
G02*
X178424000Y-86965600I0J210400D01*
G01*
G37*
D12*
G36*
X172109950Y-72134980D02*
G01*
X172119517Y-72137882D01*
X172128334Y-72142595D01*
X172136062Y-72148938D01*
X172142405Y-72156666D01*
X172147118Y-72165483D01*
X172150020Y-72175050D01*
X172151000Y-72185000D01*
X172151000Y-73685000D01*
X172150020Y-73694950D01*
X172147118Y-73704517D01*
X172142405Y-73713334D01*
X172136062Y-73721062D01*
X172128334Y-73727405D01*
X172119517Y-73732118D01*
X172109950Y-73735020D01*
X172100000Y-73736000D01*
X171600000Y-73736000D01*
X171593888Y-73735398D01*
X171575466Y-73735398D01*
X171570467Y-73735152D01*
X171521636Y-73730342D01*
X171516686Y-73729608D01*
X171468561Y-73720036D01*
X171463705Y-73718820D01*
X171416750Y-73704576D01*
X171412039Y-73702890D01*
X171366706Y-73684113D01*
X171362180Y-73681973D01*
X171318907Y-73658842D01*
X171314616Y-73656269D01*
X171273817Y-73629009D01*
X171269796Y-73626027D01*
X171231867Y-73594899D01*
X171228159Y-73591538D01*
X171193462Y-73556841D01*
X171190101Y-73553133D01*
X171158973Y-73515204D01*
X171155991Y-73511183D01*
X171128731Y-73470384D01*
X171126158Y-73466093D01*
X171103027Y-73422820D01*
X171100887Y-73418294D01*
X171082110Y-73372961D01*
X171080424Y-73368250D01*
X171066180Y-73321295D01*
X171064964Y-73316439D01*
X171055392Y-73268314D01*
X171054658Y-73263364D01*
X171049848Y-73214533D01*
X171049602Y-73209534D01*
X171049602Y-73191112D01*
X171049000Y-73185000D01*
X171049000Y-72685000D01*
X171049602Y-72678888D01*
X171049602Y-72660466D01*
X171049848Y-72655467D01*
X171054658Y-72606636D01*
X171055392Y-72601686D01*
X171064964Y-72553561D01*
X171066180Y-72548705D01*
X171080424Y-72501750D01*
X171082110Y-72497039D01*
X171100887Y-72451706D01*
X171103027Y-72447180D01*
X171126158Y-72403907D01*
X171128731Y-72399616D01*
X171155991Y-72358817D01*
X171158973Y-72354796D01*
X171190101Y-72316867D01*
X171193462Y-72313159D01*
X171228159Y-72278462D01*
X171231867Y-72275101D01*
X171269796Y-72243973D01*
X171273817Y-72240991D01*
X171314616Y-72213731D01*
X171318907Y-72211158D01*
X171362180Y-72188027D01*
X171366706Y-72185887D01*
X171412039Y-72167110D01*
X171416750Y-72165424D01*
X171463705Y-72151180D01*
X171468561Y-72149964D01*
X171516686Y-72140392D01*
X171521636Y-72139658D01*
X171570467Y-72134848D01*
X171575466Y-72134602D01*
X171593888Y-72134602D01*
X171600000Y-72134000D01*
X172100000Y-72134000D01*
X172109950Y-72134980D01*
G37*
G36*
X172906112Y-72134602D02*
G01*
X172924534Y-72134602D01*
X172929533Y-72134848D01*
X172978364Y-72139658D01*
X172983314Y-72140392D01*
X173031439Y-72149964D01*
X173036295Y-72151180D01*
X173083250Y-72165424D01*
X173087961Y-72167110D01*
X173133294Y-72185887D01*
X173137820Y-72188027D01*
X173181093Y-72211158D01*
X173185384Y-72213731D01*
X173226183Y-72240991D01*
X173230204Y-72243973D01*
X173268133Y-72275101D01*
X173271841Y-72278462D01*
X173306538Y-72313159D01*
X173309899Y-72316867D01*
X173341027Y-72354796D01*
X173344009Y-72358817D01*
X173371269Y-72399616D01*
X173373842Y-72403907D01*
X173396973Y-72447180D01*
X173399113Y-72451706D01*
X173417890Y-72497039D01*
X173419576Y-72501750D01*
X173433820Y-72548705D01*
X173435036Y-72553561D01*
X173444608Y-72601686D01*
X173445342Y-72606636D01*
X173450152Y-72655467D01*
X173450398Y-72660466D01*
X173450398Y-72678888D01*
X173451000Y-72685000D01*
X173451000Y-73185000D01*
X173450398Y-73191112D01*
X173450398Y-73209534D01*
X173450152Y-73214533D01*
X173445342Y-73263364D01*
X173444608Y-73268314D01*
X173435036Y-73316439D01*
X173433820Y-73321295D01*
X173419576Y-73368250D01*
X173417890Y-73372961D01*
X173399113Y-73418294D01*
X173396973Y-73422820D01*
X173373842Y-73466093D01*
X173371269Y-73470384D01*
X173344009Y-73511183D01*
X173341027Y-73515204D01*
X173309899Y-73553133D01*
X173306538Y-73556841D01*
X173271841Y-73591538D01*
X173268133Y-73594899D01*
X173230204Y-73626027D01*
X173226183Y-73629009D01*
X173185384Y-73656269D01*
X173181093Y-73658842D01*
X173137820Y-73681973D01*
X173133294Y-73684113D01*
X173087961Y-73702890D01*
X173083250Y-73704576D01*
X173036295Y-73718820D01*
X173031439Y-73720036D01*
X172983314Y-73729608D01*
X172978364Y-73730342D01*
X172929533Y-73735152D01*
X172924534Y-73735398D01*
X172906112Y-73735398D01*
X172900000Y-73736000D01*
X172400000Y-73736000D01*
X172390050Y-73735020D01*
X172380483Y-73732118D01*
X172371666Y-73727405D01*
X172363938Y-73721062D01*
X172357595Y-73713334D01*
X172352882Y-73704517D01*
X172349980Y-73694950D01*
X172349000Y-73685000D01*
X172349000Y-72185000D01*
X172349980Y-72175050D01*
X172352882Y-72165483D01*
X172357595Y-72156666D01*
X172363938Y-72148938D01*
X172371666Y-72142595D01*
X172380483Y-72137882D01*
X172390050Y-72134980D01*
X172400000Y-72134000D01*
X172900000Y-72134000D01*
X172906112Y-72134602D01*
G37*
G36*
G01*
X164685001Y-74151000D02*
X164034999Y-74151000D01*
G75*
G02*
X163984000Y-74100001I0J50999D01*
G01*
X163984000Y-73039999D01*
G75*
G02*
X164034999Y-72989000I50999J0D01*
G01*
X164685001Y-72989000D01*
G75*
G02*
X164736000Y-73039999I0J-50999D01*
G01*
X164736000Y-74100001D01*
G75*
G02*
X164685001Y-74151000I-50999J0D01*
G01*
G37*
G36*
G01*
X165635001Y-74151000D02*
X164984999Y-74151000D01*
G75*
G02*
X164934000Y-74100001I0J50999D01*
G01*
X164934000Y-73039999D01*
G75*
G02*
X164984999Y-72989000I50999J0D01*
G01*
X165635001Y-72989000D01*
G75*
G02*
X165686000Y-73039999I0J-50999D01*
G01*
X165686000Y-74100001D01*
G75*
G02*
X165635001Y-74151000I-50999J0D01*
G01*
G37*
G36*
G01*
X163735001Y-74151000D02*
X163084999Y-74151000D01*
G75*
G02*
X163034000Y-74100001I0J50999D01*
G01*
X163034000Y-73039999D01*
G75*
G02*
X163084999Y-72989000I50999J0D01*
G01*
X163735001Y-72989000D01*
G75*
G02*
X163786000Y-73039999I0J-50999D01*
G01*
X163786000Y-74100001D01*
G75*
G02*
X163735001Y-74151000I-50999J0D01*
G01*
G37*
G36*
G01*
X163735001Y-76351000D02*
X163084999Y-76351000D01*
G75*
G02*
X163034000Y-76300001I0J50999D01*
G01*
X163034000Y-75239999D01*
G75*
G02*
X163084999Y-75189000I50999J0D01*
G01*
X163735001Y-75189000D01*
G75*
G02*
X163786000Y-75239999I0J-50999D01*
G01*
X163786000Y-76300001D01*
G75*
G02*
X163735001Y-76351000I-50999J0D01*
G01*
G37*
G36*
G01*
X164685001Y-76351000D02*
X164034999Y-76351000D01*
G75*
G02*
X163984000Y-76300001I0J50999D01*
G01*
X163984000Y-75239999D01*
G75*
G02*
X164034999Y-75189000I50999J0D01*
G01*
X164685001Y-75189000D01*
G75*
G02*
X164736000Y-75239999I0J-50999D01*
G01*
X164736000Y-76300001D01*
G75*
G02*
X164685001Y-76351000I-50999J0D01*
G01*
G37*
G36*
G01*
X165635001Y-76351000D02*
X164984999Y-76351000D01*
G75*
G02*
X164934000Y-76300001I0J50999D01*
G01*
X164934000Y-75239999D01*
G75*
G02*
X164984999Y-75189000I50999J0D01*
G01*
X165635001Y-75189000D01*
G75*
G02*
X165686000Y-75239999I0J-50999D01*
G01*
X165686000Y-76300001D01*
G75*
G02*
X165635001Y-76351000I-50999J0D01*
G01*
G37*
G36*
G01*
X164659000Y-70874752D02*
X164659000Y-69915248D01*
G75*
G02*
X164930248Y-69644000I271248J0D01*
G01*
X165689752Y-69644000D01*
G75*
G02*
X165961000Y-69915248I0J-271248D01*
G01*
X165961000Y-70874752D01*
G75*
G02*
X165689752Y-71146000I-271248J0D01*
G01*
X164930248Y-71146000D01*
G75*
G02*
X164659000Y-70874752I0J271248D01*
G01*
G37*
G36*
G01*
X162659000Y-70874752D02*
X162659000Y-69915248D01*
G75*
G02*
X162930248Y-69644000I271248J0D01*
G01*
X163689752Y-69644000D01*
G75*
G02*
X163961000Y-69915248I0J-271248D01*
G01*
X163961000Y-70874752D01*
G75*
G02*
X163689752Y-71146000I-271248J0D01*
G01*
X162930248Y-71146000D01*
G75*
G02*
X162659000Y-70874752I0J271248D01*
G01*
G37*
G36*
G01*
X168249500Y-75069000D02*
X169250500Y-75069000D01*
G75*
G02*
X169526000Y-75344500I0J-275500D01*
G01*
X169526000Y-75895500D01*
G75*
G02*
X169250500Y-76171000I-275500J0D01*
G01*
X168249500Y-76171000D01*
G75*
G02*
X167974000Y-75895500I0J275500D01*
G01*
X167974000Y-75344500D01*
G75*
G02*
X168249500Y-75069000I275500J0D01*
G01*
G37*
G36*
G01*
X168249500Y-73169000D02*
X169250500Y-73169000D01*
G75*
G02*
X169526000Y-73444500I0J-275500D01*
G01*
X169526000Y-73995500D01*
G75*
G02*
X169250500Y-74271000I-275500J0D01*
G01*
X168249500Y-74271000D01*
G75*
G02*
X167974000Y-73995500I0J275500D01*
G01*
X167974000Y-73444500D01*
G75*
G02*
X168249500Y-73169000I275500J0D01*
G01*
G37*
G36*
G01*
X163961000Y-78499500D02*
X163961000Y-79500500D01*
G75*
G02*
X163685500Y-79776000I-275500J0D01*
G01*
X163134500Y-79776000D01*
G75*
G02*
X162859000Y-79500500I0J275500D01*
G01*
X162859000Y-78499500D01*
G75*
G02*
X163134500Y-78224000I275500J0D01*
G01*
X163685500Y-78224000D01*
G75*
G02*
X163961000Y-78499500I0J-275500D01*
G01*
G37*
G36*
G01*
X165861000Y-78499500D02*
X165861000Y-79500500D01*
G75*
G02*
X165585500Y-79776000I-275500J0D01*
G01*
X165034500Y-79776000D01*
G75*
G02*
X164759000Y-79500500I0J275500D01*
G01*
X164759000Y-78499500D01*
G75*
G02*
X165034500Y-78224000I275500J0D01*
G01*
X165585500Y-78224000D01*
G75*
G02*
X165861000Y-78499500I0J-275500D01*
G01*
G37*
D14*
X108920000Y-113580000D03*
X114000000Y-113580000D03*
G36*
G01*
X114425500Y-109351000D02*
X113574500Y-109351000D01*
G75*
G02*
X113149000Y-108925500I0J425500D01*
G01*
X113149000Y-108074500D01*
G75*
G02*
X113574500Y-107649000I425500J0D01*
G01*
X114425500Y-107649000D01*
G75*
G02*
X114851000Y-108074500I0J-425500D01*
G01*
X114851000Y-108925500D01*
G75*
G02*
X114425500Y-109351000I-425500J0D01*
G01*
G37*
X111460000Y-108500000D03*
X108920000Y-108500000D03*
G36*
G01*
X175649000Y-106000500D02*
X175649000Y-104999500D01*
G75*
G02*
X175924500Y-104724000I275500J0D01*
G01*
X176475500Y-104724000D01*
G75*
G02*
X176751000Y-104999500I0J-275500D01*
G01*
X176751000Y-106000500D01*
G75*
G02*
X176475500Y-106276000I-275500J0D01*
G01*
X175924500Y-106276000D01*
G75*
G02*
X175649000Y-106000500I0J275500D01*
G01*
G37*
G36*
G01*
X173749000Y-106000500D02*
X173749000Y-104999500D01*
G75*
G02*
X174024500Y-104724000I275500J0D01*
G01*
X174575500Y-104724000D01*
G75*
G02*
X174851000Y-104999500I0J-275500D01*
G01*
X174851000Y-106000500D01*
G75*
G02*
X174575500Y-106276000I-275500J0D01*
G01*
X174024500Y-106276000D01*
G75*
G02*
X173749000Y-106000500I0J275500D01*
G01*
G37*
G36*
G01*
X182151000Y-108019816D02*
X182151000Y-108980184D01*
G75*
G02*
X181880184Y-109251000I-270816J0D01*
G01*
X181119816Y-109251000D01*
G75*
G02*
X180849000Y-108980184I0J270816D01*
G01*
X180849000Y-108019816D01*
G75*
G02*
X181119816Y-107749000I270816J0D01*
G01*
X181880184Y-107749000D01*
G75*
G02*
X182151000Y-108019816I0J-270816D01*
G01*
G37*
G36*
G01*
X180151000Y-108019816D02*
X180151000Y-108980184D01*
G75*
G02*
X179880184Y-109251000I-270816J0D01*
G01*
X179119816Y-109251000D01*
G75*
G02*
X178849000Y-108980184I0J270816D01*
G01*
X178849000Y-108019816D01*
G75*
G02*
X179119816Y-107749000I270816J0D01*
G01*
X179880184Y-107749000D01*
G75*
G02*
X180151000Y-108019816I0J-270816D01*
G01*
G37*
G36*
G01*
X176901000Y-108020248D02*
X176901000Y-108979752D01*
G75*
G02*
X176629752Y-109251000I-271248J0D01*
G01*
X175870248Y-109251000D01*
G75*
G02*
X175599000Y-108979752I0J271248D01*
G01*
X175599000Y-108020248D01*
G75*
G02*
X175870248Y-107749000I271248J0D01*
G01*
X176629752Y-107749000D01*
G75*
G02*
X176901000Y-108020248I0J-271248D01*
G01*
G37*
G36*
G01*
X174901000Y-108020248D02*
X174901000Y-108979752D01*
G75*
G02*
X174629752Y-109251000I-271248J0D01*
G01*
X173870248Y-109251000D01*
G75*
G02*
X173599000Y-108979752I0J271248D01*
G01*
X173599000Y-108020248D01*
G75*
G02*
X173870248Y-107749000I271248J0D01*
G01*
X174629752Y-107749000D01*
G75*
G02*
X174901000Y-108020248I0J-271248D01*
G01*
G37*
G36*
G01*
X174901000Y-90770248D02*
X174901000Y-91729752D01*
G75*
G02*
X174629752Y-92001000I-271248J0D01*
G01*
X173870248Y-92001000D01*
G75*
G02*
X173599000Y-91729752I0J271248D01*
G01*
X173599000Y-90770248D01*
G75*
G02*
X173870248Y-90499000I271248J0D01*
G01*
X174629752Y-90499000D01*
G75*
G02*
X174901000Y-90770248I0J-271248D01*
G01*
G37*
G36*
G01*
X176901000Y-90770248D02*
X176901000Y-91729752D01*
G75*
G02*
X176629752Y-92001000I-271248J0D01*
G01*
X175870248Y-92001000D01*
G75*
G02*
X175599000Y-91729752I0J271248D01*
G01*
X175599000Y-90770248D01*
G75*
G02*
X175870248Y-90499000I271248J0D01*
G01*
X176629752Y-90499000D01*
G75*
G02*
X176901000Y-90770248I0J-271248D01*
G01*
G37*
G36*
G01*
X174901000Y-95770248D02*
X174901000Y-96729752D01*
G75*
G02*
X174629752Y-97001000I-271248J0D01*
G01*
X173870248Y-97001000D01*
G75*
G02*
X173599000Y-96729752I0J271248D01*
G01*
X173599000Y-95770248D01*
G75*
G02*
X173870248Y-95499000I271248J0D01*
G01*
X174629752Y-95499000D01*
G75*
G02*
X174901000Y-95770248I0J-271248D01*
G01*
G37*
G36*
G01*
X176901000Y-95770248D02*
X176901000Y-96729752D01*
G75*
G02*
X176629752Y-97001000I-271248J0D01*
G01*
X175870248Y-97001000D01*
G75*
G02*
X175599000Y-96729752I0J271248D01*
G01*
X175599000Y-95770248D01*
G75*
G02*
X175870248Y-95499000I271248J0D01*
G01*
X176629752Y-95499000D01*
G75*
G02*
X176901000Y-95770248I0J-271248D01*
G01*
G37*
D15*
X165000000Y-113287500D03*
X170000000Y-113287500D03*
D16*
X164000000Y-115987500D03*
X171000000Y-115987500D03*
D13*
X180500000Y-91250000D03*
G36*
G01*
X181524000Y-91965600D02*
X181524000Y-90534400D01*
G75*
G02*
X181734400Y-90324000I210400J0D01*
G01*
X182365600Y-90324000D01*
G75*
G02*
X182576000Y-90534400I0J-210400D01*
G01*
X182576000Y-91965600D01*
G75*
G02*
X182365600Y-92176000I-210400J0D01*
G01*
X181734400Y-92176000D01*
G75*
G02*
X181524000Y-91965600I0J210400D01*
G01*
G37*
G36*
G01*
X178424000Y-91965600D02*
X178424000Y-90534400D01*
G75*
G02*
X178634400Y-90324000I210400J0D01*
G01*
X179265600Y-90324000D01*
G75*
G02*
X179476000Y-90534400I0J-210400D01*
G01*
X179476000Y-91965600D01*
G75*
G02*
X179265600Y-92176000I-210400J0D01*
G01*
X178634400Y-92176000D01*
G75*
G02*
X178424000Y-91965600I0J210400D01*
G01*
G37*
X180500000Y-96250000D03*
G36*
G01*
X181524000Y-96965600D02*
X181524000Y-95534400D01*
G75*
G02*
X181734400Y-95324000I210400J0D01*
G01*
X182365600Y-95324000D01*
G75*
G02*
X182576000Y-95534400I0J-210400D01*
G01*
X182576000Y-96965600D01*
G75*
G02*
X182365600Y-97176000I-210400J0D01*
G01*
X181734400Y-97176000D01*
G75*
G02*
X181524000Y-96965600I0J210400D01*
G01*
G37*
G36*
G01*
X178424000Y-96965600D02*
X178424000Y-95534400D01*
G75*
G02*
X178634400Y-95324000I210400J0D01*
G01*
X179265600Y-95324000D01*
G75*
G02*
X179476000Y-95534400I0J-210400D01*
G01*
X179476000Y-96965600D01*
G75*
G02*
X179265600Y-97176000I-210400J0D01*
G01*
X178634400Y-97176000D01*
G75*
G02*
X178424000Y-96965600I0J210400D01*
G01*
G37*
G36*
G01*
X175649000Y-103000500D02*
X175649000Y-101999500D01*
G75*
G02*
X175924500Y-101724000I275500J0D01*
G01*
X176475500Y-101724000D01*
G75*
G02*
X176751000Y-101999500I0J-275500D01*
G01*
X176751000Y-103000500D01*
G75*
G02*
X176475500Y-103276000I-275500J0D01*
G01*
X175924500Y-103276000D01*
G75*
G02*
X175649000Y-103000500I0J275500D01*
G01*
G37*
G36*
G01*
X173749000Y-103000500D02*
X173749000Y-101999500D01*
G75*
G02*
X174024500Y-101724000I275500J0D01*
G01*
X174575500Y-101724000D01*
G75*
G02*
X174851000Y-101999500I0J-275500D01*
G01*
X174851000Y-103000500D01*
G75*
G02*
X174575500Y-103276000I-275500J0D01*
G01*
X174024500Y-103276000D01*
G75*
G02*
X173749000Y-103000500I0J275500D01*
G01*
G37*
G36*
G01*
X155020248Y-104849000D02*
X155979752Y-104849000D01*
G75*
G02*
X156251000Y-105120248I0J-271248D01*
G01*
X156251000Y-105879752D01*
G75*
G02*
X155979752Y-106151000I-271248J0D01*
G01*
X155020248Y-106151000D01*
G75*
G02*
X154749000Y-105879752I0J271248D01*
G01*
X154749000Y-105120248D01*
G75*
G02*
X155020248Y-104849000I271248J0D01*
G01*
G37*
G36*
G01*
X155020248Y-102849000D02*
X155979752Y-102849000D01*
G75*
G02*
X156251000Y-103120248I0J-271248D01*
G01*
X156251000Y-103879752D01*
G75*
G02*
X155979752Y-104151000I-271248J0D01*
G01*
X155020248Y-104151000D01*
G75*
G02*
X154749000Y-103879752I0J271248D01*
G01*
X154749000Y-103120248D01*
G75*
G02*
X155020248Y-102849000I271248J0D01*
G01*
G37*
G36*
G01*
X152729752Y-106151000D02*
X151770248Y-106151000D01*
G75*
G02*
X151499000Y-105879752I0J271248D01*
G01*
X151499000Y-105120248D01*
G75*
G02*
X151770248Y-104849000I271248J0D01*
G01*
X152729752Y-104849000D01*
G75*
G02*
X153001000Y-105120248I0J-271248D01*
G01*
X153001000Y-105879752D01*
G75*
G02*
X152729752Y-106151000I-271248J0D01*
G01*
G37*
G36*
G01*
X152729752Y-104151000D02*
X151770248Y-104151000D01*
G75*
G02*
X151499000Y-103879752I0J271248D01*
G01*
X151499000Y-103120248D01*
G75*
G02*
X151770248Y-102849000I271248J0D01*
G01*
X152729752Y-102849000D01*
G75*
G02*
X153001000Y-103120248I0J-271248D01*
G01*
X153001000Y-103879752D01*
G75*
G02*
X152729752Y-104151000I-271248J0D01*
G01*
G37*
G36*
G01*
X149501000Y-103150000D02*
X149501000Y-103950000D01*
G75*
G02*
X149450000Y-104001000I-51000J0D01*
G01*
X148550000Y-104001000D01*
G75*
G02*
X148499000Y-103950000I0J51000D01*
G01*
X148499000Y-103150000D01*
G75*
G02*
X148550000Y-103099000I51000J0D01*
G01*
X149450000Y-103099000D01*
G75*
G02*
X149501000Y-103150000I0J-51000D01*
G01*
G37*
G36*
G01*
X149501000Y-105050000D02*
X149501000Y-105850000D01*
G75*
G02*
X149450000Y-105901000I-51000J0D01*
G01*
X148550000Y-105901000D01*
G75*
G02*
X148499000Y-105850000I0J51000D01*
G01*
X148499000Y-105050000D01*
G75*
G02*
X148550000Y-104999000I51000J0D01*
G01*
X149450000Y-104999000D01*
G75*
G02*
X149501000Y-105050000I0J-51000D01*
G01*
G37*
G36*
G01*
X147501000Y-104100000D02*
X147501000Y-104900000D01*
G75*
G02*
X147450000Y-104951000I-51000J0D01*
G01*
X146550000Y-104951000D01*
G75*
G02*
X146499000Y-104900000I0J51000D01*
G01*
X146499000Y-104100000D01*
G75*
G02*
X146550000Y-104049000I51000J0D01*
G01*
X147450000Y-104049000D01*
G75*
G02*
X147501000Y-104100000I0J-51000D01*
G01*
G37*
G36*
G01*
X161251000Y-103150000D02*
X161251000Y-103950000D01*
G75*
G02*
X161200000Y-104001000I-51000J0D01*
G01*
X160300000Y-104001000D01*
G75*
G02*
X160249000Y-103950000I0J51000D01*
G01*
X160249000Y-103150000D01*
G75*
G02*
X160300000Y-103099000I51000J0D01*
G01*
X161200000Y-103099000D01*
G75*
G02*
X161251000Y-103150000I0J-51000D01*
G01*
G37*
G36*
G01*
X161251000Y-105050000D02*
X161251000Y-105850000D01*
G75*
G02*
X161200000Y-105901000I-51000J0D01*
G01*
X160300000Y-105901000D01*
G75*
G02*
X160249000Y-105850000I0J51000D01*
G01*
X160249000Y-105050000D01*
G75*
G02*
X160300000Y-104999000I51000J0D01*
G01*
X161200000Y-104999000D01*
G75*
G02*
X161251000Y-105050000I0J-51000D01*
G01*
G37*
G36*
G01*
X159251000Y-104100000D02*
X159251000Y-104900000D01*
G75*
G02*
X159200000Y-104951000I-51000J0D01*
G01*
X158300000Y-104951000D01*
G75*
G02*
X158249000Y-104900000I0J51000D01*
G01*
X158249000Y-104100000D01*
G75*
G02*
X158300000Y-104049000I51000J0D01*
G01*
X159200000Y-104049000D01*
G75*
G02*
X159251000Y-104100000I0J-51000D01*
G01*
G37*
D12*
G36*
X160199980Y-97890050D02*
G01*
X160202882Y-97880483D01*
X160207595Y-97871666D01*
X160213938Y-97863938D01*
X160221666Y-97857595D01*
X160230483Y-97852882D01*
X160240050Y-97849980D01*
X160250000Y-97849000D01*
X161750000Y-97849000D01*
X161759950Y-97849980D01*
X161769517Y-97852882D01*
X161778334Y-97857595D01*
X161786062Y-97863938D01*
X161792405Y-97871666D01*
X161797118Y-97880483D01*
X161800020Y-97890050D01*
X161801000Y-97900000D01*
X161801000Y-98400000D01*
X161800398Y-98406112D01*
X161800398Y-98424534D01*
X161800152Y-98429533D01*
X161795342Y-98478364D01*
X161794608Y-98483314D01*
X161785036Y-98531439D01*
X161783820Y-98536295D01*
X161769576Y-98583250D01*
X161767890Y-98587961D01*
X161749113Y-98633294D01*
X161746973Y-98637820D01*
X161723842Y-98681093D01*
X161721269Y-98685384D01*
X161694009Y-98726183D01*
X161691027Y-98730204D01*
X161659899Y-98768133D01*
X161656538Y-98771841D01*
X161621841Y-98806538D01*
X161618133Y-98809899D01*
X161580204Y-98841027D01*
X161576183Y-98844009D01*
X161535384Y-98871269D01*
X161531093Y-98873842D01*
X161487820Y-98896973D01*
X161483294Y-98899113D01*
X161437961Y-98917890D01*
X161433250Y-98919576D01*
X161386295Y-98933820D01*
X161381439Y-98935036D01*
X161333314Y-98944608D01*
X161328364Y-98945342D01*
X161279533Y-98950152D01*
X161274534Y-98950398D01*
X161256112Y-98950398D01*
X161250000Y-98951000D01*
X160750000Y-98951000D01*
X160743888Y-98950398D01*
X160725466Y-98950398D01*
X160720467Y-98950152D01*
X160671636Y-98945342D01*
X160666686Y-98944608D01*
X160618561Y-98935036D01*
X160613705Y-98933820D01*
X160566750Y-98919576D01*
X160562039Y-98917890D01*
X160516706Y-98899113D01*
X160512180Y-98896973D01*
X160468907Y-98873842D01*
X160464616Y-98871269D01*
X160423817Y-98844009D01*
X160419796Y-98841027D01*
X160381867Y-98809899D01*
X160378159Y-98806538D01*
X160343462Y-98771841D01*
X160340101Y-98768133D01*
X160308973Y-98730204D01*
X160305991Y-98726183D01*
X160278731Y-98685384D01*
X160276158Y-98681093D01*
X160253027Y-98637820D01*
X160250887Y-98633294D01*
X160232110Y-98587961D01*
X160230424Y-98583250D01*
X160216180Y-98536295D01*
X160214964Y-98531439D01*
X160205392Y-98483314D01*
X160204658Y-98478364D01*
X160199848Y-98429533D01*
X160199602Y-98424534D01*
X160199602Y-98406112D01*
X160199000Y-98400000D01*
X160199000Y-97900000D01*
X160199980Y-97890050D01*
G37*
G36*
X160199602Y-97093888D02*
G01*
X160199602Y-97075466D01*
X160199848Y-97070467D01*
X160204658Y-97021636D01*
X160205392Y-97016686D01*
X160214964Y-96968561D01*
X160216180Y-96963705D01*
X160230424Y-96916750D01*
X160232110Y-96912039D01*
X160250887Y-96866706D01*
X160253027Y-96862180D01*
X160276158Y-96818907D01*
X160278731Y-96814616D01*
X160305991Y-96773817D01*
X160308973Y-96769796D01*
X160340101Y-96731867D01*
X160343462Y-96728159D01*
X160378159Y-96693462D01*
X160381867Y-96690101D01*
X160419796Y-96658973D01*
X160423817Y-96655991D01*
X160464616Y-96628731D01*
X160468907Y-96626158D01*
X160512180Y-96603027D01*
X160516706Y-96600887D01*
X160562039Y-96582110D01*
X160566750Y-96580424D01*
X160613705Y-96566180D01*
X160618561Y-96564964D01*
X160666686Y-96555392D01*
X160671636Y-96554658D01*
X160720467Y-96549848D01*
X160725466Y-96549602D01*
X160743888Y-96549602D01*
X160750000Y-96549000D01*
X161250000Y-96549000D01*
X161256112Y-96549602D01*
X161274534Y-96549602D01*
X161279533Y-96549848D01*
X161328364Y-96554658D01*
X161333314Y-96555392D01*
X161381439Y-96564964D01*
X161386295Y-96566180D01*
X161433250Y-96580424D01*
X161437961Y-96582110D01*
X161483294Y-96600887D01*
X161487820Y-96603027D01*
X161531093Y-96626158D01*
X161535384Y-96628731D01*
X161576183Y-96655991D01*
X161580204Y-96658973D01*
X161618133Y-96690101D01*
X161621841Y-96693462D01*
X161656538Y-96728159D01*
X161659899Y-96731867D01*
X161691027Y-96769796D01*
X161694009Y-96773817D01*
X161721269Y-96814616D01*
X161723842Y-96818907D01*
X161746973Y-96862180D01*
X161749113Y-96866706D01*
X161767890Y-96912039D01*
X161769576Y-96916750D01*
X161783820Y-96963705D01*
X161785036Y-96968561D01*
X161794608Y-97016686D01*
X161795342Y-97021636D01*
X161800152Y-97070467D01*
X161800398Y-97075466D01*
X161800398Y-97093888D01*
X161801000Y-97100000D01*
X161801000Y-97600000D01*
X161800020Y-97609950D01*
X161797118Y-97619517D01*
X161792405Y-97628334D01*
X161786062Y-97636062D01*
X161778334Y-97642405D01*
X161769517Y-97647118D01*
X161759950Y-97650020D01*
X161750000Y-97651000D01*
X160250000Y-97651000D01*
X160240050Y-97650020D01*
X160230483Y-97647118D01*
X160221666Y-97642405D01*
X160213938Y-97636062D01*
X160207595Y-97628334D01*
X160202882Y-97619517D01*
X160199980Y-97609950D01*
X160199000Y-97600000D01*
X160199000Y-97100000D01*
X160199602Y-97093888D01*
G37*
G36*
X154550050Y-108800020D02*
G01*
X154540483Y-108797118D01*
X154531666Y-108792405D01*
X154523938Y-108786062D01*
X154517595Y-108778334D01*
X154512882Y-108769517D01*
X154509980Y-108759950D01*
X154509000Y-108750000D01*
X154509000Y-107250000D01*
X154509980Y-107240050D01*
X154512882Y-107230483D01*
X154517595Y-107221666D01*
X154523938Y-107213938D01*
X154531666Y-107207595D01*
X154540483Y-107202882D01*
X154550050Y-107199980D01*
X154560000Y-107199000D01*
X155110000Y-107199000D01*
X155116112Y-107199602D01*
X155134534Y-107199602D01*
X155139533Y-107199848D01*
X155188364Y-107204658D01*
X155193314Y-107205392D01*
X155241439Y-107214964D01*
X155246295Y-107216180D01*
X155293250Y-107230424D01*
X155297961Y-107232110D01*
X155343294Y-107250887D01*
X155347820Y-107253027D01*
X155391093Y-107276158D01*
X155395384Y-107278731D01*
X155436183Y-107305991D01*
X155440204Y-107308973D01*
X155478133Y-107340101D01*
X155481841Y-107343462D01*
X155516538Y-107378159D01*
X155519899Y-107381867D01*
X155551027Y-107419796D01*
X155554009Y-107423817D01*
X155581269Y-107464616D01*
X155583842Y-107468907D01*
X155606973Y-107512180D01*
X155609113Y-107516706D01*
X155627890Y-107562039D01*
X155629576Y-107566750D01*
X155643820Y-107613705D01*
X155645036Y-107618561D01*
X155654608Y-107666686D01*
X155655342Y-107671636D01*
X155660152Y-107720467D01*
X155660398Y-107725466D01*
X155660398Y-107743888D01*
X155661000Y-107750000D01*
X155661000Y-108250000D01*
X155660398Y-108256112D01*
X155660398Y-108274534D01*
X155660152Y-108279533D01*
X155655342Y-108328364D01*
X155654608Y-108333314D01*
X155645036Y-108381439D01*
X155643820Y-108386295D01*
X155629576Y-108433250D01*
X155627890Y-108437961D01*
X155609113Y-108483294D01*
X155606973Y-108487820D01*
X155583842Y-108531093D01*
X155581269Y-108535384D01*
X155554009Y-108576183D01*
X155551027Y-108580204D01*
X155519899Y-108618133D01*
X155516538Y-108621841D01*
X155481841Y-108656538D01*
X155478133Y-108659899D01*
X155440204Y-108691027D01*
X155436183Y-108694009D01*
X155395384Y-108721269D01*
X155391093Y-108723842D01*
X155347820Y-108746973D01*
X155343294Y-108749113D01*
X155297961Y-108767890D01*
X155293250Y-108769576D01*
X155246295Y-108783820D01*
X155241439Y-108785036D01*
X155193314Y-108794608D01*
X155188364Y-108795342D01*
X155139533Y-108800152D01*
X155134534Y-108800398D01*
X155116112Y-108800398D01*
X155110000Y-108801000D01*
X154560000Y-108801000D01*
X154550050Y-108800020D01*
G37*
G36*
X152503888Y-108800398D02*
G01*
X152485466Y-108800398D01*
X152480467Y-108800152D01*
X152431636Y-108795342D01*
X152426686Y-108794608D01*
X152378561Y-108785036D01*
X152373705Y-108783820D01*
X152326750Y-108769576D01*
X152322039Y-108767890D01*
X152276706Y-108749113D01*
X152272180Y-108746973D01*
X152228907Y-108723842D01*
X152224616Y-108721269D01*
X152183817Y-108694009D01*
X152179796Y-108691027D01*
X152141867Y-108659899D01*
X152138159Y-108656538D01*
X152103462Y-108621841D01*
X152100101Y-108618133D01*
X152068973Y-108580204D01*
X152065991Y-108576183D01*
X152038731Y-108535384D01*
X152036158Y-108531093D01*
X152013027Y-108487820D01*
X152010887Y-108483294D01*
X151992110Y-108437961D01*
X151990424Y-108433250D01*
X151976180Y-108386295D01*
X151974964Y-108381439D01*
X151965392Y-108333314D01*
X151964658Y-108328364D01*
X151959848Y-108279533D01*
X151959602Y-108274534D01*
X151959602Y-108256112D01*
X151959000Y-108250000D01*
X151959000Y-107750000D01*
X151959602Y-107743888D01*
X151959602Y-107725466D01*
X151959848Y-107720467D01*
X151964658Y-107671636D01*
X151965392Y-107666686D01*
X151974964Y-107618561D01*
X151976180Y-107613705D01*
X151990424Y-107566750D01*
X151992110Y-107562039D01*
X152010887Y-107516706D01*
X152013027Y-107512180D01*
X152036158Y-107468907D01*
X152038731Y-107464616D01*
X152065991Y-107423817D01*
X152068973Y-107419796D01*
X152100101Y-107381867D01*
X152103462Y-107378159D01*
X152138159Y-107343462D01*
X152141867Y-107340101D01*
X152179796Y-107308973D01*
X152183817Y-107305991D01*
X152224616Y-107278731D01*
X152228907Y-107276158D01*
X152272180Y-107253027D01*
X152276706Y-107250887D01*
X152322039Y-107232110D01*
X152326750Y-107230424D01*
X152373705Y-107216180D01*
X152378561Y-107214964D01*
X152426686Y-107205392D01*
X152431636Y-107204658D01*
X152480467Y-107199848D01*
X152485466Y-107199602D01*
X152503888Y-107199602D01*
X152510000Y-107199000D01*
X153060000Y-107199000D01*
X153069950Y-107199980D01*
X153079517Y-107202882D01*
X153088334Y-107207595D01*
X153096062Y-107213938D01*
X153102405Y-107221666D01*
X153107118Y-107230483D01*
X153110020Y-107240050D01*
X153111000Y-107250000D01*
X153111000Y-108750000D01*
X153110020Y-108759950D01*
X153107118Y-108769517D01*
X153102405Y-108778334D01*
X153096062Y-108786062D01*
X153088334Y-108792405D01*
X153079517Y-108797118D01*
X153069950Y-108800020D01*
X153060000Y-108801000D01*
X152510000Y-108801000D01*
X152503888Y-108800398D01*
G37*
G36*
G01*
X154361000Y-107250000D02*
X154361000Y-108750000D01*
G75*
G02*
X154310000Y-108801000I-51000J0D01*
G01*
X153310000Y-108801000D01*
G75*
G02*
X153259000Y-108750000I0J51000D01*
G01*
X153259000Y-107250000D01*
G75*
G02*
X153310000Y-107199000I51000J0D01*
G01*
X154310000Y-107199000D01*
G75*
G02*
X154361000Y-107250000I0J-51000D01*
G01*
G37*
G36*
G01*
X172080000Y-66149000D02*
X173780000Y-66149000D01*
G75*
G02*
X173831000Y-66200000I0J-51000D01*
G01*
X173831000Y-67900000D01*
G75*
G02*
X173780000Y-67951000I-51000J0D01*
G01*
X172080000Y-67951000D01*
G75*
G02*
X172029000Y-67900000I0J51000D01*
G01*
X172029000Y-66200000D01*
G75*
G02*
X172080000Y-66149000I51000J0D01*
G01*
G37*
D10*
X170390000Y-67050000D03*
X167850000Y-67050000D03*
X165310000Y-67050000D03*
G36*
G01*
X186849000Y-71229752D02*
X186849000Y-70270248D01*
G75*
G02*
X187120248Y-69999000I271248J0D01*
G01*
X187879752Y-69999000D01*
G75*
G02*
X188151000Y-70270248I0J-271248D01*
G01*
X188151000Y-71229752D01*
G75*
G02*
X187879752Y-71501000I-271248J0D01*
G01*
X187120248Y-71501000D01*
G75*
G02*
X186849000Y-71229752I0J271248D01*
G01*
G37*
G36*
G01*
X188849000Y-71229752D02*
X188849000Y-70270248D01*
G75*
G02*
X189120248Y-69999000I271248J0D01*
G01*
X189879752Y-69999000D01*
G75*
G02*
X190151000Y-70270248I0J-271248D01*
G01*
X190151000Y-71229752D01*
G75*
G02*
X189879752Y-71501000I-271248J0D01*
G01*
X189120248Y-71501000D01*
G75*
G02*
X188849000Y-71229752I0J271248D01*
G01*
G37*
G36*
G01*
X142151000Y-67770248D02*
X142151000Y-68729752D01*
G75*
G02*
X141879752Y-69001000I-271248J0D01*
G01*
X141120248Y-69001000D01*
G75*
G02*
X140849000Y-68729752I0J271248D01*
G01*
X140849000Y-67770248D01*
G75*
G02*
X141120248Y-67499000I271248J0D01*
G01*
X141879752Y-67499000D01*
G75*
G02*
X142151000Y-67770248I0J-271248D01*
G01*
G37*
G36*
G01*
X140151000Y-67770248D02*
X140151000Y-68729752D01*
G75*
G02*
X139879752Y-69001000I-271248J0D01*
G01*
X139120248Y-69001000D01*
G75*
G02*
X138849000Y-68729752I0J271248D01*
G01*
X138849000Y-67770248D01*
G75*
G02*
X139120248Y-67499000I271248J0D01*
G01*
X139879752Y-67499000D01*
G75*
G02*
X140151000Y-67770248I0J-271248D01*
G01*
G37*
G36*
G01*
X128349000Y-115229752D02*
X128349000Y-114270248D01*
G75*
G02*
X128620248Y-113999000I271248J0D01*
G01*
X129379752Y-113999000D01*
G75*
G02*
X129651000Y-114270248I0J-271248D01*
G01*
X129651000Y-115229752D01*
G75*
G02*
X129379752Y-115501000I-271248J0D01*
G01*
X128620248Y-115501000D01*
G75*
G02*
X128349000Y-115229752I0J271248D01*
G01*
G37*
G36*
G01*
X130349000Y-115229752D02*
X130349000Y-114270248D01*
G75*
G02*
X130620248Y-113999000I271248J0D01*
G01*
X131379752Y-113999000D01*
G75*
G02*
X131651000Y-114270248I0J-271248D01*
G01*
X131651000Y-115229752D01*
G75*
G02*
X131379752Y-115501000I-271248J0D01*
G01*
X130620248Y-115501000D01*
G75*
G02*
X130349000Y-115229752I0J271248D01*
G01*
G37*
G36*
G01*
X200520248Y-69599000D02*
X201479752Y-69599000D01*
G75*
G02*
X201751000Y-69870248I0J-271248D01*
G01*
X201751000Y-70629752D01*
G75*
G02*
X201479752Y-70901000I-271248J0D01*
G01*
X200520248Y-70901000D01*
G75*
G02*
X200249000Y-70629752I0J271248D01*
G01*
X200249000Y-69870248D01*
G75*
G02*
X200520248Y-69599000I271248J0D01*
G01*
G37*
G36*
G01*
X200520248Y-71599000D02*
X201479752Y-71599000D01*
G75*
G02*
X201751000Y-71870248I0J-271248D01*
G01*
X201751000Y-72629752D01*
G75*
G02*
X201479752Y-72901000I-271248J0D01*
G01*
X200520248Y-72901000D01*
G75*
G02*
X200249000Y-72629752I0J271248D01*
G01*
X200249000Y-71870248D01*
G75*
G02*
X200520248Y-71599000I271248J0D01*
G01*
G37*
G36*
G01*
X133849000Y-68729752D02*
X133849000Y-67770248D01*
G75*
G02*
X134120248Y-67499000I271248J0D01*
G01*
X134879752Y-67499000D01*
G75*
G02*
X135151000Y-67770248I0J-271248D01*
G01*
X135151000Y-68729752D01*
G75*
G02*
X134879752Y-69001000I-271248J0D01*
G01*
X134120248Y-69001000D01*
G75*
G02*
X133849000Y-68729752I0J271248D01*
G01*
G37*
G36*
G01*
X135849000Y-68729752D02*
X135849000Y-67770248D01*
G75*
G02*
X136120248Y-67499000I271248J0D01*
G01*
X136879752Y-67499000D01*
G75*
G02*
X137151000Y-67770248I0J-271248D01*
G01*
X137151000Y-68729752D01*
G75*
G02*
X136879752Y-69001000I-271248J0D01*
G01*
X136120248Y-69001000D01*
G75*
G02*
X135849000Y-68729752I0J271248D01*
G01*
G37*
G36*
G01*
X137151000Y-70770248D02*
X137151000Y-71729752D01*
G75*
G02*
X136879752Y-72001000I-271248J0D01*
G01*
X136120248Y-72001000D01*
G75*
G02*
X135849000Y-71729752I0J271248D01*
G01*
X135849000Y-70770248D01*
G75*
G02*
X136120248Y-70499000I271248J0D01*
G01*
X136879752Y-70499000D01*
G75*
G02*
X137151000Y-70770248I0J-271248D01*
G01*
G37*
G36*
G01*
X135151000Y-70770248D02*
X135151000Y-71729752D01*
G75*
G02*
X134879752Y-72001000I-271248J0D01*
G01*
X134120248Y-72001000D01*
G75*
G02*
X133849000Y-71729752I0J271248D01*
G01*
X133849000Y-70770248D01*
G75*
G02*
X134120248Y-70499000I271248J0D01*
G01*
X134879752Y-70499000D01*
G75*
G02*
X135151000Y-70770248I0J-271248D01*
G01*
G37*
G36*
G01*
X131651000Y-109270248D02*
X131651000Y-110229752D01*
G75*
G02*
X131379752Y-110501000I-271248J0D01*
G01*
X130620248Y-110501000D01*
G75*
G02*
X130349000Y-110229752I0J271248D01*
G01*
X130349000Y-109270248D01*
G75*
G02*
X130620248Y-108999000I271248J0D01*
G01*
X131379752Y-108999000D01*
G75*
G02*
X131651000Y-109270248I0J-271248D01*
G01*
G37*
G36*
G01*
X129651000Y-109270248D02*
X129651000Y-110229752D01*
G75*
G02*
X129379752Y-110501000I-271248J0D01*
G01*
X128620248Y-110501000D01*
G75*
G02*
X128349000Y-110229752I0J271248D01*
G01*
X128349000Y-109270248D01*
G75*
G02*
X128620248Y-108999000I271248J0D01*
G01*
X129379752Y-108999000D01*
G75*
G02*
X129651000Y-109270248I0J-271248D01*
G01*
G37*
G36*
G01*
X190151000Y-76270248D02*
X190151000Y-77229752D01*
G75*
G02*
X189879752Y-77501000I-271248J0D01*
G01*
X189120248Y-77501000D01*
G75*
G02*
X188849000Y-77229752I0J271248D01*
G01*
X188849000Y-76270248D01*
G75*
G02*
X189120248Y-75999000I271248J0D01*
G01*
X189879752Y-75999000D01*
G75*
G02*
X190151000Y-76270248I0J-271248D01*
G01*
G37*
G36*
G01*
X188151000Y-76270248D02*
X188151000Y-77229752D01*
G75*
G02*
X187879752Y-77501000I-271248J0D01*
G01*
X187120248Y-77501000D01*
G75*
G02*
X186849000Y-77229752I0J271248D01*
G01*
X186849000Y-76270248D01*
G75*
G02*
X187120248Y-75999000I271248J0D01*
G01*
X187879752Y-75999000D01*
G75*
G02*
X188151000Y-76270248I0J-271248D01*
G01*
G37*
G36*
G01*
X190151000Y-73270248D02*
X190151000Y-74229752D01*
G75*
G02*
X189879752Y-74501000I-271248J0D01*
G01*
X189120248Y-74501000D01*
G75*
G02*
X188849000Y-74229752I0J271248D01*
G01*
X188849000Y-73270248D01*
G75*
G02*
X189120248Y-72999000I271248J0D01*
G01*
X189879752Y-72999000D01*
G75*
G02*
X190151000Y-73270248I0J-271248D01*
G01*
G37*
G36*
G01*
X188151000Y-73270248D02*
X188151000Y-74229752D01*
G75*
G02*
X187879752Y-74501000I-271248J0D01*
G01*
X187120248Y-74501000D01*
G75*
G02*
X186849000Y-74229752I0J271248D01*
G01*
X186849000Y-73270248D01*
G75*
G02*
X187120248Y-72999000I271248J0D01*
G01*
X187879752Y-72999000D01*
G75*
G02*
X188151000Y-73270248I0J-271248D01*
G01*
G37*
G36*
G01*
X154901000Y-79520248D02*
X154901000Y-80479752D01*
G75*
G02*
X154629752Y-80751000I-271248J0D01*
G01*
X153870248Y-80751000D01*
G75*
G02*
X153599000Y-80479752I0J271248D01*
G01*
X153599000Y-79520248D01*
G75*
G02*
X153870248Y-79249000I271248J0D01*
G01*
X154629752Y-79249000D01*
G75*
G02*
X154901000Y-79520248I0J-271248D01*
G01*
G37*
G36*
G01*
X152901000Y-79520248D02*
X152901000Y-80479752D01*
G75*
G02*
X152629752Y-80751000I-271248J0D01*
G01*
X151870248Y-80751000D01*
G75*
G02*
X151599000Y-80479752I0J271248D01*
G01*
X151599000Y-79520248D01*
G75*
G02*
X151870248Y-79249000I271248J0D01*
G01*
X152629752Y-79249000D01*
G75*
G02*
X152901000Y-79520248I0J-271248D01*
G01*
G37*
G36*
G01*
X152901000Y-77020248D02*
X152901000Y-77979752D01*
G75*
G02*
X152629752Y-78251000I-271248J0D01*
G01*
X151870248Y-78251000D01*
G75*
G02*
X151599000Y-77979752I0J271248D01*
G01*
X151599000Y-77020248D01*
G75*
G02*
X151870248Y-76749000I271248J0D01*
G01*
X152629752Y-76749000D01*
G75*
G02*
X152901000Y-77020248I0J-271248D01*
G01*
G37*
G36*
G01*
X154901000Y-77020248D02*
X154901000Y-77979752D01*
G75*
G02*
X154629752Y-78251000I-271248J0D01*
G01*
X153870248Y-78251000D01*
G75*
G02*
X153599000Y-77979752I0J271248D01*
G01*
X153599000Y-77020248D01*
G75*
G02*
X153870248Y-76749000I271248J0D01*
G01*
X154629752Y-76749000D01*
G75*
G02*
X154901000Y-77020248I0J-271248D01*
G01*
G37*
D12*
G36*
X163699602Y-97093888D02*
G01*
X163699602Y-97075466D01*
X163699848Y-97070467D01*
X163704658Y-97021636D01*
X163705392Y-97016686D01*
X163714964Y-96968561D01*
X163716180Y-96963705D01*
X163730424Y-96916750D01*
X163732110Y-96912039D01*
X163750887Y-96866706D01*
X163753027Y-96862180D01*
X163776158Y-96818907D01*
X163778731Y-96814616D01*
X163805991Y-96773817D01*
X163808973Y-96769796D01*
X163840101Y-96731867D01*
X163843462Y-96728159D01*
X163878159Y-96693462D01*
X163881867Y-96690101D01*
X163919796Y-96658973D01*
X163923817Y-96655991D01*
X163964616Y-96628731D01*
X163968907Y-96626158D01*
X164012180Y-96603027D01*
X164016706Y-96600887D01*
X164062039Y-96582110D01*
X164066750Y-96580424D01*
X164113705Y-96566180D01*
X164118561Y-96564964D01*
X164166686Y-96555392D01*
X164171636Y-96554658D01*
X164220467Y-96549848D01*
X164225466Y-96549602D01*
X164243888Y-96549602D01*
X164250000Y-96549000D01*
X164750000Y-96549000D01*
X164756112Y-96549602D01*
X164774534Y-96549602D01*
X164779533Y-96549848D01*
X164828364Y-96554658D01*
X164833314Y-96555392D01*
X164881439Y-96564964D01*
X164886295Y-96566180D01*
X164933250Y-96580424D01*
X164937961Y-96582110D01*
X164983294Y-96600887D01*
X164987820Y-96603027D01*
X165031093Y-96626158D01*
X165035384Y-96628731D01*
X165076183Y-96655991D01*
X165080204Y-96658973D01*
X165118133Y-96690101D01*
X165121841Y-96693462D01*
X165156538Y-96728159D01*
X165159899Y-96731867D01*
X165191027Y-96769796D01*
X165194009Y-96773817D01*
X165221269Y-96814616D01*
X165223842Y-96818907D01*
X165246973Y-96862180D01*
X165249113Y-96866706D01*
X165267890Y-96912039D01*
X165269576Y-96916750D01*
X165283820Y-96963705D01*
X165285036Y-96968561D01*
X165294608Y-97016686D01*
X165295342Y-97021636D01*
X165300152Y-97070467D01*
X165300398Y-97075466D01*
X165300398Y-97093888D01*
X165301000Y-97100000D01*
X165301000Y-97600000D01*
X165300020Y-97609950D01*
X165297118Y-97619517D01*
X165292405Y-97628334D01*
X165286062Y-97636062D01*
X165278334Y-97642405D01*
X165269517Y-97647118D01*
X165259950Y-97650020D01*
X165250000Y-97651000D01*
X163750000Y-97651000D01*
X163740050Y-97650020D01*
X163730483Y-97647118D01*
X163721666Y-97642405D01*
X163713938Y-97636062D01*
X163707595Y-97628334D01*
X163702882Y-97619517D01*
X163699980Y-97609950D01*
X163699000Y-97600000D01*
X163699000Y-97100000D01*
X163699602Y-97093888D01*
G37*
G36*
X163699980Y-97890050D02*
G01*
X163702882Y-97880483D01*
X163707595Y-97871666D01*
X163713938Y-97863938D01*
X163721666Y-97857595D01*
X163730483Y-97852882D01*
X163740050Y-97849980D01*
X163750000Y-97849000D01*
X165250000Y-97849000D01*
X165259950Y-97849980D01*
X165269517Y-97852882D01*
X165278334Y-97857595D01*
X165286062Y-97863938D01*
X165292405Y-97871666D01*
X165297118Y-97880483D01*
X165300020Y-97890050D01*
X165301000Y-97900000D01*
X165301000Y-98400000D01*
X165300398Y-98406112D01*
X165300398Y-98424534D01*
X165300152Y-98429533D01*
X165295342Y-98478364D01*
X165294608Y-98483314D01*
X165285036Y-98531439D01*
X165283820Y-98536295D01*
X165269576Y-98583250D01*
X165267890Y-98587961D01*
X165249113Y-98633294D01*
X165246973Y-98637820D01*
X165223842Y-98681093D01*
X165221269Y-98685384D01*
X165194009Y-98726183D01*
X165191027Y-98730204D01*
X165159899Y-98768133D01*
X165156538Y-98771841D01*
X165121841Y-98806538D01*
X165118133Y-98809899D01*
X165080204Y-98841027D01*
X165076183Y-98844009D01*
X165035384Y-98871269D01*
X165031093Y-98873842D01*
X164987820Y-98896973D01*
X164983294Y-98899113D01*
X164937961Y-98917890D01*
X164933250Y-98919576D01*
X164886295Y-98933820D01*
X164881439Y-98935036D01*
X164833314Y-98944608D01*
X164828364Y-98945342D01*
X164779533Y-98950152D01*
X164774534Y-98950398D01*
X164756112Y-98950398D01*
X164750000Y-98951000D01*
X164250000Y-98951000D01*
X164243888Y-98950398D01*
X164225466Y-98950398D01*
X164220467Y-98950152D01*
X164171636Y-98945342D01*
X164166686Y-98944608D01*
X164118561Y-98935036D01*
X164113705Y-98933820D01*
X164066750Y-98919576D01*
X164062039Y-98917890D01*
X164016706Y-98899113D01*
X164012180Y-98896973D01*
X163968907Y-98873842D01*
X163964616Y-98871269D01*
X163923817Y-98844009D01*
X163919796Y-98841027D01*
X163881867Y-98809899D01*
X163878159Y-98806538D01*
X163843462Y-98771841D01*
X163840101Y-98768133D01*
X163808973Y-98730204D01*
X163805991Y-98726183D01*
X163778731Y-98685384D01*
X163776158Y-98681093D01*
X163753027Y-98637820D01*
X163750887Y-98633294D01*
X163732110Y-98587961D01*
X163730424Y-98583250D01*
X163716180Y-98536295D01*
X163714964Y-98531439D01*
X163705392Y-98483314D01*
X163704658Y-98478364D01*
X163699848Y-98429533D01*
X163699602Y-98424534D01*
X163699602Y-98406112D01*
X163699000Y-98400000D01*
X163699000Y-97900000D01*
X163699980Y-97890050D01*
G37*
G36*
G01*
X202750500Y-83501000D02*
X201749500Y-83501000D01*
G75*
G02*
X201474000Y-83225500I0J275500D01*
G01*
X201474000Y-82674500D01*
G75*
G02*
X201749500Y-82399000I275500J0D01*
G01*
X202750500Y-82399000D01*
G75*
G02*
X203026000Y-82674500I0J-275500D01*
G01*
X203026000Y-83225500D01*
G75*
G02*
X202750500Y-83501000I-275500J0D01*
G01*
G37*
G36*
G01*
X202750500Y-81601000D02*
X201749500Y-81601000D01*
G75*
G02*
X201474000Y-81325500I0J275500D01*
G01*
X201474000Y-80774500D01*
G75*
G02*
X201749500Y-80499000I275500J0D01*
G01*
X202750500Y-80499000D01*
G75*
G02*
X203026000Y-80774500I0J-275500D01*
G01*
X203026000Y-81325500D01*
G75*
G02*
X202750500Y-81601000I-275500J0D01*
G01*
G37*
G36*
G01*
X188649000Y-111500500D02*
X188649000Y-110499500D01*
G75*
G02*
X188924500Y-110224000I275500J0D01*
G01*
X189475500Y-110224000D01*
G75*
G02*
X189751000Y-110499500I0J-275500D01*
G01*
X189751000Y-111500500D01*
G75*
G02*
X189475500Y-111776000I-275500J0D01*
G01*
X188924500Y-111776000D01*
G75*
G02*
X188649000Y-111500500I0J275500D01*
G01*
G37*
G36*
G01*
X186749000Y-111500500D02*
X186749000Y-110499500D01*
G75*
G02*
X187024500Y-110224000I275500J0D01*
G01*
X187575500Y-110224000D01*
G75*
G02*
X187851000Y-110499500I0J-275500D01*
G01*
X187851000Y-111500500D01*
G75*
G02*
X187575500Y-111776000I-275500J0D01*
G01*
X187024500Y-111776000D01*
G75*
G02*
X186749000Y-111500500I0J275500D01*
G01*
G37*
D17*
X174240000Y-112010000D03*
D18*
X175500000Y-114500000D03*
X180000000Y-114500000D03*
D17*
X181250000Y-112010000D03*
X184740000Y-112010000D03*
D18*
X186000000Y-114500000D03*
X190500000Y-114500000D03*
D17*
X191750000Y-112010000D03*
D19*
X213547056Y-109372944D03*
X211850000Y-108670000D03*
X210152944Y-109372944D03*
X209450000Y-111070000D03*
X210152944Y-112767056D03*
X211850000Y-113470000D03*
X213547056Y-112767056D03*
X214250000Y-111070000D03*
D20*
X211850000Y-111070000D03*
D19*
X89847056Y-109372943D03*
X88150000Y-108669999D03*
X86452944Y-109372943D03*
X85750000Y-111069999D03*
X86452944Y-112767055D03*
X88150000Y-113469999D03*
X89847056Y-112767055D03*
X90550000Y-111069999D03*
D20*
X88150000Y-111069999D03*
D19*
X213547056Y-67232944D03*
X211850000Y-66530000D03*
X210152944Y-67232944D03*
X209450000Y-68930000D03*
X210152944Y-70627056D03*
X211850000Y-71330000D03*
X213547056Y-70627056D03*
X214250000Y-68930000D03*
D20*
X211850000Y-68930000D03*
D19*
X89847056Y-67232944D03*
X88150000Y-66530000D03*
X86452944Y-67232944D03*
X85750000Y-68930000D03*
X86452944Y-70627056D03*
X88150000Y-71330000D03*
X89847056Y-70627056D03*
X90550000Y-68930000D03*
D20*
X88150000Y-68930000D03*
G36*
G01*
X212940000Y-81099000D02*
X214640000Y-81099000D01*
G75*
G02*
X214691000Y-81150000I0J-51000D01*
G01*
X214691000Y-82850000D01*
G75*
G02*
X214640000Y-82901000I-51000J0D01*
G01*
X212940000Y-82901000D01*
G75*
G02*
X212889000Y-82850000I0J51000D01*
G01*
X212889000Y-81150000D01*
G75*
G02*
X212940000Y-81099000I51000J0D01*
G01*
G37*
D10*
X211250000Y-82000000D03*
X208710000Y-82000000D03*
X206170000Y-82000000D03*
X153750000Y-96210000D03*
G36*
G01*
X154651000Y-97900000D02*
X154651000Y-99600000D01*
G75*
G02*
X154600000Y-99651000I-51000J0D01*
G01*
X152900000Y-99651000D01*
G75*
G02*
X152849000Y-99600000I0J51000D01*
G01*
X152849000Y-97900000D01*
G75*
G02*
X152900000Y-97849000I51000J0D01*
G01*
X154600000Y-97849000D01*
G75*
G02*
X154651000Y-97900000I0J-51000D01*
G01*
G37*
D21*
X204250000Y-67648000D03*
G36*
G01*
X205150000Y-71139000D02*
X203350000Y-71139000D01*
G75*
G02*
X203299000Y-71088000I0J51000D01*
G01*
X203299000Y-69288000D01*
G75*
G02*
X203350000Y-69237000I51000J0D01*
G01*
X205150000Y-69237000D01*
G75*
G02*
X205201000Y-69288000I0J-51000D01*
G01*
X205201000Y-71088000D01*
G75*
G02*
X205150000Y-71139000I-51000J0D01*
G01*
G37*
D12*
G36*
X139199980Y-113990050D02*
G01*
X139202882Y-113980483D01*
X139207595Y-113971666D01*
X139213938Y-113963938D01*
X139221666Y-113957595D01*
X139230483Y-113952882D01*
X139240050Y-113949980D01*
X139250000Y-113949000D01*
X140750000Y-113949000D01*
X140759950Y-113949980D01*
X140769517Y-113952882D01*
X140778334Y-113957595D01*
X140786062Y-113963938D01*
X140792405Y-113971666D01*
X140797118Y-113980483D01*
X140800020Y-113990050D01*
X140801000Y-114000000D01*
X140801000Y-114550000D01*
X140800398Y-114556112D01*
X140800398Y-114574534D01*
X140800152Y-114579533D01*
X140795342Y-114628364D01*
X140794608Y-114633314D01*
X140785036Y-114681439D01*
X140783820Y-114686295D01*
X140769576Y-114733250D01*
X140767890Y-114737961D01*
X140749113Y-114783294D01*
X140746973Y-114787820D01*
X140723842Y-114831093D01*
X140721269Y-114835384D01*
X140694009Y-114876183D01*
X140691027Y-114880204D01*
X140659899Y-114918133D01*
X140656538Y-114921841D01*
X140621841Y-114956538D01*
X140618133Y-114959899D01*
X140580204Y-114991027D01*
X140576183Y-114994009D01*
X140535384Y-115021269D01*
X140531093Y-115023842D01*
X140487820Y-115046973D01*
X140483294Y-115049113D01*
X140437961Y-115067890D01*
X140433250Y-115069576D01*
X140386295Y-115083820D01*
X140381439Y-115085036D01*
X140333314Y-115094608D01*
X140328364Y-115095342D01*
X140279533Y-115100152D01*
X140274534Y-115100398D01*
X140256112Y-115100398D01*
X140250000Y-115101000D01*
X139750000Y-115101000D01*
X139743888Y-115100398D01*
X139725466Y-115100398D01*
X139720467Y-115100152D01*
X139671636Y-115095342D01*
X139666686Y-115094608D01*
X139618561Y-115085036D01*
X139613705Y-115083820D01*
X139566750Y-115069576D01*
X139562039Y-115067890D01*
X139516706Y-115049113D01*
X139512180Y-115046973D01*
X139468907Y-115023842D01*
X139464616Y-115021269D01*
X139423817Y-114994009D01*
X139419796Y-114991027D01*
X139381867Y-114959899D01*
X139378159Y-114956538D01*
X139343462Y-114921841D01*
X139340101Y-114918133D01*
X139308973Y-114880204D01*
X139305991Y-114876183D01*
X139278731Y-114835384D01*
X139276158Y-114831093D01*
X139253027Y-114787820D01*
X139250887Y-114783294D01*
X139232110Y-114737961D01*
X139230424Y-114733250D01*
X139216180Y-114686295D01*
X139214964Y-114681439D01*
X139205392Y-114633314D01*
X139204658Y-114628364D01*
X139199848Y-114579533D01*
X139199602Y-114574534D01*
X139199602Y-114556112D01*
X139199000Y-114550000D01*
X139199000Y-114000000D01*
X139199980Y-113990050D01*
G37*
G36*
X139199602Y-111943888D02*
G01*
X139199602Y-111925466D01*
X139199848Y-111920467D01*
X139204658Y-111871636D01*
X139205392Y-111866686D01*
X139214964Y-111818561D01*
X139216180Y-111813705D01*
X139230424Y-111766750D01*
X139232110Y-111762039D01*
X139250887Y-111716706D01*
X139253027Y-111712180D01*
X139276158Y-111668907D01*
X139278731Y-111664616D01*
X139305991Y-111623817D01*
X139308973Y-111619796D01*
X139340101Y-111581867D01*
X139343462Y-111578159D01*
X139378159Y-111543462D01*
X139381867Y-111540101D01*
X139419796Y-111508973D01*
X139423817Y-111505991D01*
X139464616Y-111478731D01*
X139468907Y-111476158D01*
X139512180Y-111453027D01*
X139516706Y-111450887D01*
X139562039Y-111432110D01*
X139566750Y-111430424D01*
X139613705Y-111416180D01*
X139618561Y-111414964D01*
X139666686Y-111405392D01*
X139671636Y-111404658D01*
X139720467Y-111399848D01*
X139725466Y-111399602D01*
X139743888Y-111399602D01*
X139750000Y-111399000D01*
X140250000Y-111399000D01*
X140256112Y-111399602D01*
X140274534Y-111399602D01*
X140279533Y-111399848D01*
X140328364Y-111404658D01*
X140333314Y-111405392D01*
X140381439Y-111414964D01*
X140386295Y-111416180D01*
X140433250Y-111430424D01*
X140437961Y-111432110D01*
X140483294Y-111450887D01*
X140487820Y-111453027D01*
X140531093Y-111476158D01*
X140535384Y-111478731D01*
X140576183Y-111505991D01*
X140580204Y-111508973D01*
X140618133Y-111540101D01*
X140621841Y-111543462D01*
X140656538Y-111578159D01*
X140659899Y-111581867D01*
X140691027Y-111619796D01*
X140694009Y-111623817D01*
X140721269Y-111664616D01*
X140723842Y-111668907D01*
X140746973Y-111712180D01*
X140749113Y-111716706D01*
X140767890Y-111762039D01*
X140769576Y-111766750D01*
X140783820Y-111813705D01*
X140785036Y-111818561D01*
X140794608Y-111866686D01*
X140795342Y-111871636D01*
X140800152Y-111920467D01*
X140800398Y-111925466D01*
X140800398Y-111943888D01*
X140801000Y-111950000D01*
X140801000Y-112500000D01*
X140800020Y-112509950D01*
X140797118Y-112519517D01*
X140792405Y-112528334D01*
X140786062Y-112536062D01*
X140778334Y-112542405D01*
X140769517Y-112547118D01*
X140759950Y-112550020D01*
X140750000Y-112551000D01*
X139250000Y-112551000D01*
X139240050Y-112550020D01*
X139230483Y-112547118D01*
X139221666Y-112542405D01*
X139213938Y-112536062D01*
X139207595Y-112528334D01*
X139202882Y-112519517D01*
X139199980Y-112509950D01*
X139199000Y-112500000D01*
X139199000Y-111950000D01*
X139199602Y-111943888D01*
G37*
G36*
G01*
X140750000Y-113801000D02*
X139250000Y-113801000D01*
G75*
G02*
X139199000Y-113750000I0J51000D01*
G01*
X139199000Y-112750000D01*
G75*
G02*
X139250000Y-112699000I51000J0D01*
G01*
X140750000Y-112699000D01*
G75*
G02*
X140801000Y-112750000I0J-51000D01*
G01*
X140801000Y-113750000D01*
G75*
G02*
X140750000Y-113801000I-51000J0D01*
G01*
G37*
D10*
X114250000Y-74880000D03*
X114250000Y-77420000D03*
X114250000Y-79960000D03*
G36*
G01*
X115151000Y-81650000D02*
X115151000Y-83350000D01*
G75*
G02*
X115100000Y-83401000I-51000J0D01*
G01*
X113400000Y-83401000D01*
G75*
G02*
X113349000Y-83350000I0J51000D01*
G01*
X113349000Y-81650000D01*
G75*
G02*
X113400000Y-81599000I51000J0D01*
G01*
X115100000Y-81599000D01*
G75*
G02*
X115151000Y-81650000I0J-51000D01*
G01*
G37*
X121750000Y-87700000D03*
X121750000Y-85160000D03*
X121750000Y-82620000D03*
X121750000Y-80080000D03*
X121750000Y-77540000D03*
G36*
G01*
X120849000Y-75850000D02*
X120849000Y-74150000D01*
G75*
G02*
X120900000Y-74099000I51000J0D01*
G01*
X122600000Y-74099000D01*
G75*
G02*
X122651000Y-74150000I0J-51000D01*
G01*
X122651000Y-75850000D01*
G75*
G02*
X122600000Y-75901000I-51000J0D01*
G01*
X120900000Y-75901000D01*
G75*
G02*
X120849000Y-75850000I0J51000D01*
G01*
G37*
G36*
G01*
X155500000Y-112099000D02*
X157200000Y-112099000D01*
G75*
G02*
X157251000Y-112150000I0J-51000D01*
G01*
X157251000Y-113850000D01*
G75*
G02*
X157200000Y-113901000I-51000J0D01*
G01*
X155500000Y-113901000D01*
G75*
G02*
X155449000Y-113850000I0J51000D01*
G01*
X155449000Y-112150000D01*
G75*
G02*
X155500000Y-112099000I51000J0D01*
G01*
G37*
X153810000Y-113000000D03*
X151270000Y-113000000D03*
X148730000Y-113000000D03*
X146190000Y-113000000D03*
X143650000Y-113000000D03*
G36*
G01*
X88699000Y-106350500D02*
X88699000Y-104549500D01*
G75*
G02*
X89599500Y-103649000I900500J0D01*
G01*
X91400500Y-103649000D01*
G75*
G02*
X92301000Y-104549500I0J-900500D01*
G01*
X92301000Y-106350500D01*
G75*
G02*
X91400500Y-107251000I-900500J0D01*
G01*
X89599500Y-107251000D01*
G75*
G02*
X88699000Y-106350500I0J900500D01*
G01*
G37*
G36*
G01*
X85949000Y-101775500D02*
X85949000Y-99724500D01*
G75*
G02*
X86724500Y-98949000I775500J0D01*
G01*
X88275500Y-98949000D01*
G75*
G02*
X89051000Y-99724500I0J-775500D01*
G01*
X89051000Y-101775500D01*
G75*
G02*
X88275500Y-102551000I-775500J0D01*
G01*
X86724500Y-102551000D01*
G75*
G02*
X85949000Y-101775500I0J775500D01*
G01*
G37*
G36*
G01*
X91699000Y-102500000D02*
X91699000Y-99000000D01*
G75*
G02*
X91750000Y-98949000I51000J0D01*
G01*
X95250000Y-98949000D01*
G75*
G02*
X95301000Y-99000000I0J-51000D01*
G01*
X95301000Y-102500000D01*
G75*
G02*
X95250000Y-102551000I-51000J0D01*
G01*
X91750000Y-102551000D01*
G75*
G02*
X91699000Y-102500000I0J51000D01*
G01*
G37*
G36*
G01*
X122924000Y-115465600D02*
X122924000Y-114034400D01*
G75*
G02*
X123134400Y-113824000I210400J0D01*
G01*
X123765600Y-113824000D01*
G75*
G02*
X123976000Y-114034400I0J-210400D01*
G01*
X123976000Y-115465600D01*
G75*
G02*
X123765600Y-115676000I-210400J0D01*
G01*
X123134400Y-115676000D01*
G75*
G02*
X122924000Y-115465600I0J210400D01*
G01*
G37*
G36*
G01*
X126024000Y-115465600D02*
X126024000Y-114034400D01*
G75*
G02*
X126234400Y-113824000I210400J0D01*
G01*
X126865600Y-113824000D01*
G75*
G02*
X127076000Y-114034400I0J-210400D01*
G01*
X127076000Y-115465600D01*
G75*
G02*
X126865600Y-115676000I-210400J0D01*
G01*
X126234400Y-115676000D01*
G75*
G02*
X126024000Y-115465600I0J210400D01*
G01*
G37*
D13*
X125000000Y-114750000D03*
X204500000Y-75000000D03*
G36*
G01*
X205524000Y-75715600D02*
X205524000Y-74284400D01*
G75*
G02*
X205734400Y-74074000I210400J0D01*
G01*
X206365600Y-74074000D01*
G75*
G02*
X206576000Y-74284400I0J-210400D01*
G01*
X206576000Y-75715600D01*
G75*
G02*
X206365600Y-75926000I-210400J0D01*
G01*
X205734400Y-75926000D01*
G75*
G02*
X205524000Y-75715600I0J210400D01*
G01*
G37*
G36*
G01*
X202424000Y-75715600D02*
X202424000Y-74284400D01*
G75*
G02*
X202634400Y-74074000I210400J0D01*
G01*
X203265600Y-74074000D01*
G75*
G02*
X203476000Y-74284400I0J-210400D01*
G01*
X203476000Y-75715600D01*
G75*
G02*
X203265600Y-75926000I-210400J0D01*
G01*
X202634400Y-75926000D01*
G75*
G02*
X202424000Y-75715600I0J210400D01*
G01*
G37*
X125000000Y-109750000D03*
G36*
G01*
X126024000Y-110465600D02*
X126024000Y-109034400D01*
G75*
G02*
X126234400Y-108824000I210400J0D01*
G01*
X126865600Y-108824000D01*
G75*
G02*
X127076000Y-109034400I0J-210400D01*
G01*
X127076000Y-110465600D01*
G75*
G02*
X126865600Y-110676000I-210400J0D01*
G01*
X126234400Y-110676000D01*
G75*
G02*
X126024000Y-110465600I0J210400D01*
G01*
G37*
G36*
G01*
X122924000Y-110465600D02*
X122924000Y-109034400D01*
G75*
G02*
X123134400Y-108824000I210400J0D01*
G01*
X123765600Y-108824000D01*
G75*
G02*
X123976000Y-109034400I0J-210400D01*
G01*
X123976000Y-110465600D01*
G75*
G02*
X123765600Y-110676000I-210400J0D01*
G01*
X123134400Y-110676000D01*
G75*
G02*
X122924000Y-110465600I0J210400D01*
G01*
G37*
D12*
G36*
X123834658Y-113822010D02*
G01*
X123867092Y-113825204D01*
X123867477Y-113825280D01*
X123892764Y-113832951D01*
X123893126Y-113833101D01*
X123916429Y-113845557D01*
X123916755Y-113845775D01*
X123937183Y-113862540D01*
X123937460Y-113862817D01*
X123954225Y-113883245D01*
X123954443Y-113883571D01*
X123966898Y-113906873D01*
X123967048Y-113907235D01*
X123970736Y-113919392D01*
X123980001Y-113941756D01*
X123993396Y-113961803D01*
X124010443Y-113978850D01*
X124030491Y-113992244D01*
X124052765Y-114001470D01*
X124076415Y-114006174D01*
X124100521Y-114006174D01*
X124124172Y-114001469D01*
X124146445Y-113992242D01*
X124166492Y-113978847D01*
X124183539Y-113961800D01*
X124193625Y-113946705D01*
X124195419Y-113945820D01*
X124197082Y-113946931D01*
X124197052Y-113948759D01*
X124123248Y-114086838D01*
X124069243Y-114264865D01*
X124051000Y-114450094D01*
X124051000Y-115049906D01*
X124069243Y-115235136D01*
X124123249Y-115413163D01*
X124197055Y-115551246D01*
X124196989Y-115553245D01*
X124195226Y-115554188D01*
X124193628Y-115553300D01*
X124183538Y-115538198D01*
X124166491Y-115521151D01*
X124146443Y-115507756D01*
X124124169Y-115498529D01*
X124100519Y-115493825D01*
X124076413Y-115493825D01*
X124052763Y-115498529D01*
X124030489Y-115507756D01*
X124010442Y-115521150D01*
X123993395Y-115538197D01*
X123980000Y-115558245D01*
X123970736Y-115580609D01*
X123967049Y-115592763D01*
X123966899Y-115593125D01*
X123954443Y-115616429D01*
X123954225Y-115616755D01*
X123937460Y-115637183D01*
X123937183Y-115637460D01*
X123916755Y-115654225D01*
X123916429Y-115654443D01*
X123893126Y-115666899D01*
X123892764Y-115667049D01*
X123867477Y-115674720D01*
X123867092Y-115674796D01*
X123834658Y-115677990D01*
X123834462Y-115678000D01*
X123765600Y-115678000D01*
X123763868Y-115677000D01*
X123763868Y-115675000D01*
X123765404Y-115674010D01*
X123806252Y-115669987D01*
X123845348Y-115658127D01*
X123881376Y-115638870D01*
X123912954Y-115612954D01*
X123938870Y-115581376D01*
X123958127Y-115545348D01*
X123969987Y-115506252D01*
X123974000Y-115465506D01*
X123974000Y-114034494D01*
X123969987Y-113993748D01*
X123958127Y-113954652D01*
X123938870Y-113918624D01*
X123912954Y-113887046D01*
X123881376Y-113861130D01*
X123845348Y-113841873D01*
X123806252Y-113830013D01*
X123765404Y-113825990D01*
X123763778Y-113824825D01*
X123763974Y-113822835D01*
X123765600Y-113822000D01*
X123834462Y-113822000D01*
X123834658Y-113822010D01*
G37*
G36*
X126236132Y-113823000D02*
G01*
X126236132Y-113825000D01*
X126234596Y-113825990D01*
X126193748Y-113830013D01*
X126154652Y-113841873D01*
X126118624Y-113861130D01*
X126087046Y-113887046D01*
X126061130Y-113918624D01*
X126041873Y-113954652D01*
X126030013Y-113993748D01*
X126026000Y-114034494D01*
X126026000Y-115465506D01*
X126030013Y-115506252D01*
X126041873Y-115545348D01*
X126061130Y-115581376D01*
X126087046Y-115612954D01*
X126118624Y-115638870D01*
X126154652Y-115658127D01*
X126193748Y-115669987D01*
X126234596Y-115674010D01*
X126236222Y-115675175D01*
X126236026Y-115677165D01*
X126234400Y-115678000D01*
X126165538Y-115678000D01*
X126165342Y-115677990D01*
X126132908Y-115674796D01*
X126132523Y-115674720D01*
X126107236Y-115667049D01*
X126106874Y-115666899D01*
X126083571Y-115654443D01*
X126083245Y-115654225D01*
X126062817Y-115637460D01*
X126062540Y-115637183D01*
X126045775Y-115616755D01*
X126045557Y-115616429D01*
X126033102Y-115593127D01*
X126032952Y-115592765D01*
X126029264Y-115580608D01*
X126019999Y-115558244D01*
X126006604Y-115538197D01*
X125989557Y-115521150D01*
X125969509Y-115507756D01*
X125947235Y-115498530D01*
X125923585Y-115493826D01*
X125899479Y-115493826D01*
X125875828Y-115498531D01*
X125853555Y-115507758D01*
X125833508Y-115521153D01*
X125816461Y-115538200D01*
X125806375Y-115553295D01*
X125804581Y-115554180D01*
X125802918Y-115553069D01*
X125802948Y-115551241D01*
X125876752Y-115413163D01*
X125930757Y-115235136D01*
X125949000Y-115049905D01*
X125949000Y-114450094D01*
X125930757Y-114264864D01*
X125876752Y-114086837D01*
X125802944Y-113948751D01*
X125803010Y-113946752D01*
X125804773Y-113945809D01*
X125806371Y-113946697D01*
X125816463Y-113961801D01*
X125833510Y-113978848D01*
X125853557Y-113992242D01*
X125875831Y-114001469D01*
X125899481Y-114006173D01*
X125923587Y-114006173D01*
X125947237Y-114001469D01*
X125969511Y-113992242D01*
X125989559Y-113978847D01*
X126006606Y-113961800D01*
X126020000Y-113941753D01*
X126029263Y-113919392D01*
X126032950Y-113907239D01*
X126033100Y-113906877D01*
X126045557Y-113883571D01*
X126045775Y-113883245D01*
X126062540Y-113862817D01*
X126062817Y-113862540D01*
X126083245Y-113845775D01*
X126083571Y-113845557D01*
X126106874Y-113833101D01*
X126107236Y-113832951D01*
X126132523Y-113825280D01*
X126132908Y-113825204D01*
X126165342Y-113822010D01*
X126165538Y-113822000D01*
X126234400Y-113822000D01*
X126236132Y-113823000D01*
G37*
G36*
X140802732Y-113800000D02*
G01*
X140803000Y-113801000D01*
X140803000Y-113864252D01*
X140802764Y-113865195D01*
X140795421Y-113878933D01*
X140788421Y-113902008D01*
X140786058Y-113925999D01*
X140788421Y-113949990D01*
X140795478Y-113973253D01*
X140795024Y-113975201D01*
X140793110Y-113975782D01*
X140791800Y-113974777D01*
X140790734Y-113972782D01*
X140784641Y-113965359D01*
X140777218Y-113959266D01*
X140768748Y-113954739D01*
X140759555Y-113951950D01*
X140749906Y-113951000D01*
X139250094Y-113951000D01*
X139240445Y-113951950D01*
X139231252Y-113954739D01*
X139222782Y-113959266D01*
X139215359Y-113965359D01*
X139209266Y-113972782D01*
X139206100Y-113978707D01*
X139204402Y-113979763D01*
X139202638Y-113978820D01*
X139202422Y-113977184D01*
X139202912Y-113975567D01*
X139202978Y-113975382D01*
X139208644Y-113961703D01*
X139213349Y-113938053D01*
X139213349Y-113913946D01*
X139208645Y-113890296D01*
X139199419Y-113868022D01*
X139197337Y-113864906D01*
X139197000Y-113863795D01*
X139197000Y-113801000D01*
X139198000Y-113799268D01*
X139199000Y-113799000D01*
X140801000Y-113799000D01*
X140802732Y-113800000D01*
G37*
G36*
X140797362Y-112521180D02*
G01*
X140797578Y-112522816D01*
X140797088Y-112524433D01*
X140797022Y-112524618D01*
X140791356Y-112538297D01*
X140786651Y-112561947D01*
X140786651Y-112586054D01*
X140791355Y-112609704D01*
X140800581Y-112631978D01*
X140802663Y-112635094D01*
X140803000Y-112636205D01*
X140803000Y-112699000D01*
X140802000Y-112700732D01*
X140801000Y-112701000D01*
X139199000Y-112701000D01*
X139197268Y-112700000D01*
X139197000Y-112699000D01*
X139197000Y-112635748D01*
X139197236Y-112634805D01*
X139204579Y-112621067D01*
X139211579Y-112597992D01*
X139213942Y-112574001D01*
X139211579Y-112550010D01*
X139204522Y-112526747D01*
X139204976Y-112524799D01*
X139206890Y-112524218D01*
X139208200Y-112525223D01*
X139209266Y-112527218D01*
X139215359Y-112534641D01*
X139222782Y-112540734D01*
X139231252Y-112545261D01*
X139240445Y-112548050D01*
X139250094Y-112549000D01*
X140749906Y-112549000D01*
X140759555Y-112548050D01*
X140768748Y-112545261D01*
X140777218Y-112540734D01*
X140784641Y-112534641D01*
X140790734Y-112527218D01*
X140793900Y-112521293D01*
X140795598Y-112520237D01*
X140797362Y-112521180D01*
G37*
G36*
X126236132Y-108823000D02*
G01*
X126236132Y-108825000D01*
X126234596Y-108825990D01*
X126193748Y-108830013D01*
X126154652Y-108841873D01*
X126118624Y-108861130D01*
X126087046Y-108887046D01*
X126061130Y-108918624D01*
X126041873Y-108954652D01*
X126030013Y-108993748D01*
X126026000Y-109034494D01*
X126026000Y-110465506D01*
X126030013Y-110506252D01*
X126041873Y-110545348D01*
X126061130Y-110581376D01*
X126087046Y-110612954D01*
X126118624Y-110638870D01*
X126154652Y-110658127D01*
X126193748Y-110669987D01*
X126234596Y-110674010D01*
X126236222Y-110675175D01*
X126236026Y-110677165D01*
X126234400Y-110678000D01*
X126165538Y-110678000D01*
X126165342Y-110677990D01*
X126132908Y-110674796D01*
X126132523Y-110674720D01*
X126107236Y-110667049D01*
X126106874Y-110666899D01*
X126083571Y-110654443D01*
X126083245Y-110654225D01*
X126062817Y-110637460D01*
X126062540Y-110637183D01*
X126045775Y-110616755D01*
X126045557Y-110616429D01*
X126033102Y-110593127D01*
X126032952Y-110592765D01*
X126029264Y-110580608D01*
X126019999Y-110558244D01*
X126006604Y-110538197D01*
X125989557Y-110521150D01*
X125969509Y-110507756D01*
X125947235Y-110498530D01*
X125923585Y-110493826D01*
X125899479Y-110493826D01*
X125875828Y-110498531D01*
X125853555Y-110507758D01*
X125833508Y-110521153D01*
X125816461Y-110538200D01*
X125806375Y-110553295D01*
X125804581Y-110554180D01*
X125802918Y-110553069D01*
X125802948Y-110551241D01*
X125876752Y-110413163D01*
X125930757Y-110235136D01*
X125949000Y-110049905D01*
X125949000Y-109450094D01*
X125930757Y-109264864D01*
X125876752Y-109086837D01*
X125802944Y-108948751D01*
X125803010Y-108946752D01*
X125804773Y-108945809D01*
X125806371Y-108946697D01*
X125816463Y-108961801D01*
X125833510Y-108978848D01*
X125853557Y-108992242D01*
X125875831Y-109001469D01*
X125899481Y-109006173D01*
X125923587Y-109006173D01*
X125947237Y-109001469D01*
X125969511Y-108992242D01*
X125989559Y-108978847D01*
X126006606Y-108961800D01*
X126020000Y-108941753D01*
X126029263Y-108919392D01*
X126032950Y-108907239D01*
X126033100Y-108906877D01*
X126045557Y-108883571D01*
X126045775Y-108883245D01*
X126062540Y-108862817D01*
X126062817Y-108862540D01*
X126083245Y-108845775D01*
X126083571Y-108845557D01*
X126106874Y-108833101D01*
X126107236Y-108832951D01*
X126132523Y-108825280D01*
X126132908Y-108825204D01*
X126165342Y-108822010D01*
X126165538Y-108822000D01*
X126234400Y-108822000D01*
X126236132Y-108823000D01*
G37*
G36*
X123834658Y-108822010D02*
G01*
X123867092Y-108825204D01*
X123867477Y-108825280D01*
X123892764Y-108832951D01*
X123893126Y-108833101D01*
X123916429Y-108845557D01*
X123916755Y-108845775D01*
X123937183Y-108862540D01*
X123937460Y-108862817D01*
X123954225Y-108883245D01*
X123954443Y-108883571D01*
X123966898Y-108906873D01*
X123967048Y-108907235D01*
X123970736Y-108919392D01*
X123980001Y-108941756D01*
X123993396Y-108961803D01*
X124010443Y-108978850D01*
X124030491Y-108992244D01*
X124052765Y-109001470D01*
X124076415Y-109006174D01*
X124100521Y-109006174D01*
X124124172Y-109001469D01*
X124146445Y-108992242D01*
X124166492Y-108978847D01*
X124183539Y-108961800D01*
X124193625Y-108946705D01*
X124195419Y-108945820D01*
X124197082Y-108946931D01*
X124197052Y-108948759D01*
X124123248Y-109086838D01*
X124069243Y-109264865D01*
X124051000Y-109450094D01*
X124051000Y-110049906D01*
X124069243Y-110235136D01*
X124123249Y-110413163D01*
X124197055Y-110551246D01*
X124196989Y-110553245D01*
X124195226Y-110554188D01*
X124193628Y-110553300D01*
X124183538Y-110538198D01*
X124166491Y-110521151D01*
X124146443Y-110507756D01*
X124124169Y-110498529D01*
X124100519Y-110493825D01*
X124076413Y-110493825D01*
X124052763Y-110498529D01*
X124030489Y-110507756D01*
X124010442Y-110521150D01*
X123993395Y-110538197D01*
X123980000Y-110558245D01*
X123970736Y-110580609D01*
X123967049Y-110592763D01*
X123966899Y-110593125D01*
X123954443Y-110616429D01*
X123954225Y-110616755D01*
X123937460Y-110637183D01*
X123937183Y-110637460D01*
X123916755Y-110654225D01*
X123916429Y-110654443D01*
X123893126Y-110666899D01*
X123892764Y-110667049D01*
X123867477Y-110674720D01*
X123867092Y-110674796D01*
X123834658Y-110677990D01*
X123834462Y-110678000D01*
X123765600Y-110678000D01*
X123763868Y-110677000D01*
X123763868Y-110675000D01*
X123765404Y-110674010D01*
X123806252Y-110669987D01*
X123845348Y-110658127D01*
X123881376Y-110638870D01*
X123912954Y-110612954D01*
X123938870Y-110581376D01*
X123958127Y-110545348D01*
X123969987Y-110506252D01*
X123974000Y-110465506D01*
X123974000Y-109034494D01*
X123969987Y-108993748D01*
X123958127Y-108954652D01*
X123938870Y-108918624D01*
X123912954Y-108887046D01*
X123881376Y-108861130D01*
X123845348Y-108841873D01*
X123806252Y-108830013D01*
X123765404Y-108825990D01*
X123763778Y-108824825D01*
X123763974Y-108822835D01*
X123765600Y-108822000D01*
X123834462Y-108822000D01*
X123834658Y-108822010D01*
G37*
G36*
X114852165Y-108923874D02*
G01*
X114853000Y-108925500D01*
X114853000Y-108981860D01*
X114852990Y-108982056D01*
X114845422Y-109058894D01*
X114845346Y-109059279D01*
X114824722Y-109127266D01*
X114824572Y-109127628D01*
X114791085Y-109190278D01*
X114790867Y-109190604D01*
X114745798Y-109245521D01*
X114745521Y-109245798D01*
X114690604Y-109290867D01*
X114690278Y-109291085D01*
X114627628Y-109324572D01*
X114627266Y-109324722D01*
X114559279Y-109345346D01*
X114558894Y-109345422D01*
X114482056Y-109352990D01*
X114481860Y-109353000D01*
X114425500Y-109353000D01*
X114423768Y-109352000D01*
X114423768Y-109350000D01*
X114425304Y-109349010D01*
X114508116Y-109340854D01*
X114587563Y-109316754D01*
X114660779Y-109277619D01*
X114724953Y-109224953D01*
X114777619Y-109160779D01*
X114816754Y-109087563D01*
X114840854Y-109008116D01*
X114849010Y-108925304D01*
X114850175Y-108923678D01*
X114852165Y-108923874D01*
G37*
G36*
X113150990Y-108925304D02*
G01*
X113159146Y-109008116D01*
X113183246Y-109087563D01*
X113222381Y-109160779D01*
X113275047Y-109224953D01*
X113339221Y-109277619D01*
X113412437Y-109316754D01*
X113491884Y-109340854D01*
X113574696Y-109349010D01*
X113576322Y-109350175D01*
X113576126Y-109352165D01*
X113574500Y-109353000D01*
X113518140Y-109353000D01*
X113517944Y-109352990D01*
X113441106Y-109345422D01*
X113440721Y-109345346D01*
X113372734Y-109324722D01*
X113372372Y-109324572D01*
X113309722Y-109291085D01*
X113309396Y-109290867D01*
X113254479Y-109245798D01*
X113254202Y-109245521D01*
X113209133Y-109190604D01*
X113208915Y-109190278D01*
X113175428Y-109127628D01*
X113175278Y-109127266D01*
X113154654Y-109059279D01*
X113154578Y-109058894D01*
X113147010Y-108982056D01*
X113147000Y-108981860D01*
X113147000Y-108925500D01*
X113148000Y-108923768D01*
X113150000Y-108923768D01*
X113150990Y-108925304D01*
G37*
G36*
X154425195Y-107197236D02*
G01*
X154438933Y-107204579D01*
X154462008Y-107211579D01*
X154485999Y-107213942D01*
X154509990Y-107211579D01*
X154533253Y-107204522D01*
X154535201Y-107204976D01*
X154535782Y-107206890D01*
X154534777Y-107208200D01*
X154532782Y-107209266D01*
X154525359Y-107215359D01*
X154519266Y-107222782D01*
X154514739Y-107231252D01*
X154511950Y-107240445D01*
X154511000Y-107250094D01*
X154511000Y-108749906D01*
X154511950Y-108759555D01*
X154514739Y-108768748D01*
X154519266Y-108777218D01*
X154525359Y-108784641D01*
X154532782Y-108790734D01*
X154538707Y-108793900D01*
X154539763Y-108795598D01*
X154538820Y-108797362D01*
X154537184Y-108797578D01*
X154535567Y-108797088D01*
X154535382Y-108797022D01*
X154521703Y-108791356D01*
X154498053Y-108786651D01*
X154473946Y-108786651D01*
X154450296Y-108791355D01*
X154428022Y-108800581D01*
X154424906Y-108802663D01*
X154423795Y-108803000D01*
X154361000Y-108803000D01*
X154359268Y-108802000D01*
X154359000Y-108801000D01*
X154359000Y-107199000D01*
X154360000Y-107197268D01*
X154361000Y-107197000D01*
X154424252Y-107197000D01*
X154425195Y-107197236D01*
G37*
G36*
X153260732Y-107198000D02*
G01*
X153261000Y-107199000D01*
X153261000Y-108801000D01*
X153260000Y-108802732D01*
X153259000Y-108803000D01*
X153195748Y-108803000D01*
X153194805Y-108802764D01*
X153181067Y-108795421D01*
X153157992Y-108788421D01*
X153134001Y-108786058D01*
X153110010Y-108788421D01*
X153086746Y-108795478D01*
X153084798Y-108795024D01*
X153084217Y-108793110D01*
X153085222Y-108791800D01*
X153087218Y-108790733D01*
X153094641Y-108784641D01*
X153100734Y-108777218D01*
X153105261Y-108768748D01*
X153108050Y-108759555D01*
X153109000Y-108749906D01*
X153109000Y-107250094D01*
X153108050Y-107240445D01*
X153105261Y-107231252D01*
X153100734Y-107222782D01*
X153094641Y-107215359D01*
X153087218Y-107209266D01*
X153081293Y-107206100D01*
X153080237Y-107204402D01*
X153081180Y-107202638D01*
X153082816Y-107202422D01*
X153084433Y-107202912D01*
X153084618Y-107202978D01*
X153098297Y-107208644D01*
X153121947Y-107213349D01*
X153146054Y-107213349D01*
X153169704Y-107208645D01*
X153191978Y-107199419D01*
X153195094Y-107197337D01*
X153196205Y-107197000D01*
X153259000Y-107197000D01*
X153260732Y-107198000D01*
G37*
G36*
X113576232Y-107648000D02*
G01*
X113576232Y-107650000D01*
X113574696Y-107650990D01*
X113491884Y-107659146D01*
X113412437Y-107683246D01*
X113339221Y-107722381D01*
X113275047Y-107775047D01*
X113222381Y-107839221D01*
X113183246Y-107912437D01*
X113159146Y-107991884D01*
X113150990Y-108074696D01*
X113149825Y-108076322D01*
X113147835Y-108076126D01*
X113147000Y-108074500D01*
X113147000Y-108018140D01*
X113147010Y-108017944D01*
X113154578Y-107941106D01*
X113154654Y-107940721D01*
X113175278Y-107872734D01*
X113175428Y-107872372D01*
X113208915Y-107809722D01*
X113209133Y-107809396D01*
X113254202Y-107754479D01*
X113254479Y-107754202D01*
X113309396Y-107709133D01*
X113309722Y-107708915D01*
X113372372Y-107675428D01*
X113372734Y-107675278D01*
X113440721Y-107654654D01*
X113441106Y-107654578D01*
X113517944Y-107647010D01*
X113518140Y-107647000D01*
X113574500Y-107647000D01*
X113576232Y-107648000D01*
G37*
G36*
X114482056Y-107647010D02*
G01*
X114558894Y-107654578D01*
X114559279Y-107654654D01*
X114627266Y-107675278D01*
X114627628Y-107675428D01*
X114690278Y-107708915D01*
X114690604Y-107709133D01*
X114745521Y-107754202D01*
X114745798Y-107754479D01*
X114790867Y-107809396D01*
X114791085Y-107809722D01*
X114824572Y-107872372D01*
X114824722Y-107872734D01*
X114845346Y-107940721D01*
X114845422Y-107941106D01*
X114852990Y-108017944D01*
X114853000Y-108018140D01*
X114853000Y-108074500D01*
X114852000Y-108076232D01*
X114850000Y-108076232D01*
X114849010Y-108074696D01*
X114840854Y-107991884D01*
X114816754Y-107912437D01*
X114777619Y-107839221D01*
X114724953Y-107775047D01*
X114660779Y-107722381D01*
X114587563Y-107683246D01*
X114508116Y-107659146D01*
X114425304Y-107650990D01*
X114423678Y-107649825D01*
X114423874Y-107647835D01*
X114425500Y-107647000D01*
X114481860Y-107647000D01*
X114482056Y-107647010D01*
G37*
G36*
X88700990Y-106350304D02*
G01*
X88718273Y-106525784D01*
X88769403Y-106694337D01*
X88852433Y-106849675D01*
X88964171Y-106985829D01*
X89100325Y-107097567D01*
X89255663Y-107180597D01*
X89424216Y-107231727D01*
X89599696Y-107249010D01*
X89601322Y-107250175D01*
X89601126Y-107252165D01*
X89599500Y-107253000D01*
X89543140Y-107253000D01*
X89542944Y-107252990D01*
X89373438Y-107236295D01*
X89373053Y-107236219D01*
X89215959Y-107188565D01*
X89215597Y-107188415D01*
X89070826Y-107111033D01*
X89070500Y-107110815D01*
X88943603Y-107006674D01*
X88943326Y-107006397D01*
X88839185Y-106879500D01*
X88838967Y-106879174D01*
X88761585Y-106734403D01*
X88761435Y-106734041D01*
X88713781Y-106576947D01*
X88713705Y-106576562D01*
X88697010Y-106407056D01*
X88697000Y-106406860D01*
X88697000Y-106350500D01*
X88698000Y-106348768D01*
X88700000Y-106348768D01*
X88700990Y-106350304D01*
G37*
G36*
X92302165Y-106348874D02*
G01*
X92303000Y-106350500D01*
X92303000Y-106406860D01*
X92302990Y-106407056D01*
X92286295Y-106576562D01*
X92286219Y-106576947D01*
X92238565Y-106734041D01*
X92238415Y-106734403D01*
X92161033Y-106879174D01*
X92160815Y-106879500D01*
X92056674Y-107006397D01*
X92056397Y-107006674D01*
X91929500Y-107110815D01*
X91929174Y-107111033D01*
X91784403Y-107188415D01*
X91784041Y-107188565D01*
X91626947Y-107236219D01*
X91626562Y-107236295D01*
X91457056Y-107252990D01*
X91456860Y-107253000D01*
X91400500Y-107253000D01*
X91398768Y-107252000D01*
X91398768Y-107250000D01*
X91400304Y-107249010D01*
X91575784Y-107231727D01*
X91744337Y-107180597D01*
X91899675Y-107097567D01*
X92035829Y-106985829D01*
X92147567Y-106849675D01*
X92230597Y-106694337D01*
X92281727Y-106525784D01*
X92299010Y-106350304D01*
X92300175Y-106348678D01*
X92302165Y-106348874D01*
G37*
G36*
X89601232Y-103648000D02*
G01*
X89601232Y-103650000D01*
X89599696Y-103650990D01*
X89424216Y-103668273D01*
X89255663Y-103719403D01*
X89100325Y-103802433D01*
X88964171Y-103914171D01*
X88852433Y-104050325D01*
X88769403Y-104205663D01*
X88718273Y-104374216D01*
X88700990Y-104549696D01*
X88699825Y-104551322D01*
X88697835Y-104551126D01*
X88697000Y-104549500D01*
X88697000Y-104493140D01*
X88697010Y-104492944D01*
X88713705Y-104323438D01*
X88713781Y-104323053D01*
X88761435Y-104165959D01*
X88761585Y-104165597D01*
X88838967Y-104020826D01*
X88839185Y-104020500D01*
X88943326Y-103893603D01*
X88943603Y-103893326D01*
X89070500Y-103789185D01*
X89070826Y-103788967D01*
X89215597Y-103711585D01*
X89215959Y-103711435D01*
X89373053Y-103663781D01*
X89373438Y-103663705D01*
X89542944Y-103647010D01*
X89543140Y-103647000D01*
X89599500Y-103647000D01*
X89601232Y-103648000D01*
G37*
G36*
X91457056Y-103647010D02*
G01*
X91626562Y-103663705D01*
X91626947Y-103663781D01*
X91784041Y-103711435D01*
X91784403Y-103711585D01*
X91929174Y-103788967D01*
X91929500Y-103789185D01*
X92056397Y-103893326D01*
X92056674Y-103893603D01*
X92160815Y-104020500D01*
X92161033Y-104020826D01*
X92238415Y-104165597D01*
X92238565Y-104165959D01*
X92286219Y-104323053D01*
X92286295Y-104323438D01*
X92302990Y-104492944D01*
X92303000Y-104493140D01*
X92303000Y-104549500D01*
X92302000Y-104551232D01*
X92300000Y-104551232D01*
X92299010Y-104549696D01*
X92281727Y-104374216D01*
X92230597Y-104205663D01*
X92147567Y-104050325D01*
X92035829Y-103914171D01*
X91899675Y-103802433D01*
X91744337Y-103719403D01*
X91575784Y-103668273D01*
X91400304Y-103650990D01*
X91398678Y-103649825D01*
X91398874Y-103647835D01*
X91400500Y-103647000D01*
X91456860Y-103647000D01*
X91457056Y-103647010D01*
G37*
G36*
X85950990Y-101775304D02*
G01*
X85965871Y-101926398D01*
X86009888Y-102071502D01*
X86081366Y-102205229D01*
X86177560Y-102322440D01*
X86294771Y-102418634D01*
X86428498Y-102490112D01*
X86573602Y-102534129D01*
X86724696Y-102549010D01*
X86726322Y-102550175D01*
X86726126Y-102552165D01*
X86724500Y-102553000D01*
X86668140Y-102553000D01*
X86667944Y-102552990D01*
X86522825Y-102538697D01*
X86522440Y-102538621D01*
X86388794Y-102498080D01*
X86388432Y-102497930D01*
X86265273Y-102432100D01*
X86264947Y-102431882D01*
X86156991Y-102343286D01*
X86156714Y-102343009D01*
X86068118Y-102235053D01*
X86067900Y-102234727D01*
X86002070Y-102111568D01*
X86001920Y-102111206D01*
X85961379Y-101977560D01*
X85961303Y-101977175D01*
X85947010Y-101832056D01*
X85947000Y-101831860D01*
X85947000Y-101775500D01*
X85948000Y-101773768D01*
X85950000Y-101773768D01*
X85950990Y-101775304D01*
G37*
G36*
X89052165Y-101773874D02*
G01*
X89053000Y-101775500D01*
X89053000Y-101831860D01*
X89052990Y-101832056D01*
X89038697Y-101977175D01*
X89038621Y-101977560D01*
X88998080Y-102111206D01*
X88997930Y-102111568D01*
X88932100Y-102234727D01*
X88931882Y-102235053D01*
X88843286Y-102343009D01*
X88843009Y-102343286D01*
X88735053Y-102431882D01*
X88734727Y-102432100D01*
X88611568Y-102497930D01*
X88611206Y-102498080D01*
X88477560Y-102538621D01*
X88477175Y-102538697D01*
X88332056Y-102552990D01*
X88331860Y-102553000D01*
X88275500Y-102553000D01*
X88273768Y-102552000D01*
X88273768Y-102550000D01*
X88275304Y-102549010D01*
X88426398Y-102534129D01*
X88571502Y-102490112D01*
X88705229Y-102418634D01*
X88822440Y-102322440D01*
X88918634Y-102205229D01*
X88990112Y-102071502D01*
X89034129Y-101926398D01*
X89049010Y-101775304D01*
X89050175Y-101773678D01*
X89052165Y-101773874D01*
G37*
G36*
X86726232Y-98948000D02*
G01*
X86726232Y-98950000D01*
X86724696Y-98950990D01*
X86573602Y-98965871D01*
X86428498Y-99009888D01*
X86294771Y-99081366D01*
X86177560Y-99177560D01*
X86081366Y-99294771D01*
X86009888Y-99428498D01*
X85965871Y-99573602D01*
X85950990Y-99724696D01*
X85949825Y-99726322D01*
X85947835Y-99726126D01*
X85947000Y-99724500D01*
X85947000Y-99668140D01*
X85947010Y-99667944D01*
X85961303Y-99522825D01*
X85961379Y-99522440D01*
X86001920Y-99388794D01*
X86002070Y-99388432D01*
X86067900Y-99265273D01*
X86068118Y-99264947D01*
X86156714Y-99156991D01*
X86156991Y-99156714D01*
X86264947Y-99068118D01*
X86265273Y-99067900D01*
X86388432Y-99002070D01*
X86388794Y-99001920D01*
X86522440Y-98961379D01*
X86522825Y-98961303D01*
X86667944Y-98947010D01*
X86668140Y-98947000D01*
X86724500Y-98947000D01*
X86726232Y-98948000D01*
G37*
G36*
X88332056Y-98947010D02*
G01*
X88477175Y-98961303D01*
X88477560Y-98961379D01*
X88611206Y-99001920D01*
X88611568Y-99002070D01*
X88734727Y-99067900D01*
X88735053Y-99068118D01*
X88843009Y-99156714D01*
X88843286Y-99156991D01*
X88931882Y-99264947D01*
X88932100Y-99265273D01*
X88997930Y-99388432D01*
X88998080Y-99388794D01*
X89038621Y-99522440D01*
X89038697Y-99522825D01*
X89052990Y-99667944D01*
X89053000Y-99668140D01*
X89053000Y-99724500D01*
X89052000Y-99726232D01*
X89050000Y-99726232D01*
X89049010Y-99724696D01*
X89034129Y-99573602D01*
X88990112Y-99428498D01*
X88918634Y-99294771D01*
X88822440Y-99177560D01*
X88705229Y-99081366D01*
X88571502Y-99009888D01*
X88426398Y-98965871D01*
X88275304Y-98950990D01*
X88273678Y-98949825D01*
X88273874Y-98947835D01*
X88275500Y-98947000D01*
X88331860Y-98947000D01*
X88332056Y-98947010D01*
G37*
G36*
X163725333Y-97642097D02*
G01*
X163731252Y-97645261D01*
X163740445Y-97648050D01*
X163750094Y-97649000D01*
X165249906Y-97649000D01*
X165259555Y-97648050D01*
X165268748Y-97645261D01*
X165274671Y-97642095D01*
X165276670Y-97642161D01*
X165277613Y-97643924D01*
X165276883Y-97645405D01*
X165275751Y-97646334D01*
X165275593Y-97646451D01*
X165262904Y-97654929D01*
X165245857Y-97671976D01*
X165232462Y-97692024D01*
X165223236Y-97714298D01*
X165218532Y-97737948D01*
X165218532Y-97762054D01*
X165223237Y-97785704D01*
X165232463Y-97807978D01*
X165245858Y-97828025D01*
X165262905Y-97845072D01*
X165275593Y-97853550D01*
X165275751Y-97853667D01*
X165276879Y-97854593D01*
X165277583Y-97856465D01*
X165276314Y-97858011D01*
X165274667Y-97857903D01*
X165268748Y-97854739D01*
X165259555Y-97851950D01*
X165249906Y-97851000D01*
X163750094Y-97851000D01*
X163740445Y-97851950D01*
X163731252Y-97854739D01*
X163725329Y-97857905D01*
X163723330Y-97857839D01*
X163722387Y-97856076D01*
X163723117Y-97854595D01*
X163724249Y-97853666D01*
X163724407Y-97853549D01*
X163737096Y-97845071D01*
X163754143Y-97828024D01*
X163767538Y-97807976D01*
X163776764Y-97785702D01*
X163781468Y-97762052D01*
X163781468Y-97737946D01*
X163776763Y-97714296D01*
X163767537Y-97692022D01*
X163754142Y-97671975D01*
X163737095Y-97654928D01*
X163724407Y-97646450D01*
X163724249Y-97646333D01*
X163723121Y-97645407D01*
X163722417Y-97643535D01*
X163723686Y-97641989D01*
X163725333Y-97642097D01*
G37*
G36*
X160225333Y-97642097D02*
G01*
X160231252Y-97645261D01*
X160240445Y-97648050D01*
X160250094Y-97649000D01*
X161749906Y-97649000D01*
X161759555Y-97648050D01*
X161768748Y-97645261D01*
X161774671Y-97642095D01*
X161776670Y-97642161D01*
X161777613Y-97643924D01*
X161776883Y-97645405D01*
X161775751Y-97646334D01*
X161775593Y-97646451D01*
X161762904Y-97654929D01*
X161745857Y-97671976D01*
X161732462Y-97692024D01*
X161723236Y-97714298D01*
X161718532Y-97737948D01*
X161718532Y-97762054D01*
X161723237Y-97785704D01*
X161732463Y-97807978D01*
X161745858Y-97828025D01*
X161762905Y-97845072D01*
X161775593Y-97853550D01*
X161775751Y-97853667D01*
X161776879Y-97854593D01*
X161777583Y-97856465D01*
X161776314Y-97858011D01*
X161774667Y-97857903D01*
X161768748Y-97854739D01*
X161759555Y-97851950D01*
X161749906Y-97851000D01*
X160250094Y-97851000D01*
X160240445Y-97851950D01*
X160231252Y-97854739D01*
X160225329Y-97857905D01*
X160223330Y-97857839D01*
X160222387Y-97856076D01*
X160223117Y-97854595D01*
X160224249Y-97853666D01*
X160224407Y-97853549D01*
X160237096Y-97845071D01*
X160254143Y-97828024D01*
X160267538Y-97807976D01*
X160276764Y-97785702D01*
X160281468Y-97762052D01*
X160281468Y-97737946D01*
X160276763Y-97714296D01*
X160267537Y-97692022D01*
X160254142Y-97671975D01*
X160237095Y-97654928D01*
X160224407Y-97646450D01*
X160224249Y-97646333D01*
X160223121Y-97645407D01*
X160222417Y-97643535D01*
X160223686Y-97641989D01*
X160225333Y-97642097D01*
G37*
G36*
X179334658Y-95322010D02*
G01*
X179367092Y-95325204D01*
X179367477Y-95325280D01*
X179392764Y-95332951D01*
X179393126Y-95333101D01*
X179416429Y-95345557D01*
X179416755Y-95345775D01*
X179437183Y-95362540D01*
X179437460Y-95362817D01*
X179454225Y-95383245D01*
X179454443Y-95383571D01*
X179466898Y-95406873D01*
X179467048Y-95407235D01*
X179470736Y-95419392D01*
X179480001Y-95441756D01*
X179493396Y-95461803D01*
X179510443Y-95478850D01*
X179530491Y-95492244D01*
X179552765Y-95501470D01*
X179576415Y-95506174D01*
X179600521Y-95506174D01*
X179624172Y-95501469D01*
X179646445Y-95492242D01*
X179666492Y-95478847D01*
X179683539Y-95461800D01*
X179693625Y-95446705D01*
X179695419Y-95445820D01*
X179697082Y-95446931D01*
X179697052Y-95448759D01*
X179623248Y-95586838D01*
X179569243Y-95764865D01*
X179551000Y-95950094D01*
X179551000Y-96549906D01*
X179569243Y-96735136D01*
X179623249Y-96913163D01*
X179697055Y-97051246D01*
X179696989Y-97053245D01*
X179695226Y-97054188D01*
X179693628Y-97053300D01*
X179683538Y-97038198D01*
X179666491Y-97021151D01*
X179646443Y-97007756D01*
X179624169Y-96998529D01*
X179600519Y-96993825D01*
X179576413Y-96993825D01*
X179552763Y-96998529D01*
X179530489Y-97007756D01*
X179510442Y-97021150D01*
X179493395Y-97038197D01*
X179480000Y-97058245D01*
X179470736Y-97080609D01*
X179467049Y-97092763D01*
X179466899Y-97093125D01*
X179454443Y-97116429D01*
X179454225Y-97116755D01*
X179437460Y-97137183D01*
X179437183Y-97137460D01*
X179416755Y-97154225D01*
X179416429Y-97154443D01*
X179393126Y-97166899D01*
X179392764Y-97167049D01*
X179367477Y-97174720D01*
X179367092Y-97174796D01*
X179334658Y-97177990D01*
X179334462Y-97178000D01*
X179265600Y-97178000D01*
X179263868Y-97177000D01*
X179263868Y-97175000D01*
X179265404Y-97174010D01*
X179306252Y-97169987D01*
X179345348Y-97158127D01*
X179381376Y-97138870D01*
X179412954Y-97112954D01*
X179438870Y-97081376D01*
X179458127Y-97045348D01*
X179469987Y-97006252D01*
X179474000Y-96965506D01*
X179474000Y-95534494D01*
X179469987Y-95493748D01*
X179458127Y-95454652D01*
X179438870Y-95418624D01*
X179412954Y-95387046D01*
X179381376Y-95361130D01*
X179345348Y-95341873D01*
X179306252Y-95330013D01*
X179265404Y-95325990D01*
X179263778Y-95324825D01*
X179263974Y-95322835D01*
X179265600Y-95322000D01*
X179334462Y-95322000D01*
X179334658Y-95322010D01*
G37*
G36*
X181736132Y-95323000D02*
G01*
X181736132Y-95325000D01*
X181734596Y-95325990D01*
X181693748Y-95330013D01*
X181654652Y-95341873D01*
X181618624Y-95361130D01*
X181587046Y-95387046D01*
X181561130Y-95418624D01*
X181541873Y-95454652D01*
X181530013Y-95493748D01*
X181526000Y-95534494D01*
X181526000Y-96965506D01*
X181530013Y-97006252D01*
X181541873Y-97045348D01*
X181561130Y-97081376D01*
X181587046Y-97112954D01*
X181618624Y-97138870D01*
X181654652Y-97158127D01*
X181693748Y-97169987D01*
X181734596Y-97174010D01*
X181736222Y-97175175D01*
X181736026Y-97177165D01*
X181734400Y-97178000D01*
X181665538Y-97178000D01*
X181665342Y-97177990D01*
X181632908Y-97174796D01*
X181632523Y-97174720D01*
X181607236Y-97167049D01*
X181606874Y-97166899D01*
X181583571Y-97154443D01*
X181583245Y-97154225D01*
X181562817Y-97137460D01*
X181562540Y-97137183D01*
X181545775Y-97116755D01*
X181545557Y-97116429D01*
X181533102Y-97093127D01*
X181532952Y-97092765D01*
X181529264Y-97080608D01*
X181519999Y-97058244D01*
X181506604Y-97038197D01*
X181489557Y-97021150D01*
X181469509Y-97007756D01*
X181447235Y-96998530D01*
X181423585Y-96993826D01*
X181399479Y-96993826D01*
X181375828Y-96998531D01*
X181353555Y-97007758D01*
X181333508Y-97021153D01*
X181316461Y-97038200D01*
X181306375Y-97053295D01*
X181304581Y-97054180D01*
X181302918Y-97053069D01*
X181302948Y-97051241D01*
X181376752Y-96913163D01*
X181430757Y-96735136D01*
X181449000Y-96549905D01*
X181449000Y-95950094D01*
X181430757Y-95764864D01*
X181376752Y-95586837D01*
X181302944Y-95448751D01*
X181303010Y-95446752D01*
X181304773Y-95445809D01*
X181306371Y-95446697D01*
X181316463Y-95461801D01*
X181333510Y-95478848D01*
X181353557Y-95492242D01*
X181375831Y-95501469D01*
X181399481Y-95506173D01*
X181423587Y-95506173D01*
X181447237Y-95501469D01*
X181469511Y-95492242D01*
X181489559Y-95478847D01*
X181506606Y-95461800D01*
X181520000Y-95441753D01*
X181529263Y-95419392D01*
X181532950Y-95407239D01*
X181533100Y-95406877D01*
X181545557Y-95383571D01*
X181545775Y-95383245D01*
X181562540Y-95362817D01*
X181562817Y-95362540D01*
X181583245Y-95345775D01*
X181583571Y-95345557D01*
X181606874Y-95333101D01*
X181607236Y-95332951D01*
X181632523Y-95325280D01*
X181632908Y-95325204D01*
X181665342Y-95322010D01*
X181665538Y-95322000D01*
X181734400Y-95322000D01*
X181736132Y-95323000D01*
G37*
G36*
X179334658Y-90322010D02*
G01*
X179367092Y-90325204D01*
X179367477Y-90325280D01*
X179392764Y-90332951D01*
X179393126Y-90333101D01*
X179416429Y-90345557D01*
X179416755Y-90345775D01*
X179437183Y-90362540D01*
X179437460Y-90362817D01*
X179454225Y-90383245D01*
X179454443Y-90383571D01*
X179466898Y-90406873D01*
X179467048Y-90407235D01*
X179470736Y-90419392D01*
X179480001Y-90441756D01*
X179493396Y-90461803D01*
X179510443Y-90478850D01*
X179530491Y-90492244D01*
X179552765Y-90501470D01*
X179576415Y-90506174D01*
X179600521Y-90506174D01*
X179624172Y-90501469D01*
X179646445Y-90492242D01*
X179666492Y-90478847D01*
X179683539Y-90461800D01*
X179693625Y-90446705D01*
X179695419Y-90445820D01*
X179697082Y-90446931D01*
X179697052Y-90448759D01*
X179623248Y-90586838D01*
X179569243Y-90764865D01*
X179551000Y-90950094D01*
X179551000Y-91549906D01*
X179569243Y-91735136D01*
X179623249Y-91913163D01*
X179697055Y-92051246D01*
X179696989Y-92053245D01*
X179695226Y-92054188D01*
X179693628Y-92053300D01*
X179683538Y-92038198D01*
X179666491Y-92021151D01*
X179646443Y-92007756D01*
X179624169Y-91998529D01*
X179600519Y-91993825D01*
X179576413Y-91993825D01*
X179552763Y-91998529D01*
X179530489Y-92007756D01*
X179510442Y-92021150D01*
X179493395Y-92038197D01*
X179480000Y-92058245D01*
X179470736Y-92080609D01*
X179467049Y-92092763D01*
X179466899Y-92093125D01*
X179454443Y-92116429D01*
X179454225Y-92116755D01*
X179437460Y-92137183D01*
X179437183Y-92137460D01*
X179416755Y-92154225D01*
X179416429Y-92154443D01*
X179393126Y-92166899D01*
X179392764Y-92167049D01*
X179367477Y-92174720D01*
X179367092Y-92174796D01*
X179334658Y-92177990D01*
X179334462Y-92178000D01*
X179265600Y-92178000D01*
X179263868Y-92177000D01*
X179263868Y-92175000D01*
X179265404Y-92174010D01*
X179306252Y-92169987D01*
X179345348Y-92158127D01*
X179381376Y-92138870D01*
X179412954Y-92112954D01*
X179438870Y-92081376D01*
X179458127Y-92045348D01*
X179469987Y-92006252D01*
X179474000Y-91965506D01*
X179474000Y-90534494D01*
X179469987Y-90493748D01*
X179458127Y-90454652D01*
X179438870Y-90418624D01*
X179412954Y-90387046D01*
X179381376Y-90361130D01*
X179345348Y-90341873D01*
X179306252Y-90330013D01*
X179265404Y-90325990D01*
X179263778Y-90324825D01*
X179263974Y-90322835D01*
X179265600Y-90322000D01*
X179334462Y-90322000D01*
X179334658Y-90322010D01*
G37*
G36*
X181736132Y-90323000D02*
G01*
X181736132Y-90325000D01*
X181734596Y-90325990D01*
X181693748Y-90330013D01*
X181654652Y-90341873D01*
X181618624Y-90361130D01*
X181587046Y-90387046D01*
X181561130Y-90418624D01*
X181541873Y-90454652D01*
X181530013Y-90493748D01*
X181526000Y-90534494D01*
X181526000Y-91965506D01*
X181530013Y-92006252D01*
X181541873Y-92045348D01*
X181561130Y-92081376D01*
X181587046Y-92112954D01*
X181618624Y-92138870D01*
X181654652Y-92158127D01*
X181693748Y-92169987D01*
X181734596Y-92174010D01*
X181736222Y-92175175D01*
X181736026Y-92177165D01*
X181734400Y-92178000D01*
X181665538Y-92178000D01*
X181665342Y-92177990D01*
X181632908Y-92174796D01*
X181632523Y-92174720D01*
X181607236Y-92167049D01*
X181606874Y-92166899D01*
X181583571Y-92154443D01*
X181583245Y-92154225D01*
X181562817Y-92137460D01*
X181562540Y-92137183D01*
X181545775Y-92116755D01*
X181545557Y-92116429D01*
X181533102Y-92093127D01*
X181532952Y-92092765D01*
X181529264Y-92080608D01*
X181519999Y-92058244D01*
X181506604Y-92038197D01*
X181489557Y-92021150D01*
X181469509Y-92007756D01*
X181447235Y-91998530D01*
X181423585Y-91993826D01*
X181399479Y-91993826D01*
X181375828Y-91998531D01*
X181353555Y-92007758D01*
X181333508Y-92021153D01*
X181316461Y-92038200D01*
X181306375Y-92053295D01*
X181304581Y-92054180D01*
X181302918Y-92053069D01*
X181302948Y-92051241D01*
X181376752Y-91913163D01*
X181430757Y-91735136D01*
X181449000Y-91549905D01*
X181449000Y-90950094D01*
X181430757Y-90764864D01*
X181376752Y-90586837D01*
X181302944Y-90448751D01*
X181303010Y-90446752D01*
X181304773Y-90445809D01*
X181306371Y-90446697D01*
X181316463Y-90461801D01*
X181333510Y-90478848D01*
X181353557Y-90492242D01*
X181375831Y-90501469D01*
X181399481Y-90506173D01*
X181423587Y-90506173D01*
X181447237Y-90501469D01*
X181469511Y-90492242D01*
X181489559Y-90478847D01*
X181506606Y-90461800D01*
X181520000Y-90441753D01*
X181529263Y-90419392D01*
X181532950Y-90407239D01*
X181533100Y-90406877D01*
X181545557Y-90383571D01*
X181545775Y-90383245D01*
X181562540Y-90362817D01*
X181562817Y-90362540D01*
X181583245Y-90345775D01*
X181583571Y-90345557D01*
X181606874Y-90333101D01*
X181607236Y-90332951D01*
X181632523Y-90325280D01*
X181632908Y-90325204D01*
X181665342Y-90322010D01*
X181665538Y-90322000D01*
X181734400Y-90322000D01*
X181736132Y-90323000D01*
G37*
G36*
X181736132Y-85323000D02*
G01*
X181736132Y-85325000D01*
X181734596Y-85325990D01*
X181693748Y-85330013D01*
X181654652Y-85341873D01*
X181618624Y-85361130D01*
X181587046Y-85387046D01*
X181561130Y-85418624D01*
X181541873Y-85454652D01*
X181530013Y-85493748D01*
X181526000Y-85534494D01*
X181526000Y-86965506D01*
X181530013Y-87006252D01*
X181541873Y-87045348D01*
X181561130Y-87081376D01*
X181587046Y-87112954D01*
X181618624Y-87138870D01*
X181654652Y-87158127D01*
X181693748Y-87169987D01*
X181734596Y-87174010D01*
X181736222Y-87175175D01*
X181736026Y-87177165D01*
X181734400Y-87178000D01*
X181665538Y-87178000D01*
X181665342Y-87177990D01*
X181632908Y-87174796D01*
X181632523Y-87174720D01*
X181607236Y-87167049D01*
X181606874Y-87166899D01*
X181583571Y-87154443D01*
X181583245Y-87154225D01*
X181562817Y-87137460D01*
X181562540Y-87137183D01*
X181545775Y-87116755D01*
X181545557Y-87116429D01*
X181533102Y-87093127D01*
X181532952Y-87092765D01*
X181529264Y-87080608D01*
X181519999Y-87058244D01*
X181506604Y-87038197D01*
X181489557Y-87021150D01*
X181469509Y-87007756D01*
X181447235Y-86998530D01*
X181423585Y-86993826D01*
X181399479Y-86993826D01*
X181375828Y-86998531D01*
X181353555Y-87007758D01*
X181333508Y-87021153D01*
X181316461Y-87038200D01*
X181306375Y-87053295D01*
X181304581Y-87054180D01*
X181302918Y-87053069D01*
X181302948Y-87051241D01*
X181376752Y-86913163D01*
X181430757Y-86735136D01*
X181449000Y-86549905D01*
X181449000Y-85950094D01*
X181430757Y-85764864D01*
X181376752Y-85586837D01*
X181302944Y-85448751D01*
X181303010Y-85446752D01*
X181304773Y-85445809D01*
X181306371Y-85446697D01*
X181316463Y-85461801D01*
X181333510Y-85478848D01*
X181353557Y-85492242D01*
X181375831Y-85501469D01*
X181399481Y-85506173D01*
X181423587Y-85506173D01*
X181447237Y-85501469D01*
X181469511Y-85492242D01*
X181489559Y-85478847D01*
X181506606Y-85461800D01*
X181520000Y-85441753D01*
X181529263Y-85419392D01*
X181532950Y-85407239D01*
X181533100Y-85406877D01*
X181545557Y-85383571D01*
X181545775Y-85383245D01*
X181562540Y-85362817D01*
X181562817Y-85362540D01*
X181583245Y-85345775D01*
X181583571Y-85345557D01*
X181606874Y-85333101D01*
X181607236Y-85332951D01*
X181632523Y-85325280D01*
X181632908Y-85325204D01*
X181665342Y-85322010D01*
X181665538Y-85322000D01*
X181734400Y-85322000D01*
X181736132Y-85323000D01*
G37*
G36*
X179334658Y-85322010D02*
G01*
X179367092Y-85325204D01*
X179367477Y-85325280D01*
X179392764Y-85332951D01*
X179393126Y-85333101D01*
X179416429Y-85345557D01*
X179416755Y-85345775D01*
X179437183Y-85362540D01*
X179437460Y-85362817D01*
X179454225Y-85383245D01*
X179454443Y-85383571D01*
X179466898Y-85406873D01*
X179467048Y-85407235D01*
X179470736Y-85419392D01*
X179480001Y-85441756D01*
X179493396Y-85461803D01*
X179510443Y-85478850D01*
X179530491Y-85492244D01*
X179552765Y-85501470D01*
X179576415Y-85506174D01*
X179600521Y-85506174D01*
X179624172Y-85501469D01*
X179646445Y-85492242D01*
X179666492Y-85478847D01*
X179683539Y-85461800D01*
X179693625Y-85446705D01*
X179695419Y-85445820D01*
X179697082Y-85446931D01*
X179697052Y-85448759D01*
X179623248Y-85586838D01*
X179569243Y-85764865D01*
X179551000Y-85950094D01*
X179551000Y-86549906D01*
X179569243Y-86735136D01*
X179623249Y-86913163D01*
X179697055Y-87051246D01*
X179696989Y-87053245D01*
X179695226Y-87054188D01*
X179693628Y-87053300D01*
X179683538Y-87038198D01*
X179666491Y-87021151D01*
X179646443Y-87007756D01*
X179624169Y-86998529D01*
X179600519Y-86993825D01*
X179576413Y-86993825D01*
X179552763Y-86998529D01*
X179530489Y-87007756D01*
X179510442Y-87021150D01*
X179493395Y-87038197D01*
X179480000Y-87058245D01*
X179470736Y-87080609D01*
X179467049Y-87092763D01*
X179466899Y-87093125D01*
X179454443Y-87116429D01*
X179454225Y-87116755D01*
X179437460Y-87137183D01*
X179437183Y-87137460D01*
X179416755Y-87154225D01*
X179416429Y-87154443D01*
X179393126Y-87166899D01*
X179392764Y-87167049D01*
X179367477Y-87174720D01*
X179367092Y-87174796D01*
X179334658Y-87177990D01*
X179334462Y-87178000D01*
X179265600Y-87178000D01*
X179263868Y-87177000D01*
X179263868Y-87175000D01*
X179265404Y-87174010D01*
X179306252Y-87169987D01*
X179345348Y-87158127D01*
X179381376Y-87138870D01*
X179412954Y-87112954D01*
X179438870Y-87081376D01*
X179458127Y-87045348D01*
X179469987Y-87006252D01*
X179474000Y-86965506D01*
X179474000Y-85534494D01*
X179469987Y-85493748D01*
X179458127Y-85454652D01*
X179438870Y-85418624D01*
X179412954Y-85387046D01*
X179381376Y-85361130D01*
X179345348Y-85341873D01*
X179306252Y-85330013D01*
X179265404Y-85325990D01*
X179263778Y-85324825D01*
X179263974Y-85322835D01*
X179265600Y-85322000D01*
X179334462Y-85322000D01*
X179334658Y-85322010D01*
G37*
G36*
X109337732Y-77970000D02*
G01*
X109338000Y-77971000D01*
X109338000Y-78034252D01*
X109337764Y-78035195D01*
X109330421Y-78048933D01*
X109323421Y-78072008D01*
X109321058Y-78095999D01*
X109323421Y-78119990D01*
X109330478Y-78143253D01*
X109330024Y-78145201D01*
X109328110Y-78145782D01*
X109326800Y-78144777D01*
X109325734Y-78142782D01*
X109319641Y-78135359D01*
X109312218Y-78129266D01*
X109303748Y-78124739D01*
X109294555Y-78121950D01*
X109284906Y-78121000D01*
X107785094Y-78121000D01*
X107775445Y-78121950D01*
X107766252Y-78124739D01*
X107757782Y-78129266D01*
X107750359Y-78135359D01*
X107744266Y-78142782D01*
X107741100Y-78148707D01*
X107739402Y-78149763D01*
X107737638Y-78148820D01*
X107737422Y-78147184D01*
X107737912Y-78145567D01*
X107737978Y-78145382D01*
X107743644Y-78131703D01*
X107748349Y-78108053D01*
X107748349Y-78083946D01*
X107743645Y-78060296D01*
X107734419Y-78038022D01*
X107732337Y-78034906D01*
X107732000Y-78033795D01*
X107732000Y-77971000D01*
X107733000Y-77969268D01*
X107734000Y-77969000D01*
X109336000Y-77969000D01*
X109337732Y-77970000D01*
G37*
G36*
X109332362Y-76691180D02*
G01*
X109332578Y-76692816D01*
X109332088Y-76694433D01*
X109332022Y-76694618D01*
X109326356Y-76708297D01*
X109321651Y-76731947D01*
X109321651Y-76756054D01*
X109326355Y-76779704D01*
X109335581Y-76801978D01*
X109337663Y-76805094D01*
X109338000Y-76806205D01*
X109338000Y-76869000D01*
X109337000Y-76870732D01*
X109336000Y-76871000D01*
X107734000Y-76871000D01*
X107732268Y-76870000D01*
X107732000Y-76869000D01*
X107732000Y-76805748D01*
X107732236Y-76804805D01*
X107739579Y-76791067D01*
X107746579Y-76767992D01*
X107748942Y-76744001D01*
X107746579Y-76720010D01*
X107739522Y-76696747D01*
X107739976Y-76694799D01*
X107741890Y-76694218D01*
X107743200Y-76695223D01*
X107744266Y-76697218D01*
X107750359Y-76704641D01*
X107757782Y-76710734D01*
X107766252Y-76715261D01*
X107775445Y-76718050D01*
X107785094Y-76719000D01*
X109284906Y-76719000D01*
X109294555Y-76718050D01*
X109303748Y-76715261D01*
X109312218Y-76710734D01*
X109319641Y-76704641D01*
X109325734Y-76697218D01*
X109328900Y-76691293D01*
X109330598Y-76690237D01*
X109332362Y-76691180D01*
G37*
G36*
X164935732Y-75188000D02*
G01*
X164936000Y-75189000D01*
X164936000Y-76351000D01*
X164935000Y-76352732D01*
X164934000Y-76353000D01*
X164736000Y-76353000D01*
X164734268Y-76352000D01*
X164734000Y-76351000D01*
X164734000Y-75191000D01*
X163986000Y-75191000D01*
X163986000Y-76351000D01*
X163985000Y-76352732D01*
X163984000Y-76353000D01*
X163786000Y-76353000D01*
X163784268Y-76352000D01*
X163784000Y-76351000D01*
X163784000Y-75189000D01*
X163785000Y-75187268D01*
X163786000Y-75187000D01*
X164934000Y-75187000D01*
X164935732Y-75188000D01*
G37*
G36*
X203334658Y-74072010D02*
G01*
X203367092Y-74075204D01*
X203367477Y-74075280D01*
X203392764Y-74082951D01*
X203393126Y-74083101D01*
X203416429Y-74095557D01*
X203416755Y-74095775D01*
X203437183Y-74112540D01*
X203437460Y-74112817D01*
X203454225Y-74133245D01*
X203454443Y-74133571D01*
X203466898Y-74156873D01*
X203467048Y-74157235D01*
X203470736Y-74169392D01*
X203480001Y-74191756D01*
X203493396Y-74211803D01*
X203510443Y-74228850D01*
X203530491Y-74242244D01*
X203552765Y-74251470D01*
X203576415Y-74256174D01*
X203600521Y-74256174D01*
X203624172Y-74251469D01*
X203646445Y-74242242D01*
X203666492Y-74228847D01*
X203683539Y-74211800D01*
X203693625Y-74196705D01*
X203695419Y-74195820D01*
X203697082Y-74196931D01*
X203697052Y-74198759D01*
X203623248Y-74336838D01*
X203569243Y-74514865D01*
X203551000Y-74700094D01*
X203551000Y-75299906D01*
X203569243Y-75485136D01*
X203623249Y-75663163D01*
X203697055Y-75801246D01*
X203696989Y-75803245D01*
X203695226Y-75804188D01*
X203693628Y-75803300D01*
X203683538Y-75788198D01*
X203666491Y-75771151D01*
X203646443Y-75757756D01*
X203624169Y-75748529D01*
X203600519Y-75743825D01*
X203576413Y-75743825D01*
X203552763Y-75748529D01*
X203530489Y-75757756D01*
X203510442Y-75771150D01*
X203493395Y-75788197D01*
X203480000Y-75808245D01*
X203470736Y-75830609D01*
X203467049Y-75842763D01*
X203466899Y-75843125D01*
X203454443Y-75866429D01*
X203454225Y-75866755D01*
X203437460Y-75887183D01*
X203437183Y-75887460D01*
X203416755Y-75904225D01*
X203416429Y-75904443D01*
X203393126Y-75916899D01*
X203392764Y-75917049D01*
X203367477Y-75924720D01*
X203367092Y-75924796D01*
X203334658Y-75927990D01*
X203334462Y-75928000D01*
X203265600Y-75928000D01*
X203263868Y-75927000D01*
X203263868Y-75925000D01*
X203265404Y-75924010D01*
X203306252Y-75919987D01*
X203345348Y-75908127D01*
X203381376Y-75888870D01*
X203412954Y-75862954D01*
X203438870Y-75831376D01*
X203458127Y-75795348D01*
X203469987Y-75756252D01*
X203474000Y-75715506D01*
X203474000Y-74284494D01*
X203469987Y-74243748D01*
X203458127Y-74204652D01*
X203438870Y-74168624D01*
X203412954Y-74137046D01*
X203381376Y-74111130D01*
X203345348Y-74091873D01*
X203306252Y-74080013D01*
X203265404Y-74075990D01*
X203263778Y-74074825D01*
X203263974Y-74072835D01*
X203265600Y-74072000D01*
X203334462Y-74072000D01*
X203334658Y-74072010D01*
G37*
G36*
X205736132Y-74073000D02*
G01*
X205736132Y-74075000D01*
X205734596Y-74075990D01*
X205693748Y-74080013D01*
X205654652Y-74091873D01*
X205618624Y-74111130D01*
X205587046Y-74137046D01*
X205561130Y-74168624D01*
X205541873Y-74204652D01*
X205530013Y-74243748D01*
X205526000Y-74284494D01*
X205526000Y-75715506D01*
X205530013Y-75756252D01*
X205541873Y-75795348D01*
X205561130Y-75831376D01*
X205587046Y-75862954D01*
X205618624Y-75888870D01*
X205654652Y-75908127D01*
X205693748Y-75919987D01*
X205734596Y-75924010D01*
X205736222Y-75925175D01*
X205736026Y-75927165D01*
X205734400Y-75928000D01*
X205665538Y-75928000D01*
X205665342Y-75927990D01*
X205632908Y-75924796D01*
X205632523Y-75924720D01*
X205607236Y-75917049D01*
X205606874Y-75916899D01*
X205583571Y-75904443D01*
X205583245Y-75904225D01*
X205562817Y-75887460D01*
X205562540Y-75887183D01*
X205545775Y-75866755D01*
X205545557Y-75866429D01*
X205533102Y-75843127D01*
X205532952Y-75842765D01*
X205529264Y-75830608D01*
X205519999Y-75808244D01*
X205506604Y-75788197D01*
X205489557Y-75771150D01*
X205469509Y-75757756D01*
X205447235Y-75748530D01*
X205423585Y-75743826D01*
X205399479Y-75743826D01*
X205375828Y-75748531D01*
X205353555Y-75757758D01*
X205333508Y-75771153D01*
X205316461Y-75788200D01*
X205306375Y-75803295D01*
X205304581Y-75804180D01*
X205302918Y-75803069D01*
X205302948Y-75801241D01*
X205376752Y-75663163D01*
X205430757Y-75485136D01*
X205449000Y-75299905D01*
X205449000Y-74700094D01*
X205430757Y-74514864D01*
X205376752Y-74336837D01*
X205302944Y-74198751D01*
X205303010Y-74196752D01*
X205304773Y-74195809D01*
X205306371Y-74196697D01*
X205316463Y-74211801D01*
X205333510Y-74228848D01*
X205353557Y-74242242D01*
X205375831Y-74251469D01*
X205399481Y-74256173D01*
X205423587Y-74256173D01*
X205447237Y-74251469D01*
X205469511Y-74242242D01*
X205489559Y-74228847D01*
X205506606Y-74211800D01*
X205520000Y-74191753D01*
X205529263Y-74169392D01*
X205532950Y-74157239D01*
X205533100Y-74156877D01*
X205545557Y-74133571D01*
X205545775Y-74133245D01*
X205562540Y-74112817D01*
X205562817Y-74112540D01*
X205583245Y-74095775D01*
X205583571Y-74095557D01*
X205606874Y-74083101D01*
X205607236Y-74082951D01*
X205632523Y-74075280D01*
X205632908Y-74075204D01*
X205665342Y-74072010D01*
X205665538Y-74072000D01*
X205734400Y-74072000D01*
X205736132Y-74073000D01*
G37*
G36*
X164935732Y-72988000D02*
G01*
X164936000Y-72989000D01*
X164936000Y-74151000D01*
X164935000Y-74152732D01*
X164934000Y-74153000D01*
X164736000Y-74153000D01*
X164734268Y-74152000D01*
X164734000Y-74151000D01*
X164734000Y-72991000D01*
X163986000Y-72991000D01*
X163986000Y-74151000D01*
X163985000Y-74152732D01*
X163984000Y-74153000D01*
X163786000Y-74153000D01*
X163784268Y-74152000D01*
X163784000Y-74151000D01*
X163784000Y-72989000D01*
X163785000Y-72987268D01*
X163786000Y-72987000D01*
X164934000Y-72987000D01*
X164935732Y-72988000D01*
G37*
G36*
X172145405Y-72158117D02*
G01*
X172146334Y-72159249D01*
X172146451Y-72159407D01*
X172154929Y-72172096D01*
X172171976Y-72189143D01*
X172192024Y-72202538D01*
X172214298Y-72211764D01*
X172237948Y-72216468D01*
X172262054Y-72216468D01*
X172285704Y-72211763D01*
X172307978Y-72202537D01*
X172328025Y-72189142D01*
X172345072Y-72172095D01*
X172353550Y-72159407D01*
X172353667Y-72159249D01*
X172354593Y-72158121D01*
X172356465Y-72157417D01*
X172358011Y-72158686D01*
X172357903Y-72160333D01*
X172354739Y-72166252D01*
X172351950Y-72175445D01*
X172351000Y-72185094D01*
X172351000Y-73684906D01*
X172351950Y-73694555D01*
X172354739Y-73703748D01*
X172357905Y-73709671D01*
X172357839Y-73711670D01*
X172356076Y-73712613D01*
X172354595Y-73711883D01*
X172353666Y-73710751D01*
X172353549Y-73710593D01*
X172345071Y-73697904D01*
X172328024Y-73680857D01*
X172307976Y-73667462D01*
X172285702Y-73658236D01*
X172262052Y-73653532D01*
X172237946Y-73653532D01*
X172214296Y-73658237D01*
X172192022Y-73667463D01*
X172171975Y-73680858D01*
X172154928Y-73697905D01*
X172146450Y-73710593D01*
X172146333Y-73710751D01*
X172145407Y-73711879D01*
X172143535Y-73712583D01*
X172141989Y-73711314D01*
X172142097Y-73709667D01*
X172145261Y-73703748D01*
X172148050Y-73694555D01*
X172149000Y-73684906D01*
X172149000Y-72185094D01*
X172148050Y-72175445D01*
X172145261Y-72166252D01*
X172142095Y-72160329D01*
X172142161Y-72158330D01*
X172143924Y-72157387D01*
X172145405Y-72158117D01*
G37*
M02*
