M48
; DRILL file {KiCad (5.1.8-0-10_14)} date Monday, January 25, 2021 at 12:34:07 AM
; FORMAT={-:-/ absolute / inch / decimal}
; #@! TF.CreationDate,2021-01-25T00:34:07-06:00
; #@! TF.GenerationSoftware,Kicad,Pcbnew,(5.1.8-0-10_14)
; #@! TF.FileFunction,Plated,1,2,PTH
FMAT,2
INCH
T1C0.0118
T2C0.0157
T3C0.0197
T4C0.0236
T5C0.0335
T6C0.0350
T7C0.0354
T8C0.0390
T9C0.0394
T10C0.0512
T11C0.1260
%
G90
G05
T1
X3.8602Y-3.2224
X3.8602Y-3.2736
X3.9114Y-3.2224
X3.9114Y-3.2736
X3.9626Y-3.2224
X3.9626Y-3.2736
X4.0138Y-3.2224
X4.0138Y-3.2736
X5.7874Y-2.7163
X5.7874Y-2.7557
X5.7874Y-2.7951
X5.7874Y-2.8344
X5.7874Y-2.8738
X5.8268Y-2.7163
X5.8268Y-2.7557
X5.8268Y-2.7951
X5.8268Y-2.8344
X5.8268Y-2.8738
X5.8661Y-2.7163
X5.8661Y-2.7557
X5.8661Y-2.7951
X5.8661Y-2.8344
X5.8661Y-2.8738
X5.9055Y-2.7163
X5.9055Y-2.7557
X5.9055Y-2.7951
X5.9055Y-2.8344
X5.9055Y-2.8738
X5.9449Y-2.7163
X5.9449Y-2.7557
X5.9449Y-2.7951
X5.9449Y-2.8344
X5.9449Y-2.8738
T2
X3.2579Y-2.8248
X3.2579Y-2.9232
X3.2579Y-3.0217
X3.2579Y-3.1201
X3.2579Y-3.2185
X3.2579Y-3.3169
X3.2579Y-3.7106
X3.2579Y-3.8091
X3.2677Y-3.6614
X3.3268Y-3.6614
X3.3858Y-3.6614
X3.4449Y-3.6614
X3.5039Y-3.6614
X3.563Y-3.6614
X3.622Y-3.6614
X3.6811Y-2.8642
X3.6811Y-2.9232
X3.6811Y-3.6614
X3.7402Y-2.9232
X3.7402Y-3.6614
X3.7894Y-3.8681
X3.7992Y-2.9232
X3.7992Y-3.1594
X3.7992Y-3.2185
X3.7992Y-3.2776
X3.7992Y-3.3366
X3.7992Y-3.3957
X3.7992Y-3.4547
X3.7992Y-3.5138
X3.7992Y-3.5728
X3.7992Y-3.6319
X3.7992Y-3.6909
X3.7992Y-3.75
X3.7992Y-3.8091
X3.8583Y-2.9232
X3.9173Y-2.9232
X4.0354Y-3.4547
X4.0354Y-3.5138
X4.0354Y-3.5728
X4.0354Y-3.6319
X4.0354Y-3.6909
X4.0354Y-3.75
X4.0748Y-3.2776
X4.0748Y-3.3366
X4.0748Y-3.3957
X4.0748Y-3.8091
X4.1339Y-3.2776
X4.1339Y-3.3366
X4.1929Y-2.9232
X4.1929Y-3.0413
X4.1929Y-3.1004
X4.1929Y-3.1594
X4.1929Y-3.2185
X4.1929Y-3.2776
X4.9213Y-3.3465
X5.2165Y-2.6575
X5.2165Y-3.0512
X5.3504Y-3.4547
X5.3504Y-3.6122
X5.5217Y-3.2498
X5.6201Y-2.7498
X5.6201Y-2.7998
X5.6201Y-2.8498
X5.6201Y-2.8998
X5.6299Y-3.5039
X5.6791Y-3.002
X5.9547Y-4.252
X6.0039Y-3.7402
X6.0335Y-3.2283
X6.063Y-3.6122
X6.1024Y-3.0512
X6.1907Y-3.1498
X6.2008Y-3.4547
X6.2697Y-3.9469
X6.3583Y-3.2283
X6.3976Y-3.0512
X6.3976Y-3.7402
X6.3976Y-3.937
X6.4173Y-4.0059
X6.4459Y-4.0404
X6.4764Y-3.8228
X6.5059Y-4.0059
X6.5354Y-3.9075
X6.5846Y-4.0659
X6.7815Y-4.065
X6.8268Y-3.2283
X6.9291Y-3.6909
X6.9488Y-2.8445
X6.9783Y-2.874
X7.001Y-4.0463
X7.0079Y-4.3209
X7.0079Y-4.085
X7.0669Y-4.2323
X7.1752Y-3.9665
X7.1752Y-4.065
X7.1752Y-4.1634
X7.185Y-2.8543
X7.3524Y-2.9035
X7.3819Y-2.9823
X7.3819Y-3.1496
X7.4083Y-2.687
X7.4311Y-3.2579
X7.4705Y-3.3071
X7.5197Y-2.815
X7.5787Y-3.3465
X7.6378Y-3.7008
X7.6378Y-4.2717
X7.7461Y-3.7697
X7.8346Y-4.2717
X7.8422Y-3.8001
X7.9238Y-3.7162
X7.9255Y-3.8001
X7.9823Y-3.8484
X8.0118Y-3.7106
X8.0315Y-4.2717
X8.1201Y-3.7992
X8.1398Y-3.8976
X8.1988Y-3.7106
X8.2382Y-3.7598
X8.3661Y-3.7106
X8.4252Y-3.6909
X8.435Y-3.75
T3
X4.0551Y-3.0906
X5.5118Y-4.4075
X6.5748Y-4.3307
X6.8602Y-4.0945
X7.5098Y-3.0217
X3.376Y-4.3728
X3.4037Y-4.306
X3.4037Y-4.4396
X3.4705Y-4.2783
X3.4705Y-4.4673
X3.5373Y-4.306
X3.5373Y-4.4396
X3.565Y-4.3728
X8.2461Y-4.3728
X8.2737Y-4.306
X8.2737Y-4.4396
X8.3406Y-4.2783
X8.3406Y-4.4673
X8.4074Y-4.306
X8.4074Y-4.4396
X8.435Y-4.3728
X3.376Y-2.7138
X3.4037Y-2.647
X3.4037Y-2.7806
X3.4705Y-2.6193
X3.4705Y-2.8083
X3.5373Y-2.647
X3.5373Y-2.7806
X3.565Y-2.7138
X8.2461Y-2.7138
X8.2737Y-2.647
X8.2737Y-2.7806
X8.3406Y-2.6193
X8.3406Y-2.8083
X8.4074Y-2.647
X8.4074Y-2.7806
X8.435Y-2.7138
T4
X3.6122Y-3.2776
T5
X6.4961Y-4.4601
X6.6929Y-4.4601
T6
X4.2882Y-4.2717
X4.2882Y-4.4717
X4.3882Y-4.2717
X4.4882Y-4.2717
X4.4882Y-4.4717
T7
X8.0413Y-2.6633
X8.0413Y-2.7633
T8
X6.9094Y-4.5079
X7.0866Y-4.5079
X7.3228Y-4.5079
X7.5Y-4.5079
T9
X5.6555Y-4.4488
X5.7555Y-4.4488
X5.8555Y-4.4488
X5.9555Y-4.4488
X6.0555Y-4.4488
X6.1555Y-4.4488
X4.498Y-2.948
X4.498Y-3.048
X4.498Y-3.148
X4.498Y-3.248
X7.0583Y-2.6398
X7.1583Y-2.6398
X7.2583Y-2.6398
X7.3583Y-2.6398
X7.4583Y-2.6398
X7.5583Y-2.6398
X8.1169Y-3.2283
X8.2169Y-3.2283
X8.3169Y-3.2283
X8.4169Y-3.2283
X4.7933Y-2.9528
X4.7933Y-3.0528
X4.7933Y-3.1528
X4.7933Y-3.2528
X4.7933Y-3.3528
X4.7933Y-3.4528
X5.7579Y-3.7878
X5.7579Y-3.8878
X6.0531Y-3.7878
X6.0531Y-3.8878
X6.5083Y-2.6398
X6.6083Y-2.6398
X6.7083Y-2.6398
X6.8083Y-2.6398
T10
X6.8598Y-4.4098
X7.1358Y-4.4098
X7.2732Y-4.4098
X7.5492Y-4.4098
T11
X7.7579Y-4.4988
X8.3406Y-2.7138
X3.4705Y-4.3728
X4.0531Y-4.4988
X4.0531Y-2.5878
X7.7579Y-2.5878
X8.3406Y-4.3728
X3.4705Y-2.7138
T4
G00X6.4567Y-4.5802
M15
G01X6.4567Y-4.5527
M16
G05
G00X6.7323Y-4.5527
M15
G01X6.7323Y-4.5802
M16
G05
T9
G00X3.4449Y-3.9272
M15
G01X3.4449Y-4.0059
M16
G05
G00X3.5236Y-4.1516
M15
G01X3.6024Y-4.1516
M16
G05
G00X3.6811Y-3.9272
M15
G01X3.6811Y-4.0059
M16
G05
T0
M30
