M48
; DRILL file {KiCad (5.1.9-0-10_14)} date Thursday, March 25, 2021 at 12:14:57 AM
; FORMAT={-:-/ absolute / inch / decimal}
; #@! TF.CreationDate,2021-03-25T00:14:57-05:00
; #@! TF.GenerationSoftware,Kicad,Pcbnew,(5.1.9-0-10_14)
; #@! TF.FileFunction,Plated,1,2,PTH
FMAT,2
INCH
T1C0.0118
T2C0.0157
T3C0.0197
T4C0.0236
T5C0.0315
T6C0.0315
T7C0.0335
T8C0.0350
T9C0.0354
T10C0.0390
T11C0.0394
T12C0.0472
T13C0.0512
T14C0.1260
T15C0.1693
%
G90
G05
T1
X2.2756Y-3.4488
X2.2756Y-3.5
X2.3268Y-3.4488
X2.3268Y-3.5
X2.378Y-3.4488
X2.378Y-3.5
X2.4291Y-3.4488
X2.4291Y-3.5
X7.5591Y-1.6829
X7.5591Y-1.7222
X7.5591Y-1.7616
X7.5591Y-1.801
X7.5591Y-1.8404
X7.5984Y-1.6829
X7.5984Y-1.7222
X7.5984Y-1.7616
X7.5984Y-1.801
X7.5984Y-1.8404
X7.6378Y-1.6829
X7.6378Y-1.7222
X7.6378Y-1.7616
X7.6378Y-1.801
X7.6378Y-1.8404
X7.6772Y-1.6829
X7.6772Y-1.7222
X7.6772Y-1.7616
X7.6772Y-1.801
X7.6772Y-1.8404
X7.7165Y-1.6829
X7.7165Y-1.7222
X7.7165Y-1.7616
X7.7165Y-1.801
X7.7165Y-1.8404
T2
X1.6732Y-2.5591
X1.6732Y-3.0512
X1.6732Y-3.1496
X1.6732Y-3.248
X1.6732Y-3.3465
X1.6732Y-3.4449
X1.6732Y-3.5433
X1.6732Y-3.937
X1.6732Y-4.0354
X1.6732Y-4.5276
X1.6831Y-3.8878
X1.7421Y-3.8878
X1.8012Y-3.8878
X1.8602Y-3.8878
X1.9193Y-3.8878
X1.9783Y-3.8878
X2.0354Y-3.5039
X2.0374Y-3.8878
X2.0965Y-3.0906
X2.0965Y-3.1496
X2.0965Y-3.8878
X2.1555Y-3.1496
X2.1555Y-3.8878
X2.2146Y-3.1496
X2.2146Y-3.3858
X2.2146Y-3.4449
X2.2146Y-3.5039
X2.2146Y-3.563
X2.2146Y-3.622
X2.2146Y-3.6811
X2.2146Y-3.7402
X2.2146Y-3.7992
X2.2146Y-3.8583
X2.2146Y-3.9173
X2.2146Y-3.9764
X2.2146Y-4.0354
X2.2146Y-4.0945
X2.2736Y-3.1496
X2.3327Y-3.1496
X2.4311Y-3.6811
X2.4311Y-3.7402
X2.4311Y-3.7992
X2.4311Y-3.8583
X2.4311Y-3.9173
X2.4311Y-3.9764
X2.4311Y-4.0354
X2.4449Y-3.563
X2.4685Y-3.3189
X2.4902Y-3.5039
X2.4902Y-3.6024
X2.5492Y-3.5039
X2.5492Y-3.6024
X2.6083Y-3.1496
X2.6083Y-3.2087
X2.6083Y-3.2677
X2.6083Y-3.3268
X2.6083Y-3.3858
X2.6083Y-3.4449
X2.6083Y-3.5039
X2.6083Y-3.6024
X2.7559Y-2.0669
X2.7559Y-2.5591
X2.7559Y-3.0512
X2.7559Y-3.5433
X2.8346Y-1.935
X3.3858Y-4.626
X3.937Y-5.5118
X4.1339Y-1.7717
X4.4291Y-5.0197
X4.5276Y-2.2638
X4.7047Y-1.9094
X4.9055Y-1.4533
X4.9213Y-2.0177
X4.9213Y-2.5591
X4.9213Y-3.5433
X4.9213Y-4.5276
X4.9213Y-5.5118
X5.2165Y-2.0177
X5.2461Y-1.9094
X5.4305Y-1.4533
X5.8268Y-1.8799
X5.8355Y-1.7433
X5.9055Y-5.5118
X6.8701Y-2.5787
X6.8898Y-3.5433
X6.8898Y-4.5276
X6.8898Y-5.5118
X7.185Y-1.9488
X7.2441Y-2.2244
X7.2933Y-1.8663
X7.3819Y-5.0197
X7.3917Y-1.7163
X7.3917Y-1.7663
X7.3917Y-1.9663
X7.4311Y-1.9685
X7.4409Y-2.2244
X7.4409Y-2.3425
X7.4508Y-1.8012
X7.4606Y-2.1457
X7.6378Y-2.2244
X7.6378Y-2.3425
X7.7362Y-2.1161
X7.7756Y-1.8504
X7.7756Y-2.0276
X7.7756Y-2.1161
X7.9429Y-2.1358
X7.9429Y-2.2539
X7.9626Y-1.6163
X7.9626Y-1.6663
X8.061Y-2.1161
X8.0748Y-1.752
X8.1004Y-2.126
X8.1102Y-1.7323
X8.1201Y-1.8504
X8.1299Y-1.939
X8.1594Y-2.0374
X8.1693Y-2.8543
X8.1693Y-3.3465
X8.1693Y-5.0197
X8.1693Y-5.1181
X8.2185Y-1.7421
X8.2874Y-4.7244
X8.3268Y-2.6673
X8.3661Y-1.4567
X8.3661Y-1.9685
X8.3661Y-2.3622
X8.3661Y-4.0354
X8.3661Y-5.0197
X8.374Y-3.1417
X8.4252Y-2.8346
X8.4252Y-2.9528
X8.4252Y-3.0709
X8.4449Y-4.8819
X8.5138Y-4.6457
X8.5236Y-3.5236
X8.563Y-3.5236
X8.5856Y-5.001
X8.5925Y-2.0276
X8.5925Y-2.4902
X8.5925Y-2.9724
X8.5925Y-5.2756
X8.5926Y-5.0397
X8.6024Y-3.5236
X8.622Y-2.0965
X8.6417Y-3.5236
X8.6516Y-5.187
X8.6811Y-2.3327
X8.7106Y-1.8012
X8.7106Y-2.2146
X8.7598Y-4.9213
X8.7598Y-5.0197
X8.7598Y-5.1181
X8.7992Y-3.3268
X8.7992Y-3.376
X8.8583Y-2.0669
X8.8583Y-2.5591
X8.8583Y-4.0354
X8.8732Y-2.8746
X8.8732Y-2.9246
X8.8755Y-3.0733
X8.9764Y-3.3746
X8.9764Y-3.4246
X8.9764Y-3.4746
X9.0157Y-4.2618
X9.0551Y-2.8543
X9.0551Y-4.2028
X9.0551Y-4.2421
X9.1535Y-2.0669
X9.1535Y-2.5591
X9.1535Y-2.9528
X9.1535Y-3.0512
X9.1535Y-3.5433
X9.2224Y-4.626
X9.2224Y-5.1969
X9.3307Y-4.6949
X9.4193Y-5.1969
X9.4269Y-4.7253
X9.4488Y-2.0669
X9.4488Y-2.5591
X9.4488Y-3.0512
X9.4488Y-3.5433
X9.4488Y-3.8386
X9.5084Y-4.6414
X9.5101Y-4.7253
X9.5669Y-4.7736
X9.5965Y-4.6358
X9.6161Y-5.1969
X9.7047Y-4.7244
X9.7244Y-4.8228
X9.7835Y-4.6358
X9.8228Y-4.685
X9.9508Y-4.6358
X10.0098Y-4.6161
X10.0197Y-4.6752
T3
X1.7913Y-1.6693
X1.7913Y-5.4173
X1.819Y-1.6025
X1.819Y-1.7361
X1.819Y-5.3505
X1.819Y-5.4841
X1.8858Y-1.5748
X1.8858Y-1.7638
X1.8858Y-5.3228
X1.8858Y-5.5118
X1.9526Y-1.6025
X1.9526Y-1.7361
X1.9526Y-5.3505
X1.9526Y-5.4841
X1.9803Y-1.6693
X1.9803Y-5.4173
X5.811Y-2.3622
X5.811Y-4.7244
X5.8387Y-2.2954
X5.8387Y-2.429
X5.8387Y-4.6576
X5.8387Y-4.7912
X5.9055Y-2.2677
X5.9055Y-2.4567
X5.9055Y-4.6299
X5.9055Y-4.8189
X5.9723Y-2.2954
X5.9723Y-2.429
X5.9723Y-4.6576
X5.9723Y-4.7912
X6.0Y-2.3622
X6.0Y-4.7244
X8.0906Y-2.7165
X8.1791Y-5.374
X8.376Y-2.7165
X8.4449Y-5.0492
X8.4764Y-2.6673
X9.8307Y-1.6693
X9.8307Y-5.4173
X9.8584Y-1.6025
X9.8584Y-1.7361
X9.8584Y-5.3505
X9.8584Y-5.4841
X9.9252Y-1.5748
X9.9252Y-1.7638
X9.9252Y-5.3228
X9.9252Y-5.5118
X9.992Y-1.6025
X9.992Y-1.7361
X9.992Y-5.3505
X9.992Y-5.4841
X10.0197Y-1.6693
X10.0197Y-5.4173
T4
X1.7539Y-2.6083
X1.7539Y-2.687
X2.313Y-2.0866
X6.1555Y-2.2047
X8.9272Y-3.5335
T5
X1.9685Y-4.2618
X2.0394Y-4.065
T6
X7.6181Y-2.8543
X7.6181Y-3.1543
X7.6181Y-3.3543
X7.6181Y-3.5433
X7.6181Y-3.8433
X7.6181Y-4.0433
X7.6181Y-4.2323
X7.6181Y-4.5323
X7.6181Y-4.7323
X7.9181Y-2.8543
X7.9181Y-3.3543
X7.9181Y-3.5433
X7.9181Y-4.0433
X7.9181Y-4.2323
X7.9181Y-4.7323
T7
X8.0807Y-5.5034
X8.2776Y-5.5034
T8
X1.7882Y-4.3965
X1.7882Y-4.5965
X1.9882Y-4.3965
X1.9882Y-4.4965
X1.9882Y-4.5965
T9
X9.6161Y-1.6205
X9.6161Y-1.7205
T10
X8.4941Y-5.5512
X8.6713Y-5.5512
X8.9075Y-5.5512
X9.0846Y-5.5512
T11
X2.4197Y-4.8378
X2.4197Y-4.9378
X2.4197Y-5.0378
X2.4197Y-5.1378
X2.5197Y-4.8378
X2.5197Y-4.9378
X2.5197Y-5.0378
X2.5197Y-5.1378
X2.5886Y-4.5276
X2.7854Y-4.5276
X3.7992Y-1.8563
X3.7992Y-1.9488
X3.7992Y-2.0413
X3.7992Y-2.2894
X3.7992Y-2.3819
X3.7992Y-2.4744
X3.7992Y-2.7224
X3.7992Y-2.815
X3.7992Y-2.9075
X3.7992Y-3.1555
X3.7992Y-3.248
X3.7992Y-3.3406
X3.7992Y-3.5886
X3.7992Y-3.6811
X3.7992Y-3.7736
X3.7992Y-4.0217
X3.7992Y-4.1142
X3.7992Y-4.2067
X3.7992Y-4.4547
X3.7992Y-4.5472
X3.7992Y-4.6398
X3.7992Y-4.8878
X3.7992Y-4.9803
X3.7992Y-5.0728
X4.2055Y-1.5933
X4.3055Y-1.5933
X4.4055Y-1.5933
X4.5055Y-1.5933
X4.8055Y-1.5933
X4.9055Y-1.5933
X5.0055Y-1.5933
X5.1055Y-1.5933
X5.4055Y-1.5933
X5.5055Y-1.5933
X5.6055Y-1.5933
X5.7055Y-1.5933
X5.8055Y-1.5933
X5.9055Y-1.5933
X6.4055Y-1.5933
X6.5055Y-1.5933
X6.6055Y-1.5933
X6.7055Y-1.5933
X6.8055Y-1.5933
X6.9055Y-1.5933
X8.6555Y-1.5933
X8.7555Y-1.5933
X8.8555Y-1.5933
X8.9555Y-1.5933
X9.0555Y-1.5933
X9.3063Y-4.1535
X9.4063Y-4.1535
X9.5063Y-4.1535
X9.6063Y-4.1535
X9.9016Y-4.1535
X10.0Y-1.9587
X10.0Y-2.0587
X10.0Y-2.1587
X10.0Y-2.2587
X10.0Y-2.3587
X10.0Y-2.4587
X10.0Y-2.5587
X10.0Y-2.6587
X10.0Y-2.7587
X10.0Y-2.8587
X10.0Y-2.9587
X10.0Y-3.0587
X10.0Y-3.1587
X10.0Y-3.2587
X10.0Y-3.3587
X10.0Y-3.4587
X10.0Y-3.5587
X10.0Y-3.6587
X10.0016Y-4.1535
T12
X4.5768Y-2.7854
X4.5768Y-2.9232
X4.5768Y-3.061
X4.5768Y-3.1988
X4.5768Y-3.3366
X4.5768Y-3.4744
X4.5768Y-3.6122
X4.5768Y-3.75
X4.5768Y-3.8878
X4.5768Y-4.0256
X4.5768Y-4.1634
X4.5768Y-4.3012
X4.7736Y-2.7854
X4.7736Y-2.9232
X4.7736Y-3.061
X4.7736Y-3.1988
X4.7736Y-3.3366
X4.7736Y-3.4744
X4.7736Y-3.6122
X4.7736Y-3.75
X4.7736Y-3.8878
X4.7736Y-4.0256
X4.7736Y-4.1634
X4.7736Y-4.3012
X7.0276Y-2.7854
X7.0276Y-2.9232
X7.0276Y-3.061
X7.0276Y-3.1988
X7.0276Y-3.3366
X7.0276Y-3.4744
X7.0276Y-3.6122
X7.0276Y-3.75
X7.0276Y-3.8878
X7.0276Y-4.0256
X7.0276Y-4.1634
X7.0276Y-4.3012
X7.2244Y-2.7854
X7.2244Y-2.9232
X7.2244Y-3.061
X7.2244Y-3.1988
X7.2244Y-3.3366
X7.2244Y-3.4744
X7.2244Y-3.6122
X7.2244Y-3.75
X7.2244Y-3.8878
X7.2244Y-4.0256
X7.2244Y-4.1634
X7.2244Y-4.3012
T13
X8.4445Y-5.4531
X8.7205Y-5.4531
X8.8579Y-5.4531
X9.1339Y-5.4531
T14
X1.8858Y-1.6693
X1.8858Y-5.4173
X2.4685Y-1.5433
X2.4685Y-5.5433
X5.9055Y-2.3622
X5.9055Y-4.7244
X9.3425Y-1.5433
X9.3425Y-5.5433
X9.9252Y-1.6693
X9.9252Y-5.4173
T15
X4.7244Y-2.3622
X4.7244Y-4.7244
X7.0866Y-2.3622
X7.0866Y-4.7244
T4
G00X8.0413Y-5.6235
M15
G01X8.0413Y-5.596
M16
G05
G00X8.3169Y-5.596
M15
G01X8.3169Y-5.6235
M16
G05
T11
G00X1.8602Y-4.9705
M15
G01X1.8602Y-5.0492
M16
G05
G00X1.939Y-5.1949
M15
G01X2.0177Y-5.1949
M16
G05
G00X2.0965Y-4.9705
M15
G01X2.0965Y-5.0492
M16
G05
T0
M30
