M48
; DRILL file {KiCad (5.1.9-0-10_14)} date Thursday, March 25, 2021 at 12:14:57 AM
; FORMAT={-:-/ absolute / inch / decimal}
; #@! TF.CreationDate,2021-03-25T00:14:57-05:00
; #@! TF.GenerationSoftware,Kicad,Pcbnew,(5.1.9-0-10_14)
; #@! TF.FileFunction,NonPlated,1,2,NPTH
FMAT,2
INCH
T1C0.0709
%
G90
G05
T1
G00X2.0472Y-1.878
M15
G01X2.0472Y-1.9016
M16
G05
G00X2.0472Y-2.0748
M15
G01X2.0472Y-2.0984
M16
G05
G00X2.0472Y-2.2717
M15
G01X2.0472Y-2.2953
M16
G05
G00X8.6909Y-4.3386
M15
G01X8.6909Y-4.3622
M16
G05
G00X8.6909Y-4.5354
M15
G01X8.6909Y-4.5591
M16
G05
G00X8.6909Y-4.7323
M15
G01X8.6909Y-4.7559
M16
G05
G00X9.7539Y-1.878
M15
G01X9.7539Y-1.9016
M16
G05
G00X9.7539Y-2.0748
M15
G01X9.7539Y-2.0984
M16
G05
G00X9.7539Y-2.2717
M15
G01X9.7539Y-2.2953
M16
G05
G00X9.7539Y-2.4685
M15
G01X9.7539Y-2.4921
M16
G05
G00X9.7539Y-2.6654
M15
G01X9.7539Y-2.689
M16
G05
G00X9.7539Y-2.8622
M15
G01X9.7539Y-2.8858
M16
G05
G00X9.7539Y-3.0591
M15
G01X9.7539Y-3.0827
M16
G05
G00X9.7539Y-3.2559
M15
G01X9.7539Y-3.2795
M16
G05
G00X9.7539Y-3.4528
M15
G01X9.7539Y-3.4764
M16
G05
G00X9.7539Y-3.6496
M15
G01X9.7539Y-3.6732
M16
G05
G00X9.7539Y-3.8465
M15
G01X9.7539Y-3.8701
M16
G05
T0
M30
