0
SECTION
2
HEADER
9
$INSUNITS
70
4
9
$ACADVER
1
AC1014
9
$HANDSEED
5
FFFF
0
ENDSEC
0
SECTION
2
TABLES
0
TABLE
2
VPORT
5
8
100
AcDbSymbolTable
0
ENDTAB
0
TABLE
2
LTYPE
5
5
100
AcDbSymbolTable
0
LTYPE
5
14
100
AcDbSymbolTableRecord
100
AcDbLinetypeTableRecord
2
BYBLOCK
70
0
0
LTYPE
5
15
100
AcDbSymbolTableRecord
100
AcDbLinetypeTableRecord
2
BYLAYER
70
0
0
ENDTAB
0
TABLE
2
LAYER
5
2
100
AcDbSymbolTable
70
2
0
LAYER
5
50
100
AcDbSymbolTableRecord
100
AcDbLayerTableRecord
2
0
70
0
6
CONTINUOUS
0
ENDTAB
0
TABLE
2
STYLE
5
3
100
AcDbSymbolTable
70
1
0
STYLE
5
11
100
AcDbSymbolTableRecord
100
AcDbTextStyleTableRecord
2
STANDARD
70
0
0
ENDTAB
0
TABLE
2
VIEW
5
6
100
AcDbSymbolTable
70
0
0
ENDTAB
0
TABLE
2
UCS
5
7
100
AcDbSymbolTable
70
0
0
ENDTAB
0
TABLE
2
APPID
5
9
100
AcDbSymbolTable
70
2
0
APPID
5
12
100
AcDbSymbolTableRecord
100
AcDbRegAppTableRecord
2
ACAD
70
0
0
ENDTAB
0
TABLE
2
DIMSTYLE
5
A
100
AcDbSymbolTable
70
1
0
ENDTAB
0
TABLE
2
BLOCK_RECORD
5
1
100
AcDbSymbolTable
70
1
0
BLOCK_RECORD
5
1F
100
AcDbSymbolTableRecord
100
AcDbBlockTableRecord
2
*MODEL_SPACE
0
BLOCK_RECORD
5
1B
100
AcDbSymbolTableRecord
100
AcDbBlockTableRecord
2
*PAPER_SPACE
0
ENDTAB
0
ENDSEC
0
SECTION
2
BLOCKS
0
BLOCK
5
20
100
AcDbEntity
100
AcDbBlockBegin
2
*MODEL_SPACE
0
ENDBLK
5
21
100
AcDbEntity
100
AcDbBlockEnd
0
BLOCK
5
1C
100
AcDbEntity
100
AcDbBlockBegin
2
*PAPER_SPACE
0
ENDBLK
5
1D
100
AcDbEntity
100
AcDbBlockEnd
0
ENDSEC
0
SECTION
2
ENTITIES
0
LINE
5
100
100
AcDbEntity
8
0
100
AcDbLine
10
42.5
20
29.000000000000004
30
0
11
-42.5
21
29.000000000000004
31
0
0
LINE
5
101
100
AcDbEntity
8
0
100
AcDbLine
10
-42.5
20
29.000000000000004
30
0
11
-42.5
21
-29.000000000000004
31
0
0
LINE
5
102
100
AcDbEntity
8
0
100
AcDbLine
10
-42.5
20
-29.000000000000004
30
0
11
42.5
21
-29.000000000000004
31
0
0
LINE
5
103
100
AcDbEntity
8
0
100
AcDbLine
10
42.5
20
-29.000000000000004
30
0
11
42.5
21
29.000000000000004
31
0
0
LINE
5
104
100
AcDbEntity
8
0
100
AcDbLine
10
42.5
20
29.000000000000004
30
0
11
-42.5
21
-29.000000000000004
31
0
0
LINE
5
105
100
AcDbEntity
8
0
100
AcDbLine
10
-42.5
20
29.000000000000004
30
0
11
42.5
21
-29.000000000000004
31
0
0
LINE
5
106
100
AcDbEntity
8
0
100
AcDbLine
10
42.5
20
26.500000000000004
30
0
11
-42.5
21
26.500000000000004
31
0
0
LINE
5
107
100
AcDbEntity
8
0
100
AcDbLine
10
-42.5
20
-26.500000000000004
30
0
11
42.5
21
-26.500000000000004
31
0
0
LINE
5
108
100
AcDbEntity
8
0
100
AcDbLine
10
61.600000000000009
20
45.000000000000007
30
0
11
-61.600000000000001
21
45
31
0
0
LINE
5
109
100
AcDbEntity
8
0
100
AcDbLine
10
-68
20
38.600000000000001
30
0
11
-68
21
-45
31
0
0
LINE
5
110
100
AcDbEntity
8
0
100
AcDbLine
10
-68
20
-45
30
0
11
68
21
-45
31
0
0
LINE
5
111
100
AcDbEntity
8
0
100
AcDbLine
10
68
20
-45
30
0
11
68
21
38.599999999999994
31
0
0
LINE
5
112
100
AcDbEntity
8
0
100
AcDbLine
10
68
20
45
30
0
11
-68
21
-45
31
0
0
LINE
5
113
100
AcDbEntity
8
0
100
AcDbLine
10
-68
20
45
30
0
11
68
21
-45
31
0
0
LINE
5
114
100
AcDbEntity
8
0
100
AcDbLine
10
-68
20
-45
30
0
11
68
21
-45
31
0
0
LINE
5
115
100
AcDbEntity
8
0
100
AcDbLine
10
68
20
-45
30
0
11
68
21
-48.600000000000001
31
0
0
LINE
5
116
100
AcDbEntity
8
0
100
AcDbLine
10
61.600000000000009
20
-55
30
0
11
-61.600000000000001
21
-54.999999999999993
31
0
0
LINE
5
117
100
AcDbEntity
8
0
100
AcDbLine
10
-68
20
-48.600000000000001
30
0
11
-68
21
-45
31
0
0
LWPOLYLINE
5
118
100
AcDbEntity
8
0
100
AcDbPolyline
90
4
70
1
43
0.0
10
61.600000000000001
20
-38.600000000000001
10
-61.600000000000001
20
-38.600000000000001
10
-61.600000000000001
20
38.600000000000001
10
61.600000000000001
20
38.599999999999987
0
LINE
5
119
100
AcDbEntity
8
0
100
AcDbLine
10
61.600000000000001
20
38.599999999999987
30
0
11
61.600000000000001
21
45
31
0
0
LINE
5
120
100
AcDbEntity
8
0
100
AcDbLine
10
61.600000000000001
20
38.599999999999987
30
0
11
68
21
38.599999999999987
31
0
0
LINE
5
121
100
AcDbEntity
8
0
100
AcDbLine
10
-61.600000000000001
20
38.600000000000001
30
0
11
-61.600000000000001
21
45
31
0
0
LINE
5
122
100
AcDbEntity
8
0
100
AcDbLine
10
-61.600000000000001
20
38.600000000000001
30
0
11
-68
21
38.600000000000001
31
0
0
LINE
5
123
100
AcDbEntity
8
0
100
AcDbLine
10
-61.600000000000001
20
-38.600000000000001
30
0
11
-61.600000000000001
21
-55
31
0
0
LINE
5
124
100
AcDbEntity
8
0
100
AcDbLine
10
61.600000000000001
20
-38.600000000000001
30
0
11
61.600000000000001
21
-55
31
0
0
LINE
5
125
100
AcDbEntity
8
0
100
AcDbLine
10
68
20
-48.599999999999994
30
0
11
-68
21
-48.599999999999994
31
0
0
LINE
5
126
100
AcDbEntity
8
0
100
AcDbLine
10
68
20
45
30
0
11
39.500000000000007
21
45
31
0
0
LINE
5
127
100
AcDbEntity
8
0
100
AcDbLine
10
39.500000000000007
20
45
30
0
11
39.500000000000007
21
25
31
0
0
LINE
5
128
100
AcDbEntity
8
0
100
AcDbLine
10
39.500000000000007
20
25
30
0
11
68
21
25
31
0
0
LINE
5
129
100
AcDbEntity
8
0
100
AcDbLine
10
68
20
25
30
0
11
68
21
45
31
0
0
LINE
5
130
100
AcDbEntity
8
0
100
AcDbLine
10
42.500000000000007
20
45
30
0
11
42.500000000000007
21
25
31
0
0
LINE
5
131
100
AcDbEntity
8
0
100
AcDbLine
10
54.500000000000014
20
45
30
0
11
54.500000000000014
21
25
31
0
0
LINE
5
132
100
AcDbEntity
8
0
100
AcDbLine
10
57.500000000000007
20
45
30
0
11
57.500000000000007
21
25
31
0
0
ARC
5
133
100
AcDbEntity
8
0
100
AcDbCircle
10
-61.60000000000003
20
38.600000000000016
30
0
40
6.3999999999999835
210
0
220
-0
230
1
100
AcDbArc
50
89.999999999999744
51
180
0
ARC
5
134
100
AcDbEntity
8
0
100
AcDbCircle
10
-61.60000000000003
20
-48.600000000000009
30
0
40
6.399999999999979
210
0
220
0
230
1
100
AcDbArc
50
180
51
270.00000000000023
0
ARC
5
135
100
AcDbEntity
8
0
100
AcDbCircle
10
61.600000000000023
20
-48.600000000000009
30
0
40
6.3999999999999879
210
0
220
0
230
1
100
AcDbArc
50
-90.000000000000099
51
0
0
ARC
5
136
100
AcDbEntity
8
0
100
AcDbCircle
10
61.600000000000023
20
38.600000000000023
30
0
40
6.3999999999999879
210
0
220
0
230
1
100
AcDbArc
50
0
51
90.000000000000128
0
LINE
5
137
100
AcDbEntity
8
0
100
AcDbLine
10
0
20
0
30
0
11
68
21
0
31
0
0
LINE
5
138
100
AcDbEntity
8
0
100
AcDbLine
10
0
20
0
30
0
11
-68
21
0
31
0
0
LINE
5
139
100
AcDbEntity
8
0
100
AcDbLine
10
0
20
0
30
0
11
8.8817841970012523e-15
21
45
31
0
0
LINE
5
140
100
AcDbEntity
8
0
100
AcDbLine
10
0
20
0
30
0
11
8.8817841970012523e-15
21
-55
31
0
0
LINE
5
141
100
AcDbEntity
8
0
100
AcDbLine
10
21
20
21.600000000000001
30
0
11
-21
21
21.600000000000001
31
0
0
LINE
5
142
100
AcDbEntity
8
0
100
AcDbLine
10
-21
20
21.600000000000001
30
0
11
-21
21
-21.600000000000001
31
0
0
LINE
5
143
100
AcDbEntity
8
0
100
AcDbLine
10
-21
20
-21.600000000000001
30
0
11
21
21
-21.600000000000001
31
0
0
LINE
5
144
100
AcDbEntity
8
0
100
AcDbLine
10
21
20
-21.600000000000001
30
0
11
21
21
21.600000000000001
31
0
0
LINE
5
145
100
AcDbEntity
8
0
100
AcDbLine
10
21
20
21.600000000000001
30
0
11
-21
21
-21.600000000000001
31
0
0
LINE
5
146
100
AcDbEntity
8
0
100
AcDbLine
10
-21
20
21.600000000000001
30
0
11
21
21
-21.600000000000001
31
0
0
LINE
5
147
100
AcDbEntity
8
0
100
AcDbLine
10
-21
20
20.100000000000001
30
0
11
21
21
20.100000000000001
31
0
0
LINE
5
148
100
AcDbEntity
8
0
100
AcDbLine
10
21
20
-20.100000000000001
30
0
11
-21
21
-20.100000000000001
31
0
0
ENDSEC
0
SECTION
2
OBJECTS
0
DICTIONARY
5
C
100
AcDbDictionary
3
ACAD_GROUP
350
D
3
ACAD_MLINESTYLE
350
17
0
DICTIONARY
5
D
100
AcDbDictionary
0
DICTIONARY
5
1A
330
C
100
AcDbDictionary
0
DICTIONARY
5
17
100
AcDbDictionary
0
ENDSEC
0
EOF
